<?xml version="1.0" encoding="utf-8"?>
<!-- Generator: Adobe Illustrator 21.0.2, SVG Export Plug-In . SVG Version: 6.00 Build 0)  -->
<svg version="1.1" id="Layer_1" xmlns="http://www.w3.org/2000/svg" xmlns:xlink="http://www.w3.org/1999/xlink" x="0px" y="0px"
	 viewBox="0 0 864 259" style="enable-background:new 0 0 864 259;" xml:space="preserve">
<style type="text/css">
	.st0{fill-rule:evenodd;clip-rule:evenodd;fill:#DC8E6A;}
	.st1{fill:#CC2431;}
	.st2{fill-rule:evenodd;clip-rule:evenodd;fill:#CC2431;}
	.st3{fill-rule:evenodd;clip-rule:evenodd;fill:none;stroke:#CC2431;stroke-width:4;stroke-miterlimit:10;}
	.st4{fill:#FDBB41;}
	.st5{fill:#4B5C87;}
	.st6{fill-rule:evenodd;clip-rule:evenodd;fill:#FDBB41;}
	.st7{fill-rule:evenodd;clip-rule:evenodd;fill:#4B5C87;}
	.st8{fill:#8D745B;}
	.st9{fill:#F2DAB2;}
	.st10{fill-rule:evenodd;clip-rule:evenodd;fill:#F2DAB2;}
	.st11{fill-rule:evenodd;clip-rule:evenodd;fill:#8D745B;}
	.st12{fill-rule:evenodd;clip-rule:evenodd;fill:#FFE6C2;}
	.st13{fill:#5B1B0F;}
	.st14{fill:#ECC96F;}
	.st15{fill-rule:evenodd;clip-rule:evenodd;fill:#ECC96F;}
	.st16{fill-rule:evenodd;clip-rule:evenodd;fill:#5B1B0F;}
	.st17{fill-rule:evenodd;clip-rule:evenodd;fill:#3F0800;}
	.st18{fill:#3F0800;}
	.st19{fill-rule:evenodd;clip-rule:evenodd;fill:none;stroke:#4B5C87;stroke-width:4;stroke-miterlimit:10;}
	.st20{fill-rule:evenodd;clip-rule:evenodd;fill:none;stroke:#8D745B;stroke-width:4;stroke-miterlimit:10;}
	.st21{fill-rule:evenodd;clip-rule:evenodd;fill:none;stroke:#5B1B0F;stroke-width:4;stroke-miterlimit:10;}
	.st22{fill:#DC8E6A;}
</style>
<g>
	<g>
		<path class="st8" d="M76.3,106.1h-9.5L56.7,77.7v-5.5h9V52.9H54.1v53.3H45V45h24.3c3.7,0,5.5,1.9,5.5,5.6v22.2
			c0,2.6-0.9,4.2-2.6,5c-0.9,0.4-2.9,0.6-5.9,0.6L76.3,106.1z"/>
		<path class="st8" d="M112.7,100.5c0,3.7-1.8,5.6-5.5,5.6H87.3c-3.6,0-5.4-1.9-5.4-5.6V50.6c0-3.8,1.8-5.6,5.4-5.6h19.8
			c3.7,0,5.5,1.9,5.5,5.6V100.5z M103.6,98.3V52.9H91v45.4H103.6z"/>
		<path class="st8" d="M157,106.1h-8.8V76c0-1.6,0.2-3.8,0.5-6.6l-7.9,31.2h-4.6l-7.9-31.2c0.4,2.9,0.5,5.1,0.5,6.6v30.2H120V45h8.6
			l9.6,33.8c0.1,0.4,0.2,1.3,0.2,2.8c0-0.7,0.1-1.6,0.2-2.8l9.6-33.8h8.6V106.1z"/>
		<path class="st8" d="M189.6,106.1h-25.4V45h25.1v8.1h-16v17.9h13.8v7.9h-13.8V98h16.2V106.1z"/>
	</g>
</g>
<g>
	<g>
		<path class="st9" d="M47.1,156.9H45v-24.2h2.1V156.9z"/>
		<path class="st9" d="M59.5,134.7h-3.7v22.3h-2.1v-22.3h-3.8v-1.9h9.6V134.7z"/>
		<path class="st9" d="M71.7,156.9h-2.1l-0.8-5.4H64l-0.8,5.4H61v-0.1l4.3-24.2h2.1L71.7,156.9z M68.5,149.7l-2.1-13.1l-2.1,13.1
			H68.5z"/>
		<path class="st9" d="M82.4,156.9h-7.7v-24.2h2.1V155h5.6V156.9z"/>
		<path class="st9" d="M95,132.9l-2.9,9.8c-0.4,1-0.9,2.6-1.5,4.9v9.4h-2.1v-9.4c-0.1-0.8-0.4-1.6-0.7-2.5c-0.5-1.5-0.8-2.3-0.8-2.4
			l-2.9-9.8c0,0,0-0.1,0-0.1h2.2l3.3,12.1l3.3-12.1H95C95,132.9,95,132.9,95,132.9z"/>
	</g>
</g>
<g>
	<polygon class="st10" points="454.6,126.7 454.6,245 467.3,245 508.1,245 508.1,109.8 467.3,94.8 	"/>
	<polygon class="st10" points="779.1,190.3 779.1,94.8 720,94.8 720,190.3 720,245 779.1,245 846.5,245 846.5,190.3 	"/>
</g>
<path class="st11" d="M722.5,161h-9.8h-3.9h-1.9h-1.9h-3.9H683h-3.9h-1.9h-1.9h-3.9h-11.8h-3.9h-1.9h-1.9H648h-13.3h-3.9H629H627
	h-3.9h-23.9h-3.9h-1.9h-1.9h-3.9h-13.3h-3.9h-1.9h-1.9h-3.9h-11.8h-3.9h-1.9h-1.9h-3.9h-18.1h-3.9h-1.9h-1.9h-3.9H500
	c-1.5,0-2.8,1.2-2.8,2.8V259h12.6h3.9h1.9h1.9h3.9h18.1h3.9h1.9h1.9h3.9h11.8h3.9h1.9h1.9h3.9h13.3h3.9h1.9h1.9h3.9h23.9h3.9h1.9
	h1.9h3.9H648h3.9h1.9h1.9h3.9h11.8h3.9h1.9h1.9h3.9h18.1h3.9h1.9h1.9h3.9h12.6v-95.2C725.2,162.3,724,161,722.5,161z M711.5,214.2
	h1.1h1.1v1.3h-1.1h-1.1V214.2z M710.5,201.2v10.4h-1.7h-1.9h-1.9h-1.7v-10.4c0-1.3,0.7-2.4,1.7-3.1c0.6-0.4,1.2-0.6,1.9-0.6h0h0
	c0.7,0,1.4,0.2,1.9,0.6C709.8,198.8,710.5,199.9,710.5,201.2z M709.9,214.2v1.3h-1.1h-1.1v-1.3h1.1H709.9z M706,214.2v1.3h-1.1h-1.1
	v-1.3h1.1H706z M700.1,164.1h0.9h3.9h1.9h1.9h0.6v10.8h-0.6h-1.9h-1.9h-3.9h-0.9V164.1z M699.9,214.2h1.1h1.1v1.3h-1.1h-1.1V214.2z
	 M673.8,168.6h1.5h1.9h1.9h0v6.3h0h-1.9h-1.9h-1.5V168.6z M673.6,201.2c0-1.3,0.7-2.4,1.7-3.1c0.6-0.4,1.2-0.6,1.9-0.6
	c0.7,0,1.4,0.2,1.9,0.6c1,0.6,1.7,1.8,1.7,3.1v10.4h-1.7h-1.9h-1.9h-1.7V201.2z M680.3,214.2v1.3h-1.1H678v-1.3h1.1H680.3z
	 M676.4,214.2v1.3h-1.1h-1.1v-1.3h1.1H676.4z M543.3,168.6L543.3,168.6h2h1.9h1.5v6.3h-1.5h-1.9h-1.9h0V168.6z M513.1,164.1h0.6h1.9
	h1.9h3.9h0.9v10.8h-0.9h-3.9h-1.9h-1.9h-0.6V164.1z M522.6,214.2v1.3h-1.1h-1.1v-1.3h1.1H522.6z M512,201.2c0-1.3,0.7-2.4,1.7-3.1
	c0.6-0.4,1.2-0.6,1.9-0.6s1.4,0.2,1.9,0.6c1,0.6,1.7,1.8,1.7,3.1v10.4h-1.7h-1.9h-1.9H512V201.2z M518.7,214.2v1.3h-1.1h-1.1v-1.3
	h1.1H518.7z M514.9,214.2v1.3h-1.1h-1.1v-1.3h1.1H514.9z M508.7,214.2h1.1h1.1v1.3h-1.1h-1.1V214.2z M523.7,247.9h-2.3h-3.9h-1.9
	h-1.9h-3.9h-2.3v-23.1c0-2.2,0.9-4.1,2.3-5.6c1-1.1,2.4-1.9,3.9-2.2c0.6-0.2,1.3-0.2,1.9-0.2c0.7,0,1.3,0.1,1.9,0.2
	c1.5,0.4,2.8,1.2,3.9,2.2c1.4,1.4,2.3,3.4,2.3,5.6V247.9z M540.6,215.4h-1.1h-1.1v-1.3h1.1h1.1V215.4z M547.9,238h-0.6h-1.9h-1.9
	h-0.6v-7.3c0-0.6,0.2-1.2,0.6-1.7c0.5-0.5,1.2-0.9,1.9-0.9h0c0.8,0,1.5,0.3,1.9,0.9c0.4,0.4,0.6,1,0.6,1.7V238z M548.9,221.3h-1.7
	h-1.9h-1.9h-1.7v-3.8h1.7h1.9h1.9h1.7V221.3z M542.2,215.4v-1.3h1.1h1.1v1.3h-1.1H542.2z M546.1,215.4v-1.3h1.1h1.1v1.3h-1.1H546.1z
	 M548.9,211.7h-1.7h-1.9h-1.9h-1.7v-10.4c0-1.3,0.7-2.4,1.7-3.1c0.6-0.4,1.2-0.6,1.9-0.6h0c0.7,0,1.4,0.2,1.9,0.6
	c1,0.6,1.7,1.8,1.7,3.1V211.7z M552.2,215.4h-1.1H550v-1.3h1.1h1.1V215.4z M561.7,215.4v-1.3h1.1h1.1v1.3h-1.1H561.7z M566.7,217.5
	h1.9h1.9h1.7v3.8h-1.7h-1.9h-1.9H565v-3.8H566.7z M565.6,215.4v-1.3h1.1h1.1v1.3h-1.1H565.6z M569.5,215.4v-1.3h1.1h1.1v1.3h-1.1
	H569.5z M570.6,211.7h-1.9h-1.9H565v-10.4c0-1.3,0.7-2.4,1.7-3.1c0.6-0.4,1.2-0.6,1.9-0.6h0c0.7,0,1.4,0.2,1.9,0.6
	c1,0.6,1.7,1.8,1.7,3.1v10.4H570.6z M572.3,174.9h-1.7h-1.9h-1.9h-3.2v-6.3h3.2h1.9h1.9h1.7V174.9z M573.7,250.1h-3.1h-1.9h-1.9
	h-3.1v-19.8c0-2.1,1.3-3.9,3.1-4.7c0.6-0.2,1.2-0.4,1.9-0.4h0c0.7,0,1.3,0.1,1.9,0.4c1.8,0.8,3.1,2.6,3.1,4.7V250.1z M575.6,215.4
	h-1.1h-1.1v-1.3h1.1h1.1V215.4z M574.5,166.3h-3.9h-1.9h-1.9h-3.9h-3.2l3.2-1.5l3.9-1.9l1.1-0.6l0.8,0.4l1.9,0.9l3.9,1.9l1.7,0.8
	H574.5z M588.9,215.4h-1.1h-1.1v-1.3h1.1h1.1V215.4z M596.8,250.1h-1.4h-1.9h-1.9h-1.8v-13.8c0-1.3,0.7-2.5,1.8-3.1
	c0.5-0.3,1.1-0.5,1.7-0.5c0.1,0,0.1,0,0.2,0c0.7,0,1.4,0.3,1.9,0.7c0.8,0.6,1.4,1.7,1.4,2.8V250.1z M597.2,221.3h-1.7h-1.9h-1.9
	h-1.7v-3.8h1.7h1.9h1.9h1.7V221.3z M590.5,215.4v-1.3h1.1h1.1v1.3h-1.1H590.5z M594.3,215.4v-1.3h1.1h1.1v1.3h-1.1H594.3z
	 M597.2,211.7h-1.7h-1.9h-1.9h-1.7v-10.4c0-1.3,0.7-2.4,1.7-3.1c0.6-0.4,1.2-0.6,1.9-0.6h0c0.7,0,1.4,0.2,1.9,0.6
	c1,0.6,1.7,1.8,1.7,3.1V211.7z M600.5,215.4h-1.1h-1.1v-1.3h1.1h1.1V215.4z M604.3,170.2l-5,2.4l-3.9,1.8l-1.9,0.9l-1.9,0.9
	l-3.9,1.8l-2.1,1H580l7.8-3.7l3.1-1.5h-0.2v-5.4h1h1.9h1.9h0.6v2.9l3.3-1.6l5.1-2.4L604.3,170.2z M624.3,215.4h-1.1H622v-1.3h1.1
	h1.1V215.4z M630.9,211.7H629H627h-1.7v-10.4c0-1.3,0.7-2.4,1.7-3.1c0.6-0.4,1.2-0.6,1.9-0.6c0.7,0,1.4,0.2,1.9,0.6
	c1,0.6,1.7,1.8,1.7,3.1v10.4H630.9z M632,214.2v1.3h-1.1h-1.1v-1.3h1.1H632z M628.2,214.2v1.3H627h-1.1v-1.3h1.1H628.2z M627,217.5
	h1.9h1.9h1.7v3.8h-1.7H629H627h-1.7v-3.8H627z M632.7,250.1h-1.8H629H627h-1.4v-13.8c0-1.1,0.5-2.1,1.4-2.8c0.5-0.4,1.2-0.7,1.9-0.7
	c0.1,0,0.1,0,0.2,0h0c0.6,0,1.2,0.2,1.7,0.5c1.1,0.6,1.8,1.8,1.8,3.1V250.1z M635.9,215.4h-1.1h-1.1v-1.3h1.1h1.1V215.4z
	 M636.9,179.2l-2.1-1l-3.9-1.8l-1.9-0.9l-1.9-0.9l-3.9-1.8l-5-2.4l-0.1-2.7l5.1,2.4l3.3,1.6v-2.9h0.6h1.9h1.9h1v5.4h-0.2l3.1,1.5
	l7.8,3.7H636.9z M646.9,215.4v-1.3h1.1h1.1v1.3H648H646.9z M658.9,250.1h-3.1h-1.9h-1.9h-3.1v-19.8c0-2.1,1.3-3.9,3.1-4.7
	c0.6-0.2,1.2-0.4,1.9-0.4c0.7,0,1.3,0.1,1.9,0.4c1.8,0.8,3.1,2.6,3.1,4.7V250.1z M651.9,198.2c0.6-0.4,1.2-0.6,1.9-0.6
	c0.7,0,1.4,0.2,1.9,0.6c1,0.6,1.7,1.8,1.7,3.1v10.4h-1.7h-1.9h-1.9h-1.7v-10.4C650.2,199.9,650.9,198.8,651.9,198.2z M650.2,174.9
	v-6.3h1.7h1.9h1.9h3.2v6.3h-3.2h-1.9h-1.9H650.2z M656.9,214.2v1.3h-1.1h-1.1v-1.3h1.1H656.9z M653,214.2v1.3h-1.1h-1.1v-1.3h1.1
	H653z M651.9,217.5h1.9h1.9h1.7v3.8h-1.7h-1.9h-1.9h-1.7v-3.8H651.9z M660.8,215.4h-1.1h-1.1v-1.3h1.1h1.1V215.4z M659.6,166.3h-3.9
	h-1.9h-1.9H648h-1.7l1.7-0.8l3.9-1.9l1.9-0.9l0.8-0.4l1.1,0.6l3.9,1.9l3.2,1.5H659.6z M672.5,215.4h-1.1h-1.1v-1.3h1.1h1.1V215.4z
	 M679.8,238h-0.6h-1.9h-1.9h-0.6v-7.3c0-0.6,0.2-1.2,0.6-1.7c0.5-0.5,1.2-0.9,1.9-0.9c0.8,0,1.5,0.3,1.9,0.9c0.4,0.4,0.6,1,0.6,1.7
	V238z M680.8,221.3h-1.7h-1.9h-1.9h-1.7v-3.8h1.7h1.9h1.9h1.7V221.3z M684.1,215.4H683h-1.1v-1.3h1.1h1.1V215.4z M714.9,247.9h-2.3
	h-3.9h-1.9h-1.9h-3.9h-2.3v-23.1c0-2.2,0.9-4.1,2.3-5.6c1-1.1,2.4-1.9,3.9-2.2c0.6-0.2,1.3-0.2,1.9-0.2h0h0c0.7,0,1.3,0.1,1.9,0.2
	c1.5,0.4,2.8,1.2,3.9,2.2c1.4,1.4,2.3,3.4,2.3,5.6V247.9z"/>
<rect x="497.3" y="179.2" class="st12" width="228" height="3.2"/>
<path class="st11" d="M611.2,111.4c19.1,0,34.6,22.7,34.8,50.8h-69.7C576.6,134.1,592.1,111.4,611.2,111.4z"/>
<path class="st11" d="M534.8,147c1.4,0,1.6,0.9,1,1.6c-0.6,0.8,2.1,0.7,2.1,2.5c0,1.9-1.5,1.3-1,2.9c0.5,1.6,1.5,3.8,0,3.8
	c-1.5,0-0.6,1.1,0.4,1.1c1,0,0.9,0,0.9,0v2.1h-6.7v-1.9c0,0,2,0.2,2.2-0.3c0.2-0.6-0.2-1-1.1-1c-0.9,0-0.2-2.3,0.5-3.4
	c0.7-1.1-1-0.5-1.2-2.2c-0.1-1.8-1-3.6,0.2-3.7c1.2,0-0.1,2.2,1.1,1.2c1.2-1,1.7-0.9,1-1.3C533.7,147.8,533.3,147,534.8,147z"/>
<path class="st11" d="M558.2,147c-1.4,0-1.6,0.9-1,1.6c0.6,0.8-2.1,0.7-2.1,2.5c0,1.9,1.5,1.3,1,2.9c-0.5,1.6-1.5,3.8,0,3.8
	c1.5,0,0.6,1.1-0.4,1.1s-0.9,0-0.9,0v2.1h6.7v-1.9c0,0-2,0.2-2.2-0.3c-0.2-0.6,0.2-1,1.1-1c0.9,0,0.2-2.3-0.5-3.4
	c-0.7-1.1,1-0.5,1.2-2.2c0.1-1.8,1-3.6-0.2-3.7c-1.2,0,0.1,2.2-1.1,1.2c-1.2-1-1.7-0.9-1-1.3C559.3,147.8,559.7,147,558.2,147z"/>
<path class="st11" d="M579.1,147c-1.4,0-1.6,0.9-1,1.6c0.6,0.8-2.1,0.7-2.1,2.5c0,1.9,1.5,1.3,1,2.9c-0.5,1.6-1.5,3.8,0,3.8
	c1.5,0,0.6,1.1-0.4,1.1c-1,0-0.9,0-0.9,0v2.1h6.7v-1.9c0,0-2,0.2-2.2-0.3c-0.2-0.6,0.2-1,1.1-1c0.9,0,0.2-2.3-0.5-3.4
	c-0.7-1.1,1-0.5,1.2-2.2c0.1-1.8,1-3.6-0.2-3.7c-1.2,0,0.1,2.2-1.1,1.2c-1.2-1-1.7-0.9-1-1.3C580.2,147.8,580.5,147,579.1,147z"/>
<path class="st11" d="M503.8,147c-1.4,0-1.6,0.9-1,1.6c0.6,0.8-2.1,0.7-2.1,2.5c0,1.9,1.5,1.3,1,2.9c-0.5,1.6-1.5,3.8,0,3.8
	c1.5,0,0.6,1.1-0.4,1.1c-1,0-0.9,0-0.9,0v2.1h6.7v-1.9c0,0-2,0.2-2.2-0.3c-0.2-0.6,0.2-1,1.1-1c0.9,0,0.2-2.3-0.5-3.4
	c-0.7-1.1,1-0.5,1.2-2.2c0.1-1.8,1-3.6-0.2-3.7c-1.2,0,0.1,2.2-1.1,1.2c-1.2-1-1.7-0.9-1-1.3C504.9,147.8,505.3,147,503.8,147z"/>
<path class="st11" d="M687.7,147c-1.4,0-1.6,0.9-1,1.6c0.6,0.8-2.1,0.7-2.1,2.5c0,1.9,1.5,1.3,1,2.9c-0.5,1.6-1.5,3.8,0,3.8
	c1.5,0,0.6,1.1-0.4,1.1c-1,0-0.9,0-0.9,0v2.1h6.7v-1.9c0,0-2,0.2-2.2-0.3c-0.2-0.6,0.2-1,1.1-1c0.9,0,0.2-2.3-0.5-3.4
	c-0.7-1.1,1-0.5,1.2-2.2c0.1-1.8,1-3.6-0.2-3.7c-1.2,0,0.1,2.2-1.1,1.2c-1.2-1-1.7-0.9-1-1.3C688.8,147.8,689.2,147,687.7,147z"/>
<path class="st11" d="M664.3,147c1.4,0,1.6,0.9,1,1.6c-0.6,0.8,2.1,0.7,2.1,2.5c0,1.9-1.5,1.3-1,2.9c0.5,1.6,1.5,3.8,0,3.8
	c-1.5,0-0.6,1.1,0.4,1.1s0.9,0,0.9,0v2.1H661v-1.9c0,0,2,0.2,2.2-0.3c0.2-0.6-0.2-1-1.1-1c-0.9,0-0.2-2.3,0.5-3.4
	c0.7-1.1-1-0.5-1.2-2.2c-0.1-1.8-1-3.6,0.2-3.7c1.2,0-0.1,2.2,1.1,1.2c1.2-1,1.7-0.9,1-1.3C663.2,147.8,662.8,147,664.3,147z"/>
<path class="st11" d="M643.4,147c1.4,0,1.6,0.9,1,1.6c-0.6,0.8,2.1,0.7,2.1,2.5c0,1.9-1.5,1.3-1,2.9c0.5,1.6,1.5,3.8,0,3.8
	c-1.5,0-0.6,1.1,0.4,1.1c1,0,0.9,0,0.9,0v2.1h-6.7v-1.9c0,0,2,0.2,2.2-0.3c0.2-0.6-0.2-1-1.1-1c-0.9,0-0.2-2.3,0.5-3.4
	c0.7-1.1-1-0.5-1.2-2.2c-0.1-1.8-1-3.6,0.2-3.7c1.2,0-0.1,2.2,1.1,1.2c1.2-1,1.7-0.9,1-1.3C642.3,147.8,642,147,643.4,147z"/>
<path class="st11" d="M718.7,147c1.4,0,1.6,0.9,1,1.6c-0.6,0.8,2.1,0.7,2.1,2.5c0,1.9-1.5,1.3-1,2.9c0.5,1.6,1.5,3.8,0,3.8
	c-1.5,0-0.6,1.1,0.4,1.1c1,0,0.9,0,0.9,0v2.1h-6.7v-1.9c0,0,2,0.2,2.2-0.3c0.2-0.6-0.2-1-1.1-1c-0.9,0-0.2-2.3,0.5-3.4
	c0.7-1.1-1-0.5-1.2-2.2c-0.1-1.8-1-3.6,0.2-3.7c1.2,0-0.1,2.2,1.1,1.2c1.2-1,1.7-0.9,1-1.3C717.5,147.8,717.2,147,718.7,147z"/>
<g>
	<path class="st11" d="M525.3,150.5c-3.1-2.4-1.7-9.3-6.2-9.4l-0.1,0c-4.7,0-3.2,7-6.3,9.4c-2.8,2.1-7.9,7.5-8.9,11.6
		c-0.1,0.3,7.6,0.5,15.3,0.8c7.6,0.2,15.3,0.5,15.3,0.7C534.5,159.5,528.4,152.9,525.3,150.5z M519,156.1c-1.4,0-2.6-1.1-2.6-2.6
		c0-1.4,1.1-2.6,2.6-2.6c1.4,0,2.6,1.1,2.6,2.6C521.6,155,520.4,156.1,519,156.1z"/>
	<path class="st11" d="M709.9,150.5c-3.2-2.4-1.6-9.4-6.3-9.4l-0.1,0c-4.6,0.1-3.1,7-6.2,9.4c-3.2,2.4-9.3,8.9-9,13.1
		c0-0.2,7.7-0.5,15.3-0.7c7.7-0.2,15.4-0.5,15.3-0.8C717.8,158.1,712.7,152.7,709.9,150.5z M703.5,156.1c-1.4,0-2.6-1.1-2.6-2.6
		c0-1.4,1.1-2.6,2.6-2.6c1.4,0,2.6,1.1,2.6,2.6C706,155,704.9,156.1,703.5,156.1z"/>
</g>
<rect x="492.8" y="182.4" class="st11" width="236.9" height="3.2"/>
<path class="st8" d="M611.2,247.3h6.1l-4.4-172l-1.7-3.2v0v-5.6v0l0,0h0c0.1-0.1,0.3-0.3,0.4-0.5c0.2-0.3,0.2-0.7,0.2-1.2
	c0-0.5-0.1-0.9-0.2-1.2c-0.1-0.2-0.3-0.4-0.4-0.5l0,0l0,0V39.9h0.7c1.5,0,2.8,1.3,2.8,2.8v0.7h1.7c1.5,0,2.8,1.3,2.8,2.8v1.3
	c0,1.5-1.3,2.8-2.8,2.8h-1.7v4.1c0.3,0.3,0.5,0.7,0.8,1c0.5,0.9,0.8,2,0.8,3.1c0,0.5-0.1,1.1-0.2,1.6c0.2,0.3,0.4,0.7,0.6,1
	c0.5,1.1,0.8,2.3,0.8,3.6c0,1.3-0.3,2.6-0.8,3.7c-0.2,0.3-0.3,0.6-0.5,0.9l2.1,3.9l0,0c0.2,0.4,0.3,0.8,0.3,1.3l4.5,175.3
	c0,0.1,0,0.2,0,0.3c0,1.6-1.3,2.8-2.8,2.8h-9V247.3z M605.1,247.3h6.1v5.6h-9v0h-0.1c-1.5,0-2.8-1.3-2.7-2.9L604,74.7
	c0-0.5,0.1-1,0.3-1.4l2.1-3.9c-0.2-0.3-0.4-0.6-0.5-0.9c-0.5-1.1-0.8-2.3-0.8-3.7c0-1.3,0.3-2.6,0.8-3.6c0.2-0.4,0.4-0.7,0.6-1
	c-0.1-0.5-0.2-1.1-0.2-1.6c0-1.1,0.3-2.2,0.8-3.1c0.2-0.4,0.5-0.7,0.8-1v-4.1h-1.7c-1.5,0-2.8-1.3-2.8-2.8v-1.3
	c0-1.6,1.3-2.8,2.8-2.8h1.7v-0.7c0-1.6,1.3-2.8,2.8-2.8h0.7v23.2l-0.1,0c-0.1,0.1-0.2,0.3-0.4,0.5c-0.2,0.3-0.2,0.7-0.2,1.2
	c0,0.5,0.1,0.9,0.2,1.2c0.1,0.2,0.3,0.4,0.4,0.5l0,0v5.6l-1.7,3.2L605.1,247.3z"/>
<path class="st12" d="M602.3,250.1h18l-4.5-175.6l-3.1-5.7c1.2-0.7,2-2.3,2-4.1c0-1.8-0.8-3.3-2-4.1c0.5-0.5,0.8-1.3,0.8-2.2
	c0-1.3-0.7-2.4-1.6-2.8v-8.3h4.5v-1.3h-4.5v-3.5h-1.3v3.5h-4.5v1.3h4.5v8.3c-0.9,0.4-1.6,1.5-1.6,2.8c0,0.9,0.3,1.6,0.8,2.2
	c-1.2,0.7-2,2.3-2,4.1c0,1.8,0.8,3.4,2,4.1l-3.1,5.7L602.3,250.1z"/>
<polygon class="st12" points="529.7,254.6 539.4,254.6 539.4,252.4 547.1,252.4 547.1,250.1 675.4,250.1 675.4,252.4 683.1,252.4 
	683.1,254.6 692.8,254.6 692.8,256.8 702.7,256.8 702.7,259 519.8,259 519.8,256.8 529.7,256.8 "/>
<path class="st11" d="M452.7,193.1c0,0-0.5-0.5-1.8-1.5c-1-0.8-2.6-1.9-4.8-3.4c-1.6-1-3.5-2.2-5.8-3.5l-0.8-0.5
	c-1.7-1-3.8-1.8-6-2.4c-2.4-0.7-5.1-1.1-7.7-1.4c-3-0.3-6-0.5-8.7-0.5c-4.3-0.1-7.9,0.1-9.7,0.3c-0.8,0.1-1.3,0.1-1.3,0.1l-1.1,3.9
	l-8.2,0.2l-3.4,0.1l-2.8-5.3h-4.9h-3.4l-7.2-14.5l-8.5-17c0,0-0.4,0.1-1.2,0.3c-1.4,0.4-4.2,1.2-8.7,3c-1.5,0.6-3.2,1.2-5.1,2
	c-0.9,0.4-1.7,0.8-2.6,1.2c-2.3,1.2-4.6,2.7-6.8,4.4c-2.1,1.6-4,3.2-5.8,4.8c-1.9,1.7-3.6,3.4-4.8,4.6c-1.6,1.6-2.5,2.7-2.5,2.7
	l-1.9,88.3l4.5-0.1l4.8-0.1l5.8-0.2l6.8-0.2l7.7-0.2l8.7-0.2l9.7-0.3l10.6-0.3l11.1-0.3l10.6-0.3l9.7-0.3l8.7-0.2l7.7-0.2l6.8-0.2
	l5.8-0.1l4.8-0.1l3.7-0.1L452.7,193.1z M332.7,242.6c0,2,0,3.9,0,5.9l-1.1,0l-1.1,0c0-1.9,0-3.9,0-5.8s0-3.9,0-5.8
	c0-0.8,0.5-1.3,1.1-1.3c0.5,0,1.1,0.3,1.1,1.2C332.7,238.7,332.7,240.6,332.7,242.6z M332.7,223.8c0,2.1,0,4.3,0,6.4l-1.1,0.2
	l-1.1,0.2c0-2.1,0-4.3,0-6.4s0-4.3,0-6.4c0-0.9,0.5-1.5,1.1-1.6c0.5-0.1,1.1,0.3,1.1,1.2C332.7,219.6,332.7,221.7,332.7,223.8z
	 M332.7,208.1c0,1.7,0,3.4,0,5l-1.1,0.4l-1.1,0.4c0-1.7,0-3.3,0-5c0-1.7,0-3.3,0-5c0-0.7,0.5-1.3,1.1-1.5c0.5-0.2,1.1-0.1,1.1,0.6
	C332.7,204.7,332.7,206.4,332.7,208.1z M338,242.6c0,2,0,4,0,6h-1.5h-1.5c0-2,0-3.9,0-5.9c0-2,0-3.9,0-5.9c0-1.3,0.8-1.9,1.5-2
	c0.8-0.1,1.5,0.5,1.5,1.8C338,238.6,338,240.6,338,242.6z M338,222.9c0,2.1,0,4.2,0,6.2l-1.5,0.3l-1.5,0.3c0-2.1,0-4.2,0-6.3
	c0-2.1,0-4.2,0-6.3c0-1.3,0.8-2.2,1.5-2.3c0.8-0.2,1.5,0.4,1.5,1.7C338,218.7,338,220.8,338,222.9z M338,206c0,1.7,0,3.4,0,5
	l-1.5,0.6l-1.5,0.6c0-1.7,0-3.3,0-5c0-1.7,0-3.3,0-5c0-1.1,0.8-1.9,1.5-2.3c0.8-0.3,1.5-0.1,1.5,1C338,202.7,338,204.3,338,206z
	 M344.2,242.5c0,2,0,4.1,0,6.1h-2h-2c0-2,0-4,0-6c0-2,0-4,0-6c0-1.7,1-2.6,2-2.7c1-0.1,2,0.7,2,2.5
	C344.2,238.4,344.2,240.5,344.2,242.5z M344.2,221.8c0,2,0,4.1,0,6.1l-2,0.4l-2,0.4c0-2,0-4.1,0-6.1c0-2,0-4.1,0-6.1
	c0-1.7,1-2.8,2-3c1-0.2,2,0.5,2,2.3C344.2,217.8,344.2,219.8,344.2,221.8z M344.2,203.9c0,1.7,0,3.4,0,5l-2,0.7l-2,0.7
	c0-1.7,0-3.3,0-5c0-1.7,0-3.3,0-5c0-1.4,1-2.5,2-2.9c1-0.4,2,0,2,1.4C344.2,200.5,344.2,202.2,344.2,203.9z M351.5,242.4
	c0,2.1,0,4.1,0,6.2H349h-2.5c0-2,0-4,0-6.1c0-2,0-4,0-6.1c0-2.2,1.3-3.3,2.5-3.4c1.3-0.1,2.5,1,2.5,3.2
	C351.5,238.3,351.5,240.4,351.5,242.4z M351.5,220.8c0,2,0,4,0,6l-2.5,0.4l-2.5,0.4c0-2,0-4,0-6c0-2,0-4,0-6c0-2.1,1.3-3.4,2.5-3.6
	c1.3-0.2,2.5,0.7,2.5,2.8C351.5,216.8,351.5,218.8,351.5,220.8z M351.5,201.7c0,1.7,0,3.4,0,5l-2.5,0.7l-2.5,0.7c0-1.7,0-3.3,0-5
	c0-1.7,0-3.3,0-5c0-1.8,1.3-3.1,2.5-3.5c1.3-0.4,2.5,0.1,2.5,1.9C351.5,198.4,351.5,200,351.5,201.7z M359.7,242.4
	c0,2.1,0,4.2,0,6.2h-3h-3c0-2,0-4.1,0-6.1c0-2,0-4.1,0-6.1c0-2.6,1.5-4,3-4.1c1.5-0.1,3,1.2,3,3.9
	C359.7,238.2,359.7,240.3,359.7,242.4z M359.7,219.8c0,2,0,3.9,0,5.9l-3,0.4l-3,0.4c0-2,0-3.9,0-5.9c0-2,0-3.9,0-5.9
	c0-2.5,1.5-4,3-4.2c1.5-0.2,3,0.9,3,3.4C359.7,215.9,359.7,217.8,359.7,219.8z M359.7,199.7c0,1.7,0,3.4,0,5.1l-3,0.7l-3,0.7
	c0-1.7,0-3.3,0-5c0-1.7,0-3.3,0-5c0-2.2,1.5-3.6,3-4c1.5-0.4,3,0.3,3,2.5C359.7,196.3,359.7,198,359.7,199.7z M368.8,242.5
	c0,2,0,4.1,0,6.1h-3.5h-3.5c0-2,0-4,0-6.1c0-2,0-4,0-6.1c0-3.1,1.7-4.7,3.5-4.7c1.7-0.1,3.5,1.4,3.5,4.5
	C368.8,238.4,368.8,240.4,368.8,242.5z M368.8,219.1c0,1.9,0,3.7,0,5.6c-1.2,0.1-2.3,0.2-3.5,0.3c-1.2,0.1-2.3,0.2-3.5,0.4
	c0-1.9,0-3.8,0-5.6c0-1.9,0-3.8,0-5.6c0-2.8,1.7-4.4,3.5-4.6c1.7-0.2,3.5,1.1,3.5,3.9C368.8,215.3,368.8,217.2,368.8,219.1z
	 M368.8,198c0,1.7,0,3.3,0,5c-1.2,0.2-2.3,0.4-3.5,0.6c-1.2,0.2-2.3,0.4-3.5,0.7c0-1.6,0-3.3,0-4.9c0-1.6,0-3.3,0-4.9
	c0-2.5,1.7-4.1,3.5-4.5c1.7-0.4,3.5,0.5,3.5,3.1C368.8,194.7,368.8,196.4,368.8,198z M379,242.7c0,2,0,3.9,0,5.9h-4h-4
	c0-1.9,0-3.9,0-5.8c0-1.9,0-3.9,0-5.9c0-3.4,2-5.2,4-5.2c2,0,4,1.6,4,5.1C379,238.7,379,240.7,379,242.7z M379,218.7
	c0,1.8,0,3.5,0,5.3c-1.3,0.1-2.7,0.1-4,0.2c-1.3,0.1-2.7,0.2-4,0.3c0-1.8,0-3.5,0-5.3c0-1.8,0-3.5,0-5.3c0-3.1,2-4.8,4-4.9
	c2-0.1,4,1.3,4,4.4C379,215.1,379,216.9,379,218.7z M379,197c0,1.6,0,3.2,0,4.8c-1.3,0.1-2.7,0.2-4,0.4c-1.3,0.1-2.7,0.3-4,0.5
	c0-1.6,0-3.2,0-4.7c0-1.6,0-3.2,0-4.8c0-2.8,2-4.4,4-4.7c2-0.3,4,0.9,4,3.7C379,193.8,379,195.4,379,197z M390.1,242.8
	c0,1.9,0,3.8,0,5.6h-4.5h-4.5c0-1.9,0-3.7,0-5.6c0-1.9,0-3.7,0-5.6c0-3.7,2.2-5.6,4.5-5.6c2.2,0,4.5,1.8,4.5,5.6
	C390.1,239.1,390.1,241,390.1,242.8z M390.1,218.6c0,1.7,0,3.3,0,5c-1.5,0-3,0.1-4.5,0.1c-1.5,0-3,0.1-4.5,0.1c0-1.7,0-3.3,0-5
	c0-1.7,0-3.3,0-5c0-3.3,2.2-5,4.5-5.1c2.2-0.1,4.5,1.6,4.5,4.9C390.1,215.2,390.1,216.9,390.1,218.6z M390.1,196.6
	c0,1.5,0,3.1,0,4.6c-1.5,0-3,0.1-4.5,0.2c-1.5,0.1-3,0.1-4.5,0.2c0-1.5,0-3.1,0-4.6c0-1.5,0-3.1,0-4.6c0-3,2.2-4.7,4.5-4.8
	c2.2-0.1,4.5,1.3,4.5,4.4C390.1,193.5,390.1,195,390.1,196.6z M401.2,242.9c0,1.9,0,3.7,0,5.6h-4.5h-4.5c0-1.9,0-3.8,0-5.6
	c0-1.9,0-3.7,0-5.6c0-3.7,2.2-5.6,4.5-5.6c2.2,0,4.5,1.9,4.5,5.6C401.2,239.1,401.2,241,401.2,242.9z M401.2,218.8c0,1.7,0,3.4,0,5
	c-1.5-0.1-3-0.1-4.5-0.1c-1.5,0-3,0-4.5-0.1c0-1.7,0-3.3,0-5c0-1.7,0-3.3,0-5c0-3.3,2.2-5,4.5-4.9c2.2,0,4.5,1.8,4.5,5.1
	C401.2,215.4,401.2,217.1,401.2,218.8z M401.2,196.9c0,1.6,0,3.1,0,4.7c-1.5-0.1-3-0.2-4.5-0.2c-1.5-0.1-3-0.1-4.5-0.1
	c0-1.6,0-3.1,0-4.7c0-1.6,0-3.1,0-4.7c0-3.1,2.2-4.6,4.5-4.5c2.2,0.1,4.5,1.7,4.5,4.8C401.2,193.8,401.2,195.3,401.2,196.9z
	 M411.4,242.7c0,1.9,0,3.9,0,5.8h-4h-4c0-2,0-3.9,0-5.9c0-2,0-3.9,0-5.9c0-3.4,2-5.1,4-5.1c2,0,4,1.8,4,5.2
	C411.4,238.8,411.4,240.8,411.4,242.7z M411.4,219.1c0,1.8,0,3.6,0,5.3c-1.3-0.1-2.6-0.2-4-0.3c-1.3-0.1-2.6-0.2-4-0.2
	c0-1.8,0-3.5,0-5.3c0-1.8,0-3.5,0-5.3c0-3.1,2-4.6,4-4.4c2,0.1,4,1.8,4,4.9C411.4,215.6,411.4,217.3,411.4,219.1z M411.4,197.7
	c0,1.7,0,3.3,0,5c-1.3-0.2-2.6-0.3-4-0.5c-1.3-0.2-2.6-0.3-4-0.4c0-1.7,0-3.3,0-5c0-1.7,0-3.3,0-5c0-2.9,2-4.1,4-3.9
	c2,0.2,4,1.9,4,4.8C411.4,194.4,411.4,196.1,411.4,197.7z M420.6,242.6c0,2,0,4,0,6h-3.5h-3.5c0-2,0-4.1,0-6.1c0-2,0-4.1,0-6.1
	c0-3.1,1.7-4.6,3.5-4.5c1.7,0.1,3.5,1.7,3.5,4.7C420.6,238.6,420.6,240.6,420.6,242.6z M420.6,219.7c0,1.9,0,3.8,0,5.7l-3.5-0.3
	l-3.5-0.3c0-1.9,0-3.8,0-5.6s0-3.8,0-5.6c0-2.9,1.7-4.1,3.5-4c1.7,0.2,3.5,1.7,3.5,4.6C420.6,215.9,420.6,217.8,420.6,219.7z
	 M420.6,199.1c0,1.8,0,3.5,0,5.3l-3.5-0.6l-3.5-0.6c0-1.8,0-3.5,0-5.3s0-3.5,0-5.3c0-2.7,1.7-3.7,3.5-3.4c1.7,0.3,3.5,2,3.5,4.6
	C420.6,195.6,420.6,197.3,420.6,199.1z M428.8,242.5c0,2,0,4.1,0,6.1h-3h-3c0-2.1,0-4.2,0-6.2c0-2.1,0-4.2,0-6.2
	c0-2.7,1.5-3.9,3-3.9c1.5,0.1,3,1.5,3,4.1C428.8,238.4,428.8,240.5,428.8,242.5z M428.8,220.5c0,2,0,3.9,0,5.9l-3-0.4l-3-0.4
	c0-2,0-3.9,0-5.9c0-2,0-3.9,0-5.9c0-2.5,1.5-3.6,3-3.4c1.5,0.2,3,1.6,3,4.2C428.8,216.6,428.8,218.5,428.8,220.5z M428.8,200.8
	c0,1.8,0,3.6,0,5.4c-1-0.2-2-0.5-3-0.7c-1-0.2-2-0.5-3-0.7c0-1.8,0-3.6,0-5.5c0-1.8,0-3.6,0-5.5c0-2.3,1.5-3.2,3-2.8
	c1.5,0.4,3,1.9,3,4.2C428.8,197.2,428.8,199,428.8,200.8z M436,242.6c0,2,0,4,0,6h-2.5H431c0-2.1,0-4.1,0-6.2c0-2,0-4.1,0-6.2
	c0-2.2,1.3-3.2,2.5-3.1c1.3,0.1,2.5,1.2,2.5,3.4C436,238.6,436,240.6,436,242.6z M436,221.5c0,2,0,4,0,6l-2.5-0.4l-2.5-0.4
	c0-2,0-4,0-6c0-2,0-4,0-6c0-2.1,1.3-3,2.5-2.8c1.3,0.2,2.5,1.4,2.5,3.6C436,217.5,436,219.5,436,221.5z M436,202.8
	c0,1.8,0,3.6,0,5.4l-2.5-0.7l-2.5-0.7c0-1.8,0-3.7,0-5.5c0-1.8,0-3.7,0-5.5c0-2,1.3-2.5,2.5-2.2c1.3,0.4,2.5,1.7,2.5,3.7
	C436,199.2,436,201,436,202.8z M442.3,242.6c0,2,0,4,0,6h-2h-2c0-2,0-4,0-6.1c0-2,0-4,0-6.1c0-1.7,1-2.5,2-2.4c1,0.1,2,1,2,2.7
	C442.3,238.7,442.3,240.6,442.3,242.6z M442.3,222.6c0,2.1,0,4.1,0,6.2l-2-0.4l-2-0.4c0-2,0-4.1,0-6.1s0-4.1,0-6.1
	c0-1.7,1-2.4,2-2.3c1,0.2,2,1.2,2,3C442.3,218.4,442.3,220.5,442.3,222.6z M442.3,204.9c0,1.8,0,3.6,0,5.5l-2-0.7l-2-0.7
	c0-1.8,0-3.7,0-5.5c0-1.8,0-3.7,0-5.5c0-1.6,1-2,2-1.6c1,0.4,2,1.5,2,3.1C442.3,201.3,442.3,203.1,442.3,204.9z M447.6,242.7
	c0,2,0,3.9,0,5.9l-1.5,0h-1.5c0-2,0-4,0-6c0-2,0-4,0-6c0-1.3,0.8-1.9,1.5-1.8c0.8,0.1,1.5,0.7,1.5,2
	C447.6,238.7,447.6,240.7,447.6,242.7z M447.6,223.5c0,2.1,0,4.2,0,6.3l-1.5-0.3l-1.5-0.3c0-2.1,0-4.2,0-6.3c0-2.1,0-4.2,0-6.3
	c0-1.3,0.8-1.9,1.5-1.7c0.8,0.2,1.5,1,1.5,2.3C447.6,219.3,447.6,221.4,447.6,223.5z M447.6,206.8c0,1.8,0,3.6,0,5.4l-1.5-0.6
	l-1.5-0.6c0-1.8,0-3.7,0-5.5c0-1.8,0-3.7,0-5.5c0-1.2,0.8-1.4,1.5-1.1c0.8,0.3,1.5,1.2,1.5,2.4C447.6,203.2,447.6,205,447.6,206.8z
	 M451.9,242.7c0,1.9,0,3.9,0,5.8l-1.1,0l-1.1,0c0-2,0-3.9,0-5.9c0-2,0-3.9,0-5.9c0-0.8,0.5-1.2,1.1-1.2c0.5,0,1.1,0.5,1.1,1.3
	C451.9,238.8,451.9,240.7,451.9,242.7z M451.9,224.3c0,2.1,0,4.3,0,6.4l-1.1-0.2l-1.1-0.2c0-2.1,0-4.3,0-6.4c0-2.1,0-4.3,0-6.4
	c0-0.9,0.5-1.3,1.1-1.2s1.1,0.7,1.1,1.6C451.9,220,451.9,222.1,451.9,224.3z M451.9,208.5c0,1.8,0,3.6,0,5.5l-1.1-0.4l-1.1-0.4
	c0-1.8,0-3.7,0-5.5c0-1.8,0-3.7,0-5.5c0-0.8,0.5-1,1.1-0.7c0.5,0.2,1.1,0.8,1.1,1.6C451.9,204.8,451.9,206.7,451.9,208.5z"/>
<g>
	<polygon class="st11" points="456.9,232 449.4,232 449.4,234 452.9,234 452.9,259 484.9,259 484.9,234 488.4,234 488.4,232 
		477.5,232 461.9,232 	"/>
	<path class="st11" d="M490.8,220.4c-0.5-2.2-3.4-1.5-4.6-0.5s-3-0.8-2.4-3.6c0.6-2.8,0.9-6.5,0.3-8.2c-0.6-1.7,0.4-2,2.9-1
		c2.5,1.1,1.9-0.7,1.1-2.6c-0.9-1.9-3.9-5.5-6.5-5.3c-2.6,0.2-4,3.1-5.4,4.7c-1.4,1.6-2.9-1.5-4.1-4c-1.3-2.4,1-1.1,1.9-2.5
		c1-1.4,1.3-4.4-1.9-4.4c-1.9,0.1-2.5,0.4-1.7,2c0.8,1.6,0,2.7-1.8,2.9c-1.8,0.2-2.3,2.8-2.3,5.6c0,2.8-1.3,4.6-3.6,5.1
		c-2.3,0.5-3.6,2-4.3,2.9c-0.8,0.9-1.4,0.8-4,0.8c-2.5,0-2.5,3.4-1.7,6.4c0.8,3-1.3,1.9-0.5,4c0.9,2.1,2.5,0,2-3
		c-0.5-3,0.1-4.9,1.6-4.4c1.5,0.5,0.4,3.5,1.3,4.4c1,1,2,2.6,0.1,4.1c-1.9,1.5-3.3,1.8-2.5,3.8c0.8,1.9-0.7,4.3,2.3,4.3
		s-0.2-2.1,0-3.1c0.2-1,1.1-1.7,1.9-0.4c0.9,1.3-0.2,3.5,3.1,3.5c3.3,0,0.6-1,0-2.8c-0.6-1.8-2.3-3.5-1.2-3.9c1.2-0.4,3.3-2.7,4-4
		c0.8-1.3,8.6-0.2,11-0.2s1.4,3.1,0.8,5.6c-0.7,2.5-2.9,5.2,0.9,5.2s2.6-1.6,1.4-1.7c-1.2-0.1-0.5-2.2,0.3-4c0.8-1.8,1-3.4,0.5-4.7
		c-0.5-1.3,2.1,0.5,3.7,0.7c1.5,0.2,4.8-0.8,5.7,0.1c0.9,0.9,1.5,2.2-0.4,2.5c-1.9,0.3,0.7,2.6,2.3,1.2
		C492.6,224.6,491.2,222.6,490.8,220.4z"/>
</g>
<g>
	<polygon class="st11" points="733.1,191.8 864,191.8 798.6,156.5 	"/>
	<rect x="748.5" y="194.2" class="st11" width="100.2" height="6.8"/>
	<polygon class="st10" points="753.9,186.8 843.2,186.8 798.6,162.7 	"/>
	<polygon class="st11" points="749.5,207.3 752.9,207.3 753.9,203.4 748.5,203.4 	"/>
	<polygon class="st11" points="763,207.3 766.4,207.3 767.4,203.4 762,203.4 	"/>
	<polygon class="st11" points="776.5,207.3 780,207.3 780.9,203.4 775.6,203.4 	"/>
	<polygon class="st11" points="790.1,207.3 793.5,207.3 794.5,203.4 789.1,203.4 	"/>
	<polygon class="st11" points="803.6,207.3 807.1,207.3 808,203.4 802.6,203.4 	"/>
	<polygon class="st11" points="817.1,207.3 820.6,207.3 821.6,203.4 816.2,203.4 	"/>
	<polygon class="st11" points="830.7,207.3 834.1,207.3 835.1,203.4 829.7,203.4 	"/>
	<polygon class="st11" points="844.2,207.3 847.7,207.3 848.6,203.4 843.3,203.4 	"/>
	<rect x="749.5" y="209.1" class="st11" width="3.5" height="49.9"/>
	<rect x="763" y="209.1" class="st11" width="3.5" height="49.9"/>
	<rect x="776.5" y="209.1" class="st11" width="3.5" height="49.9"/>
	<rect x="790.1" y="209.1" class="st11" width="3.5" height="49.9"/>
	<rect x="803.6" y="209.1" class="st11" width="3.5" height="49.9"/>
	<rect x="817.1" y="209.1" class="st11" width="3.5" height="49.9"/>
	<rect x="830.7" y="209.1" class="st11" width="3.5" height="49.9"/>
	<rect x="844.2" y="209.1" class="st11" width="3.5" height="49.9"/>
</g>
<rect x="-6" y="243.2" class="st11" width="876" height="37.8"/>
<rect class="st20" width="864" height="259"/>
</svg>
