<?xml version="1.0" encoding="utf-8"?>
<!-- Generator: Adobe Illustrator 21.0.2, SVG Export Plug-In . SVG Version: 6.00 Build 0)  -->
<svg version="1.1" id="Layer_1" xmlns="http://www.w3.org/2000/svg" xmlns:xlink="http://www.w3.org/1999/xlink" x="0px" y="0px"
	 viewBox="0 0 864 259" style="enable-background:new 0 0 864 259;" xml:space="preserve">
<style type="text/css">
	.st0{fill-rule:evenodd;clip-rule:evenodd;fill:#DC8E6A;}
	.st1{fill:#CC2431;}
	.st2{fill-rule:evenodd;clip-rule:evenodd;fill:#CC2431;}
	.st3{fill-rule:evenodd;clip-rule:evenodd;fill:none;stroke:#CC2431;stroke-width:4;stroke-miterlimit:10;}
	.st4{fill:#DC8E6A;}
	.st5{fill:#4B5C87;}
	.st6{fill:#FDBB41;}
	.st7{fill-rule:evenodd;clip-rule:evenodd;fill:#FDBB41;}
	.st8{fill-rule:evenodd;clip-rule:evenodd;fill:#4B5C87;}
	.st9{fill:#8D745B;}
	.st10{fill:#F2DAB2;}
	.st11{fill-rule:evenodd;clip-rule:evenodd;fill:#F2DAB2;}
	.st12{fill-rule:evenodd;clip-rule:evenodd;fill:#8D745B;}
	.st13{fill-rule:evenodd;clip-rule:evenodd;fill:#FFE6C2;}
	.st14{fill:#5B1B0F;}
	.st15{fill:#ECC96F;}
	.st16{fill-rule:evenodd;clip-rule:evenodd;fill:#ECC96F;}
	.st17{fill-rule:evenodd;clip-rule:evenodd;fill:#5B1B0F;}
	.st18{fill-rule:evenodd;clip-rule:evenodd;fill:#3F0800;}
	.st19{fill:#3F0800;}
	.st20{fill-rule:evenodd;clip-rule:evenodd;fill:none;stroke:#4B5C87;stroke-width:4;stroke-miterlimit:10;}
	.st21{fill-rule:evenodd;clip-rule:evenodd;fill:none;stroke:#8D745B;stroke-width:4;stroke-miterlimit:10;}
	.st22{fill-rule:evenodd;clip-rule:evenodd;fill:none;stroke:#5B1B0F;stroke-width:4;stroke-miterlimit:10;}
</style>
<rect x="651.6" y="155" class="st0" width="51.8" height="104"/>
<rect x="717" y="60.4" class="st0" width="30.1" height="198.6"/>
<path class="st0" d="M477.1,166c0-43.1,44.7-42.8,44.7,0v93h-44.7V166z"/>
<path class="st0" d="M802.8,92.4V80.1c0-6.7-2.9-10.6-6.3-11.7V43.6c0-16-4.1-16.1-4.1,0v24.7c-3.4,1.1-6.3,5-6.3,11.7v12.2
	c-12.9,2.8-23.9,12.3-23.9,28.7v138h64.8V121C826.9,104.9,815.8,95.3,802.8,92.4z"/>
<rect x="313.2" y="180.6" class="st0" width="48.6" height="78.4"/>
<rect x="269.2" y="187.9" class="st0" width="48.6" height="71.1"/>
<rect x="313.2" y="219.8" class="st0" width="95.5" height="39.2"/>
<g>
	<polygon class="st1" points="638.7,123.6 638.7,123.7 638.3,129 636.1,129.9 636.6,130.9 638.3,129.9 638.2,131.5 638.7,131.5 
		639.3,131.5 639.1,129.4 645,126.1 639.1,128.6 	"/>
	<path class="st1" d="M673.4,116.5v-9.8c-4.2-5.5-4.9-7-6.8-10.7c-0.8-1.5-1.8-3.2-3.3-5.8V79.3c5.7,0.8-1.2-5.6-4.4-10.4
		c-3.2-4.7-6.3-16-6.2-23.5l0-0.2c0-1.3-0.3-2.4-0.7-2.9c0.4-0.3,0.7-1,0.7-1.7c0-1.1-0.6-2-1.3-2c-0.7,0-1.3,0.9-1.3,2
		c0,0.8,0.3,1.4,0.7,1.7c-0.4,0.6-0.7,1.7-0.7,2.9c0,0.1,0,0.2,0,0.3c0.1,7.3-1.6,12.5-6,22.4c-2.4,5.4-4.7,8.5-5.4,10.1
		c-0.3,0.7-0.3,1.1,0,1.2c0.4,0.2,1.2,0.2,2.6,0v11.1c-1.1,1.8-1.9,3.3-2.6,4.5c-2.5,4.6-2.9,5.9-7.5,12v10.5l-4.5,1.6v33.4h1.8V259
		h10.3h27.9h9.6V152.3h1.8v-33.4L673.4,116.5z M646.8,129.3c-0.5,4.9-4,9-8.1,9.5c-0.3,0-0.6,0.1-1,0.1c-4.5,0-7.7-4.3-7.1-9.6
		c0.5-4.9,4-9,8.1-9.5c0.3,0,0.6-0.1,1-0.1C644.1,119.7,647.3,124,646.8,129.3z M667.6,138.1c-0.3,0-0.7,0-1-0.1
		c-2.8-0.8-5.2-4.6-5.7-9.2c-0.6-5.2,1.5-9.3,4.7-9.3c0.3,0,0.7,0,1,0.1c2.8,0.8,5.2,4.6,5.8,9.2
		C672.9,133.9,670.8,138.1,667.6,138.1z"/>
	<polygon class="st1" points="666.6,127.3 665.4,123 666.3,128.5 664.7,129.6 665.3,130.5 666.4,129.4 666.6,130.2 666.7,131 
		667.6,130.9 667,128.9 671,125.2 666.8,128.1 	"/>
</g>
<polygon class="st2" points="519.7,259 530.3,259 530.3,116.1 533.4,116.1 533.4,102.7 528.3,102.7 528.3,91.4 530.7,91.4 
	530.7,84.9 527.9,84.9 527.9,78.7 522.1,78.7 522.1,84.9 519.3,84.9 519.3,91.4 521.8,91.4 521.8,102.7 516.6,102.7 516.6,116.1 
	519.7,116.1 "/>
<path class="st2" d="M737.6,259h37.9V109.3V99h-1V87H773l-1.5-11.6L770,87h-1.5v12h-1v10.3h-0.6c0-2.4-0.8-4.6-2.2-6.4
	c0.1-0.5,0.2-1.1,0.2-1.6c0-4.2-3.1-7.7-7.1-8.3l-1.3-10.4L755.2,93c-4,0.6-7.1,4.1-7.1,8.3c0,0.6,0.1,1.1,0.2,1.6
	c-1.4,1.8-2.2,4-2.2,6.4h-0.6V99h-1V87H743l-1.5-11.6L740,87h-1.5v12h-1v10.3V259z"/>
<rect x="-27" y="243" class="st2" width="918" height="38"/>
<rect class="st3" width="864" height="259"/>
<path class="st2" d="M690.7,259h35.6v-75.4c0-86.2-35.6-89.6-35.6,0V259z"/>
<g>
	<path class="st2" d="M577.7,126.9c2.2,0,4.1-1.4,4.7-3.4l-0.9-4.7c-0.9-1.1-2.3-1.8-3.9-1.8c-1.6,0-3,0.7-3.9,1.8l-0.9,4.7
		C573.6,125.5,575.5,126.9,577.7,126.9z M574.2,118.8h7l0.9,4.7h-3.6v1.9h-1.6v-1.9h-3.6L574.2,118.8z"/>
	<path class="st2" d="M577.7,114L577.7,114c-38.6,0-70,31.3-70,70c0,38.6,31.3,70,70,70h0c38.6,0,70-31.3,70-70
		C647.7,145.4,616.3,114,577.7,114z M577.7,252.7L577.7,252.7c-38,0-68.8-30.8-68.8-68.8c0-38,30.8-68.8,68.8-68.8h0
		c38,0,68.8,30.8,68.8,68.8C646.5,222,615.7,252.7,577.7,252.7z"/>
	<path class="st2" d="M597.3,129.9c2.2,0,4.1-1.4,4.7-3.4l-0.9-4.7c-0.9-1.1-2.3-1.8-3.9-1.8c-1.6,0-3,0.7-3.9,1.8l-0.9,4.7
		C593.2,128.4,595.1,129.9,597.3,129.9z M593.8,121.8h7l0.9,4.7h-3.6v1.9h-1.6v-1.9h-3.6L593.8,121.8z"/>
	<path class="st2" d="M614,138.4c2.2,0,4.1-1.4,4.7-3.4l-0.9-4.7c-0.9-1.1-2.3-1.8-3.9-1.8c-1.6,0-3,0.7-3.9,1.8l-0.9,4.7
		C609.9,137,611.8,138.4,614,138.4z M610.5,130.3h7l0.9,4.7h-3.6v1.9h-1.6V135h-3.6L610.5,130.3z"/>
	<path class="st2" d="M627.7,152.4c2.2,0,4.1-1.4,4.7-3.4l-0.9-4.7c-0.9-1.1-2.3-1.8-3.9-1.8c-1.6,0-3,0.7-3.9,1.8l-0.9,4.7
		C623.6,150.9,625.5,152.4,627.7,152.4z M624.2,144.3h7l0.9,4.7h-3.6v1.9h-1.6v-1.9h-3.6L624.2,144.3z"/>
	<path class="st2" d="M636.5,168.4c2.2,0,4.1-1.4,4.7-3.4l-0.9-4.7c-0.9-1.1-2.3-1.8-3.9-1.8c-1.6,0-3,0.7-3.9,1.8l-0.9,4.7
		C632.4,167,634.3,168.4,636.5,168.4z M633,160.3h7l0.9,4.7h-3.5v1.9h-1.6V165h-3.5L633,160.3z"/>
	<path class="st2" d="M643.7,180.9c-0.9-1.1-2.3-1.8-3.9-1.8s-3,0.7-3.9,1.8l-0.9,4.7c0.7,2,2.5,3.4,4.7,3.4s4.1-1.4,4.7-3.4
		L643.7,180.9z M640.6,185.6v1.9H639v-1.9h-3.5l0.9-4.7h7l0.9,4.7H640.6z"/>
	<path class="st2" d="M637.1,197.4c-1.6,0-3,0.7-3.9,1.8h0l-0.9,4.7c0.7,2,2.5,3.4,4.7,3.4c2.2,0,4.1-1.4,4.7-3.4l-0.9-4.7
		C640.1,198.1,638.7,197.4,637.1,197.4z M641.5,204h-3.6v1.9h-1.6V204h-3.6l0.9-4.7h7L641.5,204z"/>
	<path class="st2" d="M627.7,215.3c-1.6,0-3,0.7-3.9,1.8l-0.9,4.7c0.7,2,2.5,3.4,4.7,3.4c2.2,0,4.1-1.4,4.7-3.4l-0.9-4.7
		C630.7,216.1,629.3,215.3,627.7,215.3z M632.1,221.9h-3.6v1.9h-1.6v-1.9h-3.6l0.9-4.7h7L632.1,221.9z"/>
	<path class="st2" d="M613.1,229.7c-1.6,0-3,0.7-3.9,1.8l-0.9,4.7c0.7,2,2.5,3.4,4.7,3.4s4.1-1.4,4.7-3.4l-0.9-4.7
		C616.1,230.4,614.7,229.7,613.1,229.7z M617.5,236.3h-3.6v1.9h-1.6v-1.9h-3.5l0.9-4.7h7L617.5,236.3z"/>
	<path class="st2" d="M596.3,238.5c-1.6,0-3,0.7-3.9,1.8l-0.9,4.7c0.7,2,2.5,3.4,4.7,3.4c2.2,0,4.1-1.4,4.7-3.4l-0.9-4.7
		C599.2,239.2,597.8,238.5,596.3,238.5z M600.6,245h-3.6v1.9h-1.6V245h-3.6l0.9-4.7h7L600.6,245z"/>
	<path class="st2" d="M558,129.9c2.2,0,4.1-1.4,4.7-3.4l-0.9-4.7c-0.9-1.1-2.3-1.8-3.9-1.8c-1.6,0-3,0.7-3.9,1.8l-0.9,4.7
		C554,128.4,555.8,129.9,558,129.9z M554.5,121.8h7l0.9,4.7h-3.6v1.9h-1.6v-1.9h-3.6L554.5,121.8z"/>
	<path class="st2" d="M541.4,138.4c2.2,0,4.1-1.4,4.7-3.4l-0.9-4.7c-0.9-1.1-2.3-1.8-3.9-1.8c-1.6,0-3,0.7-3.9,1.8l-0.9,4.7
		C537.3,137,539.2,138.4,541.4,138.4z M537.9,130.3h7l0.9,4.7h-3.6v1.9h-1.6V135H537L537.9,130.3z"/>
	<path class="st2" d="M527.6,152.4c2.2,0,4.1-1.4,4.7-3.4l-0.9-4.7c-0.9-1.1-2.3-1.8-3.9-1.8c-1.6,0-3,0.7-3.9,1.8l-0.9,4.7
		C523.5,150.9,525.4,152.4,527.6,152.4z M524.1,144.3h7l0.9,4.7h-3.5v1.9h-1.6v-1.9h-3.5L524.1,144.3z"/>
	<path class="st2" d="M518.9,168.4c2.2,0,4.1-1.4,4.7-3.4l-0.9-4.7c-0.9-1.1-2.3-1.8-3.9-1.8c-1.6,0-3,0.7-3.9,1.8l-0.9,4.7
		C514.8,167,516.7,168.4,518.9,168.4z M515.4,160.3h7l0.9,4.7h-3.6v1.9h-1.6V165h-3.6L515.4,160.3z"/>
	<path class="st2" d="M520.3,185.6l-0.9-4.7c-0.9-1.1-2.3-1.8-3.9-1.8c-1.6,0-3,0.7-3.9,1.8l-0.9,4.7c0.7,2,2.5,3.4,4.7,3.4
		C517.7,189,519.6,187.6,520.3,185.6z M511.2,185.6l0.9-4.7h7l0.9,4.7h-3.5v1.9h-1.6v-1.9H511.2z"/>
	<path class="st2" d="M522.1,199.3c-0.9-1.1-2.3-1.8-3.9-1.8c-1.6,0-3,0.7-3.9,1.8l-0.9,4.7c0.7,2,2.5,3.4,4.7,3.4
		c2.2,0,4.1-1.4,4.7-3.4L522.1,199.3z M519,204v1.9h-1.6V204h-3.6l0.9-4.7h7l0.9,4.7H519z"/>
	<path class="st2" d="M527.6,215.3c-1.6,0-3,0.7-3.9,1.8l-0.9,4.7c0.7,2,2.5,3.4,4.7,3.4c2.2,0,4.1-1.4,4.7-3.4l-0.9-4.7
		C530.6,216.1,529.2,215.3,527.6,215.3z M532,221.9h-3.5v1.9h-1.6v-1.9h-3.5l0.9-4.7h7L532,221.9z"/>
	<path class="st2" d="M542.2,229.7c-1.6,0-3,0.7-3.9,1.8l-0.9,4.7c0.7,2,2.5,3.4,4.7,3.4c2.2,0,4.1-1.4,4.7-3.4l-0.9-4.7
		C545.2,230.4,543.8,229.7,542.2,229.7z M546.6,236.3H543v1.9h-1.6v-1.9h-3.5l0.9-4.7h7L546.6,236.3z"/>
	<path class="st2" d="M559.1,238.5c-1.6,0-3,0.7-3.9,1.8l-0.9,4.7c0.7,2,2.5,3.4,4.7,3.4c2.2,0,4.1-1.4,4.7-3.4l-0.9-4.7
		C562,239.2,560.6,238.5,559.1,238.5z M563.4,245h-3.6v1.9h-1.6V245h-3.6l0.9-4.7h7L563.4,245z"/>
	<path class="st2" d="M577.7,241.2c-1.6,0-3,0.7-3.9,1.8l-0.9,4.7c0.7,2,2.5,3.4,4.7,3.4c2.2,0,4.1-1.4,4.7-3.4l-0.9-4.7
		C580.7,241.9,579.3,241.2,577.7,241.2z M582.1,247.7h-3.6v1.9h-1.6v-1.9h-3.6l0.9-4.7h7L582.1,247.7z"/>
	<path class="st2" d="M608.5,230c0.3-0.2,0.6-0.4,0.9-0.6c0.7-0.5,1.4-1,2.1-1.5c0.1-0.1,0.2-0.2,0.4-0.3c0.9-0.7,1.7-1.4,2.5-2.1
		c0.1-0.1,0.1-0.1,0.2-0.2c0.8-0.7,1.6-1.4,2.3-2.2c0,0,0.1-0.1,0.1-0.1c0,0,0,0,0.1-0.1c3.7-3.7,6.9-7.9,9.5-12.7
		c2.8-5.2,4.8-10.9,5.9-16.9c0.1-0.3,0.1-0.6,0.2-1c0-0.3,0.1-0.5,0.1-0.8c0.6-4.5,0.7-8.9,0.3-13.3c0-0.1,0-0.2,0-0.3
		c-0.1-0.8-0.2-1.5-0.3-2.3c0-0.3-0.1-0.6-0.1-0.9c-0.1-0.6-0.2-1.1-0.3-1.6c-0.1-0.5-0.2-0.9-0.3-1.4c-0.1-0.4-0.2-0.7-0.3-1.1
		c-0.1-0.6-0.3-1.2-0.5-1.8c-0.1-0.2-0.1-0.5-0.2-0.7c-0.2-0.7-0.4-1.4-0.7-2c0-0.1-0.1-0.3-0.1-0.4c-0.3-0.7-0.5-1.5-0.8-2.2
		c0-0.1-0.1-0.2-0.1-0.3c-0.3-0.7-0.6-1.5-0.9-2.2c0-0.1-0.1-0.2-0.1-0.3c-0.3-0.7-0.7-1.4-1-2.1c0-0.1-0.1-0.1-0.1-0.2
		c0-0.1-0.1-0.1-0.1-0.2c-0.2-0.5-0.5-0.9-0.7-1.4c-0.1-0.2-0.2-0.4-0.3-0.6c-0.4-0.7-0.8-1.3-1.2-2c-0.2-0.4-0.5-0.7-0.7-1.1
		c-0.2-0.3-0.4-0.5-0.6-0.8c-0.3-0.5-0.7-0.9-1-1.4c-0.1-0.2-0.2-0.3-0.3-0.5c-0.5-0.7-1-1.3-1.5-2c0,0,0,0,0,0
		c-0.5-0.7-1.1-1.3-1.7-2c0,0,0,0,0,0c-3.7-4-7.9-7.6-12.7-10.4c-0.1-0.1-0.2-0.1-0.3-0.2c-0.7-0.4-1.4-0.8-2.1-1.2
		c-0.1-0.1-0.2-0.1-0.3-0.2c-4.6-2.4-9.5-4.1-14.7-5.1c0,0-0.1,0-0.1,0c-0.6-0.1-1.1-0.2-1.7-0.3c-0.1,0-0.2,0-0.3-0.1
		c-0.1,0-0.3,0-0.4-0.1c-0.4-0.1-0.7-0.1-1.1-0.2c-0.4-0.1-0.8-0.1-1.2-0.1c-0.1,0-0.3,0-0.4,0c-1.9-0.2-3.8-0.3-5.6-0.3
		c-2.6,0-5.1,0.2-7.7,0.6c-0.1,0-0.3,0-0.4,0.1c-0.1,0-0.2,0-0.3,0c-0.4,0.1-0.7,0.1-1.1,0.2c-0.2,0-0.4,0.1-0.6,0.1
		c-0.3,0.1-0.5,0.1-0.8,0.2c-1.7,0.3-3.3,0.7-4.9,1.2c-0.2,0.1-0.5,0.2-0.7,0.2c-0.6,0.2-1.3,0.4-1.9,0.6c-0.5,0.2-1,0.4-1.5,0.6
		c-0.5,0.2-1,0.4-1.5,0.6c-1.8,0.7-3.5,1.6-5.1,2.5c-0.4,0.2-0.8,0.4-1.2,0.7c-0.4,0.3-0.9,0.5-1.3,0.8c-0.5,0.3-1,0.6-1.5,0.9
		c-0.3,0.2-0.7,0.5-1,0.7c-0.7,0.5-1.5,1.1-2.2,1.6c-0.1,0.1-0.1,0.1-0.2,0.2c-0.9,0.7-1.7,1.4-2.5,2.1c0,0-0.1,0.1-0.1,0.1
		c-0.8,0.7-1.5,1.4-2.3,2.1c0,0-0.1,0.1-0.1,0.1c0,0-0.1,0.1-0.1,0.1c-0.5,0.6-1.1,1.1-1.6,1.7c-0.1,0.1-0.1,0.1-0.2,0.2
		c-0.5,0.6-1.1,1.2-1.6,1.8c-0.1,0.1-0.1,0.1-0.2,0.2c-0.5,0.6-1,1.2-1.4,1.8c-0.1,0.1-0.2,0.2-0.3,0.3c-0.4,0.6-0.8,1.2-1.2,1.7
		c-0.1,0.2-0.3,0.4-0.4,0.6c-0.3,0.5-0.7,1-1,1.6c-0.2,0.3-0.4,0.6-0.6,1c-0.2,0.4-0.5,0.8-0.7,1.2c-0.3,0.5-0.5,1-0.8,1.5
		c-0.1,0.3-0.3,0.5-0.4,0.8c-0.3,0.7-0.7,1.4-1,2.1c0,0.1-0.1,0.2-0.1,0.3c-1.7,4-3,8.2-3.8,12.6c-0.1,0.3-0.1,0.6-0.2,1
		c0,0.3-0.1,0.5-0.1,0.8c-0.6,4.5-0.7,8.9-0.3,13.3c0,0.1,0,0.2,0,0.3c0.1,0.8,0.2,1.5,0.3,2.3c0,0.3,0.1,0.6,0.1,0.9
		c0.1,0.6,0.2,1.1,0.3,1.6c0.1,0.5,0.2,0.9,0.3,1.4c0.1,0.4,0.2,0.7,0.3,1.1c0.1,0.6,0.3,1.2,0.5,1.8c0.1,0.2,0.1,0.5,0.2,0.7
		c0.2,0.7,0.4,1.4,0.6,2c0,0.1,0.1,0.3,0.1,0.4c0.3,0.7,0.5,1.5,0.8,2.2c0,0.1,0.1,0.2,0.1,0.3c0.3,0.7,0.6,1.5,0.9,2.2
		c0,0.1,0.1,0.2,0.1,0.3c0.3,0.7,0.7,1.4,1,2.1c0,0.1,0.1,0.1,0.1,0.2c0,0.1,0.1,0.1,0.1,0.2c0.3,0.5,0.6,1.1,0.9,1.6
		c0.1,0.2,0.2,0.4,0.3,0.6c0.3,0.5,0.6,1,0.9,1.4c0.2,0.3,0.4,0.6,0.5,0.8c0.3,0.4,0.5,0.8,0.8,1.2c0.4,0.6,0.9,1.2,1.3,1.8
		c0,0,0.1,0.1,0.1,0.1c0.5,0.7,1.1,1.4,1.6,2.1c0,0,0,0,0,0c0.5,0.7,1.1,1.3,1.7,2c0,0,0.1,0.1,0.1,0.1c0.6,0.6,1.2,1.2,1.7,1.8
		c0,0,0,0,0,0c0,0,0,0,0,0c2.3,2.3,4.9,4.5,7.7,6.4c0,0,0.1,0.1,0.1,0.1c0.9,0.6,1.8,1.2,2.8,1.8c0.1,0,0.1,0.1,0.2,0.1
		c0.8,0.5,1.5,0.9,2.3,1.3c0.3,0.2,0.6,0.3,0.9,0.5c0.6,0.3,1.2,0.6,1.7,0.8c1.9,0.9,3.8,1.6,5.8,2.3c0.2,0.1,0.4,0.1,0.6,0.2
		c0.1,0,0.2,0,0.2,0.1c0.2,0.1,0.5,0.2,0.7,0.2c1.7,0.5,3.4,0.9,5.1,1.3c0.1,0,0.2,0,0.2,0.1c0.5,0.1,1,0.2,1.5,0.3
		c0.2,0,0.3,0.1,0.5,0.1c0.1,0,0.1,0,0.2,0c0.3,0,0.6,0.1,0.9,0.1c0.5,0.1,0.9,0.1,1.4,0.2c0,0,0,0,0,0c2,0.2,4,0.3,6,0.4
		c1.9,0,3.8-0.1,5.7-0.3c0.1,0,0.2,0,0.3,0c0.5,0,0.9-0.1,1.4-0.2c0.3,0,0.5-0.1,0.8-0.1c0.2,0,0.4-0.1,0.6-0.1
		c0.1,0,0.3-0.1,0.4-0.1c0.5-0.1,0.9-0.2,1.4-0.2c0.2,0,0.4-0.1,0.5-0.1c6.2-1.2,12-3.5,17.3-6.7c0.2-0.1,0.4-0.3,0.6-0.4
		C607.2,230.8,607.9,230.4,608.5,230z M606.5,229.8c-0.2,0.1-0.4,0.2-0.5,0.3c-1.1,0.7-2.3,1.3-3.5,1.9c-2.3,1.2-4.7,2.2-7.1,3
		l-9-27.4l-3.4-10.3c0.9-0.4,1.8-0.8,2.7-1.4l20.4,28l2.9,4c-0.1,0.1-0.2,0.2-0.3,0.2C607.9,228.9,607.2,229.4,606.5,229.8z
		 M592,236.2c-0.6,0.2-1.1,0.3-1.7,0.4c-0.1,0-0.2,0.1-0.3,0.1c-0.4,0.1-0.9,0.2-1.3,0.3c-0.2,0-0.4,0.1-0.7,0.1
		c-0.3,0.1-0.6,0.1-0.9,0.2c-0.3,0.1-0.7,0.1-1,0.2c-0.2,0-0.5,0.1-0.7,0.1c-2.2,0.3-4.5,0.5-6.9,0.5v-39.7c1.1-0.1,2.1-0.2,3.1-0.5
		l4.8,14.6l7.6,23.1C593.3,235.8,592.7,236,592,236.2C592,236.2,592,236.2,592,236.2z M569.1,237.4c-0.2,0-0.4-0.1-0.6-0.1
		c-2.2-0.4-4.4-0.9-6.6-1.6l7.2-22.5L574,198c1,0.3,1.9,0.4,3,0.5v39.7c-2.5,0-4.9-0.2-7.3-0.6C569.5,237.5,569.3,237.5,569.1,237.4
		z M552.2,231.7c-0.9-0.5-1.7-1-2.6-1.5c-0.3-0.2-0.5-0.3-0.8-0.5c-0.6-0.4-1.3-0.8-1.9-1.2c-0.2-0.1-0.3-0.2-0.5-0.3l15.2-21
		l8.1-11.1c0.9,0.6,1.8,1,2.8,1.4l-3.5,10.9l-8.6,26.9c-1.7-0.6-3.4-1.3-5.1-2c-1-0.5-2-0.9-2.9-1.4
		C552.4,231.8,552.3,231.8,552.2,231.7z M544.9,227c-0.8-0.6-1.5-1.2-2.2-1.8c-0.2-0.2-0.4-0.4-0.6-0.6c-0.7-0.7-1.5-1.3-2.2-2
		c-0.2-0.2-0.4-0.4-0.6-0.5c-0.5-0.5-0.9-0.9-1.3-1.4c-0.3-0.3-0.6-0.6-0.9-1c-0.4-0.4-0.7-0.9-1.1-1.3c-0.3-0.4-0.7-0.9-1-1.3
		c-0.1-0.2-0.3-0.4-0.4-0.5l20.9-15.3l11.1-8.1c0.6,0.8,1.4,1.5,2.1,2.1l-6.9,9.5l-16.4,22.6C545.2,227.2,545,227.1,544.9,227z
		 M533.6,215.3c-0.1-0.1-0.2-0.3-0.3-0.4c-0.4-0.6-0.8-1.2-1.2-1.8c-0.2-0.3-0.4-0.5-0.5-0.8c-0.4-0.6-0.8-1.3-1.1-2
		c-0.2-0.4-0.4-0.7-0.6-1.1c-0.2-0.3-0.3-0.6-0.5-0.9c-0.3-0.7-0.7-1.4-1-2.1c-0.1-0.2-0.2-0.4-0.3-0.6c-0.3-0.7-0.6-1.5-0.9-2.2
		c-0.1-0.2-0.2-0.5-0.3-0.7c-0.2-0.4-0.3-0.9-0.5-1.3l35.2-11.5l2.5-0.8c0.4,1,0.8,1.9,1.4,2.8l-10.2,7.5L533.6,215.3
		C533.6,215.3,533.6,215.3,533.6,215.3z M525.3,197.4c0-0.1,0-0.2-0.1-0.3c-0.2-0.9-0.4-1.8-0.6-2.8c0,0,0-0.1,0-0.1
		c-0.2-0.8-0.3-1.7-0.4-2.5c-0.1-0.4-0.1-0.7-0.1-1.1c-0.1-0.5-0.1-1-0.2-1.5c-0.1-0.7-0.1-1.5-0.2-2.2c0-0.3,0-0.7,0-1
		c0-0.3,0-0.6,0-0.9l31.8-0.1l7.9,0c0.1,1,0.2,2,0.5,3l-2,0.6L526,200C525.8,199.1,525.5,198.2,525.3,197.4z M524.1,176.3
		c0-0.2,0.1-0.4,0.1-0.6c0-0.3,0.1-0.5,0.1-0.8c0.1-0.5,0.2-0.9,0.2-1.4c0,0,0-0.1,0-0.1c0.4-1.8,0.8-3.6,1.4-5.4l35.7,11.6l2,0.6
		c-0.3,1-0.4,2-0.5,3.1l-7.9,0l-31.8,0.1C523.6,181,523.8,178.6,524.1,176.3z M526.8,165.8c0.1-0.3,0.3-0.7,0.4-1
		c0.3-0.7,0.5-1.3,0.8-2c0.2-0.5,0.4-1,0.6-1.5c0.2-0.3,0.3-0.7,0.5-1c0.4-0.8,0.8-1.5,1.2-2.3c0,0,0,0,0-0.1
		c0.5-0.8,0.9-1.7,1.5-2.5c0-0.1,0.1-0.2,0.1-0.2c0.5-0.8,1-1.5,1.5-2.3l22,15.9l10.2,7.3c-0.5,0.8-1,1.7-1.4,2.7l-2.5-0.8
		l-35.2-11.5C526.6,166.3,526.7,166,526.8,165.8z M535.1,150.7c0.2-0.2,0.3-0.4,0.5-0.6c0.5-0.6,1-1.2,1.5-1.8
		c0.2-0.2,0.3-0.4,0.5-0.5c0.5-0.6,1.1-1.1,1.6-1.7c0.2-0.2,0.3-0.3,0.5-0.5c0.8-0.8,1.6-1.5,2.4-2.2c0.1-0.1,0.2-0.2,0.4-0.3
		c0.9-0.8,1.9-1.6,2.9-2.3c0,0,0,0,0.1,0l16.4,22.6l6.9,9.5c-0.8,0.7-1.5,1.4-2.2,2.2l-11-7.9l-21.1-15.2
		C534.5,151.4,534.8,151,535.1,150.7z M547.4,139.2c0.1-0.1,0.3-0.2,0.4-0.3c1.7-1.1,3.4-2.1,5.1-3c0,0,0,0,0,0
		c0.8-0.4,1.6-0.8,2.4-1.2c1.5-0.7,3.1-1.3,4.7-1.9l9,27.3l3.4,10.3c-0.9,0.4-1.8,0.8-2.7,1.4l-8.1-11.1l-15.2-20.9
		C546.8,139.6,547.1,139.4,547.4,139.2z M567.2,130.9c0.3-0.1,0.5-0.1,0.8-0.1c2.9-0.5,5.9-0.8,9-0.9v39.7c-1.1,0.1-2.1,0.2-3.1,0.5
		l-4.8-14.6l-7.6-23.1c1.8-0.6,3.6-1,5.5-1.4C567,130.9,567.1,130.9,567.2,130.9z M586.1,130.5c0.2,0,0.4,0.1,0.7,0.1
		c0.4,0.1,0.9,0.1,1.3,0.2c0,0,0.1,0,0.1,0c1.8,0.4,3.6,0.8,5.3,1.3l-7.2,22.5l-4.9,15.3c-1-0.3-1.9-0.4-3-0.5v-39.7
		c2.2,0,4.4,0.2,6.5,0.5C585.3,130.4,585.7,130.5,586.1,130.5z M600.7,135c0.9,0.4,1.7,0.8,2.5,1.3c0.1,0.1,0.3,0.1,0.4,0.2
		c0.7,0.4,1.3,0.7,2,1.1c0.1,0.1,0.3,0.2,0.4,0.2c1,0.6,1.9,1.2,2.8,1.9c0,0,0.1,0.1,0.1,0.1l-2.9,4.1l-20.4,28
		c-0.9-0.6-1.8-1-2.8-1.4l3.5-10.9l8.6-26.9C596.9,133.3,598.8,134.1,600.7,135C600.6,135,600.6,135,600.7,135z M618.2,148.1
		c0.6,0.6,1.1,1.3,1.6,1.9c0.2,0.2,0.3,0.4,0.5,0.6c0.2,0.2,0.4,0.5,0.6,0.8l-15,11l-17,12.4c-0.6-0.8-1.4-1.5-2.1-2.1l19.2-26.4
		l4.2-5.7c1,0.8,2,1.6,2.9,2.4c0,0,0.1,0.1,0.1,0.1c1,0.8,1.9,1.7,2.8,2.6c0.7,0.7,1.4,1.4,2.1,2.2C618.1,148,618.2,148,618.2,148.1
		z M621.9,152.7c0.1,0.1,0.1,0.2,0.2,0.3c0.4,0.6,0.8,1.2,1.2,1.9c0.2,0.3,0.3,0.5,0.5,0.8c0.4,0.6,0.8,1.3,1.1,1.9
		c0.2,0.4,0.4,0.8,0.6,1.2c0.1,0.3,0.3,0.6,0.4,0.8c0.4,0.7,0.7,1.4,1,2.1c0.1,0.2,0.2,0.4,0.3,0.6c0.3,0.7,0.6,1.5,0.9,2.2
		c0.1,0.2,0.2,0.4,0.3,0.7c0.2,0.4,0.3,0.9,0.5,1.3l-23,7.5l-14.7,4.8c-0.4-1-0.8-1.9-1.4-2.8l16.1-11.8L621.9,152.7
		C621.8,152.7,621.8,152.7,621.9,152.7z M630.1,170.6c0,0.1,0,0.2,0.1,0.3c0.2,0.9,0.4,1.9,0.6,2.8c0,0,0,0.1,0,0.1
		c0.2,0.8,0.3,1.7,0.4,2.5c0.1,0.4,0.1,0.7,0.1,1.1c0.1,0.5,0.1,1,0.2,1.5c0.1,0.7,0.1,1.5,0.2,2.2c0,0.3,0,0.7,0,1
		c0,0.3,0,0.6,0,0.9l-25.9,0.1l-13.8,0c-0.1-1-0.2-2-0.5-3l14.3-4.6l23.4-7.6C629.7,168.8,629.9,169.7,630.1,170.6z M631.3,191.7
		c0,0.2-0.1,0.4-0.1,0.6c0,0.3-0.1,0.5-0.1,0.8c-0.1,0.4-0.2,0.9-0.2,1.3c0,0,0,0.1,0,0.1c-0.4,1.8-0.8,3.6-1.4,5.4l-23.4-7.6
		l-14.3-4.6c0.3-1,0.4-2,0.5-3.1l13.8,0l25.9-0.1C631.8,187,631.6,189.4,631.3,191.7z M628.6,202.2c-0.1,0.3-0.2,0.6-0.4,1
		c-0.3,0.7-0.5,1.4-0.8,2.1c-0.2,0.5-0.4,1-0.6,1.4c-0.2,0.3-0.3,0.7-0.5,1c-0.4,0.8-0.8,1.5-1.2,2.3c0,0,0,0,0,0
		c-0.5,0.8-1,1.7-1.5,2.5c0,0.1-0.1,0.1-0.1,0.2c-0.5,0.8-1,1.5-1.5,2.3l-16.1-11.6l-16-11.6c0.5-0.8,1-1.7,1.4-2.7l14.7,4.8l23,7.5
		C628.8,201.7,628.7,202,628.6,202.2z M620.1,217.6c0,0-0.1,0.1-0.1,0.1c-1.3,1.6-2.6,3.1-4.1,4.5c-0.9,0.9-1.7,1.7-2.7,2.5
		c-0.1,0.1-0.2,0.2-0.4,0.3c-0.9,0.8-1.9,1.6-2.8,2.3c0,0,0,0,0,0l-4.2-5.7l-19.2-26.4c0.8-0.7,1.5-1.4,2.2-2.2l16.9,12.2l15.2,11
		C620.8,216.7,620.5,217.1,620.1,217.6z"/>
	<circle class="st2" cx="577.7" cy="110.5" r="1.6"/>
	<circle class="st2" cx="577.7" cy="257.4" r="1.6"/>
	<circle class="st2" cx="651.2" cy="184" r="1.6"/>
	<circle class="st2" cx="504.2" cy="184" r="1.6"/>
	<ellipse transform="matrix(0.3272 -0.945 0.945 0.3272 296.6087 645.7347)" class="st2" cx="601.8" cy="114.6" rx="1.6" ry="1.6"/>
	<ellipse transform="matrix(0.327 -0.945 0.945 0.327 133.1175 693.731)" class="st2" cx="553.7" cy="253.4" rx="1.6" ry="1.5"/>
	
		<ellipse transform="matrix(0.5869 -0.8096 0.8096 0.5869 155.6431 554.0949)" class="st2" cx="620.8" cy="124.5" rx="1.6" ry="1.6"/>
	
		<ellipse transform="matrix(0.5869 -0.8096 0.8096 0.5869 23.7067 533.3821)" class="st2" cx="534.6" cy="243.5" rx="1.6" ry="1.6"/>
	<ellipse transform="matrix(0.791 -0.6118 0.6118 0.791 47.8055 418.0427)" class="st2" cx="635.8" cy="139" rx="1.6" ry="1.6"/>
	
		<ellipse transform="matrix(0.7912 -0.6116 0.6116 0.7912 -31.5062 365.5854)" class="st2" cx="519.6" cy="228.9" rx="1.6" ry="1.6"/>
	
		<ellipse transform="matrix(0.9406 -0.3396 0.3396 0.9406 -15.5803 229.0907)" class="st2" cx="646.8" cy="159.1" rx="1.6" ry="1.6"/>
	
		<ellipse transform="matrix(0.9406 -0.3394 0.3394 0.9406 -40.7152 185.0355)" class="st2" cx="508.6" cy="208.9" rx="1.6" ry="1.6"/>
	<ellipse transform="matrix(0.3321 -0.9433 0.9433 0.3321 235.5591 749.4906)" class="st2" cx="647" cy="208.4" rx="1.6" ry="1.6"/>
	<ellipse transform="matrix(0.332 -0.9433 0.9433 0.332 189.1018 586.1568)" class="st2" cx="508.4" cy="159.6" rx="1.6" ry="1.6"/>
	
		<ellipse transform="matrix(0.6148 -0.7887 0.7887 0.6148 64.1147 589.5757)" class="st2" cx="635.7" cy="229.1" rx="1.6" ry="1.6"/>
	<ellipse transform="matrix(0.6146 -0.7888 0.7888 0.6146 90.801 463.5085)" class="st2" cx="519.8" cy="138.8" rx="1.6" ry="1.6"/>
	<ellipse transform="matrix(0.815 -0.5794 0.5794 0.815 -26.5699 404.5134)" class="st2" cx="620.3" cy="243.9" rx="1.6" ry="1.6"/>
	<ellipse transform="matrix(0.8149 -0.5796 0.5796 0.8149 27.138 333.1779)" class="st2" cx="535.2" cy="124.1" rx="1.6" ry="1.6"/>
	<ellipse transform="matrix(0.943 -0.3327 0.3327 0.943 -49.9509 214.7615)" class="st2" cx="602.2" cy="253.3" rx="1.6" ry="1.6"/>
	<ellipse transform="matrix(0.943 -0.3329 0.3329 0.943 -6.6335 190.7339)" class="st2" cx="553.2" cy="114.7" rx="1.5" ry="1.6"/>
</g>
<polygon class="st2" points="816.7,182.2 840.3,163.2 869,182.2 869,259 816.7,259 "/>
<polygon class="st2" points="786,200.8 803.9,186.4 821.8,200.8 821.8,259 786,259 "/>
<path class="st2" d="M499.3,202v-2.8l-1.1-0.9v-3.5c0-0.2-0.1-0.3-0.3-0.3c-0.2,0-0.3,0.2-0.3,0.3v3.5l-1.1,0.9v2.8l-0.6,0.5v0.3
	l-6.3-5.3v-5.1l-0.8-0.7v-3.4l-1.3-1.1V184c0-0.2-0.2-0.4-0.4-0.4h0h0h0c-0.2,0-0.4,0.2-0.4,0.4v3.3l-1.3,1.1v3.4l-0.8,0.7v5.1
	l-6.3,5.3v-0.3l-0.6-0.5v-2.8l-1.1-0.9v-3.5c0-0.2-0.2-0.3-0.3-0.3c-0.2,0-0.3,0.2-0.3,0.3v3.5l-1.1,0.9v2.8l-0.6,0.5v3.2
	l-31.9-11.3v-14.9v-7.6v-6.2l-1.1-0.9v-4.6l-1.8-1.5V153c0-0.3-0.2-0.5-0.5-0.5c-0.3,0-0.5,0.2-0.5,0.5v5.7l-1.8,1.5v4.6l-1.1,0.9
	v0.5l-10.4-8.7v-8.4l-1.3-1.1v-5.6l-2.1-1.8v-5.5c0-0.4-0.3-0.7-0.7-0.7h0h0h0c-0.4,0-0.7,0.3-0.7,0.7v5.5l-2.1,1.8v5.6l-1.3,1.1
	v8.4l-10.4,8.7v-0.5l-1.1-0.9v-4.6l-1.8-1.5V153c0-0.3-0.2-0.5-0.5-0.5c-0.3,0-0.5,0.2-0.5,0.5v5.7l-1.8,1.5v4.6l-1.1,0.9v6.2v7.6
	v14.7c-0.2,0-0.4,0.1-0.5,0.2c-1.4,1.7-3,3.5-5,5.4c0,0-0.1,0.1-0.1,0.1c-0.8,0.8-1.6,1.5-2.4,2.3c-1,1-2.2,1.9-3.3,2.9
	c0,0-0.1,0.1-0.1,0.1c-1.4,1.2-3,2.4-4.6,3.7c-0.4,0.3-0.8,0.6-1.2,0.9c0,0-0.1,0.1-0.1,0.1c-0.8,0.6-1.7,1.2-2.5,1.8
	c-1.1,0.7-2.2,1.5-3.3,2.2c0,0-0.1,0.1-0.1,0.1c-0.8,0.5-1.7,1.1-2.5,1.6c-1.1,0.7-2.1,1.3-3.2,1.9c0,0-0.1,0-0.1,0.1
	c-0.8,0.5-1.7,1-2.6,1.5c-1.1,0.6-2.1,1.1-3.2,1.7c0,0-0.1,0-0.1,0.1c-0.9,0.4-1.7,0.9-2.6,1.3c-0.5,0.3-1,0.5-1.6,0.7
	c-0.5,0.3-1.1,0.5-1.6,0.7c0,0-0.1,0-0.1,0.1c-0.9,0.4-1.7,0.8-2.6,1.1c-1,0.4-2.1,0.9-3.1,1.3c0,0-0.1,0-0.1,0.1
	c-0.9,0.3-1.8,0.7-2.7,1c-1,0.4-2.1,0.7-3.1,1.1c0,0-0.1,0-0.1,0c-0.9,0.3-1.8,0.6-2.7,0.9c-1,0.3-2,0.6-3.1,0.9c-0.1,0-0.1,0-0.2,0
	c-0.9,0.2-1.8,0.5-2.7,0.7c-1,0.3-2,0.5-3.1,0.7c0,0-0.1,0-0.1,0c-0.2,0-0.4,0.1-0.6,0.1V220v-3.7v-3l-0.5-0.4v-2.3l-0.9-0.7v-2.8
	c0-0.1-0.1-0.3-0.3-0.3c-0.1,0-0.3,0.1-0.3,0.3v2.8l-0.9,0.7v2.3l-0.5,0.4v0.2l-5.1-4.3v-4.1l-0.6-0.5v-2.7l-1-0.9v-2.7
	c0-0.2-0.1-0.3-0.3-0.3h0h0h0c-0.2,0-0.3,0.1-0.3,0.3v2.7l-1,0.9v2.7l-0.6,0.5v4.1l-5.1,4.3v-0.2l-0.5-0.4v-2.3l-0.9-0.7v-2.8
	c0-0.1-0.1-0.3-0.3-0.3c-0.1,0-0.3,0.1-0.3,0.3v2.8l-0.9,0.7v2.3l-0.5,0.4v3v3.7v14.4c-0.2,0.1-0.4,0.3-0.4,0.6
	c0,0.3,0.2,0.5,0.4,0.6v8.2c-0.2,0.1-0.4,0.4-0.4,0.7c0,0.2,0.2,0.4,0.4,0.5v0.6c-0.2,0.1-0.4,0.3-0.4,0.6c0,0.3,0.1,0.5,0.4,0.6
	v7.6c-0.2,0.1-0.4,0.4-0.4,0.6c0,0.2,0.2,0.4,0.4,0.5v2.9h10.4h5.7v0.6h70.7v-0.6h20.7h8.8v0.6H474h4.5h8.5h13v-48v-4.7v-3.8
	L499.3,202z M395.1,201.3c1.7-1.9,3.2-3.6,4.4-5.3v20.4c-0.2,0-0.4,0.1-0.5,0.2c-1.1,1.3-2.4,2.7-3.9,4.1V201.3z M399.5,218.2v32.4
	h-4.4v-27.5C396.8,221.5,398.2,219.8,399.5,218.2z M389.1,207.4c0.8-0.8,1.6-1.5,2.3-2.2c0.8-0.8,1.6-1.6,2.3-2.4V222
	c-0.7,0.6-1.5,1.3-2.3,1.9c-0.7,0.6-1.5,1.1-2.3,1.7V207.4z M391.4,226.5c0.8-0.7,1.6-1.4,2.3-2v26.2h-4.6v-22.2
	C389.9,227.8,390.7,227.1,391.4,226.5z M383.2,211l0.2-0.1l0.2-0.1l-0.2,0.2L383.2,211L383.2,211z M383.2,212.8l0.2-0.2
	c1.5-1.3,3-2.6,4.4-3.9v17.9c-1.4,0.9-2.8,1.9-4.4,2.8l-0.2,0.1V212.8z M383.2,231.1l0.2-0.1l0.4-0.2l-0.4,0.3L383.2,231.1
	L383.2,231.1z M383.4,232.6c1.5-1,3-2.1,4.4-3.2v21.2h-4.6v-17.9L383.4,232.6z M377.2,215.1c0.8-0.5,1.5-1,2.3-1.5
	c0.8-0.5,1.5-1.1,2.3-1.6v0.2c-0.7,0.6-1.5,1.3-2.3,1.9c-0.7,0.6-1.5,1.2-2.3,1.8V215.1z M377.2,217.6c0.8-0.6,1.5-1.2,2.3-1.8
	c0.8-0.6,1.5-1.2,2.3-1.9v16.3c-0.7,0.4-1.5,0.8-2.3,1.3c-0.7,0.4-1.5,0.8-2.3,1.2V217.6z M377.2,234.2c0.8-0.4,1.5-0.8,2.3-1.2
	c0.8-0.4,1.5-0.8,2.3-1.2v0.2c-0.7,0.5-1.5,1-2.3,1.5c-0.7,0.5-1.5,0.9-2.3,1.4V234.2z M379.5,235.1c0.8-0.5,1.5-1,2.3-1.5v16.9
	h-4.6v-14.1C378,236.1,378.8,235.6,379.5,235.1z M371.3,218.8c0.8-0.5,1.5-0.9,2.3-1.4c0.8-0.5,1.5-1,2.3-1.4v0.9
	c-0.8,0.6-1.5,1.1-2.3,1.7c-0.8,0.5-1.5,1.1-2.3,1.6V218.8z M371.3,221.9c0.8-0.5,1.5-1.1,2.3-1.6c0.8-0.6,1.5-1.1,2.3-1.7v14.7
	c-0.8,0.4-1.5,0.7-2.3,1.1c-0.8,0.3-1.5,0.7-2.3,1V221.9z M371.3,236.9c0.8-0.3,1.5-0.7,2.3-1c0.8-0.3,1.5-0.7,2.3-1.1v0.9
	c-0.8,0.4-1.5,0.9-2.3,1.3c-0.8,0.4-1.5,0.8-2.3,1.2V236.9z M373.6,238.6c0.8-0.4,1.5-0.9,2.3-1.3v13.3h-4.6v-10.8
	C372.1,239.4,372.8,239,373.6,238.6z M365.3,222.1c0.8-0.4,1.5-0.8,2.3-1.2c0.8-0.4,1.5-0.8,2.3-1.3v1.6c-0.8,0.5-1.5,1-2.3,1.5
	c-0.8,0.5-1.5,1-2.3,1.5V222.1z M365.3,225.9c0.8-0.5,1.5-1,2.3-1.5c0.8-0.5,1.5-1,2.3-1.5V236c-0.8,0.3-1.5,0.6-2.3,0.9
	c-0.8,0.3-1.5,0.6-2.3,0.9V225.9z M365.3,239.2c0.8-0.3,1.5-0.6,2.3-0.8c0.8-0.3,1.5-0.6,2.3-0.9v1.5c-0.8,0.4-1.5,0.8-2.3,1.1
	c-0.8,0.4-1.5,0.7-2.3,1.1V239.2z M367.6,241.6c0.8-0.4,1.5-0.7,2.3-1.1v10.1h-4.6v-7.9C366.1,242.4,366.9,242,367.6,241.6z
	 M359.4,225c0.4-0.2,0.9-0.4,1.3-0.6c0.3-0.2,0.7-0.3,1-0.5c0.8-0.4,1.5-0.7,2.3-1.1v2.3c-0.8,0.5-1.5,0.9-2.3,1.4
	c-0.5,0.3-1.1,0.6-1.6,0.9c-0.2,0.1-0.5,0.3-0.7,0.4V225z M359.4,229.4c0.5-0.3,0.9-0.5,1.4-0.8c0.3-0.2,0.6-0.4,0.9-0.5
	c0.8-0.5,1.5-0.9,2.3-1.4v11.6c-0.3,0.1-0.6,0.2-0.9,0.3c-0.5,0.2-1,0.3-1.4,0.5c-0.8,0.2-1.5,0.5-2.3,0.7V229.4z M359.4,241.2
	c0.8-0.2,1.5-0.5,2.3-0.7c0.6-0.2,1.3-0.4,1.9-0.6l0.4-0.1v2.2c-0.3,0.1-0.6,0.3-0.9,0.4c-0.5,0.2-0.9,0.4-1.4,0.6
	c-0.8,0.3-1.5,0.6-2.3,1V241.2z M361.7,244.3c0.6-0.3,1.3-0.6,1.9-0.8l0.4-0.2v7.3h-4.6v-5.3C360.2,245,360.9,244.7,361.7,244.3z
	 M353.4,227.5c0.8-0.3,1.5-0.6,2.3-0.9c0.8-0.3,1.5-0.6,2.3-1v3c-0.8,0.4-1.5,0.8-2.3,1.2c-0.8,0.4-1.5,0.8-2.3,1.2V227.5z
	 M353.4,232.6c0.8-0.4,1.5-0.8,2.3-1.2c0.8-0.4,1.5-0.8,2.3-1.2v10c-0.8,0.2-1.5,0.4-2.3,0.6c-0.8,0.2-1.5,0.4-2.3,0.6V232.6z
	 M353.4,242.8c0.8-0.2,1.5-0.4,2.3-0.6c0.8-0.2,1.5-0.4,2.3-0.6v2.8c-0.8,0.3-1.5,0.6-2.3,0.9c-0.8,0.3-1.5,0.6-2.3,0.8V242.8z
	 M355.7,246.7c0.8-0.3,1.5-0.6,2.3-0.9v4.8h-4.6v-3.1C354.2,247.2,355,247,355.7,246.7z M347.5,229.7c0.8-0.3,1.5-0.5,2.3-0.8
	c0.8-0.3,1.5-0.6,2.3-0.8v3.7c-0.8,0.4-1.5,0.7-2.3,1.1c-0.8,0.4-1.5,0.7-2.3,1.1V229.7z M347.5,235.4c0.8-0.3,1.5-0.7,2.3-1
	c0.8-0.4,1.5-0.7,2.3-1.1v8.5c-0.8,0.2-1.5,0.4-2.3,0.5c-0.8,0.2-1.5,0.3-2.3,0.5V235.4z M347.5,244.1c0.8-0.2,1.5-0.3,2.3-0.5
	c0.8-0.2,1.5-0.3,2.3-0.5v3.4c-0.8,0.3-1.5,0.5-2.3,0.8c-0.8,0.2-1.5,0.5-2.3,0.7V244.1z M349.8,248.8c0.8-0.3,1.5-0.5,2.3-0.8v2.6
	h-4.6v-1.1C348.3,249.2,349,249,349.8,248.8z M346.1,250.6h-2.6c0.1,0,0.2-0.1,0.3-0.1c0.8-0.2,1.5-0.4,2.3-0.7V250.6z M341.6,231.5
	c0.8-0.2,1.5-0.4,2.3-0.7c0.8-0.2,1.5-0.5,2.3-0.7v4.4c-0.8,0.3-1.5,0.7-2.3,1c-0.8,0.3-1.5,0.6-2.3,0.9V231.5z M341.6,237.8
	c0.8-0.3,1.5-0.6,2.3-0.9c0.8-0.3,1.5-0.6,2.3-1v7.1c-0.8,0.1-1.5,0.3-2.3,0.4c-0.8,0.1-1.5,0.3-2.3,0.4V237.8z M341.6,245.2
	c0.8-0.1,1.5-0.3,2.3-0.4c0.8-0.1,1.5-0.3,2.3-0.4v4.1c-0.8,0.2-1.5,0.4-2.3,0.7c-0.8,0.2-1.5,0.4-2.3,0.6V245.2z M335.6,233
	c0.8-0.2,1.5-0.4,2.3-0.5c0.8-0.2,1.5-0.4,2.3-0.6v5.1c-0.8,0.3-1.5,0.6-2.3,0.8c-0.8,0.3-1.5,0.5-2.3,0.8V233z M335.6,240
	c0.8-0.3,1.5-0.5,2.3-0.8c0.8-0.3,1.5-0.6,2.3-0.8v5.7c-0.8,0.1-1.5,0.2-2.3,0.3c-0.8,0.1-1.5,0.2-2.3,0.3V240z M337.9,245.7
	c0.8-0.1,1.5-0.2,2.3-0.3v4.7c-0.7,0.2-1.4,0.3-2.1,0.5h-2.5V246C336.4,245.9,337.1,245.8,337.9,245.7z M334.1,250.6v-4.4
	c0,0,0.1,0,0.1,0v4.4H334.1z M334.2,244.8c0,0-0.1,0-0.1,0v-4.4c0,0,0.1,0,0.1,0V244.8z M334.2,233.3v5.7c0,0-0.1,0-0.1,0v-5.7
	C334.2,233.3,334.2,233.3,334.2,233.3z M472.7,238.7l-0.1,0.1v-11.5l0.1-0.1c0.5-0.4,0.9-0.8,1.3-1.2v11.9
	C473.6,238.2,473.1,238.5,472.7,238.7z M472.9,239.7l-0.3,0.2l-0.1,0.1v0l0.1-0.1L472.9,239.7z M472.5,226L472.5,226l0.1-0.1
	l0.1-0.1l-0.1,0.1L472.5,226z M474,218.7v5c-0.4,0.3-0.9,0.7-1.3,1.1c-0.3,0.2-0.6,0.4-0.8,0.6c0,0-0.1,0-0.1,0.1
	c-0.6,0.4-1.1,0.8-1.7,1.2c-0.7,0.5-1.5,1-2.3,1.5c0,0-0.1,0-0.1,0.1c-0.6,0.4-1.2,0.7-1.8,1.1c-0.7,0.5-1.5,0.9-2.2,1.3
	c0,0-0.1,0-0.1,0.1c-0.6,0.3-1.2,0.7-1.8,1c-0.7,0.4-1.5,0.8-2.2,1.2c0,0-0.1,0-0.1,0c-0.6,0.3-1.2,0.6-1.8,0.9
	c-0.4,0.2-0.7,0.3-1.1,0.5c-0.4,0.2-0.7,0.3-1.1,0.5c0,0-0.1,0-0.1,0c-0.6,0.3-1.2,0.5-1.8,0.8c-0.7,0.3-1.4,0.6-2.2,0.9
	c0,0-0.1,0-0.1,0c-0.6,0.2-1.2,0.5-1.8,0.7c-0.7,0.3-1.4,0.5-2.2,0.8c0,0-0.1,0-0.1,0c-0.6,0.2-1.2,0.4-1.9,0.6
	c-0.7,0.2-1.4,0.4-2.1,0.6c0,0-0.1,0-0.1,0c-0.3,0.1-0.7,0.2-1,0.3v-32.3L474,218.7z M442.1,245.2c0.2-0.1,0.5-0.2,0.7-0.3v3.9
	c-0.2,0-0.5,0.1-0.7,0.1V245.2z M442.1,244.2v-3.6c0.2-0.1,0.5-0.1,0.7-0.2v3.5C442.6,244,442.3,244.1,442.1,244.2z M442.1,253.2
	v-3.3c0.2,0,0.5-0.1,0.7-0.1v3.2c-0.2,0-0.4,0.1-0.6,0.1H442.1z M445.3,244c0.5-0.2,1.1-0.4,1.6-0.7v4.9c-0.5,0.1-1.1,0.2-1.6,0.3
	c-0.5,0.1-1.1,0.2-1.6,0.3v-4.1C444.3,244.4,444.8,244.2,445.3,244z M443.7,243.6v-3.4c0.5-0.1,1.1-0.3,1.6-0.5
	c0.5-0.2,1.1-0.3,1.6-0.5v3c-0.5,0.2-1.1,0.5-1.6,0.7C444.8,243.2,444.3,243.4,443.7,243.6z M445.3,249.4c0.5-0.1,1.1-0.2,1.6-0.3
	v2.8c-0.5,0.2-1.1,0.3-1.6,0.5c-0.5,0.1-1.1,0.3-1.6,0.4v-3.1C444.3,249.6,444.8,249.5,445.3,249.4z M446.9,252.9v0.3h-1
	C446.2,253.1,446.6,253,446.9,252.9z M449.4,242.2c0.5-0.2,1.1-0.5,1.6-0.8v5.9c-0.5,0.1-1.1,0.2-1.6,0.4c-0.5,0.1-1.1,0.2-1.6,0.3
	v-5.1C448.4,242.6,448.9,242.4,449.4,242.2z M447.8,241.9v-2.9c0.5-0.2,1.1-0.4,1.6-0.5c0.5-0.2,1.1-0.4,1.6-0.6v2.6
	c-0.5,0.3-1.1,0.5-1.6,0.8C448.9,241.4,448.4,241.6,447.8,241.9z M449.4,248.6c0.5-0.1,1.1-0.2,1.6-0.4v2.4
	c-0.5,0.2-1.1,0.4-1.6,0.5c-0.5,0.2-1.1,0.3-1.6,0.5v-2.7C448.4,248.8,448.9,248.7,449.4,248.6z M449.4,252.1
	c0.5-0.2,1.1-0.3,1.6-0.5v1.6h-3.2v-0.6C448.4,252.5,448.9,252.3,449.4,252.1z M453.5,240.1c0.5-0.3,1.1-0.6,1.6-0.9v6.9
	c-0.5,0.2-1.1,0.3-1.6,0.4c-0.5,0.1-1.1,0.3-1.6,0.4v-6.1C452.5,240.7,453,240.4,453.5,240.1z M452,239.9v-2.5
	c0.5-0.2,1.1-0.4,1.6-0.6c0.5-0.2,1.1-0.4,1.6-0.7v2.1c-0.5,0.3-1.1,0.6-1.6,0.9C453,239.3,452.5,239.6,452,239.9z M453.5,247.6
	c0.5-0.1,1.1-0.3,1.6-0.4v1.9c-0.5,0.2-1.1,0.4-1.6,0.6c-0.5,0.2-1.1,0.4-1.6,0.6V248C452.5,247.9,453,247.7,453.5,247.6z
	 M453.5,250.7c0.5-0.2,1.1-0.4,1.6-0.6v3.1H452v-1.9C452.5,251.1,453,250.9,453.5,250.7z M457,238.2l0.7-0.4c0.5-0.3,1.1-0.6,1.6-1
	v8c-0.2,0.1-0.4,0.1-0.6,0.2c-0.3,0.1-0.7,0.2-1,0.3c-0.5,0.2-1.1,0.3-1.6,0.5v-7.2C456.4,238.6,456.7,238.4,457,238.2z
	 M456.1,237.7v-2c0.3-0.1,0.6-0.3,0.9-0.4l0.7-0.3c0.5-0.3,1.1-0.5,1.6-0.8v1.6c-0.5,0.3-1.1,0.6-1.6,1c-0.4,0.2-0.7,0.4-1.1,0.7
	C456.4,237.5,456.2,237.6,456.1,237.7z M457.7,246.4c0.4-0.1,0.9-0.3,1.3-0.4l0.3-0.1v1.5c-0.2,0.1-0.4,0.2-0.6,0.3
	c-0.3,0.1-0.6,0.3-1,0.4c-0.5,0.2-1.1,0.4-1.6,0.7v-1.8C456.6,246.7,457.1,246.6,457.7,246.4z M457.7,249.1c0.4-0.2,0.9-0.4,1.3-0.6
	l0.3-0.1v4.8h-3.2v-3.5C456.6,249.5,457.1,249.3,457.7,249.1z M461.8,235.3c0.5-0.3,1.1-0.7,1.6-1.1v9.1c-0.5,0.2-1,0.4-1.6,0.6
	c-0.5,0.2-1,0.4-1.6,0.6v-8.2C460.7,236,461.2,235.6,461.8,235.3z M460.2,235.2v-1.5c0.5-0.3,1.1-0.6,1.6-0.8
	c0.5-0.3,1.1-0.6,1.6-0.9v1.1c-0.5,0.4-1,0.7-1.6,1.1C461.2,234.5,460.7,234.9,460.2,235.2z M461.8,245c0.5-0.2,1.1-0.4,1.6-0.6v1.1
	c-0.5,0.3-1,0.5-1.6,0.8c-0.5,0.3-1,0.5-1.6,0.8v-1.4C460.7,245.3,461.2,245.1,461.8,245z M461.8,247.2c0.5-0.3,1.1-0.5,1.6-0.8v6.8
	h-3.2V248C460.7,247.7,461.2,247.5,461.8,247.2z M465.9,232.5c0.5-0.4,1.1-0.8,1.6-1.2v10.2c-0.5,0.2-1,0.5-1.6,0.7
	c-0.5,0.2-1,0.5-1.6,0.7v-9.3C464.8,233.2,465.4,232.8,465.9,232.5z M464.3,232.5v-1c0.5-0.3,1.1-0.6,1.6-0.9c0.5-0.3,1.1-0.7,1.6-1
	v0.6c-0.5,0.4-1,0.8-1.6,1.2C465.4,231.7,464.8,232.1,464.3,232.5z M465.9,243.3c0.5-0.2,1.1-0.5,1.6-0.7v0.6
	c-0.5,0.3-1,0.6-1.6,0.9c-0.5,0.3-1,0.6-1.6,0.9v-1C464.8,243.7,465.4,243.5,465.9,243.3z M465.9,245.1c0.5-0.3,1.1-0.6,1.6-0.9v9
	h-3.2V246C464.8,245.7,465.4,245.4,465.9,245.1z M470,229.4c0.5-0.4,1.1-0.9,1.6-1.3v11.3c-0.5,0.3-1,0.6-1.6,0.9
	c-0.5,0.3-1,0.5-1.6,0.8v-10.4C468.9,230.2,469.5,229.8,470,229.4z M468.4,229.4v-0.5c0.5-0.4,1.1-0.7,1.6-1.1
	c0.5-0.4,1.1-0.7,1.6-1.1v0.1c-0.5,0.4-1,0.9-1.6,1.3C469.5,228.6,468.9,229,468.4,229.4z M470,241.3c0.5-0.3,1.1-0.6,1.6-0.9v0.2
	c-0.5,0.3-1,0.7-1.6,1c-0.5,0.3-1,0.7-1.6,1v-0.5C468.9,241.8,469.5,241.6,470,241.3z M470,242.7c0.5-0.3,1.1-0.7,1.6-1v11.5h-3.2
	v-9.5C468.9,243.4,469.5,243,470,242.7z M472.5,253.2v-12.1l0.1-0.1c0.5-0.3,0.9-0.6,1.3-0.9v13.2H472.5z"/>
<g>
	<g>
		<path class="st1" d="M69,106.1H45V45h9.1v53H69V106.1z"/>
		<path class="st1" d="M105.3,100.5c0,3.7-1.8,5.6-5.5,5.6H79.9c-3.6,0-5.4-1.9-5.4-5.6V50.6c0-3.8,1.8-5.6,5.4-5.6h19.8
			c3.7,0,5.5,1.9,5.5,5.6V100.5z M96.1,98.3V52.9H83.6v45.4H96.1z"/>
		<path class="st1" d="M143.6,106.1h-8l-14.6-38.5c0.4,1.9,0.6,3.3,0.6,4.4v34.1h-8.9V45h8l14.6,37.7c-0.4-1.9-0.6-3.3-0.6-4.4V45
			h8.9V106.1z"/>
		<path class="st1" d="M181.4,94.6c0,3.6-1.1,6.4-3.2,8.5c-2.1,2-5,3.1-8.6,3.1h-18.6V45h18.6c3.6,0,6.5,1,8.6,3.1
			c2.1,2.1,3.2,4.9,3.2,8.5V94.6z M172.2,93.1V58c0-3.4-1.8-5.1-5.4-5.1h-6.8v45.4h6.6C170.4,98.3,172.2,96.5,172.2,93.1z"/>
		<path class="st1" d="M219.3,100.5c0,3.7-1.8,5.6-5.5,5.6h-19.8c-3.6,0-5.4-1.9-5.4-5.6V50.6c0-3.8,1.8-5.6,5.4-5.6h19.8
			c3.7,0,5.5,1.9,5.5,5.6V100.5z M210.2,98.3V52.9h-12.5v45.4H210.2z"/>
		<path class="st1" d="M257.6,106.1h-8L235,67.7c0.4,1.9,0.6,3.3,0.6,4.4v34.1h-8.9V45h8l14.6,37.7c-0.4-1.9-0.6-3.3-0.6-4.4V45h8.9
			V106.1z"/>
	</g>
	<g>
		<g>
			<path class="st4" d="M94,163.8H81.5v-37.9h12.3v3h-8.9v14.1H93v3h-8.1v14.8H94V163.8z"/>
			<path class="st4" d="M114.9,163.8h-2.3L102.4,136v27.9h-3.2v-37.9h2.5l9.9,27.4v-27.4h3.2V163.8z"/>
			<path class="st4" d="M136.2,161.1c0,0.8-0.3,1.4-0.8,1.9s-1.1,0.8-1.9,0.8h-10c-0.8,0-1.4-0.3-1.9-0.8c-0.5-0.5-0.8-1.1-0.8-1.9
				v-32.5c0-0.8,0.3-1.4,0.8-1.9c0.5-0.5,1.1-0.8,1.9-0.8h10c0.8,0,1.4,0.3,1.9,0.8c0.5,0.5,0.8,1.1,0.8,1.9v8.8h-3.4v-8.5h-8.6
				v31.9h8.6v-13.1h-4v-2.9h7.4V161.1z"/>
			<path class="st4" d="M154.4,163.8h-12.1v-37.9h3.4v34.9h8.7V163.8z"/>
			<path class="st4" d="M174.2,163.8h-3.3l-1.3-8.4H162l-1.3,8.4h-3.2v-0.1l6.8-37.9h3.3L174.2,163.8z M169.1,152.4l-3.3-20.5
				l-3.3,20.5H169.1z"/>
			<path class="st4" d="M194.4,163.8h-2.3L182,136v27.9h-3.2v-37.9h2.5l9.9,27.4v-27.4h3.2V163.8z"/>
			<path class="st4" d="M216.1,157c0,2-0.7,3.6-2,4.9c-1.3,1.3-3,1.9-5,1.9h-8.7v-37.9h8.7c2,0,3.7,0.6,5,1.9c1.3,1.3,2,2.9,2,4.9
				V157z M212.7,156.6v-23.6c0-1.2-0.4-2.2-1.2-3c-0.8-0.8-1.8-1.2-3-1.2h-4.7v31.9h4.5c1.3,0,2.4-0.4,3.2-1.1
				C212.3,159,212.7,157.9,212.7,156.6z"/>
		</g>
	</g>
</g>
</svg>
