<?xml version="1.0" encoding="utf-8"?>
<!-- Generator: Adobe Illustrator 21.0.2, SVG Export Plug-In . SVG Version: 6.00 Build 0)  -->
<svg version="1.1" id="Layer_1" xmlns="http://www.w3.org/2000/svg" xmlns:xlink="http://www.w3.org/1999/xlink" x="0px" y="0px"
	 viewBox="0 0 864 259" style="enable-background:new 0 0 864 259;" xml:space="preserve">
<style type="text/css">
	.st0{fill:#754C24;}
	.st1{fill:#603813;}
	.st2{fill:#42210B;}
	.st3{fill:#FFFFFF;}
	.st4{fill-rule:evenodd;clip-rule:evenodd;fill:#DC8E6A;}
	.st5{fill-rule:evenodd;clip-rule:evenodd;fill:none;stroke:#DD3A3A;stroke-width:3;stroke-miterlimit:10;}
	.st6{fill:#930F1F;}
	.st7{fill:#CC2431;}
	.st8{fill-rule:evenodd;clip-rule:evenodd;fill:#CC2431;}
	.st9{fill-rule:evenodd;clip-rule:evenodd;fill:none;stroke:#930F1F;stroke-width:3;stroke-miterlimit:10;}
	.st10{fill-rule:evenodd;clip-rule:evenodd;fill:none;stroke:#CC2431;stroke-width:4;stroke-miterlimit:10;}
	.st11{fill-rule:evenodd;clip-rule:evenodd;fill:#930F1F;}
	.st12{fill:#FDBB41;}
	.st13{fill:#4B5C87;}
	.st14{fill-rule:evenodd;clip-rule:evenodd;fill:#FDBB41;}
	.st15{fill-rule:evenodd;clip-rule:evenodd;fill:#4B5C87;}
	.st16{fill:#8D745B;}
	.st17{fill:#F2DAB2;}
	.st18{fill-rule:evenodd;clip-rule:evenodd;fill:#F2DAB2;}
	.st19{fill-rule:evenodd;clip-rule:evenodd;fill:#8D745B;}
	.st20{fill-rule:evenodd;clip-rule:evenodd;fill:#FFE6C2;}
	.st21{fill:#5B1B0F;}
	.st22{fill:#ECC96F;}
	.st23{fill-rule:evenodd;clip-rule:evenodd;fill:#ECC96F;}
	.st24{fill-rule:evenodd;clip-rule:evenodd;fill:#5B1B0F;}
	.st25{fill-rule:evenodd;clip-rule:evenodd;fill:#3F0800;}
	.st26{fill:#3F0800;}
	.st27{fill:#C69C6D;}
	.st28{fill-rule:evenodd;clip-rule:evenodd;fill:none;stroke:#4B5C87;stroke-width:4;stroke-miterlimit:10;}
	.st29{fill-rule:evenodd;clip-rule:evenodd;fill:none;stroke:#8D745B;stroke-width:4;stroke-miterlimit:10;}
	.st30{fill-rule:evenodd;clip-rule:evenodd;fill:none;stroke:#5B1B0F;stroke-width:4;stroke-miterlimit:10;}
	.st31{fill:#DC8E6A;}
	.st32{fill:none;}
	.st33{fill:#8C6239;}
	.st34{fill:#C7B299;}
</style>
<g>
	<g>
		<path class="st21" d="M74.5,78.4c0,3.8-1.9,5.7-5.6,5.7H54.1v22.1H45V45.1h23.9c3.7,0,5.6,1.9,5.6,5.6V78.4z M65.3,76.2V52.9H54.1
			v23.3H65.3z"/>
		<path class="st21" d="M112,106.2h-9.1l-1.8-11.6H89.6l-1.8,11.6h-9v-0.2L90.6,45h9.6L112,106.2z M99.8,86.8l-4.5-27.6l-4.5,27.6
			H99.8z"/>
		<path class="st21" d="M148.4,106.2h-9.5l-10.1-28.4v-5.5h9V52.9h-11.5v53.3h-9.1V45.1h24.3c3.7,0,5.5,1.9,5.5,5.6v22.2
			c0,2.6-0.9,4.2-2.6,5c-0.9,0.4-2.9,0.6-5.9,0.6L148.4,106.2z"/>
		<path class="st21" d="M163.3,106.2h-9.1V45.1h9.1V106.2z"/>
		<path class="st21" d="M200.1,100.6c0,3.7-1.8,5.6-5.5,5.6h-18.4c-3.7,0-5.5-1.9-5.5-5.6V86.1h9.1v12.5h11.2v-12l-18.3-17.3
			c-1.3-1.3-2-2.9-2-4.9V50.7c0-3.8,1.8-5.6,5.5-5.6h18.4c3.7,0,5.5,1.8,5.5,5.5v13.7h-9.1V52.8h-11.2v11.1l18.3,17.3
			c1.3,1.3,2,2.9,2,5V100.6z"/>
	</g>
</g>
<g>
	<path class="st22" d="M52.8,134.8h-5.6v9.2h5.2v1.9h-5.2V157H45v-24.1h7.8V134.8z"/>
	<path class="st22" d="M66,157h-2.3l-4.5-12.9l0.3-0.4h3.8v-8.9h-5.5V157h-2.1v-24.1h8.1c0.5,0,0.9,0.2,1.2,0.5
		c0.3,0.3,0.5,0.7,0.5,1.2v9.2c0,1.2-0.8,1.7-2.3,1.7c-0.2,0-0.4,0-0.7,0c-0.3,0-0.5,0-0.6,0C63.2,149.3,64.6,153.1,66,157z"/>
	<path class="st22" d="M78.9,157h-2.1l-0.8-5.4h-4.8l-0.8,5.4h-2.1v-0.1l4.3-24.1h2.1L78.9,157z M75.7,149.7l-2.1-13.1l-2.1,13.1
		H75.7z"/>
	<path class="st22" d="M91.8,157h-1.5l-6.4-17.8V157h-2v-24.1h1.6l6.3,17.4v-17.4h2V157z"/>
	<path class="st22" d="M105.3,155.3c0,0.5-0.2,0.9-0.5,1.2c-0.3,0.3-0.7,0.5-1.2,0.5h-6.2c-0.5,0-0.9-0.2-1.2-0.5
		c-0.3-0.3-0.5-0.7-0.5-1.2v-20.7c0-0.5,0.2-0.9,0.5-1.2c0.3-0.3,0.7-0.5,1.2-0.5h6.2c0.5,0,0.9,0.2,1.2,0.5
		c0.3,0.3,0.5,0.7,0.5,1.2v5.6h-2.2v-5.4h-5.4v20.3h5.4v-5.9h2.2V155.3z"/>
	<path class="st22" d="M117,157h-7.9v-24.1h7.8v1.9h-5.7v9h5.2v1.9h-5.2v9.4h5.8V157z"/>
</g>
<g>
	<g>
		<g>
			<g>
				<polygon class="st23" points="469.2,118.9 479.2,114.6 496.2,107.4 496.2,107.4 496.2,107.4 521.6,114.6 536.6,118.9 
					536.6,257.9 496.2,257.9 496.2,257.9 496.2,257.9 469.2,257.9 				"/>
				<polygon class="st23" points="475.8,84.6 465.8,80.3 448.8,73 448.8,73.1 448.8,73 423.4,80.3 408.4,84.6 408.4,254.5 
					448.8,254.5 448.8,254.5 448.8,254.5 475.8,254.5 				"/>
			</g>
			<g>
				<polygon class="st23" points="828.9,177.7 823.1,175.2 813.3,171 813.3,171 813.3,171 798.6,175.2 790,177.7 790,257.9 
					813.3,257.9 813.3,257.9 813.3,257.9 828.9,257.9 				"/>
				<polygon class="st23" points="825.1,157.8 830.9,155.4 840.7,151.2 840.7,151.2 840.7,151.2 855.4,155.4 864,157.8 864,255.9 
					840.7,255.9 840.7,255.9 840.7,255.9 825.1,255.9 				"/>
			</g>
		</g>
		<g>
			<rect x="681.4" y="164.5" class="st23" width="30.5" height="83.8"/>
		</g>
		<g>
			<rect x="532.1" y="181.2" class="st23" width="88.4" height="65.5"/>
		</g>
	</g>
</g>
<rect x="711.2" y="111.8" class="st24" width="5" height="5.8"/>
<polygon class="st24" points="713.7,106.3 716.2,111.8 711.2,111.8 "/>
<polygon class="st24" points="756.3,102.2 759.9,158.5 752.7,158.5 "/>
<polygon class="st24" points="704.3,158.5 707.9,158.5 707.9,114.4 743,114.4 743,158.5 769.7,158.5 769.7,114.4 804.8,114.4 
	804.8,158.5 808.4,158.5 808.4,193.3 811.8,193.3 811.8,251.9 808.4,251.9 704.3,251.9 700.9,251.9 700.9,193.3 704.3,193.3 "/>
<path class="st23" d="M724.3,158.5v-30.7c0-1.6-1.5-2.9-3.3-2.9l0,0c-1.8,0-3.3,1.3-3.3,2.9v30.7H724.3z"/>
<path class="st23" d="M735.2,158.5v-30.7c0-1.6-1.5-2.9-3.3-2.9l0,0c-1.8,0-3.3,1.3-3.3,2.9v30.7H735.2z"/>
<rect x="707.9" y="117.6" class="st23" width="35.1" height="2"/>
<rect x="769.7" y="117.6" class="st23" width="35.1" height="2"/>
<g>
	<g>
		<path class="st23" d="M788.4,158.5v-30.7c0-1.6,1.5-2.9,3.3-2.9l0,0c1.8,0,3.3,1.3,3.3,2.9v30.7H788.4z"/>
		<path class="st23" d="M777.5,158.5v-30.7c0-1.6,1.5-2.9,3.3-2.9h0c1.8,0,3.3,1.3,3.3,2.9v30.7H777.5z"/>
	</g>
</g>
<path class="st23" d="M709,177.5h2.5v-9.8c-0.8-4.3-1.6-3.7-2.5,0V177.5z"/>
<g>
	<g>
		<path class="st23" d="M737.8,177.5h2.5v-9.8c-0.8-4.3-1.6-3.7-2.5,0V177.5z"/>
		<path class="st23" d="M772.4,177.5h2.5v-9.8c-0.8-4.3-1.6-3.7-2.5,0V177.5z"/>
	</g>
</g>
<path class="st23" d="M801.2,177.5h2.5v-9.8c-0.8-4.3-1.6-3.7-2.5,0V177.5z"/>
<g>
	<g>
		<path class="st23" d="M714.8,177.5h2.2v-9.8c-0.7-4.3-1.5-3.7-2.2,0V177.5z"/>
		<path class="st23" d="M717.9,177.5h2.2v-9.8c-0.7-4.3-1.5-3.7-2.2,0V177.5z"/>
		<path class="st23" d="M720.9,177.5h2.2v-9.8c-0.7-4.3-1.5-3.7-2.2,0V177.5z"/>
		<path class="st23" d="M723.9,177.5h2.2v-9.8c-0.7-4.3-1.5-3.7-2.2,0V177.5z"/>
		<path class="st23" d="M726.9,177.5h2.2v-9.8c-0.7-4.3-1.5-3.7-2.2,0V177.5z"/>
		<path class="st23" d="M729.9,177.5h2.2v-9.8c-0.7-4.3-1.5-3.7-2.2,0V177.5z"/>
		<path class="st23" d="M733,177.5h2.2v-9.8c-0.7-4.3-1.5-3.7-2.2,0V177.5z"/>
	</g>
</g>
<g>
	<g>
		<path class="st23" d="M742.8,177.5h2.9v-9.8c-1-4.3-2-3.7-2.9,0V177.5z"/>
		<path class="st23" d="M746.8,177.5h2.9v-9.8c-1-4.3-2-3.7-2.9,0V177.5z"/>
		<path class="st23" d="M750.8,177.5h2.9v-9.8c-1-4.3-2-3.7-2.9,0V177.5z"/>
		<path class="st23" d="M754.9,177.5h2.9v-9.8c-1-4.3-2-3.7-2.9,0V177.5z"/>
		<path class="st23" d="M758.9,177.5h2.9v-9.8c-1-4.3-2-3.7-2.9,0V177.5z"/>
		<path class="st23" d="M762.9,177.5h2.9v-9.8c-1-4.3-2-3.7-2.9,0V177.5z"/>
		<path class="st23" d="M766.9,177.5h2.9v-9.8c-1-4.3-2-3.7-2.9,0V177.5z"/>
	</g>
</g>
<g>
	<g>
		<path class="st23" d="M797.8,177.5h-2.2v-9.8c0.7-4.3,1.5-3.7,2.2,0V177.5z"/>
		<path class="st23" d="M794.8,177.5h-2.2v-9.8c0.7-4.3,1.5-3.7,2.2,0V177.5z"/>
		<path class="st23" d="M791.8,177.5h-2.2v-9.8c0.7-4.3,1.5-3.7,2.2,0V177.5z"/>
		<path class="st23" d="M788.8,177.5h-2.2v-9.8c0.7-4.3,1.5-3.7,2.2,0V177.5z"/>
		<path class="st23" d="M785.8,177.5h-2.2v-9.8c0.7-4.3,1.5-3.7,2.2,0V177.5z"/>
		<path class="st23" d="M782.7,177.5h-2.2v-9.8c0.7-4.3,1.5-3.7,2.2,0V177.5z"/>
		<path class="st23" d="M779.7,177.5h-2.2v-9.8c0.7-4.3,1.5-3.7,2.2,0V177.5z"/>
	</g>
</g>
<g>
	<g>
		<ellipse class="st23" cx="757.8" cy="193.5" rx="1.7" ry="1.5"/>
		<g>
			<path class="st23" d="M756.5,188.3c0,0,0.4,0.2,0.7-0.1c0.2-0.3,0.5-0.5,0.5-0.5l0-2.6c0,0-0.7-0.6-1.2-0.6
				c-0.5,0-0.8,0.5-0.9,0.8C755.6,185.3,756.5,188.3,756.5,188.3z"/>
			<path class="st23" d="M758.9,188.9l-0.7,2.6l0,0l0,0.1l-0.2,0l-0.2,0l0-0.1l0,0l-0.7-2.6c0.2,0,0.4,0.1,0.4,0
				c0.1-0.3,0.3-0.7,0.6-0.7c0.3,0,0.5,0.4,0.6,0.7C758.5,189,758.7,188.9,758.9,188.9z"/>
			<path class="st23" d="M759.1,188.3c0,0-0.4,0.2-0.7-0.1c-0.2-0.3-0.5-0.5-0.5-0.5l0-2.6c0,0,0.7-0.6,1.2-0.6s0.8,0.5,0.9,0.8
				C760.1,185.3,759.1,188.3,759.1,188.3z"/>
		</g>
		<g>
			<path class="st23" d="M759.7,188.4c0,0,0.3,0.3,0.6,0.2c0.4-0.2,0.7-0.3,0.7-0.3l1.5-2.3c0,0-0.3-0.8-0.7-1.1
				c-0.4-0.2-1,0.1-1.2,0.3C760.5,185.4,759.7,188.4,759.7,188.4z"/>
			<path class="st23" d="M761.3,190l-2.1,1.9l0,0l-0.1,0.1l-0.2-0.1l-0.2-0.1l0-0.1l0,0l0.8-2.6c0.2,0.1,0.3,0.2,0.4,0.2
				c0.2-0.2,0.7-0.4,0.9-0.3c0.2,0.1,0.2,0.6,0.1,0.8C761,189.9,761.2,189.9,761.3,190z"/>
			<path class="st23" d="M761.9,189.6c0,0-0.5,0-0.5-0.4c0-0.4-0.1-0.7-0.1-0.7l1.5-2.3c0,0,0.9-0.2,1.4,0c0.4,0.2,0.4,0.8,0.3,1
				C764.5,187.5,761.9,189.6,761.9,189.6z"/>
		</g>
		<g>
			<path class="st23" d="M762.3,189.9c0,0,0,0.4,0.5,0.4c0.4,0,0.8,0.1,0.8,0.1l2.6-1.3c0,0,0.3-0.8,0-1.2c-0.2-0.4-0.9-0.4-1.2-0.3
				C764.7,187.7,762.3,189.9,762.3,189.9z"/>
			<path class="st23" d="M762.9,192l-2.9,0.7l0,0l-0.1,0l-0.1-0.2l-0.2-0.2l0.1,0l0,0l2.2-1.9c0.1,0.2,0.1,0.3,0.2,0.3
				c0.3-0.1,0.8-0.1,0.9,0.1c0.1,0.2-0.1,0.6-0.3,0.8C762.6,191.7,762.8,191.9,762.9,192z"/>
			<path class="st23" d="M763.6,191.9c0,0-0.4-0.2-0.2-0.6c0.2-0.3,0.3-0.6,0.3-0.6l2.6-1.3c0,0,0.9,0.2,1.2,0.6
				c0.2,0.4-0.1,0.9-0.3,1C767,191.2,763.6,191.9,763.6,191.9z"/>
		</g>
		<g>
			<path class="st23" d="M763.7,192.4c0,0-0.2,0.4,0.2,0.6s0.6,0.4,0.6,0.4l3,0c0,0,0.7-0.6,0.7-1c0-0.4-0.6-0.7-0.9-0.8
				C767.1,191.5,763.7,192.4,763.7,192.4z"/>
			<path class="st23" d="M763.1,194.5l-2.9-0.6l0,0l-0.1,0l0-0.2l0-0.2l0.1,0l0,0l2.9-0.6c0,0.2-0.1,0.4,0,0.4
				c0.3,0.1,0.7,0.3,0.7,0.5c0,0.2-0.4,0.4-0.7,0.5C763,194.1,763,194.3,763.1,194.5z"/>
			<path class="st23" d="M763.7,194.7c0,0-0.2-0.4,0.2-0.6c0.4-0.2,0.6-0.4,0.6-0.4l3,0c0,0,0.7,0.6,0.7,1s-0.6,0.7-0.9,0.8
				C767.1,195.6,763.7,194.7,763.7,194.7z"/>
		</g>
		<g>
			<path class="st23" d="M763.6,195.2c0,0-0.4,0.2-0.2,0.6c0.2,0.3,0.3,0.6,0.3,0.6l2.6,1.3c0,0,0.9-0.2,1.2-0.6
				c0.2-0.4-0.1-0.9-0.3-1C767,195.9,763.6,195.2,763.6,195.2z"/>
			<path class="st23" d="M761.8,196.6l-2.2-1.9l0,0l-0.1,0l0.2-0.2l0.1-0.2l0.1,0l0,0l2.9,0.7c-0.1,0.1-0.3,0.3-0.2,0.3
				c0.2,0.2,0.5,0.6,0.3,0.8c-0.1,0.2-0.6,0.2-0.9,0.1C762,196.3,761.9,196.5,761.8,196.6z"/>
			<path class="st23" d="M762.3,197.2c0,0,0-0.4,0.5-0.4c0.4,0,0.8-0.1,0.8-0.1l2.6,1.3c0,0,0.3,0.8,0,1.2c-0.2,0.4-0.9,0.4-1.2,0.3
				C764.7,199.4,762.3,197.2,762.3,197.2z"/>
		</g>
		<g>
			<path class="st23" d="M761.9,197.5c0,0-0.5,0-0.5,0.4c0,0.4-0.1,0.7-0.1,0.7l1.5,2.3c0,0,0.9,0.2,1.4,0c0.4-0.2,0.4-0.8,0.3-1
				C764.4,199.6,761.9,197.5,761.9,197.5z"/>
			<path class="st23" d="M759.5,198l-0.8-2.6l0,0l0-0.1l0.2-0.1l0.2-0.1l0.1,0.1l0,0l2.1,1.9c-0.2,0.1-0.4,0.1-0.4,0.2
				c0.1,0.3,0.1,0.7-0.1,0.8c-0.2,0.1-0.6-0.1-0.9-0.3C759.8,197.8,759.7,197.9,759.5,198z"/>
			<path class="st23" d="M759.6,198.6c0,0,0.3-0.3,0.6-0.2c0.4,0.2,0.7,0.3,0.7,0.3l1.5,2.3c0,0-0.3,0.8-0.7,1.1
				c-0.4,0.2-1-0.1-1.2-0.3C760.4,201.6,759.6,198.6,759.6,198.6z"/>
		</g>
		<g>
			<path class="st23" d="M759.1,198.8c0,0-0.4-0.2-0.7,0.1c-0.2,0.3-0.5,0.5-0.5,0.5l0,2.6c0,0,0.7,0.6,1.2,0.6
				c0.5,0,0.8-0.5,0.9-0.8C760.1,201.7,759.1,198.8,759.1,198.8z"/>
			<path class="st23" d="M756.7,198.1l0.7-2.6l0,0l0-0.1l0.2,0l0.2,0l0,0.1l0,0l0.7,2.6c-0.2,0-0.4-0.1-0.4,0
				c-0.1,0.3-0.3,0.7-0.6,0.7c-0.3,0-0.5-0.4-0.6-0.7C757.1,198.1,756.9,198.1,756.7,198.1z"/>
			<path class="st23" d="M756.5,198.8c0,0,0.4-0.2,0.7,0.1c0.2,0.3,0.5,0.5,0.5,0.5l0,2.6c0,0-0.7,0.6-1.2,0.6
				c-0.5,0-0.8-0.5-0.9-0.8C755.5,201.7,756.5,198.8,756.5,198.8z"/>
		</g>
		<g>
			<path class="st23" d="M755.9,198.6c0,0-0.3-0.3-0.6-0.2c-0.4,0.2-0.7,0.3-0.7,0.3l-1.5,2.3c0,0,0.3,0.8,0.7,1.1
				c0.4,0.2,1-0.1,1.2-0.3C755.1,201.6,755.9,198.6,755.9,198.6z"/>
			<path class="st23" d="M754.3,197.1l2.1-1.9l0,0l0.1-0.1l0.2,0.1l0.2,0.1l0,0.1l0,0L756,198c-0.2-0.1-0.3-0.2-0.4-0.2
				c-0.2,0.2-0.7,0.4-0.9,0.3c-0.2-0.1-0.2-0.6-0.1-0.8C754.6,197.2,754.4,197.1,754.3,197.1z"/>
			<path class="st23" d="M753.7,197.5c0,0,0.5,0,0.5,0.4c0,0.4,0.1,0.7,0.1,0.7l-1.5,2.3c0,0-0.9,0.2-1.4,0c-0.4-0.2-0.4-0.8-0.3-1
				C751.1,199.6,753.7,197.5,753.7,197.5z"/>
		</g>
		<g>
			<path class="st23" d="M753.3,197.1c0,0,0-0.4-0.5-0.4c-0.4,0-0.8-0.1-0.8-0.1l-2.6,1.3c0,0-0.3,0.8,0,1.2
				c0.2,0.4,0.9,0.4,1.2,0.3C750.9,199.3,753.3,197.1,753.3,197.1z"/>
			<path class="st23" d="M752.7,195l2.9-0.7l0,0l0.1,0l0.1,0.2l0.2,0.2l-0.1,0l0,0l-2.2,1.9c-0.1-0.2-0.1-0.3-0.2-0.3
				c-0.3,0.1-0.8,0.1-0.9-0.1c-0.1-0.2,0.1-0.6,0.3-0.8C753,195.3,752.8,195.2,752.7,195z"/>
			<path class="st23" d="M752,195.1c0,0,0.4,0.2,0.2,0.6s-0.3,0.6-0.3,0.6l-2.6,1.3c0,0-0.9-0.2-1.2-0.6c-0.2-0.4,0.1-0.9,0.3-1
				C748.6,195.8,752,195.1,752,195.1z"/>
		</g>
		<g>
			<path class="st23" d="M751.9,194.6c0,0,0.2-0.4-0.2-0.6c-0.4-0.2-0.6-0.4-0.6-0.4l-3,0c0,0-0.7,0.6-0.7,1c0,0.4,0.6,0.7,0.9,0.8
				C748.5,195.5,751.9,194.6,751.9,194.6z"/>
			<path class="st23" d="M752.6,192.6l2.9,0.6l0,0l0.1,0l0,0.2l0,0.2l-0.1,0l0,0l-2.9,0.6c0-0.2,0.1-0.3,0-0.4
				c-0.3-0.1-0.7-0.3-0.7-0.5c0-0.2,0.4-0.4,0.7-0.5C752.6,192.9,752.6,192.8,752.6,192.6z"/>
			<path class="st23" d="M751.9,192.3c0,0,0.2,0.4-0.2,0.6c-0.4,0.2-0.6,0.4-0.6,0.4l-3,0c0,0-0.7-0.6-0.7-1s0.6-0.7,0.9-0.8
				C748.5,191.5,751.9,192.3,751.9,192.3z"/>
		</g>
		<g>
			<path class="st23" d="M752,191.9c0,0,0.4-0.2,0.2-0.6c-0.2-0.3-0.3-0.6-0.3-0.6l-2.6-1.3c0,0-0.9,0.2-1.2,0.6
				c-0.2,0.4,0.1,0.9,0.3,1C748.6,191.1,752,191.9,752,191.9z"/>
			<path class="st23" d="M753.8,190.4l2.2,1.9l0,0l0.1,0l-0.2,0.2l-0.1,0.2l-0.1,0l0,0l-2.9-0.7c0.1-0.1,0.3-0.3,0.2-0.3
				c-0.2-0.2-0.5-0.6-0.3-0.8c0.1-0.2,0.6-0.2,0.9-0.1C753.7,190.7,753.7,190.6,753.8,190.4z"/>
			<path class="st23" d="M753.3,189.9c0,0,0,0.4-0.5,0.4c-0.4,0-0.8,0.1-0.8,0.1l-2.6-1.3c0,0-0.3-0.8,0-1.2
				c0.2-0.4,0.9-0.4,1.2-0.3C750.9,187.7,753.3,189.9,753.3,189.9z"/>
		</g>
		<g>
			<path class="st23" d="M753.7,189.5c0,0,0.5,0,0.5-0.4c0-0.4,0.1-0.7,0.1-0.7l-1.5-2.3c0,0-0.9-0.2-1.4,0c-0.4,0.2-0.4,0.8-0.3,1
				C751.2,187.4,753.7,189.5,753.7,189.5z"/>
			<path class="st23" d="M756.1,189.1l0.8,2.6l0,0l0,0.1l-0.2,0.1l-0.2,0.1l-0.1-0.1l0,0l-2.1-1.9c0.2-0.1,0.4-0.1,0.4-0.2
				c-0.1-0.3-0.1-0.7,0.1-0.8c0.2-0.1,0.6,0.1,0.9,0.3C755.8,189.3,755.9,189.2,756.1,189.1z"/>
			<path class="st23" d="M756,188.4c0,0-0.3,0.3-0.6,0.2c-0.4-0.2-0.7-0.3-0.7-0.3l-1.5-2.3c0,0,0.3-0.8,0.7-1.1
				c0.4-0.2,1,0.1,1.2,0.3C755.2,185.4,756,188.4,756,188.4z"/>
		</g>
	</g>
</g>
<g>
	<g>
		<path class="st23" d="M723.3,204v-8.4c0-1.6-1.5-2.9-3.3-2.9h0c-1.8,0-3.3,1.3-3.3,2.9v8.4H723.3z"/>
		<path class="st23" d="M734.2,204v-8.4c0-1.6-1.5-2.9-3.3-2.9l0,0c-1.8,0-3.3,1.3-3.3,2.9v8.4H734.2z"/>
	</g>
</g>
<g>
	<g>
		<path class="st23" d="M785.2,204v-8.4c0-1.6-1.5-2.9-3.3-2.9l0,0c-1.8,0-3.3,1.3-3.3,2.9v8.4H785.2z"/>
		<path class="st23" d="M796,204v-8.4c0-1.6-1.5-2.9-3.3-2.9l0,0c-1.8,0-3.3,1.3-3.3,2.9v8.4H796z"/>
	</g>
</g>
<g>
	<g>
		<ellipse class="st23" cx="725.4" cy="187.7" rx="0.7" ry="0.6"/>
		<g>
			<path class="st23" d="M724.9,185.6c0,0,0.2,0.1,0.3-0.1c0.1-0.1,0.2-0.2,0.2-0.2l0-1c0,0-0.3-0.2-0.5-0.2c-0.2,0-0.3,0.2-0.3,0.3
				C724.5,184.4,724.9,185.6,724.9,185.6z"/>
			<path class="st23" d="M725.8,185.8l-0.3,1h0l0,0l-0.1,0l-0.1,0l0,0h0l-0.3-1c0.1,0,0.2,0,0.2,0c0-0.1,0.1-0.3,0.2-0.3
				c0.1,0,0.2,0.2,0.2,0.3C725.7,185.9,725.8,185.8,725.8,185.8z"/>
			<path class="st23" d="M726,185.6c0,0-0.2,0.1-0.3-0.1c-0.1-0.1-0.2-0.2-0.2-0.2l0-1c0,0,0.3-0.2,0.5-0.2c0.2,0,0.3,0.2,0.3,0.3
				C726.3,184.4,726,185.6,726,185.6z"/>
		</g>
		<g>
			<path class="st23" d="M726.2,185.6c0,0,0.1,0.1,0.3,0.1c0.2-0.1,0.3-0.1,0.3-0.1l0.6-0.9c0,0-0.1-0.3-0.3-0.4
				c-0.2-0.1-0.4,0-0.5,0.1C726.5,184.5,726.2,185.6,726.2,185.6z"/>
			<path class="st23" d="M726.8,186.3L726,187l0,0l0,0l-0.1-0.1l-0.1,0l0,0l0,0l0.3-1c0.1,0,0.1,0.1,0.2,0.1
				c0.1-0.1,0.3-0.2,0.3-0.1c0.1,0,0.1,0.2,0.1,0.3C726.7,186.2,726.8,186.2,726.8,186.3z"/>
			<path class="st23" d="M727.1,186.1c0,0-0.2,0-0.2-0.2c0-0.2,0-0.3,0-0.3l0.6-0.9c0,0,0.4-0.1,0.5,0c0.2,0.1,0.2,0.3,0.1,0.4
				C728.1,185.3,727.1,186.1,727.1,186.1z"/>
		</g>
		<g>
			<path class="st23" d="M727.2,186.2c0,0,0,0.2,0.2,0.2c0.2,0,0.3,0,0.3,0l1-0.5c0,0,0.1-0.3,0-0.5c-0.1-0.1-0.4-0.1-0.5-0.1
				C728.2,185.4,727.2,186.2,727.2,186.2z"/>
			<path class="st23" d="M727.4,187.1l-1.2,0.3l0,0l0,0l0-0.1l-0.1-0.1l0,0l0,0l0.9-0.7c0,0.1,0.1,0.1,0.1,0.1c0.1,0,0.3,0,0.4,0
				c0.1,0.1-0.1,0.2-0.1,0.3C727.3,187,727.4,187,727.4,187.1z"/>
			<path class="st23" d="M727.7,187c0,0-0.2-0.1-0.1-0.2c0.1-0.1,0.1-0.3,0.1-0.3l1-0.5c0,0,0.4,0.1,0.5,0.2c0.1,0.1,0,0.4-0.1,0.4
				C729.1,186.7,727.7,187,727.7,187z"/>
		</g>
		<g>
			<path class="st23" d="M727.8,187.2c0,0-0.1,0.1,0.1,0.2c0.1,0.1,0.2,0.2,0.2,0.2l1.2,0c0,0,0.3-0.2,0.3-0.4
				c0-0.2-0.2-0.3-0.3-0.3C729.1,186.9,727.8,187.2,727.8,187.2z"/>
			<path class="st23" d="M727.5,188l-1.2-0.3l0,0l0,0l0-0.1l0-0.1l0,0l0,0l1.2-0.3c0,0.1,0,0.1,0,0.2c0.1,0,0.3,0.1,0.3,0.2
				c0,0.1-0.2,0.2-0.3,0.2C727.5,187.9,727.5,188,727.5,188z"/>
			<path class="st23" d="M727.8,188.1c0,0-0.1-0.1,0.1-0.2c0.1-0.1,0.2-0.2,0.2-0.2l1.2,0c0,0,0.3,0.2,0.3,0.4
				c0,0.2-0.2,0.3-0.3,0.3C729.1,188.5,727.8,188.1,727.8,188.1z"/>
		</g>
		<g>
			<path class="st23" d="M727.7,188.3c0,0-0.2,0.1-0.1,0.2c0.1,0.1,0.1,0.3,0.1,0.3l1,0.5c0,0,0.4-0.1,0.5-0.2
				c0.1-0.1,0-0.4-0.1-0.4C729.1,188.6,727.7,188.3,727.7,188.3z"/>
			<path class="st23" d="M727,188.9l-0.9-0.7l0,0l0,0l0.1-0.1l0-0.1l0,0l0,0l1.2,0.3c0,0.1-0.1,0.1-0.1,0.1c0.1,0.1,0.2,0.2,0.1,0.3
				c-0.1,0.1-0.2,0.1-0.4,0C727.1,188.8,727,188.8,727,188.9z"/>
			<path class="st23" d="M727.2,189.1c0,0,0-0.2,0.2-0.2c0.2,0,0.3,0,0.3,0l1,0.5c0,0,0.1,0.3,0,0.5c-0.1,0.1-0.4,0.1-0.5,0.1
				C728.2,190,727.2,189.1,727.2,189.1z"/>
		</g>
		<g>
			<path class="st23" d="M727,189.2c0,0-0.2,0-0.2,0.2c0,0.2,0,0.3,0,0.3l0.6,0.9c0,0,0.4,0.1,0.5,0c0.2-0.1,0.2-0.3,0.1-0.4
				C728,190.1,727,189.2,727,189.2z"/>
			<path class="st23" d="M726.1,189.4l-0.3-1l0,0l0,0l0.1,0l0.1-0.1l0,0l0,0l0.8,0.8c-0.1,0-0.2,0-0.1,0.1c0,0.1,0,0.3-0.1,0.3
				c-0.1,0-0.3,0-0.3-0.1C726.2,189.3,726.2,189.4,726.1,189.4z"/>
			<path class="st23" d="M726.1,189.7c0,0,0.1-0.1,0.3-0.1c0.2,0.1,0.3,0.1,0.3,0.1l0.6,0.9c0,0-0.1,0.3-0.3,0.4
				c-0.2,0.1-0.4,0-0.5-0.1C726.5,190.9,726.1,189.7,726.1,189.7z"/>
		</g>
		<g>
			<path class="st23" d="M725.9,189.7c0,0-0.2-0.1-0.3,0.1c-0.1,0.1-0.2,0.2-0.2,0.2l0,1c0,0,0.3,0.2,0.5,0.2c0.2,0,0.3-0.2,0.3-0.3
				C726.3,190.9,725.9,189.7,725.9,189.7z"/>
			<path class="st23" d="M725,189.5l0.3-1l0,0l0,0l0.1,0l0.1,0l0,0l0,0l0.3,1c-0.1,0-0.2,0-0.2,0c0,0.1-0.1,0.3-0.2,0.3
				c-0.1,0-0.2-0.2-0.2-0.3C725.2,189.5,725.1,189.5,725,189.5z"/>
			<path class="st23" d="M724.9,189.7c0,0,0.2-0.1,0.3,0.1c0.1,0.1,0.2,0.2,0.2,0.2l0,1c0,0-0.3,0.2-0.5,0.2c-0.2,0-0.3-0.2-0.3-0.3
				C724.5,190.9,724.9,189.7,724.9,189.7z"/>
		</g>
		<g>
			<path class="st23" d="M724.7,189.7c0,0-0.1-0.1-0.3-0.1c-0.2,0.1-0.3,0.1-0.3,0.1l-0.6,0.9c0,0,0.1,0.3,0.3,0.4
				c0.2,0.1,0.4,0,0.5-0.1C724.4,190.9,724.7,189.7,724.7,189.7z"/>
			<path class="st23" d="M724,189.1l0.8-0.8l0,0l0,0l0.1,0.1l0.1,0l0,0l0,0l-0.3,1c-0.1,0-0.1-0.1-0.2-0.1c-0.1,0.1-0.3,0.2-0.3,0.1
				c-0.1,0-0.1-0.2-0.1-0.3C724.2,189.1,724.1,189.1,724,189.1z"/>
			<path class="st23" d="M723.8,189.2c0,0,0.2,0,0.2,0.2c0,0.2,0,0.3,0,0.3l-0.6,0.9c0,0-0.4,0.1-0.5,0c-0.2-0.1-0.2-0.3-0.1-0.4
				C722.8,190.1,723.8,189.2,723.8,189.2z"/>
		</g>
		<g>
			<path class="st23" d="M723.6,189.1c0,0,0-0.2-0.2-0.2c-0.2,0-0.3,0-0.3,0l-1,0.5c0,0-0.1,0.3,0,0.5c0.1,0.1,0.4,0.1,0.5,0.1
				C722.7,190,723.6,189.1,723.6,189.1z"/>
			<path class="st23" d="M723.4,188.3l1.2-0.3l0,0l0,0l0,0.1l0.1,0.1l0,0l0,0l-0.9,0.7c0-0.1-0.1-0.1-0.1-0.1c-0.1,0-0.3,0-0.4,0
				c-0.1-0.1,0.1-0.2,0.1-0.3C723.5,188.4,723.5,188.3,723.4,188.3z"/>
			<path class="st23" d="M723.1,188.3c0,0,0.2,0.1,0.1,0.2c-0.1,0.1-0.1,0.3-0.1,0.3l-1,0.5c0,0-0.4-0.1-0.5-0.2
				c-0.1-0.1,0-0.4,0.1-0.4C721.8,188.6,723.1,188.3,723.1,188.3z"/>
		</g>
		<g>
			<path class="st23" d="M723.1,188.1c0,0,0.1-0.1-0.1-0.2c-0.1-0.1-0.2-0.2-0.2-0.2l-1.2,0c0,0-0.3,0.2-0.3,0.4
				c0,0.2,0.2,0.3,0.3,0.3C721.7,188.4,723.1,188.1,723.1,188.1z"/>
			<path class="st23" d="M723.3,187.3l1.2,0.3v0l0,0l0,0.1l0,0.1l0,0v0l-1.2,0.3c0-0.1,0-0.1,0-0.2c-0.1,0-0.3-0.1-0.3-0.2
				c0-0.1,0.2-0.2,0.3-0.2C723.4,187.4,723.4,187.4,723.3,187.3z"/>
			<path class="st23" d="M723.1,187.2c0,0,0.1,0.1-0.1,0.2c-0.1,0.1-0.2,0.2-0.2,0.2l-1.2,0c0,0-0.3-0.2-0.3-0.4
				c0-0.2,0.2-0.3,0.3-0.3C721.7,186.8,723.1,187.2,723.1,187.2z"/>
		</g>
		<g>
			<path class="st23" d="M723.1,187c0,0,0.2-0.1,0.1-0.2c-0.1-0.1-0.1-0.3-0.1-0.3l-1-0.5c0,0-0.4,0.1-0.5,0.2
				c-0.1,0.1,0,0.4,0.1,0.4C721.8,186.7,723.1,187,723.1,187z"/>
			<path class="st23" d="M723.8,186.4l0.9,0.7l0,0l0,0l-0.1,0.1l0,0.1l0,0l0,0l-1.2-0.3c0-0.1,0.1-0.1,0.1-0.1
				c-0.1-0.1-0.2-0.2-0.1-0.3c0.1-0.1,0.2-0.1,0.4,0C723.8,186.6,723.8,186.5,723.8,186.4z"/>
			<path class="st23" d="M723.7,186.2c0,0,0,0.2-0.2,0.2c-0.2,0-0.3,0-0.3,0l-1-0.5c0,0-0.1-0.3,0-0.5s0.4-0.1,0.5-0.1
				C722.7,185.3,723.7,186.2,723.7,186.2z"/>
		</g>
		<g>
			<path class="st23" d="M723.8,186.1c0,0,0.2,0,0.2-0.2c0-0.2,0-0.3,0-0.3l-0.6-0.9c0,0-0.4-0.1-0.5,0c-0.2,0.1-0.2,0.3-0.1,0.4
				C722.8,185.2,723.8,186.1,723.8,186.1z"/>
			<path class="st23" d="M724.8,185.9l0.3,1l0,0l0,0l-0.1,0l-0.1,0.1l0,0l0,0l-0.8-0.8c0.1,0,0.2,0,0.1-0.1c0-0.1,0-0.3,0.1-0.3
				c0.1,0,0.3,0,0.3,0.1C724.6,186,724.7,185.9,724.8,185.9z"/>
			<path class="st23" d="M724.7,185.6c0,0-0.1,0.1-0.3,0.1c-0.2-0.1-0.3-0.1-0.3-0.1l-0.6-0.9c0,0,0.1-0.3,0.3-0.4
				c0.2-0.1,0.4,0,0.5,0.1C724.4,184.4,724.7,185.6,724.7,185.6z"/>
		</g>
	</g>
</g>
<g>
	<g>
		<ellipse class="st23" cx="787.3" cy="187.7" rx="0.7" ry="0.6"/>
		<g>
			<path class="st23" d="M786.8,185.6c0,0,0.2,0.1,0.3-0.1c0.1-0.1,0.2-0.2,0.2-0.2l0-1c0,0-0.3-0.2-0.5-0.2c-0.2,0-0.3,0.2-0.3,0.3
				C786.4,184.4,786.8,185.6,786.8,185.6z"/>
			<path class="st23" d="M787.7,185.8l-0.3,1h0l0,0l-0.1,0l-0.1,0l0,0h0l-0.3-1c0.1,0,0.2,0,0.2,0c0-0.1,0.1-0.3,0.2-0.3
				c0.1,0,0.2,0.2,0.2,0.3C787.5,185.9,787.6,185.8,787.7,185.8z"/>
			<path class="st23" d="M787.8,185.6c0,0-0.2,0.1-0.3-0.1c-0.1-0.1-0.2-0.2-0.2-0.2l0-1c0,0,0.3-0.2,0.5-0.2c0.2,0,0.3,0.2,0.3,0.3
				C788.2,184.4,787.8,185.6,787.8,185.6z"/>
		</g>
		<g>
			<path class="st23" d="M788,185.6c0,0,0.1,0.1,0.3,0.1c0.2-0.1,0.3-0.1,0.3-0.1l0.6-0.9c0,0-0.1-0.3-0.3-0.4
				c-0.2-0.1-0.4,0-0.5,0.1C788.3,184.5,788,185.6,788,185.6z"/>
			<path class="st23" d="M788.7,186.3l-0.8,0.8l0,0l0,0l-0.1-0.1l-0.1,0l0,0l0,0l0.3-1c0.1,0,0.1,0.1,0.2,0.1
				c0.1-0.1,0.3-0.2,0.3-0.1c0.1,0,0.1,0.2,0.1,0.3C788.5,186.2,788.6,186.2,788.7,186.3z"/>
			<path class="st23" d="M788.9,186.1c0,0-0.2,0-0.2-0.2c0-0.2,0-0.3,0-0.3l0.6-0.9c0,0,0.4-0.1,0.5,0c0.2,0.1,0.2,0.3,0.1,0.4
				C789.9,185.3,788.9,186.1,788.9,186.1z"/>
		</g>
		<g>
			<path class="st23" d="M789.1,186.2c0,0,0,0.2,0.2,0.2c0.2,0,0.3,0,0.3,0l1-0.5c0,0,0.1-0.3,0-0.5c-0.1-0.1-0.4-0.1-0.5-0.1
				C790,185.4,789.1,186.2,789.1,186.2z"/>
			<path class="st23" d="M789.3,187.1l-1.2,0.3l0,0l0,0l0-0.1l-0.1-0.1l0,0l0,0l0.9-0.7c0,0.1,0.1,0.1,0.1,0.1c0.1,0,0.3,0,0.4,0
				c0.1,0.1-0.1,0.2-0.1,0.3C789.2,187,789.2,187,789.3,187.1z"/>
			<path class="st23" d="M789.6,187c0,0-0.2-0.1-0.1-0.2c0.1-0.1,0.1-0.3,0.1-0.3l1-0.5c0,0,0.4,0.1,0.5,0.2c0.1,0.1,0,0.4-0.1,0.4
				C790.9,186.7,789.6,187,789.6,187z"/>
		</g>
		<g>
			<path class="st23" d="M789.6,187.2c0,0-0.1,0.1,0.1,0.2c0.1,0.1,0.2,0.2,0.2,0.2l1.2,0c0,0,0.3-0.2,0.3-0.4
				c0-0.2-0.2-0.3-0.3-0.3C790.9,186.9,789.6,187.2,789.6,187.2z"/>
			<path class="st23" d="M789.3,188l-1.2-0.3l0,0l0,0l0-0.1l0-0.1l0,0l0,0l1.2-0.3c0,0.1,0,0.1,0,0.2c0.1,0,0.3,0.1,0.3,0.2
				c0,0.1-0.2,0.2-0.3,0.2C789.3,187.9,789.3,188,789.3,188z"/>
			<path class="st23" d="M789.6,188.1c0,0-0.1-0.1,0.1-0.2c0.1-0.1,0.2-0.2,0.2-0.2l1.2,0c0,0,0.3,0.2,0.3,0.4
				c0,0.2-0.2,0.3-0.3,0.3C790.9,188.5,789.6,188.1,789.6,188.1z"/>
		</g>
		<g>
			<path class="st23" d="M789.6,188.3c0,0-0.1,0.1-0.1,0.2c0.1,0.1,0.1,0.3,0.1,0.3l1,0.5c0,0,0.4-0.1,0.5-0.2
				c0.1-0.1,0-0.4-0.1-0.4C790.9,188.6,789.6,188.3,789.6,188.3z"/>
			<path class="st23" d="M788.9,188.9l-0.9-0.7l0,0l0,0l0.1-0.1l0-0.1l0,0l0,0l1.2,0.3c0,0.1-0.1,0.1-0.1,0.1
				c0.1,0.1,0.2,0.2,0.1,0.3c-0.1,0.1-0.2,0.1-0.4,0C788.9,188.8,788.9,188.8,788.9,188.9z"/>
			<path class="st23" d="M789,189.1c0,0,0-0.2,0.2-0.2c0.2,0,0.3,0,0.3,0l1,0.5c0,0,0.1,0.3,0,0.5c-0.1,0.1-0.4,0.1-0.5,0.1
				C790,190,789,189.1,789,189.1z"/>
		</g>
		<g>
			<path class="st23" d="M788.9,189.2c0,0-0.2,0-0.2,0.2c0,0.2,0,0.3,0,0.3l0.6,0.9c0,0,0.4,0.1,0.5,0c0.2-0.1,0.2-0.3,0.1-0.4
				C789.9,190.1,788.9,189.2,788.9,189.2z"/>
			<path class="st23" d="M787.9,189.4l-0.3-1l0,0l0,0l0.1,0l0.1-0.1l0,0l0,0l0.8,0.8c-0.1,0-0.2,0-0.1,0.1c0,0.1,0,0.3-0.1,0.3
				c-0.1,0-0.3,0-0.3-0.1C788.1,189.3,788,189.4,787.9,189.4z"/>
			<path class="st23" d="M788,189.7c0,0,0.1-0.1,0.3-0.1c0.2,0.1,0.3,0.1,0.3,0.1l0.6,0.9c0,0-0.1,0.3-0.3,0.4
				c-0.2,0.1-0.4,0-0.5-0.1C788.3,190.9,788,189.7,788,189.7z"/>
		</g>
		<g>
			<path class="st23" d="M787.8,189.7c0,0-0.2-0.1-0.3,0.1c-0.1,0.1-0.2,0.2-0.2,0.2l0,1c0,0,0.3,0.2,0.5,0.2c0.2,0,0.3-0.2,0.3-0.3
				C788.2,190.9,787.8,189.7,787.8,189.7z"/>
			<path class="st23" d="M786.8,189.5l0.3-1l0,0l0,0l0.1,0l0.1,0l0,0l0,0l0.3,1c-0.1,0-0.2,0-0.2,0c0,0.1-0.1,0.3-0.2,0.3
				c-0.1,0-0.2-0.2-0.2-0.3C787,189.5,786.9,189.5,786.8,189.5z"/>
			<path class="st23" d="M786.7,189.7c0,0,0.2-0.1,0.3,0.1c0.1,0.1,0.2,0.2,0.2,0.2l0,1c0,0-0.3,0.2-0.5,0.2c-0.2,0-0.3-0.2-0.3-0.3
				C786.3,190.9,786.7,189.7,786.7,189.7z"/>
		</g>
		<g>
			<path class="st23" d="M786.5,189.7c0,0-0.1-0.1-0.3-0.1c-0.2,0.1-0.3,0.1-0.3,0.1l-0.6,0.9c0,0,0.1,0.3,0.3,0.4
				c0.2,0.1,0.4,0,0.5-0.1C786.2,190.9,786.5,189.7,786.5,189.7z"/>
			<path class="st23" d="M785.9,189.1l0.8-0.8l0,0l0,0l0.1,0.1l0.1,0l0,0l0,0l-0.3,1c-0.1,0-0.1-0.1-0.2-0.1
				c-0.1,0.1-0.3,0.2-0.3,0.1c-0.1,0-0.1-0.2-0.1-0.3C786,189.1,785.9,189.1,785.9,189.1z"/>
			<path class="st23" d="M785.6,189.2c0,0,0.2,0,0.2,0.2c0,0.2,0,0.3,0,0.3l-0.6,0.9c0,0-0.4,0.1-0.5,0c-0.2-0.1-0.2-0.3-0.1-0.4
				C784.6,190.1,785.6,189.2,785.6,189.2z"/>
		</g>
		<g>
			<path class="st23" d="M785.5,189.1c0,0,0-0.2-0.2-0.2c-0.2,0-0.3,0-0.3,0l-1,0.5c0,0-0.1,0.3,0,0.5c0.1,0.1,0.4,0.1,0.5,0.1
				C784.5,190,785.5,189.1,785.5,189.1z"/>
			<path class="st23" d="M785.3,188.3l1.2-0.3l0,0l0,0l0,0.1l0.1,0.1l0,0l0,0l-0.9,0.7c0-0.1-0.1-0.1-0.1-0.1c-0.1,0-0.3,0-0.4,0
				c-0.1-0.1,0.1-0.2,0.1-0.3C785.4,188.4,785.3,188.3,785.3,188.3z"/>
			<path class="st23" d="M785,188.3c0,0,0.2,0.1,0.1,0.2c-0.1,0.1-0.1,0.3-0.1,0.3l-1,0.5c0,0-0.4-0.1-0.5-0.2
				c-0.1-0.1,0-0.4,0.1-0.4C783.6,188.6,785,188.3,785,188.3z"/>
		</g>
		<g>
			<path class="st23" d="M784.9,188.1c0,0,0.1-0.1-0.1-0.2c-0.1-0.1-0.2-0.2-0.2-0.2l-1.2,0c0,0-0.3,0.2-0.3,0.4
				c0,0.2,0.2,0.3,0.3,0.3C783.6,188.4,784.9,188.1,784.9,188.1z"/>
			<path class="st23" d="M785.2,187.3l1.2,0.3v0l0,0l0,0.1l0,0.1l0,0v0l-1.2,0.3c0-0.1,0-0.1,0-0.2c-0.1,0-0.3-0.1-0.3-0.2
				c0-0.1,0.2-0.2,0.3-0.2C785.2,187.4,785.2,187.4,785.2,187.3z"/>
			<path class="st23" d="M784.9,187.2c0,0,0.1,0.1-0.1,0.2c-0.1,0.1-0.2,0.2-0.2,0.2l-1.2,0c0,0-0.3-0.2-0.3-0.4
				c0-0.2,0.2-0.3,0.3-0.3C783.6,186.8,784.9,187.2,784.9,187.2z"/>
		</g>
		<g>
			<path class="st23" d="M785,187c0,0,0.2-0.1,0.1-0.2c-0.1-0.1-0.1-0.3-0.1-0.3l-1-0.5c0,0-0.4,0.1-0.5,0.2c-0.1,0.1,0,0.4,0.1,0.4
				C783.6,186.7,785,187,785,187z"/>
			<path class="st23" d="M785.7,186.4l0.9,0.7l0,0l0,0l-0.1,0.1l0,0.1l0,0l0,0l-1.2-0.3c0-0.1,0.1-0.1,0.1-0.1
				c-0.1-0.1-0.2-0.2-0.1-0.3c0.1-0.1,0.2-0.1,0.4,0C785.6,186.6,785.6,186.5,785.7,186.4z"/>
			<path class="st23" d="M785.5,186.2c0,0,0,0.2-0.2,0.2c-0.2,0-0.3,0-0.3,0l-1-0.5c0,0-0.1-0.3,0-0.5c0.1-0.1,0.4-0.1,0.5-0.1
				C784.5,185.3,785.5,186.2,785.5,186.2z"/>
		</g>
		<g>
			<path class="st23" d="M785.6,186.1c0,0,0.2,0,0.2-0.2c0-0.2,0-0.3,0-0.3l-0.6-0.9c0,0-0.4-0.1-0.5,0c-0.2,0.1-0.2,0.3-0.1,0.4
				C784.6,185.2,785.6,186.1,785.6,186.1z"/>
			<path class="st23" d="M786.6,185.9l0.3,1l0,0l0,0l-0.1,0l-0.1,0.1l0,0l0,0l-0.8-0.8c0.1,0,0.2,0,0.1-0.1c0-0.1,0-0.3,0.1-0.3
				c0.1,0,0.3,0,0.3,0.1C786.5,186,786.5,185.9,786.6,185.9z"/>
			<path class="st23" d="M786.5,185.6c0,0-0.1,0.1-0.3,0.1c-0.2-0.1-0.3-0.1-0.3-0.1l-0.6-0.9c0,0,0.1-0.3,0.3-0.4
				c0.2-0.1,0.4,0,0.5,0.1C786.2,184.4,786.5,185.6,786.5,185.6z"/>
		</g>
	</g>
</g>
<path class="st23" d="M712.9,210.2c0.5,0,0.8,0.5,0.5,0.8c-0.2,0.4,0.6,0.1,0.5,1.6c-0.1,1.5,1.3,3.6-0.8,3.7
	c-2.1,0.1-1.2-2.6-1.2-3.5s-0.3-1.1,0.1-1.3c0.4-0.2,0.6-0.3,0.4-0.6C712.3,210.5,712.5,210.3,712.9,210.2z"/>
<path class="st23" d="M709.5,210.2c0.5,0,0.8,0.5,0.6,0.8c-0.2,0.4,0.5,0.1,0.5,1.6c-0.1,1.5,1.3,3.6-0.8,3.7
	c-2.1,0.1-1.2-2.6-1.2-3.5s-0.3-1.1,0.1-1.3c0.4-0.2,0.6-0.3,0.4-0.6C708.8,210.5,709,210.3,709.5,210.2z"/>
<path class="st23" d="M716.4,210.2c0.5,0,0.8,0.5,0.6,0.8c-0.2,0.4,0.5,0.1,0.5,1.6c-0.1,1.5,1.3,3.6-0.8,3.7
	c-2.1,0.1-1.2-2.6-1.2-3.5s-0.3-1.1,0.1-1.3c0.4-0.2,0.6-0.3,0.4-0.6C715.7,210.5,715.9,210.3,716.4,210.2z"/>
<path class="st23" d="M719.8,210.2c0.5,0,0.8,0.5,0.5,0.8c-0.2,0.4,0.6,0.1,0.5,1.6c-0.1,1.5,1.3,3.6-0.8,3.7
	c-2.1,0.1-1.2-2.6-1.2-3.5s-0.3-1.1,0.1-1.3c0.4-0.2,0.6-0.3,0.4-0.6C719.2,210.5,719.3,210.3,719.8,210.2z"/>
<path class="st23" d="M723.3,210.2c0.5,0,0.8,0.5,0.5,0.8c-0.2,0.4,0.6,0.1,0.5,1.6c-0.1,1.5,1.3,3.6-0.8,3.7
	c-2.1,0.1-1.2-2.6-1.2-3.5s-0.3-1.1,0.1-1.3c0.4-0.2,0.6-0.3,0.4-0.6C722.6,210.5,722.8,210.3,723.3,210.2z"/>
<path class="st23" d="M726.7,210.2c0.5,0,0.8,0.5,0.6,0.8c-0.2,0.4,0.5,0.1,0.5,1.6c-0.1,1.5,1.3,3.6-0.8,3.7
	c-2.1,0.1-1.2-2.6-1.2-3.5s-0.3-1.1,0.1-1.3c0.4-0.2,0.6-0.3,0.4-0.6C726,210.5,726.2,210.3,726.7,210.2z"/>
<path class="st23" d="M730.2,210.2c0.5,0,0.8,0.5,0.5,0.8c-0.2,0.4,0.6,0.1,0.5,1.6c-0.1,1.5,1.3,3.6-0.8,3.7
	c-2.1,0.1-1.2-2.6-1.2-3.5s-0.3-1.1,0.1-1.3c0.4-0.2,0.6-0.3,0.4-0.6C729.5,210.5,729.7,210.3,730.2,210.2z"/>
<path class="st23" d="M733.6,210.2c0.5,0,0.8,0.5,0.6,0.8c-0.2,0.4,0.5,0.1,0.5,1.6c-0.1,1.5,1.3,3.6-0.8,3.7
	c-2.1,0.1-1.2-2.6-1.2-3.5s-0.3-1.1,0.1-1.3c0.4-0.2,0.6-0.3,0.4-0.6C732.9,210.5,733.1,210.3,733.6,210.2z"/>
<path class="st23" d="M737,210.2c0.5,0,0.8,0.5,0.5,0.8c-0.2,0.4,0.6,0.1,0.5,1.6c-0.1,1.5,1.3,3.6-0.8,3.7
	c-2.1,0.1-1.2-2.6-1.2-3.5s-0.3-1.1,0.1-1.3c0.4-0.2,0.6-0.3,0.4-0.6C736.4,210.5,736.6,210.3,737,210.2z"/>
<path class="st23" d="M740.5,210.2c0.5,0,0.8,0.5,0.5,0.8c-0.2,0.4,0.6,0.1,0.5,1.6c-0.1,1.5,1.3,3.6-0.8,3.7
	c-2.1,0.1-1.2-2.6-1.2-3.5s-0.3-1.1,0.1-1.3c0.4-0.2,0.6-0.3,0.4-0.6C739.8,210.5,740,210.3,740.5,210.2z"/>
<path class="st23" d="M743.9,210.2c0.5,0,0.8,0.5,0.6,0.8c-0.2,0.4,0.5,0.1,0.5,1.6c-0.1,1.5,1.3,3.6-0.8,3.7
	c-2.1,0.1-1.2-2.6-1.2-3.5s-0.3-1.1,0.1-1.3c0.4-0.2,0.6-0.3,0.4-0.6C743.3,210.5,743.4,210.3,743.9,210.2z"/>
<path class="st23" d="M747.4,210.2c0.5,0,0.8,0.5,0.5,0.8c-0.2,0.4,0.6,0.1,0.5,1.6c-0.1,1.5,1.3,3.6-0.8,3.7
	c-2.1,0.1-1.2-2.6-1.2-3.5s-0.3-1.1,0.1-1.3c0.4-0.2,0.6-0.3,0.4-0.6C746.7,210.5,746.9,210.3,747.4,210.2z"/>
<path class="st23" d="M750.8,210.2c0.5,0,0.8,0.5,0.5,0.8c-0.2,0.4,0.5,0.1,0.5,1.6c-0.1,1.5,1.3,3.6-0.8,3.7
	c-2.1,0.1-1.2-2.6-1.2-3.5s-0.3-1.1,0.1-1.3c0.4-0.2,0.6-0.3,0.4-0.6C750.1,210.5,750.3,210.3,750.8,210.2z"/>
<path class="st23" d="M754.3,210.2c0.5,0,0.8,0.5,0.6,0.8c-0.2,0.4,0.5,0.1,0.5,1.6c-0.1,1.5,1.3,3.6-0.8,3.7
	c-2.1,0.1-1.2-2.6-1.2-3.5s-0.3-1.1,0.1-1.3c0.4-0.2,0.6-0.3,0.4-0.6C753.6,210.5,753.8,210.3,754.3,210.2z"/>
<path class="st23" d="M757.7,210.2c0.5,0,0.8,0.5,0.5,0.8c-0.2,0.4,0.6,0.1,0.5,1.6c-0.1,1.5,1.3,3.6-0.8,3.7
	c-2.1,0.1-1.2-2.6-1.2-3.5s-0.3-1.1,0.1-1.3c0.4-0.2,0.6-0.3,0.4-0.6C757,210.5,757.2,210.3,757.7,210.2z"/>
<path class="st23" d="M761.1,210.2c0.5,0,0.8,0.5,0.6,0.8c-0.2,0.4,0.5,0.1,0.5,1.6c-0.1,1.5,1.3,3.6-0.8,3.7
	c-2.1,0.1-1.2-2.6-1.2-3.5s-0.3-1.1,0.1-1.3c0.4-0.2,0.6-0.3,0.4-0.6C760.5,210.5,760.7,210.3,761.1,210.2z"/>
<path class="st23" d="M764.6,210.2c0.5,0,0.8,0.5,0.5,0.8c-0.2,0.4,0.6,0.1,0.5,1.6c-0.1,1.5,1.3,3.6-0.8,3.7
	c-2.1,0.1-1.2-2.6-1.2-3.5s-0.3-1.1,0.1-1.3c0.4-0.2,0.6-0.3,0.4-0.6C763.9,210.5,764.1,210.3,764.6,210.2z"/>
<path class="st23" d="M768,210.2c0.5,0,0.8,0.5,0.6,0.8c-0.2,0.4,0.5,0.1,0.5,1.6c-0.1,1.5,1.3,3.6-0.8,3.7
	c-2.1,0.1-1.2-2.6-1.2-3.5s-0.3-1.1,0.1-1.3c0.4-0.2,0.6-0.3,0.4-0.6C767.4,210.5,767.5,210.3,768,210.2z"/>
<path class="st23" d="M771.5,210.2c0.5,0,0.8,0.5,0.5,0.8c-0.2,0.4,0.6,0.1,0.5,1.6c-0.1,1.5,1.3,3.6-0.8,3.7
	c-2.1,0.1-1.2-2.6-1.2-3.5s-0.3-1.1,0.1-1.3c0.4-0.2,0.6-0.3,0.4-0.6C770.8,210.5,771,210.3,771.5,210.2z"/>
<path class="st23" d="M774.9,210.2c0.5,0,0.8,0.5,0.5,0.8c-0.2,0.4,0.6,0.1,0.5,1.6c-0.1,1.5,1.3,3.6-0.8,3.7
	c-2.1,0.1-1.2-2.6-1.2-3.5s-0.3-1.1,0.1-1.3c0.4-0.2,0.6-0.3,0.4-0.6C774.3,210.5,774.4,210.3,774.9,210.2z"/>
<path class="st23" d="M778.4,210.2c0.5,0,0.8,0.5,0.5,0.8c-0.2,0.4,0.6,0.1,0.5,1.6c-0.1,1.5,1.3,3.6-0.8,3.7
	c-2.1,0.1-1.2-2.6-1.2-3.5s-0.3-1.1,0.1-1.3c0.4-0.2,0.6-0.3,0.4-0.6C777.7,210.5,777.9,210.3,778.4,210.2z"/>
<path class="st23" d="M781.8,210.2c0.5,0,0.8,0.5,0.5,0.8c-0.2,0.4,0.6,0.1,0.5,1.6c-0.1,1.5,1.3,3.6-0.8,3.7
	c-2.1,0.1-1.2-2.6-1.2-3.5s-0.3-1.1,0.1-1.3c0.4-0.2,0.6-0.3,0.4-0.6C781.1,210.5,781.3,210.3,781.8,210.2z"/>
<path class="st23" d="M785.2,210.2c0.5,0,0.8,0.5,0.6,0.8c-0.2,0.4,0.6,0.1,0.5,1.6c-0.1,1.5,1.3,3.6-0.8,3.7
	c-2.1,0.1-1.2-2.6-1.2-3.5s-0.3-1.1,0.1-1.3c0.4-0.2,0.6-0.3,0.4-0.6C784.6,210.5,784.8,210.3,785.2,210.2z"/>
<path class="st23" d="M788.7,210.2c0.5,0,0.8,0.5,0.6,0.8c-0.2,0.4,0.5,0.1,0.5,1.6c-0.1,1.5,1.3,3.6-0.8,3.7
	c-2.1,0.1-1.2-2.6-1.2-3.5s-0.3-1.1,0.1-1.3c0.4-0.2,0.6-0.3,0.4-0.6C788,210.5,788.2,210.3,788.7,210.2z"/>
<path class="st23" d="M792.1,210.2c0.5,0,0.8,0.5,0.5,0.8c-0.2,0.4,0.6,0.1,0.5,1.6c-0.1,1.5,1.3,3.6-0.8,3.7
	c-2.1,0.1-1.2-2.6-1.2-3.5s-0.3-1.1,0.1-1.3c0.4-0.2,0.6-0.3,0.4-0.6C791.5,210.5,791.6,210.3,792.1,210.2z"/>
<path class="st23" d="M795.6,210.2c0.5,0,0.8,0.5,0.5,0.8c-0.2,0.4,0.6,0.1,0.5,1.6c-0.1,1.5,1.3,3.6-0.8,3.7
	c-2.1,0.1-1.2-2.6-1.2-3.5s-0.3-1.1,0.1-1.3c0.4-0.2,0.6-0.3,0.4-0.6C794.9,210.5,795.1,210.3,795.6,210.2z"/>
<path class="st23" d="M799,210.2c0.5,0,0.8,0.5,0.6,0.8c-0.2,0.4,0.5,0.1,0.5,1.6c-0.1,1.5,1.3,3.6-0.8,3.7
	c-2.1,0.1-1.2-2.6-1.2-3.5s-0.3-1.1,0.1-1.3c0.4-0.2,0.6-0.3,0.4-0.6C798.4,210.5,798.5,210.3,799,210.2z"/>
<path class="st23" d="M802.5,210.2c0.5,0,0.8,0.5,0.5,0.8c-0.2,0.4,0.6,0.1,0.5,1.6c-0.1,1.5,1.3,3.6-0.8,3.7
	c-2.1,0.1-1.2-2.6-1.2-3.5s-0.3-1.1,0.1-1.3c0.4-0.2,0.6-0.3,0.4-0.6C801.8,210.5,802,210.3,802.5,210.2z"/>
<path class="st23" d="M709.5,231.2c0.5,0,0.8,0.5,0.6,0.8c-0.2,0.4,0.5,0.1,0.5,1.6c-0.1,1.5,1.3,3.6-0.8,3.7
	c-2.1,0.1-1.2-2.6-1.2-3.5c0-0.9-0.3-1.1,0.1-1.3c0.4-0.2,0.6-0.3,0.4-0.6C708.8,231.5,709,231.3,709.5,231.2z"/>
<g>
	<g>
		<path class="st23" d="M739,231.2c0.5,0,0.8,0.5,0.5,0.8c-0.2,0.4,0.6,0.1,0.5,1.6c-0.1,1.5,1.3,3.6-0.8,3.7
			c-2.1,0.1-1.2-2.6-1.2-3.5c0-0.9-0.3-1.1,0.1-1.3c0.4-0.2,0.6-0.3,0.4-0.6C738.4,231.5,738.5,231.3,739,231.2z"/>
		<path class="st23" d="M773.5,231.2c0.5,0,0.8,0.5,0.6,0.8c-0.2,0.4,0.5,0.1,0.5,1.6c-0.1,1.5,1.3,3.6-0.8,3.7
			c-2.1,0.1-1.2-2.6-1.2-3.5c0-0.9-0.3-1.1,0.1-1.3c0.4-0.2,0.6-0.3,0.4-0.6C772.8,231.5,773,231.3,773.5,231.2z"/>
	</g>
</g>
<path class="st23" d="M802.5,231.2c0.5,0,0.8,0.5,0.5,0.8c-0.2,0.4,0.6,0.1,0.5,1.6c-0.1,1.5,1.3,3.6-0.8,3.7
	c-2.1,0.1-1.2-2.6-1.2-3.5c0-0.9-0.3-1.1,0.1-1.3c0.4-0.2,0.6-0.3,0.4-0.6C801.8,231.5,802,231.3,802.5,231.2z"/>
<path class="st23" d="M736.2,251.9v-15.2c0-4.6-3.4-11-10.6-14.8c-7.7,4-12.1,10.3-12.1,14.8v15.2H736.2z"/>
<path class="st24" d="M724.8,251.9v-11c0-1-0.9-1.8-2-1.8h0c-1.1,0-2,0.8-2,1.8v11H724.8z"/>
<path class="st24" d="M731.3,251.9v-11c0-1-0.9-1.8-2-1.8l0,0c-1.1,0-2,0.8-2,1.8v11H731.3z"/>
<path class="st23" d="M776.2,251.9v-15.2c0-4.6,3.4-11,10.6-14.8c7.7,4,12.1,10.3,12.1,14.8v15.2H776.2z"/>
<path class="st24" d="M787.6,251.9v-11c0-1,0.9-1.8,2-1.8l0,0c1.1,0,2,0.8,2,1.8v11H787.6z"/>
<path class="st24" d="M781.1,251.9v-11c0-1,0.9-1.8,2-1.8l0,0c1.1,0,2,0.8,2,1.8v11H781.1z"/>
<g>
	<path class="st25" d="M758.6,251.9v-12c0-1.1,1.1-2,2.4-2l0,0c1.3,0,2.4,0.9,2.4,2v12H758.6z"/>
	<path class="st25" d="M750.9,251.9v-12c0-1.1,1.1-2,2.4-2l0,0c1.3,0,2.4,0.9,2.4,2v12H750.9z"/>
</g>
<rect x="796.5" y="111.8" class="st24" width="5" height="5.8"/>
<polygon class="st24" points="799,106.3 796.5,111.8 801.5,111.8 "/>
<path class="st23" d="M743.8,251.9v-16.6c0-5.1,4-12,12.5-16.1c9.1,4.4,14.3,11.3,14.3,16.1v16.6H743.8z"/>
<path class="st21" d="M700.6,245.5l-4.9-8.2c0,0,0,0,0-0.1l-4.4-7.4c0,0,0,0,0-0.1l-5.8-9.7c0,0,0,0,0-0.1c0-0.2-0.1-0.4-0.3-0.4
	l-1-1.7c0,0,0,0,0-0.1l-3.2-5.4v-5.3v0v0v-5.4v0c0-0.3-0.2-0.5-0.5-0.5h0h-2.6c-4.9-9.6-8.6-18.6-11.7-32.6l2.2-7.5l0,0l0,0l0,0l0,0
	v0l0,0l0,0l0,0v0l0,0v0v0l0,0l0,0l0,0l0,0v0v0l0,0v0v0l0,0v0l0,0v0v0v0l0,0l0,0v0v0v0l0,0v0v0v0l0,0v0v0v0v0v0v0v0v0v-1v0
	c0-0.3-0.2-0.5-0.5-0.5h0h-3.5c-0.3-1.9-0.7-4-1-6.1l0,0c0,0,0,0,0-0.1l0,0c-0.4-2.7-0.8-5.5-1.1-8.5v0l0,0v0l0,0l0,0v0l0,0
	c-0.3-2.5-0.6-5.1-0.9-7.8v0v0l0,0l0,0c-0.3-2.3-0.5-4.7-0.7-7.3l0-0.1l0,0c-0.2-1.7-0.3-3.5-0.5-5.3c0.1-0.1,0.1-0.2,0.1-0.3
	c0-0.2-0.1-0.3-0.2-0.4c-0.1-1.6-0.3-3.3-0.4-5v0v0l0,0v0l0,0c-0.2-2-0.3-4-0.5-6.1c0,0,0,0,0-0.1c-0.1-1.9-0.3-3.9-0.4-5.9v0l0,0
	l0,0l0,0v0c-0.1-1.3-0.2-2.7-0.3-4.1c0-0.1,0-0.1,0-0.2l0,0c0,0,0,0,0-0.1l0,0c-0.1-1.4-0.2-2.8-0.3-4.2v0c0,0,0,0,0-0.1
	c-0.1-1.4-0.2-2.9-0.3-4.4v0c0,0,0,0,0-0.1l0,0c-0.1-1.8-0.2-3.7-0.3-5.6v0c0,0,0,0,0-0.1l0,0v0c-0.1-1.8-0.2-3.6-0.3-5.4v0v0
	c0,0,0,0,0-0.1c-0.1-1.6-0.2-3.2-0.3-4.8c0-0.1,0-0.1,0-0.2c-0.1-1.6-0.2-3.2-0.3-4.8v0v0c0,0,0,0,0-0.1c-0.1-1.7-0.2-3.3-0.3-5v0
	c0,0,0,0,0-0.1c-0.1-1.6-0.2-3.2-0.2-4.9v0v0v0v0l0,0l-0.2-3.5v0c0,0,0,0,0-0.1v0v0c-0.1-1.7-0.2-3.3-0.2-5l0.1-0.7
	c1.5-1,2.5-2.5,2.5-4.6v-1.6v0v0v-0.4c0-0.6-0.6-1.1-1.7-1.4v-3.1h1.5c0.3,0,0.5-0.2,0.5-0.5v0v-2.2v0c0-0.3-0.2-0.5-0.5-0.5
	c-1.3,0-2.8-0.7-3.8-2.8c-0.9-1.7-1.5-4.2-1.5-7.8v0c0-0.5-0.1-1-0.3-1.4c-0.2-0.5-0.6-0.8-1-0.8c-0.4,0-0.8,0.3-1,0.8
	c-0.2,0.4-0.3,0.8-0.3,1.4v0c0,3.6-0.6,6.1-1.5,7.8c-1.1,2-2.5,2.8-3.8,2.8c-0.3,0-0.5,0.2-0.5,0.5v0v2.2c0,0.3,0.2,0.5,0.5,0.5h0
	h1.5v3.1c-1,0.3-1.7,0.8-1.7,1.4v0.4v0v0v1.6c0,2.1,1,3.7,2.5,4.6l0.1,0.7c-0.1,2.9-0.3,5.8-0.4,8.6c0,0,0,0.1,0,0.1l0,0
	c-0.3,5.2-0.5,10.2-0.8,14.9c0,0,0,0,0,0.1v0c-1,18.4-2.1,33.6-3.2,46.4c0,0.1,0,0.1,0,0.2c0,0,0,0.1,0,0.1
	c-1.3,14.6-2.7,26-4.3,35.4h-3.5h0c-0.3,0-0.5,0.2-0.5,0.5v0v1v0v0v0v0v0v0l0,0v0v0v0v0v0l0,0v0v0v0l0,0v0v0l0,0v0l0,0v0l0,0l0,0v0
	v0l0,0v0l0,0l0,0l0,0l0,0v0l0,0l0,0l0,0v0l0,0l0,0v0l0,0l0,0l0,0l0,0l2.2,7.5c-0.3,1.4-0.6,2.7-0.9,4c0,0,0,0,0,0.1
	c-2.5,10-5.3,17.4-8.9,24.8l0,0l0,0c-0.6,1.2-1.2,2.4-1.8,3.7h-2.5h0c-0.3,0-0.5,0.2-0.5,0.5v0v0v5.4v0v0v0v0v0v5.3l-3.2,5.4
	c0,0,0,0,0,0.1l-1.1,1.8c0,0,0,0,0,0.1l-6,9.9c0,0,0,0.1,0,0.1l-4.4,7.4c0,0,0,0,0,0.1l-4.9,8.2c-0.1,0.1-0.1,0.2-0.1,0.3v0v9.6
	h49.2h49.1v-7c0.1-1.3,0.1-2.5,0.1-2.6C700.7,245.7,700.6,245.6,700.6,245.5z M643.1,197.9C643.1,197.9,643.1,197.9,643.1,197.9
	L643.1,197.9c0.6-2.8,1.2-5.6,1.7-8.5v0l0,0l0,0l0,0c0.5-2.8,0.9-5.6,1.4-8.8l0,0l0,0c0.1-0.6,0.2-1.3,0.2-1.9h5h5
	c0.1,0.7,0.2,1.3,0.2,1.9c0,0,0,0.1,0,0.1c0.4,3.1,0.9,6,1.4,8.8v0c0,0,0,0,0,0.1c0.5,2.9,1.1,5.7,1.7,8.4c0,0,0,0.1,0,0.1
	c0.3,1.1,0.5,2.2,0.8,3.3h-3.4h0h0h-3.8h0h0h-1.9h-1.9h0h0h-3.8h0h0h-3.4C642.6,200.1,642.9,199,643.1,197.9z M651.5,245.3h-26.8
	c0.2-0.8,0.4-1.5,0.6-2.2l0,0l0,0c1.8-5.5,5.4-9.6,9.8-12.5l0,0l0,0c0.6-0.4,1.3-0.8,2-1.2c0.3-0.2,0.6-0.3,0.9-0.5l0,0l0,0l0,0
	c4.1-2,8.7-2.9,13.3-2.9h0.1c4.6,0,9.2,1,13.3,2.9l0,0l0,0l0,0c0.3,0.1,0.6,0.3,0.9,0.5c0.7,0.4,1.3,0.7,2,1.2l0,0l0,0
	c4.4,2.8,7.9,7,9.8,12.5l0,0l0,0c0.2,0.7,0.5,1.5,0.6,2.2H651.5z"/>
<path class="st24" d="M427.6,214.8l1.5-1.2l-1.9-2.4l-1.9-21.6l2.5-0.6l0.6-4.8l-13.9-31.7l-33.2,8.4l-44,11.1l-0.2,2l-2.9,0.7
	l2.7,2.1l-0.5,5.9l-6.1,1.3l1.8,3.9l3.8,1l-0.3,3.8l-1.6,0.4l1.5,1l-1.5,18.2l-1.9,0.2l1.7,2.3l-3.6,43h51.2h50.2L427.6,214.8z
	 M381.3,250.9l-4.9,0.1v-30.3l1.5-1.1l0.3-0.9l-1.7-0.8c0.5-4.4,2.6-7.6,4.8-9.6c0.9-0.8,1.7-1.4,2.6-1.8l0,0.9l1.6,1.5l0.7,41.9
	L381.3,250.9z"/>
<g>
	<polygon class="st21" points="497.3,108.9 498.6,108.9 498.6,104.9 500.6,104.9 500.6,103.7 498.6,103.7 498.6,101.4 497.3,101.4 
		497.3,103.7 495.3,103.7 495.3,104.9 497.3,104.9 	"/>
	<path class="st21" d="M537.6,177.7h3.2c0-0.1,0-0.2,0-0.3c0-2.8-1.4-5.1-3.2-5.1h0c-1.8,0-3.2,2.3-3.2,5.1c0,0.1,0,0.2,0,0.3H537.6
		z"/>
	<path class="st21" d="M503.9,121.3c0-0.2,0-0.4,0-0.6c0-5.2-2.7-9.5-5.9-9.5c-3.3,0-5.9,4.2-5.9,9.5c0,0.2,0,0.4,0,0.6H503.9z"/>
	<polygon class="st21" points="537.3,171 537.6,171 538,171 538,168.9 539.1,168.9 539.1,168.2 538,168.2 538,167 537.6,167 
		537.3,167 537.3,168.2 536.2,168.2 536.2,168.9 537.3,168.9 	"/>
	<path class="st21" d="M553.7,229.9v-15h-2.1c-0.2-10.2-4.7-18.6-10.7-20.8v-15.1h-3.2h-3.1v15.1c-5.5,2-9.7,9.2-10.6,18.2v-17.9
		h2.6v-4.2h-2.6h-0.3c-0.4-18.8-8.8-34.4-19.9-38.5v-27.9h-11.6v27.9c-11.1,4.1-19.4,19.7-19.9,38.5H472h-2.6v4.2h2.6v17.9
		c-0.9-9-5.1-16.2-10.6-18.2v-15.1h-3.1h-3.2v15.1c-6,2.2-10.5,10.6-10.7,20.8h-2.1v15h-15V259h31h79.4h31v-29.1H553.7z"/>
	<polygon class="st21" points="457.9,171 458.2,171 458.6,171 458.6,168.9 459.6,168.9 459.6,168.2 458.6,168.2 458.6,167 
		458.2,167 457.9,167 457.9,168.2 456.8,168.2 456.8,168.9 457.9,168.9 	"/>
	<path class="st21" d="M458.2,177.7h3.2c0-0.1,0-0.2,0-0.3c0-2.8-1.4-5.1-3.2-5.1c-1.8,0-3.2,2.3-3.2,5.1c0,0.1,0,0.2,0,0.3H458.2z"
		/>
</g>
<polygon class="st24" points="567.5,179.3 573.1,176.9 582.7,172.8 582.7,172.8 582.7,172.8 597.1,176.9 605.6,179.3 605.6,257.4 
	582.7,257.4 582.7,257.4 582.7,257.4 567.5,257.4 "/>
<polygon class="st24" points="825.9,179.3 831.6,176.9 841.2,172.8 841.2,172.8 841.2,172.8 855.5,176.9 870,179.3 870,257.4 
	841.2,257.4 841.2,257.4 841.2,257.4 825.9,257.4 "/>
<polygon class="st24" points="809.1,203.2 813.1,201.6 819.7,198.7 819.7,198.7 819.7,198.7 829.7,201.6 835.6,203.2 835.6,257.4 
	819.7,257.4 819.7,257.4 819.7,257.4 809.1,257.4 "/>
<rect x="-27" y="243.2" class="st24" width="918" height="37.8"/>
<rect class="st30" width="864" height="259"/>
</svg>
