<?xml version="1.0" encoding="utf-8"?>
<!-- Generator: Adobe Illustrator 21.0.2, SVG Export Plug-In . SVG Version: 6.00 Build 0)  -->
<svg version="1.1" id="Layer_1" xmlns="http://www.w3.org/2000/svg" xmlns:xlink="http://www.w3.org/1999/xlink" x="0px" y="0px"
	 viewBox="0 0 864 259" style="enable-background:new 0 0 864 259;" xml:space="preserve">
<style type="text/css">
	.st0{fill:#754C24;}
	.st1{fill:#603813;}
	.st2{fill:#42210B;}
	.st3{fill:#FFFFFF;}
	.st4{fill-rule:evenodd;clip-rule:evenodd;fill:#DC8E6A;}
	.st5{fill-rule:evenodd;clip-rule:evenodd;fill:none;stroke:#DD3A3A;stroke-width:3;stroke-miterlimit:10;}
	.st6{fill:#930F1F;}
	.st7{fill:#CC2431;}
	.st8{fill-rule:evenodd;clip-rule:evenodd;fill:#CC2431;}
	.st9{fill-rule:evenodd;clip-rule:evenodd;fill:none;stroke:#930F1F;stroke-width:3;stroke-miterlimit:10;}
	.st10{fill-rule:evenodd;clip-rule:evenodd;fill:none;stroke:#CC2431;stroke-width:4;stroke-miterlimit:10;}
	.st11{fill-rule:evenodd;clip-rule:evenodd;fill:#930F1F;}
	.st12{fill:#FDBB41;}
	.st13{fill:#4B5C87;}
	.st14{fill-rule:evenodd;clip-rule:evenodd;fill:#FDBB41;}
	.st15{fill-rule:evenodd;clip-rule:evenodd;fill:#4B5C87;}
	.st16{fill:#8D745B;}
	.st17{fill:#F2DAB2;}
	.st18{fill-rule:evenodd;clip-rule:evenodd;fill:#F2DAB2;}
	.st19{fill-rule:evenodd;clip-rule:evenodd;fill:#8D745B;}
	.st20{fill-rule:evenodd;clip-rule:evenodd;fill:#FFE6C2;}
	.st21{fill:#5B1B0F;}
	.st22{fill:#ECC96F;}
	.st23{fill-rule:evenodd;clip-rule:evenodd;fill:#ECC96F;}
	.st24{fill-rule:evenodd;clip-rule:evenodd;fill:#5B1B0F;}
	.st25{fill-rule:evenodd;clip-rule:evenodd;fill:#3F0800;}
	.st26{fill:#3F0800;}
	.st27{fill:#C69C6D;}
	.st28{fill-rule:evenodd;clip-rule:evenodd;fill:none;stroke:#4B5C87;stroke-width:4;stroke-miterlimit:10;}
	.st29{fill-rule:evenodd;clip-rule:evenodd;fill:none;stroke:#8D745B;stroke-width:4;stroke-miterlimit:10;}
	.st30{fill-rule:evenodd;clip-rule:evenodd;fill:none;stroke:#5B1B0F;stroke-width:4;stroke-miterlimit:10;}
	.st31{fill:#DC8E6A;}
	.st32{fill:none;}
	.st33{fill:#8C6239;}
	.st34{fill:#C7B299;}
</style>
<g>
	<path class="st12" d="M55.1,155.3c0,0.5-0.2,0.9-0.5,1.2c-0.3,0.3-0.7,0.5-1.2,0.5h-6.6c-0.5,0-0.9-0.2-1.2-0.5
		c-0.3-0.3-0.5-0.7-0.5-1.2v-22.5h2.2v22.3h5.7v-22.3h2.2V155.3z"/>
	<path class="st12" d="M68.9,157h-1.5L61,139.2V157h-2v-24.3h1.6l6.4,17.5v-17.5h2V157z"/>
	<path class="st12" d="M75.1,157h-2.2v-24.3h2.2V157z"/>
	<path class="st12" d="M87.5,134.6h-3.8V157h-2.2v-22.3h-3.8v-1.9h9.7V134.6z"/>
	<path class="st12" d="M98,157h-8v-24.3h7.9v1.9h-5.7v9.1h5.2v1.9h-5.2v9.5H98V157z"/>
	<path class="st12" d="M111.3,152.6c0,1.3-0.4,2.3-1.3,3.2c-0.8,0.8-1.9,1.2-3.2,1.2h-5.5v-24.3h5.5c1.3,0,2.4,0.4,3.2,1.2
		c0.8,0.8,1.3,1.9,1.3,3.2V152.6z M109.2,152.4v-15.1c0-0.8-0.3-1.4-0.8-1.9c-0.5-0.5-1.1-0.7-1.9-0.7h-3v20.4h2.9
		c0.8,0,1.5-0.2,2-0.7C108.9,153.9,109.2,153.2,109.2,152.4z"/>
	<path class="st12" d="M130.8,155.3c0,0.5-0.2,0.9-0.5,1.2c-0.3,0.3-0.7,0.5-1.2,0.5H123c-0.5,0-0.9-0.2-1.2-0.5
		c-0.3-0.3-0.5-0.7-0.5-1.2v-6.2h2.2v6h5.2v-5.8l-6.7-8.1c-0.5-0.6-0.7-1.2-0.7-1.8v-4.9c0-0.5,0.2-0.9,0.5-1.2
		c0.3-0.3,0.7-0.5,1.2-0.5h6.1c0.5,0,0.9,0.2,1.2,0.5c0.3,0.3,0.5,0.7,0.5,1.2v5.6h-2.2v-5.5h-5.2v5.1l6.7,8.1
		c0.4,0.5,0.7,1.1,0.7,1.8V155.3z"/>
	<path class="st12" d="M142.9,134.6h-3.8V157H137v-22.3h-3.8v-1.9h9.7V134.6z"/>
	<path class="st12" d="M155.3,157h-2.1l-0.9-5.4h-4.8l-0.9,5.4h-2.1v-0.1l4.3-24.3h2.1L155.3,157z M152,149.7l-2.1-13.1l-2.1,13.1
		H152z"/>
	<path class="st12" d="M166.5,134.6h-3.8V157h-2.2v-22.3h-3.8v-1.9h9.7V134.6z"/>
	<path class="st12" d="M177,157h-8v-24.3h7.9v1.9h-5.7v9.1h5.2v1.9h-5.2v9.5h5.8V157z"/>
	<path class="st12" d="M189.8,155.3c0,0.5-0.2,0.9-0.5,1.2c-0.3,0.3-0.7,0.5-1.2,0.5H182c-0.5,0-0.9-0.2-1.2-0.5
		c-0.3-0.3-0.5-0.7-0.5-1.2v-6.2h2.2v6h5.2v-5.8l-6.7-8.1c-0.5-0.6-0.7-1.2-0.7-1.8v-4.9c0-0.5,0.2-0.9,0.5-1.2
		c0.3-0.3,0.7-0.5,1.2-0.5h6.1c0.5,0,0.9,0.2,1.2,0.5c0.3,0.3,0.5,0.7,0.5,1.2v5.6h-2.2v-5.5h-5.2v5.1l6.7,8.1
		c0.4,0.5,0.7,1.1,0.7,1.8V155.3z"/>
	<path class="st12" d="M210.1,155.3c0,0.5-0.2,0.9-0.5,1.2c-0.3,0.3-0.7,0.5-1.2,0.5h-6.8c-0.5,0-0.9-0.2-1.2-0.5
		c-0.3-0.3-0.5-0.7-0.5-1.2v-20.8c0-0.5,0.2-0.9,0.5-1.2c0.3-0.3,0.7-0.5,1.2-0.5h6.8c0.5,0,0.9,0.2,1.2,0.5
		c0.3,0.3,0.5,0.7,0.5,1.2V155.3z M207.9,155.1v-20.4H202v20.4H207.9z"/>
	<path class="st12" d="M221.8,134.6h-5.7v9.2h5.2v1.9h-5.2V157H214v-24.3h7.8V134.6z"/>
	<path class="st12" d="M240.8,157h-2.1l-0.9-5.4h-4.8l-0.9,5.4H230v-0.1l4.3-24.3h2.1L240.8,157z M237.5,149.7l-2.1-13.1l-2.1,13.1
		H237.5z"/>
	<path class="st12" d="M255.7,157h-2v-15.4c0-0.2,0.1-0.9,0.2-1.9l-4,15h-0.4l-4-15c0.1,1.1,0.2,1.7,0.2,1.9V157h-2v-24.3h2
		l3.9,15.8c0,0.1,0,0.3,0.1,0.7c0-0.2,0-0.4,0.1-0.7l3.9-15.8h2V157z"/>
	<path class="st12" d="M267.5,157h-8v-24.3h7.9v1.9h-5.7v9.1h5.2v1.9h-5.2v9.5h5.8V157z"/>
	<path class="st12" d="M281.2,157h-2.3l-4.5-13l0.3-0.4h3.8v-8.9H273V157h-2.2v-24.3h8.1c0.5,0,0.9,0.2,1.2,0.5
		c0.3,0.3,0.5,0.7,0.5,1.2v9.2c0,1.2-0.8,1.8-2.4,1.8c-0.2,0-0.4,0-0.7,0c-0.3,0-0.5,0-0.7,0C278.4,149.2,279.8,153.1,281.2,157z"/>
	<path class="st12" d="M286.7,157h-2.2v-24.3h2.2V157z"/>
	<path class="st12" d="M300.5,155.3c0,0.5-0.2,0.9-0.5,1.2c-0.3,0.3-0.7,0.5-1.3,0.5h-6.2c-0.5,0-0.9-0.2-1.2-0.5
		c-0.3-0.3-0.5-0.7-0.5-1.2v-20.8c0-0.5,0.2-0.9,0.5-1.2c0.3-0.3,0.7-0.5,1.2-0.5h6.2c0.5,0,0.9,0.2,1.3,0.5
		c0.3,0.3,0.5,0.7,0.5,1.2v5.6h-2.2v-5.5h-5.4v20.4h5.4v-6h2.2V155.3z"/>
	<path class="st12" d="M314,157h-2.1l-0.9-5.4h-4.8l-0.9,5.4h-2.1v-0.1l4.3-24.3h2.1L314,157z M310.7,149.7l-2.1-13.1l-2.1,13.1
		H310.7z"/>
</g>
<g>
	<g>
		<path class="st13" d="M76,106.1h-8L53.3,67.7c0.4,1.9,0.6,3.3,0.6,4.4v34.1H45V45h8l14.6,37.7c-0.4-1.9-0.6-3.3-0.6-4.4V45H76
			V106.1z"/>
		<path class="st13" d="M108.7,106.1H83.3V45h25.1v8.1h-16v17.9h13.8v7.9H92.5V98h16.2V106.1z"/>
		<path class="st13" d="M160,45l-8.9,61.2h-8.9l-5.5-34.6c-0.1-1.3-0.2-3.1-0.3-5.6c0,1.3-0.1,3.1-0.3,5.6l-5.4,34.6h-9L112.7,45
			h9.3l4.7,36.3c0.1,1.3,0.2,3.1,0.3,5.6c0-1.3,0.1-3.1,0.4-5.6l5.3-36.3h7.5l5.3,36.3c0.1,1.3,0.2,3.1,0.4,5.6
			c0-1.3,0.1-3.1,0.3-5.6l4.7-36.3H160z"/>
		<path class="st13" d="M212.4,45.4l-8.1,25.5c-1,2.5-2.3,6.8-4,12.8v22.5h-9.2V83.7c-0.4-2-1-4.2-1.8-6.4c-1.4-3.9-2.1-6-2.2-6.3
			l-8-25.5c0,0,0-0.1,0-0.4h9.4l7.3,26.6L203,45h9.4C212.4,45.2,212.4,45.3,212.4,45.4z"/>
		<path class="st13" d="M247.9,100.5c0,3.7-1.8,5.6-5.5,5.6h-19.8c-3.6,0-5.4-1.9-5.4-5.6V50.6c0-3.8,1.8-5.6,5.4-5.6h19.8
			c3.7,0,5.5,1.9,5.5,5.6V100.5z M238.8,98.3V52.9h-12.5v45.4H238.8z"/>
		<path class="st13" d="M286.5,106.1H277l-10.1-28.4v-5.5h9V52.9h-11.5v53.3h-9.1V45h24.3c3.7,0,5.5,1.9,5.5,5.6v22.2
			c0,2.6-0.9,4.2-2.6,5c-0.9,0.4-2.9,0.6-5.9,0.6L286.5,106.1z"/>
		<path class="st13" d="M322.9,106.1h-10.1l-11.6-27.3v27.3h-9.1V45h9.1v25.9L311.4,45h10v0.4l-12.4,29L322.9,106.1z"/>
	</g>
</g>
<g>
	<g>
		<g>
			<polygon class="st14" points="329.6,141.7 337.8,138.2 351.7,132.2 351.7,132.3 351.7,132.2 372.5,138.2 384.8,141.7 
				384.8,254.8 351.7,254.8 351.7,254.8 351.7,254.8 329.6,254.8 			"/>
		</g>
		<g>
			<polygon class="st14" points="864,173.4 855.8,169.9 841.9,163.9 841.9,163.9 841.9,163.9 821.1,169.9 808.8,173.4 808.8,262.3 
				841.9,262.3 841.9,262.3 841.9,262.3 864,262.3 			"/>
		</g>
		<g>
			<polygon class="st14" points="756.3,134.6 748.5,131.3 735.3,125.6 735.3,125.6 735.3,125.6 715.6,131.3 704,134.6 704,248.1 
				735.3,248.1 735.3,248.1 735.3,248.1 756.3,248.1 			"/>
		</g>
		<g>
			<polygon class="st14" points="769.9,153.8 775.2,151.2 775.2,146 779.1,144.1 779.1,135.1 781.9,133.7 781.9,122.3 784.2,121.2 
				784.2,121.2 787.5,122.3 787.5,133.7 791.4,135.1 791.4,144.1 797,146 797,151.2 804.6,153.8 804.6,251.6 784.2,251.6 
				784.2,251.6 769.9,251.6 			"/>
		</g>
		<g>
			<polygon class="st14" points="388.6,159.3 396.2,156.1 409,150.6 409,150.6 409,150.6 428.3,156.1 439.6,159.3 439.6,263.7 
				409,263.7 409,263.6 409,263.7 388.6,263.7 			"/>
		</g>
		<polygon class="st14" points="439.6,177.3 445.6,174.8 455.7,170.4 455.7,170.4 455.7,170.4 470.9,174.8 479.9,177.3 479.9,259.8 
			455.7,259.8 455.7,259.8 455.7,259.8 439.6,259.8 		"/>
	</g>
</g>
<rect x="-23" y="243.2" class="st15" width="910" height="37.8"/>
<path class="st15" d="M632.3,223.2l-3.1-1.3l0.1-4.7l-7.9-2.1c-0.2-0.3-0.3-0.6-0.5-1c-2-3.9-3.2-9-3.2-9s0.9,0.8,0.6-2.4
	c-0.3-3.2-1-6.9-1.1-8.8c-0.1-1.9,0.3-4.4,0.3-4.4s1.5-0.7,1.1-2.5c-0.4-1.8-0.7-6-0.7-6s0.9,0.3,0.6-2.2
	c-0.3-2.5-2.3-28.5-2.3-28.5s1.5,0.4,2.2,1c0.7,0.6,4,0.6,5.5-2.2c1.5-2.8,2.1-5,2.2-6.5c0.1-1.4,1.4-3.6,1.3-5
	c-0.1-1.4,0.3-4.5-0.5-5.5c-0.9-1.1-0.7-2.4-1-3.5c-0.3-1.1-0.2-1.3-0.5-1.8c-0.4-0.5-1-1.4-1-1.4l2.4-5.7l-2.3-3.9l-2.3-0.5
	l-2.2,4.6c0,0-0.8-0.5-1.2-0.8c-0.4-0.3-3.1-5.5-3.9-7.2c-0.8-1.6-1.8-3-2.7-4c-0.9-1.1-1.2-1.3-2.1-1.8c-0.9-0.4,0.3-0.8-1.3-1.5
	c-1.6-0.7-3-1.9-3.5-3.2c-0.3-0.7-0.4-0.9-0.4-1c0,0,0,0,0,0s0-0.1,0,0c0.1,0,0.8,0.2,1-0.5c0.2-0.8-0.7-2.3-0.7-2.3s0.6-2,0.3-3
	c-0.3-1-1.1-1.5-1.1-1.5l-0.3-1.6c0,0,0.3,0.6,0.8-0.1c0.5-0.7,0.4-1.3-0.1-2.8c-0.1-0.3-0.2-0.7-0.4-1.2l8.5-2.1l-9.5,0.3
	c-0.3-0.5-0.7-1-1.1-1.5l6.2-5l-7.8,3.5c-0.3-0.2-0.5-0.4-0.8-0.6c-0.4-0.2-0.9-0.5-1.4-0.7l1.4-7.6l-3.4,6.9
	c-0.8-0.2-1.6-0.3-2.4-0.3l-5.8-8.6l3.8,8.8c-0.9,0.2-1.6,0.6-2.3,1.2l-5-2.5l-4.4-2.1l4.4,3.1l4,2.8c-0.4,0.7-0.7,1.4-0.8,1.9
	l-3.2,0.4l-3.9,0.5c0-0.1,0-0.1,0-0.2c-0.1-1.5-1.6-6.7-3.4-10.7c-1.8-4-1.3-3.5-2.2-6.3c-0.8-2.9-0.7-3.7-1.3-5.5
	c-0.6-1.9-1.2-3.4-2.1-4.5c-0.8-1.1-1.1-1.1-1.1-1.1l0.2-2.1c0,0,0.7-0.4,0.8-0.7c0.1-0.4-0.4-0.8-0.4-0.8s3.2-0.6,3.2-1.2
	c0-0.5,1-0.9,0.6-1.8c-0.4-0.8-1-1.4-0.7-2c0.3-0.6,1-1.2,1-1.2l-1-0.1l0.3-0.7l-1.4,0.2L573,46l-2,0.3c0-0.3-0.1-0.6-0.1-0.9
	c-0.1-0.4-0.1-0.8,0.1-0.9c0.4-0.2,0.5-0.6,1-1.5c0.4-0.9,2.8-2.8,2.9-3.6c0.1-0.8,0.4-1.5,0.1-1.9c-0.3-0.4-0.9,0.9-1.8,1.5
	c-0.9,0.6-1.3-0.1-2.1,0.4c-0.8,0.5,0.1-1.8-0.8-2.2c-0.8-0.4-1.7,0.7-2.4,1.6c-0.8,0.9-1.3,0.3-2.3,1.6c-1,1.3-0.1,3.2,0.6,4.2
	c0.4,0.6,0.5,0.9,0.5,1.3l-1-0.4l-0.8,1l-1.5-0.2l-0.3,0.7l-1.1-0.1l0.3,0.7l-0.9-0.1c0,0,1.2,0.6,1.2,1.4c-0.2,0.4-0.3,1.5-0.6,1.7
	c-0.3,0.3-0.4,0.6,0,1c0.4,0.4,0.7,1,1.5,1.3c0.3,0.1,0.6,0.2,0.9,0.3c-0.5,0.4,0.1,1,1,1.5c0.2,0.4,0.4,0.9,0.4,0.9v0.9
	c0,0-0.8-0.1-0.9,0.6c-0.1,0.7,0.5,1.3,0.5,1.3s-0.5,0-0.5,0.8c0,0.7,0.7,1.2,0.7,1.2s-0.9,0.3-0.4,1.2c0.5,0.9,1.1,1.1,1.1,1.1
	s0.5,2.2,0.2,2.8c-0.3,0.7-0.2,1.3-0.2,1.3s-0.5,0.3-0.3,0.9c0.3,0.6,0.7,0.6,0.7,1.7c0,1.1,0.3,1.2,0.3,1.2s0.7,1.6,1.3,1.6
	c0.6,0,1.2-0.7,1.2-1.1c0-0.4,0.3,2.3,0.6,4c0.3,1.7,1.2,7.5,2.4,10.5c1.2,3,1.7,4.7,2.1,6.2c0.5,1.5,0.8,2.9,0.4,3.7
	c-0.4,0.9-1.9,4.4-2,7.2c-0.1,2.7-0.5,4.6,0.9,4.5c1.4-0.1,1.6,0.6,2,0.4c0.4-0.2,0,1.7,0.9,2.6c0.9,0.9,1.1,0.3,1.5,3.2
	c0.4,2.8,0.2,3,1.1,5.1c0.8,2.1,1.1,2.6,1.1,2.6s-2.8,3.6-4,8.3c-1.1,4.7-0.9,9-0.3,10.1c0.7,1.1,1.3,1.9,1.3,1.9s-1,4.1-0.8,7.4
	c0.2,3.3,0.4,5.5,0.7,7.1c0.4,1.6,0.7,2.6,0.7,2.6s0.1,1.4,0.4,2.5c0.3,1.1,0.4,2.3,0.4,2.3s0,7.3,0.5,9.8c0.5,2.5,0.6,3.8,0.9,5.5
	c0.3,1.7,1,3.8,1.7,6.1c0.7,2.2,1.6,4.8,1.6,4.8s0.1,1.3-0.1,4.4c-0.2,3.1-1,12.4-2.4,14.6c-1.5,2.2-4.1,3.7-6,5.3
	c-0.2,0.1-0.3,0.3-0.4,0.4l-8.3,0.8v5l-2.9,2.1l1.6,2.7V249h19.2h45.8l-0.1-22.9L632.3,223.2z M582.1,87.4c-0.5,0-1.1-0.4-1.3-1.5
	l3.8,0.2l3.1,0.1c0.2,1,0.7,1.6,0.7,1.6l0,0.2l-3.8,1.2l-1.1,0.4C582.9,88.5,582.6,87.5,582.1,87.4z M589.8,96.1
	c-0.4,0.7-0.7,1.8-0.7,1.8s-2-1-2.7-1.6c-0.7-0.6-0.7-0.6-1.1-1.5c-0.3-0.9-0.1-1.4-0.6-2.2c0-0.1-0.1-0.1-0.1-0.2
	c-0.4-0.8-0.3-1.7-1-2.6l1-0.1l3.9-0.3c0.1,0.9,0.2,2,0.3,2.5c0.2,1.1,0.4,1.7,0.8,1.8c0.5,0.1,0.9-0.4,0.9-0.4l0.1,0.9
	C590.7,94.2,590.2,95.3,589.8,96.1z"/>
<path class="st15" d="M689.9,92.9v23.8h-22.8V92.9h-3.9v23.8v3.9v19.8c-2.1,9.4-5.3,20.9-11.2,33.4c-1.5,3.2-3.2,6.4-5,9.6
	c-0.8,1.4-1.7,2.9-2.6,4.3c-2.3,3.7-4.9,7.4-7.7,11.2c-2.4,3.1-4.9,6.2-7.7,9.4c-8.4,9.5-18.9,19-32.1,28.3
	c-13.2-9.3-23.7-18.9-32.1-28.3c-2.8-3.1-5.4-6.3-7.7-9.4c-2.9-3.8-5.4-7.5-7.7-11.2c-0.9-1.4-1.8-2.9-2.6-4.3
	c-1.9-3.3-3.5-6.5-5-9.6c-5.9-12.5-9.1-24-11.2-33.4v-19.8v-3.9V92.9h-3.9v23.8h-22.8V92.9h-3.9v23.8v3.9v51.9v3.9v80.4h3.9v-80.4
	h5.6V251h2.5v-74.7h5.9v73.1h2.5v-73.1h0.1c1.9,2.5,4,5,6.1,7.6v72.8h3.9v-68.3c1.9,2.2,4,4.4,6.1,6.7v54.3h2.5v-51.7
	c0.9,0.9,1.8,1.8,2.7,2.7c0.9,0.9,1.8,1.8,2.7,2.6v46.4h2.5v-44c0.8,0.8,1.6,1.6,2.5,2.3c0.8,0.8,1.6,1.5,2.5,2.3v39.4h2.5v-37.2
	c0.9,0.8,1.8,1.6,2.8,2.4c0.9,0.8,1.8,1.6,2.8,2.4v32.4h2.5v-30.3c0.8,0.7,1.7,1.4,2.5,2.1c0.8,0.7,1.7,1.4,2.5,2v26.2h2.5v-24.2
	c5.9,4.7,12.1,9.3,18.7,13.9l1.4-2c-7.1-5-13.8-10-20.1-15.1v-4.9c7.4,7.4,16.1,14.8,26.5,22l0.7-1l0.7,1
	c10.3-7.2,19.1-14.6,26.5-22v4.9c-6.3,5.1-13,10.1-20.1,15.1l1.4,2c6.6-4.6,12.8-9.2,18.7-13.9v24.2h2.5v-26.2
	c0.8-0.7,1.7-1.4,2.5-2c0.8-0.7,1.7-1.4,2.5-2.1v30.3h2.5v-32.4c0.9-0.8,1.9-1.6,2.8-2.4c0.9-0.8,1.9-1.6,2.8-2.4v37.2h2.5V210
	c0.8-0.8,1.7-1.5,2.5-2.3c0.8-0.8,1.7-1.6,2.5-2.3v44h2.5V203c0.9-0.9,1.8-1.8,2.7-2.6c0.9-0.9,1.8-1.8,2.7-2.7v51.7h2.5v-54.3
	c2.1-2.2,4.1-4.5,6.1-6.7v68.3h3.9V184c2.2-2.6,4.2-5.1,6.1-7.6h0.1v73.1h2.5v-73.1h5.9V251h2.5v-74.7h5.6v80.4h3.9V92.9H689.9z
	 M526.5,120.6v51.9h-6c-8.5-11.6-14.2-22.1-16.8-31v-20.9H526.5z M503.7,172.5v-23.7c1.5,3.5,3.4,7.3,5.6,11.2v12.5H503.7z
	 M511.8,164.1c1.7,2.7,3.6,5.5,5.7,8.4h-5.7V164.1z M523.5,176.3h3v3.8C525.5,178.8,524.5,177.6,523.5,176.3z M536.5,191.5
	c-1.7-1.9-3.4-3.7-5-5.6c-0.4-0.4-0.7-0.8-1-1.2v-8.4v-3.9v-22c1.5,5.5,3.5,11.5,6.1,17.8V191.5z M544.3,199.6
	c-0.9-0.9-1.8-1.8-2.7-2.7c-0.9-0.9-1.8-1.8-2.7-2.7v-20.2c0.8,1.8,1.7,3.6,2.7,5.4c0.8,1.6,1.7,3.3,2.7,4.9V199.6z M551.7,206.7
	c-0.8-0.8-1.7-1.5-2.5-2.3c-0.8-0.8-1.7-1.6-2.5-2.4v-13.5c0.8,1.3,1.6,2.6,2.5,3.9c0.8,1.2,1.6,2.4,2.5,3.6V206.7z M559.7,213.8
	c-0.9-0.8-1.9-1.6-2.8-2.4c-0.9-0.8-1.9-1.7-2.8-2.5v-9.5c0.9,1.2,1.8,2.4,2.8,3.6c0.9,1.1,1.8,2.3,2.8,3.4V213.8z M567.2,220.1
	c-0.8-0.7-1.7-1.4-2.5-2.1c-0.8-0.7-1.7-1.4-2.5-2.1v-6.7c0.8,0.9,1.6,1.8,2.5,2.8c0.8,0.9,1.6,1.8,2.5,2.6V220.1z M631.5,215.9
	c-0.8,0.7-1.7,1.4-2.5,2.1c-0.8,0.7-1.7,1.4-2.5,2.1v-5.4c0.8-0.9,1.7-1.8,2.5-2.6c0.9-0.9,1.7-1.8,2.5-2.8V215.9z M639.5,208.9
	c-0.9,0.8-1.8,1.6-2.8,2.5c-0.9,0.8-1.8,1.6-2.8,2.4v-7.5c1-1.1,1.9-2.3,2.8-3.4c1-1.2,1.9-2.4,2.8-3.6V208.9z M646.9,202
	c-0.8,0.8-1.6,1.6-2.5,2.4c-0.8,0.8-1.6,1.5-2.5,2.3V196c0.9-1.2,1.7-2.4,2.5-3.6c0.9-1.3,1.7-2.6,2.5-3.9V202z M654.7,194.1
	c-0.9,0.9-1.8,1.8-2.7,2.7c-0.9,0.9-1.8,1.8-2.7,2.7v-15.3c0.9-1.6,1.8-3.3,2.7-4.9c0.9-1.8,1.8-3.6,2.7-5.4V194.1z M689.9,120.6
	v20.9c-2.6,8.9-8.3,19.4-16.8,31h-6v-51.9H689.9z M662.2,185.9c-1.6,1.8-3.3,3.7-5,5.6v-23.2c2.6-6.3,4.6-12.3,6.1-17.8v22v3.9v8.4
	C662.9,185.1,662.6,185.5,662.2,185.9z M667.2,180.1v-3.8h3C669.2,177.6,668.2,178.8,667.2,180.1z M676.2,172.5
	c2.1-2.9,4-5.6,5.7-8.4v8.4H676.2z M684.3,172.5V160c2.3-3.9,4.1-7.7,5.6-11.2v23.7H684.3z"/>
<polygon class="st15" points="495.2,154.1 489.5,151.3 489.5,145.9 485.3,143.8 485.3,134.1 482.4,132.7 482.4,120.5 479.9,119.3 
	479.9,119.3 476.3,120.5 476.3,132.7 472.2,134.1 472.2,143.8 466.2,145.9 466.2,151.3 458.1,154.1 458.1,256.7 479.9,256.7 
	479.9,256.7 495.2,256.7 "/>
<polygon class="st15" points="697.6,146.5 704.6,143.5 716.4,138.4 716.4,138.5 716.4,138.4 734,143.5 744.4,146.5 744.4,256.7 
	716.4,256.7 716.4,256.7 716.4,256.7 697.6,256.7 "/>
<polygon class="st15" points="840.1,185.8 843.8,184 843.8,180.5 846.5,179.2 846.5,173 848.4,172.1 848.4,164.2 850,163.5 
	850,163.5 852.3,164.2 852.3,172.1 855,173 855,179.2 858.8,180.5 858.8,184 864,185.8 864,251.8 850,251.8 850,251.8 840.1,251.8 
	"/>
<polygon class="st15" points="747.1,171.2 754.5,165.9 754.5,165.9 769.7,168.8 778.7,170.5 778.7,245.5 747.1,245.5 "/>
<polygon class="st15" points="781.4,196.8 787.6,192.3 787.6,192.3 800.5,194.7 808,196.2 808,259.5 781.4,259.5 "/>
<polygon class="st15" points="810.8,193.3 817,188.8 817,188.8 829.8,191.2 837.4,192.7 837.4,256 810.8,256 "/>
<polygon class="st15" points="454.5,163.6 447.9,160.8 436.7,156 436.7,156 436.7,156 419.9,160.8 410,163.6 410,254.8 436.7,254.8 
	436.7,254.7 436.7,254.8 454.5,254.8 "/>
<polygon class="st15" points="406.5,185.4 400.9,183 391.4,178.9 391.4,178.9 391.4,178.9 377.3,183 368.9,185.4 368.9,247.6 
	391.4,247.6 391.4,247.6 391.4,247.6 406.5,247.6 "/>
<polygon class="st15" points="366.1,171.2 363.6,170.2 359.3,168.3 359.3,168.3 359.3,168.3 353,170.2 349.2,171.2 349.2,250.5 
	359.3,250.5 359.3,250.5 359.3,250.5 366.1,250.5 "/>
<polygon class="st15" points="346.4,176.4 343.9,175.4 339.7,173.5 339.7,173.5 339.7,173.5 333.3,175.4 329.6,176.4 329.6,255.7 
	339.7,255.7 339.7,255.7 339.7,255.7 346.4,255.7 "/>
<rect class="st28" width="864" height="259"/>
</svg>
