<?xml version="1.0" encoding="utf-8"?>
<!-- Generator: Adobe Illustrator 21.0.2, SVG Export Plug-In . SVG Version: 6.00 Build 0)  -->
<svg version="1.1" id="Layer_1" xmlns="http://www.w3.org/2000/svg" xmlns:xlink="http://www.w3.org/1999/xlink" x="0px" y="0px"
	 viewBox="0 0 1200 400" style="enable-background:new 0 0 1200 400;" xml:space="preserve">
<style type="text/css">
	.st0{fill:#064454;}
	.st1{fill:#AA322A;}
	.st2{fill:#29ABE2;}
	.st3{fill:#8C131B;}
	.st4{fill:#808080;}
	.st5{fill:#64CDF2;}
	.st6{fill:#0071BC;}
	.st7{fill:#2E3192;}
	.st8{fill:#1B1464;}
	.st9{fill:none;}
	.st10{fill:none;stroke:#064454;stroke-width:4;stroke-miterlimit:10;}
	.st11{fill:#043242;}
</style>
<path class="st10" d="M1145.9,396.9H54.1c-24.9,0-45-20.1-45-45V48.1c0-24.9,20.1-45,45-45h1091.8c24.9,0,45,20.1,45,45v303.9
	C1190.9,376.8,1170.8,396.9,1145.9,396.9z"/>
<g>
	<g>
		<path class="st0" d="M526.1,120.1h6.5V155h-4.9c-2.5-5.1-5.1-9.7-8-13.6c-2.9-3.9-5.9-7.2-9.1-9.8c-3.2-2.6-6.6-4.5-10.1-5.8
			c-3.5-1.3-7.3-1.9-11.4-1.9c-5.5,0-10.4,1.2-14.9,3.7c-4.5,2.4-8.3,5.9-11.4,10.5c-3.2,4.5-5.6,10.1-7.4,16.6
			c-1.8,6.5-2.6,13.5-2.6,20.9c0,10.4,1.7,19.5,5.2,27.6c3.5,8,8.3,14.3,14.5,18.8c6.2,4.5,13.3,6.7,21.2,6.7
			c4.9,0,9.6-0.8,14.1-2.4c4.5-1.6,8.9-4,13-7.3c4.2-3.3,8-7.4,11.6-12.3l4.7,2.6c-5.9,8.6-13.1,15-21.4,19.4
			c-8.3,4.3-17.9,6.5-28.7,6.5c-8.4,0-16.2-1.5-23.3-4.4c-7.1-2.9-13.2-7.1-18.4-12.3c-5.1-5.3-9.1-11.4-11.9-18.4
			c-2.8-7-4.1-14.4-4.1-22.1c0-8.4,1.5-16.2,4.5-23.5c3-7.2,7.1-13.4,12.4-18.6s11.4-9.2,18.4-12c7-2.8,14.4-4.2,22.2-4.2
			c2.9,0,5.7,0.2,8.2,0.7c2.5,0.4,5.6,1.1,9.1,2.1c3.5,0.9,5.9,1.6,7.1,1.9c1.2,0.3,2.7,0.4,4.3,0.4
			C519.9,124.5,523.4,123.1,526.1,120.1z M471,123.6c-8.1,3.1-14.8,6.8-20,11.1c-3,2.5-5.6,5.4-8,8.5c-2.3,3.2-4.3,6.5-5.9,10.1
			c-1.6,3.6-2.8,7.4-3.7,11.5c-0.9,4.1-1.3,8.2-1.3,12.1c0,9.5,1.9,18.2,5.8,26.2s9.7,14.7,17.4,19.9c7.7,5.3,16.9,8.5,27.6,9.7
			c-7-1.8-13.4-4.5-19.1-8.1c-5.8-3.6-10.6-7.9-14.7-12.8c-4-5-7-10.4-9.1-16.3c-2-5.9-3-12-3-18.3c0-5.3,0.9-10.8,2.6-16.6
			c1.7-5.8,4.2-10.9,7.3-15.4c3.6-5.1,7.2-9.2,10.9-12.3C461.6,129.9,466,126.8,471,123.6z M523,140l-0.5-13.4
			c-2.5,1.1-5.1,1.7-7.8,1.7c-1.3,0-2.5-0.1-3.7-0.3c2.7,2,4.9,4,6.7,6C519.6,135.8,521.3,137.8,523,140z"/>
		<path class="st0" d="M672.5,164.9v10.5c4.4-3.4,8.5-6,12.3-7.8c3.8-1.8,8.2-2.7,13.4-2.7c14.9,0,22.3,7.4,22.3,22.1V223
			c0,3.4,0.8,5.6,2.4,6.5c1.6,0.9,4.1,1.3,7.4,1.3v4.3h-38v-4.3c3.4,0,5.8-0.5,7.4-1.6c1.5-1.1,2.3-3.3,2.3-6.8v-38.1
			c0-2.8-0.4-5.1-1.3-7.1c-0.9-1.9-2.1-3.4-3.8-4.4c-1.7-1-3.7-1.5-6.1-1.5c-3,0-5.9,0.8-8.8,2.3c-2.9,1.6-6,3.9-9.5,7.1v41.6
			c0,2.4,0.4,4.2,1.2,5.4s1.9,2,3.2,2.4s3.3,0.5,5.8,0.6v4.3h-38.1v-4.3c3.2,0,5.7-0.4,7.4-1.3c1.7-0.9,2.6-2.8,2.6-6v-34.9
			c0-3.5-0.8-6.3-2.4-8.4c-1.6-2.1-4.1-3.7-7.6-4.8v-2.6l24.9-7.9H672.5z M657.2,186v36.2c0,2.4-0.2,4.1-0.5,5.1
			c-0.3,1.1-1.1,2.2-2.2,3.5c5.1-0.5,7.7-3.3,7.7-8.6v-37.6c0-2.6-0.9-4.9-2.8-6.7c-1.9-1.9-4-2.8-6.5-2.8c-0.3,0-0.7,0.1-1.4,0.2
			c-0.7,0.1-1.1,0.2-1.3,0.2C654.9,177.5,657.2,181.1,657.2,186z M704.7,183.5v38.9c0,1.6,0,2.8-0.1,3.6c-0.1,0.8-0.3,1.5-0.6,2.2
			c-0.3,0.7-1,1.6-2,2.6h1.5c2.7,0,4.5-1,5.4-3c0.9-2,1.3-5.1,1.3-9.1v-34.8c0-4.5-1-8-3-10.3c-2-2.4-5.5-3.7-10.6-3.9
			c2.8,1.2,4.9,2.8,6.1,5C704.1,176.8,704.7,179.8,704.7,183.5z"/>
		<path class="st0" d="M785.2,172.1c0-1.4-0.7-2.6-2.2-3.6c-1.5-1-3.3-1.5-5.4-1.5c-3.9,0-7.5,1.1-10.7,3.4
			c-3.2,2.3-5.7,5.6-7.5,9.9c-1.8,4.3-2.7,9.1-2.7,14.5c0,5,1.1,9.5,3.2,13.6c2.1,4.1,5,7.2,8.6,9.5c3.6,2.3,7.5,3.4,11.8,3.4
			c3.5,0,7.2-0.8,11.1-2.4c3.9-1.6,6.9-3.7,9.3-6.2l2.8,3.7c-4.2,6-9.1,10.6-14.9,13.8c-5.8,3.2-11.7,4.8-17.7,4.8
			c-5.6,0-10.9-1.5-16-4.6c-5.1-3-9.1-7.2-12.1-12.4c-3-5.2-4.5-10.9-4.5-17.1c0-5,0.9-9.9,2.8-14.4c1.8-4.6,4.5-8.7,7.9-12.3
			c3.4-3.6,7.5-6.4,12.3-8.5s10-3.1,15.7-3.1c4.6,0,8.8,0.7,12.6,2.1c3.8,1.4,6.8,3.3,8.9,5.8c2.2,2.5,3.3,5.2,3.3,8.1
			c0,2.6-0.9,4.7-2.8,6.4c-1.9,1.7-4.1,2.5-6.7,2.5c-2.4,0-4.3-0.8-5.9-2.5c-1.6-1.7-2.3-3.4-2.3-5.3c0-0.4,0.2-1.6,0.7-3.6
			C785,174.2,785.2,172.9,785.2,172.1z M764.3,167.6c-5,1.9-9.3,4.5-12.8,7.8c-3.5,3.3-6.2,7.2-8,11.5c-1.8,4.4-2.8,8.8-2.8,13.4
			c0,6.1,1.5,11.7,4.4,16.6s6.8,8.7,11.6,11.4c4.8,2.7,9.7,4.1,14.6,4.1c7.2,0,14-2.4,20.3-7.1c-6.9,2.3-12.4,3.4-16.6,3.4
			c-5.4,0-10.3-1.2-14.7-3.6c-4.5-2.4-8-5.8-10.6-10.1c-2.6-4.3-3.9-9.1-3.9-14.4c0-6.1,1.6-12,4.8-17.7
			C753.7,177.2,758.3,172.1,764.3,167.6z M786.4,179.9c0,1.7,0.6,2.9,1.9,3.8c1.3,0.8,2.7,1.3,4.2,1.3c0.5,0,1.8-0.2,3.9-0.6
			c-3.3-0.7-4.9-2.4-4.9-5c0-0.2,0.1-0.8,0.4-1.8c0.2-1,0.4-1.8,0.4-2.5c0-2.9-2.1-5.1-6.1-6.6c1.2,1.6,1.7,3.1,1.7,4.5
			c0,0.9-0.2,2.1-0.7,3.6C786.7,177.9,786.4,179.1,786.4,179.9z"/>
		<path class="st0" d="M837,164.9v57c0,2.4,0.2,4.2,0.7,5.5s1.4,2.1,2.8,2.6s3.5,0.8,6.4,0.9v4.3h-36.8v-4.3c3.3-0.1,5.5-0.8,6.8-2
			c1.3-1.2,1.9-3.4,1.9-6.5v-36.2c0-2.3-0.8-4.4-2.3-6.3c-1.5-1.9-3.7-3.4-6.5-4.3V173l23.6-8.1H837z M821.5,186.4v37.4
			c0,3-1.1,5.4-3.2,6.9c2.9,0,5-0.7,6.3-2c1.3-1.3,2-3.5,2-6.5v-37c0-3.4-0.8-6-2.4-7.8c-1.6-1.8-3.8-2.7-6.4-2.7
			c-1.2,0-2.2,0.1-2.9,0.2C819.3,177.4,821.5,181.1,821.5,186.4z M827.3,126.5c2,0,3.9,0.5,5.6,1.5c1.7,1,3.1,2.3,4.1,4
			c1,1.7,1.5,3.5,1.5,5.5c0,2-0.5,3.8-1.5,5.6c-1,1.7-2.4,3.1-4.1,4.1c-1.7,1-3.6,1.5-5.6,1.5c-3,0-5.6-1.1-7.7-3.3
			c-2.2-2.2-3.2-4.8-3.2-7.8c0-1.9,0.5-3.8,1.5-5.5c1-1.7,2.3-3,4-4C823.5,127,825.3,126.5,827.3,126.5z M828.6,129
			c-3.1,0-5.5,0.7-7.2,2.2c-1.7,1.5-2.5,3.5-2.5,6.1c0,2.5,0.8,4.5,2.4,6.1c1.6,1.6,4,2.5,7.3,2.6c-1.7-1.5-2.9-2.9-3.7-4.1
			c-0.8-1.2-1.2-2.7-1.2-4.5C823.7,134,825.3,131.2,828.6,129z"/>
		<path class="st0" d="M915.1,213.4l3.2,2.4c-2.4,4.4-5.2,8-8.4,10.9c-3.3,2.8-6.8,4.9-10.8,6.3c-3.9,1.4-8,2-12.3,2
			c-5.8,0-11.2-1.4-16.1-4.2c-5-2.8-8.9-6.8-11.8-12.1c-2.9-5.3-4.3-11.2-4.3-17.9c0-5.3,0.9-10.2,2.6-14.8
			c1.8-4.6,4.2-8.7,7.3-12.2c3.1-3.5,6.8-6.3,10.9-8.2c4.1-2,8.5-3,13.2-3c4.7,0,9.2,1,13.5,3c4.3,2,7.7,4.7,10.2,8.2
			c1.8,2.5,3.2,5.1,4,7.8c0.8,2.7,1.5,5.8,1.9,9.6h-47.6c0.2,5.5,1.1,10.1,2.8,13.9c1.7,3.8,3.8,6.8,6.5,9.1c2.7,2.3,5.5,4,8.5,5
			c3,1,5.9,1.5,8.6,1.5C903.6,220.7,909.7,218.3,915.1,213.4z M871.9,170.6c-9.8,7.8-14.7,18-14.7,30.6c0,9.1,2.9,16.6,8.8,22.4
			c5.9,5.8,12.6,8.7,20.3,8.7c4.5,0,8.9-0.9,13.4-2.7c4.5-1.8,8.3-4.5,11.4-8.1c-3.2,2-6.5,3.7-9.8,5c-3.3,1.3-7.3,1.9-11.9,1.9
			c-7.8,0-14.4-2.7-19.6-8.2c-5.2-5.5-7.8-12.6-7.8-21.4c0-5.6,0.9-10.6,2.6-15C866.2,179.5,868.7,175.1,871.9,170.6z M871.2,186.2
			h27.5v-2.6c0-3-0.6-5.8-1.7-8.2c-1.1-2.4-2.6-4.2-4.5-5.5c-1.9-1.3-4.1-1.9-6.6-1.9c-4,0-7.4,1.8-10.2,5.3
			C873,176.8,871.4,181.1,871.2,186.2z M901.2,186.2h5.5c-0.2-5.9-1.4-10.2-3.6-13c-2.3-2.8-6-4.7-11.4-5.6c3.4,1.5,5.8,3.5,7.3,6
			c1.5,2.4,2.2,6.2,2.2,11.2V186.2z"/>
		<path class="st0" d="M954.6,164.9V177c4-4.6,7.1-7.7,9.3-9.5c2.2-1.8,4.8-2.6,7.8-2.6c2.6,0,4.8,0.9,6.7,2.8
			c1.8,1.9,2.7,4.2,2.7,7.1c0,2.9-0.8,5.4-2.4,7.4c-1.6,2-3.7,3-6.1,3c-1.1,0-2.3-0.2-3.6-0.6c-1.3-0.4-2.4-1-3.3-1.7
			c-0.5-0.4-1.1-0.9-1.7-1.3c-0.6-0.5-1.1-0.8-1.5-1.1c-0.4-0.3-0.9-0.4-1.5-0.4c-1,0-2,0.4-3,1.1c-1,0.8-2.1,1.8-3.3,3.2v38.1
			c0,2.7,0.4,4.7,1.1,5.8c0.8,1.2,1.9,1.9,3.5,2.2c1.6,0.3,4.4,0.4,8.4,0.4v4.3h-42.3v-4.3h2.1c6.1,0,9.1-2.4,9.1-7.3v-35.4
			c0-6-3.8-10.2-11.3-12.5V173l25.4-8.1H954.6z M939.2,188.1V224c0,1.8-0.3,3.1-0.9,4c-0.6,0.9-1.4,1.8-2.5,2.8
			c3-0.3,5.1-1.1,6.5-2.4c1.3-1.3,2-3.7,2-7v-33.3c0-4.5-0.8-7.8-2.4-9.9c-1.6-2-4.1-3.1-7.5-3.1c-0.3,0-0.8,0.1-1.7,0.2
			c-0.9,0.1-1.5,0.2-1.8,0.2C936.4,177.9,939.2,182.1,939.2,188.1z M959.8,177c1.4,0,2.8,0.5,4.3,1.4c3.3,2.6,6,3.9,8.2,3.9
			c2.7,0,4.7-1.8,6-5.3c-1.5,0.7-2.5,1.1-3.2,1.1c-1.6,0-3.2-0.5-4.7-1.6c-2-1.6-3.7-2.4-5-2.4C964.1,174.1,962.3,175.1,959.8,177z"
			/>
		<path class="st0" d="M989.2,189.6c0-6.8,2.7-12.7,8-17.5c5.4-4.8,12.4-7.2,21.2-7.2c9.5,0,17.8,3,25,9.1c1.9-1.8,4.1-3.3,6.4-4.3
			c2.3-1,4.5-1.5,6.7-1.5c3,0,5.5,0.8,7.4,2.4c1.9,1.6,2.9,3.7,2.9,6.1c0,1.7-0.6,3.2-1.8,4.5c-1.2,1.3-2.7,2-4.5,2
			c-1.1,0-2.1-0.3-3-0.9c-0.9-0.6-1.9-1.5-3-2.8c-1.1-1.2-2-2.2-2.7-2.8c-0.7-0.6-1.6-0.9-2.5-0.9c-0.8,0-1.9,0.4-3.1,1.2
			c3.5,4.7,5.2,9.4,5.2,14c0,4.2-1.2,8.2-3.6,11.9c-2.4,3.7-5.6,6.6-9.7,8.7c-2.6,1.3-5.2,2.2-7.6,2.6c-2.4,0.4-5.1,0.7-8.1,0.9
			c-6,0.4-10.7,1.2-14,2.3c-3.4,1.1-5,3.2-5,6.1c0,3.8,3.3,5.8,9.9,5.8c2.2-0.1,4.2-0.1,6-0.1c1.8,0,4.1,0,7.1,0
			c10.3,0,18,1.5,23.1,4.4c5.1,2.9,7.7,7.8,7.7,14.7c0,3.7-0.8,7.1-2.4,10.2c-1.6,3.1-4.1,5.8-7.4,8.1c-3.3,2.3-7.6,4-12.9,5.3
			c-5.3,1.3-11.4,1.9-18.3,1.9c-10.1,0-17.9-1.4-23.2-4.3c-5.3-2.9-8-6.7-8-11.5c0-3.4,1.3-6.4,3.9-9c2.6-2.6,6.4-4.1,11.4-4.4
			c-6.8-3-10.2-7.3-10.2-12.9c0-3.7,1.6-7.1,4.7-10.2c3.2-3.2,7.6-5.8,13.4-8C995.5,208.1,989.2,200.1,989.2,189.6z M1002,270.1
			c-6.1-3.3-9.2-7.2-9.2-11.9c0-2.7,1-4.9,2.9-6.7c1.9-1.8,4.8-3.5,8.6-5.3c-5.5,0.5-9.6,1.7-12.5,3.8c-2.9,2-4.3,4.7-4.3,7.9
			c0,2.7,1.2,5.2,3.7,7.4C993.7,267.4,997.3,269.1,1002,270.1z M1014.3,167.3c-4.3,0.5-8.2,1.9-11.7,4c-3.5,2.1-6.1,4.8-8,7.9
			c-1.9,3.2-2.8,6.5-2.8,10.2c0,5.2,1.6,9.7,4.9,13.6c3.3,3.9,8.3,6.8,14.9,8.5c-4.8-2.8-8.4-6.1-10.8-9.9
			c-2.4-3.8-3.6-7.7-3.6-11.7c0-4.4,1.4-8.5,4.3-12.5C1004.4,173.4,1008.6,170.1,1014.3,167.3z M1002,219.1c-3.1,1.9-5.4,3.9-7,5.9
			c-1.6,2-2.4,4.3-2.4,7c0,3.4,1.7,6.2,5.2,8.4c3.5,2.2,8.2,3.4,14,3.4c11.7,0.1,19.6,0.3,23.6,0.5c4,0.2,7.6,1.2,10.8,2.9
			c3.2,1.7,4.8,4.5,4.8,8.5c0,0.4-0.1,1.2-0.3,2.4c1.4-2.5,2.1-4.7,2.1-6.6c0-4-1.8-7.1-5.3-9.2c-3.5-2.1-8.7-3.3-15.7-3.4
			c-5-0.1-10-0.2-14.9-0.4c-4.9-0.1-8.8-0.5-11.5-1c-2.7-0.5-4.8-1.5-6.1-2.8c-1.4-1.4-2.1-3.3-2.1-5.8c0-1.7,0.4-3.3,1.2-4.8
			C999.3,222.6,1000.5,221,1002,219.1z M1018.8,270.1c6.1,0,11.4-0.6,15.8-1.7c4.4-1.2,7.9-2.9,10.3-5.1c2.4-2.2,3.6-4.7,3.6-7.5
			c0-6.1-7.1-9.2-21.2-9.2c-6.3,0-11.5,0.3-15.4,1c-4,0.7-7.1,1.9-9.2,3.7c-2.2,1.8-3.2,4.2-3.2,7.3c0,3.5,1.7,6.3,5.1,8.4
			C1007.9,269.1,1012.7,270.1,1018.8,270.1z M1032.2,189.1c0-6.2-1.2-11.1-3.5-14.6c-2.4-3.5-5.2-5.3-8.6-5.3
			c-3.4,0-6.2,1.8-8.4,5.5c-2.2,3.7-3.3,8.5-3.3,14.3c0,6.6,1.1,11.8,3.3,15.7c2.2,3.9,5.2,5.8,9,5.8c3.4,0,6.2-1.9,8.3-5.6
			C1031.1,201.2,1032.2,195.9,1032.2,189.1z M1024.9,168.4c3.5,2.3,6,5.1,7.5,8.4c1.6,3.3,2.3,7.5,2.3,12.8c0,9.6-2.7,16.6-8,21.2
			c8.6-2.9,12.9-9.6,12.9-20C1039.8,178,1034.8,170.5,1024.9,168.4z M1063.6,174.3c-0.6,0.9-1.6,1.4-2.9,1.4c-1,0-2.5-0.5-4.4-1.6
			c-1.9-1.1-3.6-1.6-4.9-1.6c-0.5,0-1,0.1-1.5,0.3c-0.5,0.2-1,0.4-1.4,0.6c0.4-0.1,0.9-0.2,1.6-0.2c1.4,0,3.2,1.3,5.5,3.9
			c1.7,2.3,3.4,3.4,5,3.4c1.2,0,2.1-0.4,2.8-1.3c0.6-0.8,0.9-1.7,0.9-2.6C1064.3,175.9,1064.1,175.1,1063.6,174.3z"/>
		<path class="st0" d="M1130.3,213.4l3.2,2.4c-2.4,4.4-5.2,8-8.4,10.9c-3.3,2.8-6.8,4.9-10.8,6.3c-3.9,1.4-8,2-12.3,2
			c-5.8,0-11.2-1.4-16.1-4.2c-5-2.8-8.9-6.8-11.8-12.1c-2.9-5.3-4.3-11.2-4.3-17.9c0-5.3,0.9-10.2,2.6-14.8
			c1.8-4.6,4.2-8.7,7.3-12.2c3.1-3.5,6.8-6.3,10.9-8.2c4.1-2,8.5-3,13.2-3c4.7,0,9.2,1,13.5,3c4.3,2,7.7,4.7,10.2,8.2
			c1.8,2.5,3.2,5.1,4,7.8c0.8,2.7,1.5,5.8,1.9,9.6h-47.6c0.2,5.5,1.1,10.1,2.8,13.9c1.7,3.8,3.8,6.8,6.5,9.1c2.7,2.3,5.5,4,8.5,5
			c3,1,5.9,1.5,8.6,1.5C1118.8,220.7,1124.9,218.3,1130.3,213.4z M1087.1,170.6c-9.8,7.8-14.7,18-14.7,30.6c0,9.1,2.9,16.6,8.8,22.4
			c5.9,5.8,12.6,8.7,20.3,8.7c4.5,0,8.9-0.9,13.4-2.7c4.5-1.8,8.3-4.5,11.4-8.1c-3.2,2-6.5,3.7-9.8,5c-3.3,1.3-7.3,1.9-11.9,1.9
			c-7.8,0-14.4-2.7-19.6-8.2c-5.2-5.5-7.8-12.6-7.8-21.4c0-5.6,0.9-10.6,2.6-15S1083.9,175.1,1087.1,170.6z M1086.3,186.2h27.5v-2.6
			c0-3-0.6-5.8-1.7-8.2c-1.1-2.4-2.6-4.2-4.5-5.5c-1.9-1.3-4.1-1.9-6.6-1.9c-4,0-7.4,1.8-10.2,5.3
			C1088.1,176.8,1086.6,181.1,1086.3,186.2z M1116.4,186.2h5.5c-0.2-5.9-1.4-10.2-3.6-13c-2.3-2.8-6-4.7-11.4-5.6
			c3.4,1.5,5.8,3.5,7.3,6c1.5,2.4,2.2,6.2,2.2,11.2V186.2z"/>
		<g>
			<g>
				<g>
					<path class="st0" d="M617.3,176.1c1.1,0.5,2.2,1.2,3.1,2c0.2,0.2,0.5,0.4,0.7,0.6l0.7,0.6c0.4,0.4,0.9,0.9,1.3,1.4
						c0.4,0.5,0.8,1,1.2,1.5l0.5,0.8c0.1,0.1,0.2,0.3,0.3,0.4l0.2,0.4c0.6,1.1,1.1,2.2,1.5,3.4c-0.6-1.1-1.2-2.2-1.9-3.2
						c-0.3-0.5-0.7-1-1.1-1.5c-0.4-0.5-0.7-1-1.2-1.4c-0.8-0.9-1.6-1.8-2.5-2.6C619.3,177.6,618.3,176.8,617.3,176.1z"/>
					<path class="st0" d="M618.1,171c1.6,0.7,3.1,1.7,4.5,2.8c1.4,1.1,2.7,2.3,3.8,3.7c0.6,0.7,1.1,1.4,1.7,2.1l0.7,1.1
						c0.1,0.2,0.2,0.4,0.4,0.6l0.3,0.6c0.9,1.5,1.6,3.2,2.1,4.9c-0.9-1.5-1.7-3.1-2.7-4.5l-0.4-0.5c-0.1-0.2-0.3-0.4-0.4-0.5l-0.8-1
						l-0.8-1c-0.3-0.3-0.6-0.7-0.8-1c-1.1-1.3-2.3-2.6-3.6-3.7C620.8,173.2,619.5,172,618.1,171z"/>
					<path class="st0" d="M618.7,164.2c1.2,0.5,2.2,1.2,3.3,1.8c1.1,0.7,2.1,1.4,3.1,2.2c2,1.6,3.8,3.3,5.5,5.2c0.8,1,1.6,2,2.3,3
						c0.4,0.5,0.7,1,1.1,1.6c0.2,0.3,0.3,0.5,0.5,0.8l0.5,0.8c1.2,2.2,2.3,4.5,2.9,7c-1.2-2.2-2.4-4.4-3.8-6.4c-0.7-1-1.4-2-2.2-3
						c-0.4-0.5-0.8-1-1.2-1.4c-0.4-0.5-0.8-0.9-1.2-1.4c-1.6-1.9-3.3-3.6-5.1-5.3c-0.5-0.4-0.9-0.8-1.4-1.3l-0.7-0.6l-0.7-0.6
						C620.7,165.7,619.7,164.9,618.7,164.2z"/>
				</g>
				<g>
					<path class="st0" d="M556.7,187.1c0.4-1.2,1-2.3,1.7-3.3c0.2-0.3,0.3-0.5,0.5-0.8l0.6-0.7c0.4-0.5,0.8-1,1.2-1.4
						c0.4-0.5,0.9-0.9,1.3-1.3l0.7-0.6c0.1-0.1,0.2-0.2,0.4-0.3l0.4-0.3c1-0.7,2.1-1.3,3.2-1.8c-1,0.7-2,1.4-3,2.2
						c-0.5,0.4-0.9,0.8-1.4,1.2c-0.4,0.4-0.9,0.8-1.3,1.3c-0.8,0.9-1.6,1.8-2.4,2.8C558,185.1,557.3,186.1,556.7,187.1z"/>
					<path class="st0" d="M551.5,186.9c0.6-1.7,1.4-3.2,2.4-4.7c1-1.5,2.1-2.9,3.3-4.2c0.6-0.7,1.3-1.2,1.9-1.9l1-0.8
						c0.2-0.1,0.3-0.3,0.5-0.4l0.5-0.4c1.4-1.1,3-1.9,4.7-2.5c-1.4,1-2.9,2-4.2,3.1l-0.5,0.4c-0.2,0.1-0.3,0.3-0.5,0.4l-1,0.9
						l-0.9,0.9c-0.3,0.3-0.6,0.6-0.9,0.9c-1.2,1.3-2.3,2.6-3.4,4C553.4,184,552.5,185.4,551.5,186.9z"/>
					<path class="st0" d="M544.7,187c0.4-1.2,0.9-2.3,1.5-3.5c0.6-1.1,1.2-2.2,1.9-3.3c1.4-2.1,2.9-4.1,4.7-6
						c0.9-0.9,1.8-1.8,2.7-2.6c0.5-0.4,1-0.8,1.5-1.2c0.3-0.2,0.5-0.4,0.8-0.6l0.8-0.6c2.1-1.5,4.3-2.7,6.6-3.6
						c-2.1,1.4-4.1,2.8-6,4.4c-0.9,0.8-1.9,1.6-2.8,2.5c-0.4,0.4-0.9,0.8-1.3,1.3c-0.4,0.4-0.9,0.9-1.3,1.3
						c-1.7,1.8-3.3,3.7-4.8,5.7c-0.4,0.5-0.7,1-1.1,1.5l-0.5,0.8l-0.5,0.8C546,184.9,545.4,185.9,544.7,187z"/>
				</g>
			</g>
			<g>
				<path class="st0" d="M631.7,222.3c-1.5,0-2.9,0-4.4,0v-4.1h-72v4.1c-1.5,0-3,0-4.4,0c0.1,4.3,0.3,8.5-1.8,12.3
					c0,0.1,0,0.3,0,0.4c0.7,0,1.5,0.1,2.2,0.1c26.7,0,53.4,0,80.1,0c0.7,0,1.5-0.1,2.2-0.1c0-0.1,0-0.3,0-0.4
					C631.4,230.7,631.6,226.5,631.7,222.3z"/>
				<path class="st0" d="M560.3,215.9c-3.8-22.8,14.5-36.2,14.5-36.2c-12,11.5-10.1,33.1-9.7,36.2c20.7,0,41.3,0,62,0
					c0.7-9.2-0.2-18-5.4-25.9c-6.3-9.7-15.3-15.2-26.7-16.7c0-1.7,0-3.2,0-4.9c1.4,0,2.6,0,3.9,0c0-2.4,0-2,0-4.3
					c-5.2,0-10.2,0-15.3,0c0,2.3,0,2,0,4.4c1.4,0,2.7,0,4,0c0,1.6,0,3.1,0,4.7c-24,2.7-35.1,24.8-32.1,42.7
					C557.2,215.9,558.7,215.9,560.3,215.9z"/>
			</g>
		</g>
	</g>
	<g>
		<path class="st0" d="M414.1,256c46.2-1.9,92.3-2.9,138.5-3.6c23.1-0.4,46.2-0.5,69.2-0.8l69.2-0.3l69.2,0.2
			c23.1,0.3,46.2,0.3,69.2,0.8c46.2,0.7,92.3,1.7,138.5,3.6c-46.2,1.9-92.3,2.9-138.5,3.6c-23.1,0.4-46.2,0.5-69.2,0.8l-69.2,0.2
			l-69.2-0.3c-23.1-0.2-46.2-0.3-69.2-0.8C506.4,258.9,460.2,257.9,414.1,256z"/>
		<path class="st0" d="M1067.4,256c6.8-1.3,13.6-1.9,20.4-2.4c6.8-0.4,13.6-0.7,20.4-0.7c6.8,0,13.6,0.2,20.4,0.7
			c6.8,0.5,13.6,1.1,20.4,2.4c-6.8,1.3-13.6,1.9-20.4,2.4c-6.8,0.4-13.6,0.7-20.4,0.7c-6.8,0-13.6-0.2-20.4-0.7
			C1081,257.9,1074.2,257.3,1067.4,256z"/>
		<polygon class="st0" points="414.1,279 483.3,278.2 552.5,277.8 691,277.5 829.4,277.8 898.7,278.2 967.9,279 898.7,279.7 
			829.4,280.2 691,280.5 552.5,280.2 483.3,279.7 		"/>
		<path class="st0" d="M1067.4,279c6.8-0.6,13.6-1,20.4-1.2c6.8-0.2,13.6-0.3,20.4-0.3c6.8,0,13.6,0.1,20.4,0.3
			c6.8,0.2,13.6,0.6,20.4,1.2c-6.8,0.6-13.6,1-20.4,1.2c-6.8,0.2-13.6,0.3-20.4,0.3c-6.8,0-13.6-0.1-20.4-0.3
			C1081,280,1074.2,279.6,1067.4,279z"/>
	</g>
</g>
<path class="st11" d="M286.2,64.5c-0.5-4.9-1.2-9.2-2-13.2c-0.3-1.5-1.1-2.7-2.2-3.4c-1.1-0.7-2.4-0.9-3.7-0.7
	c-2.1,0.4-4.2,0.8-6.3,1.1c-1.2,0.2-2.5,0.4-3.7,0.6c-6.5,1.2-12.9,3.2-18.8,5.9c-5.9,2.8-12,6.5-19.1,11.8c-0.7,0.5-1.3,1-2,1.5
	l-0.3,0.3c-0.3-0.7-0.6-1.3-0.9-1.9c-0.9-1.5-2.3-2.4-3.9-2.8c-1.6-0.3-3.3,0-4.7,1l0,0c-0.5-0.3-1.1-0.4-1.6-0.5l-0.1,0
	c-2.4-0.4-4.4,0.7-5.1,3.1c-0.1,0.3-0.2,0.6-0.3,0.9c-2.8-2.1-5.7-4.1-8.6-6.1c-7.5-5-14.5-8.5-21.5-10.7
	c-5.7-1.8-11.1-2.9-16.4-3.5l-0.2,0c-2.4-0.2-4.8-0.5-7.3-0.3c-2.7,0.2-4.4,1.7-4.5,4.1c0,0.8-0.1,1.7-0.3,2.5
	c-0.9,4.8-1.5,8.8-1.9,12.6c-0.5,4.7-0.9,9.4-1,13.9c-0.2,7.9,0.3,15.8,1.4,23.4c0.9,6,2.3,12.2,4.1,18.4c0.4,1.4,1.4,2.4,2.8,2.9
	c1.1,0.4,2.3,0.6,3.6,0.6c0.2,0,0.5,0,0.7,0c2.2-0.1,4.4-0.5,6.8-1.1c9.2-2.4,17.9-6.3,25.7-11.5c5.8-3.8,10.9-7.6,15.7-11.6
	c0.3,0.4,0.6,0.8,1.1,1c0.8,0.4,1.7,0.8,2.7,1.1c1.5,0.4,3.6,0.8,5.6-0.2c0.5-0.3,2.3-0.6,2.9-0.5c1.7,0.3,2.6-0.3,3.3-1.8
	c0-0.1,0.1-0.2,0.1-0.3c2.5,2.5,5.5,4.9,9.1,7.1c11.3,7.1,24,12.4,38.6,16.3c3.7,1,6,0,8.1-3.4c1-1.7,1.8-3.6,2.3-5.9
	c1.8-7.6,2.7-15.8,2.9-25C287.6,82.3,287.2,73.8,286.2,64.5z M253.2,94.9c0.2,0,0.3-0.1,0.3-0.2l0.3-0.2l-0.2-0.3
	c-0.1-0.2-0.3-0.5-0.9-0.4c-0.1,0-0.2,0-0.3,0c-0.1,0-0.1,0-0.2,0c-5.9,0.2-10.7-0.4-15.1-1.9c-2.9-0.9-5.5-2.3-7.8-4.1
	c-0.5-0.4-0.5-0.6-0.4-0.9l0-0.1c0.1-0.2,0.1-0.5,0.1-0.8c-0.2-1.2,0.4-1.7,1.7-2.3c5.4-2.5,11.3-4.5,17.4-5.9
	c0.2,0,0.3-0.1,0.5-0.1l2.8-0.8l-2.5-0.3c-1.1-0.1-2.1,0-3,0.1c-0.3,0-0.5,0.1-0.8,0.1c-2.3,0.2-5,0.4-7.8,0.9
	c0.8-0.5,1.5-0.9,2.4-1.3c3.7-2,7.8-3.2,12-3.8c3.1-0.4,5.5-0.5,7.7-0.2c0.2,0,0.3,0,0.5,0l2.7,0l-2.1-1c-1.3-0.6-2.4-0.8-3.5-0.9
	c-5.4-0.7-11,0.1-17.5,2.7c-3.3,1.3-6.6,3-10.2,5.3c0,0,0,0,0,0l-0.1-1.6c0-1-0.1-2-0.1-3c0-0.1,0-0.1,0.1-0.2
	c4.3-4,8.9-7.6,13.5-10.7c4.4-2.9,8.5-5.1,12.6-6.6c4.2-1.6,8.6-2.8,13.1-3.7c2.9-0.6,5.9-1,8.6-1.4c1.4-0.2,2.5,0.3,3.2,1.6
	c0.7,1.3,0.9,2.7,1.1,4.1l0.1,0.4c0.5,3,0.8,6.1,1.1,9.1l0.1,0.8c0.2,1.9,0.3,3.8,0.5,5.6c0.3,4.7,0.7,10.4,0.4,16.1
	c-0.2,4.9-0.5,8.9-1.1,12.6l-0.1,0.6c-0.3,1.9-0.6,3.9-1.1,5.7c-1,3.4-2.4,7.3-5.2,10.4c-1.1,1.3-2.2,1.9-3.5,2.1
	c-0.4,0-0.9,0-1.5-0.2c-6.2-2.1-13.4-4.7-20.6-8.2c-3.7-1.8-6.8-3.4-9.8-5.3c-0.1,0-0.1-0.1-0.1-0.1l-0.4-0.3c0,0,0,0,0-0.1l0-0.3
	l-0.2-0.1c-0.2-0.1-0.4-0.1-0.6-0.1l-1.3-0.8l-1.8-1.5c-1.5-1.3-3-2.5-4.5-3.8c-0.9-0.8-1.9-1.7-2.8-2.6c-0.4-0.4-0.8-0.7-1.2-1.1
	c0,0,0,0,0,0l0-0.3c0.1-0.6,0.2-1.2,0.3-1.8c1.3,0.7,2.7,1.2,4,1.7c2.6,0.8,5.4,1.2,8.6,1.2C244.6,96.6,248.7,96.1,253.2,94.9z
	 M221.5,97.5c0.1-0.4,0.3-0.9,0.5-1.4v2.2l0.9-1.7c0.8-1.4,1.1-2.8,1.5-4.3c0.4-1.4,0.6-2.7,0.7-3.9l0-0.2c0-0.4,0.2-1.1-0.6-1.5
	c-0.4-0.2-1-0.2-1.7,0.6c-1.1,1.3-1.6,2.8-2.2,4.5c-0.7,2.1-1.2,4.3-1.6,6.7c-0.2-0.5-0.3-1.2-0.4-2c-0.2-3.8,0.2-7.3,1.2-10.4
	c0,1,0,2-0.1,3.1l-0.3,4l1.2-3.3c0.8-2.1,1.2-3.9,1.3-5.6c0-0.6,0.1-1.6-0.9-2c-1-0.3-1.7,0.5-2,0.9c-1.2,1.6-1.8,3.5-2.2,5
	c-0.7,2.7-1.2,5.5-1.5,8.7c-0.1,1.5,0.1,2.9,0.5,4.1c-0.3-0.1-0.6-0.1-0.9-0.2c-0.3-0.1-0.5-0.2-0.8-0.2c-1.3-0.3-1.5-1.2-1.7-2.7
	l0-0.3c-0.4-3.6-0.4-7.2-0.3-10.9c0.2-6.5,0.7-11.7,1.6-16.5c0.1-0.5,0.3-1.3,0.5-2c0.2-0.6,0.5-0.9,0.8-1.1
	c0.2-0.1,0.3-0.1,0.5-0.1c0.3,0,0.6,0.1,0.9,0.2c0.5,0.2,0.9,0.5,1.3,0.7c0.7,0.4,1.5,0.8,2.4,1.1c0.7,0.2,1.3,0.4,1.8,0.4
	c0.4,0,1.1,0,1.6-0.5c0.4-0.4,0.5-1.1,0.5-1.5c0,0,0,0,0,0c0,0.1,0.1,0.1,0.1,0.2c1.1,1.6,1.6,3.5,1.8,5.8c0.2,2.3,0.2,4.8,0.1,7.6
	c-0.1,4.9-0.6,9.7-1.5,14.2l0,0.2c-0.3,1.5-0.6,2.9-1.1,4.3c-0.1,0.1-0.1,0.2-0.1,0.2c0,0,0,0-0.2,0c-0.1,0-0.2,0-0.3-0.1
	c-1.1-0.3-1.6-0.5-1.8-0.8C221.1,99,221.2,98.5,221.5,97.5z M181.4,80.4l-3.6-0.8l3.3,1.7c1.6,0.8,3.2,1.4,4.8,2
	c3.7,1.4,7.2,2.4,10.7,3.2c4.3,1,8.3,1.4,12.2,1.2c0.1,0,0.3,0,0.4,0c0.1,0,0.2,0,0.3,0c0.1,0.4,0.1,0.8-0.1,1.1
	c-0.2,0.3-0.4,0.5-0.7,0.8c-3.2,3.4-7.3,6.4-13,9.2c-2.2,1.1-4.1,1.9-5.9,2.6l0.3,1c5.5-1,11.9-2.5,17.8-5.7
	c-2.6,3.3-5.2,6.2-7.8,8.7c-6.2,6-13.5,10.5-21.7,13.4c-4.6,1.7-8.5,2.3-12.1,2.1c-3.9-0.2-6.3-1.9-7.5-5.4
	c-1.6-4.8-2.6-9.6-3.3-13.6c-0.8-4.3-1.3-8.7-1.8-13.7c-0.4-4-0.5-8.2-0.2-12.6c0.3-6.2,1-11.1,2.2-15.7c0.5-2,1-4,2-5.9
	c0.8-1.7,2.2-2.5,4.2-2.6c0.2,0,0.4,0,0.6,0c1.4,0,2.8,0.2,4.1,0.4c0.5,0.1,1,0.2,1.5,0.2c3.4,0.4,6.8,1.2,10.2,2.1
	c3.8,1.1,7.6,2.5,11.1,4.3c4.6,2.2,9.1,5.1,13.4,8.6c2.7,2.1,5.2,4.4,7.5,6.6c0.2,0.2,0.3,0.4,0.2,0.8l0,0.3
	c-0.1,0.8-0.2,1.6-0.2,2.5c0,0,0,0,0,0c0,0,0,0,0,0c-3.5-1.5-7.1-2.6-10.6-3.4c-3.2-0.7-6.4-1.1-9.5-1.2c-5.3-0.1-10,0.5-14.4,2
	c-0.5,0.2-0.9,0.4-1.3,0.6l-2.5,1.5l2.9-0.6c11.8-2.6,23-0.7,33.3,5.5C197.8,82.6,189.3,82.1,181.4,80.4z"/>
<g>
	<g>
		<path class="st0" d="M202.9,66.8c-4.2-3.3-8.7-6.3-13.5-8.6c-3.6-1.8-7.3-3.2-11.2-4.3c-3.4-1-6.8-1.7-10.3-2.1
			c-2.1-0.3-4.2-0.7-6.3-0.6c-2.1,0.1-3.7,1-4.6,2.9c-0.9,1.9-1.5,4-2,6c-1.3,5.2-1.9,10.4-2.2,15.7c-0.2,4.2-0.2,8.4,0.2,12.6
			c0.4,4.6,1,9.2,1.8,13.7c0.8,4.6,1.8,9.2,3.3,13.7c1.3,3.9,4.1,5.5,8,5.7c4.3,0.2,8.3-0.7,12.3-2.2c8.2-2.9,15.5-7.5,21.8-13.6
			c3.2-3.1,6.2-6.5,8.9-10.1c0.1-0.1,0.2-0.2,0.1-0.4c-6,3.6-12.6,5.3-19.4,6.6c2-0.8,4-1.6,5.9-2.6c4.9-2.4,9.4-5.2,13.2-9.3
			c0.3-0.3,0.5-0.6,0.8-0.9c0.4-0.5,0.4-1.2,0.2-1.7c-0.1-0.4-0.7-0.1-1.1-0.1c-4.1,0.2-8.1-0.3-12-1.2c-3.6-0.8-7.1-1.9-10.6-3.2
			c-1.6-0.6-3.2-1.2-4.8-2c9.3,2,18.7,2.1,28.1,1.3c-10.8-7-22.4-9.1-35-6.4c0.4-0.2,0.8-0.4,1.2-0.6c4.6-1.6,9.3-2.1,14.2-2
			c3.2,0.1,6.3,0.5,9.4,1.1c3.6,0.8,7.1,1.9,10.6,3.4c0.5,0.2,0.7,0.2,0.7-0.4c0-0.9,0.2-1.8,0.3-2.7c0.1-0.5,0-0.8-0.4-1.2
			C208,71.2,205.5,68.9,202.9,66.8z"/>
	</g>
	<g>
		<path class="st0" d="M224.8,67.6c-0.3-0.4-0.6-0.8-1.2-1c0,0.4,0.1,0.7,0.1,1.1c0,1.1-0.4,1.5-1.5,1.5c-0.6,0-1.1-0.2-1.7-0.3
			c-1.3-0.5-2.4-1.2-3.6-1.8c-1.4-0.6-2.5-0.1-3,1.3c-0.2,0.7-0.3,1.3-0.5,2c-1,5.5-1.4,11-1.6,16.6c-0.1,3.6-0.1,7.3,0.3,10.9
			c0.2,1.4,0.2,3,2.1,3.4c0.8,0.2,1.6,0.6,2.6,0.5c-0.8-1.5-0.9-3-0.8-4.6c0.2-2.9,0.7-5.8,1.4-8.6c0.5-1.7,1-3.4,2.1-4.9
			c0.3-0.4,0.8-0.9,1.4-0.7c0.7,0.2,0.6,0.9,0.6,1.5c-0.1,1.9-0.6,3.7-1.3,5.4c0.1-1.2,0.2-2.5,0.1-3.7c0-0.4,0.2-1-0.2-1.1
			c-0.5-0.1-0.6,0.6-0.7,1c-1.1,3.5-1.5,7-1.3,10.7c0.1,0.9,0.2,1.9,0.7,2.7c0.1,0.2,0.2,0.4,0.4,0.4c0.1,0,0.2-0.3,0.2-0.4
			c0.4-2.4,0.9-4.8,1.7-7.2c0.5-1.6,1-3.1,2.1-4.4c0.3-0.3,0.7-0.7,1.2-0.5c0.5,0.2,0.3,0.7,0.3,1.1c-0.1,1.3-0.4,2.6-0.7,3.8
			c-0.4,1.4-0.7,2.8-1.5,4.2c0-0.7,0-1.4,0-2.3c-0.7,1.2-1.2,2.2-1.5,3.3c-0.6,2-0.6,2.6,1.9,3.3c0.1,0,0.2,0,0.3,0.1
			c0.4,0.1,0.7,0,0.8-0.5c0.6-1.5,0.9-3.1,1.2-4.6c0.9-4.7,1.4-9.5,1.5-14.3c0.1-2.6,0-5.1-0.1-7.7C226.5,71.5,226,69.4,224.8,67.6z
			"/>
	</g>
	<g>
		<path class="st0" d="M283.7,72.7c-0.1-1.9-0.3-3.7-0.5-5.6c-0.3-3.3-0.7-6.6-1.2-9.9c-0.2-1.6-0.4-3.2-1.3-4.7
			c-0.8-1.5-2.1-2.1-3.7-1.9c-2.9,0.4-5.8,0.8-8.7,1.4c-4.5,0.9-8.9,2.1-13.2,3.8c-4.5,1.7-8.7,4-12.7,6.6
			c-4.8,3.2-9.3,6.8-13.6,10.7c-0.2,0.2-0.3,0.3-0.3,0.6c0.1,1.8,0.1,3.5,0.2,5.3c0,0,0.1,0.1,0.1,0.1c0.2-0.1,0.4-0.2,0.6-0.4
			c3.2-2,6.5-3.8,10.1-5.2c5.6-2.2,11.2-3.5,17.3-2.6c1.1,0.1,2.2,0.3,3.4,0.9c-0.4,0-0.6,0-0.9,0c-2.6-0.3-5.2-0.1-7.8,0.2
			c-4.3,0.5-8.4,1.8-12.2,3.8c-1.4,0.8-2.9,1.5-4.1,2.6l0,0c0.6,0,1.1-0.2,1.7-0.3c2.7-0.5,5.4-0.8,8.1-1c1.2-0.1,2.4-0.3,3.7-0.1
			c-0.4,0.1-0.6,0.2-0.8,0.2c-6.1,1.4-11.9,3.3-17.5,6c-1.3,0.6-2.2,1.2-2,2.8c0,0.2,0,0.5-0.1,0.7c-0.1,0.6,0.1,1.1,0.6,1.4
			c2.4,1.9,5.1,3.2,7.9,4.2c5,1.6,10.1,2,15.2,1.9c0.2,0,0.3-0.1,0.5-0.1c0.1,0,0.3-0.1,0.4,0.1c0,0-0.1,0.1-0.1,0.1
			c-4.1,1-8.1,1.7-12.3,1.6c-2.9,0-5.7-0.4-8.5-1.2c-1.4-0.4-2.7-1-4-1.7c-0.2-0.1-0.5-0.4-0.5-0.1c-0.2,0.9-0.3,1.8-0.4,2.8
			c0,0.1,0.1,0.2,0.2,0.3c1.3,1.2,2.6,2.5,3.9,3.7c2,1.8,4.1,3.5,6.2,5.3l0,0l0,0c0.1,0.1,0.1,0.1,0.2,0.2c0,0,0.1,0,0.1,0l1.9,1.2
			c0.2,0.2,0.4,0.3,0.6,0.4c0,0,0,0,0,0l0.5,0.3l0,0c3,1.9,6.1,3.4,9.2,5c6.7,3.2,13.6,5.8,20.7,8.2c0.5,0.2,1.1,0.3,1.7,0.3
			c1.6-0.2,2.8-1.1,3.8-2.2c2.7-3,4.1-6.7,5.3-10.6c0.6-2.1,0.9-4.3,1.2-6.4c0.6-4.2,0.9-8.4,1.1-12.7
			C284.4,83.5,284.1,78.1,283.7,72.7z"/>
	</g>
</g>
<circle class="st0" cx="218.6" cy="147.4" r="9.2"/>
<path class="st11" d="M218.6,157.9c-5.8,0-10.6-4.7-10.6-10.6s4.7-10.6,10.6-10.6s10.6,4.7,10.6,10.6S224.4,157.9,218.6,157.9z
	 M218.6,139.6c-4.3,0-7.7,3.5-7.7,7.7s3.5,7.7,7.7,7.7s7.7-3.5,7.7-7.7S222.9,139.6,218.6,139.6z"/>
<circle class="st0" cx="218.6" cy="214.7" r="9.2"/>
<path class="st11" d="M218.6,225.2c-5.8,0-10.6-4.7-10.6-10.6c0-5.8,4.7-10.6,10.6-10.6s10.6,4.7,10.6,10.6
	C229.2,220.5,224.4,225.2,218.6,225.2z M218.6,206.9c-4.3,0-7.7,3.5-7.7,7.7c0,4.3,3.5,7.7,7.7,7.7s7.7-3.5,7.7-7.7
	C226.4,210.4,222.9,206.9,218.6,206.9z"/>
<circle class="st0" cx="218.1" cy="282" r="9.2"/>
<path class="st11" d="M218.1,292.5c-5.8,0-10.6-4.7-10.6-10.6s4.7-10.6,10.6-10.6c5.8,0,10.6,4.7,10.6,10.6S223.9,292.5,218.1,292.5
	z M218.1,274.2c-4.3,0-7.7,3.5-7.7,7.7c0,4.3,3.5,7.7,7.7,7.7c4.3,0,7.7-3.5,7.7-7.7C225.8,277.7,222.3,274.2,218.1,274.2z"/>
<path class="st0" d="M131.1,47.6c0,0-11.2,198.5,99.7,296.2c0,0-141.5-35.6-184.2-196.4l41.7-41.7H46.6
	C46.6,105.6,55.8,47.6,131.1,47.6z"/>
<path class="st11" d="M230.8,345.6c-0.2,0-0.3,0-0.5-0.1c-0.4-0.1-36.2-9.3-76.7-38.2c-23.8-17-44.6-37.3-61.7-60.4
	c-21.5-28.9-37.3-62.3-47.1-99.2c-0.2-0.6,0-1.3,0.5-1.8l38.5-38.5H46.6c-0.5,0-1.1-0.2-1.4-0.7s-0.5-1-0.4-1.5
	c0.1-0.6,2.5-15.2,14.4-29.9c10.9-13.6,32.3-29.7,71.9-29.7c0.5,0,1,0.2,1.4,0.6c0.4,0.4,0.5,0.9,0.5,1.4c0,0.5-2.7,50.2,8.3,111.1
	c10.1,56.1,34,133.5,90.9,183.6c0.6,0.6,0.8,1.5,0.4,2.3C232.2,345.3,231.5,345.6,230.8,345.6z M48.7,147.9
	c22.1,81.9,70.4,130.3,107.1,156.4c28.7,20.5,55,30.9,67.6,35.2c-22.8-21.7-41.8-49.4-56.7-82.5c-12.9-28.8-22.8-61.6-29.2-97.7
	c-9.7-54.4-8.7-100-8.4-109.9c-29.3,0.4-52.4,10.2-67.1,28.3c-8.7,10.7-12,21.5-13.1,26h39.4c0.8,0,1.4,0.5,1.7,1.2
	c0.3,0.7,0.1,1.5-0.4,2L48.7,147.9z"/>
<path class="st0" d="M304.6,47.6c0,0,20.4,207.1-90.6,304.8c0,0,132.3-44.3,175.1-205.1l-41.7-41.7h41.7
	C389.1,105.6,379.9,47.6,304.6,47.6z"/>
<path class="st11" d="M214,354.3c-0.7,0-1.3-0.3-1.6-0.9c-0.4-0.8-0.3-1.8,0.4-2.3c56.9-50.1,78.3-129.8,86.3-187.9
	c8.6-63,3.7-114.8,3.7-115.3c-0.1-0.5,0.1-1,0.5-1.4c0.4-0.4,0.9-0.6,1.4-0.6c39.6,0,61,16.2,71.9,29.7
	c11.9,14.7,14.3,29.3,14.4,29.9c0.1,0.5-0.1,1.1-0.4,1.5s-0.9,0.7-1.4,0.7h-37.2l38.5,38.5c0.5,0.5,0.7,1.2,0.5,1.8
	c-9.8,36.9-25.2,70.7-45.7,100.5c-16.4,23.8-36.1,45.1-58.5,63.4c-38.2,31-71.8,42.5-72.1,42.6C214.4,354.3,214.2,354.3,214,354.3z
	 M306.7,49.5c0.8,10.3,3.9,57.8-3.9,114.1c-5.1,37.3-13.9,71.2-26.1,100.7c-13.7,33.3-31.9,61-54,82.6c12.5-5.5,36-17.4,61.8-38.3
	c34.6-28.1,80.5-78.8,102.5-160.7l-41-41c-0.5-0.5-0.7-1.3-0.4-2c0.3-0.7,1-1.2,1.7-1.2h39.4c-1.1-4.5-4.5-15.4-13.2-26.1
	C358.9,59.6,335.8,49.9,306.7,49.5z"/>
</svg>
