<?xml version="1.0" encoding="utf-8"?>
<!-- Generator: Adobe Illustrator 21.0.2, SVG Export Plug-In . SVG Version: 6.00 Build 0)  -->
<svg version="1.1" id="Layer_1" xmlns="http://www.w3.org/2000/svg" xmlns:xlink="http://www.w3.org/1999/xlink" x="0px" y="0px"
	 viewBox="0 0 1200 1200" style="enable-background:new 0 0 1200 1200;" xml:space="preserve">
<style type="text/css">
	.st0{fill:#064454;}
	.st1{fill:#AA322A;}
	.st2{fill:#29ABE2;}
	.st3{fill:#8C131B;}
	.st4{fill:#808080;}
	.st5{fill:#64CDF2;}
	.st6{fill:#0071BC;}
	.st7{fill:#2E3192;}
	.st8{fill:#1B1464;}
	.st9{fill:none;}
	.st10{fill:none;stroke:#064454;stroke-width:4;stroke-miterlimit:10;}
	.st11{fill:#043242;}
	.st12{fill:#02252D;}
	.st13{fill:#FFFFFF;}
</style>
<g>
	<g>
		<g>
			<path class="st12" d="M560.2,155.6c-10.9-8.7-22.5-16.2-35-22.4c-9.3-4.6-19-8.3-28.9-11.1c-8.7-2.5-17.6-4.3-26.6-5.5
				c-5.4-0.7-10.8-1.9-16.4-1.7c-5.4,0.2-9.6,2.6-12,7.5c-2.5,5-3.8,10.3-5.2,15.6c-3.5,13.4-5,27-5.7,40.7
				c-0.6,10.9-0.4,21.8,0.6,32.8c1.1,11.9,2.6,23.7,4.7,35.5c2.1,12,4.7,23.9,8.6,35.5c3.5,10.1,10.7,14.2,20.6,14.8
				c11,0.6,21.6-1.9,31.9-5.6c21.4-7.6,40.3-19.3,56.6-35.1c8.4-8.1,15.9-16.9,23-26.2c0.2-0.2,0.6-0.5,0.2-1
				c-15.6,9.3-32.7,13.8-50.3,17.1c5.3-2,10.4-4.3,15.4-6.7c12.6-6.2,24.5-13.6,34.2-24c0.7-0.7,1.4-1.5,2-2.3
				c0.9-1.4,0.9-3.1,0.4-4.4c-0.4-1-1.9-0.3-2.8-0.3c-10.5,0.4-20.9-0.8-31.2-3.1c-9.4-2.1-18.5-4.9-27.5-8.2
				c-4.2-1.5-8.3-3.1-12.3-5.2c24.1,5.1,48.4,5.4,72.9,3.4c-27.9-18.1-58.1-23.7-90.6-16.6c1-0.6,2.1-1.1,3.1-1.4
				c11.9-4.1,24.2-5.5,36.8-5.2c8.2,0.2,16.3,1.2,24.3,3c9.4,2,18.5,5,27.4,8.7c1.3,0.6,1.8,0.4,1.9-1.1c0.1-2.4,0.4-4.7,0.7-7.1
				c0.1-1.2,0-2.2-1-3.1C573.5,166.9,567,161,560.2,155.6z"/>
		</g>
		<g>
			<path class="st12" d="M617.1,157.7c-0.7-1.1-1.6-2.1-3.1-2.5c0.1,1,0.3,1.9,0.3,2.7c0.1,2.9-1,3.9-3.9,3.9
				c-1.5,0-2.9-0.4-4.3-0.9c-3.3-1.2-6.2-3.2-9.4-4.7c-3.5-1.7-6.6-0.4-7.7,3.4c-0.5,1.7-0.9,3.5-1.2,5.2
				c-2.7,14.2-3.8,28.6-4.1,43.1c-0.2,9.5-0.4,18.9,0.7,28.4c0.4,3.7,0.5,7.7,5.4,8.7c2.2,0.5,4.3,1.5,6.8,1.3
				c-2-3.9-2.4-7.9-2.1-11.9c0.6-7.5,1.7-15,3.7-22.2c1.2-4.4,2.5-8.9,5.4-12.6c0.9-1.2,2-2.5,3.7-1.9c1.7,0.6,1.6,2.3,1.5,3.8
				c-0.3,4.9-1.6,9.5-3.3,14.1c0.2-3.2,0.5-6.4,0.4-9.6c0-1,0.5-2.7-0.6-2.9c-1.2-0.2-1.5,1.5-1.9,2.5c-2.9,9-3.8,18.2-3.3,27.6
				c0.1,2.4,0.5,4.8,1.8,7c0.2,0.4,0.4,1.1,1,0.9c0.3-0.1,0.4-0.7,0.5-1.1c1-6.3,2.4-12.5,4.3-18.7c1.3-4,2.6-8,5.4-11.3
				c0.8-0.9,1.8-1.7,3-1.2c1.2,0.5,0.8,1.9,0.7,2.9c-0.3,3.4-1,6.7-1.9,10c-0.9,3.7-1.9,7.3-3.8,10.8c0-1.8,0-3.6,0-6
				c-1.7,3-3,5.6-3.9,8.4c-1.6,5.1-1.6,6.8,4.9,8.5c0.2,0.1,0.5,0.1,0.7,0.2c1.1,0.2,1.7,0,2.2-1.2c1.5-3.9,2.3-8,3.1-12
				c2.4-12.2,3.7-24.6,4-37.1c0.2-6.7,0.1-13.3-0.4-19.9C621.6,167.7,620.2,162.4,617.1,157.7z"/>
		</g>
		<g>
			<path class="st12" d="M769.8,170.9c-0.4-4.8-0.7-9.7-1.2-14.5c-0.9-8.6-1.7-17.2-3-25.7c-0.6-4.2-1.1-8.4-3.3-12.1
				c-2.1-3.8-5.3-5.4-9.6-4.8c-7.5,1-15,2.1-22.5,3.6c-11.7,2.3-23.1,5.5-34.2,9.7c-11.7,4.4-22.5,10.4-32.9,17.2
				c-12.5,8.3-24.2,17.6-35.1,27.8c-0.5,0.4-0.7,0.8-0.7,1.5c0.2,4.6,0.3,9.2,0.5,13.8c0,0.1,0.2,0.1,0.3,0.3c0.5-0.3,1.1-0.6,1.6-1
				c8.3-5.3,17-10,26.2-13.6c14.4-5.7,29.2-9,44.7-6.9c2.8,0.4,5.6,0.9,8.7,2.3c-1.1,0-1.7,0.1-2.2,0c-6.8-0.8-13.6-0.3-20.3,0.6
				c-11.1,1.4-21.7,4.7-31.7,9.9c-3.7,2-7.4,4-10.6,6.8l0.1,0.1c1.5,0.1,2.9-0.5,4.3-0.8c6.9-1.3,13.9-2.1,20.9-2.6
				c3.1-0.2,6.2-0.8,9.6-0.4c-0.9,0.3-1.5,0.5-2.1,0.6c-15.7,3.6-30.9,8.6-45.4,15.5c-3.3,1.6-5.6,3.2-5.1,7.3
				c0.1,0.6-0.1,1.3-0.3,1.9c-0.4,1.7,0.3,2.7,1.6,3.7c6.2,4.8,13.1,8.4,20.6,10.9c12.8,4.3,26.1,5.3,39.5,4.9
				c0.4,0,0.9-0.2,1.3-0.2c0.4,0,0.8-0.3,1.1,0.3c-0.1,0.1-0.2,0.2-0.3,0.2c-10.5,2.6-21.1,4.3-32,4.1c-7.5-0.1-14.8-0.9-21.9-3.1
				c-3.6-1.1-7.1-2.5-10.4-4.3c-0.4-0.2-1.2-1-1.4-0.2c-0.5,2.4-0.8,4.8-1.1,7.2c0,0.2,0.3,0.5,0.5,0.7c3.4,3.2,6.7,6.5,10.2,9.6
				c5.3,4.6,10.7,9.1,16,13.7l0,0l0.1,0.1c0.2,0.1,0.3,0.3,0.5,0.4c0.1,0,0.1,0,0.2,0l5,3.2c0.4,0.5,1.1,0.7,1.6,1
				c0,0,0.1,0,0.1,0.1l1.4,0.9l0,0c7.7,4.8,15.8,8.9,23.9,12.8c17.4,8.4,35.4,15.1,53.6,21.3c1.4,0.5,2.9,0.8,4.5,0.7
				c4.2-0.4,7.2-2.8,9.9-5.8c7-7.9,10.7-17.5,13.7-27.4c1.6-5.4,2.4-11.1,3.2-16.7c1.6-10.9,2.4-21.8,2.9-32.8
				C771.5,198.9,770.9,184.9,769.8,170.9z"/>
		</g>
	</g>
	<path class="st12" d="M600.6,570.1c-11.3,0-20.6-9.2-20.6-20.6s9.2-20.6,20.6-20.6s20.6,9.2,20.6,20.6S612,570.1,600.6,570.1z
		 M600.6,534.5c-8.3,0-15.1,6.8-15.1,15.1c0,8.3,6.8,15.1,15.1,15.1c8.3,0,15.1-6.8,15.1-15.1C615.7,541.3,609,534.5,600.6,534.5z"
		/>
	<path class="st12" d="M600.6,360.6c-11.3,0-20.6-9.2-20.6-20.6s9.2-20.6,20.6-20.6s20.6,9.2,20.6,20.6S612,360.6,600.6,360.6z
		 M600.6,324.9c-8.3,0-15.1,6.8-15.1,15.1s6.8,15.1,15.1,15.1c8.3,0,15.1-6.8,15.1-15.1S609,324.9,600.6,324.9z"/>
	<path class="st12" d="M600.6,465.4c-11.3,0-20.6-9.2-20.6-20.6s9.2-20.6,20.6-20.6s20.6,9.2,20.6,20.6S612,465.4,600.6,465.4z
		 M600.6,429.7c-8.3,0-15.1,6.8-15.1,15.1s6.8,15.1,15.1,15.1c8.3,0,15.1-6.8,15.1-15.1S609,429.7,600.6,429.7z"/>
	<path class="st12" d="M420.3,113.7c0,0-21.8,385.9,194,575.9c0,0-275.1-69.3-358.2-382l81.1-81.1H256
		C256,226.5,273.8,113.7,420.3,113.7z"/>
	<path class="st12" d="M778.3,113.7c0,0,39.9,406.2-177.7,597.9c0,0,259.5-86.8,343.4-402.2l-81.8-81.8H944
		C944,227.5,926,113.7,778.3,113.7z"/>
</g>
<g>
	<g>
		<g>
			<path class="st12" d="M881.5,967.7c12.9-1.1,25.8-1.6,38.7-2c12.9-0.4,25.8-0.6,38.7-0.6c12.9,0,25.8,0.2,38.7,0.5
				c12.9,0.4,25.8,0.9,38.7,2c-12.9,1.1-25.8,1.6-38.7,2c-12.9,0.4-25.8,0.6-38.7,0.5c-12.9,0-25.8-0.2-38.7-0.6
				C907.2,969.4,894.3,968.8,881.5,967.7z"/>
			<path class="st12" d="M888.8,989.4c12.9-0.5,25.8-0.8,38.7-1c12.9-0.2,25.8-0.3,38.7-0.3c12.9,0,25.8,0.1,38.7,0.3
				c12.9,0.2,25.8,0.5,38.7,1c-12.9,0.5-25.8,0.8-38.7,1c-12.9,0.2-25.8,0.3-38.7,0.3c-12.9,0-25.8-0.1-38.7-0.3
				C914.6,990.2,901.7,989.9,888.8,989.4z"/>
			<path class="st12" d="M874.1,955.6c12.9-0.5,25.8-0.8,38.7-1c12.9-0.2,25.8-0.3,38.7-0.3c12.9,0,25.8,0.1,38.7,0.3
				c12.9,0.2,25.8,0.5,38.7,1c-12.9,0.5-25.8,0.8-38.7,1c-12.9,0.2-25.8,0.3-38.7,0.3c-12.9,0-25.8-0.1-38.7-0.3
				C899.9,956.4,887,956.1,874.1,955.6z"/>
		</g>
		<g>
			<path class="st12" d="M163.8,967.7c12.9-1.1,25.8-1.6,38.7-2c12.9-0.4,25.8-0.6,38.7-0.6c12.9,0,25.8,0.2,38.7,0.5
				c12.9,0.4,25.8,0.9,38.7,2c-12.9,1.1-25.8,1.6-38.7,2c-12.9,0.4-25.8,0.6-38.7,0.5c-12.9,0-25.8-0.2-38.7-0.6
				C189.6,969.4,176.7,968.8,163.8,967.7z"/>
			<path class="st12" d="M156.5,989.4c12.9-0.5,25.8-0.8,38.7-1c12.9-0.2,25.8-0.3,38.7-0.3c12.9,0,25.8,0.1,38.7,0.3
				c12.9,0.2,25.8,0.5,38.7,1c-12.9,0.5-25.8,0.8-38.7,1c-12.9,0.2-25.8,0.3-38.7,0.3c-12.9,0-25.8-0.1-38.7-0.3
				C182.2,990.2,169.3,989.9,156.5,989.4z"/>
			<path class="st12" d="M171.2,955.6c12.9-0.5,25.8-0.8,38.7-1c12.9-0.2,25.8-0.3,38.7-0.3c12.9,0,25.8,0.1,38.7,0.3
				c12.9,0.2,25.8,0.5,38.7,1c-12.9,0.5-25.8,0.8-38.7,1c-12.9,0.2-25.8,0.3-38.7,0.3c-12.9,0-25.8-0.1-38.7-0.3
				C197,956.4,184.1,956.1,171.2,955.6z"/>
		</g>
	</g>
	<g>
		<path class="st12" d="M244,1063.1c59.3-1.8,118.7-2.7,178-3.4c29.7-0.4,59.3-0.5,89-0.7l89-0.2l89,0.2c29.7,0.2,59.3,0.3,89,0.7
			c59.3,0.6,118.7,1.6,178,3.4c-59.3,1.8-118.7,2.7-178,3.4c-29.7,0.4-59.3,0.5-89,0.7l-89,0.2l-89-0.2c-29.7-0.2-59.3-0.3-89-0.7
			C362.7,1065.9,303.4,1064.9,244,1063.1z"/>
		<polygon class="st12" points="244,1039 333,1038.3 422,1037.9 600,1037.6 778,1037.9 867,1038.3 956,1039 867,1039.7 778,1040.1 
			600,1040.5 422,1040.1 333,1039.7 		"/>
		<polygon class="st12" points="244,1079.1 333,1078.4 422,1078 600,1077.7 778,1078 867,1078.4 956,1079.1 867,1079.8 778,1080.2 
			600,1080.6 422,1080.2 333,1079.8 		"/>
	</g>
	<g>
		<g>
			<path class="st12" d="M797.1,667.7c7.3,4.3,13.8,9.8,19.9,15.7c1.5,1.5,3,3,4.5,4.5l4.3,4.7c2.7,3.3,5.4,6.6,7.8,10.1
				c2.5,3.4,4.7,7.1,7,10.7l3,5.6c0.5,0.9,1,1.9,1.5,2.8l1.3,2.9c3.7,7.7,6.1,15.9,7.8,24.1c-3.3-7.8-6.5-15.5-10.6-22.8
				c-1.9-3.7-4.1-7.2-6.2-10.8c-2.3-3.5-4.4-7-7-10.3c-4.8-6.8-10-13.3-15.6-19.5C809.3,679.3,803.4,673.3,797.1,667.7z"/>
			<path class="st12" d="M805.6,633.5c10.4,6,19.9,13.7,28.6,22.1c8.8,8.3,16.7,17.6,23.7,27.5c3.6,4.9,6.7,10.1,9.9,15.3l4.3,8
				c0.7,1.4,1.5,2.7,2.1,4l1.8,4.2c5.1,11,8.5,22.7,10.8,34.5c-4.9-11-9.5-22-15.4-32.3l-2.1-3.9c-0.7-1.3-1.5-2.5-2.3-3.8l-4.5-7.6
				l-4.9-7.4c-1.5-2.5-3.3-4.9-5-7.3c-6.8-9.6-14.2-18.9-22.1-27.8C822.7,650.2,814.5,641.6,805.6,633.5z"/>
			<path class="st12" d="M813.9,587.6c7.5,4.2,14.5,9.3,21.3,14.5c6.8,5.3,13.3,11,19.5,17c12.5,11.9,23.8,25.1,33.9,39.2
				c5,7.1,9.7,14.4,14,21.8c2.1,3.8,4.3,7.5,6.2,11.4c1,1.9,2,3.8,2.9,5.8l2.7,5.9c7.1,15.8,12.4,32.3,15.4,49.2
				c-6.6-15.9-13.7-31.3-21.8-46.1c-4.1-7.4-8.4-14.7-12.8-21.8c-2.3-3.5-4.5-7.1-6.9-10.6c-2.3-3.5-4.7-7-7.2-10.4
				c-9.8-13.7-20.3-26.9-31.5-39.6c-2.8-3.2-5.7-6.3-8.5-9.4l-4.3-4.6l-4.4-4.6C826.3,599.4,820.2,593.5,813.9,587.6z"/>
		</g>
		<g>
			<path class="st12" d="M351.5,740.5c1.8-8.3,4.8-16.3,8.4-23.9c0.9-1.9,1.9-3.8,2.9-5.7l3.1-5.6c2.2-3.6,4.5-7.2,7-10.7
				c2.4-3.5,5.2-6.7,7.9-10l4.4-4.7c0.7-0.8,1.4-1.6,2.2-2.3l2.3-2.2c6.1-5.9,13.1-10.9,20.3-15.2c-6.3,5.7-12.6,11.1-18.2,17.4
				c-2.9,3-5.5,6.2-8.2,9.4c-2.5,3.3-5.2,6.5-7.5,9.9c-4.9,6.7-9.3,13.8-13.4,21C358.5,725.3,354.8,732.8,351.5,740.5z"/>
			<path class="st12" d="M316.3,743.5c2.3-11.8,6.6-23.3,11.7-34.2c5.1-11,11.3-21.5,18.4-31.3c3.4-5,7.4-9.6,11.3-14.3l6.2-6.6
				c1.1-1.1,2-2.2,3.2-3.3l3.4-3.1c8.7-8.4,18.8-15.4,29.2-21.4c-8.8,8.2-17.7,16.1-25.6,25l-3,3.3c-1,1.1-1.9,2.2-2.9,3.4l-5.7,6.7
				l-5.4,7c-1.9,2.3-3.6,4.7-5.3,7.1c-6.9,9.6-13.3,19.5-19.2,29.8C326.6,721.9,321.2,732.5,316.3,743.5z"/>
			<path class="st12" d="M270.3,750.5c1.5-8.5,4.1-16.7,6.9-24.9c2.9-8.1,6.1-16.1,9.8-23.9c7.2-15.7,16.1-30.6,26.2-44.7
				c5.1-7,10.5-13.8,16.1-20.3c2.9-3.2,5.7-6.5,8.8-9.5c1.5-1.5,3-3.1,4.6-4.6l4.7-4.4c12.6-11.8,26.6-22.2,41.7-30.4
				c-12.9,11.4-25.2,23-36.6,35.5c-5.7,6.2-11.2,12.6-16.5,19.1c-2.6,3.3-5.3,6.5-7.8,9.9c-2.6,3.3-5.1,6.7-7.5,10.1
				c-9.8,13.7-18.9,27.9-27.3,42.6c-2.1,3.7-4.1,7.4-6.1,11.1l-3,5.6l-2.9,5.7C277.4,734.9,273.8,742.6,270.3,750.5z"/>
		</g>
		<g>
			<path class="st0" d="M875.3,928.2c-10,0-19.9,0-29.9,0V900H353.5v28.3c-10.1,0-20.2,0-30.3,0c0.9,29.5,1.9,58-12.6,84.1
				c0,0.9,0,3.5,0,3.5h577.7c0,0,0-2.7,0-3.5C873.6,986,874.6,957,875.3,928.2z"/>
			<path class="st0" d="M388.1,884.8c-25.7-155.7,99-247.1,99-247.1c-82.2,78.7-68.7,226-66.3,247.1c141.1,0,282.2,0,423.2,0
				c5-63.1-1.6-123-36.6-176.8c-43.2-66.3-104.7-103.7-182.6-113.9c0-11.4,0-21.8,0-33.2c9.4,0,17.7,0,26.8,0c0-16.2,0-13.8,0-29.3
				c-35.2,0-69.6,0-104.3,0c0,15.9,0,13.5,0,30c9.7,0,18.4,0,27.4,0c0,11.2,0,21,0,31.8c-164,18.4-239.8,169.6-219,291.4
				C366.5,884.8,377.3,884.8,388.1,884.8z"/>
		</g>
		<g>
			<path class="st13" d="M438.7,974.8c0-4.8,1.1-9.3,3.4-13.3c2.3-4,5.4-7.1,9.4-9.4c3.9-2.3,8.3-3.4,13.1-3.4c4.7,0,9,1.1,12.8,3.3
				c3.9,2.2,6.9,5.3,9.2,9.2c2.2,3.9,3.3,8.3,3.3,13.1c0,3.7-0.7,7.1-2,10.4c-1.3,3.3-3.2,6.1-5.6,8.4c-2.4,2.4-5.1,4.2-8.1,5.5
				c-3.1,1.3-6.3,1.9-9.9,1.9c-4.7,0-9-1.1-12.9-3.2s-7-5.2-9.3-9.1C439.9,984.4,438.7,979.9,438.7,974.8z M458.8,998.4
				c-4.9-3-8.6-6.5-11.1-10.6c-2.5-4.1-3.7-8.6-3.7-13.4c0-3.7,0.6-7,1.8-9.7c1.2-2.8,2.7-5.2,4.6-7.2c1.9-2,4.3-4.1,7.2-6.3
				c-3.8,1.4-7,3.3-9.6,5.7c-2.6,2.5-4.5,5.3-5.7,8.4c-1.2,3.2-1.8,6.5-1.8,10c0,2.6,0.4,5.1,1.2,7.6s2,4.7,3.5,6.7
				c1.5,2,3.4,3.8,5.7,5.3C453.2,996.4,455.9,997.6,458.8,998.4z M452.8,971.6c0,8,1.2,14.4,3.5,19c2.3,4.6,5.4,6.9,9.1,6.9
				c1.9,0,3.6-0.8,5.3-2.4c1.6-1.6,2.9-3.9,3.9-7c1-3.1,1.4-6.8,1.4-11.3c0-7.9-1-14-3.1-18.4c-2.1-4.4-5-6.6-8.7-6.6
				c-3.6,0-6.4,1.7-8.4,5C453.8,960.1,452.8,965,452.8,971.6z M472.8,995.5c2.8-1.5,5-4,6.5-7.4c1.5-3.4,2.3-7.5,2.3-12.4
				c0-12-3.7-19.9-11.1-23.5c2.6,2.6,4.5,5.9,5.7,9.7c1.2,3.9,1.7,9,1.7,15.5c0,4.1-0.4,7.6-1.3,10.3
				C475.8,990.6,474.5,993.2,472.8,995.5z"/>
			<path class="st13" d="M421,915.6h4.8v25.8h-3.6c-1.8-3.8-3.8-7.2-5.9-10.1c-2.1-2.9-4.4-5.3-6.7-7.2c-2.4-1.9-4.9-3.4-7.5-4.3
				c-2.6-1-5.4-1.4-8.4-1.4c-4,0-7.7,0.9-11,2.7c-3.3,1.8-6.1,4.4-8.4,7.7c-2.3,3.4-4.1,7.4-5.4,12.3c-1.3,4.8-2,10-2,15.4
				c0,7.7,1.3,14.4,3.8,20.4c2.6,5.9,6.1,10.6,10.7,13.9c4.6,3.3,9.8,5,15.7,5c3.6,0,7.1-0.6,10.5-1.8c3.4-1.2,6.6-3,9.6-5.4
				s5.9-5.4,8.6-9.1l3.4,1.9c-4.4,6.3-9.7,11.1-15.8,14.3c-6.1,3.2-13.2,4.8-21.2,4.8c-6.2,0-11.9-1.1-17.2-3.3
				c-5.2-2.2-9.8-5.2-13.6-9.1c-3.8-3.9-6.7-8.4-8.8-13.6c-2-5.2-3.1-10.6-3.1-16.4c0-6.2,1.1-12,3.3-17.3c2.2-5.3,5.3-9.9,9.2-13.8
				s8.4-6.8,13.6-8.9c5.1-2.1,10.6-3.1,16.4-3.1c2.2,0,4.2,0.2,6.1,0.5c1.9,0.3,4.1,0.8,6.7,1.5s4.4,1.2,5.3,1.4
				c0.9,0.2,2,0.3,3.2,0.3C416.4,918.9,419,917.8,421,915.6z M380.2,918.2c-6,2.3-11,5-14.8,8.2c-2.2,1.9-4.2,4-5.9,6.3
				s-3.2,4.8-4.3,7.5c-1.2,2.6-2.1,5.5-2.7,8.5c-0.6,3-1,6-1,8.9c0,7,1.4,13.4,4.3,19.4c2.9,5.9,7.2,10.8,12.9,14.7
				c5.7,3.9,12.5,6.3,20.4,7.2c-5.2-1.4-9.9-3.4-14.1-6c-4.3-2.6-7.9-5.8-10.8-9.5c-3-3.7-5.2-7.7-6.7-12c-1.5-4.3-2.2-8.8-2.2-13.5
				c0-3.9,0.6-8,1.9-12.2c1.3-4.3,3.1-8.1,5.4-11.4c2.6-3.8,5.3-6.8,8.1-9.1C373.3,922.9,376.5,920.6,380.2,918.2z M418.7,930.3
				l-0.3-9.9c-1.8,0.8-3.7,1.2-5.8,1.2c-1,0-1.9-0.1-2.7-0.2c2,1.5,3.6,3,5,4.4C416.1,927.2,417.4,928.7,418.7,930.3z"/>
			<path class="st13" d="M518.8,948.7v7.7c3.3-2.5,6.3-4.4,9.1-5.8c2.8-1.3,6.1-2,9.9-2c11,0,16.5,5.5,16.5,16.4v26.6
				c0,2.5,0.6,4.1,1.8,4.8c1.2,0.7,3,1,5.5,1v3.2h-28.1v-3.2c2.5,0,4.3-0.4,5.4-1.2c1.1-0.8,1.7-2.5,1.7-5V963c0-2.1-0.3-3.8-1-5.2
				c-0.6-1.4-1.6-2.5-2.8-3.2c-1.2-0.7-2.8-1.1-4.5-1.1c-2.2,0-4.4,0.6-6.5,1.7c-2.1,1.1-4.5,2.9-7,5.2v30.8c0,1.7,0.3,3.1,0.9,4
				c0.6,0.9,1.4,1.5,2.4,1.7c1,0.2,2.4,0.4,4.3,0.5v3.2h-28.1v-3.2c2.4,0,4.2-0.3,5.5-1c1.3-0.6,1.9-2.1,1.9-4.4v-25.8
				c0-2.6-0.6-4.6-1.7-6.2c-1.2-1.6-3-2.8-5.7-3.6v-1.9l18.4-5.8H518.8z M507.5,964.3v26.7c0,1.7-0.1,3-0.4,3.8
				c-0.3,0.8-0.8,1.6-1.7,2.6c3.8-0.3,5.7-2.5,5.7-6.4v-27.8c0-1.9-0.7-3.6-2.1-5c-1.4-1.4-3-2.1-4.8-2.1c-0.2,0-0.5,0-1,0.1
				c-0.5,0.1-0.8,0.1-1,0.1C505.8,958.1,507.5,960.7,507.5,964.3z M542.6,962.5v28.7c0,1.2,0,2.1-0.1,2.7c-0.1,0.6-0.2,1.1-0.5,1.6
				c-0.3,0.5-0.7,1.2-1.5,2h1.1c2,0,3.4-0.7,4-2.2c0.7-1.5,1-3.7,1-6.7v-25.8c0-3.3-0.7-5.9-2.2-7.6s-4.1-2.7-7.8-2.9
				c2.1,0.9,3.6,2.1,4.5,3.7C542.2,957.5,542.6,959.7,542.6,962.5z"/>
			<path class="st13" d="M602.2,954.1c0-1-0.5-1.9-1.6-2.7c-1.1-0.7-2.4-1.1-4-1.1c-2.9,0-5.6,0.8-7.9,2.5c-2.4,1.7-4.2,4.1-5.6,7.3
				c-1.3,3.2-2,6.8-2,10.7c0,3.7,0.8,7,2.4,10.1c1.6,3,3.7,5.4,6.4,7c2.7,1.7,5.6,2.5,8.7,2.5c2.6,0,5.3-0.6,8.2-1.8
				c2.9-1.2,5.1-2.7,6.8-4.6l2,2.7c-3.1,4.4-6.7,7.8-11,10.2c-4.3,2.4-8.7,3.6-13.1,3.6c-4.1,0-8.1-1.1-11.8-3.4
				c-3.7-2.3-6.7-5.3-9-9.2c-2.2-3.9-3.4-8.1-3.4-12.7c0-3.7,0.7-7.3,2-10.7c1.4-3.4,3.3-6.4,5.9-9.1c2.5-2.7,5.6-4.7,9.1-6.3
				c3.5-1.5,7.4-2.3,11.6-2.3c3.4,0,6.5,0.5,9.3,1.5s5,2.5,6.6,4.3c1.6,1.8,2.4,3.8,2.4,6c0,1.9-0.7,3.5-2.1,4.7
				c-1.4,1.2-3.1,1.9-5,1.9c-1.7,0-3.2-0.6-4.3-1.8c-1.1-1.2-1.7-2.5-1.7-3.9c0-0.3,0.2-1.2,0.5-2.7
				C602,955.6,602.2,954.6,602.2,954.1z M586.7,950.8c-3.7,1.4-6.9,3.3-9.5,5.8c-2.6,2.4-4.6,5.3-5.9,8.5c-1.4,3.2-2,6.5-2,9.9
				c0,4.5,1.1,8.6,3.3,12.2c2.2,3.6,5,6.4,8.6,8.4c3.6,2,7.2,3,10.8,3c5.3,0,10.3-1.7,15-5.2c-5.1,1.7-9.2,2.5-12.3,2.5
				c-4,0-7.6-0.9-10.9-2.7c-3.3-1.8-5.9-4.3-7.9-7.5c-1.9-3.2-2.9-6.7-2.9-10.7c0-4.5,1.2-8.9,3.5-13.1
				C578.8,957.8,582.2,954.1,586.7,950.8z M603,959.8c0,1.2,0.5,2.2,1.4,2.8c1,0.6,2,0.9,3.1,0.9c0.3,0,1.3-0.2,2.9-0.5
				c-2.4-0.5-3.6-1.7-3.6-3.7c0-0.2,0.1-0.6,0.3-1.3c0.2-0.7,0.3-1.4,0.3-1.9c0-2.1-1.5-3.8-4.5-4.9c0.9,1.2,1.3,2.3,1.3,3.3
				c0,0.7-0.2,1.6-0.5,2.7C603.2,958.3,603,959.2,603,959.8z"/>
			<path class="st13" d="M640.4,948.7v42.1c0,1.8,0.2,3.1,0.6,4c0.4,0.9,1.1,1.5,2.1,1.9c1,0.3,2.6,0.6,4.7,0.6v3.2h-27.2v-3.2
				c2.4-0.1,4.1-0.6,5-1.5c1-0.9,1.4-2.5,1.4-4.8v-26.7c0-1.7-0.6-3.2-1.7-4.7c-1.1-1.4-2.7-2.5-4.8-3.2v-1.9l17.4-6H640.4z
				 M629,964.6v27.7c0,2.3-0.8,4-2.4,5.1c2.1,0,3.7-0.5,4.7-1.5c1-1,1.5-2.6,1.5-4.8v-27.3c0-2.5-0.6-4.4-1.8-5.7
				c-1.2-1.3-2.8-2-4.7-2c-0.9,0-1.6,0-2.2,0.1C627.3,957.9,629,960.7,629,964.6z M633.2,920.3c1.5,0,2.9,0.4,4.1,1.1
				c1.3,0.7,2.3,1.7,3,2.9c0.7,1.2,1.1,2.6,1.1,4.1c0,1.5-0.4,2.8-1.1,4.1c-0.7,1.3-1.7,2.3-3,3c-1.3,0.7-2.7,1.1-4.1,1.1
				c-2.2,0-4.1-0.8-5.7-2.4c-1.6-1.6-2.4-3.6-2.4-5.8c0-1.4,0.4-2.8,1.1-4c0.7-1.3,1.7-2.3,3-3C630.4,920.7,631.8,920.3,633.2,920.3
				z M634.2,922.2c-2.3,0-4.1,0.5-5.3,1.6c-1.2,1.1-1.9,2.6-1.9,4.5c0,1.8,0.6,3.3,1.8,4.5c1.2,1.2,3,1.8,5.4,2
				c-1.2-1.1-2.2-2.1-2.7-3c-0.6-0.9-0.9-2-0.9-3.3C630.6,925.9,631.8,923.8,634.2,922.2z"/>
			<path class="st13" d="M698.2,984.6l2.3,1.8c-1.7,3.3-3.8,5.9-6.2,8c-2.4,2.1-5.1,3.7-8,4.7c-2.9,1-5.9,1.5-9.1,1.5
				c-4.3,0-8.2-1-11.9-3.1c-3.7-2.1-6.6-5-8.7-8.9c-2.1-3.9-3.2-8.3-3.2-13.2c0-3.9,0.7-7.5,2-11c1.3-3.4,3.1-6.4,5.4-9
				c2.3-2.6,5-4.6,8-6.1c3-1.5,6.3-2.2,9.8-2.2c3.5,0,6.8,0.7,10,2.2c3.2,1.5,5.7,3.5,7.5,6c1.4,1.9,2.3,3.8,2.9,5.7
				c0.6,2,1.1,4.3,1.4,7.1h-35.2c0.2,4,0.8,7.5,2.1,10.3c1.2,2.8,2.8,5,4.8,6.8c2,1.7,4,2.9,6.3,3.7c2.2,0.7,4.3,1.1,6.4,1.1
				C689.7,990,694.1,988.2,698.2,984.6z M666.2,953c-7.3,5.7-10.9,13.3-10.9,22.6c0,6.8,2.2,12.3,6.5,16.6c4.3,4.3,9.3,6.4,15,6.4
				c3.3,0,6.6-0.7,9.9-2c3.3-1.3,6.1-3.3,8.4-6c-2.4,1.5-4.8,2.7-7.3,3.7c-2.5,1-5.4,1.4-8.8,1.4c-5.8,0-10.6-2-14.5-6.1
				c-3.9-4-5.8-9.3-5.8-15.8c0-4.1,0.6-7.8,1.9-11.1C662,959.5,663.8,956.3,666.2,953z M665.7,964.4H686v-1.9c0-2.3-0.4-4.3-1.2-6
				s-1.9-3.1-3.4-4.1c-1.4-1-3-1.4-4.9-1.4c-3,0-5.5,1.3-7.5,3.9C667,957.5,665.9,960.7,665.7,964.4z M687.9,964.4h4.1
				c-0.1-4.3-1-7.6-2.7-9.6c-1.7-2.1-4.5-3.5-8.4-4.2c2.5,1.1,4.3,2.6,5.4,4.4c1.1,1.8,1.6,4.6,1.6,8.2V964.4z"/>
			<path class="st13" d="M727.3,948.7v9c3-3.4,5.3-5.7,6.9-7c1.6-1.3,3.5-2,5.8-2c1.9,0,3.6,0.7,4.9,2.1c1.3,1.4,2,3.1,2,5.2
				c0,2.2-0.6,4-1.8,5.4c-1.2,1.5-2.7,2.2-4.5,2.2c-0.8,0-1.7-0.2-2.7-0.5c-1-0.3-1.8-0.7-2.4-1.2c-0.4-0.3-0.8-0.6-1.2-1
				c-0.4-0.3-0.8-0.6-1.1-0.8c-0.3-0.2-0.7-0.3-1.1-0.3c-0.7,0-1.5,0.3-2.2,0.8c-0.7,0.6-1.5,1.4-2.5,2.4v28.1c0,2,0.3,3.5,0.8,4.3
				c0.6,0.9,1.4,1.4,2.6,1.6c1.2,0.2,3.3,0.3,6.2,0.3v3.2h-31.3v-3.2h1.6c4.5,0,6.8-1.8,6.8-5.4v-26.2c0-4.5-2.8-7.5-8.3-9.2v-2
				l18.8-6H727.3z M715.9,965.9v26.5c0,1.3-0.2,2.3-0.6,2.9c-0.4,0.6-1,1.3-1.9,2.1c2.2-0.2,3.8-0.8,4.8-1.8c1-1,1.5-2.7,1.5-5.2
				v-24.6c0-3.3-0.6-5.8-1.7-7.3c-1.2-1.5-3-2.3-5.5-2.3c-0.2,0-0.6,0-1.3,0.1c-0.7,0.1-1.1,0.1-1.3,0.1
				C713.9,958.4,715.9,961.5,715.9,965.9z M731.2,957.7c1,0,2.1,0.3,3.1,1c2.4,1.9,4.4,2.9,6.1,2.9c2,0,3.5-1.3,4.4-3.9
				c-1.1,0.5-1.9,0.8-2.4,0.8c-1.2,0-2.3-0.4-3.5-1.2c-1.5-1.2-2.7-1.8-3.7-1.8C734.4,955.5,733,956.2,731.2,957.7z"/>
			<path class="st13" d="M857.2,984.6l2.3,1.8c-1.7,3.3-3.8,5.9-6.2,8c-2.4,2.1-5.1,3.7-8,4.7c-2.9,1-5.9,1.5-9.1,1.5
				c-4.3,0-8.2-1-11.9-3.1c-3.7-2.1-6.6-5-8.7-8.9c-2.1-3.9-3.2-8.3-3.2-13.2c0-3.9,0.7-7.5,2-11c1.3-3.4,3.1-6.4,5.4-9
				c2.3-2.6,5-4.6,8-6.1c3-1.5,6.3-2.2,9.8-2.2c3.5,0,6.8,0.7,10,2.2c3.2,1.5,5.7,3.5,7.5,6c1.4,1.9,2.3,3.8,2.9,5.7
				c0.6,2,1.1,4.3,1.4,7.1h-35.2c0.2,4,0.8,7.5,2.1,10.3c1.2,2.8,2.8,5,4.8,6.8c2,1.7,4,2.9,6.3,3.7c2.2,0.7,4.3,1.1,6.4,1.1
				C848.7,990,853.2,988.2,857.2,984.6z M825.2,953c-7.3,5.7-10.9,13.3-10.9,22.6c0,6.8,2.2,12.3,6.5,16.6c4.3,4.3,9.3,6.4,15,6.4
				c3.3,0,6.6-0.7,9.9-2c3.3-1.3,6.1-3.3,8.4-6c-2.4,1.5-4.8,2.7-7.3,3.7c-2.5,1-5.4,1.4-8.8,1.4c-5.8,0-10.6-2-14.5-6.1
				c-3.9-4-5.8-9.3-5.8-15.8c0-4.1,0.6-7.8,1.9-11.1C821.1,959.5,822.9,956.3,825.2,953z M824.7,964.4h20.3v-1.9
				c0-2.3-0.4-4.3-1.2-6s-1.9-3.1-3.4-4.1c-1.4-1-3-1.4-4.9-1.4c-3,0-5.5,1.3-7.5,3.9C826,957.5,824.9,960.7,824.7,964.4z
				 M846.9,964.4h4.1c-0.1-4.3-1-7.6-2.7-9.6c-1.7-2.1-4.5-3.5-8.4-4.2c2.5,1.1,4.3,2.6,5.4,4.4c1.1,1.8,1.6,4.6,1.6,8.2V964.4z"/>
			<path class="st9" d="M761.5,975.9c-1.8-2.8-2.7-5.7-2.7-8.7c0-3.2,1-6.3,3.1-9.3c2.1-3,5.2-5.4,9.4-7.5c-3.2,0.4-6.1,1.4-8.6,2.9
				c-2.6,1.6-4.5,3.5-5.9,5.9c-1.4,2.3-2.1,4.8-2.1,7.5c0,3.8,1.2,7.2,3.6,10.1c2.4,2.9,6.1,5,11,6.3
				C766,981.1,763.3,978.7,761.5,975.9z"/>
			<path class="st9" d="M769.5,956c-1.6,2.7-2.4,6.3-2.4,10.6c0,4.9,0.8,8.7,2.5,11.6c1.7,2.9,3.9,4.3,6.7,4.3
				c2.5,0,4.6-1.4,6.1-4.2c1.6-2.8,2.4-6.7,2.4-11.7c0-4.6-0.9-8.2-2.6-10.8c-1.7-2.6-3.9-3.9-6.4-3.9
				C773.2,951.9,771.1,953.3,769.5,956z"/>
			<path class="st9" d="M802,957.7c1.3,1.7,2.5,2.5,3.7,2.5c0.9,0,1.6-0.3,2-0.9c0.5-0.6,0.7-1.3,0.7-1.9c0-0.5-0.2-1.1-0.5-1.7
				c-0.5,0.7-1.2,1-2.2,1c-0.7,0-1.8-0.4-3.3-1.2c-1.4-0.8-2.6-1.2-3.6-1.2c-0.4,0-0.8,0.1-1.1,0.2c-0.4,0.2-0.7,0.3-1,0.4
				c0.3-0.1,0.7-0.1,1.2-0.1C798.9,954.8,800.3,955.8,802,957.7z"/>
			<path class="st9" d="M784.9,957.5c1.1,2.4,1.7,5.6,1.7,9.4c0,7.1-2,12.3-5.9,15.7c6.4-2.1,9.6-7.1,9.6-14.8
				c0-9.4-3.7-14.9-11-16.5C781.9,953,783.8,955.1,784.9,957.5z"/>
			<path class="st9" d="M796.1,1006c-2.6-1.6-6.5-2.4-11.6-2.5c-3.7-0.1-7.4-0.2-11-0.3c-3.7-0.1-6.5-0.3-8.5-0.7
				c-2-0.4-3.5-1.1-4.5-2.1c-1-1-1.5-2.4-1.5-4.3c0-1.3,0.3-2.5,0.9-3.6c0.6-1.1,1.5-2.3,2.6-3.7c-2.3,1.4-4,2.9-5.2,4.4
				c-1.2,1.5-1.7,3.2-1.7,5.2c0,2.5,1.3,4.6,3.9,6.2c2.6,1.6,6,2.5,10.3,2.5c8.7,0.1,14.5,0.2,17.4,0.4c3,0.2,5.6,0.9,8,2.2
				c2.3,1.3,3.5,3.3,3.5,6.2h0.7c0.5-1.1,0.7-2.1,0.7-3.1C800,1009.8,798.7,1007.6,796.1,1006z"/>
			<path class="st9" d="M781.1,1009.1c-4.7,0-8.5,0.3-11.4,0.8c-3,0.5-5.2,1.4-6.8,2.7c-1.1,0.9-1.8,2-2.1,3.3h36
				C796.7,1011.3,791.5,1009.1,781.1,1009.1z"/>
			<path class="st9" d="M764.1,1008.8c-4,0.3-7.1,1.3-9.2,2.8c-1.6,1.2-2.6,2.6-3,4.2h4c0.3-1.2,1-2.2,1.9-3.1
				C759.2,1011.4,761.3,1010.1,764.1,1008.8z"/>
			<path class="st0" d="M798.6,1015.9c0,0.3-0.1,0.9-0.2,1.8c0.4-0.6,0.7-1.2,0.9-1.8L798.6,1015.9
				C798.6,1015.9,798.6,1015.9,798.6,1015.9z"/>
			<g>
				<path class="st13" d="M754.8,1011.6c2.1-1.5,5.2-2.4,9.2-2.8c-2.8,1.3-4.9,2.6-6.4,3.9c-1,0.9-1.6,1.9-1.9,3.1h4.9
					c0.4-1.3,1.1-2.4,2.1-3.3c1.6-1.3,3.9-2.2,6.8-2.7c3-0.5,6.8-0.8,11.4-0.8c10.4,0,15.6,2.3,15.7,6.8h1.9c0-2.9-1.2-5-3.5-6.2
					c-2.4-1.3-5-2-8-2.2c-3-0.2-8.8-0.3-17.4-0.4c-4.3,0-7.8-0.9-10.3-2.5c-2.6-1.7-3.9-3.7-3.9-6.2c0-2,0.6-3.7,1.7-5.2
					c1.2-1.5,2.9-2.9,5.2-4.4c-1.1,1.4-2,2.6-2.6,3.7c-0.6,1.1-0.9,2.3-0.9,3.6c0,1.9,0.5,3.3,1.5,4.3c1,1,2.5,1.7,4.5,2.1
					c2,0.4,4.8,0.6,8.5,0.7c3.7,0.1,7.3,0.2,11,0.3c5.1,0.1,9,1,11.6,2.5c2.6,1.6,3.9,3.8,3.9,6.8c0,0.9-0.2,1.9-0.7,3.1h3
					c0.6-1.7,0.9-3.5,0.9-5.4c0-5.1-1.9-8.7-5.7-10.9c-3.8-2.2-9.5-3.2-17.1-3.2c-2.2,0-4,0-5.3,0c-1.3,0-2.8,0.1-4.4,0.1
					c-4.9,0-7.3-1.4-7.3-4.3c0-2.2,1.2-3.7,3.7-4.5c2.5-0.8,5.9-1.4,10.4-1.7c2.2-0.1,4.2-0.3,6-0.7c1.8-0.3,3.7-1,5.6-2
					c3-1.6,5.4-3.7,7.1-6.5c1.8-2.8,2.7-5.7,2.7-8.8c0-3.5-1.3-6.9-3.8-10.4c0.9-0.6,1.7-0.9,2.3-0.9c0.7,0,1.3,0.2,1.9,0.7
					c0.5,0.4,1.2,1.1,2,2c0.8,0.9,1.5,1.6,2.2,2c0.7,0.4,1.4,0.7,2.2,0.7c1.4,0,2.5-0.5,3.3-1.5c0.9-1,1.3-2.1,1.3-3.3
					c0-1.8-0.7-3.3-2.2-4.5c-1.4-1.2-3.3-1.8-5.5-1.8c-1.6,0-3.2,0.4-5,1.1c-1.7,0.8-3.3,1.8-4.7,3.2c-5.3-4.5-11.4-6.7-18.5-6.7
					c-6.5,0-11.7,1.8-15.7,5.3c-4,3.6-5.9,7.9-5.9,12.9c0,7.8,4.7,13.7,14,17.7c-4.3,1.6-7.6,3.6-9.9,5.9c-2.3,2.3-3.5,4.9-3.5,7.6
					c0,4.2,2.5,7.3,7.5,9.6c-3.7,0.2-6.5,1.3-8.4,3.3c-1.5,1.5-2.4,3.1-2.7,4.9h1.9C752.2,1014.2,753.2,1012.8,754.8,1011.6z
					 M797.8,954.5c0.4-0.2,0.7-0.2,1.1-0.2c1,0,2.2,0.4,3.6,1.2c1.4,0.8,2.5,1.2,3.3,1.2c1,0,1.7-0.3,2.2-1c0.3,0.6,0.5,1.2,0.5,1.7
					c0,0.7-0.2,1.3-0.7,1.9c-0.5,0.6-1.1,0.9-2,0.9c-1.2,0-2.4-0.8-3.7-2.5c-1.7-1.9-3.1-2.9-4.1-2.9c-0.5,0-0.9,0-1.2,0.1
					C797.1,954.8,797.4,954.7,797.8,954.5z M790.3,967.8c0,7.7-3.2,12.7-9.6,14.8c3.9-3.4,5.9-8.6,5.9-15.7c0-3.9-0.6-7-1.7-9.4
					c-1.1-2.4-3-4.5-5.6-6.2C786.6,952.9,790.3,958.4,790.3,967.8z M775.7,951.9c2.5,0,4.6,1.3,6.4,3.9c1.7,2.6,2.6,6.2,2.6,10.8
					c0,5-0.8,9-2.4,11.7c-1.6,2.8-3.6,4.2-6.1,4.2c-2.8,0-5-1.4-6.7-4.3c-1.7-2.9-2.5-6.7-2.5-11.6c0-4.3,0.8-7.9,2.4-10.6
					C771.1,953.3,773.2,951.9,775.7,951.9z M758.5,976.9c-2.4-2.9-3.6-6.3-3.6-10.1c0-2.7,0.7-5.2,2.1-7.5c1.4-2.3,3.4-4.3,5.9-5.9
					c2.6-1.6,5.4-2.6,8.6-2.9c-4.2,2-7.3,4.5-9.4,7.5c-2.1,3-3.1,6-3.1,9.3c0,3,0.9,5.9,2.7,8.7c1.8,2.8,4.4,5.2,8,7.3
					C764.6,981.9,760.9,979.8,758.5,976.9z"/>
				<path class="st0" d="M755.6,1026.1c3.9,2.1,9.6,3.2,17.1,3.2c5.1,0,9.6-0.5,13.5-1.4c3.9-1,7.1-2.3,9.6-3.9
					c2.5-1.7,4.3-3.7,5.5-6c0.4-0.7,0.6-1.4,0.9-2.1h-3c-0.2,0.6-0.5,1.2-0.9,1.8c0.2-0.9,0.2-1.5,0.2-1.8c0,0,0,0,0,0h-1.9
					c0,0,0,0,0,0c0,2.1-0.9,3.9-2.7,5.6c-1.8,1.6-4.3,2.9-7.6,3.8c-3.3,0.9-7.2,1.3-11.7,1.3c-4.5,0-8-0.8-10.5-2.3
					c-2.5-1.6-3.8-3.6-3.8-6.2c0-0.7,0.1-1.4,0.3-2.1h-4.9c-0.2,0.6-0.2,1.2-0.2,1.8c0,3.5,2.3,6.4,6.8,8.8c-3.5-0.8-6.2-2-8-3.6
					c-1.8-1.6-2.7-3.4-2.7-5.4c0-0.6,0.1-1.1,0.2-1.6h-1.9c-0.1,0.6-0.2,1.1-0.2,1.7C749.7,1021.1,751.7,1023.9,755.6,1026.1z"/>
			</g>
		</g>
	</g>
</g>
<path class="st11" d="M-23.9-23.9v1247.7h1247.7V-23.9H-23.9z M1149,600c0,303.2-245.8,549-549,549h0c-303.2,0-549-245.8-549-549v0
	C51,296.8,296.8,51,600,51h0C903.2,51,1149,296.8,1149,600L1149,600z"/>
</svg>
