<?xml version="1.0" encoding="utf-8"?>
<!-- Generator: Adobe Illustrator 21.0.2, SVG Export Plug-In . SVG Version: 6.00 Build 0)  -->
<svg version="1.1" id="Layer_1" xmlns="http://www.w3.org/2000/svg" xmlns:xlink="http://www.w3.org/1999/xlink" x="0px" y="0px"
	 viewBox="0 0 600 600" style="enable-background:new 0 0 600 600;" xml:space="preserve">
<style type="text/css">
	.st0{fill:#064454;}
	.st1{fill:#AA322A;}
	.st2{fill:#29ABE2;}
	.st3{fill:#8C131B;}
	.st4{fill:#808080;}
	.st5{fill:#64CDF2;}
	.st6{fill:#0071BC;}
	.st7{fill:#2E3192;}
	.st8{fill:#1B1464;}
	.st9{fill:none;}
	.st10{fill:#064454;stroke:#29ABE2;stroke-width:3;stroke-miterlimit:10;}
	.st11{fill:#064454;stroke:#29ABE2;stroke-width:4;stroke-linejoin:round;stroke-miterlimit:10;}
</style>
<path class="st0" d="M555,600H46c-24.9,0-45-20.1-45-45V46C1,21.1,21.1,1,46,1h509c24.9,0,45,20.1,45,45v509
	C600,579.9,579.9,600,555,600z"/>
<g>
	<g>
		<g>
			<path class="st5" d="M118.6,424.2h4.6V449h-3.5c-1.8-3.7-3.6-6.9-5.7-9.7c-2-2.8-4.2-5.1-6.5-6.9c-2.3-1.8-4.7-3.2-7.2-4.1
				c-2.5-0.9-5.2-1.4-8.1-1.4c-3.9,0-7.4,0.9-10.6,2.6c-3.2,1.7-5.9,4.2-8.1,7.4c-2.2,3.2-4,7.2-5.2,11.8c-1.3,4.6-1.9,9.6-1.9,14.8
				c0,7.4,1.2,13.9,3.7,19.6s5.9,10.2,10.3,13.4c4.4,3.2,9.4,4.8,15.1,4.8c3.5,0,6.8-0.6,10-1.7c3.2-1.1,6.3-2.9,9.3-5.2
				c2.9-2.3,5.7-5.2,8.2-8.7l3.3,1.8c-4.2,6.1-9.3,10.7-15.2,13.7c-5.9,3.1-12.7,4.6-20.4,4.6c-6,0-11.5-1-16.5-3.1s-9.4-5-13-8.8
				c-3.7-3.7-6.5-8.1-8.4-13.1c-2-5-2.9-10.2-2.9-15.7c0-6,1.1-11.5,3.2-16.7c2.1-5.1,5.1-9.5,8.8-13.2c3.8-3.7,8.1-6.5,13-8.5
				c4.9-2,10.2-3,15.8-3c2.1,0,4,0.2,5.8,0.5c1.8,0.3,4,0.8,6.5,1.5s4.2,1.1,5.1,1.3c0.9,0.2,1.9,0.3,3.1,0.3
				C114.2,427.4,116.7,426.3,118.6,424.2z M79.5,426.7c-5.8,2.2-10.5,4.8-14.2,7.9c-2.1,1.8-4,3.8-5.7,6c-1.6,2.2-3,4.6-4.2,7.2
				c-1.1,2.5-2,5.3-2.6,8.2s-0.9,5.8-0.9,8.6c0,6.7,1.4,12.9,4.1,18.6c2.8,5.7,6.9,10.4,12.4,14.2c5.5,3.8,12,6.1,19.6,6.9
				c-5-1.3-9.5-3.2-13.6-5.8c-4.1-2.5-7.6-5.6-10.4-9.1c-2.9-3.5-5-7.4-6.4-11.6c-1.4-4.2-2.2-8.5-2.2-13c0-3.7,0.6-7.6,1.8-11.8
				c1.2-4.1,2.9-7.7,5.1-10.9c2.5-3.6,5.1-6.5,7.8-8.7C72.8,431.2,75.9,429,79.5,426.7z M116.4,438.3l-0.3-9.5
				c-1.8,0.8-3.6,1.2-5.5,1.2c-0.9,0-1.8-0.1-2.6-0.2c1.9,1.5,3.5,2.9,4.8,4.2C114,435.4,115.2,436.8,116.4,438.3z"/>
			<path class="st5" d="M222.6,456v7.4c3.1-2.4,6-4.3,8.7-5.5c2.7-1.3,5.8-1.9,9.5-1.9c10.6,0,15.8,5.2,15.8,15.7v25.5
				c0,2.4,0.6,4,1.7,4.6c1.2,0.6,2.9,1,5.3,1v3.1h-27v-3.1c2.4,0,4.1-0.4,5.2-1.1c1.1-0.8,1.7-2.4,1.7-4.8v-27c0-2-0.3-3.6-0.9-5
				c-0.6-1.4-1.5-2.4-2.7-3.1c-1.2-0.7-2.6-1.1-4.4-1.1c-2.1,0-4.2,0.6-6.2,1.7c-2,1.1-4.3,2.8-6.7,5v29.6c0,1.7,0.3,3,0.8,3.9
				s1.3,1.5,2.3,1.7s2.3,0.4,4.1,0.4v3.1h-27v-3.1c2.3,0,4-0.3,5.3-0.9c1.2-0.6,1.8-2,1.8-4.2v-24.8c0-2.5-0.6-4.5-1.7-6
				c-1.1-1.5-2.9-2.7-5.4-3.4v-1.8l17.7-5.6H222.6z M211.7,471v25.7c0,1.7-0.1,2.9-0.4,3.6c-0.2,0.7-0.8,1.6-1.6,2.5
				c3.7-0.3,5.5-2.4,5.5-6.1V470c0-1.9-0.7-3.5-2-4.8c-1.3-1.3-2.9-2-4.6-2c-0.2,0-0.5,0-1,0.1c-0.5,0.1-0.8,0.1-1,0.1
				C210.1,465,211.7,467.5,211.7,471z M245.4,469.2v27.6c0,1.2,0,2-0.1,2.5c-0.1,0.5-0.2,1.1-0.4,1.6c-0.2,0.5-0.7,1.1-1.4,1.9h1.1
				c1.9,0,3.2-0.7,3.9-2.2c0.6-1.4,1-3.6,1-6.5v-24.7c0-3.2-0.7-5.7-2.1-7.3c-1.4-1.7-3.9-2.6-7.5-2.7c2,0.8,3.5,2,4.4,3.6
				C245,464.5,245.4,466.6,245.4,469.2z"/>
			<path class="st5" d="M302.6,461.2c0-1-0.5-1.9-1.6-2.5c-1-0.7-2.3-1-3.8-1c-2.8,0-5.3,0.8-7.6,2.4c-2.3,1.6-4.1,4-5.3,7
				c-1.3,3-1.9,6.5-1.9,10.3c0,3.5,0.8,6.8,2.3,9.7c1.5,2.9,3.5,5.1,6.1,6.7c2.6,1.6,5.3,2.4,8.4,2.4c2.5,0,5.1-0.6,7.9-1.7
				c2.7-1.1,4.9-2.6,6.6-4.4l2,2.6c-2.9,4.3-6.5,7.5-10.6,9.8c-4.1,2.3-8.3,3.4-12.6,3.4c-4,0-7.7-1.1-11.3-3.2
				c-3.6-2.2-6.5-5.1-8.6-8.8c-2.1-3.7-3.2-7.8-3.2-12.2c0-3.6,0.7-7,2-10.2c1.3-3.2,3.2-6.1,5.6-8.7c2.4-2.6,5.3-4.6,8.7-6
				c3.4-1.5,7.1-2.2,11.1-2.2c3.3,0,6.3,0.5,9,1.5s4.8,2.4,6.4,4.1c1.5,1.8,2.3,3.7,2.3,5.8c0,1.8-0.7,3.3-2,4.5
				c-1.3,1.2-2.9,1.8-4.8,1.8c-1.7,0-3.1-0.6-4.2-1.8c-1.1-1.2-1.7-2.4-1.7-3.8c0-0.3,0.2-1.1,0.5-2.5
				C302.5,462.7,302.6,461.7,302.6,461.2z M287.8,458c-3.6,1.3-6.6,3.2-9.1,5.5c-2.5,2.4-4.4,5.1-5.7,8.2c-1.3,3.1-2,6.3-2,9.5
				c0,4.4,1,8.3,3.1,11.8c2.1,3.5,4.8,6.2,8.3,8.1c3.4,1.9,6.9,2.9,10.4,2.9c5.1,0,9.9-1.7,14.4-5c-4.9,1.6-8.8,2.4-11.8,2.4
				c-3.8,0-7.3-0.9-10.5-2.6c-3.2-1.7-5.7-4.1-7.6-7.2c-1.9-3.1-2.8-6.5-2.8-10.2c0-4.4,1.1-8.6,3.4-12.6
				C280.2,464.8,283.5,461.2,287.8,458z M303.5,466.7c0,1.2,0.5,2.1,1.4,2.7c0.9,0.6,1.9,0.9,3,0.9c0.3,0,1.2-0.1,2.7-0.4
				c-2.3-0.5-3.5-1.7-3.5-3.6c0-0.1,0.1-0.6,0.3-1.3c0.2-0.7,0.3-1.3,0.3-1.8c0-2.1-1.5-3.6-4.4-4.7c0.8,1.2,1.2,2.2,1.2,3.2
				c0,0.6-0.2,1.5-0.5,2.6C303.7,465.3,303.5,466.1,303.5,466.7z"/>
			<path class="st5" d="M339.4,456v40.5c0,1.7,0.2,3,0.5,3.9c0.4,0.9,1,1.5,2,1.8s2.5,0.5,4.6,0.6v3.1h-26.1v-3.1
				c2.3-0.1,3.9-0.5,4.8-1.4c0.9-0.9,1.4-2.4,1.4-4.6v-25.7c0-1.6-0.5-3.1-1.6-4.5c-1.1-1.4-2.6-2.4-4.6-3.1v-1.8l16.7-5.8H339.4z
				 M328.4,471.3v26.6c0,2.2-0.8,3.8-2.3,4.9c2.1,0,3.6-0.5,4.5-1.4c1-0.9,1.4-2.5,1.4-4.6v-26.3c0-2.4-0.6-4.2-1.7-5.5
				c-1.2-1.3-2.7-1.9-4.5-1.9c-0.9,0-1.5,0-2.1,0.1C326.8,464.9,328.4,467.6,328.4,471.3z M332.5,428.8c1.4,0,2.7,0.3,4,1
				c1.2,0.7,2.2,1.6,2.9,2.8c0.7,1.2,1.1,2.5,1.1,3.9c0,1.4-0.4,2.7-1.1,3.9c-0.7,1.2-1.7,2.2-2.9,2.9c-1.2,0.7-2.6,1.1-4,1.1
				c-2.1,0-4-0.8-5.5-2.4c-1.5-1.6-2.3-3.4-2.3-5.5c0-1.4,0.3-2.7,1-3.9c0.7-1.2,1.6-2.2,2.9-2.9
				C329.8,429.1,331.1,428.8,332.5,428.8z M333.4,430.6c-2.2,0-3.9,0.5-5.1,1.6c-1.2,1-1.8,2.5-1.8,4.3c0,1.8,0.6,3.2,1.7,4.3
				c1.2,1.1,2.9,1.8,5.1,1.9c-1.2-1.1-2.1-2-2.6-2.9c-0.6-0.8-0.8-1.9-0.8-3.2C330,434.1,331.1,432.1,333.4,430.6z"/>
			<path class="st5" d="M394.9,490.5l2.2,1.7c-1.7,3.1-3.7,5.7-6,7.7c-2.3,2-4.9,3.5-7.6,4.5c-2.8,1-5.7,1.5-8.7,1.5
				c-4.1,0-7.9-1-11.4-3c-3.5-2-6.3-4.8-8.4-8.6c-2.1-3.7-3.1-8-3.1-12.7c0-3.7,0.6-7.2,1.9-10.5c1.2-3.3,3-6.2,5.2-8.7
				c2.2-2.5,4.8-4.4,7.7-5.8c2.9-1.4,6.1-2.1,9.4-2.1c3.4,0,6.6,0.7,9.6,2.1c3,1.4,5.5,3.3,7.2,5.8c1.3,1.8,2.2,3.6,2.8,5.5
				c0.6,1.9,1,4.2,1.4,6.8h-33.8c0.1,3.9,0.8,7.2,2,9.9c1.2,2.7,2.7,4.9,4.6,6.5c1.9,1.6,3.9,2.8,6,3.5c2.1,0.7,4.2,1.1,6.1,1.1
				C386.7,495.7,391,493.9,394.9,490.5z M364.2,460.1c-7,5.5-10.5,12.8-10.5,21.7c0,6.5,2.1,11.8,6.2,15.9c4.2,4.1,9,6.2,14.4,6.2
				c3.2,0,6.4-0.6,9.5-1.9c3.2-1.3,5.9-3.2,8.1-5.7c-2.3,1.5-4.6,2.6-7,3.6c-2.4,0.9-5.2,1.4-8.5,1.4c-5.6,0-10.2-1.9-13.9-5.8
				c-3.7-3.9-5.6-8.9-5.6-15.2c0-4,0.6-7.5,1.8-10.6C360.1,466.4,361.9,463.3,364.2,460.1z M363.7,471.1h19.5v-1.8
				c0-2.2-0.4-4.1-1.2-5.8c-0.8-1.7-1.9-3-3.2-3.9c-1.4-0.9-2.9-1.4-4.7-1.4c-2.8,0-5.2,1.3-7.2,3.8
				C364.9,464.5,363.8,467.6,363.7,471.1z M385,471.1h3.9c-0.1-4.2-1-7.3-2.6-9.3c-1.6-2-4.3-3.3-8.1-4c2.4,1.1,4.1,2.5,5.1,4.2
				c1,1.7,1.6,4.4,1.6,7.9V471.1z"/>
			<path class="st5" d="M422.9,456v8.6c2.9-3.2,5.1-5.5,6.6-6.7c1.5-1.2,3.4-1.9,5.5-1.9c1.9,0,3.4,0.7,4.7,2c1.3,1.3,1.9,3,1.9,5
				c0,2.1-0.6,3.8-1.7,5.2c-1.2,1.4-2.6,2.1-4.4,2.1c-0.8,0-1.6-0.1-2.6-0.4c-0.9-0.3-1.7-0.7-2.4-1.2c-0.4-0.3-0.8-0.6-1.2-1
				c-0.4-0.3-0.8-0.6-1.1-0.8c-0.3-0.2-0.7-0.3-1-0.3c-0.7,0-1.4,0.3-2.1,0.8c-0.7,0.5-1.5,1.3-2.4,2.3v27c0,1.9,0.3,3.3,0.8,4.1
				c0.5,0.8,1.4,1.3,2.5,1.5c1.1,0.2,3.1,0.3,6,0.3v3.1h-30.1v-3.1h1.5c4.3,0,6.5-1.7,6.5-5.1v-25.1c0-4.3-2.7-7.2-8-8.8v-1.9
				l18-5.8H422.9z M412,472.5V498c0,1.3-0.2,2.2-0.6,2.8c-0.4,0.6-1,1.3-1.8,2c2.1-0.2,3.7-0.8,4.6-1.7c0.9-1,1.4-2.6,1.4-5v-23.6
				c0-3.2-0.6-5.5-1.7-7c-1.1-1.5-2.9-2.2-5.3-2.2c-0.2,0-0.6,0-1.2,0.1c-0.6,0.1-1.1,0.1-1.3,0.1C410,465.3,412,468.3,412,472.5z
				 M426.6,464.6c1,0,2,0.3,3,1c2.3,1.8,4.3,2.7,5.8,2.7c1.9,0,3.4-1.3,4.3-3.8c-1,0.5-1.8,0.8-2.3,0.8c-1.1,0-2.2-0.4-3.4-1.1
				c-1.4-1.2-2.6-1.7-3.5-1.7C429.7,462.6,428.3,463.3,426.6,464.6z"/>
			<path class="st5" d="M447.5,473.5c0-4.9,1.9-9,5.7-12.4c3.8-3.4,8.8-5.1,15.1-5.1c6.8,0,12.7,2.1,17.7,6.4
				c1.4-1.3,2.9-2.3,4.5-3.1c1.6-0.7,3.2-1.1,4.8-1.1c2.1,0,3.9,0.6,5.3,1.7c1.4,1.2,2.1,2.6,2.1,4.4c0,1.2-0.4,2.3-1.3,3.2
				c-0.8,0.9-1.9,1.4-3.2,1.4c-0.8,0-1.5-0.2-2.2-0.6c-0.7-0.4-1.4-1.1-2.1-2c-0.8-0.9-1.4-1.5-1.9-2c-0.5-0.4-1.1-0.6-1.8-0.6
				c-0.6,0-1.3,0.3-2.2,0.8c2.5,3.3,3.7,6.6,3.7,10c0,3-0.8,5.8-2.5,8.5c-1.7,2.7-4,4.7-6.9,6.2c-1.9,0.9-3.7,1.6-5.4,1.9
				c-1.7,0.3-3.6,0.5-5.7,0.6c-4.3,0.3-7.6,0.8-10,1.6c-2.4,0.8-3.6,2.2-3.6,4.4c0,2.7,2.3,4.1,7,4.1c1.6,0,3-0.1,4.2-0.1
				c1.3,0,2.9,0,5.1,0c7.3,0,12.8,1,16.4,3.1c3.6,2.1,5.5,5.5,5.5,10.4c0,2.6-0.6,5-1.7,7.2c-1.2,2.2-2.9,4.1-5.3,5.7
				c-2.4,1.6-5.4,2.9-9.2,3.8c-3.7,0.9-8.1,1.4-13,1.4c-7.2,0-12.7-1-16.5-3.1c-3.8-2.1-5.7-4.8-5.7-8.2c0-2.4,0.9-4.5,2.8-6.4
				c1.8-1.9,4.5-2.9,8.1-3.1c-4.8-2.1-7.2-5.2-7.2-9.2c0-2.6,1.1-5,3.4-7.3c2.2-2.2,5.4-4.1,9.5-5.7
				C452,486.7,447.5,481,447.5,473.5z M456.6,530.8c-4.4-2.3-6.5-5.1-6.5-8.5c0-1.9,0.7-3.5,2.1-4.8c1.4-1.3,3.4-2.5,6.1-3.8
				c-3.9,0.3-6.8,1.2-8.9,2.7s-3.1,3.3-3.1,5.6c0,1.9,0.9,3.7,2.6,5.2C450.7,528.9,453.2,530,456.6,530.8z M465.3,457.8
				c-3.1,0.4-5.8,1.3-8.3,2.8c-2.5,1.5-4.4,3.4-5.7,5.6c-1.3,2.2-2,4.6-2,7.2c0,3.7,1.2,6.9,3.5,9.7c2.3,2.8,5.9,4.8,10.6,6
				c-3.4-2-6-4.4-7.7-7c-1.7-2.7-2.5-5.4-2.5-8.3c0-3.1,1-6.1,3-8.9C458.3,462.1,461.3,459.7,465.3,457.8z M456.6,494.5
				c-2.2,1.4-3.9,2.8-5,4.2c-1.1,1.4-1.7,3.1-1.7,5c0,2.4,1.2,4.4,3.7,6c2.5,1.6,5.8,2.4,9.9,2.4c8.3,0.1,13.9,0.2,16.8,0.4
				c2.9,0.2,5.4,0.9,7.7,2.1c2.3,1.2,3.4,3.2,3.4,6c0,0.3-0.1,0.8-0.2,1.7c1-1.8,1.5-3.4,1.5-4.7c0-2.8-1.3-5-3.8-6.5
				c-2.5-1.5-6.2-2.3-11.1-2.4c-3.5-0.1-7.1-0.2-10.6-0.3c-3.5-0.1-6.2-0.3-8.1-0.7c-1.9-0.4-3.4-1-4.4-2c-1-1-1.5-2.4-1.5-4.1
				c0-1.2,0.3-2.4,0.9-3.4C454.7,497,455.5,495.8,456.6,494.5z M468.5,530.8c4.3,0,8.1-0.4,11.2-1.2c3.2-0.8,5.6-2,7.3-3.6
				c1.7-1.6,2.6-3.4,2.6-5.3c0-4.4-5-6.5-15.1-6.5c-4.5,0-8.1,0.2-11,0.7c-2.8,0.5-5,1.4-6.5,2.6c-1.5,1.3-2.3,3-2.3,5.1
				c0,2.5,1.2,4.5,3.6,6C460.8,530,464.2,530.8,468.5,530.8z M478,473.2c0-4.4-0.8-7.9-2.5-10.4c-1.7-2.5-3.7-3.8-6.1-3.8
				c-2.4,0-4.4,1.3-6,3.9c-1.6,2.6-2.4,6-2.4,10.2c0,4.7,0.8,8.4,2.4,11.1c1.6,2.8,3.7,4.1,6.4,4.1c2.4,0,4.4-1.3,5.9-4
				C477.3,481.8,478,478.1,478,473.2z M472.9,458.5c2.5,1.6,4.2,3.6,5.3,5.9c1.1,2.3,1.7,5.3,1.7,9.1c0,6.8-1.9,11.8-5.7,15.1
				c6.1-2.1,9.2-6.8,9.2-14.2C483.4,465.3,479.9,460,472.9,458.5z M500.3,462.7c-0.4,0.7-1.1,1-2.1,1c-0.7,0-1.8-0.4-3.1-1.1
				c-1.4-0.8-2.5-1.1-3.5-1.1c-0.4,0-0.7,0.1-1.1,0.2c-0.4,0.1-0.7,0.3-1,0.4c0.3-0.1,0.7-0.1,1.1-0.1c1,0,2.3,0.9,3.9,2.7
				c1.2,1.6,2.4,2.4,3.5,2.4c0.9,0,1.5-0.3,2-0.9c0.4-0.6,0.7-1.2,0.7-1.8C500.8,463.8,500.6,463.3,500.3,462.7z"/>
			<path class="st5" d="M547.7,490.5l2.2,1.7c-1.7,3.1-3.7,5.7-6,7.7c-2.3,2-4.9,3.5-7.6,4.5c-2.8,1-5.7,1.5-8.7,1.5
				c-4.1,0-7.9-1-11.4-3c-3.5-2-6.3-4.8-8.4-8.6c-2.1-3.7-3.1-8-3.1-12.7c0-3.7,0.6-7.2,1.9-10.5c1.2-3.3,3-6.2,5.2-8.7
				c2.2-2.5,4.8-4.4,7.7-5.8c2.9-1.4,6.1-2.1,9.4-2.1c3.4,0,6.6,0.7,9.6,2.1c3,1.4,5.5,3.3,7.2,5.8c1.3,1.8,2.2,3.6,2.8,5.5
				c0.6,1.9,1,4.2,1.4,6.8h-33.8c0.1,3.9,0.8,7.2,2,9.9c1.2,2.7,2.7,4.9,4.6,6.5c1.9,1.6,3.9,2.8,6,3.5c2.1,0.7,4.2,1.1,6.1,1.1
				C539.5,495.7,543.8,493.9,547.7,490.5z M517,460.1c-7,5.5-10.5,12.8-10.5,21.7c0,6.5,2.1,11.8,6.2,15.9c4.2,4.1,9,6.2,14.4,6.2
				c3.2,0,6.4-0.6,9.5-1.9c3.2-1.3,5.9-3.2,8.1-5.7c-2.3,1.5-4.6,2.6-7,3.6c-2.4,0.9-5.2,1.4-8.5,1.4c-5.6,0-10.2-1.9-13.9-5.8
				c-3.7-3.9-5.6-8.9-5.6-15.2c0-4,0.6-7.5,1.8-10.6C512.9,466.4,514.7,463.3,517,460.1z M516.5,471.1H536v-1.8
				c0-2.2-0.4-4.1-1.2-5.8s-1.9-3-3.2-3.9c-1.4-0.9-2.9-1.4-4.7-1.4c-2.8,0-5.2,1.3-7.2,3.8C517.7,464.5,516.7,467.6,516.5,471.1z
				 M537.8,471.1h3.9c-0.1-4.2-1-7.3-2.6-9.3c-1.6-2-4.3-3.3-8.1-4c2.4,1.1,4.1,2.5,5.1,4.2c1,1.7,1.6,4.4,1.6,7.9V471.1z"/>
			<g>
				<g>
					<g>
						<path class="st5" d="M183.4,464c0.8,0.4,1.5,0.9,2.2,1.4c0.2,0.1,0.3,0.3,0.5,0.4l0.5,0.4c0.3,0.3,0.6,0.6,0.9,1
							c0.3,0.3,0.6,0.7,0.8,1l0.4,0.6c0.1,0.1,0.1,0.2,0.2,0.3l0.2,0.3c0.5,0.8,0.8,1.6,1,2.4c-0.4-0.8-0.8-1.5-1.3-2.3
							c-0.2-0.4-0.5-0.7-0.7-1.1c-0.3-0.3-0.5-0.7-0.8-1c-0.6-0.7-1.2-1.3-1.8-1.9C184.8,465.1,184.1,464.5,183.4,464z"/>
						<path class="st5" d="M184,460.3c1.1,0.5,2.2,1.2,3.2,2c1,0.8,1.9,1.7,2.7,2.6c0.4,0.5,0.8,1,1.2,1.5l0.5,0.8
							c0.1,0.1,0.2,0.3,0.3,0.4l0.2,0.4c0.6,1.1,1.1,2.3,1.5,3.5c-0.6-1.1-1.2-2.2-1.9-3.2l-0.3-0.4c-0.1-0.1-0.2-0.2-0.3-0.4
							l-0.5-0.7l-0.6-0.7c-0.2-0.2-0.4-0.5-0.6-0.7c-0.8-0.9-1.7-1.8-2.6-2.7C185.9,461.9,184.9,461.1,184,460.3z"/>
						<path class="st5" d="M184.4,455.5c0.8,0.4,1.6,0.8,2.3,1.3c0.8,0.5,1.5,1,2.2,1.6c1.4,1.1,2.7,2.4,3.9,3.7
							c0.6,0.7,1.1,1.4,1.7,2.1c0.3,0.4,0.5,0.7,0.8,1.1c0.1,0.2,0.2,0.4,0.4,0.6l0.3,0.6c0.9,1.6,1.6,3.2,2.1,5
							c-0.8-1.6-1.7-3.1-2.7-4.6c-0.5-0.7-1-1.4-1.5-2.1c-0.3-0.3-0.5-0.7-0.8-1c-0.3-0.3-0.6-0.7-0.8-1c-1.1-1.3-2.4-2.6-3.7-3.8
							c-0.3-0.3-0.7-0.6-1-0.9l-0.5-0.4l-0.5-0.4C185.8,456.6,185.1,456.1,184.4,455.5z"/>
					</g>
					<g>
						<path class="st5" d="M140.3,471.8c0.3-0.8,0.7-1.6,1.2-2.3c0.1-0.2,0.2-0.4,0.4-0.5l0.4-0.5c0.3-0.3,0.6-0.7,0.9-1
							c0.3-0.3,0.6-0.6,1-0.9l0.5-0.4c0.1-0.1,0.2-0.1,0.3-0.2l0.3-0.2c0.7-0.5,1.5-0.9,2.3-1.3c-0.7,0.5-1.5,1-2.1,1.5
							c-0.3,0.3-0.7,0.6-1,0.9c-0.3,0.3-0.6,0.6-0.9,0.9c-0.6,0.6-1.2,1.3-1.7,2C141.3,470.4,140.8,471.1,140.3,471.8z"/>
						<path class="st5" d="M136.7,471.7c0.4-1.2,1-2.3,1.7-3.4c0.7-1.1,1.5-2.1,2.3-3c0.4-0.5,0.9-0.9,1.4-1.3l0.7-0.6
							c0.1-0.1,0.2-0.2,0.4-0.3l0.4-0.3c1-0.7,2.2-1.3,3.3-1.8c-1,0.7-2,1.4-3,2.2l-0.4,0.3c-0.1,0.1-0.2,0.2-0.3,0.3l-0.7,0.6
							l-0.7,0.6c-0.2,0.2-0.4,0.4-0.6,0.7c-0.8,0.9-1.6,1.8-2.4,2.8C138,469.6,137.3,470.6,136.7,471.7z"/>
						<path class="st5" d="M131.8,471.7c0.3-0.9,0.7-1.7,1.1-2.5c0.4-0.8,0.9-1.6,1.3-2.3c1-1.5,2.1-2.9,3.3-4.2
							c0.6-0.7,1.3-1.3,1.9-1.9c0.3-0.3,0.7-0.6,1-0.9c0.2-0.1,0.4-0.3,0.5-0.4l0.5-0.4c1.5-1,3.1-1.9,4.7-2.6c-1.5,1-2.9,2-4.3,3.1
							c-0.7,0.6-1.3,1.1-2,1.7c-0.3,0.3-0.6,0.6-0.9,0.9c-0.3,0.3-0.6,0.6-0.9,0.9c-1.2,1.3-2.3,2.6-3.4,4c-0.3,0.3-0.5,0.7-0.8,1.1
							l-0.4,0.5l-0.4,0.5C132.8,470.2,132.3,471,131.8,471.7z"/>
					</g>
				</g>
				<g>
					<path class="st5" d="M193.6,496.8c-1,0-2.1,0-3.1,0v-2.9h-51.2v2.9c-1.1,0-2.1,0-3.2,0c0.1,3.1,0.2,6-1.3,8.7
						c0,0.1,0,0.2,0,0.3c0.5,0,1.1,0.1,1.6,0.1c19,0,37.9,0,56.9,0c0.5,0,1.1-0.1,1.6-0.1c0-0.1,0-0.2,0-0.3
						C193.4,502.8,193.5,499.8,193.6,496.8z"/>
					<path class="st5" d="M142.9,492.3c-2.7-16.2,10.3-25.7,10.3-25.7c-8.5,8.2-7.1,23.5-6.9,25.7c14.7,0,29.4,0,44,0
						c0.5-6.6-0.2-12.8-3.8-18.4c-4.5-6.9-10.9-10.8-19-11.8c0-1.2,0-2.3,0-3.5c1,0,1.8,0,2.8,0c0-1.7,0-1.4,0-3
						c-3.7,0-7.2,0-10.9,0c0,1.7,0,1.4,0,3.1c1,0,1.9,0,2.9,0c0,1.2,0,2.2,0,3.3c-17.1,1.9-24.9,17.6-22.8,30.3
						C140.7,492.3,141.8,492.3,142.9,492.3z"/>
				</g>
			</g>
		</g>
		<g>
			<path class="st5" d="M39.1,520.8c32.8-1.3,65.5-2.1,98.3-2.5c16.4-0.3,32.8-0.4,49.2-0.5l49.2-0.2l49.2,0.2
				c16.4,0.2,32.8,0.2,49.2,0.5c32.8,0.5,65.5,1.2,98.3,2.5c-32.8,1.4-65.5,2.1-98.3,2.5c-16.4,0.3-32.8,0.4-49.2,0.5l-49.2,0.2
				l-49.2-0.2c-16.4-0.2-32.8-0.2-49.2-0.5C104.6,522.8,71.8,522.1,39.1,520.8z"/>
			<path class="st5" d="M503,520.8c4.8-0.9,9.7-1.4,14.5-1.7c4.8-0.3,9.7-0.5,14.5-0.5c4.8,0,9.7,0.1,14.5,0.5
				c4.8,0.3,9.7,0.8,14.5,1.7c-4.8,0.9-9.7,1.4-14.5,1.7c-4.8,0.3-9.7,0.5-14.5,0.5c-4.8,0-9.7-0.2-14.5-0.5
				C512.7,522.1,507.8,521.7,503,520.8z"/>
			<polygon class="st5" points="39.1,537.1 88.2,536.5 137.4,536.2 235.7,536 334,536.2 383.2,536.5 432.3,537.1 383.2,537.6 
				334,537.9 235.7,538.1 137.4,537.9 88.2,537.6 			"/>
			<path class="st5" d="M503,537.1c4.8-0.4,9.7-0.7,14.5-0.8c4.8-0.2,9.7-0.2,14.5-0.2c4.8,0,9.7,0.1,14.5,0.2
				c4.8,0.2,9.7,0.4,14.5,0.8c-4.8,0.5-9.7,0.7-14.5,0.8c-4.8,0.2-9.7,0.2-14.5,0.2c-4.8,0-9.7-0.1-14.5-0.2
				C512.7,537.7,507.8,537.5,503,537.1z"/>
		</g>
	</g>
	<g>
		<g>
			<path class="st2" d="M372.5,80c-0.5-4.7-1.2-9.4-2.1-14.1c-0.6-2.8-2.9-4.5-5.7-3.9c-3.6,0.7-7.1,1.2-10.7,1.9
				c-6.9,1.2-13.6,3.3-20,6.3c-7.3,3.4-13.9,7.8-20.3,12.5c-1,0.7-2,1.5-3,2.3c-0.3-0.9-0.7-1.8-1.2-2.5c-1.9-3-5.6-3.7-8.4-1.7
				c-0.2,0.1-0.3,0.3-0.6,0.1c-0.5-0.4-1.1-0.5-1.7-0.6c-2.3-0.4-4.1,0.7-4.8,2.9c-0.2,0.5-0.3,1.1-0.5,1.7
				c-3.2-2.4-6.5-4.7-9.8-6.9c-7.1-4.8-14.6-8.8-22.8-11.4c-5.7-1.8-11.5-3.1-17.4-3.7c-2.6-0.3-5.2-0.5-7.9-0.4
				c-2.5,0.2-4.2,1.5-4.3,3.9c-0.1,0.9-0.2,1.8-0.3,2.7c-0.8,4.5-1.5,9-2,13.5c-0.6,4.9-0.9,9.9-1,14.8c-0.2,8.3,0.3,16.6,1.5,24.9
				c1,6.6,2.5,13.1,4.4,19.5c0.4,1.4,1.3,2.3,2.7,2.8c1.4,0.5,2.9,0.7,4.4,0.6c2.4-0.1,4.8-0.5,7.2-1.2c9.8-2.5,18.9-6.6,27.3-12.2
				c5.9-3.9,11.7-8.1,17.2-12.7c0.3,0.6,0.7,1.1,1.2,1.4c0.9,0.4,1.8,0.9,2.8,1.1c1.9,0.5,3.8,0.7,5.6-0.2c0.7-0.3,2.6-0.7,3.5-0.5
				c1.6,0.2,2.3-0.2,3-1.7c0.1-0.3,0.3-0.7,0.4-1c3,3.2,6.5,5.8,10.2,8.1c12.8,8,26.6,13.5,41.1,17.3c3.8,1,6-0.1,8-3.4
				c1.1-1.9,1.9-4,2.4-6.1c2.1-8.7,2.9-17.6,3.1-26.6C374,98.3,373.5,89.1,372.5,80z M292.5,90.7c-0.1,1-0.2,1.9-0.3,2.9
				c0,0.6-0.2,0.7-0.8,0.5c-3.6-1.5-7.4-2.8-11.3-3.6c-3.3-0.7-6.6-1.1-10-1.2c-5.2-0.1-10.2,0.5-15.2,2.1c-0.4,0.1-0.9,0.3-1.3,0.6
				c13.4-2.9,25.8-0.6,37.3,6.8c-10.1,0.8-20.1,0.7-30-1.4c1.6,0.9,3.4,1.5,5.1,2.1c3.7,1.4,7.5,2.5,11.3,3.4
				c4.2,0.9,8.5,1.4,12.9,1.3c0.4,0,1-0.3,1.2,0.1c0.2,0.6,0.2,1.3-0.2,1.8c-0.2,0.3-0.5,0.7-0.8,1c-4,4.3-8.9,7.3-14.1,9.9
				c-2.1,1-4.2,2-6.3,2.8c7.3-1.4,14.3-3.2,20.7-7c0.2,0.2,0,0.3-0.1,0.4c-2.9,3.8-6,7.5-9.5,10.8c-6.7,6.5-14.5,11.3-23.3,14.5
				c-4.2,1.5-8.6,2.6-13.1,2.3c-4.1-0.2-7.1-1.9-8.5-6.1c-1.6-4.8-2.7-9.7-3.6-14.6c-0.9-4.8-1.5-9.7-1.9-14.6
				c-0.4-4.5-0.5-9-0.3-13.5c0.3-5.7,0.9-11.3,2.3-16.8c0.6-2.2,1.1-4.4,2.1-6.4c1-2,2.7-3,5-3.1c2.3-0.1,4.5,0.4,6.7,0.7
				c3.7,0.5,7.4,1.3,11,2.3c4.1,1.2,8.1,2.7,11.9,4.6c5.1,2.5,9.9,5.7,14.4,9.2c2.8,2.2,5.5,4.6,8.1,7.1
				C292.5,89.8,292.5,90.2,292.5,90.7z M309.6,97.9c-0.1,5.1-0.7,10.2-1.7,15.3c-0.3,1.7-0.7,3.4-1.3,5c-0.2,0.5-0.5,0.6-0.9,0.5
				c-0.1,0-0.2,0-0.3-0.1c-2.7-0.7-2.7-1.4-2-3.5c0.4-1.1,0.9-2.2,1.6-3.5c0,1,0,1.7,0,2.5c0.8-1.4,1.2-2.9,1.6-4.4
				c0.3-1.4,0.6-2.7,0.8-4.1c0-0.4,0.2-1-0.3-1.2c-0.5-0.2-0.9,0.1-1.2,0.5c-1.2,1.4-1.7,3-2.2,4.7c-0.8,2.5-1.3,5.1-1.8,7.7
				c0,0.2-0.1,0.4-0.2,0.5c-0.3,0.1-0.3-0.2-0.4-0.4c-0.5-0.9-0.7-1.9-0.7-2.9c-0.2-3.9,0.1-7.7,1.3-11.4c0.1-0.4,0.3-1.1,0.8-1
				c0.5,0.1,0.2,0.8,0.3,1.2c0.1,1.3-0.1,2.6-0.1,4c0.7-1.9,1.2-3.8,1.3-5.8c0-0.6,0.1-1.3-0.6-1.6c-0.7-0.2-1.1,0.3-1.5,0.8
				c-1.2,1.5-1.7,3.4-2.2,5.2c-0.8,3-1.3,6.1-1.5,9.2c-0.1,1.7,0.1,3.3,0.9,4.9c-1,0.1-1.9-0.3-2.8-0.5c-2-0.4-2.1-2.1-2.2-3.6
				c-0.4-3.9-0.4-7.8-0.3-11.7c0.1-6,0.6-11.9,1.7-17.7c0.1-0.7,0.3-1.4,0.5-2.2c0.4-1.5,1.7-2.1,3.2-1.4c1.3,0.6,2.5,1.5,3.9,2
				c0.6,0.2,1.2,0.4,1.8,0.4c1.2,0,1.6-0.4,1.6-1.6c0-0.4-0.1-0.7-0.1-1.1c0.6,0.1,1,0.6,1.3,1c1.3,1.9,1.9,4.1,2,6.4
				C309.6,92.4,309.7,95.1,309.6,97.9z M370.8,106c-0.2,4.5-0.5,9-1.2,13.5c-0.3,2.3-0.7,4.6-1.3,6.9c-1.2,4.1-2.7,8-5.6,11.3
				c-1.1,1.2-2.3,2.2-4.1,2.4c-0.7,0.1-1.3-0.1-1.9-0.3c-7.5-2.6-14.9-5.3-22.1-8.8c-3.6-1.7-7.1-3.5-10.5-5.7c0,0-0.1-0.1-0.1-0.1
				l-0.5-0.3c-0.1-0.1-0.2-0.2-0.2-0.4c-0.2-0.1-0.3-0.1-0.5,0l-1.6-1.1c-2.2-1.9-4.5-3.8-6.7-5.7c-1.4-1.3-2.8-2.6-4.2-4
				c-0.1-0.1-0.2-0.2-0.2-0.3c0.1-1,0.2-2,0.5-3c0.1-0.4,0.4,0,0.6,0.1c1.4,0.7,2.8,1.3,4.3,1.8c2.9,0.9,6,1.2,9,1.3
				c4.5,0.1,8.9-0.6,13.2-1.7c0,0,0.1-0.1,0.1-0.1c-0.1-0.2-0.3-0.1-0.4-0.1c-0.2,0-0.4,0.1-0.5,0.1c-5.5,0.2-11-0.3-16.3-2
				c-3.1-1-5.9-2.5-8.5-4.5c-0.5-0.4-0.8-0.9-0.7-1.5c0.1-0.3,0.1-0.5,0.1-0.8c-0.2-1.7,0.7-2.3,2.1-3c6-2.8,12.3-4.9,18.7-6.4
				c0.2-0.1,0.5-0.1,0.9-0.2c-1.4-0.2-2.7,0.1-4,0.2c-2.9,0.2-5.8,0.5-8.6,1.1c-0.6,0.1-1.2,0.4-1.8,0.3c0,0-0.1,0.1-0.1,0.1
				c-0.1-0.1,0-0.1,0.1-0.1c1.3-1.2,2.8-2,4.4-2.8c4.1-2.2,8.5-3.5,13-4.1c2.8-0.4,5.6-0.5,8.4-0.2c0.2,0,0.5,0,0.9,0
				c-1.3-0.6-2.4-0.8-3.6-0.9c-6.4-0.9-12.5,0.5-18.4,2.8c-3.8,1.5-7.3,3.4-10.8,5.6c-0.2,0.1-0.4,0.3-0.7,0.4
				c-0.1,0-0.1-0.1-0.1-0.1c-0.1-1.9-0.1-3.8-0.2-5.7c0-0.3,0.1-0.4,0.3-0.6c4.5-4.2,9.3-8.1,14.5-11.5c4.3-2.8,8.7-5.3,13.6-7.1
				c4.6-1.7,9.3-3.1,14.1-4c3.1-0.6,6.2-1.1,9.3-1.5c1.7-0.2,3.1,0.4,3.9,2c0.9,1.6,1.1,3.3,1.3,5c0.5,3.5,0.9,7,1.2,10.6
				c0.2,2,0.4,4,0.5,6C370.8,94.5,371.1,100.2,370.8,106z"/>
			<g>
				<path class="st0" d="M284,82.4c-4.5-3.6-9.3-6.7-14.4-9.2c-3.8-1.9-7.8-3.4-11.9-4.6c-3.6-1-7.3-1.8-11-2.3
					c-2.2-0.3-4.5-0.8-6.7-0.7c-2.2,0.1-3.9,1.1-5,3.1c-1,2-1.6,4.2-2.1,6.4c-1.4,5.5-2,11.1-2.3,16.8c-0.2,4.5-0.2,9,0.3,13.5
					c0.5,4.9,1.1,9.8,1.9,14.6c0.9,5,1.9,9.9,3.6,14.6c1.4,4.1,4.4,5.9,8.5,6.1c4.5,0.3,8.9-0.8,13.1-2.3c8.8-3.1,16.6-8,23.3-14.5
					c3.5-3.3,6.6-7,9.5-10.8c0.1-0.1,0.3-0.2,0.1-0.4c-6.4,3.8-13.5,5.7-20.7,7c2.2-0.8,4.3-1.8,6.3-2.8c5.2-2.6,10.1-5.6,14.1-9.9
					c0.3-0.3,0.6-0.6,0.8-1c0.4-0.6,0.4-1.3,0.2-1.8c-0.2-0.4-0.8-0.1-1.2-0.1c-4.3,0.2-8.6-0.3-12.9-1.3c-3.9-0.9-7.6-2-11.3-3.4
					c-1.7-0.6-3.4-1.3-5.1-2.1c9.9,2.1,20,2.2,30,1.4c-11.5-7.4-23.9-9.8-37.3-6.8c0.4-0.3,0.9-0.4,1.3-0.6c4.9-1.7,10-2.3,15.2-2.1
					c3.4,0.1,6.7,0.5,10,1.2c3.9,0.8,7.6,2,11.3,3.6c0.5,0.2,0.7,0.2,0.8-0.5c0-1,0.2-1.9,0.3-2.9c0.1-0.5,0-0.9-0.4-1.3
					C289.4,87,286.8,84.6,284,82.4z"/>
				<path class="st0" d="M307.4,83.3c-0.3-0.5-0.6-0.9-1.3-1c0.1,0.4,0.1,0.8,0.1,1.1c0,1.2-0.4,1.6-1.6,1.6c-0.6,0-1.2-0.2-1.8-0.4
					c-1.4-0.5-2.6-1.3-3.9-2c-1.4-0.7-2.7-0.2-3.2,1.4c-0.2,0.7-0.4,1.4-0.5,2.2c-1.1,5.9-1.5,11.8-1.7,17.7
					c-0.1,3.9-0.2,7.8,0.3,11.7c0.2,1.5,0.2,3.2,2.2,3.6c0.9,0.2,1.8,0.6,2.8,0.5c-0.8-1.6-1-3.2-0.9-4.9c0.2-3.1,0.7-6.2,1.5-9.2
					c0.5-1.8,1-3.7,2.2-5.2c0.4-0.5,0.8-1,1.5-0.8c0.7,0.2,0.7,1,0.6,1.6c-0.1,2-0.7,3.9-1.3,5.8c0.1-1.3,0.2-2.6,0.1-4
					c0-0.4,0.2-1.1-0.3-1.2c-0.5-0.1-0.6,0.6-0.8,1c-1.2,3.7-1.6,7.5-1.3,11.4c0.1,1,0.2,2,0.7,2.9c0.1,0.2,0.2,0.5,0.4,0.4
					c0.1,0,0.2-0.3,0.2-0.5c0.4-2.6,1-5.2,1.8-7.7c0.5-1.7,1.1-3.3,2.2-4.7c0.3-0.4,0.8-0.7,1.2-0.5c0.5,0.2,0.3,0.8,0.3,1.2
					c-0.1,1.4-0.4,2.8-0.8,4.1c-0.4,1.5-0.8,3-1.6,4.4c0-0.7,0-1.5,0-2.5c-0.7,1.2-1.2,2.3-1.6,3.5c-0.6,2.1-0.7,2.8,2,3.5
					c0.1,0,0.2,0.1,0.3,0.1c0.4,0.1,0.7,0,0.9-0.5c0.6-1.6,0.9-3.3,1.3-5c1-5,1.5-10.1,1.7-15.3c0.1-2.7,0-5.5-0.2-8.2
					C309.3,87.4,308.7,85.2,307.4,83.3z"/>
				<path class="st0" d="M370.4,88.7c-0.1-2-0.3-4-0.5-6c-0.4-3.5-0.7-7.1-1.2-10.6c-0.3-1.7-0.5-3.4-1.3-5c-0.9-1.6-2.2-2.2-3.9-2
					c-3.1,0.4-6.2,0.9-9.3,1.5c-4.8,1-9.5,2.3-14.1,4c-4.8,1.8-9.3,4.3-13.6,7.1c-5.2,3.4-10,7.3-14.5,11.5
					c-0.2,0.2-0.3,0.3-0.3,0.6c0.1,1.9,0.1,3.8,0.2,5.7c0,0,0.1,0.1,0.1,0.1c0.2-0.1,0.4-0.3,0.7-0.4c3.4-2.2,7-4.1,10.8-5.6
					c5.9-2.3,12-3.7,18.4-2.8c1.2,0.2,2.3,0.4,3.6,0.9c-0.5,0-0.7,0-0.9,0c-2.8-0.3-5.6-0.1-8.4,0.2c-4.6,0.6-8.9,1.9-13,4.1
					c-1.5,0.8-3.1,1.6-4.4,2.8l0,0c0.6,0,1.2-0.2,1.8-0.3c2.8-0.6,5.7-0.8,8.6-1.1c1.3-0.1,2.5-0.3,4-0.2c-0.4,0.1-0.6,0.2-0.9,0.2
					c-6.5,1.5-12.7,3.6-18.7,6.4c-1.4,0.6-2.3,1.3-2.1,3c0,0.2-0.1,0.5-0.1,0.8c-0.1,0.7,0.1,1.1,0.7,1.5c2.6,2,5.4,3.5,8.5,4.5
					c5.3,1.8,10.8,2.2,16.3,2c0.2,0,0.4-0.1,0.5-0.1c0.1,0,0.3-0.1,0.4,0.1c0,0-0.1,0.1-0.1,0.1c-4.3,1.1-8.7,1.8-13.2,1.7
					c-3.1,0-6.1-0.4-9-1.3c-1.5-0.4-2.9-1-4.3-1.8c-0.2-0.1-0.5-0.4-0.6-0.1c-0.2,1-0.3,2-0.5,3c0,0.1,0.1,0.2,0.2,0.3
					c1.4,1.3,2.8,2.7,4.2,4c2.2,1.9,4.4,3.8,6.6,5.6l0,0l0,0c0.1,0.1,0.1,0.1,0.2,0.2c0,0,0.1,0,0.1,0l2.1,1.3
					c0.2,0.2,0.4,0.3,0.7,0.4c0,0,0,0,0,0l0.6,0.4l0,0c3.2,2,6.5,3.7,9.9,5.3c7.2,3.4,14.6,6.2,22.1,8.8c0.6,0.2,1.2,0.3,1.9,0.3
					c1.7-0.2,3-1.2,4.1-2.4c2.9-3.2,4.4-7.2,5.6-11.3c0.7-2.2,1-4.6,1.3-6.9c0.7-4.5,1-9,1.2-13.5
					C371.1,100.2,370.8,94.5,370.4,88.7z"/>
			</g>
		</g>
		<circle class="st10" cx="300.8" cy="168.5" r="9.8"/>
		<circle class="st10" cx="300.8" cy="240.4" r="9.8"/>
		<circle class="st10" cx="300.2" cy="312.3" r="9.8"/>
		<path class="st11" d="M207.3,61.9c0,0-12,212,106.6,316.4c0,0-151.1-38.1-196.8-209.8l44.6-44.6h-44.6
			C117.1,123.8,126.9,61.9,207.3,61.9z"/>
		<path class="st11" d="M392.7,61.9c0,0,21.7,221.3-96.8,325.6c0,0,141.3-47.3,187-219.1l-44.6-44.6h44.6
			C482.9,123.8,473.1,61.9,392.7,61.9z"/>
	</g>
</g>
</svg>
