<?xml version="1.0" encoding="utf-8"?>
<!-- Generator: Adobe Illustrator 21.0.2, SVG Export Plug-In . SVG Version: 6.00 Build 0)  -->
<svg version="1.1" id="Layer_1" xmlns="http://www.w3.org/2000/svg" xmlns:xlink="http://www.w3.org/1999/xlink" x="0px" y="0px"
	 viewBox="0 0 576 410" style="enable-background:new 0 0 576 410;" xml:space="preserve">
<style type="text/css">
	.st0{fill:#BFACB8;}
	.st1{fill:#B7E274;}
	.st2{fill:#EDA966;}
	.st3{fill:#2D3E5B;}
	.st4{fill:#241C22;}
	.st5{fill-rule:evenodd;clip-rule:evenodd;fill:#131313;}
	.st6{fill-rule:evenodd;clip-rule:evenodd;fill:#808080;}
	.st7{fill-rule:evenodd;clip-rule:evenodd;fill:#CCCCCC;stroke:#000000;stroke-width:0.5669;stroke-miterlimit:22.9256;}
	.st8{fill-rule:evenodd;clip-rule:evenodd;fill:#B3B3B3;}
	.st9{fill-rule:evenodd;clip-rule:evenodd;fill:#4C4C4C;}
	.st10{fill-rule:evenodd;clip-rule:evenodd;fill:#FFD100;}
	.st11{fill:#131313;}
	.st12{fill-rule:evenodd;clip-rule:evenodd;fill:#EEB700;}
	.st13{fill-rule:evenodd;clip-rule:evenodd;fill:#DDDDDD;}
	.st14{fill-rule:evenodd;clip-rule:evenodd;fill:#FFFFFF;}
	.st15{fill-rule:evenodd;clip-rule:evenodd;fill:#E6E6E6;}
	.st16{fill-rule:evenodd;clip-rule:evenodd;fill:#FFE56B;}
	.st17{opacity:0.5;fill-rule:evenodd;clip-rule:evenodd;fill:#FFFFFF;}
	.st18{fill:#FFEB7A;}
	.st19{fill:#F7B500;}
	.st20{fill:#EB9D00;}
	.st21{fill:#CCDDFF;}
	.st22{fill:#FFCA00;}
	.st23{fill:#B6B7B8;}
	.st24{fill:#F0F0F0;}
	.st25{fill:#D4D5D7;}
	.st26{fill:#C7C8C9;}
	.st27{fill:#E5E6E8;}
	.st28{fill:#DBDBDB;}
	.st29{fill:#BCF1FF;}
	.st30{fill:#68D6F9;}
	.st31{fill:#DBDCDE;}
	.st32{opacity:0.3;fill:#55D6D2;}
	.st33{enable-background:new    ;}
	.st34{fill:#414D54;}
	.st35{fill:#5F7078;}
	.st36{fill:#B0ACA8;}
	.st37{fill:#FFF9F5;}
	.st38{fill:#D4CFCB;}
	.st39{fill:#8B9B00;}
	.st40{fill:#566000;}
	.st41{fill:#93A300;}
	.st42{fill:#FDA713;}
	.st43{fill:#FD8813;}
	.st44{fill:#FDB813;}
	.st45{fill:#840C0C;}
	.st46{fill:#F71616;}
	.st47{fill:#8B0C0C;}
	.st48{fill:#96180C;}
	.st49{fill:#F12613;}
	.st50{fill:#D12110;}
	.st51{fill:#D14436;}
	.st52{fill:#B1C2E3;}
	.st53{fill:#A9BBDF;}
	.st54{fill:#D0D9EA;}
	.st55{fill:#B7C4DF;}
	.st56{fill:#D7D8DA;}
	.st57{fill:#E1E4EA;}
	.st58{fill:#868687;}
	.st59{fill:#BFCBE3;}
	.st60{clip-path:url(#SVGID_2_);enable-background:new    ;}
	.st61{clip-path:url(#SVGID_4_);enable-background:new    ;}
	.st62{fill:#71C6DB;}
	.st63{fill:#49B8B5;}
	.st64{fill:#374246;}
	.st65{fill:#56676E;}
	.st66{fill:#89D8E8;}
	.st67{fill:#60A8BA;}
	.st68{clip-path:url(#SVGID_6_);enable-background:new    ;}
	.st69{fill:#174969;}
	.st70{clip-path:url(#SVGID_8_);}
	.st71{fill:#72CFE3;}
	.st72{fill:#BBC3D3;}
	.st73{fill:#A4B0C8;}
	.st74{fill:#FFD900;}
	.st75{fill:#093F61;}
	.st76{fill:#0A4B73;}
	.st77{fill:#0B507A;}
	.st78{fill:#9C493F;}
	.st79{fill:#DE4B38;}
	.st80{fill:#FA8778;}
	.st81{fill:#07334E;}
	.st82{fill:#025074;}
	.st83{fill:#71CFF3;}
	.st84{fill:#FAFBFD;}
	.st85{fill:#7AA6AE;}
	.st86{fill:#88B9C3;}
	.st87{clip-path:url(#SVGID_10_);enable-background:new    ;}
	.st88{fill:#9ED7E2;}
	.st89{clip-path:url(#SVGID_12_);enable-background:new    ;}
	.st90{fill:#7EACB5;}
	.st91{fill:#6F979E;}
	.st92{fill:#557379;}
	.st93{fill:#64616C;}
	.st94{fill:#BDBDBD;}
	.st95{fill:#ECC6AF;}
	.st96{fill:#969696;}
	.st97{fill:#D7D7D7;}
	.st98{fill:#7A7A7A;}
	.st99{fill:#8E8A80;}
	.st100{fill:#E2E8F2;}
	.st101{fill:#DAE1EB;}
	.st102{fill:#ECECEC;}
	.st103{fill:#E6EDF7;}
	.st104{fill:#C1D8F7;}
	.st105{fill:#2574A8;}
	.st106{fill:#844810;}
	.st107{fill:#D9E6F7;}
	.st108{fill:#22A6EF;}
	.st109{fill:#6BB8EF;}
	.st110{fill:#F26E30;}
	.st111{fill:#FCE5F3;}
	.st112{fill:#FCCCE9;}
	.st113{fill:#CCA5BD;}
	.st114{fill:#FDB5E3;}
	.st115{fill:#EDF4F9;}
	.st116{fill:url(#SVGID_13_);}
	.st117{fill:url(#SVGID_14_);}
	.st118{fill:url(#SVGID_15_);}
	.st119{fill:url(#SVGID_16_);}
	.st120{fill:url(#SVGID_17_);}
	.st121{fill:url(#SVGID_18_);}
	.st122{fill:url(#SVGID_19_);}
	.st123{fill:url(#SVGID_20_);}
	.st124{fill:url(#SVGID_21_);}
	.st125{fill:url(#SVGID_22_);}
	.st126{fill:url(#SVGID_23_);}
	.st127{fill:#FEC111;}
	.st128{fill:#FA624E;}
	.st129{fill:#BD1630;}
	.st130{fill:#FF627B;}
	.st131{clip-path:url(#SVGID_25_);enable-background:new    ;}
	.st132{clip-path:url(#SVGID_27_);enable-background:new    ;}
	.st133{clip-path:url(#SVGID_29_);enable-background:new    ;}
	.st134{clip-path:url(#SVGID_31_);}
	.st135{fill:#A1B400;}
	.st136{fill:#B3D246;}
	.st137{fill:#798700;}
	.st138{fill:#230E01;}
	.st139{fill:#5B3520;}
	.st140{fill:#9F9B90;}
	.st141{fill:#2B1101;}
	.st142{fill:#5A3520;}
	.st143{fill:#692901;}
	.st144{fill:#3D1701;}
	.st145{fill:#4A2C1A;}
	.st146{fill:#4C1C01;}
	.st147{fill:#572201;}
	.st148{clip-path:url(#SVGID_33_);enable-background:new    ;}
	.st149{clip-path:url(#SVGID_35_);enable-background:new    ;}
	.st150{opacity:0.3;}
	.st151{fill:#55D6D2;}
	.st152{fill:#C2D288;}
	.st153{fill:#829100;}
	.st154{clip-path:url(#SVGID_37_);enable-background:new    ;}
	.st155{clip-path:url(#SVGID_39_);enable-background:new    ;}
	.st156{fill:#EDDACE;}
	.st157{fill:#FFFFFF;}
	.st158{fill:#EDCAB4;}
	.st159{fill:#1D2225;}
	.st160{fill:#171B1D;}
	.st161{fill:#2B3236;}
	.st162{fill:#1D2124;}
	.st163{fill:#8B9895;}
	.st164{fill:#191919;}
	.st165{fill:#141414;}
	.st166{fill:#252525;}
	.st167{fill:#707B78;}
	.st168{fill:#8C9A97;}
	.st169{fill:url(#SVGID_40_);}
	.st170{fill:url(#SVGID_41_);}
	.st171{fill:url(#SVGID_42_);}
	.st172{fill:url(#SVGID_43_);}
	.st173{fill:url(#SVGID_44_);}
	.st174{fill:url(#SVGID_45_);}
	.st175{fill:url(#SVGID_46_);}
	.st176{fill:url(#SVGID_47_);}
	.st177{fill:url(#SVGID_48_);}
	.st178{fill:url(#SVGID_49_);}
	.st179{fill:url(#SVGID_50_);}
	.st180{clip-path:url(#SVGID_52_);enable-background:new    ;}
	.st181{clip-path:url(#SVGID_54_);enable-background:new    ;}
	.st182{clip-path:url(#SVGID_56_);enable-background:new    ;}
	.st183{clip-path:url(#SVGID_58_);}
	.st184{fill:#CAED4F;}
	.st185{fill:#F25B14;}
	.st186{opacity:0.8;}
	.st187{fill:#0084FF;}
	.st188{fill:#13D5FD;}
	.st189{fill:#0FACCC;}
	.st190{fill:#68E3FD;}
	.st191{fill:#E49B1D;}
	.st192{fill:#FEFEFF;}
	.st193{fill:#F85B30;}
	.st194{fill:#CCCCCC;}
	.st195{fill:#FF4A39;}
	.st196{fill:#F29163;}
	.st197{fill:#C45927;}
	.st198{fill:#5AC3F2;}
	.st199{fill:#079FE3;}
	.st200{fill:#0FB4E7;}
	.st201{fill:#008BC9;}
	.st202{fill:#2C1A22;}
	.st203{fill:#351F29;}
	.st204{fill:#3E242F;}
	.st205{fill:#37202A;}
	.st206{fill:#E5DEFF;}
	.st207{fill:#AAAEE8;}
	.st208{fill:#878AB8;}
	.st209{fill:#D3C7FF;}
	.st210{fill:#8B5231;}
	.st211{fill:#EDC7AF;}
	.st212{fill:#F0E5DF;}
	.st213{fill:#FFAA00;}
	.st214{fill:#D4602A;}
	.st215{fill:#FFBB00;}
	.st216{fill:#F5EEDD;}
	.st217{fill:#082034;}
	.st218{fill:#B73D34;}
	.st219{fill:#B53100;}
	.st220{fill:#D3830D;}
	.st221{fill:#D1DCE6;}
	.st222{fill:#0C2F4B;}
	.st223{fill:#CC3700;}
	.st224{fill:#EB5A49;}
	.st225{fill:#FBAB20;}
	.st226{fill:url(#SVGID_59_);}
	.st227{fill:url(#SVGID_60_);}
	.st228{fill:url(#SVGID_61_);}
	.st229{fill:url(#SVGID_62_);}
	.st230{fill:url(#SVGID_63_);}
	.st231{fill:url(#SVGID_64_);}
	.st232{fill:url(#SVGID_65_);}
	.st233{fill:url(#SVGID_66_);}
	.st234{fill:url(#SVGID_67_);}
	.st235{fill:#374859;}
	.st236{fill:#1F2B35;}
	.st237{fill:#9C9C9C;}
	.st238{fill:#919191;}
	.st239{fill:#5BD2D9;}
	.st240{fill:#357B7F;}
	.st241{fill:#398388;}
	.st242{fill:#F9F9F9;}
	.st243{fill:#388224;}
	.st244{fill:#D9F9FF;}
	.st245{fill:#F9A908;}
	.st246{fill:#3A800D;}
	.st247{fill:#4CA611;}
	.st248{fill:#FFF4DE;}
	.st249{fill:#F8BE3B;}
	.st250{fill:#C7F6FF;}
	.st251{fill:#59AA0D;}
	.st252{fill:#60AE18;}
	.st253{fill:#5BBC08;}
	.st254{fill:#50B431;}
	.st255{fill:#F81616;}
	.st256{fill:#0C5D8F;}
	.st257{fill:#FFA323;}
	.st258{fill:#7295AA;}
	.st259{fill:#FF8D23;}
	.st260{fill:#FFB923;}
	.st261{fill:#072E47;}
	.st262{fill:#E4EBF0;}
	.st263{fill:#F5F5F2;}
	.st264{fill:#C7CCD1;}
	.st265{fill:#BEC2C7;}
	.st266{fill:#DBE1E6;}
	.st267{fill:#BD9649;}
	.st268{fill:#655027;}
	.st269{fill:#927438;}
	.st270{fill:#B48F45;}
	.st271{fill:#704227;}
	.st272{fill:#4E2E1B;}
	.st273{fill:#4E2D1B;}
	.st274{fill:#915533;}
	.st275{fill:#CFD4D5;}
	.st276{fill:url(#SVGID_68_);}
	.st277{fill:#B8B9BA;}
	.st278{fill:#C8D1E3;}
	.st279{clip-path:url(#SVGID_70_);}
	.st280{opacity:0.2;fill:#00EBFF;}
	.st281{opacity:0.4;fill:#00EBFF;}
	.st282{clip-path:url(#SVGID_72_);enable-background:new    ;}
	.st283{clip-path:url(#SVGID_74_);enable-background:new    ;}
	.st284{clip-path:url(#SVGID_76_);enable-background:new    ;}
	.st285{clip-path:url(#SVGID_78_);enable-background:new    ;}
	.st286{clip-path:url(#SVGID_80_);enable-background:new    ;}
	.st287{clip-path:url(#SVGID_82_);enable-background:new    ;}
	.st288{clip-path:url(#SVGID_84_);enable-background:new    ;}
	.st289{clip-path:url(#SVGID_86_);}
	.st290{fill:#90DAFD;}
	.st291{fill:#19B4FD;}
	.st292{fill:#138DC7;}
	.st293{fill:#56C7FD;}
	.st294{fill:#B2B2B2;}
	.st295{fill:#378A87;}
	.st296{fill:#4ABBB8;}
	.st297{fill:#40A19E;}
	.st298{fill:#358683;}
	.st299{fill:#1E2022;}
	.st300{fill:#9E9E9E;}
	.st301{fill:#7B7B7B;}
	.st302{fill:#999999;}
	.st303{fill:#DFB100;}
	.st304{fill:#BF9800;}
	.st305{fill:#9F7E00;}
	.st306{fill:#9F5713;}
	.st307{fill:#3E9C99;}
	.st308{fill:#303437;}
	.st309{fill:#B1D132;}
	.st310{fill:#D3D3D3;}
	.st311{fill:#A55B14;}
	.st312{fill:#838383;}
	.st313{fill:#2B2E31;}
	.st314{fill:#F1C40F;}
	.st315{clip-path:url(#SVGID_88_);enable-background:new    ;}
	.st316{clip-path:url(#SVGID_90_);enable-background:new    ;}
	.st317{fill:#2D6986;}
	.st318{fill:#3B89AF;}
	.st319{clip-path:url(#SVGID_92_);enable-background:new    ;}
	.st320{clip-path:url(#SVGID_94_);enable-background:new    ;}
	.st321{clip-path:url(#SVGID_96_);enable-background:new    ;}
	.st322{clip-path:url(#SVGID_98_);}
	.st323{fill:#50B8EA;}
	.st324{fill:#FDCF60;}
	.st325{fill:#EDD9CC;}
	.st326{fill:#EDAF87;}
	.st327{fill:#FEF7E5;}
	.st328{fill:#55A1C2;}
	.st329{fill:#62C3ED;}
	.st330{fill:#2EABE3;}
	.st331{fill:#2792C2;}
	.st332{fill:#61B8DE;}
	.st333{fill:#70D4FF;}
	.st334{fill:#8854EA;}
	.st335{fill:#8D8E87;}
	.st336{fill:#B9B9B0;}
	.st337{fill:#CDE7F3;}
	.st338{fill:#D3DDDF;}
	.st339{fill:#E9E9EA;}
	.st340{opacity:0.1;fill:#1F1D1B;}
	.st341{fill:#606365;}
	.st342{fill:#D8D9DA;}
	.st343{opacity:0.6;fill:#FFFFFF;}
	
		.st344{fill:none;stroke:#FFFFFF;stroke-width:0.1919;stroke-linecap:round;stroke-linejoin:round;stroke-miterlimit:10;stroke-dasharray:0.9593,0.9593,0.9593,0.9593,0.9593,0.9593;}
	.st345{opacity:5.000000e-02;fill:#1F1D1B;}
	.st346{fill:#E1BB95;}
	.st347{fill:#E1C7A0;}
	.st348{fill:#B89A7C;}
	.st349{fill:#E2E3E4;}
	.st350{fill:#EDEDEE;}
	.st351{opacity:5.000000e-02;}
	.st352{fill:#1F1D1B;}
	.st353{opacity:0.4;fill:#66BBDB;}
	.st354{fill:#F5F5F5;}
	.st355{fill:#917A62;}
	.st356{fill:#ECEDED;}
	.st357{fill:#D5D7D8;}
	.st358{fill:#D3EDF0;}
	.st359{fill:#E5E9EB;}
	.st360{fill:#C2C6C9;}
	.st361{opacity:0.6;fill:#66BBDB;}
	.st362{fill:#EEF3F6;}
	.st363{fill:none;stroke:#D9DDE0;stroke-width:0.1919;stroke-miterlimit:10;}
	.st364{fill:#BFC1C2;}
	.st365{fill:#DCDDDE;}
	.st366{fill:#EFEFF0;}
	.st367{fill:#D0D2D3;}
	.st368{fill:#EBEFF2;}
	.st369{fill:#D9DDE0;}
	.st370{opacity:0.5;fill:#E1BB95;}
	.st371{fill:#B6B8BA;}
	.st372{fill:#D2B580;}
	.st373{fill:#B8CB33;}
	.st374{fill:#E2C79A;}
	.st375{fill:#89BC40;}
	.st376{opacity:0.3;fill:#E1BB95;}
	.st377{fill:#E19290;}
	.st378{fill:#EDEAE3;}
	.st379{fill:#DF7082;}
	
		.st380{fill:none;stroke:#FFFFFF;stroke-width:0.1214;stroke-linecap:round;stroke-linejoin:round;stroke-miterlimit:10;stroke-dasharray:0.6072,0.6072,0.6072,0.6072,0.6072,0.6072;}
	.st381{opacity:0.1;fill:#231F20;}
	.st382{fill:#58595B;}
	.st383{fill:#DCE0E8;}
	.st384{fill:#A1A3A6;}
	.st385{fill:#8F9194;}
	.st386{fill:#9CB0BD;}
	.st387{fill:#D8DFDF;}
	.st388{fill:#8DA0AC;}
	.st389{fill:#DDE4E8;}
	.st390{clip-path:url(#SVGID_100_);}
	.st391{opacity:0.4;fill:none;stroke:#9CB0BD;stroke-width:0.286;stroke-linecap:round;stroke-miterlimit:10;}
	.st392{fill:#CADDE7;}
	.st393{fill:none;stroke:#FFFFFF;stroke-width:0.1919;stroke-miterlimit:10;}
	.st394{clip-path:url(#SVGID_102_);fill:#B8CB33;}
	.st395{clip-path:url(#SVGID_104_);fill:#B8CB33;}
	.st396{fill:#E9E5B5;}
	.st397{fill:#EEECD3;}
	.st398{fill:#CEDBDF;}
	.st399{clip-path:url(#SVGID_106_);fill:#B8CB33;}
	.st400{fill:#29ABE2;}
	.st401{fill:#F4F4F4;}
	.st402{fill:#006EC3;}
	.st403{fill:#DADADA;}
	.st404{fill:#EBEAEA;}
	.st405{opacity:0.6;fill:#A96A26;}
	.st406{opacity:0.4;fill:#A96A26;}
	.st407{opacity:0.4;fill:#FFFFFF;}
	.st408{opacity:0.4;}
	.st409{opacity:0.4;fill:#7B4E19;}
	.st410{fill:#AF522E;}
	.st411{fill:#D6C3A2;}
	.st412{fill:#A78D6A;}
	.st413{opacity:0.3;fill:#FFAA73;}
	.st414{opacity:0.8;fill:#D6C3A2;}
	.st415{fill:#809F20;}
	.st416{fill:#648C08;}
	.st417{opacity:0.5;fill:#648C08;}
	.st418{fill:#788E1A;}
	.st419{fill:#AAC844;}
	.st420{fill:#84AE0C;}
	.st421{fill:#9FB739;}
	.st422{fill:#97A833;}
	.st423{opacity:0.5;fill:#DADADA;}
	.st424{fill:#BF6A1D;}
	.st425{opacity:0.5;fill:#BF6A1D;}
	.st426{opacity:0.5;fill:#BF6310;}
	.st427{fill:#F9861E;}
	.st428{fill:#D06716;}
	.st429{fill:#ED7818;}
	.st430{fill:#A25A20;}
	.st431{fill:#7F4619;}
	.st432{fill:#6B3713;}
	.st433{opacity:0.3;fill:#A25A20;}
	.st434{fill:#93521C;}
	.st435{fill:#603111;}
	.st436{fill:#327C0A;}
	.st437{opacity:0.3;fill:#327C0A;}
	.st438{fill:#DBA216;}
	.st439{fill:#FFD44D;}
	.st440{fill:#FFC524;}
	.st441{opacity:0.5;fill:#723B16;}
	.st442{opacity:0.4;fill:#603111;}
	.st443{opacity:0.4;fill:#D38144;}
	.st444{opacity:0.5;fill:#F9AB21;}
	.st445{opacity:0.5;}
	.st446{fill:#AA6102;}
	.st447{fill:#8E4F03;}
	.st448{fill:#864000;}
	.st449{opacity:0.5;fill:#AA6102;}
	.st450{fill:#C6862C;}
	.st451{fill:#C17500;}
	.st452{fill:#E6B75F;}
	.st453{fill:#BA842D;}
	.st454{opacity:0.5;fill:#C17500;}
	.st455{fill:#461800;}
	.st456{fill:#58991F;}
	.st457{fill:#97C740;}
	.st458{opacity:0.5;fill:#97C740;}
	.st459{fill:#68B42E;}
	.st460{fill:#3E9F32;}
	.st461{fill:#E1CCBB;}
	.st462{fill:#EF7E8A;}
	.st463{fill:#F5ACA2;}
	.st464{fill:#F39B99;}
	.st465{fill:#FFFBDC;}
	.st466{fill:#E5D5BE;}
	.st467{fill:#C15914;}
	.st468{opacity:0.5;fill:#C15914;}
	.st469{fill:#E57428;}
	.st470{fill:#C15B16;}
	.st471{opacity:0.5;fill:#E57428;}
	.st472{fill:#DB6C21;}
	.st473{fill:#9E6A1E;}
	.st474{fill:#DBBA4F;}
	.st475{opacity:0.5;fill:#DBBA4F;}
	.st476{fill:#E8CA5C;}
	.st477{fill:#955913;}
	.st478{fill:#C4903C;}
	.st479{fill:#FAED8D;}
	.st480{fill:#89BD27;}
	.st481{fill:#A97623;}
	.st482{fill:#0A58B5;}
	.st483{fill:#D0D0D0;}
	.st484{fill:#DCA35E;}
	.st485{fill:#D29654;}
	.st486{fill:#EAC07E;}
	.st487{fill:#E9BA6E;}
	.st488{fill:#F2CB84;}
	.st489{fill:#FFDC92;}
	.st490{opacity:0.4;fill:#D29654;}
	.st491{fill:#F5CD86;}
	.st492{fill:#E7B165;}
	.st493{fill:#F2C483;}
	.st494{fill:#E4AC6C;}
	.st495{fill:#FAD58C;}
	.st496{fill:#DCAB63;}
	.st497{opacity:0.5;fill:#D29654;}
	.st498{opacity:0.5;fill:#E9BA6E;}
	.st499{fill:#FFE6A9;}
	.st500{fill:#FFD794;}
	.st501{fill:#EEBE71;}
	.st502{opacity:0.6;}
	.st503{opacity:0.9;}
	.st504{fill:#BC2C00;}
	.st505{fill:#9E1E00;}
	.st506{opacity:0.5;fill:#BC2C00;}
	.st507{opacity:0.7;fill:#BC2C00;}
	.st508{fill:#6AB432;}
	.st509{fill:#3F9F36;}
	.st510{fill:#8A8F23;}
	.st511{fill:#FFFBDF;}
	.st512{opacity:0.7;fill:#A0BC2B;}
	.st513{opacity:0.7;fill:none;stroke:#A0BC2B;stroke-width:0.5201;stroke-miterlimit:10;}
	.st514{fill:#212121;}
	.st515{fill:#424242;}
	.st516{fill:#6A6A6A;}
	.st517{fill:#616161;}
	.st518{fill:#C4C6C7;}
	.st519{fill:#4D4E4E;}
	.st520{fill:#343536;}
	.st521{fill:#FFEE58;}
	.st522{fill:#2B3B54;}
	.st523{fill:#FBC02D;}
	.st524{fill:#2D2E2E;}
	.st525{fill:#FDD835;}
	.st526{fill:#F08526;}
	.st527{fill:#FFF38A;}
	.st528{fill:#595A59;}
	.st529{fill:#F4A83F;}
</style>
<rect x="-14" y="-18" class="st400" width="604" height="446"/>
<g>
	<g>
		<rect x="188.8" y="395.8" class="st14" width="348.7" height="5.1"/>
		<path class="st14" d="M232.5,371.9v0.9v7.5v0.6v1.2v12.4v4.2l1.5,2h-4.2h-6.5h-5.6l1.2-2h0v-16.3l-0.8-2.2h2.9h-0.9H219
			c-0.3-3.3-3.1-5.9-6.4-5.9c-3.4,0-6.2,2.6-6.4,5.9h-1.1h-1h2.9l-0.8,2.2v16.3h0l1.5,2H202h-6.2h-4.3l1.2-2v-4.2v-12.4V381v-0.6
			v-7.5v-0.9v-2.7v-0.3l-3.5-2.7h-0.1V366v-0.2h3.6v-2.7v-0.7v-0.6v-0.4h39.8v0.4v0.6v0.7v2.7h3.7v0.1v0.2H236l-3.5,2.7v0.3V371.9z"
			/>
		<path class="st14" d="M233.6,377.7v4.3v0.3v0.3h0.3v7.1v0.5v2.7v0.5v6.4v0.8v0.3h46.5v-0.3v-0.8v-6.4v-0.5v-2.7v-0.5v-7.1h0.5
			v-0.3V382v-4.3v-0.6h-0.7v-4v-9.7v-0.6v-8.7v-0.6v-17.8h0.9v-1.2h-1.9v-1.7h-0.7v-0.5h-0.2l-0.7-1.3l-0.8-1.4l-0.7,1.4l-0.7,1.3
			h-0.2v0.5h-11v1.7h-1.9v1.2h1v17.8v0.6v0.5h-4.6l-0.7-5.5l-0.2-1.5v-7.9h1.2v-1H258v-1h-1v1h-1.2v1h1.2v7.7l-0.2,1.7l-0.7,5.5
			h-5.1v-0.5v-0.6v-17.8h0.9v-1.2h-1.9v-1.7h-10.8v-0.5H239l-0.7-1.3l-0.7-1.4l-0.8,1.4l-0.7,1.3h-0.2v0.5h-0.9v1.7H233v1.2h1v17.8
			v0.6v8.7v0.6v9.7v4h-0.5V377.7z M250.9,356.4h5.2v3.2l-0.3,0.5l-1.8,2.8h-3.1v-0.1V356.4z M258.9,356.4h4.6v6.5v0.1H261l-1.7-2.8
			l-0.3-0.5V356.4z M251.7,370.6c0.2-2.8,2.3-5,5.1-5.2C254,365.6,251.8,367.9,251.7,370.6L251.7,370.6z M257.6,365.4
			c1.2,0.1,2.2,0.5,3.1,1.2C259.8,366,258.7,365.5,257.6,365.4L257.6,365.4z M277.5,363.3h-11.2v-0.5v-8h11.2v8V363.3z M273.4,356.2
			c0.4,0,0.7,0.2,0.7,0.5v5.8h-1.5v-5.8C272.7,356.4,273,356.2,273.4,356.2L273.4,356.2z M270.5,356.2c0.4,0,0.7,0.2,0.7,0.5v5.8
			h-1.5v-5.8C269.8,356.4,270.1,356.2,270.5,356.2L270.5,356.2z M275.1,366.1h1.5v-1.5h-1.5V366.1z M267.2,366.1h1.5v-1.5h-1.5
			V366.1z M244,356.2c0.4,0,0.7,0.2,0.7,0.5v5.8h-1.5v-5.8C243.3,356.4,243.6,356.2,244,356.2L244,356.2z M241.1,356.2
			c0.4,0,0.7,0.2,0.7,0.5v5.8h-1.4v-5.8C240.4,356.4,240.7,356.2,241.1,356.2L241.1,356.2z M245.7,366.1h1.5v-1.5h-1.5V366.1z
			 M237.8,366.1h1.5v-1.5h-1.5V366.1z M277.6,399.8h-1v-10.2c0-3.1-4.6-5.7-4.6-5.7s-4.6,2.6-4.6,5.7v10.2h-1.5v-6.4v-0.5v-2.7v-0.5
			v-7.1h11.8v7.1v0.5v2.7v0.5V399.8z M263,399.8h-1.2v-10.2c0-3.1-4.6-5.7-4.6-5.7s-4.6,2.6-4.6,5.7v10.2h-1.3v-6.4v-0.5v-2.7v-0.5
			v-7.1H263v7.1v0.5v2.7v0.5V399.8z M248.4,399.8h-1.3v-10.2c0-3.1-4.6-5.7-4.6-5.7s-4.6,2.6-4.6,5.7v10.2h-1.2v-6.4v-0.5v-2.7v-0.5
			v-7.1h11.7v7.1v0.5v2.7v0.5V399.8z"/>
		<path class="st14" d="M427.6,398.1h0.8l-5.8-11.3c-3.1-2.9-7.2-4.7-11.8-4.7c-4.2,0-8,1.5-10.9,4l-6.2,12h1.1v2.7H380v-2.7h1.9
			l12.1-23.4v-3.5h2.6l4.3-12.3v-0.3h0.1l1.2-3.5h-0.5v-3.2h1.4v-0.6h-2v-3.5h3.1c2.3-17.9,3.4-48.6,3.7-58.4h-0.1v-0.8h0.1l0-1.9
			h-0.5v-3.2h1.4v-3.9h1.6v-5.5h0.5V269h0.6v5.1h0.6v5.5h1.6v3.9h1.4v3.2h-0.6l0.1,1.9h0.1v0.8h0c0.2,5.5,0.6,17.8,1.4,30.6l0,0.1
			l0,0c0.5,7.8,1,15.7,1.7,22.5c0.2,1.9,0.4,3.5,0.6,5.1h3.1v3.5h-2v0.6h1.3v3.2h-0.3l1.2,3.5l4.4,12.6h1.4v3.3l0.3-0.1l12.3,23.7
			h2.3v2.7h-14.7V398.1z M397.7,370.4L397.7,370.4l3.9-2.3l-2.3-2.2L397.7,370.4z M400,364.1L400,364.1l3.5-2.3l-2-2L400,364.1z
			 M402,358.3L402,358.3l2.6-1.6l-1.5-1.3L402,358.3z M419.6,355.2L419.6,355.2h-0.1l-1.5,1.4l2.6,1.5L419.6,355.2z M421.3,359.9
			L421.3,359.9l-1.8,1.9l3.1,2L421.3,359.9z M423.3,365.8L423.3,365.8l-2.5,2.4l4.1,2.4L423.3,365.8z M410.9,286.7L410.9,286.7
			l-0.9,0.8l-0.9-0.8H410.9z M409.7,287.7L409.7,287.7l-1.1,0.9l0.1-1.7L409.7,287.7z M409.1,288.6L409.1,288.6l0.8-0.7l0.7,0.7
			H409.1z M410.2,287.7L410.2,287.7l0.8-0.6v0v0v0.2v0v0.2v0v0.3v0.1v0.4L410.2,287.7z M410.9,289.4L410.9,289.4l-1.2,1.2l-1.2-1.3
			L410.9,289.4L410.9,289.4z M409.5,291L409.5,291l-1,1l0-2.1L409.5,291z M408.5,292.5L408.5,292.5l1.2-1.3l1.1,1.3H408.5z
			 M410,290.9L410,290.9l0.9-1v2L410,290.9z M410.9,293.3L410.9,293.3l-1.2,1.2l-1.1-1.3L410.9,293.3L410.9,293.3z M409.3,294.8
			L409.3,294.8l-1,1.1l0.1-2.2L409.3,294.8z M408.3,296.4L408.3,296.4l1.4-1.3l1.1,1.4L408.3,296.4L408.3,296.4z M409.9,294.8
			L409.9,294.8l1-1v2.2L409.9,294.8z M410.9,297.3L410.9,297.3l-1.3,1.2l-1.2-1.3L410.9,297.3L410.9,297.3z M409.3,298.8
			L409.3,298.8l-1.1,1.1v-0.2l0.1-2L409.3,298.8z M408.3,300.3L408.3,300.3l1.3-1.2l1.1,1.2H408.3z M409.9,298.8L409.9,298.8l1.1-1
			v2.2L409.9,298.8z M410.9,301.3L410.9,301.3l-1.3,1.1l-1.4-1.4h2.6l0.1,0V301.3z M409.3,302.7L409.3,302.7l-1.3,1.1l0.1-2.3
			L409.3,302.7z M408.1,304.3L408.1,304.3l1.5-1.3l1.2,1.3H408.1z M409.9,302.7L409.9,302.7l1.1-0.9v0.9v0.2v0.3v0.1v0.3v0.2
			L409.9,302.7z M411.7,301.2L411.7,301.2l0.1-0.2h2.6l-1.3,1.4L411.7,301.2L411.7,301.2z M408.1,301.1L408.1,301.1L408.1,301.1
			L408.1,301.1z M410.9,305L410.9,305l-1.5,1.2l-1.3-1.3L410.9,305L410.9,305z M409.2,306.5L409.2,306.5l-1.3,1.1l0.1-2.3
			L409.2,306.5z M407.8,308.1L407.8,308.1l1.6-1.3l1.3,1.4L407.8,308.1L407.8,308.1z M409.7,306.5L409.7,306.5l1.1-1v0.2v0.3v0.3
			v0.4v0.3v0.4v0.3v0L409.7,306.5z M410.8,309L410.8,309l-1.5,1.3l-1.3-1.4L410.8,309L410.8,309z M409,310.5L409,310.5l-1.4,1.2
			l0.1-2.5L409,310.5z M407.8,312.1L407.8,312.1l1.5-1.3l1.3,1.3H407.8z M409.7,310.5L409.7,310.5l1.2-1v0.2v0.2v0.6v0.2l0,0.6v0.2
			v0.2L409.7,310.5z M407.9,308.9L407.9,308.9l-0.1,0.3L407.9,308.9L407.9,308.9z M410.7,312.8L410.7,312.8l-1.4,1.2l-1.2-1.2H410.7
			z M408.9,314.4L408.9,314.4l-1.5,1.3l0.1-2.6L408.9,314.4z M407.7,316L407.7,316l1.5-1.4l1.4,1.4H407.7z M409.6,314.3L409.6,314.3
			l1.2-1l0,0.7v0.1v0.8v0.1l0,0.5L409.6,314.3z M410.4,316.8L410.4,316.8l-1.4,1.1l-1.1-1.1H410.4z M408.7,318.3L408.7,318.3
			l-1.5,1.2l0.2-2.6L408.7,318.3z M407.5,319.9L407.5,319.9l1.6-1.4l1.3,1.4H407.5z M409.5,318.3L409.5,318.3l1.2-1.1v0.5l-0.1,1.7
			L409.5,318.3z M410.5,320.7L410.5,320.7l-1.5,1.2l-1.2-1.2H410.5z M408.7,322.2L408.7,322.2l-1.7,1.5l0.2-3L408.7,322.2z
			 M407.6,323.8L407.6,323.8l1.5-1.2l1.2,1.2H407.6z M409.5,322.2L409.5,322.2l1.1-0.9v0.2l0,0.2v0.8v0.2l0,0.6L409.5,322.2z
			 M410.2,324.6L410.2,324.6l-1.4,1.1l-1.1-1.1H410.2z M408.4,326.1L408.4,326.1l-1.7,1.4l0.2-2.9L408.4,326.1z M407.2,327.7
			L407.2,327.7l1.5-1.3l1.3,1.3H407.2z M409.2,326.1L409.2,326.1l1.2-1.1l0,0.4v0.3l-0.1,1.5L409.2,326.1z M409.9,328.5L409.9,328.5
			l-1.5,1.2l-1.2-1.2H409.9z M408,330L408,330l-1.6,1.3l0.2-2.7L408,330z M406.8,331.6L406.8,331.6l1.7-1.3l1.2,1.3H406.8z
			 M408.8,330L408.8,330l1.5-1.1c0,0.8-0.1,1.7-0.2,2.5L408.8,330z M409.8,332.4L409.8,332.4l-1.5,1.1l-1.1-1.1H409.8z M408,333.9
			L408,333.9l-1.8,1.4c0.1-0.9,0.2-1.9,0.2-2.9h0.2L408,333.9z M406.7,335.6L406.7,335.6l1.6-1.3l1.2,1.3H406.7z M408.7,333.9
			L408.7,333.9l1.3-1c0,0.8-0.1,1.5-0.2,2.3L408.7,333.9z M409.2,336.3L409.2,336.3l-1.3,1l-1-1H409.2z M407.5,337.7L407.5,337.7
			l-1.7,1.3c0.1-0.9,0.2-1.8,0.2-2.7h0.2L407.5,337.7z M406,339.5L406,339.5l1.8-1.5l1.4,1.5H406z M408.2,337.7L408.2,337.7l1.5-1.2
			c-0.1,0.8-0.1,1.8-0.2,2.6L408.2,337.7z M409.3,340.2L409.3,340.2l-1.7,1.3l-1.2-1.3H409.3z M407.2,341.9L407.2,341.9l-1.7,1.4
			h-0.1c0.1-1,0.2-2,0.3-3L407.2,341.9z M406.3,343.2L406.3,343.2l1.2-1l0.9,1H406.3z M408,341.9L408,341.9l1.5-1.2
			c-0.1,0.8-0.2,1.7-0.3,2.4L408,341.9z M409,344L409,344l-1.9,1.5l-1.4-1.5H409z M406.7,345.8L406.7,345.8l-1.7,1.4
			c0.1-0.9,0.2-1.9,0.3-2.9L406.7,345.8z M405,347.8L405,347.8l2-1.5l1.3,1.4v0l0,0.1H405z M407.4,345.9L407.4,345.9l1.5-1.2
			c-0.2,0.9-0.3,1.7-0.4,2.4L407.4,345.9z M411.8,286.7L411.8,286.7l1,0.8l0.9-0.8H411.8z M413.1,287.7L413.1,287.7l0.9,0.7l0-1.5
			L413.1,287.7z M413.6,288.6L413.6,288.6l-0.7-0.7l-0.7,0.7H413.6z M412.5,287.7L412.5,287.7l-0.8-0.7v0.2v0v0.2v0v0.2v0v0.3v0.1
			v0.5L412.5,287.7z M411.7,289.4L411.7,289.4l1.3,1.3l1.1-1.2v0H411.7z M413.2,291L413.2,291l0.9,0.9l0-1.8L413.2,291z
			 M414.1,292.4L414.1,292.4l-1.1-1.2l-1.2,1.3L414.1,292.4L414.1,292.4z M412.7,290.9L412.7,290.9l-1-1v2.2L412.7,290.9z
			 M411.7,293.2L411.7,293.2l1.3,1.3l1-1.3H411.7z M413.3,294.8L413.3,294.8l0.9,0.9l0-1.9L413.3,294.8z M414.3,296.3L414.3,296.3
			l-1.2-1.2l-1.1,1.4h2.3V296.3z M412.8,294.8L412.8,294.8l-1.1-1.1v2.4L412.8,294.8z M411.7,297.2L411.7,297.2l1.4,1.3l1.2-1.3
			H411.7z M413.4,298.8L413.4,298.8l1,0.9l-0.1-2L413.4,298.8z M414.4,300.3L414.4,300.3l-1.3-1.2l-1.1,1.2H414.4z M412.8,298.8
			L412.8,298.8l-1.1-1.1v2.4L412.8,298.8z M413.4,302.7L413.4,302.7l1.2,1l-0.1-2.1L413.4,302.7z M414.6,304.2L414.6,304.2l-1.5-1.2
			l-1.3,1.3L414.6,304.2L414.6,304.2z M412.8,302.7L412.8,302.7l-1.1-1v1v0.2v0.3v0.1v0.3v0.2v0L412.8,302.7z M411.7,305L411.7,305
			l1.5,1.3l1.3-1.3H411.7z M413.6,306.5L413.6,306.5l1.2,1l-0.1-2.1L413.6,306.5z M414.7,308.1L414.7,308.1l-1.4-1.2l-1.3,1.4h2.8
			L414.7,308.1z M413,306.5L413,306.5l-1.3-1.1v0.3v0.3v0.3v0.4v0.3v0.4v0.3v0.1L413,306.5z M411.7,308.9L411.7,308.9l1.6,1.4
			l1.4-1.4H411.7z M413.7,310.5L413.7,310.5l1.2,1.1l-0.1-2.2L413.7,310.5z M414.9,312.1L414.9,312.1l-1.5-1.3l-1.3,1.3H414.9z
			 M413.1,310.5L413.1,310.5l-1.3-1.2v0.3v0.2v0.6v0.2l0,0.6v0.2v0.3L413.1,310.5z M412.1,312.8L412.1,312.8l1.3,1.2l1.2-1.2H412.1z
			 M413.8,314.4L413.8,314.4l1.4,1.2l-0.1-2.4L413.8,314.4z M415,316L415,316l-1.5-1.4l-1.4,1.4H415z M413.1,314.3L413.1,314.3
			l-1.3-1.2l0,0.8v0.1v0.8v0.1l0,0.6L413.1,314.3z M412.2,316.8L412.2,316.8l1.4,1.1l1.1-1.1H412.2z M414,318.3L414,318.3l1.3,1.1
			l-0.1-2.3L414,318.3z M415.2,319.9L415.2,319.9l-1.5-1.4l-1.4,1.4H415.2z M413.3,318.3L413.3,318.3l-1.4-1.2l0.1,0.6l0,1.9
			L413.3,318.3z M412.2,320.7L412.2,320.7l1.4,1.2l1.2-1.2H412.2z M414,322.2L414,322.2l1.6,1.4l-0.2-2.8L414,322.2z M415.1,323.8
			L415.1,323.8l-1.4-1.2l-1.2,1.2H415.1z M413.3,322.2L413.3,322.2l-1.2-1v0.3l0,0.2v0.8v0.2l0,0.7L413.3,322.2z M412.5,324.6
			L412.5,324.6l1.3,1.1l1.2-1.1H412.5z M414.3,326.1L414.3,326.1l1.6,1.3l-0.2-2.7L414.3,326.1z M415.5,327.7L415.5,327.7l-1.5-1.3
			l-1.4,1.3H415.5z M413.5,326.1L413.5,326.1l-1.4-1.2l0,0.5v0.3l0,1.6L413.5,326.1z M412.8,328.5L412.8,328.5l1.5,1.2l1.1-1.2
			H412.8z M414.7,330L414.7,330l1.4,1.2l-0.2-2.5L414.7,330z M415.9,331.6L415.9,331.6l-1.6-1.3l-1.2,1.3H415.9z M413.9,330
			L413.9,330l-1.5-1.3c0,1,0.1,1.9,0.2,2.8L413.9,330z M412.9,332.4L412.9,332.4l1.5,1.1l1.1-1.1H412.9z M414.8,333.9L414.8,333.9
			l1.7,1.4c-0.1-1-0.2-1.9-0.2-2.8h0L414.8,333.9z M416,335.6L416,335.6l-1.7-1.3l-1.2,1.3H416z M414,333.9L414,333.9l-1.4-1.2
			c0,0.9,0.1,1.7,0.2,2.5L414,333.9z M413.5,336.3L413.5,336.3l1.3,1l1-1H413.5z M415.2,337.7L415.2,337.7l1.5,1.2
			c-0.1-0.9-0.2-1.7-0.2-2.6h0L415.2,337.7z M416.7,339.5L416.7,339.5l-1.9-1.5l-1.4,1.5H416.7z M414.5,337.7L414.5,337.7l-1.7-1.4
			c0,1,0.2,2,0.2,2.9L414.5,337.7z M413.4,340.2L413.4,340.2l1.6,1.3l1.3-1.3H413.4z M415.5,341.9L415.5,341.9l1.7,1.4
			c-0.1-0.9-0.2-1.9-0.3-2.8L415.5,341.9z M416.3,343.2L416.3,343.2l-1.2-1l-1,1H416.3z M414.8,341.9L414.8,341.9l-1.6-1.3
			c0.1,0.9,0.2,1.8,0.3,2.6L414.8,341.9z M413.7,344L413.7,344l1.9,1.5l1.4-1.5H413.7z M416,345.8L416,345.8l1.6,1.3
			c-0.1-0.9-0.2-1.7-0.3-2.6L416,345.8z M417.6,347.8L417.6,347.8l-1.9-1.5l-1.4,1.5l0,0H417.6z M415.3,345.9L415.3,345.9l-1.6-1.3
			c0.1,1,0.3,1.8,0.4,2.6L415.3,345.9z M402.5,358.6L402.5,358.6h4.3l-1.8-1.5L402.5,358.6z M406.9,355.2L406.9,355.2l-1.9,1.2
			l-1.4-1.2H406.9z M405.5,356.8L405.5,356.8l2.5-1.6h0.3l-0.5,3.5h-0.2L405.5,356.8z M417.6,356.9L417.6,356.9l-1.8,1.7h4.8
			L417.6,356.9z M415.6,355.2L415.6,355.2l1.9,1.1l1.2-1.1H415.6z M417.1,356.7L417.1,356.7l-2.7-1.5l0.6,3.5L417.1,356.7z
			 M400.4,364.8L400.4,364.8h6l-2.4-2.4L400.4,364.8z M407.1,359.4L407.1,359.4l-3.1,2.1l-2-2.1H407.1z M404.6,362L404.6,362l3-1.9
			l-0.7,4.3L404.6,362z M418.9,362.3L418.9,362.3l-2.4,2.4h6.4L418.9,362.3z M415.7,359.4L415.7,359.4l3.2,2l2-2H415.7z
			 M418.3,361.9L418.3,361.9l-3.2-2l0.7,4.1l0,0.3L418.3,361.9z M420.3,368.7L420.3,368.7l-2.6,2.5h6.7L420.3,368.7z M416.5,365.5
			L416.5,365.5l3.7,2.2l2.3-2.2H416.5z M419.6,368.4L419.6,368.4l-3.4-2.1l0.7,4.7L419.6,368.4z M398.1,371.2L398.1,371.2h6.8
			l-2.6-2.5L398.1,371.2z M406,365.5L406,365.5l-3.6,2.2l-2.3-2.2H406z M403,368.4L403,368.4l3.7-2.2l-0.8,5L403,368.4z
			 M418.3,378.6L418.3,378.6v1.2c0.3,0.1,0.5,0.2,0.8,0.3L418.3,378.6z M418,379.7L418,379.7V378l-0.5-1v2.5L418,379.7z
			 M417.1,379.4L417.1,379.4v-3l-0.3-0.6h-0.2v3.4L417.1,379.4z M416.3,379.1L416.3,379.1v-3.3h-0.5v3.2L416.3,379.1z M415.5,378.9
			L415.5,378.9v-3.2H415v3L415.5,378.9z M414.6,378.8L414.6,378.8v-3h-0.5v2.9L414.6,378.8z M413.8,378.6L413.8,378.6v-2.8h-0.5v2.7
			L413.8,378.6z M413,378.5L413,378.5v-2.7h-0.5v2.7L413,378.5z M412.2,378.4L412.2,378.4v-2.7h-0.5v2.6L412.2,378.4z M411.3,378.4
			L411.3,378.4v-2.6h-0.5v2.6H411.3z M410.5,378.4L410.5,378.4v-2.6H410v2.6H410.5z M409.7,378.4L409.7,378.4v-2.6h-0.5v2.7
			L409.7,378.4z M408.8,378.5L408.8,378.5v-2.7h-0.5v2.7L408.8,378.5z M408,378.6L408,378.6v-2.8h-0.5v2.8L408,378.6z M407.2,378.7
			L407.2,378.7v-2.9h-0.5v3L407.2,378.7z M406.4,378.8L406.4,378.8v-3.1h-0.5v3.2L406.4,378.8z M405.5,379.1L405.5,379.1v-3.3h-0.3
			L405,376v3.2L405.5,379.1z M404.7,379.3L404.7,379.3v-2.6l-0.5,1v1.8L404.7,379.3z M429.7,397.2L429.7,397.2l2-2.6l-4.3-1.9
			L429.7,397.2z M432.4,393.8L432.4,393.8l2-2.4H427L432.4,393.8z M435.1,392.1L435.1,392.1l-1.7,2.2l3.7,1.6L435.1,392.1z
			 M432.7,395.2L432.7,395.2l-2.4,3h7.9l-0.3-0.7L432.7,395.2z M426.1,390.2L426.1,390.2l2.2-1.6l-3.7-1.3L426.1,390.2z
			 M429.2,388.1L429.2,388.1l2.1-1.4h-6L429.2,388.1z M432.4,386.8L432.4,386.8l-2.3,1.6l3.8,1.4L432.4,386.8z M429.2,389L429.2,389
			l-2.4,1.7h6.9L429.2,389z M424.6,385.9L424.6,385.9h6.5l-4.3-1.5L424.6,385.9z M423.7,385.6L423.7,385.6l2.2-1.5l-3.8-1.4
			L423.7,385.6z M426.8,383.4L426.8,383.4l2.2-1.5h-6.4L426.8,383.4z M430,382.2L430,382.2l-2.2,1.5l3.7,1.4L430,382.2z
			 M421.4,381.2L421.4,381.2h8.1l-0.7-1.4h-8.1L421.4,381.2z M392.2,397.3L392.2,397.3l-2-2.6l4.4-1.9L392.2,397.3z M389.4,393.8
			L389.4,393.8l-1.9-2.4h7.4L389.4,393.8z M386.8,392.2L386.8,392.2l1.6,2.1l-3.5,1.5L386.8,392.2z M389.2,395.2L389.2,395.2l2.4,3
			h-7.8l0.3-0.7L389.2,395.2z M395.3,391.4L395.3,391.4l0.6-1.1l-2.3-1.6l3.8-1.4l-1.5,3L395.3,391.4z M392.7,388.1L392.7,388.1
			l-2-1.4h6L392.7,388.1z M389.6,386.8L389.6,386.8l2.2,1.5l-3.7,1.4L389.6,386.8z M392.7,389L392.7,389l2.4,1.7h-7L392.7,389z
			 M397.3,385.9L397.3,385.9h-6.5l4.3-1.5L397.3,385.9z M428.3,379L428.3,379h-8.1l-1.7-3.2h8.1L428.3,379z M398.2,385.6
			L398.2,385.6l-2.3-1.6l3.9-1.4L398.2,385.6z M395.1,383.4L395.1,383.4l-2.2-1.5h6.4L395.1,383.4z M391.9,382.2L391.9,382.2
			l2.2,1.5l-3.7,1.3L391.9,382.2z M400.6,381.2L400.6,381.2h-8.1l0.7-1.4h8.1L400.6,381.2z M401.7,379L401.7,379h-8.1l1.7-3.2h8.1
			L401.7,379z M408.9,357.3L408.9,357.3h5.1l2.1,13.9h-9.4l1.1-7.1L408.9,357.3z M413.8,356.6L413.8,356.6H409l0.2-1.4h4.4
			L413.8,356.6z M403.9,379.6L403.9,379.6v-1.3l-0.8,1.6C403.3,379.8,403.5,379.7,403.9,379.6L403.9,379.6z M420.8,383.4
			L420.8,383.4l-0.4-0.8c-2.8-1.7-6.1-2.6-9.6-2.6c-3.2,0-6.3,0.8-8.9,2.2l-0.4,0.8c2.7-1.5,5.9-2.5,9.3-2.5
			C414.5,380.5,417.8,381.5,420.8,383.4L420.8,383.4z"/>
		<path class="st14" d="M339.7,367.9v2.7h0.3v0.5h-0.1c9.9,6.2,4.3,8.2,5.5,9.4c-1.9,0-3.8,0-5.7,0h-5.8c0.7-1.4-5-3.1,5.2-9.4H339
			v-0.5h0.3V368c-0.1,0-0.2,0-0.2,0c-0.4,0-0.8-0.3-1-0.7c0.2,0.2,0.4,0.3,0.7,0.3c0.6,0,1.1-0.5,1.1-1c0-0.1,0-0.3-0.1-0.3
			c0.2,0.2,0.3,0.5,0.3,0.7C340.2,367.3,340,367.7,339.7,367.9L339.7,367.9z M320.4,382.9c0.1-0.2-0.8-0.5,0.9-1.5
			c1.6,1,0.7,1.4,0.9,1.5C321.6,382.9,321,382.9,320.4,382.9L320.4,382.9z M320.3,384.7h1.9v-1h-1.9V384.7z M320.7,384.5
			L320.7,384.5h0.3v-0.6h-0.3V384.5z M321.5,384.5L321.5,384.5h0.3v-0.6h-0.3V384.5z M321.1,384.5L321.1,384.5h0.3v-0.6h-0.3V384.5z
			 M320.1,383.6h2.4v-0.2h-2.4V383.6z M320.1,383.2h2.4V383h-2.4V383.2z M320.1,385h2.4v-0.2h-2.4V385z M320.1,385.3h2.4v-0.2h-2.4
			V385.3z M320.3,385.3h1.9v4.8h-1.9V385.3z M322.2,390.4v4.1h-1.9v-4.1H322.2z M322.2,394.8v2.6h2.3v-11.8l3.8-0.8v12.6h0.2v-14.7
			h0.5v-0.2h4.5v-1.4h12.1v1.1l0,0v0.2h4.6v0.2h0.4v14.7h0.2v-12.8l3.7,1v11.8h2.5v-2.6h1.9v2.6h3.4v-4.1h3.1v4.1h3.9v1h-59.7v-1
			h4.1v-4.1h3.1v4.1h3.4v-2.6H322.2z M316.7,373.9c-0.2-0.3,1.3-0.8-1.4-2.4c-2.7,1.6-1.2,2.1-1.5,2.4
			C314.7,373.9,315.8,373.9,316.7,373.9L316.7,373.9z M316.8,376.8h-3v-1.6h3V376.8z M316.3,376.4L316.3,376.4h-0.5v-0.9h0.5V376.4z
			 M314.9,376.4L314.9,376.4h-0.5v-0.9h0.5V376.4z M315.6,376.4L315.6,376.4h-0.5v-0.9h0.5V376.4z M317.3,375.1h-3.9v-0.4h3.9V375.1
			z M317.3,374.5h-3.9v-0.4h3.9V374.5z M317.3,377.3h-3.9v-0.4h3.9V377.3z M317.3,377.7h-3.9v-0.3h3.9V377.7z M369.4,400.9h-59.7
			v-2.1h59.7V400.9z M316.9,377.7h-3.1v7.8h3.1V377.7z M362.5,373.9c0.2-0.3-1.3-0.8,1.5-2.4c2.7,1.6,1.2,2.1,1.5,2.4
			C364.4,373.9,363.5,373.9,362.5,373.9L362.5,373.9z M365.4,376.8v-1.6h0.4v-0.5H362v0.5h0.4v1.6H362v0.5v0v0.5h0.4v7.8h3.1v-7.8
			h0.4v-0.5v0v-0.5H365.4z M363,376.4L363,376.4h0.5v-0.9H363V376.4z M364.3,376.4L364.3,376.4h0.5v-0.9h-0.5V376.4z M363.7,376.4
			L363.7,376.4h0.5v-0.9h-0.5V376.4z M362,374.6h3.9v-0.5H362V374.6z M365.5,386v6.7h-3.1V386H365.5z M334.2,397.4h10.6v-14h-10.6
			V397.4z M358.8,382.9c-0.1-0.2,0.8-0.5-0.9-1.5c-1.7,1-0.7,1.4-0.9,1.5C357.6,382.9,358.2,382.9,358.8,382.9L358.8,382.9z
			 M358.9,384.7h-1.9v-1h1.9V384.7z M358.5,384.5L358.5,384.5h-0.3v-0.6h0.3V384.5z M357.7,384.5L357.7,384.5h-0.3v-0.6h0.3V384.5z
			 M358.1,384.5L358.1,384.5h-0.3v-0.6h0.3V384.5z M359.1,383.6h-2.4v-0.2h2.4V383.6z M359.1,383.2h-2.4V383h2.4V383.2z M359.1,385
			h-2.4v-0.2h2.4V385z M359.1,385.3h-0.2v4.8H357v-4.8h-0.2v-0.2h2.4V385.3z M357,390.4v4.1h1.9v-4.1H357z M313.7,386v6.7h3.1V386
			H313.7z M327.3,393.4v2.9l-2,0v-2.7c0-0.5,0.9-1.3,1-1.3C326.3,392.3,327.3,392.9,327.3,393.4L327.3,393.4z M327.3,388.6v2.8
			l-2,0.2v-2.8c0-0.5,0.9-1.4,1-1.4C326.3,387.4,327.3,388,327.3,388.6L327.3,388.6z M351.9,393.4v2.9l2,0v-2.7c0-0.5-1-1.3-1-1.3
			C352.8,392.3,351.9,392.9,351.9,393.4L351.9,393.4z M351.9,388.6v2.8l2,0.2v-2.8c0-0.5-1-1.4-1-1.4
			C352.8,387.4,351.9,388,351.9,388.6L351.9,388.6z M346.1,382.3c0.2-0.4-1.6-0.9,1.8-3h0h-0.1v-0.2h0.1v-0.7c0,0-0.1,0-0.1,0
			c-0.1,0-0.3-0.1-0.3-0.2c0,0,0.2,0.1,0.2,0.1c0.2,0,0.3-0.2,0.3-0.3c0,0,0-0.1,0-0.1c0.1,0,0.1,0.1,0.1,0.2c0,0.1,0,0.2-0.1,0.3
			v0.8h0.1v0.2H348h-0.1c3.2,2,1.5,2.6,1.9,3H346.1z M340.5,389.2v2.2h2.2v-2.3c0-1.3-3.1-3.1-3.2-3.1c-0.2,0-3.2,1.8-3.2,3.1v2.3
			h2.2v-2.2c0-0.4,0.9-0.9,1-0.9C339.6,388.3,340.5,388.8,340.5,389.2L340.5,389.2z M340.5,394.1v2.2h-2v-2.2c0-0.4,0.9-1,1-1
			C339.6,393.1,340.5,393.7,340.5,394.1L340.5,394.1z M342.7,392.2h-6.4v4.1h-0.9v-11.8l0,0h8.2v11.8h-0.9V392.2z M330.3,389.7h0.8
			v1.5h-0.8V389.7z M330.3,394.8h0.8v1.5h-0.8V394.8z M348,394.8h0.8v1.5H348V394.8z M348,389.7h0.8v1.5H348V389.7z M329.6,383.5
			L329.6,383.5h0.7v1h-0.7V383.5z M348.9,383.5L348.9,383.5h0.7v1h-0.7V383.5z M347.8,383.5L347.8,383.5h0.7v1h-0.7V383.5z
			 M346.6,383.5L346.6,383.5h0.7v1h-0.7V383.5z M332,383.5L332,383.5h0.7v1H332V383.5z M330.8,383.5L330.8,383.5h0.7v1h-0.7V383.5z
			 M347,392.1h1.1c-0.2,0.1-0.5,0.3-0.6,0.4c-0.2,0.2-0.5,0.5-0.5,0.9v3.1h3v-3.1c0-0.3-0.3-0.7-0.6-0.9c-0.1-0.1-0.3-0.3-0.6-0.4
			h1.2v-0.3H347V392.1z M329.2,386.8h1.3c-0.2,0.1-0.7,0.5-0.8,0.5c-0.2,0.2-0.6,0.5-0.6,0.9v3.1h3v-3.1c0-0.3-0.3-0.7-0.6-0.9
			c-0.1-0.1-0.5-0.4-0.8-0.5h1.4v-0.3h-2.9V386.8z M329.2,392.1h1.1c-0.2,0.1-0.5,0.3-0.6,0.4c-0.2,0.2-0.6,0.5-0.6,0.9v3.1h3v-3.1
			c0-0.3-0.3-0.7-0.6-0.9c-0.1-0.1-0.3-0.3-0.5-0.4h1.1v-0.3h-2.9V392.1z M346.9,386.8h1.4c-0.3,0.1-0.7,0.4-0.8,0.5
			c-0.3,0.2-0.6,0.5-0.6,0.9v3.1h3v-3.1c0-0.3-0.3-0.7-0.6-0.9c-0.1-0.1-0.5-0.4-0.8-0.5h1.2v-0.3h-2.9V386.8z M331.3,377.9
			c0.1,0,0.1,0.1,0.1,0.2c0,0.1,0,0.2-0.1,0.3v0.8h0.1v0.2h-0.1h-0.1h0h-0.1v-0.2h0.1v-0.7c0,0-0.1,0-0.1,0c-0.1,0-0.2-0.1-0.3-0.2
			c0.1,0,0.2,0.1,0.2,0.1c0.2,0,0.3-0.2,0.3-0.3C331.3,378,331.3,377.9,331.3,377.9L331.3,377.9z M331.2,379.3c3.2,2,1.6,2.6,1.9,3
			h-3.6C329.7,381.9,327.8,381.4,331.2,379.3L331.2,379.3z"/>
		<path class="st14" d="M382.5,340.4h-0.7v-3v-1.9l-0.1,0.1l-0.1-0.1v1.6l-0.2-0.2l-0.2,0.3l-0.2,0.3l-0.2-0.3l-0.2-0.3l-0.2,0.3
			l-0.2,0.3l-0.2-0.3l-0.2-0.3l-0.2,0.3l-0.2,0.3l-0.2-0.3l-0.2-0.3l-0.2,0.3l-0.2,0.3l-0.2-0.3l-0.2-0.3l-0.2,0.3l-0.2,0.3
			l-0.2-0.3l-0.2-0.3l-0.2,0.3l-0.2,0.3l-0.2-0.3l-0.2-0.3l-0.2,0.3l-0.2,0.3l-0.2-0.3l-0.2-0.3l-0.2,0.3l-0.2,0.3l-0.2-0.3
			l-0.2-0.3l-0.2,0.3l-0.2,0.3l-0.2-0.3l-0.2-0.3l-0.2,0.3l-0.2,0.3l-0.2-0.3l-0.2-0.3l-0.2,0.3l-0.2,0.3l-0.2-0.3l-0.2-0.3
			l-0.2,0.3l-0.2,0.3l-0.2-0.3l-0.2-0.3l-0.2,0.3l-0.2,0.3l-0.2-0.3l-0.2-0.3l-0.2,0.3l-0.2,0.3l-0.2-0.3l-0.2-0.3l-0.2,0.3
			l-0.2,0.3l-0.2-0.3l-0.2-0.3l-0.2,0.3l-0.2,0.3l-0.2-0.3l-0.2-0.3l-0.2,0.3l-0.2,0.3l-0.2-0.3l-0.2-0.3l-0.2,0.2v-1.6l-0.1,0.1
			l-0.1-0.1v1.9v3h-0.7v-1.9l-0.1,0.1l-0.1-0.1v1.9v14.1h14.1v-14.1v-1.9l-0.1,0.1l-0.1-0.1V340.4z M382.9,400.9h-15v-8.9h15V400.9z
			 M381.4,391.2v-8.4h-0.6v8.4h-0.5v-8.4h-0.7v8.4h-0.5v-8.4h-0.6v8.4h-0.5v-8.4h-0.6v8.4H377v-8.4h-0.6v8.4h-0.5v-8.4h-0.6v8.4
			h-0.5v-8.4h-0.6v8.4h-0.5v-8.4H373v8.4h-0.5v-8.4h-0.6v8.4h-0.5v-8.4h-0.6v8.4h-0.5v-8.4h-0.6v8.4h-0.5V374h12.8v17.3H381.4z
			 M380.8,382.4h0.6v-8.1h-0.6V382.4z M369.7,382.4h0.6v-8.1h-0.6V382.4z M370.8,382.4h0.6v-8.1h-0.6V382.4z M371.9,382.4h0.6v-8.1
			h-0.6V382.4z M373,382.4h0.7v-8.1H373V382.4z M374.1,382.4h0.6v-8.1h-0.6V382.4z M375.2,382.4h0.6v-8.1h-0.6V382.4z M376.4,382.4
			h0.6v-8.1h-0.6V382.4z M377.5,382.4h0.6v-8.1h-0.6V382.4z M378.6,382.4h0.6v-8.1h-0.6V382.4z M379.7,382.4h0.7v-8.1h-0.7V382.4z
			 M370,335l-0.5-0.4l-0.4,0.4l0.4,0.5L370,335z M382.1,335l-0.4-0.4l-0.4,0.4l0.4,0.5L382.1,335z M383,338l-0.4-0.4l-0.4,0.4
			l0.4,0.5L383,338z M369,338l-0.4-0.4l-0.4,0.4l0.4,0.5L369,338z M369.4,334.7v-0.3h0.2v0.3l-0.1-0.1L369.4,334.7z M381.6,334.7
			v-0.3h0.2v0.3l-0.1-0.1L381.6,334.7z M368.5,337.7v-0.3h0.2v0.3l-0.1-0.1L368.5,337.7z M382.5,337.6v-0.3h0.2v0.3L382.5,337.6
			L382.5,337.6z M372.6,332.4l-1.9,4.6l0,0l0,0.1l0.3-0.5l0.3,0.4l0.1,0.1l0.1-0.1l0.3-0.4l0.3,0.5l0.1-0.1l0.3-0.5l0.2,0.5l0.1,0.1
			l0.3-0.5l0.3,0.4l0,0.1l0.1-0.1l0.3-0.4l0.3,0.4l0.1,0.1l0.1-0.1l0.3-0.4l0.3,0.4l0.1,0.1l0.1-0.1l0.3-0.5l0.2,0.5l0.1,0.1l0-0.1
			l0.3-0.4l0.3,0.4l0,0.1l0.3-0.5l0.3,0.4l0.1,0.1l0.1-0.1l0.3-0.4l0.3,0.5l0.1-0.1l0.3-0.5l0.3,0.5l0.1,0.1l0.3-0.5l0.3,0.4l0,0.1
			l0.3-0.5l0.3,0.4l0.1,0.1l0.1-0.1l0.3-0.4l0.3,0.5l0-0.1l0,0l-1.9-4.6H372.6z M373.2,335.6l-0.4-0.7l-0.1-0.2l-0.5,0.8l0.2,0.1
			l0.3-0.6l0.3,0.6L373.2,335.6z M376.1,334l-0.4-0.7l-0.1-0.2l-0.5,0.9l0.2,0.1l0.3-0.6l0.3,0.6L376.1,334z M378,334l-0.4-0.7
			l-0.1-0.2L377,334l0.2,0.1l0.3-0.6l0.3,0.6L378,334z M379,335.6l-0.4-0.7l-0.1-0.2l-0.5,0.8l0.1,0.1l0.3-0.6l0.3,0.6L379,335.6z
			 M377,335.6l-0.3-0.7l-0.1-0.2l-0.5,0.8l0.2,0.1l0.3-0.6l0.3,0.6L377,335.6z M375.1,335.6l-0.3-0.7l-0.1-0.2l-0.5,0.8l0.2,0.1
			l0.3-0.6l0.3,0.6L375.1,335.6z M374.3,334l-0.3-0.7l-0.1-0.2l-0.5,0.9l0.2,0.1l0.3-0.6l0.3,0.6L374.3,334z M371.4,338.1H370v1.9
			h1.4V338.1z M381,338.1h-1.4v1.9h1.4V338.1z M379.1,338.1h-1.4v1.9h1.4V338.1z M377.2,338.1h-1.4v1.9h1.4V338.1z M375.3,338.1
			h-1.4v1.9h1.4V338.1z M373.3,338.1h-1.4v1.9h1.4V338.1z M376.2,320.7H375v-0.8h1.1V320.7z M372.5,326.9l-0.4-0.4l-0.4,0.4l0.4,0.4
			L372.5,326.9z M379.5,326.9l-0.4-0.4l-0.4,0.4l0.4,0.4L379.5,326.9z M378.9,328.6l-0.2,0.3l-0.2,0.3h0l-0.1-0.3l-0.2-0.3l-0.2,0.3
			l-0.1,0.3l0,0l-0.2-0.3l-0.2-0.3l-0.2,0.3l-0.2,0.3l0,0l-0.2-0.3l-0.2-0.3l-0.2,0.3l-0.2,0.3l0,0l-0.2-0.3l-0.2-0.3l-0.2,0.3
			l-0.1,0.3h0l-0.2-0.3l-0.2-0.3l-0.2,0.3l-0.1,0.3h0l-0.2-0.3l-0.2-0.3l-0.2,0.3l-0.1,0.3h0l-0.2-0.3l-0.2-0.3l-0.2,0.3l-0.1,0.3h0
			l-0.2-0.3l-0.2-0.3l-0.2,0.3l-0.2,0.3l0,0l-0.1-0.3l-0.2-0.3l-0.2,0.3l-0.1,0.3h0l-0.1-0.3l-0.2-0.3l-0.1,0.2v-1.4l-0.1,0.1
			l-0.1-0.1v1.8l0,0v3h7.2v-3l0,0v-1.8l-0.1,0.1l-0.1-0.1v1.4L378.9,328.6z M375.6,319.4c0,0.1,0,0.2,0,0.3h0
			C375.6,319.7,375.6,319.5,375.6,319.4L375.6,319.4z M375.5,320.8c-0.4,2.7-1.7,5-2.5,7.5v0l0.3,0.5l0,0.1l0.3-0.6l0.3,0.5l0,0.1
			l0-0.1l0.3-0.5l0.3,0.6l0-0.1l0.3-0.5l0.3,0.6l0-0.1l0.3-0.5l0.3,0.5l0,0.1l0-0.1l0.3-0.5l0.3,0.6l0-0.1l0.3-0.5l0.3,0.6l0-0.1
			l0.3-0.5l0.2,0.5l0.1,0.1l0-0.1l0.3-0.5c0.1-0.1-2.4-6.4-2.5-7.5H375.5z M376.1,324.5l-0.4-0.6l-0.1-0.2l-0.5,0.8l0.2,0.1l0.3-0.6
			l0.3,0.6L376.1,324.5z M374.6,327.8l-0.3-0.7l-0.1-0.2l-0.5,0.9l0.2,0.1l0.3-0.6l0.3,0.6L374.6,327.8z M376.1,327.8l-0.4-0.7
			l-0.1-0.2l-0.5,0.9l0.2,0.1l0.3-0.6l0.3,0.6L376.1,327.8z M377.6,327.8l-0.4-0.7l-0.1-0.2l-0.5,0.9l0.2,0.1l0.3-0.6l0.3,0.6
			L377.6,327.8z M375.2,326.2l-0.4-0.7l-0.1-0.2l-0.5,0.9l0.2,0.1l0.3-0.6l0.3,0.6L375.2,326.2z M376.9,326.2l-0.4-0.7l-0.1-0.2
			l-0.5,0.9l0.1,0.1l0.4-0.6l0.3,0.6L376.9,326.2z M372,326.5v-0.3h0.2v0.3l-0.1-0.1L372,326.5z M379,326.5v-0.3h0.2v0.3l-0.1-0.1
			L379,326.5z M373.5,329.8h-1.1v1.9h1.1V329.8z M378.8,329.8h-1.1v1.9h1.1V329.8z M377.5,329.8h-1.1v1.9h1.1V329.8z M376.2,329.8
			h-1.1v1.9h1.1V329.8z M374.8,329.8h-1.1v1.9h1.1V329.8z M380.9,373h0.6v-8.8h-0.6V373z M369.7,373h0.6v-8.8h-0.6V373z M370.8,373
			h0.6v-8.8h-0.6V373z M371.9,373h0.6v-8.8h-0.6V373z M373.1,373h0.6v-8.8h-0.6V373z M374.2,373h0.6v-8.8h-0.6V373z M375.3,373h0.7
			v-8.8h-0.7V373z M376.4,373h0.6v-8.8h-0.6V373z M377.5,373h0.6v-8.8h-0.6V373z M378.6,373h0.6v-8.8h-0.6V373z M379.8,373h0.6v-8.8
			h-0.6V373z M380.9,363.7h0.6v-8.1h-0.6V363.7z M369.7,363.7h0.6v-8.1h-0.6V363.7z M370.8,363.7h0.6v-8.1h-0.6V363.7z M371.9,363.7
			h0.6v-8.1h-0.6V363.7z M373.1,363.7h0.6v-8.1h-0.6V363.7z M374.2,363.7h0.6v-8.1h-0.6V363.7z M375.3,363.7h0.7v-8.1h-0.7V363.7z
			 M376.4,363.7h0.6v-8.1h-0.6V363.7z M377.5,363.7h0.6v-8.1h-0.6V363.7z M378.6,363.7h0.6v-8.1h-0.6V363.7z M379.8,363.7h0.6v-8.1
			h-0.6V363.7z M382,355.2h-12.7v18.1H382V355.2z M370.9,353.3h-0.7v0.7h0.7V353.3z M381,353.3h-0.7v0.7h0.7V353.3z M380.1,353.3
			h-0.7v0.7h0.7V353.3z M379.2,353.3h-0.7v0.7h0.7V353.3z M378.3,353.3h-0.7v0.7h0.7V353.3z M377.3,353.3h-0.7v0.7h0.7V353.3z
			 M376.4,353.3h-0.7v0.7h0.7V353.3z M375.5,353.3h-0.7v0.7h0.7V353.3z M374.5,353.3h-0.7v0.7h0.7V353.3z M373.6,353.3h-0.7v0.7h0.7
			V353.3z M372.7,353.3H372v0.7h0.7V353.3z M371.8,353.3h-0.7v0.7h0.7V353.3z M375.6,347.9c-0.1,0-0.2,0-0.2,0l-0.3,0.3
			c0,0.2,0,0.3-0.1,0.3c0,0-0.1,0-0.2,0c-0.1-0.1-0.1-0.1-0.2-0.2c-0.1,0-0.1-0.1,0-0.2c0.1-0.1,0.2-0.1,0.3-0.1l0.3-0.3
			c-0.1,0-0.1-0.2-0.1-0.2c0,0,0-0.1,0-0.1l-2.8-3c0,0,0,0,0-0.1h0.1c0,0,0,0,0,0l2.9,2.7c0,0,0.1,0,0.2,0c0.1,0,0.2,0,0.3,0.1
			l0.5-0.4c0,0-0.1,0-0.1-0.1c-0.1,0-0.1-0.2,0-0.2c0.1-0.1,0.3-0.1,0.5-0.1l0.1-0.1V346h0.3v0.2h-0.2l-0.1,0.1c0,0.2,0,0.4-0.1,0.5
			c-0.1,0-0.2,0-0.2,0c0,0,0,0,0,0l-0.5,0.5c0,0.1,0.1,0.2,0.1,0.2c0,0.1,0,0.1,0,0.2c0.1,0.2,0.3,0.3,0.6,0.4c0,0,0,0,0,0
			c0,0,0,0.1,0,0.1c-0.1,0-0.1,0-0.1,0.1c0,0,0,0,0,0.1c0,0,0,0.1,0,0.1c-0.1,0-0.1,0-0.1,0c0,0-0.1,0-0.1,0.1h0c0,0,0,0-0.1,0
			C376.1,348.2,375.9,348,375.6,347.9C375.7,347.9,375.7,347.9,375.6,347.9L375.6,347.9z M375.5,343.4c-0.1,0-0.2,0-0.3,0l0-0.5h0
			c0.1,0,0.2,0,0.3,0V343.4z M375,343.4c-0.1,0-0.2,0-0.3,0.1l-0.1-0.5l0,0c0.1,0,0.3-0.1,0.4-0.1l0,0L375,343.4z M374.5,343.6
			c-0.1,0-0.2,0.1-0.3,0.1l-0.2-0.5c0.1,0,0.2-0.1,0.3-0.1l0,0L374.5,343.6z M374,343.7c-0.1,0.1-0.2,0.1-0.3,0.2l-0.3-0.4
			c0.1-0.1,0.3-0.2,0.4-0.2L374,343.7z M373.5,344c-0.1,0.1-0.2,0.1-0.2,0.2l-0.3-0.4c0.1,0,0.2-0.1,0.3-0.2L373.5,344z
			 M373.1,344.3c-0.1,0.1-0.1,0.1-0.2,0.2l0.1,0.1C373,344.4,373.1,344.4,373.1,344.3L373.1,344.3L373.1,344.3l0.1,0
			c0.1-0.1,0.2-0.2,0.3-0.2l0,0h0l0.8,1.4c-0.1,0-0.2,0.1-0.2,0.1l0.1,0.1c0.3-0.3,0.8-0.5,1.4-0.5c0.5,0,1.1,0.2,1.5,0.6h0.2l0,0
			c-0.1-0.1-0.2-0.2-0.4-0.3l0.8-1.4h0l0,0c0.2,0.1,0.3,0.2,0.4,0.3l0,0l0,0c0.1,0.1,0.2,0.2,0.3,0.2c0.1,0.1,0.2,0.2,0.3,0.3v0l0,0
			c0.1,0.1,0.2,0.2,0.2,0.3l-1.4,0.8c-0.1-0.1-0.2-0.3-0.3-0.4v0.2c0.3,0.3,0.5,0.9,0.5,1.4c0,0.6-0.3,1.2-0.7,1.6
			c-0.4,0.4-1,0.7-1.5,0.7c-0.6,0-1.2-0.3-1.6-0.7c-0.4-0.4-0.7-1-0.7-1.6c0-0.5,0.2-1,0.5-1.3l-0.1-0.1c0,0-0.1,0.1-0.1,0.2
			l-1.4-0.8c0.1-0.2,0.2-0.3,0.3-0.4v0l0,0c0,0,0,0,0.1-0.1l-0.1-0.1c0,0,0,0.1-0.1,0.1l-0.4-0.3c0.1,0,0.1-0.1,0.2-0.2v0
			c0,0,0,0,0-0.1v-0.1l0.1,0c0-0.1,0.1-0.1,0.2-0.1c0.1-0.1,0.2-0.1,0.3-0.2l0,0L373.1,344.3z M372.5,344.9L372.5,344.9l-0.4-0.3
			l0,0l0,0L372.5,344.9L372.5,344.9z M372.4,345c-0.1,0.1-0.2,0.2-0.2,0.3l-0.2-0.2l-0.2-0.1l0,0c0.1-0.1,0.2-0.3,0.2-0.3h0
			L372.4,345z M372.1,345.5c0,0.1-0.1,0.2-0.1,0.3l-0.5-0.2c0-0.1,0.1-0.2,0.2-0.3l0,0L372.1,345.5z M371.8,346
			c0,0.1-0.1,0.2-0.1,0.3l-0.5-0.2h0c0-0.2,0.1-0.3,0.2-0.4l0,0L371.8,346z M371.7,346.4L371.7,346.4l-0.5-0.1l0,0l0,0L371.7,346.4z
			 M371.7,346.5c0,0.1,0,0.2-0.1,0.3l-0.5-0.1c0-0.1,0-0.2,0.1-0.3v0L371.7,346.5z M371.6,346.8L371.6,346.8l-0.5,0l0,0v0
			L371.6,346.8z M371.6,347c0,0.1,0,0.2,0,0.3h-0.5c0-0.2,0-0.3,0-0.4L371.6,347z M371.6,347.5c0,0.1,0,0.2,0,0.3l-0.5,0l0,0
			c0-0.1,0-0.2,0-0.3H371.6z M371.6,348c0,0.1,0,0.3,0.1,0.4l-0.5,0.1l0,0c0-0.2-0.1-0.3-0.1-0.4l0,0L371.6,348z M371.7,348.5
			L371.7,348.5L371.7,348.5l-0.5,0.1l0,0L371.7,348.5z M371.7,348.6c0,0.1,0.1,0.2,0.1,0.2l-0.5,0.2v0c0-0.1-0.1-0.2-0.1-0.3h0
			L371.7,348.6z M371.9,348.9L371.9,348.9L371.9,348.9l-0.4,0.2l0,0v0L371.9,348.9z M371.9,349c0,0.1,0.1,0.2,0.2,0.3l-0.5,0.3l0,0
			c-0.1-0.1-0.1-0.3-0.2-0.4l0,0L371.9,349z M372.2,349.6c0,0.1,0.1,0.2,0.2,0.2l-0.5,0.3l0,0c0-0.1-0.1-0.2-0.2-0.3l0,0
			L372.2,349.6z M372.5,349.9c0.1,0.1,0.2,0.2,0.2,0.3l-0.3,0.4h0c-0.1-0.1-0.2-0.2-0.3-0.3l0,0L372.5,349.9z M372.8,350.4
			c0.1,0,0.1,0.1,0.2,0.2l-0.3,0.4h0c-0.1-0.1-0.2-0.2-0.2-0.2l0,0L372.8,350.4z M373.2,350.7c0.1,0.1,0.2,0.1,0.3,0.2l-0.2,0.5h0
			c-0.1-0.1-0.2-0.2-0.3-0.3l0,0L373.2,350.7z M373.7,351c0.1,0,0.2,0.1,0.2,0.1l-0.2,0.5c-0.1,0-0.2-0.1-0.3-0.2l0,0L373.7,351z
			 M374.1,351.2c0.1,0,0.2,0.1,0.3,0.1l-0.1,0.5l0,0c-0.2,0-0.3-0.1-0.4-0.1L374.1,351.2z M374.5,351.3L374.5,351.3L374.5,351.3
			l-0.1,0.4l0,0h0L374.5,351.3z M374.7,351.4c0.1,0,0.2,0,0.3,0l-0.1,0.5l0,0c-0.1,0-0.2,0-0.3,0l0,0L374.7,351.4z M375,351.4
			L375,351.4l0,0.4l0,0L375,351.4z M375.1,351.4c0.1,0,0.3,0,0.4,0v0.5c-0.2,0-0.3,0-0.5,0l0,0L375.1,351.4z M375.7,351.5
			c0.1,0,0.2,0,0.3,0l0.1,0.5v0c-0.1,0-0.2,0-0.3,0V351.5z M376.2,351.4c0.1,0,0.2,0,0.3-0.1l0.1,0.5l0,0c-0.1,0-0.3,0-0.4,0.1l0,0
			L376.2,351.4z M376.7,351.3L376.7,351.3l0.1,0.4l0,0h0L376.7,351.3L376.7,351.3z M376.7,351.3c0.1,0,0.2,0,0.3-0.1l0.2,0.5v0
			c-0.1,0-0.2,0.1-0.3,0.1l0,0L376.7,351.3z M377.1,351.2L377.1,351.2l0.2,0.4l0,0L377.1,351.2z M377.2,351.1c0.1,0,0.2-0.1,0.3-0.2
			l0.3,0.4v0c-0.1,0-0.3,0.1-0.4,0.2v0L377.2,351.1z M377.7,350.9c0.1,0,0.2-0.1,0.2-0.2l0.3,0.4c-0.1,0.1-0.2,0.1-0.3,0.2l0,0
			L377.7,350.9z M378,350.7L378,350.7L378,350.7l0.3,0.3l0,0L378,350.7z M378.1,350.6c0.1-0.1,0.2-0.2,0.3-0.2l0.4,0.3l0,0
			c-0.1,0.1-0.2,0.2-0.3,0.3l0,0L378.1,350.6z M378.5,350.2c0.1-0.1,0.1-0.2,0.2-0.2l0.4,0.3c0,0.1-0.1,0.2-0.2,0.2L378.5,350.2z
			 M378.8,349.8c0.1-0.1,0.2-0.2,0.2-0.3l0.5,0.3c-0.1,0.2-0.2,0.3-0.2,0.4h0L378.8,349.8z M379.1,349.4c0-0.1,0.1-0.2,0.1-0.2
			l0.5,0.2c-0.1,0.1-0.1,0.2-0.2,0.3h0L379.1,349.4z M379.3,348.9c0-0.1,0.1-0.2,0.1-0.3l0.5,0.1h0c-0.1,0.2-0.1,0.3-0.2,0.4
			L379.3,348.9z M379.5,348.4c0-0.1,0-0.2,0-0.3l0.5,0.1c0,0.1,0,0.2-0.1,0.3l0,0L379.5,348.4z M379.6,348L379.6,348l0.5,0.1l0,0h0
			L379.6,348z M379.6,347.9c0-0.1,0-0.2,0-0.3h0.5c0,0.2,0,0.3,0,0.4L379.6,347.9z M379.6,347.3c0-0.1,0-0.2,0-0.2l0.5-0.1l0,0
			c0,0.1,0,0.2,0,0.3H379.6z M379.6,347L379.6,347L379.6,347l0.5-0.1l0,0v0L379.6,347z M379.6,346.8c0-0.1,0-0.2-0.1-0.3l0.5-0.1v0
			c0,0.2,0.1,0.3,0.1,0.5l0,0L379.6,346.8z M379.5,346.3c0-0.1-0.1-0.2-0.1-0.3l0.5-0.2l0,0c0,0.1,0.1,0.2,0.1,0.3l0,0L379.5,346.3z
			 M379.3,345.9L379.3,345.9l0.4-0.2l0,0v0L379.3,345.9z M379.3,345.8c0-0.1-0.1-0.2-0.2-0.3l0.4-0.2h0c0.1,0.1,0.1,0.3,0.2,0.4
			L379.3,345.8z M379,345.3c0-0.1-0.1-0.2-0.1-0.2l0.4-0.3c0.1,0.1,0.2,0.2,0.2,0.3L379,345.3z M378.8,344.9
			c-0.1-0.1-0.2-0.2-0.2-0.3l0.4-0.3c0.1,0.1,0.2,0.2,0.3,0.3v0L378.8,344.9z M378.4,344.5c0-0.1-0.1-0.2-0.2-0.2l0.3-0.4
			c0.1,0.1,0.2,0.2,0.3,0.2L378.4,344.5z M378.1,344.3L378.1,344.3l0.3-0.3l0,0L378.1,344.3L378.1,344.3z M378,344.2
			c-0.1-0.1-0.2-0.2-0.3-0.2l0.3-0.4c0.1,0.1,0.2,0.2,0.3,0.2L378,344.2z M377.5,343.9c-0.1-0.1-0.2-0.1-0.2-0.2l0.2-0.5l0,0
			c0.1,0,0.2,0.1,0.3,0.2L377.5,343.9z M377.1,343.7c-0.1,0-0.2-0.1-0.3-0.1l0.2-0.5l0,0c0.1,0,0.3,0.1,0.4,0.2l0,0L377.1,343.7z
			 M376.6,343.5c-0.1,0-0.2,0-0.3-0.1l0.1-0.5c0.1,0,0.2,0,0.3,0.1l0,0L376.6,343.5z M376.2,343.4L376.2,343.4L376.2,343.4l0-0.5
			l0,0L376.2,343.4z M376.1,343.4c-0.1,0-0.3,0-0.4,0v-0.5c0.2,0,0.3,0,0.5,0L376.1,343.4z M373.7,344c0.1-0.1,0.2-0.1,0.3-0.2h0
			l0.1,0l0,0c0.1,0,0.2-0.1,0.3-0.1h0l0.1,0h0.1c0.1,0,0.2,0,0.3-0.1l0,0h0h0.1h0v0c0.1,0,0.2,0,0.3,0v1.6c-0.3,0-0.7,0.1-1,0.3
			L373.7,344z M375.7,343.5c0.1,0,0.2,0,0.3,0l0,0h0h0.1h0c0.1,0,0.2,0,0.3,0.1l0,0h0l0.1,0h0c0.1,0,0.2,0.1,0.3,0.1v0h0
			c0,0,0.1,0,0.1,0l0,0l0,0l0,0c0.1,0,0.2,0.1,0.2,0.1l-0.8,1.4c-0.3-0.2-0.6-0.2-1-0.3V343.5z M379.1,345.6
			c0.1,0.1,0.1,0.2,0.2,0.3l0,0l0,0c0,0,0,0.1,0,0.1v0l0,0c0,0.1,0.1,0.3,0.1,0.4l0,0l0,0c0.1,0.3,0.1,0.5,0.1,0.9h-1.6
			c0-0.3-0.1-0.7-0.2-1L379.1,345.6z M379.5,347.5c0,0.1,0,0.2,0,0.3l0,0l0,0c0,0.2,0,0.3-0.1,0.5l0,0l0,0c-0.1,0.3-0.2,0.7-0.3,1
			l-1.4-0.8c0.2-0.3,0.2-0.6,0.3-1H379.5z M378.9,349.5c0,0.1-0.1,0.2-0.2,0.3l-0.1,0.1l0,0l0,0c-0.1,0.1-0.1,0.2-0.2,0.2l-0.1,0
			l0,0.1l0,0l-0.1,0h0c-0.1,0.1-0.2,0.2-0.3,0.2h0v0l0,0c-0.1,0.1-0.2,0.1-0.3,0.2l-0.8-1.4c0.1-0.1,0.3-0.2,0.4-0.3
			c0.1-0.1,0.2-0.2,0.3-0.4L378.9,349.5L378.9,349.5L378.9,349.5z M377.5,350.9c-0.1,0-0.2,0.1-0.3,0.2v0l-0.1,0l0,0l-0.1,0l0,0l0,0
			c-0.1,0-0.2,0-0.2,0.1l0,0h0c0,0-0.1,0-0.2,0h0l0,0c-0.2,0-0.3,0.1-0.4,0.1H376l0,0c-0.1,0-0.2,0-0.3,0v-1.6c0.3,0,0.7-0.1,1-0.3
			L377.5,350.9z M375.5,351.4c-0.1,0-0.2,0-0.3,0l0,0l0,0c0,0-0.1,0-0.1,0h0h0c-0.1,0-0.2,0-0.3-0.1l0,0l0,0c-0.2,0-0.4-0.1-0.6-0.2
			h0l0,0c-0.1,0-0.2-0.1-0.3-0.2l0.8-1.4c0.3,0.2,0.6,0.2,1,0.3V351.4z M373.5,350.8c-0.1,0-0.2-0.1-0.3-0.2h0l0,0l-0.1,0v0h0l0,0
			c0-0.1-0.1-0.1-0.2-0.2h0l0,0l-0.1-0.1l-0.1,0c-0.1-0.1-0.2-0.2-0.2-0.3h0h0l-0.1-0.1l0,0c0-0.1-0.1-0.2-0.1-0.2l0,0l0,0h0
			l1.4-0.8c0.1,0.2,0.2,0.3,0.3,0.4c0.1,0.1,0.2,0.2,0.4,0.3L373.5,350.8L373.5,350.8L373.5,350.8z M372.1,349.3
			c-0.1-0.1-0.1-0.2-0.2-0.4l0,0h0c0-0.1-0.1-0.3-0.1-0.4l0,0l0,0c0-0.1,0-0.1,0-0.2l0,0l0,0c-0.1-0.3-0.1-0.5-0.1-0.8h1.6
			c0,0.3,0.1,0.7,0.3,1L372.1,349.3z M371.7,347.3c0-0.1,0-0.3,0-0.4l0,0l0,0c0-0.1,0-0.1,0-0.2l0,0l0,0c0-0.1,0-0.2,0.1-0.3l0,0
			l0,0c0-0.1,0-0.1,0-0.2v0l0,0c0-0.1,0.1-0.2,0.1-0.3l0,0l0-0.1v0c0,0,0,0,0-0.1l0,0l0,0c0-0.1,0.1-0.2,0.1-0.2l1.4,0.8
			c-0.2,0.3-0.3,0.6-0.3,1H371.7z M380.8,342.2h-5.2c2.9,0,5.2,2.4,5.2,5.3V342.2z M376.7,343.1L376.7,343.1L376.7,343.1l-0.1,0.5
			L376.7,343.1z M378.8,344.3L378.8,344.3L378.8,344.3l-0.3,0.3l0,0L378.8,344.3z M380,346.3L380,346.3L380,346.3l-0.5,0.1
			L380,346.3z M380,348.6L380,348.6L380,348.6l-0.5-0.1l0,0L380,348.6z M378.8,350.6L378.8,350.6L378.8,350.6l-0.3-0.3h0
			L378.8,350.6z M372.5,350.6L372.5,350.6L372.5,350.6l0.3-0.3h0L372.5,350.6z M374.4,343.1L374.4,343.1L374.4,343.1l0.1,0.5
			L374.4,343.1z M377.4,343.3L377.4,343.3l-0.2,0.4L377.4,343.3z M379.2,344.7L379.2,344.7l-0.4,0.3v0L379.2,344.7z M379.8,349.2
			L379.8,349.2L379.8,349.2l-0.5-0.2l0,0L379.8,349.2z M379.1,350.2L379.1,350.2L379.1,350.2l-0.4-0.3L379.1,350.2z M376.1,351.9
			L376.1,351.9l0-0.5L376.1,351.9z M373.8,351.6L373.8,351.6L373.8,351.6l0.2-0.5L373.8,351.6z M372.8,351L372.8,351L372.8,351
			l0.3-0.4L372.8,351z M372,350.1L372,350.1L372,350.1l0.4-0.3L372,350.1z M371.1,348L371.1,348l0.5,0L371.1,348z M371.4,345.6
			L371.4,345.6l0.4,0.2L371.4,345.6z M372.9,343.8L372.9,343.8L372.9,343.8l0.3,0.3v0L372.9,343.8z M373.9,343.2L373.9,343.2
			L373.9,343.2l0.2,0.4l0,0L373.9,343.2z M375.1,343L375.1,343l0,0.5L375.1,343z M375.6,342.2h-5.3v5.3
			C370.4,344.5,372.7,342.2,375.6,342.2L375.6,342.2z M370.4,347.4v5.3h5.3C372.7,352.7,370.4,350.3,370.4,347.4L370.4,347.4z
			 M375.6,352.7h5.2v-5.3C380.8,350.3,378.5,352.7,375.6,352.7L375.6,352.7z M375.6,352.4c-2.7,0-5-2.2-5-5c0-2.7,2.2-4.9,5-4.9
			c2.7,0,5,2.2,5,4.9C380.6,350.2,378.3,352.4,375.6,352.4L375.6,352.4z M380,352.1c-0.2,0-0.4-0.2-0.4-0.4c0-0.2,0.2-0.3,0.4-0.3
			c0.2,0,0.4,0.2,0.4,0.3C380.4,352,380.2,352.1,380,352.1L380,352.1z M380,343.4c-0.2,0-0.4-0.2-0.4-0.4c0-0.2,0.2-0.4,0.4-0.4
			c0.2,0,0.4,0.2,0.4,0.4C380.4,343.2,380.2,343.4,380,343.4L380,343.4z M371.3,343.4c-0.2,0-0.4-0.2-0.4-0.4c0-0.2,0.2-0.4,0.4-0.4
			c0.2,0,0.4,0.2,0.4,0.4C371.6,343.2,371.5,343.4,371.3,343.4L371.3,343.4z M371.3,352.1c-0.2,0-0.4-0.2-0.4-0.4
			c0-0.2,0.2-0.3,0.4-0.3c0.2,0,0.4,0.2,0.4,0.3C371.6,352,371.5,352.1,371.3,352.1L371.3,352.1z M381,342v10.8h-10.8V342H381z
			 M381,340.9h-0.7v0.8h0.7V340.9z M370.9,340.9h-0.7v0.8h0.7V340.9z M371.8,340.9h-0.7v0.8h0.7V340.9z M372.7,340.9H372v0.8h0.7
			V340.9z M373.6,340.9h-0.7v0.8h0.7V340.9z M374.5,340.9h-0.7v0.8h0.7V340.9z M375.5,340.9h-0.7v0.8h0.7V340.9z M376.4,340.9h-0.7
			v0.8h0.7V340.9z M377.3,340.9h-0.7v0.8h0.7V340.9z M378.3,340.9h-0.7v0.8h0.7V340.9z M379.2,340.9h-0.7v0.8h0.7V340.9z
			 M380.1,340.9h-0.7v0.8h0.7V340.9z M369.7,354h0.2v-13.1h-0.2V354z M368.9,354h0.2v-13.1h-0.2V354z M369.3,354h0.2v-13.1h-0.2V354
			z M381.3,354h0.2v-13.1h-0.2V354z M382.1,354h0.2v-13.1h-0.2V354z M381.7,354h0.2v-13.1h-0.2V354z"/>
		<path class="st14" d="M525.1,352.8v-0.5l-1.6-0.8v2.7L525.1,352.8z M490.1,338.4h11.6v3.4h-11.6V338.4z M501.7,342.3v5.1h-11.6
			v-5.1H501.7z M501.7,348.3v9.2h-11.6v-9.2H501.7z M493.1,339.5h2v0.4h-2V339.5z M499.9,344v2.4H498V344c0-0.4,0.5-0.8,0.9-0.8
			C499.5,343.2,499.9,343.6,499.9,344L499.9,344z M496.9,344v2.4h-1.9V344c0-0.4,0.4-0.8,0.9-0.8C496.5,343.2,496.9,343.6,496.9,344
			L496.9,344z M493.9,344v2.4h-1.9V344c0-0.4,0.4-0.8,0.9-0.8C493.5,343.2,493.9,343.6,493.9,344L493.9,344z M496.8,350.9h2v0.4h-2
			V350.9z M494.4,350.9h2v0.4h-2V350.9z M495.8,351.4h2v0.4h-2V351.4z M497,352.2h2v0.4h-2V352.2z M494.6,352.2h2v0.4h-2V352.2z
			 M493.1,356.1h1.9v0.4h-1.9V356.1z M492.2,355.6h2v0.4h-2V355.6z M491.2,355.1h2v0.4h-2V355.1z M498.7,355h2v0.4h-2V355z
			 M497.6,339h2v0.4h-2V339z M494.5,340.4h2v0.4h-2V340.4z M475,368.5h19.6v15.3H475V368.5z M494.6,384.5v16.4H475v-16.4H494.6z
			 M489.4,396.6h3.3v0.7h-3.3V396.6z M486.3,389.6h3.3v0.7h-3.3V389.6z M482.2,389.7h3.3v0.7h-3.3V389.7z M484.5,390.6h3.3v0.7h-3.3
			V390.6z M486.5,391.9h3.3v0.7h-3.3V391.9z M482.6,391.9h3.3v0.7h-3.3V391.9z M479.9,398.6h3.3v0.7h-3.3V398.6z M478.3,397.7h3.3
			v0.7h-3.3V397.7z M476.8,396.7h3.3v0.7h-3.3V396.7z M481.3,378v4h-3.1v-4c0-0.7,0.7-1.4,1.6-1.4
			C480.6,376.6,481.3,377.2,481.3,378L481.3,378z M491.5,378v4h-3.1v-4c0-0.7,0.7-1.4,1.5-1.4C490.7,376.6,491.5,377.2,491.5,378
			L491.5,378z M486.4,378v4h-3.1v-4c0-0.7,0.7-1.4,1.5-1.4C485.7,376.6,486.4,377.2,486.4,378L486.4,378z M479.9,370.3h3.3v0.7h-3.3
			V370.3z M487.6,369.5h3.3v0.7h-3.3V369.5z M482.3,371.9h3.3v0.7h-3.3V371.9z M475,373.8h19.6v0.7H475V373.8z M496,330.4l-3.9,3.2
			h8L496,330.4z M499.3,333.8v4.3h-6.4v-4.3H499.3z M495.4,335.5h1.3v-1.3h-1.3V335.5z M529.2,349.5l-5.5,4.6H535L529.2,349.5z
			 M533.8,354.4v6.1h3.4v26.7H521v-26.7h3.9v-6.1H533.8z M528.4,356.5h1.8v-1.8h-1.8V356.5z M525.1,362h2.7v0.5h-2.7V362z
			 M534.7,368.4v3.2h-2.6v-3.2c0-0.6,0.5-1.1,1.3-1.1C534,367.3,534.7,367.8,534.7,368.4L534.7,368.4z M530.5,368.4v3.2h-2.6v-3.2
			c0-0.6,0.6-1.1,1.3-1.1C529.9,367.3,530.5,367.8,530.5,368.4L530.5,368.4z M526.3,368.4v3.2h-2.6v-3.2c0-0.6,0.6-1.1,1.3-1.1
			C525.7,367.3,526.3,367.8,526.3,368.4L526.3,368.4z M530.4,377.9h2.7v0.6h-2.7V377.9z M527,378.1h2.7v0.6H527V378.1z M528.9,378.8
			h2.8v0.6h-2.8V378.8z M530.6,379.8h2.7v0.6h-2.7V379.8z M527.3,379.8h2.8v0.6h-2.8V379.8z M525.1,385.4h2.7v0.6h-2.7V385.4z
			 M523.8,384.6h2.7v0.6h-2.7V384.6z M522.5,383.9h2.7v0.6h-2.7V383.9z M533,383.7h2.7v0.5H533V383.7z M531.4,361.4h2.7v0.5h-2.7
			V361.4z M527.1,363.4h2.7v0.6h-2.7V363.4z M521,364.9h16.2v0.8H521V364.9z M521,373.2h16.2v1.6H521V373.2z M484.8,355.1l-6.6,5.5
			h13.7L484.8,355.1z M490.5,361v7h-10.8v-7H490.5z M483.9,363.6h2.2v-2.2h-2.2V363.6z M495.1,379.3l0.5-0.3v4.1l0.9-0.4v-4.1
			l1.9-0.9v4.1l0.9-0.4v-4.1l1.9-0.9v4.1l0.9-0.4V376l1.9-0.9v4.1l0.9-0.4v-4.1l1.9-0.9v4.1l0.9-0.4v-4.2l1.9-0.9v4.1l0.9-0.4v-4.1
			l1.9-0.9v4.1l0.9-0.4v-4.1l1.8-0.9v4.1l0.9-0.4v-4.1l1.9-0.9v4.1l0.9-0.4v-4.1l1.9-0.9v4.1l0.4-0.2v13.9l-25.4,12.2V379.3z
			 M523.5,354.2v0.9l-0.7-0.3v-3.6l-1.6-0.8v3.6l-0.7-0.4V350l-1.6-0.8v3.6l-0.8-0.4v-3.6l-1.5-0.8v3.6l-0.8-0.4v-3.6l-1.6-0.7v3.5
			l-0.7-0.3v-3.6l-1.6-0.8v3.6l-0.7-0.3v-3.6l-1.6-0.8v3.6l-0.7-0.3v-3.6l-1.6-0.8v3.6l-0.7-0.3v-3.6l-1.6-0.8v3.6l-0.8-0.3v-3.6
			l-1.5-0.8v3.6l-0.2-0.1v12l18.3,8.8V360h4.1v-5.9H523.5z"/>
		<path class="st14" d="M313.9,337.6l-0.6,5.8l-20.5-2.2l0.6-5.8L313.9,337.6z M297.6,390.6c10.7,0,20,4.3,23.7,10.3h-47.5
			C277.6,394.8,286.8,390.6,297.6,390.6L297.6,390.6z M288.4,374.9l21.8,2.4l-0.1,1.3l-21.9-2.4L288.4,374.9z M296.9,326.2l15.7,1.7
			l0.1-1.2l-15.7-1.7L296.9,326.2z M293,333.4l21.9,2.4l-0.2,1.4l-21.8-2.4L293,333.4z M292.1,341.7l21.8,2.4l-0.1,1.4l-21.9-2.4
			L292.1,341.7z M291.2,350l21.8,2.4l-0.2,1.3l-21.8-2.4L291.2,350z M290.3,358.3l21.9,2.4l-0.2,1.4l-21.8-2.4L290.3,358.3z
			 M289.4,366.6l21.8,2.4l-0.2,1.4l-21.8-2.4L289.4,366.6z M310.5,334.9l0.7-6.7l-13.2-1.4l-0.7,6.7L310.5,334.9z M301.6,330.1
			l-0.2,2.4l-2.3-0.2l0.2-2.4c0.1-0.7,0.7-1.2,1.3-1.1C301.2,328.9,301.6,329.5,301.6,330.1L301.6,330.1z M309.4,331l-0.3,2.4
			l-2.3-0.3l0.3-2.4c0.1-0.7,0.7-1.1,1.3-1C309,329.8,309.5,330.3,309.4,331L309.4,331z M305.5,330.6l-0.3,2.4l-2.3-0.3l0.3-2.4
			c0-0.7,0.6-1.2,1.3-1C305.1,329.3,305.5,329.9,305.5,330.6L305.5,330.6z M295.5,336.8l-0.4,3.8l-1.4-0.2l0.4-3.8
			c0-0.3,0.3-0.5,0.7-0.5C295.3,336.2,295.6,336.4,295.5,336.8L295.5,336.8z M308.8,372.2L308.8,372.2l-0.5,3.8l-1.3-0.2l0.4-3.8
			c0-0.3,0.3-0.5,0.7-0.5C308.5,371.6,308.8,371.9,308.8,372.2L308.8,372.2z M306.9,371.9L306.9,371.9l-0.4,3.9l-1.4-0.2l0.4-3.8
			c0-0.3,0.3-0.5,0.7-0.5C306.7,371.4,306.9,371.7,306.9,371.9L306.9,371.9z M305,371.8L305,371.8l-0.4,3.8l-1.3-0.1l0.4-3.9
			c0-0.3,0.4-0.5,0.8-0.5C304.8,371.2,305,371.4,305,371.8L305,371.8z M303.1,371.6L303.1,371.6l-0.4,3.8l-1.4-0.2l0.4-3.8
			c0-0.3,0.3-0.5,0.7-0.5C302.9,371,303.2,371.3,303.1,371.6L303.1,371.6z M301.2,371.3L301.2,371.3l-0.4,3.9l-1.3-0.2l0.4-3.8
			c0-0.3,0.4-0.5,0.7-0.5C301,370.7,301.3,371.1,301.2,371.3L301.2,371.3z M299.4,371.2L299.4,371.2L299,375l-1.4-0.1l0.4-3.9
			c0-0.3,0.4-0.5,0.8-0.5C299.2,370.6,299.4,370.8,299.4,371.2L299.4,371.2z M297.5,370.9L297.5,370.9l-0.4,3.8l-1.4-0.2l0.4-3.8
			c0-0.3,0.4-0.5,0.7-0.5C297.3,370.4,297.5,370.6,297.5,370.9L297.5,370.9z M295.6,370.7L295.6,370.7l-0.4,3.8l-1.4-0.2l0.4-3.8
			c0-0.3,0.4-0.5,0.8-0.5C295.4,370.1,295.6,370.4,295.6,370.7L295.6,370.7z M293.7,370.6L293.7,370.6l-0.4,3.8l-1.4-0.2l0.4-3.8
			c0-0.3,0.4-0.5,0.7-0.5C293.5,369.9,293.8,370.2,293.7,370.6L293.7,370.6z M291.8,370.3L291.8,370.3l-0.4,3.8l-1.4-0.2l0.4-3.8
			c0-0.3,0.3-0.5,0.7-0.5C291.6,369.7,291.9,370,291.8,370.3L291.8,370.3z M309.7,363.8L309.7,363.8l-0.4,3.8l-1.4-0.2l0.4-3.8
			c0-0.3,0.3-0.5,0.7-0.5C309.4,363.2,309.7,363.5,309.7,363.8L309.7,363.8z M307.8,363.6L307.8,363.6l-0.5,3.8l-1.3-0.2l0.4-3.8
			c0-0.3,0.3-0.5,0.7-0.5C307.6,363,307.8,363.3,307.8,363.6L307.8,363.6z M305.9,363.4L305.9,363.4l-0.4,3.8l-1.4-0.2l0.4-3.9
			c0-0.3,0.3-0.5,0.7-0.5C305.7,362.8,306,363.1,305.9,363.4L305.9,363.4z M304.1,363.2L304.1,363.2l-0.5,3.8l-1.3-0.1l0.4-3.8
			c0.1-0.3,0.4-0.5,0.8-0.5C303.8,362.6,304.1,362.9,304.1,363.2L304.1,363.2z M302.2,363L302.2,363l-0.4,3.8l-1.4-0.2l0.4-3.8
			c0-0.3,0.3-0.5,0.7-0.5C301.9,362.4,302.2,362.7,302.2,363L302.2,363z M300.3,362.8L300.3,362.8l-0.4,3.8l-1.3-0.2l0.4-3.9
			c0-0.3,0.4-0.5,0.7-0.5C300,362.2,300.3,362.4,300.3,362.8L300.3,362.8z M298.4,362.5L298.4,362.5l-0.4,3.8l-1.4-0.1l0.4-3.8
			c0-0.3,0.3-0.5,0.7-0.5C298.2,362,298.5,362.2,298.4,362.5L298.4,362.5z M296.5,362.4L296.5,362.4l-0.4,3.8l-1.3-0.2l0.4-3.8
			c0-0.3,0.4-0.5,0.7-0.5C296.3,361.7,296.6,362,296.5,362.4L296.5,362.4z M294.6,362.2L294.6,362.2l-0.4,3.8l-1.4-0.2l0.4-3.9
			c0-0.3,0.4-0.5,0.8-0.5C294.4,361.5,294.7,361.8,294.6,362.2L294.6,362.2z M292.8,361.9L292.8,361.9l-0.4,3.8l-1.4-0.1l0.4-3.8
			c0-0.3,0.4-0.5,0.7-0.5C292.5,361.3,292.8,361.6,292.8,361.9L292.8,361.9z M310.6,355.4L310.6,355.4l-0.4,3.8l-1.4-0.1l0.4-3.9
			c0-0.3,0.3-0.5,0.7-0.5C310.3,354.8,310.6,355.1,310.6,355.4L310.6,355.4z M308.7,355.2L308.7,355.2l-0.4,3.8l-1.4-0.2l0.4-3.8
			c0-0.3,0.4-0.5,0.7-0.5C308.5,354.6,308.8,354.9,308.7,355.2L308.7,355.2z M306.9,355L306.9,355l-0.4,3.8l-1.4-0.2l0.4-3.8
			c0-0.3,0.3-0.5,0.7-0.5C306.6,354.4,306.9,354.7,306.9,355L306.9,355z M305,354.8L305,354.8l-0.4,3.8l-1.4-0.1l0.4-3.8
			c0-0.3,0.3-0.5,0.7-0.5C304.7,354.2,305,354.5,305,354.8L305,354.8z M303.1,354.6L303.1,354.6l-0.5,3.8l-1.3-0.2l0.4-3.8
			c0.1-0.3,0.4-0.5,0.8-0.5C302.8,354,303.1,354.3,303.1,354.6L303.1,354.6z M301.2,354.4L301.2,354.4l-0.4,3.8l-1.4-0.2l0.4-3.8
			c0-0.3,0.3-0.5,0.7-0.5C301,353.8,301.2,354.1,301.2,354.4L301.2,354.4z M299.3,354.2L299.3,354.2l-0.4,3.8l-1.3-0.1l0.4-3.8
			c0-0.3,0.4-0.5,0.8-0.5C299.1,353.6,299.4,353.8,299.3,354.2L299.3,354.2z M297.5,354L297.5,354l-0.4,3.8l-1.4-0.2l0.4-3.8
			c0-0.3,0.3-0.5,0.7-0.5C297.2,353.4,297.5,353.7,297.5,354L297.5,354z M295.6,353.8L295.6,353.8l-0.4,3.8l-1.3-0.2l0.4-3.8
			c0-0.3,0.4-0.5,0.7-0.5C295.3,353.1,295.6,353.5,295.6,353.8L295.6,353.8z M293.7,353.6L293.7,353.6l-0.4,3.8l-1.4-0.1l0.4-3.8
			c0-0.3,0.4-0.5,0.8-0.5C293.5,353,293.7,353.2,293.7,353.6L293.7,353.6z M311.5,347L311.5,347l-0.4,3.8l-1.4-0.1l0.4-3.9
			c0-0.3,0.3-0.5,0.7-0.5C311.3,346.4,311.6,346.7,311.5,347L311.5,347z M309.6,346.8L309.6,346.8l-0.4,3.8l-1.4-0.2l0.4-3.8
			c0-0.3,0.3-0.5,0.7-0.5C309.4,346.2,309.7,346.5,309.6,346.8L309.6,346.8z M307.7,346.6L307.7,346.6l-0.4,3.9l-1.4-0.2l0.5-3.8
			c0-0.3,0.3-0.5,0.7-0.5C307.5,346,307.8,346.3,307.7,346.6L307.7,346.6z M305.9,346.4L305.9,346.4l-0.4,3.8l-1.4-0.2l0.4-3.9
			c0-0.3,0.3-0.5,0.7-0.5C305.6,345.8,305.9,346.1,305.9,346.4L305.9,346.4z M304,346.2L304,346.2l-0.4,3.8l-1.4-0.2l0.4-3.8
			c0-0.3,0.3-0.5,0.7-0.5C303.8,345.6,304,345.9,304,346.2L304,346.2z M302.1,346L302.1,346l-0.5,3.8l-1.3-0.2l0.4-3.8
			c0.1-0.3,0.4-0.5,0.8-0.5C301.9,345.4,302.1,345.7,302.1,346L302.1,346z M300.2,345.8L300.2,345.8l-0.4,3.8l-1.4-0.2l0.4-3.8
			c0-0.3,0.3-0.5,0.7-0.5C300,345.2,300.3,345.5,300.2,345.8L300.2,345.8z M298.3,345.6L298.3,345.6l-0.4,3.8l-1.3-0.2l0.4-3.8
			c0.1-0.3,0.4-0.5,0.8-0.5C298.1,345,298.4,345.3,298.3,345.6L298.3,345.6z M296.5,345.4L296.5,345.4l-0.4,3.8l-1.4-0.2l0.4-3.8
			c0-0.3,0.3-0.5,0.7-0.5C296.3,344.8,296.5,345.1,296.5,345.4L296.5,345.4z M294.6,345.2L294.6,345.2l-0.4,3.8l-1.3-0.2l0.4-3.8
			c0-0.3,0.4-0.5,0.7-0.5C294.4,344.6,294.6,344.8,294.6,345.2L294.6,345.2z M312.4,338.6L312.4,338.6l-0.4,3.8l-1.4-0.2l0.4-3.9
			c0-0.3,0.4-0.5,0.8-0.5C312.2,338,312.5,338.3,312.4,338.6L312.4,338.6z M310.5,338.4L310.5,338.4l-0.4,3.8l-1.4-0.1l0.4-3.8
			c0-0.3,0.3-0.5,0.7-0.5C310.3,337.8,310.6,338.1,310.5,338.4L310.5,338.4z M308.7,338.2L308.7,338.2l-0.4,3.8l-1.4-0.2l0.4-3.8
			c0-0.3,0.3-0.5,0.7-0.5C308.4,337.6,308.7,337.9,308.7,338.2L308.7,338.2z M306.8,338L306.8,338l-0.4,3.8l-1.4-0.2l0.5-3.8
			c0-0.3,0.3-0.5,0.7-0.5C306.5,337.4,306.9,337.7,306.8,338L306.8,338z M304.9,337.8L304.9,337.8l-0.4,3.8l-1.4-0.1l0.4-3.8
			c0-0.3,0.3-0.5,0.7-0.5C304.7,337.2,304.9,337.5,304.9,337.8L304.9,337.8z M303,337.6L303,337.6l-0.4,3.8l-1.4-0.2l0.4-3.8
			c0-0.3,0.3-0.5,0.7-0.5C302.8,337,303.1,337.3,303,337.6L303,337.6z M301.2,337.4L301.2,337.4l-0.4,3.8l-1.4-0.2l0.4-3.8
			c0-0.3,0.3-0.5,0.7-0.5C300.9,336.8,301.2,337.1,301.2,337.4L301.2,337.4z M299.3,337.2L299.3,337.2l-0.4,3.8l-1.4-0.1l0.4-3.8
			c0-0.3,0.3-0.5,0.7-0.5C299,336.6,299.3,336.9,299.3,337.2L299.3,337.2z M297.4,337L297.4,337l-0.5,3.8l-1.3-0.2l0.4-3.8
			c0.1-0.3,0.4-0.5,0.8-0.5C297.1,336.4,297.4,336.7,297.4,337L297.4,337z M313,346l-0.6,5.8l-20.5-2.2l0.6-5.8L313,346z
			 M312.2,354.3l-0.7,5.8l-20.5-2.2l0.7-5.8L312.2,354.3z M311.2,362.6l-0.6,5.8l-20.5-2.2l0.6-5.8L311.2,362.6z M310.3,370.9
			l-0.7,5.8l-20.5-2.2l0.6-5.8L310.3,370.9z M309.4,379.2l-1.3,12.2c-0.3-0.1-0.6-0.2-1-0.3l1-8.9c0.1-0.9-0.7-1.7-1.8-1.8
			c-1.1-0.1-2,0.5-2.1,1.4l-0.9,8.6c-0.3,0-0.7-0.1-1-0.1l0.9-8.6c0.1-0.9-0.7-1.7-1.7-1.8c-1-0.1-2,0.5-2.1,1.4l-1,8.7
			c-0.3,0-0.6,0-0.9,0h-0.1l1-8.8c0.1-0.9-0.7-1.7-1.7-1.8c-1.1-0.1-2,0.5-2.1,1.4l-1,9.4c-0.3,0-0.7,0.1-1,0.1l1-9.7
			c0.1-0.9-0.7-1.7-1.7-1.8c-1-0.1-2,0.5-2.1,1.4l-1.2,10.8c-0.4,0.1-0.8,0.2-1.2,0.3l1.5-14.4L309.4,379.2z"/>
		<path class="st14" d="M446.4,399.5l-14.8,0.2l2-2.4l0,0l0.7-0.9l0,0l0.5-0.6l0,0l0.7-0.9l0,0l0.5-0.6l0,0l0.7-0.8l9.8-11.8
			l9.9,11.6c-0.1,0.1-0.2,0.2-0.3,0.3l6.2-5.8v-0.2v0.2c1.2,1.1,2.5,2.2,3.7,3.2c0.9-1.4,2.3-3.1,4.2-2.9l0,0
			c3.2,0.1,3.7,5.1,3.7,5.1l-1.7,0l0,1c0.6,0.6,1.1,1.4,1.4,2.2c0,0,0,0.1,0.1,0.1l0.1,0.2l0,0.1c0.1,0.2,0.1,0.3,0.2,0.5l-6.8,0
			c2.3,0,4.6,0,6.8,0l-0.1-0.2l-0.1-0.2l0-0.1c0.1,0.2,0.1,0.3,0.2,0.5c0.1,0.2,0.3,0.9,0.4,1.1l3.6,0.2c0.6,0.2,0.9,0.1,1.3,2
			l-11.1,0.1c0,0.2-5.3-0.1-5.3-0.1l-11.3-0.1c0,0,0-0.7-0.1-1L446.4,399.5z M457.1,395.1L457.1,395.1c0.2,0,0.3,0.1,0.5,0.2
			C457.4,395.2,457.3,395.1,457.1,395.1L457.1,395.1z M459.7,395.8c0.2,0,0.3,0,0.4,0C460,395.8,459.9,395.8,459.7,395.8
			L459.7,395.8z M462.1,399.4c-0.1-0.1-0.3-0.2-0.4-0.3C461.8,399.2,461.9,399.3,462.1,399.4L462.1,399.4z M473.6,396.7
			c0,0,0-0.1-0.1-0.1l0,0L473.6,396.7z"/>
		<path class="st14" d="M467.8,373.1v1.2h-5.9v6.2h2.6l-1.8,0.6v19.8h-3.9v-19.7l-1.8-0.6h2.6v-6.2h-19.7v6.2h2.6l-1.8,0.6v19.8
			h-3.9v-19.7l-1.7-0.6h2.6v-6.2h-5.9v-1.2H430v-0.9h7.5v-3.4h-1.8v-1.3c-2.4-0.3-4.9-0.8-7.5-1.3v-2.9c-0.9-0.2-1.9-0.3-2.9-0.6
			v-2.3c-1.1-0.2-2.2-0.4-3.3-0.7c0-0.7,0-1.4,0-2.1c18.6,3.1,37,2.9,55.1,0c0,0.7,0,1.4,0,2.1c-1.1,0.2-2.2,0.5-3.3,0.7v2.3
			c-0.9,0.2-1.9,0.4-2.9,0.6v2.8c-2.4,0.5-5,1-7.5,1.4v1.2h-1.7v3.4h7.5v0.9H467.8z M441.6,368.3v0.7h-1.8v3.4h8.1v-3.7
			C445.8,368.5,443.7,368.4,441.6,368.3L441.6,368.3z M459.5,368.9h-1.8v-0.6c-2.1,0.2-4.2,0.3-6.3,0.3v3.7h8V368.9z"/>
	</g>
	<path class="st14" d="M450,271.1c-0.8,0.8-0.6,0.7-2.5,0.1c-1.7-0.5-0.9-0.7-2.4,0.1c-1.4,0.8-3.6,1.6-4.6,2.2
		c0.4,0.9,3.7,3.6,4.5,4.8c-0.3,0.1-0.5,0.3-0.9,0.4c-0.5,0.2-0.4,0.2-1-0.1c-1.3-0.7-5.4-3.1-6.3-3.4c-1.1,0.5-4,1.9-5,1.9
		c-0.5,0-1.2-0.1-1.1-0.7c0.4-1.4,3-2.2,4.6-3c0.7-0.3,0.5-0.3,0.6-1c0.2-0.8,1.3-6.6,1.6-6.9c0.1-0.1,1-0.5,1.2-0.6
		c0.1,0.5,0.1,1.1,0.2,1.7l0.3,3.3c0,0.5,0.1,1.1,0.2,1.6c0.8-0.4,1.5-0.7,2.3-1.1c3.9-1.9,3.2-0.6,4.1-2.7c0.5-1.2,0.5-1.9,1.7-1.7
		C447.5,268.4,448.1,269.9,450,271.1L450,271.1z M416.5,248.3c1.1,0.3,0.8,0.4,2.3-1c1.3-1.2,0.5-1,2.2-0.9c1.5,0.1,3.9-0.1,5.1,0
		c0,0.9-1.8,4.9-2,6.2c0.3,0,0.6,0,0.9,0c0.6,0,0.4,0.1,0.9-0.5c0.9-1.2,3.6-5.1,4.2-5.8c1.2,0,4.4,0,5.3-0.4
		c0.4-0.2,1.1-0.7,0.7-1.2c-1-1.1-3.6-0.7-5.5-0.7c-0.7,0-0.6,0-1-0.6c-0.5-0.6-4-5.4-4.3-5.5c-0.1,0-1.1,0-1.3,0
		c0.1,0.5,0.3,1.1,0.5,1.6l1.1,3.1c0.2,0.5,0.4,1.1,0.6,1.6c-0.9,0-1.7,0-2.6,0c-4.4,0-3.1,0.9-4.9-0.7c-1-0.9-1.3-1.5-2.2-0.8
		C417.6,244.8,417.7,246.4,416.5,248.3L416.5,248.3z M416.1,245.3c0.4-0.1,0.6,0.6,0.1,0.7l-0.7,0.1c-0.4,0.1-0.6-0.6-0.1-0.7
		L416.1,245.3z M353.6,292.4c-0.2,0.5-0.9,0.1-0.7-0.3l0.2-0.4c0.2-0.4,0.9-0.1,0.6,0.3L353.6,292.4z M354.7,290
		c-0.2,0.4-0.9,0.1-0.6-0.3l0.3-0.6c0.2-0.4,0.9-0.1,0.6,0.3L354.7,290z M356,287.4c-0.2,0.4-0.9,0.1-0.6-0.3l0.4-0.6
		c0.2-0.4,0.9-0.1,0.6,0.4L356,287.4z M357.5,284.9c-0.3,0.4-0.9,0-0.6-0.4l0.4-0.6c0.3-0.4,0.9,0,0.6,0.4L357.5,284.9z
		 M358.9,282.4c-0.3,0.4-0.9,0-0.6-0.4l0.4-0.6c0.2-0.4,0.9,0,0.6,0.4L358.9,282.4z M360.5,279.9c-0.2,0.4-0.9,0-0.6-0.4l0.4-0.6
		c0.2-0.4,0.9,0,0.6,0.4L360.5,279.9z M362.1,277.6c-0.3,0.4-0.9-0.1-0.6-0.4l0.4-0.6c0.3-0.4,0.9,0.1,0.6,0.4L362.1,277.6z
		 M363.8,275.2c-0.3,0.4-0.9-0.1-0.6-0.4l0.4-0.6c0.3-0.4,0.9,0.1,0.6,0.4L363.8,275.2z M365.5,273c-0.3,0.1-0.6-0.1-0.6-0.4
		c0-0.2,0.1-0.4,0.3-0.4l0.2-0.3c0.3-0.4,0.9,0.1,0.6,0.5l-0.1,0.1l0.1,0c0.5,0.2,0.2,0.9-0.3,0.7L365.5,273z M367.5,270.7
		c-0.4,0.4-0.9-0.1-0.5-0.5l0.5-0.5c0.4-0.4,0.9,0.1,0.5,0.5L367.5,270.7z M369.5,268.6c-0.3,0.4-0.9-0.1-0.5-0.5l0.5-0.5
		c0.3-0.4,0.9,0.1,0.5,0.5L369.5,268.6z M371.5,266.5c-0.4,0.3-0.9-0.2-0.5-0.5l0.5-0.5c0.4-0.4,0.9,0.2,0.5,0.5L371.5,266.5z
		 M373.6,264.5c-0.4,0.3-0.9-0.2-0.5-0.5l0.6-0.5c0.4-0.3,0.9,0.2,0.5,0.6L373.6,264.5z M375.8,262.6c-0.3,0.3-0.8-0.2-0.4-0.6
		l0.6-0.5c0.4-0.3,0.8,0.3,0.4,0.6L375.8,262.6z M378.1,260.8c-0.4,0.3-0.8-0.3-0.4-0.6l0.6-0.4c0.4-0.3,0.8,0.3,0.4,0.6
		L378.1,260.8z M380.4,259.1c-0.4,0.3-0.8-0.3-0.4-0.6c0.2-0.1,0.4-0.3,0.6-0.4c0.4-0.3,0.8,0.3,0.4,0.6
		C380.8,258.8,380.6,259,380.4,259.1L380.4,259.1z M382.8,257.5c-0.4,0.3-0.8-0.4-0.4-0.6l0.6-0.4c0.4-0.3,0.8,0.4,0.4,0.6
		L382.8,257.5z M385.3,256c-0.4,0.2-0.8-0.4-0.4-0.6l0.6-0.4c0.4-0.2,0.8,0.4,0.4,0.6L385.3,256z M387.8,254.6
		c-0.5,0.2-0.8-0.4-0.4-0.6l0.6-0.4c0.4-0.2,0.8,0.5,0.4,0.7L387.8,254.6z M390.4,253.3c-0.4,0.2-0.8-0.4-0.3-0.7
		c0.2-0.1,0.4-0.2,0.7-0.3c0.4-0.2,0.7,0.4,0.3,0.6C390.9,253.1,390.6,253.2,390.4,253.3L390.4,253.3z M393.1,252.1
		c-0.5,0.2-0.7-0.5-0.3-0.7l0.7-0.3c0.5-0.2,0.7,0.5,0.3,0.7L393.1,252.1z M395.7,251c-0.4,0.2-0.7-0.5-0.3-0.7l0.7-0.3
		c0.4-0.2,0.7,0.5,0.2,0.7L395.7,251z M398.5,250c-0.4,0.1-0.7-0.5-0.2-0.7c0.2-0.1,0.5-0.2,0.7-0.2c0.4-0.2,0.7,0.5,0.2,0.7
		C398.9,249.8,398.7,249.9,398.5,250L398.5,250z M401.2,249.1c-0.5,0.1-0.6-0.6-0.2-0.7l0.7-0.2c0.5-0.1,0.6,0.6,0.2,0.7
		L401.2,249.1z M404,248.3c-0.5,0.1-0.6-0.6-0.2-0.7l0.7-0.2c0.4-0.1,0.6,0.6,0.2,0.7L404,248.3z M406.9,247.6
		c-0.4,0.1-0.7-0.6-0.2-0.7l0.7-0.1c0.5-0.1,0.6,0.6,0.1,0.7L406.9,247.6z M409.7,247c-0.5,0.1-0.6-0.6-0.1-0.7l0.7-0.1
		c0.5-0.1,0.6,0.6,0.1,0.7L409.7,247z M412.6,246.5c-0.5,0.1-0.6-0.6-0.1-0.7l0.7-0.1c0.5-0.1,0.6,0.6,0.1,0.7L412.6,246.5z
		 M314.6,275c-0.8,0.8-0.6,0.7-2.5,0.1c-1.7-0.5-0.9-0.7-2.4,0.2c-1.4,0.8-3.6,1.6-4.6,2.2c0.4,0.9,3.7,3.6,4.5,4.8
		c-0.3,0.1-0.5,0.2-0.9,0.4c-0.5,0.3-0.4,0.3-1-0.1c-1.3-0.7-5.4-3.1-6.3-3.4c-1.1,0.5-4,1.9-5,1.9c-0.5,0-1.2-0.2-1.1-0.8
		c0.4-1.4,3-2.2,4.6-3c0.7-0.3,0.5-0.2,0.6-1c0.2-0.8,1.3-6.6,1.6-6.9c0.1-0.1,1-0.5,1.2-0.6c0.1,0.5,0.1,1.1,0.2,1.6l0.3,3.3
		c0,0.5,0.1,1.1,0.2,1.6c0.8-0.4,1.5-0.7,2.3-1.1c3.9-1.9,3.2-0.6,4.1-2.7c0.5-1.2,0.5-1.9,1.7-1.7
		C312.1,272.3,312.8,273.7,314.6,275L314.6,275z M313.8,272.1c-0.4,0.1-0.3,0.8,0.2,0.7l0.7-0.2c0.4-0.1,0.3-0.8-0.2-0.7
		L313.8,272.1z M390.4,287.9c0.4,0.3,0.8-0.3,0.4-0.6l-0.3-0.2c-0.4-0.3-0.8,0.3-0.5,0.6L390.4,287.9z M388.4,286.3
		c0.4,0.3,0.8-0.3,0.5-0.6l-0.6-0.5c-0.4-0.3-0.8,0.3-0.4,0.6L388.4,286.3z M386.1,284.5c0.4,0.3,0.8-0.3,0.4-0.6l-0.6-0.4
		c-0.4-0.3-0.9,0.3-0.4,0.6L386.1,284.5z M383.7,282.8c0.4,0.3,0.8-0.4,0.4-0.6l-0.6-0.4c-0.4-0.3-0.8,0.4-0.4,0.6L383.7,282.8z
		 M381.3,281.2c0.4,0.3,0.8-0.4,0.4-0.6l-0.6-0.4c-0.4-0.3-0.8,0.3-0.4,0.6L381.3,281.2z M378.9,279.6c0.4,0.2,0.8-0.4,0.4-0.6
		l-0.6-0.4c-0.4-0.2-0.8,0.4-0.4,0.6L378.9,279.6z M376.3,278.2c0.5,0.2,0.8-0.4,0.4-0.6l-0.6-0.4c-0.4-0.2-0.8,0.4-0.4,0.6
		L376.3,278.2z M373.8,276.8c0.4,0.2,0.7-0.4,0.3-0.6l-0.6-0.4c-0.4-0.2-0.8,0.4-0.3,0.6L373.8,276.8z M371.2,275.5
		c0.4,0.2,0.8-0.4,0.3-0.7l-0.6-0.3c-0.4-0.2-0.8,0.4-0.3,0.6L371.2,275.5z M368.6,274.3c0.5,0.2,0.7-0.5,0.3-0.7l-0.7-0.3
		c-0.4-0.2-0.7,0.5-0.3,0.7L368.6,274.3z M363.2,272.2c0.5,0.1,0.6-0.6,0.2-0.7l-0.7-0.2c-0.5-0.1-0.6,0.6-0.2,0.7L363.2,272.2z
		 M360.4,271.3c0.4,0.1,0.6-0.6,0.2-0.7l-0.7-0.2c-0.5-0.1-0.7,0.6-0.2,0.7L360.4,271.3z M357.6,270.5c0.4,0.1,0.7-0.6,0.2-0.7
		l-0.7-0.2c-0.5-0.1-0.6,0.6-0.2,0.7L357.6,270.5z M354.8,269.8c0.5,0.1,0.6-0.6,0.1-0.7l-0.7-0.1c-0.5-0.1-0.6,0.6-0.1,0.7
		L354.8,269.8z M351.9,269.3c0.4,0.1,0.6-0.6,0.1-0.7c-0.2,0-0.5-0.1-0.7-0.1c-0.4-0.1-0.6,0.6-0.1,0.7
		C351.4,269.2,351.7,269.2,351.9,269.3L351.9,269.3z M349,268.9c0.5,0.1,0.6-0.7,0.1-0.7l-0.7-0.1c-0.5-0.1-0.6,0.7-0.1,0.7
		L349,268.9z M346.2,268.6c0.5,0,0.6-0.7,0.1-0.7l-0.7-0.1c-0.4-0.1-0.6,0.7,0,0.7L346.2,268.6z M343.3,268.4c0.5,0,0.5-0.7,0-0.7
		l-0.7,0c-0.5,0-0.5,0.7,0,0.7L343.3,268.4z M340.4,268.3c0.5,0,0.5-0.7,0-0.7c-0.2,0-0.5,0-0.7,0c-0.4,0-0.5,0.7,0,0.7
		C339.9,268.3,340.1,268.3,340.4,268.3L340.4,268.3z M337.5,268.4c0.5-0.1,0.4-0.8,0-0.7l-0.7,0c-0.5,0-0.4,0.8,0,0.7L337.5,268.4z
		 M334.6,268.5c0.5,0,0.4-0.8-0.1-0.7l-0.7,0.1c-0.5,0-0.4,0.8,0.1,0.7L334.6,268.5z M331.7,268.8c0.4,0,0.4-0.8-0.1-0.7
		c-0.2,0-0.5,0.1-0.7,0.1c-0.4,0-0.4,0.8,0.1,0.7C331.2,268.8,331.4,268.8,331.7,268.8L331.7,268.8z M328.8,269.2
		c0.5-0.1,0.3-0.8-0.1-0.7l-0.7,0.1c-0.5,0.1-0.3,0.8,0.1,0.7L328.8,269.2z M325.9,269.7c0.5-0.1,0.4-0.8-0.1-0.7l-0.7,0.1
		c-0.4,0.1-0.3,0.8,0.1,0.7L325.9,269.7z M323.1,270.2c0.4-0.1,0.3-0.8-0.2-0.7l-0.7,0.2c-0.5,0.1-0.3,0.8,0.2,0.7L323.1,270.2z
		 M320.3,270.9c0.5-0.1,0.3-0.9-0.2-0.7l-0.7,0.2c-0.5,0.1-0.3,0.8,0.2,0.7L320.3,270.9z M317.5,271.7c0.5-0.1,0.3-0.9-0.2-0.7
		l-0.7,0.2c-0.4,0.1-0.3,0.8,0.2,0.7L317.5,271.7z M449.1,268.2c-0.4,0.1-0.3,0.8,0.2,0.7l0.7-0.2c0.4-0.1,0.3-0.8-0.2-0.7
		L449.1,268.2z M525.8,284c0.4,0.3,0.8-0.3,0.4-0.6l-0.3-0.3c-0.4-0.3-0.8,0.3-0.5,0.6L525.8,284z M523.7,282.4
		c0.4,0.3,0.8-0.3,0.5-0.6l-0.6-0.4c-0.4-0.3-0.8,0.3-0.4,0.6L523.7,282.4z M521.4,280.6c0.4,0.3,0.8-0.3,0.4-0.6l-0.6-0.4
		c-0.4-0.3-0.9,0.3-0.4,0.6L521.4,280.6z M519.1,278.9c0.4,0.3,0.8-0.4,0.4-0.6l-0.6-0.4c-0.4-0.3-0.8,0.4-0.4,0.6L519.1,278.9z
		 M516.7,277.3c0.4,0.3,0.8-0.4,0.4-0.6l-0.6-0.4c-0.4-0.3-0.8,0.4-0.4,0.6L516.7,277.3z M514.2,275.7c0.4,0.3,0.8-0.3,0.4-0.6
		l-0.6-0.4c-0.4-0.2-0.8,0.4-0.4,0.6L514.2,275.7z M511.7,274.3c0.4,0.2,0.7-0.4,0.4-0.6l-0.6-0.4c-0.4-0.2-0.8,0.4-0.4,0.6
		L511.7,274.3z M509.2,272.9c0.4,0.2,0.8-0.4,0.3-0.6l-0.6-0.3c-0.4-0.2-0.7,0.4-0.3,0.6L509.2,272.9z M506.6,271.6
		c0.4,0.2,0.8-0.4,0.3-0.6l-0.6-0.3c-0.4-0.2-0.8,0.4-0.3,0.6L506.6,271.6z M503.9,270.4c0.5,0.2,0.7-0.5,0.3-0.7l-0.6-0.3
		c-0.5-0.2-0.7,0.5-0.3,0.7L503.9,270.4z M501.2,269.3c0.4,0.2,0.7-0.5,0.3-0.7l-0.7-0.2c-0.4-0.2-0.7,0.5-0.3,0.7L501.2,269.3z
		 M498.5,268.3c0.5,0.1,0.6-0.6,0.2-0.7l-0.7-0.2c-0.5-0.1-0.6,0.6-0.2,0.7L498.5,268.3z M495.8,267.4c0.5,0.1,0.6-0.6,0.2-0.7
		l-0.7-0.2c-0.5-0.1-0.7,0.6-0.2,0.7L495.8,267.4z M493,266.6c0.4,0.1,0.7-0.6,0.2-0.7l-0.7-0.2c-0.5-0.1-0.6,0.6-0.2,0.7L493,266.6
		z M490.1,266c0.5,0.1,0.6-0.6,0.1-0.7l-0.7-0.1c-0.5-0.1-0.6,0.6-0.1,0.7L490.1,266z M487.3,265.4c0.4,0.1,0.6-0.6,0.1-0.7
		c-0.2-0.1-0.5-0.1-0.7-0.1c-0.4-0.1-0.6,0.6-0.1,0.7C486.8,265.3,487.1,265.4,487.3,265.4L487.3,265.4z M484.4,265
		c0.5,0.1,0.6-0.6,0.1-0.7l-0.7-0.1c-0.5-0.1-0.6,0.7-0.1,0.7L484.4,265z M481.5,264.7c0.5,0.1,0.6-0.7,0.1-0.7l-0.7-0.1
		c-0.4,0-0.6,0.7,0,0.7L481.5,264.7z M478.6,264.5c0.5,0,0.5-0.7,0-0.7l-0.7,0c-0.5,0-0.5,0.7,0,0.7L478.6,264.5z M475.7,264.4
		c0.5,0,0.5-0.7,0-0.7c-0.2,0-0.5,0-0.7,0c-0.4,0-0.5,0.7,0,0.7C475.3,264.4,475.5,264.4,475.7,264.4L475.7,264.4z M472.8,264.5
		c0.5,0,0.4-0.8,0-0.7l-0.7,0c-0.5,0-0.4,0.8,0,0.7L472.8,264.5z M469.9,264.6c0.5,0,0.4-0.8-0.1-0.7l-0.7,0.1
		c-0.5,0-0.4,0.7,0.1,0.7L469.9,264.6z M467.1,264.9c0.4-0.1,0.4-0.8-0.1-0.7c-0.2,0-0.5,0.1-0.7,0.1c-0.4,0-0.4,0.8,0.1,0.7
		C466.6,265,466.8,264.9,467.1,264.9L467.1,264.9z M464.2,265.3c0.5-0.1,0.3-0.8-0.1-0.7l-0.7,0.1c-0.5,0.1-0.3,0.8,0.1,0.7
		L464.2,265.3z M461.3,265.8c0.5-0.1,0.4-0.8-0.1-0.7l-0.7,0.1c-0.4,0.1-0.3,0.8,0.1,0.7L461.3,265.8z M458.5,266.4
		c0.4-0.1,0.3-0.8-0.2-0.7l-0.7,0.1c-0.5,0.1-0.3,0.8,0.2,0.7L458.5,266.4z M455.6,267c0.5-0.1,0.3-0.8-0.2-0.7l-0.7,0.2
		c-0.5,0.1-0.3,0.8,0.2,0.7L455.6,267z M452.9,267.8c0.4-0.1,0.3-0.8-0.2-0.7l-0.7,0.2c-0.4,0.1-0.3,0.9,0.2,0.7L452.9,267.8z"/>
</g>
</svg>
