<?xml version="1.0" encoding="utf-8"?>
<!-- Generator: Adobe Illustrator 21.0.2, SVG Export Plug-In . SVG Version: 6.00 Build 0)  -->
<svg version="1.1" id="Layer_1" xmlns="http://www.w3.org/2000/svg" xmlns:xlink="http://www.w3.org/1999/xlink" x="0px" y="0px"
	 viewBox="0 0 864 410" style="enable-background:new 0 0 864 410;" xml:space="preserve">
<style type="text/css">
	.st0{fill:#BFACB8;}
	.st1{fill:#B7E274;}
	.st2{fill:#EDA966;}
	.st3{fill:#2D3E5B;}
	.st4{fill:#241C22;}
	.st5{fill-rule:evenodd;clip-rule:evenodd;fill:#131313;}
	.st6{fill-rule:evenodd;clip-rule:evenodd;fill:#808080;}
	.st7{fill-rule:evenodd;clip-rule:evenodd;fill:#CCCCCC;stroke:#000000;stroke-width:0.5669;stroke-miterlimit:22.9256;}
	.st8{fill-rule:evenodd;clip-rule:evenodd;fill:#B3B3B3;}
	.st9{fill-rule:evenodd;clip-rule:evenodd;fill:#4C4C4C;}
	.st10{fill-rule:evenodd;clip-rule:evenodd;fill:#FFD100;}
	.st11{fill-rule:evenodd;clip-rule:evenodd;fill:#EEB700;}
	.st12{fill-rule:evenodd;clip-rule:evenodd;fill:#DDDDDD;}
	.st13{fill-rule:evenodd;clip-rule:evenodd;fill:#FFFFFF;}
	.st14{fill-rule:evenodd;clip-rule:evenodd;fill:#E6E6E6;}
	.st15{fill-rule:evenodd;clip-rule:evenodd;fill:#FFE56B;}
	.st16{opacity:0.5;fill-rule:evenodd;clip-rule:evenodd;fill:#FFFFFF;}
	.st17{fill:#FFEB7A;}
	.st18{fill:#F7B500;}
	.st19{fill:#EB9D00;}
	.st20{fill:#CCDDFF;}
	.st21{fill:#FFCA00;}
	.st22{fill:#B6B7B8;}
	.st23{fill:#F0F0F0;}
	.st24{fill:#D4D5D7;}
	.st25{fill:#C7C8C9;}
	.st26{fill:#E5E6E8;}
	.st27{fill:#DBDBDB;}
	.st28{fill:#BCF1FF;}
	.st29{fill:#68D6F9;}
	.st30{fill:#DBDCDE;}
	.st31{opacity:0.3;fill:#55D6D2;}
	.st32{enable-background:new    ;}
	.st33{fill:#414D54;}
	.st34{fill:#5F7078;}
	.st35{fill:#B0ACA8;}
	.st36{fill:#FFF9F5;}
	.st37{fill:#D4CFCB;}
	.st38{fill:#8B9B00;}
	.st39{fill:#566000;}
	.st40{fill:#93A300;}
	.st41{fill:#FDA713;}
	.st42{fill:#FD8813;}
	.st43{fill:#FDB813;}
	.st44{fill:#840C0C;}
	.st45{fill:#F71616;}
	.st46{fill:#8B0C0C;}
	.st47{fill:#96180C;}
	.st48{fill:#F12613;}
	.st49{fill:#D12110;}
	.st50{fill:#D14436;}
	.st51{fill:#B1C2E3;}
	.st52{fill:#A9BBDF;}
	.st53{fill:#D0D9EA;}
	.st54{fill:#B7C4DF;}
	.st55{fill:#D7D8DA;}
	.st56{fill:#E1E4EA;}
	.st57{fill:#868687;}
	.st58{fill:#BFCBE3;}
	.st59{clip-path:url(#SVGID_2_);enable-background:new    ;}
	.st60{clip-path:url(#SVGID_4_);enable-background:new    ;}
	.st61{fill:#71C6DB;}
	.st62{fill:#49B8B5;}
	.st63{fill:#374246;}
	.st64{fill:#56676E;}
	.st65{fill:#89D8E8;}
	.st66{fill:#60A8BA;}
	.st67{clip-path:url(#SVGID_6_);enable-background:new    ;}
	.st68{fill:#174969;}
	.st69{clip-path:url(#SVGID_8_);}
	.st70{fill:#72CFE3;}
	.st71{fill:#BBC3D3;}
	.st72{fill:#A4B0C8;}
	.st73{fill:#FFD900;}
	.st74{fill:#093F61;}
	.st75{fill:#0A4B73;}
	.st76{fill:#0B507A;}
	.st77{fill:#9C493F;}
	.st78{fill:#DE4B38;}
	.st79{fill:#FA8778;}
	.st80{fill:#07334E;}
	.st81{fill:#025074;}
	.st82{fill:#71CFF3;}
	.st83{fill:#FAFBFD;}
	.st84{fill:#7AA6AE;}
	.st85{fill:#88B9C3;}
	.st86{clip-path:url(#SVGID_10_);enable-background:new    ;}
	.st87{fill:#9ED7E2;}
	.st88{clip-path:url(#SVGID_12_);enable-background:new    ;}
	.st89{fill:#7EACB5;}
	.st90{fill:#6F979E;}
	.st91{fill:#557379;}
	.st92{fill:#64616C;}
	.st93{fill:#BDBDBD;}
	.st94{fill:#ECC6AF;}
	.st95{fill:#969696;}
	.st96{fill:#D7D7D7;}
	.st97{fill:#7A7A7A;}
	.st98{fill:#8E8A80;}
	.st99{fill:#E2E8F2;}
	.st100{fill:#DAE1EB;}
	.st101{fill:#ECECEC;}
	.st102{fill:#E6EDF7;}
	.st103{fill:#C1D8F7;}
	.st104{fill:#2574A8;}
	.st105{fill:#844810;}
	.st106{fill:#D9E6F7;}
	.st107{fill:#22A6EF;}
	.st108{fill:#6BB8EF;}
	.st109{fill:#F26E30;}
	.st110{fill:#FCE5F3;}
	.st111{fill:#FCCCE9;}
	.st112{fill:#CCA5BD;}
	.st113{fill:#FDB5E3;}
	.st114{fill:#EDF4F9;}
	.st115{fill:url(#SVGID_13_);}
	.st116{fill:url(#SVGID_14_);}
	.st117{fill:url(#SVGID_15_);}
	.st118{fill:url(#SVGID_16_);}
	.st119{fill:url(#SVGID_17_);}
	.st120{fill:url(#SVGID_18_);}
	.st121{fill:url(#SVGID_19_);}
	.st122{fill:url(#SVGID_20_);}
	.st123{fill:url(#SVGID_21_);}
	.st124{fill:url(#SVGID_22_);}
	.st125{fill:url(#SVGID_23_);}
	.st126{fill:#FEC111;}
	.st127{fill:#FA624E;}
	.st128{fill:#BD1630;}
	.st129{fill:#FF627B;}
	.st130{clip-path:url(#SVGID_25_);enable-background:new    ;}
	.st131{clip-path:url(#SVGID_27_);enable-background:new    ;}
	.st132{clip-path:url(#SVGID_29_);enable-background:new    ;}
	.st133{clip-path:url(#SVGID_31_);}
	.st134{fill:#A1B400;}
	.st135{fill:#B3D246;}
	.st136{fill:#798700;}
	.st137{fill:#230E01;}
	.st138{fill:#5B3520;}
	.st139{fill:#9F9B90;}
	.st140{fill:#2B1101;}
	.st141{fill:#5A3520;}
	.st142{fill:#692901;}
	.st143{fill:#3D1701;}
	.st144{fill:#4A2C1A;}
	.st145{fill:#4C1C01;}
	.st146{fill:#572201;}
	.st147{clip-path:url(#SVGID_33_);enable-background:new    ;}
	.st148{clip-path:url(#SVGID_35_);enable-background:new    ;}
	.st149{opacity:0.3;}
	.st150{fill:#55D6D2;}
	.st151{fill:#C2D288;}
	.st152{fill:#829100;}
	.st153{clip-path:url(#SVGID_37_);enable-background:new    ;}
	.st154{clip-path:url(#SVGID_39_);enable-background:new    ;}
	.st155{fill:#EDDACE;}
	.st156{fill:#FFFFFF;}
	.st157{fill:#EDCAB4;}
	.st158{fill:#1D2225;}
	.st159{fill:#171B1D;}
	.st160{fill:#2B3236;}
	.st161{fill:#1D2124;}
	.st162{fill:#8B9895;}
	.st163{fill:#191919;}
	.st164{fill:#141414;}
	.st165{fill:#252525;}
	.st166{fill:#707B78;}
	.st167{fill:#8C9A97;}
	.st168{fill:url(#SVGID_40_);}
	.st169{fill:url(#SVGID_41_);}
	.st170{fill:url(#SVGID_42_);}
	.st171{fill:url(#SVGID_43_);}
	.st172{fill:url(#SVGID_44_);}
	.st173{fill:url(#SVGID_45_);}
	.st174{fill:url(#SVGID_46_);}
	.st175{fill:url(#SVGID_47_);}
	.st176{fill:url(#SVGID_48_);}
	.st177{fill:url(#SVGID_49_);}
	.st178{fill:url(#SVGID_50_);}
	.st179{clip-path:url(#SVGID_52_);enable-background:new    ;}
	.st180{clip-path:url(#SVGID_54_);enable-background:new    ;}
	.st181{clip-path:url(#SVGID_56_);enable-background:new    ;}
	.st182{clip-path:url(#SVGID_58_);}
	.st183{fill:#CAED4F;}
	.st184{fill:#F25B14;}
	.st185{opacity:0.8;}
	.st186{fill:#0084FF;}
	.st187{fill:#13D5FD;}
	.st188{fill:#0FACCC;}
	.st189{fill:#68E3FD;}
	.st190{fill:#E49B1D;}
	.st191{fill:#FEFEFF;}
	.st192{fill:#F85B30;}
	.st193{fill:#CCCCCC;}
	.st194{fill:#FF4A39;}
	.st195{fill:#F29163;}
	.st196{fill:#C45927;}
	.st197{fill:#5AC3F2;}
	.st198{fill:#079FE3;}
	.st199{fill:#0FB4E7;}
	.st200{fill:#008BC9;}
	.st201{fill:#2C1A22;}
	.st202{fill:#351F29;}
	.st203{fill:#3E242F;}
	.st204{fill:#37202A;}
	.st205{fill:#E5DEFF;}
	.st206{fill:#AAAEE8;}
	.st207{fill:#878AB8;}
	.st208{fill:#D3C7FF;}
	.st209{fill:#8B5231;}
	.st210{fill:#EDC7AF;}
	.st211{fill:#F0E5DF;}
	.st212{fill:#FFAA00;}
	.st213{fill:#D4602A;}
	.st214{fill:#FFBB00;}
	.st215{fill:#F5EEDD;}
	.st216{fill:#082034;}
	.st217{fill:#B73D34;}
	.st218{fill:#B53100;}
	.st219{fill:#D3830D;}
	.st220{fill:#D1DCE6;}
	.st221{fill:#0C2F4B;}
	.st222{fill:#CC3700;}
	.st223{fill:#EB5A49;}
	.st224{fill:#FBAB20;}
	.st225{fill:url(#SVGID_59_);}
	.st226{fill:url(#SVGID_60_);}
	.st227{fill:url(#SVGID_61_);}
	.st228{fill:url(#SVGID_62_);}
	.st229{fill:url(#SVGID_63_);}
	.st230{fill:url(#SVGID_64_);}
	.st231{fill:url(#SVGID_65_);}
	.st232{fill:url(#SVGID_66_);}
	.st233{fill:url(#SVGID_67_);}
	.st234{fill:#374859;}
	.st235{fill:#1F2B35;}
	.st236{fill:#9C9C9C;}
	.st237{fill:#919191;}
	.st238{fill:#5BD2D9;}
	.st239{fill:#357B7F;}
	.st240{fill:#398388;}
	.st241{fill:#F9F9F9;}
	.st242{fill:#388224;}
	.st243{fill:#D9F9FF;}
	.st244{fill:#F9A908;}
	.st245{fill:#3A800D;}
	.st246{fill:#4CA611;}
	.st247{fill:#FFF4DE;}
	.st248{fill:#F8BE3B;}
	.st249{fill:#C7F6FF;}
	.st250{fill:#59AA0D;}
	.st251{fill:#60AE18;}
	.st252{fill:#5BBC08;}
	.st253{fill:#50B431;}
	.st254{fill:#F81616;}
	.st255{fill:#0C5D8F;}
	.st256{fill:#FFA323;}
	.st257{fill:#7295AA;}
	.st258{fill:#FF8D23;}
	.st259{fill:#FFB923;}
	.st260{fill:#072E47;}
	.st261{fill:#E4EBF0;}
	.st262{fill:#F5F5F2;}
	.st263{fill:#C7CCD1;}
	.st264{fill:#BEC2C7;}
	.st265{fill:#DBE1E6;}
	.st266{fill:#BD9649;}
	.st267{fill:#655027;}
	.st268{fill:#927438;}
	.st269{fill:#B48F45;}
	.st270{fill:#704227;}
	.st271{fill:#4E2E1B;}
	.st272{fill:#4E2D1B;}
	.st273{fill:#915533;}
	.st274{fill:#CFD4D5;}
	.st275{fill:url(#SVGID_68_);}
	.st276{fill:#B8B9BA;}
	.st277{fill:#C8D1E3;}
	.st278{clip-path:url(#SVGID_70_);}
	.st279{opacity:0.2;fill:#00EBFF;}
	.st280{opacity:0.4;fill:#00EBFF;}
	.st281{clip-path:url(#SVGID_72_);enable-background:new    ;}
	.st282{clip-path:url(#SVGID_74_);enable-background:new    ;}
	.st283{clip-path:url(#SVGID_76_);enable-background:new    ;}
	.st284{clip-path:url(#SVGID_78_);enable-background:new    ;}
	.st285{clip-path:url(#SVGID_80_);enable-background:new    ;}
	.st286{clip-path:url(#SVGID_82_);enable-background:new    ;}
	.st287{clip-path:url(#SVGID_84_);enable-background:new    ;}
	.st288{clip-path:url(#SVGID_86_);}
	.st289{fill:#90DAFD;}
	.st290{fill:#19B4FD;}
	.st291{fill:#138DC7;}
	.st292{fill:#56C7FD;}
	.st293{fill:#B2B2B2;}
	.st294{fill:#378A87;}
	.st295{fill:#4ABBB8;}
	.st296{fill:#40A19E;}
	.st297{fill:#358683;}
	.st298{fill:#1E2022;}
	.st299{fill:#9E9E9E;}
	.st300{fill:#7B7B7B;}
	.st301{fill:#999999;}
	.st302{fill:#DFB100;}
	.st303{fill:#BF9800;}
	.st304{fill:#9F7E00;}
	.st305{fill:#9F5713;}
	.st306{fill:#3E9C99;}
	.st307{fill:#303437;}
	.st308{fill:#B1D132;}
	.st309{fill:#D3D3D3;}
	.st310{fill:#A55B14;}
	.st311{fill:#838383;}
	.st312{fill:#2B2E31;}
	.st313{fill:#F1C40F;}
	.st314{clip-path:url(#SVGID_88_);enable-background:new    ;}
	.st315{clip-path:url(#SVGID_90_);enable-background:new    ;}
	.st316{fill:#2D6986;}
	.st317{fill:#3B89AF;}
	.st318{clip-path:url(#SVGID_92_);enable-background:new    ;}
	.st319{clip-path:url(#SVGID_94_);enable-background:new    ;}
	.st320{clip-path:url(#SVGID_96_);enable-background:new    ;}
	.st321{clip-path:url(#SVGID_98_);}
	.st322{fill:#50B8EA;}
	.st323{fill:#FDCF60;}
	.st324{fill:#EDD9CC;}
	.st325{fill:#EDAF87;}
	.st326{fill:#FEF7E5;}
	.st327{fill:#55A1C2;}
	.st328{fill:#62C3ED;}
	.st329{fill:#2EABE3;}
	.st330{fill:#2792C2;}
	.st331{fill:#61B8DE;}
	.st332{fill:#70D4FF;}
	.st333{fill:#A579CC;}
	.st334{clip-path:url(#SVGID_100_);enable-background:new    ;}
	.st335{clip-path:url(#SVGID_102_);enable-background:new    ;}
	.st336{clip-path:url(#SVGID_104_);enable-background:new    ;}
	.st337{clip-path:url(#SVGID_106_);}
	.st338{clip-path:url(#SVGID_108_);enable-background:new    ;}
	.st339{clip-path:url(#SVGID_110_);enable-background:new    ;}
	.st340{fill:url(#SVGID_111_);}
	.st341{fill:url(#SVGID_112_);}
	.st342{fill:url(#SVGID_113_);}
	.st343{fill:url(#SVGID_114_);}
	.st344{fill:url(#SVGID_115_);}
	.st345{fill:url(#SVGID_116_);}
	.st346{fill:url(#SVGID_117_);}
	.st347{fill:url(#SVGID_118_);}
	.st348{fill:url(#SVGID_119_);}
	.st349{fill:url(#SVGID_120_);}
	.st350{fill:url(#SVGID_121_);}
	.st351{clip-path:url(#SVGID_123_);enable-background:new    ;}
	.st352{clip-path:url(#SVGID_125_);enable-background:new    ;}
	.st353{clip-path:url(#SVGID_127_);enable-background:new    ;}
	.st354{clip-path:url(#SVGID_129_);}
	.st355{clip-path:url(#SVGID_131_);enable-background:new    ;}
	.st356{clip-path:url(#SVGID_133_);enable-background:new    ;}
	.st357{clip-path:url(#SVGID_135_);enable-background:new    ;}
	.st358{clip-path:url(#SVGID_137_);enable-background:new    ;}
	.st359{fill:url(#SVGID_138_);}
	.st360{fill:url(#SVGID_139_);}
	.st361{fill:url(#SVGID_140_);}
	.st362{fill:url(#SVGID_141_);}
	.st363{fill:url(#SVGID_142_);}
	.st364{fill:url(#SVGID_143_);}
	.st365{fill:url(#SVGID_144_);}
	.st366{fill:url(#SVGID_145_);}
	.st367{fill:url(#SVGID_146_);}
	.st368{fill:url(#SVGID_147_);}
	.st369{fill:url(#SVGID_148_);}
	.st370{clip-path:url(#SVGID_150_);enable-background:new    ;}
	.st371{clip-path:url(#SVGID_152_);enable-background:new    ;}
	.st372{clip-path:url(#SVGID_154_);enable-background:new    ;}
	.st373{clip-path:url(#SVGID_156_);}
	.st374{fill:url(#SVGID_157_);}
	.st375{fill:url(#SVGID_158_);}
	.st376{fill:url(#SVGID_159_);}
	.st377{fill:url(#SVGID_160_);}
	.st378{fill:url(#SVGID_161_);}
	.st379{fill:url(#SVGID_162_);}
	.st380{fill:url(#SVGID_163_);}
	.st381{fill:url(#SVGID_164_);}
	.st382{fill:url(#SVGID_165_);}
	.st383{fill:url(#SVGID_166_);}
	.st384{clip-path:url(#SVGID_168_);}
	.st385{clip-path:url(#SVGID_170_);enable-background:new    ;}
	.st386{clip-path:url(#SVGID_172_);enable-background:new    ;}
	.st387{clip-path:url(#SVGID_174_);enable-background:new    ;}
	.st388{clip-path:url(#SVGID_176_);enable-background:new    ;}
	.st389{clip-path:url(#SVGID_178_);enable-background:new    ;}
	.st390{clip-path:url(#SVGID_180_);enable-background:new    ;}
	.st391{clip-path:url(#SVGID_182_);enable-background:new    ;}
	.st392{clip-path:url(#SVGID_184_);}
	.st393{clip-path:url(#SVGID_186_);enable-background:new    ;}
	.st394{clip-path:url(#SVGID_188_);enable-background:new    ;}
	.st395{clip-path:url(#SVGID_190_);enable-background:new    ;}
	.st396{clip-path:url(#SVGID_192_);enable-background:new    ;}
	.st397{clip-path:url(#SVGID_194_);enable-background:new    ;}
	.st398{clip-path:url(#SVGID_196_);}
	.st399{fill:#8D8E87;}
	.st400{fill:#B9B9B0;}
	.st401{fill:#CDE7F3;}
	.st402{fill:#D3DDDF;}
	.st403{fill:#E9E9EA;}
	.st404{opacity:0.1;fill:#1F1D1B;}
	.st405{fill:#606365;}
	.st406{fill:#D8D9DA;}
	.st407{opacity:0.6;fill:#FFFFFF;}
	
		.st408{fill:none;stroke:#FFFFFF;stroke-width:0.1919;stroke-linecap:round;stroke-linejoin:round;stroke-miterlimit:10;stroke-dasharray:0.9593,0.9593,0.9593,0.9593,0.9593,0.9593;}
	.st409{opacity:5.000000e-02;fill:#1F1D1B;}
	.st410{fill:#E1BB95;}
	.st411{fill:#E1C7A0;}
	.st412{fill:#B89A7C;}
	.st413{fill:#E2E3E4;}
	.st414{fill:#EDEDEE;}
	.st415{opacity:5.000000e-02;}
	.st416{fill:#1F1D1B;}
	.st417{opacity:0.4;fill:#66BBDB;}
	.st418{fill:#F5F5F5;}
	.st419{fill:#917A62;}
	.st420{fill:#ECEDED;}
	.st421{fill:#D5D7D8;}
	.st422{fill:#D3EDF0;}
	.st423{fill:#E5E9EB;}
	.st424{fill:#C2C6C9;}
	.st425{opacity:0.6;fill:#66BBDB;}
	.st426{fill:#EEF3F6;}
	.st427{fill:none;stroke:#D9DDE0;stroke-width:0.1919;stroke-miterlimit:10;}
	.st428{fill:#BFC1C2;}
	.st429{fill:#DCDDDE;}
	.st430{fill:#EFEFF0;}
	.st431{fill:#D0D2D3;}
	.st432{fill:#EBEFF2;}
	.st433{fill:#D9DDE0;}
	.st434{opacity:0.5;fill:#E1BB95;}
	.st435{fill:#B6B8BA;}
	.st436{fill:#D2B580;}
	.st437{fill:#B8CB33;}
	.st438{fill:#E2C79A;}
	.st439{fill:#89BC40;}
	.st440{opacity:0.3;fill:#E1BB95;}
	.st441{fill:#E19290;}
	.st442{fill:#EDEAE3;}
	.st443{fill:#DF7082;}
	
		.st444{fill:none;stroke:#FFFFFF;stroke-width:0.1214;stroke-linecap:round;stroke-linejoin:round;stroke-miterlimit:10;stroke-dasharray:0.6072,0.6072,0.6072,0.6072,0.6072,0.6072;}
	.st445{opacity:0.1;fill:#231F20;}
	.st446{fill:#58595B;}
	.st447{fill:#DCE0E8;}
	.st448{fill:#A1A3A6;}
	.st449{fill:#8F9194;}
	.st450{fill:#9CB0BD;}
	.st451{fill:#D8DFDF;}
	.st452{fill:#8DA0AC;}
	.st453{fill:#DDE4E8;}
	.st454{clip-path:url(#SVGID_198_);}
	.st455{opacity:0.4;fill:none;stroke:#9CB0BD;stroke-width:0.286;stroke-linecap:round;stroke-miterlimit:10;}
	.st456{fill:#CADDE7;}
	.st457{fill:none;stroke:#FFFFFF;stroke-width:0.1919;stroke-miterlimit:10;}
	.st458{clip-path:url(#SVGID_200_);fill:#B8CB33;}
	.st459{clip-path:url(#SVGID_202_);fill:#B8CB33;}
	.st460{fill:#E9E5B5;}
	.st461{fill:#EEECD3;}
	.st462{fill:#CEDBDF;}
	.st463{clip-path:url(#SVGID_204_);fill:#B8CB33;}
	.st464{fill:#29ABE2;}
	.st465{clip-path:url(#SVGID_206_);}
	.st466{clip-path:url(#SVGID_208_);fill:#B8CB33;}
	.st467{clip-path:url(#SVGID_210_);fill:#B8CB33;}
	.st468{clip-path:url(#SVGID_212_);fill:#B8CB33;}
	.st469{fill:#F4F4F4;}
	.st470{fill:#006EC3;}
	.st471{fill:#DADADA;}
	.st472{fill:#EBEAEA;}
	.st473{opacity:0.6;fill:#A96A26;}
	.st474{opacity:0.4;fill:#A96A26;}
	.st475{opacity:0.4;fill:#FFFFFF;}
	.st476{opacity:0.4;}
	.st477{opacity:0.4;fill:#7B4E19;}
	.st478{fill:#AF522E;}
	.st479{fill:#D6C3A2;}
	.st480{fill:#A78D6A;}
	.st481{opacity:0.3;fill:#FFAA73;}
	.st482{opacity:0.8;fill:#D6C3A2;}
	.st483{fill:#809F20;}
	.st484{fill:#648C08;}
	.st485{opacity:0.5;fill:#648C08;}
	.st486{fill:#788E1A;}
	.st487{fill:#AAC844;}
	.st488{fill:#84AE0C;}
	.st489{fill:#9FB739;}
	.st490{fill:#97A833;}
	.st491{opacity:0.5;fill:#DADADA;}
	.st492{fill:#BF6A1D;}
	.st493{opacity:0.5;fill:#BF6A1D;}
	.st494{opacity:0.5;fill:#BF6310;}
	.st495{fill:#F9861E;}
	.st496{fill:#D06716;}
	.st497{fill:#ED7818;}
	.st498{fill:#A25A20;}
	.st499{fill:#7F4619;}
	.st500{fill:#6B3713;}
	.st501{opacity:0.3;fill:#A25A20;}
	.st502{fill:#93521C;}
	.st503{fill:#603111;}
	.st504{fill:#327C0A;}
	.st505{opacity:0.3;fill:#327C0A;}
	.st506{fill:#DBA216;}
	.st507{fill:#FFD44D;}
	.st508{fill:#FFC524;}
	.st509{opacity:0.5;fill:#723B16;}
	.st510{opacity:0.4;fill:#603111;}
	.st511{opacity:0.4;fill:#D38144;}
	.st512{opacity:0.5;fill:#F9AB21;}
	.st513{opacity:0.5;}
	.st514{fill:#AA6102;}
	.st515{fill:#8E4F03;}
	.st516{fill:#864000;}
	.st517{opacity:0.5;fill:#AA6102;}
	.st518{fill:#C6862C;}
	.st519{fill:#C17500;}
	.st520{fill:#E6B75F;}
	.st521{fill:#BA842D;}
	.st522{opacity:0.5;fill:#C17500;}
	.st523{fill:#461800;}
	.st524{fill:#58991F;}
	.st525{fill:#97C740;}
	.st526{opacity:0.5;fill:#97C740;}
	.st527{fill:#68B42E;}
	.st528{fill:#3E9F32;}
	.st529{fill:#E1CCBB;}
	.st530{fill:#EF7E8A;}
	.st531{fill:#F5ACA2;}
	.st532{fill:#F39B99;}
	.st533{fill:#FFFBDC;}
	.st534{fill:#E5D5BE;}
	.st535{fill:#C15914;}
	.st536{opacity:0.5;fill:#C15914;}
	.st537{fill:#E57428;}
	.st538{fill:#C15B16;}
	.st539{opacity:0.5;fill:#E57428;}
	.st540{fill:#DB6C21;}
	.st541{fill:#9E6A1E;}
	.st542{fill:#DBBA4F;}
	.st543{opacity:0.5;fill:#DBBA4F;}
	.st544{fill:#E8CA5C;}
	.st545{fill:#955913;}
	.st546{fill:#C4903C;}
	.st547{fill:#FAED8D;}
	.st548{fill:#89BD27;}
	.st549{fill:#A97623;}
	.st550{fill:#0A58B5;}
	.st551{fill:#D0D0D0;}
	.st552{fill:#DCA35E;}
	.st553{fill:#D29654;}
	.st554{fill:#EAC07E;}
	.st555{fill:#E9BA6E;}
	.st556{fill:#F2CB84;}
	.st557{fill:#FFDC92;}
	.st558{opacity:0.4;fill:#D29654;}
	.st559{fill:#F5CD86;}
	.st560{fill:#E7B165;}
	.st561{fill:#F2C483;}
	.st562{fill:#E4AC6C;}
	.st563{fill:#FAD58C;}
	.st564{fill:#DCAB63;}
	.st565{opacity:0.5;fill:#D29654;}
	.st566{opacity:0.5;fill:#E9BA6E;}
	.st567{fill:#FFE6A9;}
	.st568{fill:#FFD794;}
	.st569{fill:#EEBE71;}
	.st570{opacity:0.6;}
	.st571{opacity:0.9;}
	.st572{fill:#BC2C00;}
	.st573{fill:#9E1E00;}
	.st574{opacity:0.5;fill:#BC2C00;}
	.st575{opacity:0.7;fill:#BC2C00;}
	.st576{fill:#6AB432;}
	.st577{fill:#3F9F36;}
	.st578{fill:#8A8F23;}
	.st579{fill:#FFFBDF;}
	.st580{opacity:0.7;fill:#A0BC2B;}
	.st581{opacity:0.7;fill:none;stroke:#A0BC2B;stroke-width:0.5201;stroke-miterlimit:10;}
	.st582{fill:#212121;}
	.st583{fill:#424242;}
	.st584{fill:#6A6A6A;}
	.st585{fill:#616161;}
	.st586{fill:#C4C6C7;}
	.st587{fill:#4D4E4E;}
	.st588{fill:#343536;}
	.st589{fill:#FFEE58;}
	.st590{fill:#2B3B54;}
	.st591{fill:#FBC02D;}
	.st592{fill:#2D2E2E;}
	.st593{fill:#FDD835;}
	.st594{fill:#F08526;}
	.st595{fill:#FFF38A;}
	.st596{fill:#595A59;}
	.st597{fill:#F4A83F;}
</style>
<rect x="-33" y="-18" class="st464" width="930" height="446"/>
<g>
	<g>
		<rect x="190.6" y="379.7" class="st13" width="629.4" height="9.2"/>
		<path class="st13" d="M269.5,336.7v1.7V352v1.1v2.2v22.4v7.5l2.7,3.7h-7.6h-11.7h-10.1l2.2-3.7h0.1v-29.4l-1.5-4h5.2h-1.7h-2
			c-0.5-5.9-5.5-10.7-11.5-10.7c-6.1,0-11.1,4.7-11.6,10.7h-2h-1.7h5.3l-1.5,4v29.4h0.1l2.7,3.7h-10.4h-11.2h-7.7l2.2-3.7v-7.5
			v-22.4v-2.2V352v-13.6v-1.7v-4.8v-0.6l-6.4-5h-0.2v-0.2v-0.3h6.6V321v-1.3v-1.1v-0.8h71.8v0.8v1.1v1.3v4.8h6.6v0.1v0.3h-0.3
			l-6.3,5v0.6V336.7z"/>
		<path class="st13" d="M271.5,347.1v7.7v0.6v0.6h0.5v12.8v0.8v4.8v0.8v11.5v1.5v0.6h84v-0.6v-1.5v-11.5v-0.8v-4.8v-0.8v-12.8h0.9
			v-0.6v-0.6v-7.7v-1h-1.2v-7.2v-17.5v-1.1v-15.6v-1.1v-32h1.7v-2.1H354v-3.1h-1.2v-1h-0.3l-1.3-2.4l-1.4-2.5l-1.3,2.5l-1.3,2.4
			h-0.3v1h-19.8v3.1h-3.4v2.1h1.9v32v1.1v0.8h-8.2l-1.3-10l-0.3-2.7v-14.2h2.2v-1.7h-2.2V275h-1.9v1.9h-2.2v1.7h2.2v13.9l-0.4,3
			l-1.3,10h-9.3v-0.8v-1.1v-32h1.7v-2.1H301v-3.1h-19.4v-1h-0.3l-1.3-2.4l-1.3-2.5l-1.4,2.5l-1.3,2.4h-0.4v1h-1.6v3.1h-3.4v2.1h1.9
			v32v1.1v15.6v1.1v17.5v7.2h-0.8V347.1z M302.6,308.7h9.4v5.9l-0.6,0.9l-3.2,5h-5.6v-0.1V308.7z M317.1,308.7h8.2v11.7v0.1h-4.5
			l-3.1-5l-0.6-0.9V308.7z M304.1,334.4c0.3-5,4.2-9,9.1-9.4C308.3,325.4,304.4,329.4,304.1,334.4L304.1,334.4z M314.8,325
			c2.1,0.1,4,1,5.5,2.2C318.8,326,316.9,325.2,314.8,325L314.8,325z M350.7,321.2h-20.2v-0.8v-14.5h20.2v14.5V321.2z M343.4,308.3
			c0.7,0,1.3,0.4,1.3,0.9v10.4h-2.7v-10.4C342.1,308.7,342.6,308.3,343.4,308.3L343.4,308.3z M338.2,308.3c0.7,0,1.3,0.4,1.3,0.9
			v10.4h-2.7v-10.4C336.8,308.7,337.4,308.3,338.2,308.3L338.2,308.3z M346.4,326.3h2.7v-2.7h-2.7V326.3z M332.1,326.3h2.8v-2.7
			h-2.8V326.3z M290.3,308.3c0.7,0,1.3,0.4,1.3,0.9v10.4H289v-10.4C289,308.7,289.6,308.3,290.3,308.3L290.3,308.3z M285.1,308.3
			c0.7,0,1.3,0.4,1.3,0.9v10.4h-2.6v-10.4C283.8,308.7,284.3,308.3,285.1,308.3L285.1,308.3z M293.3,326.3h2.7v-2.7h-2.7V326.3z
			 M279,326.3h2.7v-2.7H279V326.3z M350.9,386.9H349v-18.4c0-5.7-8.3-10.3-8.3-10.3s-8.3,4.6-8.3,10.3v18.4h-2.7v-11.5v-0.8v-4.8
			v-0.8v-12.8h21.2v12.8v0.8v4.8v0.8V386.9z M324.5,386.9h-2.2v-18.4c0-5.7-8.3-10.3-8.3-10.3s-8.3,4.6-8.3,10.3v18.4h-2.4v-11.5
			v-0.8v-4.8v-0.8v-12.8h21.2v12.8v0.8v4.8v0.8V386.9z M298.2,386.9h-2.4v-18.4c0-5.7-8.3-10.3-8.3-10.3s-8.3,4.6-8.3,10.3v18.4
			h-2.1v-11.5v-0.8v-4.8v-0.8v-12.8h21.1v12.8v0.8v4.8v0.8V386.9z"/>
		<path class="st13" d="M621.6,384h1.4l-10.5-20.4c-5.5-5.3-13.1-8.5-21.3-8.5c-7.5,0-14.4,2.7-19.7,7.2L560.3,384h2v5h-26.5v-5h3.5
			l21.8-42.2v-6.4h4.7l7.7-22.2v-0.5h0.1l2.2-6.3H575v-5.9h2.4v-1.1h-3.6v-6.4h5.5c4.1-32.2,6.1-87.7,6.7-105.4h-0.1v-1.4h0.2
			l0.1-3.4h-1v-5.7h2.5v-7.1h2.9v-10h1V151h1.1v9.1h1v10h2.9v7.1h2.6v5.7h-1l0.1,3.4h0.1v1.4h-0.1c0.3,10,1,32,2.4,55.2l0.1,0.2
			l-0.1,0.1c0.8,14,1.9,28.3,3.1,40.6c0.3,3.3,0.8,6.4,1,9.3h5.6v6.4H607v1.1h2.4v5.9h-0.6l2.2,6.3l7.9,22.7h2.4v5.9l0.5-0.2
			L644,384h4.2v5h-26.5V384z M567.7,333.9L567.7,333.9l7.1-4.1l-4.1-4L567.7,333.9z M571.7,322.6L571.7,322.6l6.3-4.1l-3.6-3.6
			L571.7,322.6z M575.4,312.1L575.4,312.1l4.6-2.9l-2.8-2.4L575.4,312.1z M607.2,306.4L607.2,306.4H607l-2.7,2.5l4.7,2.7
			L607.2,306.4z M610.2,315L610.2,315l-3.3,3.3l5.7,3.6L610.2,315z M613.9,325.6L613.9,325.6l-4.5,4.3l7.5,4.3L613.9,325.6z
			 M591.4,182.9L591.4,182.9l-1.7,1.4l-1.7-1.4H591.4z M589.2,184.8L589.2,184.8l-2,1.5l0.1-3.1L589.2,184.8z M588.2,186.3
			L588.2,186.3l1.4-1.2l1.3,1.2H588.2z M590.1,184.7L590.1,184.7l1.4-1.1v0.1v0.1v0.3v0.1v0.4v0.1v0.5v0.1v0.7L590.1,184.7z
			 M591.5,187.9L591.5,187.9l-2.1,2.2l-2.2-2.3h4.3V187.9z M588.9,190.6L588.9,190.6l-1.7,1.9l0.1-3.8L588.9,190.6z M587.1,193.4
			L587.1,193.4l2.2-2.3l2,2.3H587.1z M589.9,190.5L589.9,190.5l1.7-1.7v3.6L589.9,190.5z M591.5,194.8L591.5,194.8l-2.2,2.2l-2-2.3
			L591.5,194.8L591.5,194.8z M588.7,197.5L588.7,197.5l-1.8,2l0.1-4L588.7,197.5z M586.8,200.4L586.8,200.4l2.4-2.4l2,2.4
			L586.8,200.4L586.8,200.4z M589.7,197.5L589.7,197.5l1.8-1.8v3.9L589.7,197.5z M591.5,202L591.5,202l-2.3,2.2l-2.2-2.4h4.5V202z
			 M588.6,204.7L588.6,204.7l-2,2v-0.4l0.1-3.6L588.6,204.7z M586.7,207.5L586.7,207.5l2.4-2.2l2,2.2H586.7z M589.6,204.7
			L589.6,204.7l2-1.8v3.9L589.6,204.7z M591.5,209.3L591.5,209.3l-2.3,2l-2.5-2.5h4.7l0.1,0.1V209.3z M588.6,211.8L588.6,211.8
			l-2.3,2l0.2-4.1L588.6,211.8z M586.4,214.6L586.4,214.6l2.7-2.3l2.2,2.3H586.4z M589.6,211.8L589.6,211.8l2-1.6v1.7v0.3v0.5v0.2
			v0.6v0.3L589.6,211.8z M592.9,209.1L592.9,209.1l0.2-0.3h4.7l-2.4,2.5L592.9,209.1L592.9,209.1z M586.5,208.8L586.5,208.8
			L586.5,208.8L586.5,208.8z M591.5,216L591.5,216l-2.7,2.2l-2.3-2.3L591.5,216L591.5,216z M588.3,218.7L588.3,218.7l-2.3,2l0.1-4.1
			L588.3,218.7z M585.9,221.6L585.9,221.6l2.9-2.4l2.4,2.5h-5.3V221.6z M589.4,218.7L589.4,218.7l2-1.8v0.4v0.6v0.5v0.7v0.5v0.7v0.6
			v0.1L589.4,218.7z M591.3,223.1L591.3,223.1l-2.7,2.3l-2.4-2.4h5V223.1z M588.1,225.9L588.1,225.9l-2.4,2.2l0.1-4.5L588.1,225.9z
			 M585.9,228.7L585.9,228.7l2.7-2.3l2.3,2.3H585.9z M589.2,225.9L589.2,225.9l2.1-1.9v0.4v0.3v1v0.4l-0.1,1.1v0.3v0.3L589.2,225.9z
			 M586,223L586,223l-0.2,0.6l0.1-0.6H586z M591,230L591,230l-2.5,2.2l-2.2-2.2H591z M587.9,232.8L587.9,232.8l-2.7,2.4l0.2-4.7
			L587.9,232.8z M585.7,235.8L585.7,235.8l2.7-2.5l2.6,2.5H585.7z M589.1,232.7L589.1,232.7l2.2-1.9l-0.1,1.2v0.2v1.5v0.1l-0.1,0.8
			L589.1,232.7z M590.6,237.1L590.6,237.1l-2.4,2l-2-2H590.6z M587.5,239.9L587.5,239.9l-2.7,2.2l0.4-4.6L587.5,239.9z M585.3,242.9
			L585.3,242.9l2.9-2.4l2.3,2.4H585.3z M588.9,239.9L588.9,239.9l2.2-2v0.9l-0.1,3.1L588.9,239.9z M590.8,244.2L590.8,244.2
			l-2.7,2.2l-2.1-2.2H590.8z M587.5,247L587.5,247l-3.1,2.7l0.4-5.4L587.5,247z M585.5,249.9L585.5,249.9l2.7-2.2l2.2,2.2H585.5z
			 M588.9,247L588.9,247l2-1.6v0.3l-0.1,0.3v1.4v0.4l-0.1,1.1L588.9,247z M590.2,251.2L590.2,251.2l-2.5,2l-2-2H590.2z M587,254
			L587,254l-3.1,2.6l0.4-5.3L587,254z M584.8,257L584.8,257l2.8-2.4l2.4,2.4H584.8z M588.4,254L588.4,254l2.2-2l-0.1,0.8v0.6
			l-0.1,2.7L588.4,254z M589.7,258.3L589.7,258.3l-2.7,2.2l-2.1-2.2H589.7z M586.3,261L586.3,261l-2.9,2.3l0.4-5L586.3,261z
			 M584,264L584,264l3-2.3l2.1,2.3H584z M587.6,261.1L587.6,261.1l2.7-2c-0.1,1.5-0.1,3.1-0.3,4.5L587.6,261.1z M589.5,265.4
			L589.5,265.4l-2.7,2l-2-2H589.5z M586.2,268.1L586.2,268.1l-3.3,2.6c0.1-1.7,0.3-3.5,0.4-5.2h0.3L586.2,268.1z M583.9,271.1
			L583.9,271.1l2.9-2.4l2.2,2.4H583.9z M587.5,268.1L587.5,268.1l2.4-1.9c-0.1,1.4-0.1,2.8-0.3,4.1L587.5,268.1z M588.4,272.4
			L588.4,272.4l-2.3,1.9l-1.7-1.9H588.4z M585.3,274.9L585.3,274.9l-3.1,2.4c0.2-1.5,0.3-3.2,0.4-4.9h0.3L585.3,274.9z M582.7,278.2
			L582.7,278.2l3.2-2.7l2.6,2.7H582.7z M586.7,275L586.7,275l2.8-2.2c-0.1,1.5-0.2,3.2-0.4,4.7L586.7,275z M588.5,279.5L588.5,279.5
			l-3.1,2.4l-2.2-2.4H588.5z M584.8,282.4L584.8,282.4l-3,2.5h-0.2c0.1-1.7,0.3-3.6,0.5-5.4L584.8,282.4z M583.2,284.9L583.2,284.9
			l2.2-1.8l1.7,1.8H583.2z M586.2,282.6L586.2,282.6l2.7-2.1c-0.2,1.5-0.3,3-0.5,4.3L586.2,282.6z M588,286.3L588,286.3l-3.4,2.8
			l-2.6-2.8H588z M583.9,289.6L583.9,289.6l-3.1,2.5c0.1-1.7,0.4-3.4,0.6-5.2L583.9,289.6z M580.9,293.1L580.9,293.1l3.6-2.8
			l2.4,2.5v0.1l-0.1,0.2H580.9z M585.2,289.7L585.2,289.7l2.7-2.2c-0.3,1.5-0.5,3-0.8,4.3L585.2,289.7z M593.1,182.9L593.1,182.9
			l1.7,1.4l1.6-1.4H593.1z M595.4,184.8L595.4,184.8l1.7,1.3l-0.1-2.8L595.4,184.8z M596.3,186.3L596.3,186.3l-1.3-1.2l-1.3,1.2
			H596.3z M594.4,184.7L594.4,184.7l-1.5-1.3v0.3v0.1v0.3v0.1v0.4v0.1v0.5v0.1v0.8L594.4,184.7z M592.9,187.7L592.9,187.7l2.3,2.3
			l2-2.2v-0.1H592.9z M595.7,190.6L595.7,190.6l1.5,1.7l-0.1-3.3L595.7,190.6z M597.3,193.2L597.3,193.2l-2-2.2l-2.2,2.3h4.2V193.2z
			 M594.7,190.5L594.7,190.5l-1.8-1.9v3.9L594.7,190.5z M593,194.7L593,194.7l2.3,2.3l1.9-2.3H593z M595.8,197.5L595.8,197.5
			l1.7,1.7l-0.1-3.5L595.8,197.5z M597.5,200.1L597.5,200.1l-2.2-2.1l-2,2.4h4.2V200.1z M594.8,197.5L594.8,197.5l-2-2v4.4
			L594.8,197.5z M592.9,201.8L592.9,201.8l2.5,2.4l2.2-2.4H592.9z M595.9,204.7L595.9,204.7l1.8,1.7l-0.1-3.6L595.9,204.7z
			 M597.7,207.5L597.7,207.5l-2.3-2.2l-2,2.2H597.7z M594.9,204.7L594.9,204.7l-2-2v4.3L594.9,204.7z M595.9,211.8L595.9,211.8
			l2.1,1.8l-0.1-3.8L595.9,211.8z M598.1,214.5L598.1,214.5l-2.7-2.2l-2.3,2.3L598.1,214.5L598.1,214.5z M594.9,211.8L594.9,211.8
			l-2-1.7v1.8v0.3v0.5v0.2v0.6v0.3v0.1L594.9,211.8z M593,215.9L593,215.9l2.7,2.3l2.3-2.3H593z M596.3,218.7L596.3,218.7l2.1,1.8
			l-0.2-3.7L596.3,218.7z M598.4,221.4L598.4,221.4l-2.6-2.2l-2.4,2.5h5L598.4,221.4z M595.2,218.7L595.2,218.7l-2.3-2v0.6v0.6v0.5
			v0.7v0.5v0.7v0.6v0.2L595.2,218.7z M593,223L593,223l2.9,2.4l2.4-2.4H593z M596.5,225.9L596.5,225.9l2.2,2l-0.2-4L596.5,225.9z
			 M598.7,228.7L598.7,228.7l-2.8-2.3l-2.3,2.3H598.7z M595.4,225.9L595.4,225.9l-2.4-2.1v0.6v0.3v1v0.4l0.1,1.1v0.3v0.5
			L595.4,225.9z M593.6,230L593.6,230l2.4,2.2l2.2-2.2H593.6z M596.6,232.8L596.6,232.8l2.4,2.2l-0.2-4.3L596.6,232.8z M598.9,235.8
			L598.9,235.8l-2.7-2.5l-2.6,2.5H598.9z M595.4,232.7L595.4,232.7l-2.4-2.1l0.1,1.4v0.2v1.5v0.1l0.1,1L595.4,232.7z M593.9,237.1
			L593.9,237.1l2.4,2l2-2H593.9z M597.1,239.9L597.1,239.9l2.4,2l-0.2-4.2L597.1,239.9z M599.3,242.9L599.3,242.9l-2.8-2.4l-2.4,2.4
			H599.3z M595.7,239.9L595.7,239.9l-2.5-2.1l0.1,1l0.1,3.3L595.7,239.9z M593.8,244.2L593.8,244.2l2.5,2.2l2.2-2.2H593.8z
			 M597.1,247L597.1,247l2.9,2.5l-0.3-5L597.1,247z M599.1,249.9L599.1,249.9l-2.6-2.2l-2.2,2.2H599.1z M595.7,247L595.7,247
			l-2.2-1.8v0.5l0.1,0.3v1.4v0.4l0.1,1.3L595.7,247z M594.4,251.2L594.4,251.2l2.4,2l2.1-2H594.4z M597.5,254L597.5,254l2.9,2.4
			l-0.3-5L597.5,254z M599.8,257L599.8,257l-2.8-2.4l-2.4,2.4H599.8z M596.2,254L596.2,254l-2.4-2.1l0.1,0.9v0.6l0.1,2.9L596.2,254z
			 M594.8,258.3L594.8,258.3l2.7,2.2l2-2.2H594.8z M598.3,261L598.3,261l2.5,2.2l-0.4-4.5L598.3,261z M600.5,264L600.5,264l-2.9-2.3
			l-2.2,2.3H600.5z M596.8,261.1L596.8,261.1l-2.8-2.3c0.1,1.7,0.2,3.4,0.3,5L596.8,261.1z M595,265.4L595,265.4l2.7,2l2-2H595z
			 M598.4,268.1L598.4,268.1l3.1,2.4c-0.2-1.7-0.3-3.4-0.4-5.1H601L598.4,268.1z M600.8,271.1L600.8,271.1l-3-2.4l-2.2,2.4H600.8z
			 M597.1,268.1L597.1,268.1l-2.6-2.1c0.1,1.5,0.2,3.1,0.3,4.5L597.1,268.1z M596.2,272.4L596.2,272.4l2.3,1.9l1.7-1.9H596.2z
			 M599.3,274.9L599.3,274.9l2.8,2.2c-0.1-1.6-0.3-3.1-0.4-4.7h-0.1L599.3,274.9z M601.9,278.2L601.9,278.2l-3.4-2.7l-2.4,2.7H601.9
			z M597.9,275L597.9,275l-3-2.5c0.1,1.8,0.3,3.6,0.4,5.2L597.9,275z M596.1,279.5L596.1,279.5l2.9,2.4l2.3-2.4H596.1z M599.8,282.4
			L599.8,282.4l3.1,2.5c-0.2-1.7-0.3-3.4-0.6-5.1L599.8,282.4z M601.3,284.9L601.3,284.9l-2.1-1.8l-1.7,1.8H601.3z M598.4,282.6
			L598.4,282.6l-2.9-2.3c0.1,1.6,0.3,3.2,0.6,4.7L598.4,282.6z M596.6,286.3L596.6,286.3l3.4,2.8l2.6-2.8H596.6z M600.8,289.6
			L600.8,289.6l2.9,2.3c-0.1-1.5-0.4-3.1-0.6-4.7L600.8,289.6z M603.6,293.1L603.6,293.1l-3.5-2.8l-2.6,2.7l0.1,0.1H603.6z
			 M599.4,289.7L599.4,289.7l-2.9-2.4c0.2,1.7,0.5,3.3,0.8,4.6L599.4,289.7z M576.3,312.7L576.3,312.7h7.8l-3.3-2.8L576.3,312.7z
			 M584.3,306.4L584.3,306.4l-3.4,2.2l-2.4-2.2H584.3z M581.7,309.4L581.7,309.4l4.5-2.9h0.6l-0.8,6.3h-0.3L581.7,309.4z
			 M603.5,309.7L603.5,309.7l-3.3,3.1h8.6L603.5,309.7z M600,306.4L600,306.4l3.5,2l2.2-2H600z M602.6,309.2L602.6,309.2l-4.9-2.7
			l1,6.3L602.6,309.2z M572.6,323.8L572.6,323.8h10.8l-4.3-4.3L572.6,323.8z M584.7,314.1L584.7,314.1l-5.7,3.7l-3.7-3.7H584.7z
			 M580.2,318.8L580.2,318.8l5.4-3.5l-1.3,7.7L580.2,318.8z M605.8,319.4L605.8,319.4l-4.4,4.4H613L605.8,319.4z M600.1,314.1
			L600.1,314.1l5.7,3.6l3.6-3.6H600.1z M604.8,318.7L604.8,318.7l-5.7-3.6l1.2,7.5l0.1,0.6L604.8,318.7z M608.4,330.9L608.4,330.9
			l-4.6,4.5h12.1L608.4,330.9z M601.7,325.1L601.7,325.1l6.6,4l4.1-4H601.7z M607.1,330.3L607.1,330.3l-6.2-3.8l1.3,8.4L607.1,330.3
			z M568.4,335.4L568.4,335.4h12.2l-4.7-4.5L568.4,335.4z M582.6,325.1L582.6,325.1l-6.6,4l-4.2-4H582.6z M577.2,330.3L577.2,330.3
			l6.7-4l-1.4,9L577.2,330.3z M604.8,348.7L604.8,348.7v2.2c0.5,0.2,1,0.4,1.4,0.6L604.8,348.7z M604.2,350.7L604.2,350.7v-3.1
			l-0.9-1.7v4.5L604.2,350.7z M602.7,350.2L602.7,350.2v-5.4l-0.6-1.1h-0.3v6.2L602.7,350.2z M601.2,349.7L601.2,349.7v-6h-0.8v5.8
			L601.2,349.7z M599.7,349.4L599.7,349.4v-5.7h-0.9v5.4L599.7,349.4z M598.2,349L598.2,349v-5.4h-0.9v5.2L598.2,349z M596.7,348.7
			L596.7,348.7v-5.1h-0.9v5L596.7,348.7z M595.2,348.5L595.2,348.5v-4.9h-0.9v4.8L595.2,348.5z M593.8,348.5L593.8,348.5v-4.8h-0.9
			v4.7L593.8,348.5z M592.2,348.4L592.2,348.4v-4.7h-0.9v4.7H592.2z M590.7,348.4L590.7,348.4v-4.7h-0.8v4.7H590.7z M589.2,348.4
			L589.2,348.4v-4.7h-0.9v4.8L589.2,348.4z M587.7,348.5L587.7,348.5v-4.9h-0.9v5L587.7,348.5z M586.2,348.7L586.2,348.7v-5h-0.9
			v5.1L586.2,348.7z M584.8,349L584.8,349v-5.3h-0.9v5.4L584.8,349z M583.3,349.2L583.3,349.2v-5.5h-0.9v5.8L583.3,349.2z
			 M581.8,349.6L581.8,349.6v-5.9h-0.6l-0.3,0.5v5.7L581.8,349.6z M580.2,350L580.2,350v-4.7l-0.8,1.7v3.2L580.2,350z M625.4,382.4
			L625.4,382.4l3.6-4.6l-7.8-3.5L625.4,382.4z M630.3,376.2L630.3,376.2l3.6-4.4h-13.3L630.3,376.2z M635.2,373.2L635.2,373.2
			l-3.1,3.9l6.6,2.9L635.2,373.2z M630.8,378.6L630.8,378.6l-4.3,5.4h14.2l-0.6-1.3L630.8,378.6z M618.8,369.8L618.8,369.8l4-2.9
			l-6.7-2.4L618.8,369.8z M624.5,365.8L624.5,365.8l3.8-2.6h-10.7L624.5,365.8z M630.3,363.5L630.3,363.5l-4.1,2.9l6.8,2.4
			L630.3,363.5z M624.5,367.5L624.5,367.5l-4.3,3h12.5L624.5,367.5z M616.2,361.9L616.2,361.9H628l-7.7-2.8L616.2,361.9z
			 M614.5,361.4L614.5,361.4l4-2.8l-6.8-2.4L614.5,361.4z M620.2,357.4L620.2,357.4l4-2.7h-11.6L620.2,357.4z M625.9,355.2
			L625.9,355.2l-4,2.8l6.7,2.4L625.9,355.2z M610.4,353.4L610.4,353.4H625l-1.3-2.6h-14.6L610.4,353.4z M557.8,382.5L557.8,382.5
			l-3.7-4.7l8-3.5L557.8,382.5z M552.7,376.2L552.7,376.2l-3.5-4.4h13.3L552.7,376.2z M548,373.2L548,373.2l2.9,3.8l-6.4,2.8
			L548,373.2z M552.2,378.6L552.2,378.6l4.3,5.4h-14.1l0.6-1.3L552.2,378.6z M563.3,371.9L563.3,371.9l1-2l-4.1-2.9l6.8-2.4
			l-2.7,5.4L563.3,371.9z M558.6,365.8L558.6,365.8l-3.7-2.6h10.8L558.6,365.8z M553,363.6L553,363.6l4,2.8l-6.7,2.4L553,363.6z
			 M558.6,367.5L558.6,367.5l4.3,3h-12.6L558.6,367.5z M567,361.9L567,361.9h-11.8l7.7-2.8L567,361.9z M622.9,349.5L622.9,349.5
			h-14.6l-3-5.9h14.6L622.9,349.5z M568.6,361.5L568.6,361.5l-4.1-2.9l7-2.4L568.6,361.5z M562.9,357.4L562.9,357.4l-4-2.7h11.5
			L562.9,357.4z M557.3,355.3L557.3,355.3l4,2.7l-6.6,2.4L557.3,355.3z M572.9,353.4L572.9,353.4h-14.7l1.3-2.6h14.7L572.9,353.4z
			 M574.9,349.5L574.9,349.5h-14.6l3.1-5.9h14.6L574.9,349.5z M587.8,310.3L587.8,310.3h9.1l3.8,25.1h-17l2-12.8L587.8,310.3z
			 M596.7,309L596.7,309H588l0.4-2.5h7.9L596.7,309z M578.8,350.5L578.8,350.5v-2.3l-1.5,2.9C577.7,350.8,578.2,350.7,578.8,350.5
			L578.8,350.5z M609.3,357.3L609.3,357.3l-0.8-1.5c-5.1-3-11-4.7-17.3-4.7c-5.8,0-11.3,1.5-16.1,4l-0.7,1.4
			c5-2.8,10.7-4.5,16.8-4.5C597.9,352.2,604,354.1,609.3,357.3L609.3,357.3z"/>
		<path class="st13" d="M462.9,329.4v5h0.6v0.9h-0.2c17.8,11.2,7.8,14.7,9.9,17c-3.4-0.1-6.8-0.1-10.3,0h-10.5c1.3-2.4-9-5.7,9.4-17
			h-0.2v-0.9h0.6v-4.7c-0.1,0-0.3,0-0.4,0c-0.8,0-1.5-0.5-1.7-1.3c0.3,0.4,0.8,0.5,1.3,0.5c1,0,2-0.8,2-1.9c0-0.2-0.1-0.5-0.1-0.6
			c0.4,0.3,0.6,0.8,0.6,1.3C463.8,328.4,463.5,329.1,462.9,329.4L462.9,329.4z M428.1,356.6c0.2-0.4-1.5-0.9,1.6-2.8
			c2.9,1.9,1.3,2.4,1.7,2.8C430.3,356.6,429.2,356.6,428.1,356.6L428.1,356.6z M428,359.8h3.3V358H428V359.8z M428.6,359.4
			L428.6,359.4h0.6v-1h-0.6V359.4z M430.2,359.4L430.2,359.4h0.6v-1h-0.6V359.4z M429.4,359.4L429.4,359.4h0.6v-1h-0.6V359.4z
			 M427.6,357.8h4.3v-0.3h-4.3V357.8z M427.6,357.1h4.3v-0.4h-4.3V357.1z M427.6,360.3h4.3v-0.3h-4.3V360.3z M427.6,360.8h4.3v-0.3
			h-4.3V360.8z M427.9,360.8h3.5v8.7h-3.5V360.8z M431.4,370v7.5h-3.5V370H431.4z M431.4,378.1v4.6h4.1v-21.4l6.9-1.4v22.8h0.3
			v-26.5h0.9v-0.3h8.1v-2.4h21.8v2l0,0v0.4h8.4v0.3h0.7v26.5h0.4v-23.1l6.7,1.9v21.2h4.5v-4.6h3.4v4.6h6.2v-7.5h5.6v7.5h7.1v1.9
			H408.8v-1.9h7.3v-7.5h5.7v7.5h6.1v-4.6H431.4z M421.5,340.2c-0.3-0.6,2.4-1.4-2.6-4.4c-4.8,2.9-2.2,3.8-2.7,4.4
			C417.9,340.2,419.8,340.2,421.5,340.2L421.5,340.2z M421.6,345.5h-5.4v-2.9h5.4V345.5z M420.7,344.8L420.7,344.8h-0.9v-1.7h0.9
			V344.8z M418.1,344.8L418.1,344.8h-0.9v-1.7h0.9V344.8z M419.4,344.8L419.4,344.8h-0.9v-1.7h0.9V344.8z M422.5,342.4h-7v-0.8h7
			V342.4z M422.5,341.3h-7v-0.7h7V341.3z M422.5,346.4h-7v-0.7h7V346.4z M422.5,347.1h-7v-0.5h7V347.1z M516.6,389H408.8v-3.8h107.8
			V389z M421.8,347.2h-5.7v14h5.7V347.2z M504.1,340.2c0.4-0.6-2.4-1.4,2.7-4.4c4.8,2.9,2.2,3.8,2.7,4.4
			C507.6,340.2,505.9,340.2,504.1,340.2L504.1,340.2z M509.4,345.5v-2.9h0.8v-0.9h-7v0.9h0.8v2.9h-0.8v0.8v0.1v0.8h0.7v14h5.6v-14
			h0.7v-0.8v-0.1v-0.8H509.4z M505,344.8L505,344.8h0.9v-1.7H505V344.8z M507.4,344.8L507.4,344.8h1v-1.7h-1V344.8z M506.2,344.8
			L506.2,344.8h0.9v-1.7h-0.9V344.8z M503.2,341.5h7v-0.9h-7V341.5z M509.5,362.2v12.1h-5.6v-12.1H509.5z M453.1,382.7h19.2v-25.3
			h-19.2V382.7z M497.5,356.6c-0.2-0.4,1.5-0.9-1.6-2.8c-3,1.9-1.3,2.4-1.7,2.8C495.3,356.6,496.4,356.6,497.5,356.6L497.5,356.6z
			 M497.7,359.8h-3.3V358h3.3V359.8z M497,359.4L497,359.4h-0.6v-1h0.6V359.4z M495.5,359.4L495.5,359.4h-0.6v-1h0.6V359.4z
			 M496.2,359.4L496.2,359.4h-0.6v-1h0.6V359.4z M498.1,357.8h-4.3v-0.4h4.3V357.8z M498.1,357.1h-4.3v-0.4h4.3V357.1z M498.1,360.3
			h-4.3V360h4.3V360.3z M498.1,360.8h-0.4v8.7h-3.4v-8.7h-0.4v-0.3h4.3V360.8z M494.2,370v7.5h3.4V370H494.2z M416.1,362.2v12.1h5.7
			v-12.1H416.1z M440.6,375.4v5.2l-3.6,0.1v-4.8c0-0.9,1.7-2.4,1.7-2.4C438.8,373.5,440.6,374.5,440.6,375.4L440.6,375.4z
			 M440.6,366.8v5.1l-3.6,0.4v-5.1c0-1,1.7-2.4,1.7-2.4C438.8,364.7,440.6,365.7,440.6,366.8L440.6,366.8z M485,375.4v5.2l3.6,0.1
			v-4.8c0-0.9-1.7-2.4-1.8-2.4C486.7,373.5,485,374.5,485,375.4L485,375.4z M485,366.8v5.1l3.6,0.4v-5.1c0-1-1.7-2.4-1.8-2.4
			C486.7,364.7,485,365.7,485,366.8L485,366.8z M474.5,355.4c0.4-0.8-2.9-1.7,3.2-5.4h-0.1h-0.2v-0.3h0.2v-1.3c-0.1,0-0.1,0-0.2,0
			c-0.2,0-0.5-0.2-0.6-0.4c0.1,0.1,0.3,0.1,0.4,0.1c0.3,0,0.6-0.3,0.6-0.6c0-0.1,0-0.1-0.1-0.2c0.1,0.1,0.2,0.2,0.2,0.4
			c0,0.2-0.1,0.3-0.2,0.5v1.4h0.1v0.3h-0.1h-0.1c5.9,3.6,2.8,4.7,3.3,5.4H474.5z M464.4,367.9v4h4v-4.1c0-2.4-5.5-5.6-5.8-5.6
			c-0.3,0-5.8,3.2-5.8,5.6v4.1h4v-4c0-0.7,1.7-1.7,1.8-1.7C462.8,366.2,464.4,367.2,464.4,367.9L464.4,367.9z M464.4,376.7v3.9h-3.6
			v-3.9c0-0.8,1.7-1.7,1.8-1.7C462.8,375,464.4,376,464.4,376.7L464.4,376.7z M468.5,373.2h-11.6v7.4h-1.7v-21.2l0,0h14.9v21.2h-1.6
			V373.2z M446,368.8h1.4v2.7H446V368.8z M446,378h1.4v2.7H446V378z M478,378h1.4v2.7H478V378z M478,368.8h1.4v2.7H478V368.8z
			 M444.7,357.5L444.7,357.5h1.3v1.9h-1.3V357.5z M479.6,357.5L479.6,357.5h1.3v1.9h-1.3V357.5z M477.6,357.5L477.6,357.5h1.3v1.9
			h-1.3V357.5z M475.4,357.5L475.4,357.5h1.3v1.9h-1.3V357.5z M449.1,357.5L449.1,357.5h1.3v1.9h-1.3V357.5z M446.9,357.5
			L446.9,357.5h1.3v1.9h-1.3V357.5z M476.2,373h2c-0.4,0.2-0.8,0.6-1,0.7c-0.4,0.3-1,1-1,1.6v5.6h5.4v-5.6c0-0.6-0.6-1.3-1-1.6
			c-0.1-0.1-0.6-0.5-1-0.7h2.1v-0.6h-5.3V373z M444,363.5h2.4c-0.4,0.2-1.2,0.8-1.4,1c-0.4,0.3-1,1-1,1.6v5.6h5.4v-5.6
			c0-0.6-0.6-1.3-1-1.6c-0.2-0.2-0.9-0.8-1.4-1h2.4V363H444V363.5z M444,373h2c-0.4,0.2-0.9,0.6-1,0.7c-0.4,0.3-1,1-1,1.6v5.6h5.4
			v-5.6c0-0.6-0.6-1.3-1-1.6c-0.1-0.1-0.6-0.5-1-0.7h2v-0.6H444V373z M476,363.5h2.5c-0.5,0.2-1.3,0.8-1.4,1c-0.5,0.3-1,1-1,1.6v5.6
			h5.4v-5.6c0-0.6-0.6-1.3-1-1.6c-0.2-0.1-1-0.8-1.4-1h2.2V363H476V363.5z M447.8,347.5c0.1,0.1,0.2,0.2,0.2,0.4
			c0,0.2-0.1,0.3-0.2,0.5v1.4h0.2v0.3h-0.2h-0.1h-0.1h-0.2v-0.3h0.2v-1.3c-0.1,0-0.1,0-0.2,0c-0.2,0-0.4-0.2-0.6-0.4
			c0.1,0.1,0.3,0.1,0.4,0.1c0.3,0,0.6-0.3,0.6-0.6C447.9,347.6,447.9,347.6,447.8,347.5L447.8,347.5z M447.7,350.1
			c5.9,3.6,2.9,4.7,3.3,5.4h-6.6C445,354.7,441.5,353.8,447.7,350.1L447.7,350.1z"/>
		<path class="st13" d="M540.2,279.8h-1.3v-5.4v-3.5l-0.1,0.1l-0.2-0.1v2.9l-0.3-0.3l-0.3,0.5l-0.3,0.5l-0.3-0.5l-0.3-0.5l-0.3,0.5
			l-0.3,0.5l-0.3-0.5l-0.3-0.5l-0.3,0.5l-0.3,0.5l-0.3-0.5l-0.3-0.5l-0.3,0.5l-0.3,0.5l-0.3-0.5l-0.3-0.5l-0.3,0.5l-0.3,0.5
			l-0.4-0.5l-0.3-0.5l-0.3,0.5l-0.3,0.5l-0.3-0.5l-0.3-0.5l-0.3,0.5l-0.3,0.5l-0.3-0.5l-0.3-0.5l-0.3,0.5l-0.3,0.5l-0.3-0.5
			l-0.3-0.5l-0.3,0.5l-0.3,0.5l-0.4-0.5l-0.3-0.5l-0.3,0.5l-0.3,0.5l-0.3-0.5l-0.3-0.5l-0.4,0.5l-0.3,0.5l-0.3-0.5l-0.4-0.5
			l-0.3,0.5l-0.3,0.5l-0.3-0.5l-0.3-0.5l-0.3,0.5l-0.3,0.5l-0.3-0.5l-0.3-0.5l-0.4,0.5l-0.3,0.5l-0.3-0.5l-0.3-0.5l-0.3,0.5
			l-0.3,0.5l-0.3-0.5l-0.3-0.5l-0.3,0.5l-0.3,0.5l-0.3-0.5l-0.3-0.5l-0.3,0.5l-0.3,0.5l-0.3-0.5l-0.3-0.5l-0.3,0.4v-2.9l-0.2,0.1
			l-0.2-0.1v3.5v5.4h-1.2v-3.5l-0.1,0.2l-0.2-0.2v3.5v25.5h25.5v-25.5v-3.5l-0.2,0.2l-0.1-0.2V279.8z M540.9,389h-27v-16.1h27V389z
			 M538.3,371.6v-15.1h-1.1v15.1h-0.8v-15.1h-1.2v15.1h-0.8v-15.1h-1.1v15.1h-0.9v-15.1h-1.1v15.1h-0.9v-15.1h-1.1v15.1h-0.9v-15.1
			h-1.1v15.1h-0.9v-15.1h-1.1v15.1h-0.8v-15.1h-1.2v15.1h-0.8v-15.1h-1.1v15.1h-0.9v-15.1h-1.1v15.1h-0.9v-15.1h-1.1v15.1h-0.9
			v-31.2h23v31.2H538.3z M537.2,355.7h1.1v-14.6h-1.1V355.7z M517.1,355.7h1.1v-14.6h-1.1V355.7z M519.1,355.7h1.1v-14.6h-1.1V355.7
			z M521.1,355.7h1.1v-14.6h-1.1V355.7z M523.1,355.7h1.2v-14.6h-1.2V355.7z M525.1,355.7h1.1v-14.6h-1.1V355.7z M527.1,355.7h1.1
			v-14.6h-1.1V355.7z M529.1,355.7h1.1v-14.6h-1.1V355.7z M531.2,355.7h1.1v-14.6h-1.1V355.7z M533.2,355.7h1.1v-14.6h-1.1V355.7z
			 M535.1,355.7h1.2v-14.6h-1.2V355.7z M517.6,270.1l-0.8-0.7l-0.8,0.7l0.8,0.8L517.6,270.1z M539.5,270.1l-0.8-0.7l-0.8,0.7
			l0.8,0.8L539.5,270.1z M541.1,275.5l-0.8-0.7l-0.7,0.7l0.7,0.8L541.1,275.5z M515.9,275.5l-0.7-0.7l-0.8,0.7l0.8,0.8L515.9,275.5z
			 M516.6,269.5V269h0.4v0.5l-0.2-0.2L516.6,269.5z M538.6,269.5V269h0.4v0.5l-0.1-0.2L538.6,269.5z M515,274.9v-0.6h0.3v0.5
			l-0.1-0.1L515,274.9z M540.2,274.8v-0.5h0.3v0.6l-0.2-0.2L540.2,274.8z M522.3,265.4l-3.4,8.3l0.1,0.1l0.1,0.1l0.6-0.9l0.5,0.8
			l0.1,0.1l0.1-0.1l0.5-0.8l0.6,1l0.1-0.2l0.5-0.8l0.4,0.8l0.2,0.2l0.6-1l0.6,0.8l0.1,0.1l0.1-0.1l0.5-0.8l0.5,0.8l0.1,0.1l0.1-0.1
			l0.5-0.8l0.5,0.8l0.1,0.2l0.1-0.2l0.5-0.8l0.4,0.8l0.2,0.2l0.1-0.2l0.5-0.8l0.6,0.8l0.1,0.1l0.6-0.9l0.5,0.8l0.1,0.1l0.1-0.1
			l0.5-0.8l0.6,1l0.1-0.2l0.5-0.8l0.5,0.8l0.1,0.2l0.6-1l0.6,0.8l0.1,0.1l0.6-0.9l0.5,0.8l0.1,0.1l0.1-0.1l0.5-0.8l0.6,0.9l0.1-0.1
			l0.1-0.1l-3.4-8.3H522.3z M523.4,271.1l-0.7-1.2l-0.2-0.3l-0.9,1.5l0.3,0.1l0.6-1l0.6,1L523.4,271.1z M528.6,268.3l-0.7-1.3
			l-0.1-0.3l-0.9,1.5l0.3,0.1l0.6-1l0.6,1L528.6,268.3z M532.1,268.3l-0.8-1.3l-0.1-0.3l-0.9,1.5l0.3,0.1l0.6-1l0.6,1L532.1,268.3z
			 M533.9,271.1l-0.8-1.2l-0.1-0.3l-0.8,1.5l0.2,0.1l0.6-1l0.6,1L533.9,271.1z M530.3,271.1l-0.6-1.2l-0.2-0.3l-0.9,1.5l0.3,0.1
			l0.6-1l0.6,1L530.3,271.1z M526.8,271.1l-0.6-1.2l-0.2-0.3l-0.9,1.5l0.3,0.1l0.6-1l0.6,1L526.8,271.1z M525.5,268.3l-0.6-1.3
			l-0.2-0.3l-0.9,1.5l0.3,0.1l0.6-1l0.6,1L525.5,268.3z M520.1,275.6h-2.5v3.4h2.5V275.6z M537.6,275.6h-2.4v3.4h2.4V275.6z
			 M534.2,275.6h-2.6v3.4h2.6V275.6z M530.7,275.6h-2.6v3.4h2.6V275.6z M527.2,275.6h-2.6v3.4h2.6V275.6z M523.6,275.6h-2.5v3.4h2.5
			V275.6z M528.8,244.3h-2v-1.5h2V244.3z M522.2,255.5l-0.8-0.8l-0.8,0.8l0.8,0.8L522.2,255.5z M534.9,255.5l-0.8-0.8l-0.8,0.8
			l0.8,0.8L534.9,255.5z M533.7,258.5l-0.3,0.6l-0.3,0.6H533l-0.2-0.6l-0.3-0.6l-0.3,0.6l-0.2,0.6l0,0l-0.3-0.6l-0.3-0.6l-0.3,0.6
			l-0.3,0.6l0,0l-0.3-0.6l-0.3-0.6l-0.4,0.6l-0.3,0.6l0,0l-0.3-0.6l-0.3-0.6l-0.3,0.6l-0.2,0.6h-0.1l-0.3-0.6l-0.3-0.6l-0.4,0.6
			l-0.2,0.6h-0.1l-0.3-0.6l-0.3-0.6l-0.3,0.6l-0.2,0.6H526l-0.3-0.6l-0.3-0.6l-0.3,0.6l-0.2,0.6h-0.1l-0.3-0.6l-0.3-0.6l-0.3,0.6
			l-0.3,0.6l0,0l-0.2-0.6l-0.3-0.6l-0.3,0.6l-0.2,0.6h-0.1l-0.2-0.6l-0.4-0.6l-0.2,0.3v-2.4l-0.2,0.1l-0.2-0.1v3.2l0,0v5.4h13.1
			v-5.4l0,0v-3.2l-0.2,0.1l-0.2-0.1v2.4L533.7,258.5z M527.8,242c0,0.2-0.1,0.4-0.1,0.6h0.1C527.8,242.4,527.8,242.2,527.8,242
			L527.8,242z M527.5,244.5c-0.8,4.8-3,9.1-4.5,13.6V258l0.6,1l0.1,0.1l0.6-1.1l0.6,1l0.1,0.1l0.1-0.1l0.6-1l0.6,1.1l0.1-0.1l0.6-1
			l0.6,1.1l0.1-0.1l0.6-1l0.5,1l0.1,0.1l0.1-0.1l0.6-1l0.6,1.1l0.1-0.1l0.6-1l0.6,1.1l0.1-0.1l0.6-1l0.4,1l0.1,0.1l0.1-0.1l0.5-1
			c0.1-0.2-4.3-11.6-4.5-13.5H527.5z M528.6,251l-0.7-1.1l-0.1-0.3l-0.9,1.5l0.3,0.2l0.6-1l0.6,1L528.6,251z M526,257l-0.6-1.3
			l-0.2-0.3l-0.9,1.5l0.3,0.1l0.6-1.1l0.6,1.1L526,257z M528.6,257l-0.7-1.3l-0.1-0.3l-0.9,1.5l0.3,0.1l0.6-1.1l0.6,1.1L528.6,257z
			 M531.3,257l-0.7-1.3l-0.2-0.3l-0.9,1.5l0.3,0.1l0.6-1.1l0.6,1.1L531.3,257z M527.1,254.2l-0.7-1.3l-0.2-0.3l-0.8,1.5l0.3,0.1
			l0.6-1.1l0.6,1.1L527.1,254.2z M530.2,254.2l-0.7-1.3l-0.1-0.3l-0.9,1.5l0.2,0.1l0.7-1.1l0.6,1.1L530.2,254.2z M521.2,254.7v-0.5
			h0.4v0.5l-0.2-0.2L521.2,254.7z M533.9,254.7v-0.5h0.4v0.5l-0.2-0.2L533.9,254.7z M523.9,260.7h-2v3.5h2V260.7z M533.6,260.7h-2
			v3.5h2V260.7z M531.2,260.7h-2v3.5h2V260.7z M528.8,260.7h-2v3.5h2V260.7z M526.3,260.7h-2v3.5h2V260.7z M537.3,338.6h1.1v-15.9
			h-1.1V338.6z M517.1,338.6h1.1v-15.9h-1.1V338.6z M519.2,338.6h1.1v-15.9h-1.1V338.6z M521.2,338.6h1.1v-15.9h-1.1V338.6z
			 M523.2,338.6h1.1v-15.9h-1.1V338.6z M525.2,338.6h1.1v-15.9h-1.1V338.6z M527.2,338.6h1.2v-15.9h-1.2V338.6z M529.2,338.6h1.1
			v-15.9h-1.1V338.6z M531.2,338.6h1.1v-15.9h-1.1V338.6z M533.3,338.6h1.1v-15.9h-1.1V338.6z M535.3,338.6h1.1v-15.9h-1.1V338.6z
			 M537.3,321.9h1.1v-14.7h-1.1V321.9z M517.1,321.9h1.1v-14.7h-1.1V321.9z M519.2,321.9h1.1v-14.7h-1.1V321.9z M521.2,321.9h1.1
			v-14.7h-1.1V321.9z M523.2,321.9h1.1v-14.7h-1.1V321.9z M525.2,321.9h1.1v-14.7h-1.1V321.9z M527.2,321.9h1.2v-14.7h-1.2V321.9z
			 M529.2,321.9h1.1v-14.7h-1.1V321.9z M531.2,321.9h1.1v-14.7h-1.1V321.9z M533.3,321.9h1.1v-14.7h-1.1V321.9z M535.3,321.9h1.1
			v-14.7h-1.1V321.9z M539.3,306.6h-23v32.7h23V306.6z M519.2,303.1h-1.3v1.3h1.3V303.1z M537.6,303.1h-1.3v1.3h1.3V303.1z
			 M535.9,303.1h-1.3v1.3h1.3V303.1z M534.2,303.1h-1.3v1.3h1.3V303.1z M532.6,303.1h-1.3v1.3h1.3V303.1z M530.9,303.1h-1.3v1.3h1.3
			V303.1z M529.2,303.1h-1.3v1.3h1.3V303.1z M527.5,303.1h-1.3v1.3h1.3V303.1z M525.9,303.1h-1.3v1.3h1.3V303.1z M524.2,303.1h-1.3
			v1.3h1.3V303.1z M522.6,303.1h-1.3v1.3h1.3V303.1z M520.9,303.1h-1.3v1.3h1.3V303.1z M527.8,293.3c-0.1,0-0.3-0.1-0.4-0.1
			l-0.5,0.5c-0.1,0.3-0.1,0.5-0.2,0.6c-0.1,0.1-0.2,0.1-0.3,0c-0.1-0.2-0.1-0.2-0.3-0.4c-0.1-0.1-0.1-0.2,0-0.3
			c0.1-0.1,0.3-0.2,0.6-0.2l0.6-0.5c-0.1-0.1-0.1-0.3-0.1-0.4c0-0.1,0-0.1,0-0.2l-5-5.4c0,0,0-0.1,0-0.1h0.1c0-0.1,0.1-0.1,0.1,0
			l5.3,5c0.1-0.1,0.2-0.1,0.4-0.1c0.1,0,0.3,0.1,0.5,0.1l0.8-0.8c-0.1,0-0.1-0.1-0.1-0.1c-0.1-0.1-0.1-0.3,0-0.3
			c0.1-0.1,0.5-0.2,0.8-0.2l0.1-0.1v-0.4h0.5v0.4h-0.3l-0.2,0.2c0,0.3,0,0.7-0.1,0.8c-0.1,0.1-0.3,0.1-0.4,0
			c-0.1-0.1-0.1-0.1-0.1-0.1l-0.8,0.8c0.1,0.1,0.1,0.3,0.1,0.4c0,0.1-0.1,0.2-0.1,0.3c0.2,0.3,0.6,0.6,1,0.8c0,0,0.1,0,0.1,0.1
			c0,0.1,0,0.1-0.1,0.1c-0.1,0-0.1,0.1-0.1,0.1c-0.1,0-0.1,0.1-0.1,0.1c0,0.1-0.1,0.1-0.1,0.1c-0.1,0-0.2,0-0.2,0.1
			c-0.1,0-0.1,0.1-0.1,0.1h-0.1c-0.1,0.1-0.1,0-0.1,0c-0.1-0.5-0.4-0.8-0.8-1C527.9,293.3,527.9,293.3,527.8,293.3L527.8,293.3z
			 M527.6,285.2c-0.1,0-0.4,0-0.5,0l-0.1-0.9H527c0.2,0,0.4,0,0.6,0V285.2z M526.7,285.3c-0.2,0.1-0.4,0.1-0.6,0.1l-0.2-0.9l0,0
			c0.2-0.1,0.5-0.1,0.8-0.1l0,0L526.7,285.3z M525.7,285.5c-0.1,0.1-0.3,0.1-0.5,0.1l-0.4-0.8c0.2-0.1,0.4-0.1,0.6-0.2l0,0
			L525.7,285.5z M524.9,285.8c-0.2,0.1-0.4,0.2-0.6,0.3l-0.5-0.8c0.2-0.1,0.5-0.3,0.8-0.3L524.9,285.8z M524,286.3
			c-0.1,0.1-0.3,0.2-0.4,0.3l-0.6-0.8c0.2-0.1,0.3-0.2,0.6-0.4L524,286.3z M523.3,286.8c-0.1,0.1-0.2,0.2-0.4,0.3l0.1,0.1
			c0.1-0.1,0.2-0.2,0.3-0.3h0.1l0,0l0.1-0.1c0.2-0.1,0.3-0.3,0.6-0.4l0,0h0.1l1.5,2.6c-0.1,0.1-0.3,0.1-0.3,0.2l0.1,0.1
			c0.6-0.6,1.5-0.8,2.4-0.8c1,0,2,0.4,2.7,1h0.3l0,0c-0.2-0.2-0.4-0.4-0.7-0.6l1.4-2.6h0.1l0,0c0.3,0.2,0.5,0.3,0.8,0.6l0.1,0.1l0,0
			c0.1,0.1,0.3,0.3,0.5,0.4c0.1,0.2,0.3,0.4,0.6,0.6v0.1l0.1,0.1c0.1,0.2,0.3,0.4,0.3,0.6l-2.5,1.5c-0.1-0.2-0.3-0.5-0.5-0.7v0.3
			c0.6,0.6,1,1.6,1,2.6c0,1.1-0.5,2.1-1.2,2.9c-0.8,0.7-1.7,1.2-2.8,1.2c-1.1,0-2.1-0.5-2.9-1.2c-0.8-0.8-1.2-1.7-1.2-2.9
			c0-0.9,0.3-1.7,0.8-2.4l-0.1-0.1c-0.1,0.1-0.1,0.2-0.2,0.3l-2.5-1.5c0.1-0.3,0.3-0.6,0.6-0.8v-0.1l0,0c0.1,0,0.1-0.1,0.1-0.1
			l-0.1-0.1c-0.1,0.1-0.1,0.1-0.1,0.2l-0.8-0.6c0.1-0.1,0.2-0.1,0.3-0.3v-0.1c0,0,0-0.1,0-0.1v-0.1l0.2-0.1c0.1-0.1,0.2-0.1,0.4-0.1
			c0.1-0.1,0.3-0.2,0.5-0.3l0,0L523.3,286.8z M522.1,288L522.1,288l-0.7-0.6l0,0l0,0L522.1,288L522.1,288z M521.9,288.2
			c-0.1,0.1-0.3,0.4-0.3,0.6l-0.4-0.3l-0.4-0.2l0,0c0.1-0.2,0.3-0.5,0.4-0.6h0.1L521.9,288.2z M521.4,289c-0.1,0.1-0.1,0.3-0.2,0.5
			l-0.9-0.4c0.1-0.1,0.2-0.3,0.3-0.5l0,0L521.4,289z M521,289.8c-0.1,0.2-0.1,0.4-0.2,0.6l-0.8-0.3h-0.1c0.1-0.3,0.2-0.5,0.3-0.8
			l0,0L521,289.8z M520.8,290.6L520.8,290.6l-0.8-0.2l0,0l0,0L520.8,290.6z M520.7,290.8c-0.1,0.1-0.1,0.3-0.1,0.5l-0.9-0.1
			c0.1-0.2,0.1-0.4,0.1-0.6v0.1L520.7,290.8z M520.5,291.4L520.5,291.4l-0.8-0.1l0,0v-0.1L520.5,291.4z M520.5,291.7
			c-0.1,0.2-0.1,0.4-0.1,0.6h-0.9c0-0.3,0-0.5,0.1-0.8L520.5,291.7z M520.5,292.7c0,0.1,0,0.3,0.1,0.5l-1,0.1l0,0c0-0.2,0-0.3,0-0.6
			H520.5z M520.5,293.5c0.1,0.2,0.1,0.5,0.1,0.7l-0.9,0.2l0,0c-0.1-0.3-0.1-0.5-0.1-0.8l0,0L520.5,293.5z M520.8,294.4L520.8,294.4
			L520.8,294.4l-0.8,0.2l0,0L520.8,294.4z M520.8,294.6c0.1,0.1,0.1,0.3,0.2,0.4l-0.9,0.3v0.1c-0.1-0.2-0.1-0.4-0.2-0.6h0.1
			L520.8,294.6z M521,295.2L521,295.2L521,295.2l-0.8,0.3l0,0v-0.1L521,295.2z M521.1,295.3c0.1,0.2,0.1,0.4,0.3,0.6l-0.8,0.5l0,0
			c-0.1-0.2-0.2-0.5-0.3-0.7l0.1-0.1L521.1,295.3z M521.6,296.3c0.1,0.1,0.1,0.3,0.3,0.3l-0.8,0.6l0,0c-0.1-0.1-0.2-0.3-0.3-0.5l0,0
			L521.6,296.3z M522.1,297c0.1,0.2,0.3,0.4,0.4,0.6l-0.6,0.7h-0.1c-0.1-0.2-0.3-0.4-0.5-0.6l0,0L522.1,297z M522.8,297.8
			c0.1,0.1,0.2,0.2,0.3,0.3l-0.6,0.8h-0.1c-0.1-0.1-0.3-0.3-0.4-0.4l0,0L522.8,297.8z M523.4,298.4c0.2,0.1,0.3,0.2,0.6,0.3
			l-0.4,0.8h-0.1c-0.2-0.1-0.4-0.3-0.6-0.5l0,0L523.4,298.4z M524.3,298.9c0.1,0.1,0.3,0.1,0.4,0.2l-0.3,0.8
			c-0.2-0.1-0.4-0.1-0.6-0.3l0,0L524.3,298.9z M525.1,299.3c0.2,0.1,0.4,0.1,0.6,0.2l-0.2,0.9l0,0c-0.3-0.1-0.6-0.1-0.8-0.2
			L525.1,299.3z M525.9,299.5L525.9,299.5L525.9,299.5l-0.1,0.8l0,0h-0.1L525.9,299.5z M526.1,299.6c0.1,0,0.3,0.1,0.5,0.1l-0.1,0.9
			l0,0c-0.2,0-0.4-0.1-0.6-0.1l0,0L526.1,299.6z M526.7,299.7L526.7,299.7l-0.1,0.8l0,0L526.7,299.7z M526.9,299.7
			c0.2,0,0.5,0.1,0.7,0.1v0.9c-0.3,0-0.6,0-0.8-0.1l0,0L526.9,299.7z M527.9,299.8c0.1,0,0.3,0,0.5-0.1l0.1,0.9v0.1
			c-0.2,0-0.4,0-0.6,0V299.8z M528.9,299.7c0.2-0.1,0.4-0.1,0.6-0.1l0.2,0.9l0,0c-0.2,0.1-0.5,0.1-0.8,0.1l0,0L528.9,299.7z
			 M529.7,299.5L529.7,299.5l0.2,0.8l0,0h-0.1L529.7,299.5L529.7,299.5z M529.8,299.5c0.1,0,0.3-0.1,0.5-0.1l0.3,0.8v0.1
			c-0.2,0.1-0.3,0.1-0.6,0.1l0,0L529.8,299.5z M530.5,299.3L530.5,299.3l0.3,0.8l0,0L530.5,299.3z M530.7,299.2
			c0.2-0.1,0.4-0.2,0.6-0.3l0.5,0.8v0.1c-0.2,0.1-0.5,0.2-0.7,0.3V300L530.7,299.2z M531.6,298.7c0.1-0.1,0.3-0.1,0.4-0.3l0.6,0.8
			c-0.1,0.1-0.3,0.2-0.5,0.3l0,0L531.6,298.7z M532.1,298.4L532.1,298.4L532.1,298.4l0.5,0.6l0,0L532.1,298.4z M532.3,298.2
			c0.2-0.1,0.3-0.3,0.5-0.4l0.7,0.6l0,0c-0.2,0.2-0.4,0.4-0.6,0.6l0,0L532.3,298.2z M533,297.5c0.1-0.1,0.2-0.3,0.3-0.3l0.8,0.6
			c-0.1,0.1-0.2,0.3-0.3,0.4L533,297.5z M533.6,296.8c0.1-0.1,0.3-0.3,0.3-0.6l0.8,0.5c-0.1,0.3-0.3,0.5-0.4,0.7h-0.1L533.6,296.8z
			 M534.2,296c0.1-0.1,0.1-0.3,0.2-0.4l0.9,0.3c-0.1,0.2-0.2,0.4-0.3,0.6h-0.1L534.2,296z M534.5,295.2c0.1-0.2,0.2-0.4,0.2-0.6
			l0.9,0.2h0.1c-0.1,0.3-0.2,0.6-0.3,0.8L534.5,295.2z M534.9,294.2c0-0.1,0.1-0.3,0.1-0.5l1,0.1c-0.1,0.1-0.1,0.3-0.1,0.6l0,0
			L534.9,294.2z M535,293.5L535,293.5l0.8,0.1l0,0h-0.1L535,293.5z M535,293.3c0.1-0.2,0.1-0.4,0.1-0.6h0.9c0,0.3,0,0.5-0.1,0.8
			L535,293.3z M535.1,292.3c0-0.1,0-0.3-0.1-0.4l1-0.1l0,0c0,0.1,0,0.3,0,0.6H535.1z M535,291.7L535,291.7L535,291.7l0.8-0.1l0,0
			v0.1L535,291.7z M535,291.4c-0.1-0.2-0.1-0.4-0.1-0.6l0.9-0.2v-0.1c0.1,0.3,0.1,0.6,0.1,0.8l0,0L535,291.4z M534.8,290.5
			c-0.1-0.2-0.1-0.3-0.2-0.5l0.9-0.3l0,0c0.1,0.2,0.1,0.3,0.1,0.6l0,0L534.8,290.5z M534.5,289.8L534.5,289.8l0.8-0.3l0,0v0.1
			L534.5,289.8z M534.4,289.6c-0.1-0.2-0.1-0.4-0.3-0.6l0.8-0.4h0.1c0.1,0.2,0.2,0.5,0.4,0.7L534.4,289.6z M534,288.7
			c-0.1-0.1-0.1-0.3-0.2-0.4l0.7-0.6c0.1,0.1,0.3,0.3,0.3,0.5L534,288.7z M533.5,287.9c-0.1-0.1-0.3-0.3-0.4-0.5l0.7-0.6
			c0.1,0.2,0.3,0.4,0.5,0.6v0.1L533.5,287.9z M532.8,287.3c-0.1-0.1-0.2-0.3-0.4-0.3l0.6-0.8c0.1,0.1,0.3,0.3,0.5,0.4L532.8,287.3z
			 M532.3,286.8L532.3,286.8l0.6-0.6l0,0L532.3,286.8L532.3,286.8z M532.1,286.7c-0.2-0.1-0.3-0.3-0.6-0.4l0.5-0.8
			c0.2,0.1,0.4,0.3,0.6,0.4L532.1,286.7z M531.2,286.1c-0.1-0.1-0.3-0.2-0.4-0.3l0.3-0.8l0,0c0.2,0.1,0.3,0.1,0.6,0.3L531.2,286.1z
			 M530.5,285.7c-0.2-0.1-0.4-0.1-0.6-0.2l0.3-0.9l0,0c0.2,0.1,0.5,0.2,0.7,0.3l0,0L530.5,285.7z M529.5,285.4
			c-0.1-0.1-0.3-0.1-0.5-0.1l0.1-0.9c0.2,0.1,0.4,0.1,0.6,0.1l0,0L529.5,285.4z M528.9,285.3L528.9,285.3L528.9,285.3l0.1-0.8l0,0
			L528.9,285.3z M528.6,285.3c-0.2-0.1-0.5-0.1-0.7-0.1v-0.9c0.3,0,0.6,0,0.8,0L528.6,285.3z M524.4,286.3c0.2-0.1,0.3-0.2,0.6-0.3
			h0.1l0.2-0.1l0,0c0.2-0.1,0.3-0.1,0.6-0.2h0.1l0.1-0.1h0.1c0.2-0.1,0.4-0.1,0.6-0.1l0,0h0.1h0.2h0.1v-0.1c0.1,0,0.3,0,0.5,0v2.9
			c-0.6,0.1-1.3,0.2-1.7,0.5L524.4,286.3z M527.9,285.4c0.2,0,0.4,0,0.6,0.1l0,0h0.1h0.2h0.1c0.2,0.1,0.3,0.1,0.5,0.1l0,0h0.1
			l0.2,0.1h0.1c0.2,0.1,0.4,0.1,0.6,0.2v0.1h0.1c0.1,0,0.1,0.1,0.2,0.1l0,0l0.1,0.1l0,0c0.1,0,0.3,0.1,0.4,0.2l-1.5,2.5
			c-0.6-0.3-1.1-0.4-1.7-0.5V285.4z M534,289.1c0.1,0.2,0.2,0.4,0.3,0.6l0,0l0.1,0.1c0,0.1,0,0.1,0.1,0.1v0.1l0,0
			c0.1,0.2,0.1,0.5,0.2,0.8l0,0l0,0c0.1,0.5,0.2,1,0.2,1.5h-2.9c0-0.6-0.2-1.3-0.4-1.7L534,289.1z M534.9,292.7c0,0.2,0,0.4-0.1,0.6
			l0,0l0,0c0,0.3-0.1,0.6-0.1,0.8l0,0l0,0c-0.1,0.6-0.4,1.2-0.6,1.7l-2.6-1.5c0.3-0.6,0.4-1.1,0.5-1.7H534.9z M533.8,296.2
			c-0.1,0.2-0.2,0.4-0.3,0.6l-0.1,0.1l-0.1,0.1l0,0c-0.1,0.1-0.2,0.3-0.3,0.3l-0.1,0.1l-0.1,0.1l0,0l-0.1,0.1h0.1
			c-0.2,0.1-0.4,0.3-0.5,0.4h-0.1v0.1l-0.1,0.1c-0.2,0.1-0.3,0.2-0.6,0.3L530,296c0.2-0.1,0.5-0.3,0.7-0.6c0.2-0.2,0.4-0.4,0.6-0.7
			L533.8,296.2L533.8,296.2L533.8,296.2z M531.2,298.8c-0.1,0.1-0.3,0.2-0.6,0.3V299l-0.1,0.1l-0.1,0.1l-0.1,0.1l0,0l0,0
			c-0.1,0-0.3,0.1-0.4,0.1l0,0h-0.1c-0.1,0-0.2,0.1-0.3,0.1h-0.1l0,0c-0.3,0.1-0.5,0.1-0.8,0.1h-0.1l0,0c-0.2,0.1-0.3,0.1-0.6,0.1
			v-2.9c0.6-0.1,1.2-0.2,1.7-0.5L531.2,298.8z M527.6,299.6c-0.2,0-0.4,0-0.6-0.1l0,0l0,0c-0.1,0-0.1,0-0.2,0h-0.1h-0.1
			c-0.2-0.1-0.3-0.1-0.5-0.1l0,0l0,0c-0.3-0.1-0.7-0.2-1-0.3H525l0,0c-0.2-0.1-0.4-0.2-0.6-0.3l1.5-2.6c0.6,0.3,1.1,0.4,1.7,0.5
			V299.6z M524,298.6c-0.1-0.1-0.3-0.2-0.6-0.3h0.1l-0.1-0.1l-0.2-0.1V298h-0.1l0,0c-0.1-0.1-0.2-0.2-0.3-0.3h0.1l-0.1-0.1l-0.1-0.1
			l-0.1-0.1c-0.1-0.1-0.3-0.3-0.4-0.5h0.1h-0.1l-0.1-0.2l-0.1-0.1c-0.1-0.1-0.1-0.3-0.2-0.4l0,0l0,0h-0.1l2.6-1.5
			c0.2,0.3,0.3,0.5,0.6,0.7c0.2,0.2,0.4,0.4,0.7,0.6L524,298.6L524,298.6L524,298.6z M521.5,295.9c-0.1-0.2-0.2-0.4-0.3-0.7l0,0
			h-0.1c-0.1-0.2-0.1-0.5-0.2-0.7l0,0l0,0c-0.1-0.1-0.1-0.2-0.1-0.3l0,0l0,0c-0.1-0.5-0.2-1-0.2-1.5h2.9c0,0.6,0.2,1.2,0.5,1.7
			L521.5,295.9z M520.7,292.3c0-0.2,0-0.5,0.1-0.7l0,0l0,0c0-0.1,0-0.2,0-0.3l0,0l0,0c0.1-0.1,0.1-0.3,0.1-0.5l0,0l0,0
			c0-0.1,0-0.2,0.1-0.3v-0.1l0,0c0.1-0.2,0.1-0.4,0.2-0.6l0,0l0.1-0.1v-0.1c0-0.1,0.1-0.1,0.1-0.1l0,0l0,0c0.1-0.1,0.1-0.3,0.2-0.4
			l2.6,1.5c-0.3,0.6-0.5,1.1-0.5,1.7H520.7z M537.2,283h-9.4c5.2,0,9.4,4.3,9.4,9.5V283z M529.8,284.6L529.8,284.6L529.8,284.6
			l-0.1,0.8L529.8,284.6z M533.5,286.8L533.5,286.8L533.5,286.8l-0.5,0.6l-0.1-0.1L533.5,286.8z M535.6,290.4L535.6,290.4
			L535.6,290.4l-0.8,0.2L535.6,290.4z M535.6,294.6L535.6,294.6L535.6,294.6l-0.8-0.2l0,0L535.6,294.6z M533.5,298.2L533.5,298.2
			L533.5,298.2l-0.6-0.6h0.1L533.5,298.2z M522.1,298.3L522.1,298.3L522.1,298.3l0.5-0.6h0.1L522.1,298.3z M525.6,284.6L525.6,284.6
			L525.6,284.6l0.2,0.8L525.6,284.6z M531,285L531,285l-0.3,0.8L531,285z M534.3,287.6L534.3,287.6l-0.7,0.6v-0.1L534.3,287.6z
			 M535.3,295.7L535.3,295.7L535.3,295.7l-0.8-0.3l0,0L535.3,295.7z M534.2,297.5L534.2,297.5L534.2,297.5l-0.7-0.5L534.2,297.5z
			 M528.7,300.6L528.7,300.6l-0.1-0.8L528.7,300.6z M524.6,300L524.6,300L524.6,300l0.3-0.8L524.6,300z M522.7,298.9L522.7,298.9
			L522.7,298.9l0.6-0.7L522.7,298.9z M521.2,297.4L521.2,297.4L521.2,297.4l0.7-0.5L521.2,297.4z M519.7,293.5L519.7,293.5l0.8-0.1
			L519.7,293.5z M520.3,289.3L520.3,289.3l0.8,0.3L520.3,289.3z M522.9,286L522.9,286L522.9,286l0.5,0.6v0.1L522.9,286z
			 M524.7,284.9L524.7,284.9L524.7,284.9l0.4,0.8l-0.1,0.1L524.7,284.9z M526.8,284.5L526.8,284.5l0.1,0.8L526.8,284.5z M527.8,283
			h-9.5v9.5C518.3,287.3,522.6,283,527.8,283L527.8,283z M518.3,292.5v9.5h9.5C522.6,302,518.3,297.7,518.3,292.5L518.3,292.5z
			 M527.8,302h9.4v-9.5C537.2,297.7,533,302,527.8,302L527.8,302z M527.8,301.5c-5,0-9-4-9-9c0-4.9,4-8.9,9-8.9c4.9,0,8.9,4,8.9,8.9
			C536.7,297.4,532.7,301.5,527.8,301.5L527.8,301.5z M535.8,300.9c-0.4,0-0.7-0.3-0.7-0.8c0-0.3,0.3-0.6,0.7-0.6
			c0.3,0,0.7,0.3,0.7,0.6C536.5,300.7,536.1,300.9,535.8,300.9L535.8,300.9z M535.8,285.3c-0.4,0-0.7-0.3-0.7-0.7
			c0-0.4,0.3-0.7,0.7-0.7c0.3,0,0.7,0.3,0.7,0.7C536.5,284.9,536.1,285.3,535.8,285.3L535.8,285.3z M519.9,285.3
			c-0.4,0-0.7-0.3-0.7-0.7c0-0.4,0.3-0.7,0.7-0.7c0.4,0,0.7,0.3,0.7,0.7C520.6,284.9,520.3,285.3,519.9,285.3L519.9,285.3z
			 M519.9,300.9c-0.4,0-0.7-0.3-0.7-0.8c0-0.3,0.3-0.6,0.7-0.6c0.4,0,0.7,0.3,0.7,0.6C520.6,300.7,520.3,300.9,519.9,300.9
			L519.9,300.9z M537.5,282.7v19.5H518v-19.5H537.5z M537.6,280.6h-1.3v1.4h1.3V280.6z M519.2,280.6h-1.3v1.4h1.3V280.6z
			 M520.9,280.6h-1.3v1.4h1.3V280.6z M522.6,280.6h-1.3v1.4h1.3V280.6z M524.2,280.6h-1.3v1.4h1.3V280.6z M525.9,280.6h-1.3v1.4h1.3
			V280.6z M527.5,280.6h-1.3v1.4h1.3V280.6z M529.2,280.6h-1.3v1.4h1.3V280.6z M530.9,280.6h-1.3v1.4h1.3V280.6z M532.6,280.6h-1.3
			v1.4h1.3V280.6z M534.2,280.6h-1.3v1.4h1.3V280.6z M535.9,280.6h-1.3v1.4h1.3V280.6z M517.1,304.3h0.3v-23.7h-0.3V304.3z
			 M515.7,304.3h0.3v-23.7h-0.3V304.3z M516.4,304.3h0.3v-23.7h-0.3V304.3z M538.1,304.3h0.4v-23.7h-0.4V304.3z M539.5,304.3h0.3
			v-23.7h-0.3V304.3z M538.8,304.3h0.3v-23.7h-0.3V304.3z"/>
		<path class="st13" d="M797.5,302.2v-1l-2.9-1.4v4.8L797.5,302.2z M734.5,276.2h20.9v6.1h-20.9V276.2z M755.4,283.3v9.3h-20.9v-9.3
			H755.4z M755.4,294v16.7h-20.9V294H755.4z M739.8,278.1h3.6v0.8h-3.6V278.1z M752,286.3v4.3h-3.4v-4.3c0-0.8,0.8-1.4,1.7-1.4
			C751.3,284.9,752,285.5,752,286.3L752,286.3z M746.7,286.3v4.3h-3.4v-4.3c0-0.8,0.7-1.4,1.7-1.4
			C745.9,284.9,746.7,285.5,746.7,286.3L746.7,286.3z M741.3,286.3v4.3H738v-4.3c0-0.8,0.7-1.4,1.7-1.4
			C740.6,284.9,741.3,285.5,741.3,286.3L741.3,286.3z M746.6,298.7h3.6v0.7h-3.6V298.7z M742.2,298.8h3.6v0.7h-3.6V298.8z
			 M744.7,299.7h3.6v0.8h-3.6V299.7z M746.8,301.1h3.6v0.8h-3.6V301.1z M742.6,301.1h3.6v0.8h-3.6V301.1z M739.9,308.2h3.5v0.8h-3.5
			V308.2z M738.1,307.3h3.6v0.8h-3.6V307.3z M736.4,306.3h3.6v0.7h-3.6V306.3z M749.9,306.1h3.6v0.8h-3.6V306.1z M747.9,277.3h3.6
			v0.8h-3.6V277.3z M742.3,279.9h3.6v0.8h-3.6V279.9z M707.2,330.5h35.3v27.6h-35.3V330.5z M742.5,359.4V389h-35.3v-29.6H742.5z
			 M733.2,381.2h6v1.3h-6V381.2z M727.5,368.6h6v1.3h-6V368.6z M720.2,368.9h6v1.3h-6V368.9z M724.4,370.5h6v1.3h-6V370.5z
			 M727.9,372.7h6v1.3h-6V372.7z M720.8,372.7h5.9v1.3h-5.9V372.7z M716.1,384.8h6v1.3h-6V384.8z M713.2,383.2h6v1.3h-6V383.2z
			 M710.3,381.5h6v1.3h-6V381.5z M718.6,347.6v7.2h-5.7v-7.2c0-1.3,1.3-2.4,2.9-2.4C717.3,345.2,718.6,346.3,718.6,347.6
			L718.6,347.6z M736.9,347.6v7.2h-5.7v-7.2c0-1.3,1.2-2.4,2.8-2.4C735.5,345.2,736.9,346.3,736.9,347.6L736.9,347.6z M727.7,347.6
			v7.2h-5.7v-7.2c0-1.3,1.3-2.4,2.8-2.4C726.5,345.2,727.7,346.3,727.7,347.6L727.7,347.6z M716,333.8h6v1.3h-6V333.8z M729.8,332.3
			h6v1.3h-6V332.3z M720.3,336.7h6v1.3h-6V336.7z M707.2,340h35.3v1.3h-35.3V340z M745,261.8l-7,5.9h14.4L745,261.8z M751,267.9v7.8
			h-11.5v-7.8H751z M744,270.9h2.4v-2.3H744V270.9z M805,296.2l-9.8,8.3h20.4L805,296.2z M813.3,305.1v11.1h6.2v48.2h-29.2v-48.2
			h7.1v-11.1H813.3z M803.5,308.8h3.3v-3.3h-3.3V308.8z M797.6,318.9h5v1h-5V318.9z M814.8,330.3v5.9h-4.7v-5.9c0-1.1,1-2,2.3-2
			C813.7,328.3,814.8,329.2,814.8,330.3L814.8,330.3z M807.3,330.3v5.9h-4.7v-5.9c0-1.1,1-2,2.3-2
			C806.2,328.3,807.3,329.2,807.3,330.3L807.3,330.3z M799.8,330.3v5.9h-4.7v-5.9c0-1.1,1-2,2.3-2
			C798.7,328.3,799.8,329.2,799.8,330.3L799.8,330.3z M807.1,347.6h5v1h-5V347.6z M801,347.8h5v1h-5V347.8z M804.5,349.1h5v1.1h-5
			V349.1z M807.4,351h5v1h-5V351z M801.5,351h5v1h-5V351z M797.7,361h5v1h-5V361z M795.3,359.6h5v1h-5V359.6z M792.9,358.3h5v1h-5
			V358.3z M811.8,358h5v1h-5V358z M809,317.7h5v1h-5V317.7z M801.2,321.2h5v1h-5V321.2z M790.3,324h29.2v1.4h-29.2V324z M790.3,339
			h29.2v2.9h-29.2V339z M724.9,306.4l-11.9,10h24.7L724.9,306.4z M735,316.9v12.6h-19.4v-12.6H735z M723.2,321.7h4v-4h-4V321.7z
			 M743.4,350l1-0.5v7.5l1.6-0.7v-7.5l3.4-1.6v7.5l1.5-0.8v-7.5l3.4-1.6v7.5l1.6-0.8v-7.5l3.4-1.6v7.5l1.5-0.8v-7.5l3.3-1.6v7.5
			l1.6-0.7v-7.5l3.3-1.6v7.5l1.5-0.7V337l3.3-1.7v7.5l1.6-0.7v-7.5l3.3-1.6v7.5l1.6-0.8v-7.5l3.4-1.6v7.5l1.5-0.8v-7.5l3.4-1.6v7.5
			l0.7-0.3v25.1l-45.9,22.1V350z M794.7,304.6v1.5l-1.3-0.6v-6.4l-2.9-1.4v6.5l-1.3-0.7v-6.4l-2.9-1.4v6.5l-1.4-0.7v-6.4l-2.8-1.4
			v6.5l-1.4-0.7V293l-2.9-1.3v6.4l-1.3-0.6V291l-2.9-1.4v6.4l-1.3-0.6V289l-2.9-1.4v6.4l-1.3-0.6V287l-2.9-1.4v6.4l-1.3-0.6v-6.4
			l-2.9-1.4v6.4l-1.4-0.6v-6.4l-2.8-1.4v6.4l-0.3-0.1v21.6l33,15.8v-10.1h7.4v-10.6H794.7z"/>
		<path class="st13" d="M416.5,274.8l-1.1,10.5l-37.1-4l1.1-10.5L416.5,274.8z M386.9,370.4c19.3,0,36,7.7,42.8,18.6H344
			C350.9,378.1,367.5,370.4,386.9,370.4L386.9,370.4z M370.5,342.1l39.4,4.3l-0.2,2.4l-39.4-4.3L370.5,342.1z M385.7,254.2l28.3,3.1
			l0.2-2.1l-28.3-3.1L385.7,254.2z M378.6,267.2l39.4,4.3l-0.3,2.4l-39.4-4.3L378.6,267.2z M377,282.2l39.4,4.3l-0.2,2.4l-39.4-4.3
			L377,282.2z M375.4,297.2l39.4,4.3l-0.3,2.4l-39.4-4.3L375.4,297.2z M373.8,312.1l39.4,4.3l-0.3,2.4l-39.4-4.3L373.8,312.1z
			 M372.1,327.1l39.4,4.3l-0.3,2.4l-39.4-4.3L372.1,327.1z M410.3,269.9l1.3-12l-23.8-2.6l-1.3,12L410.3,269.9z M394.1,261.3
			l-0.4,4.3l-4.1-0.4l0.4-4.3c0.1-1.2,1.2-2.1,2.3-2C393.4,259.1,394.3,260.1,394.1,261.3L394.1,261.3z M408.3,262.9l-0.5,4.3
			l-4.1-0.5l0.5-4.3c0.1-1.2,1.2-2,2.3-1.9C407.6,260.6,408.4,261.6,408.3,262.9L408.3,262.9z M401.3,262.1l-0.5,4.3l-4.1-0.5
			l0.5-4.3c0.1-1.2,1.1-2.1,2.3-1.9C400.6,259.8,401.3,260.9,401.3,262.1L401.3,262.1z M383.2,273.3l-0.8,6.9l-2.4-0.3l0.8-6.9
			c0.1-0.6,0.6-1,1.3-0.9C382.8,272.2,383.3,272.7,383.2,273.3L383.2,273.3z M407.2,337.2L407.2,337.2l-0.8,6.9l-2.4-0.3l0.8-6.9
			c0.1-0.6,0.6-1,1.3-0.9C406.7,336.1,407.2,336.6,407.2,337.2L407.2,337.2z M403.8,336.7L403.8,336.7l-0.8,7l-2.4-0.3l0.8-6.9
			c0.1-0.6,0.6-1,1.3-0.9C403.4,335.7,403.8,336.3,403.8,336.7L403.8,336.7z M400.4,336.5L400.4,336.5l-0.8,6.8l-2.4-0.2l0.7-7
			c0.1-0.6,0.7-0.9,1.4-0.8C399.9,335.3,400.4,335.8,400.4,336.5L400.4,336.5z M397,336L397,336l-0.8,6.9l-2.4-0.3l0.8-6.9
			c0.1-0.6,0.6-0.9,1.3-0.9C396.6,335,397.1,335.5,397,336L397,336z M393.6,335.6L393.6,335.6l-0.8,7l-2.4-0.3l0.7-6.9
			c0.1-0.6,0.7-1,1.3-0.9C393.2,334.6,393.6,335.1,393.6,335.6L393.6,335.6z M390.2,335.3L390.2,335.3l-0.8,6.8L387,342l0.7-7
			c0.1-0.6,0.7-0.9,1.4-0.8C389.8,334.2,390.3,334.7,390.2,335.3L390.2,335.3z M386.8,334.9L386.8,334.9l-0.8,6.9l-2.4-0.3l0.8-6.8
			c0.1-0.6,0.7-1,1.3-1C386.4,333.9,386.9,334.4,386.8,334.9L386.8,334.9z M383.4,334.6L383.4,334.6l-0.7,6.9l-2.5-0.3l0.8-6.9
			c0.1-0.6,0.7-1,1.4-0.9C383,333.5,383.5,334,383.4,334.6L383.4,334.6z M380,334.2L380,334.2l-0.8,6.9l-2.4-0.3l0.8-6.9
			c0.1-0.6,0.7-1,1.3-0.9C379.5,333.1,380.1,333.6,380,334.2L380,334.2z M376.6,333.8L376.6,333.8l-0.7,6.9l-2.5-0.3l0.8-6.8
			c0.1-0.6,0.6-1,1.3-1C376.2,332.8,376.7,333.3,376.6,333.8L376.6,333.8z M408.8,322L408.8,322l-0.7,6.9l-2.5-0.3l0.8-6.9
			c0.1-0.6,0.6-0.9,1.3-0.9C408.4,321,408.9,321.5,408.8,322L408.8,322z M405.4,321.7L405.4,321.7l-0.8,6.9l-2.4-0.3l0.8-6.9
			c0.1-0.6,0.6-1,1.3-0.9C405,320.5,405.4,321.1,405.4,321.7L405.4,321.7z M402,321.3L402,321.3l-0.8,6.9l-2.4-0.3l0.8-7
			c0.1-0.5,0.6-0.9,1.3-0.8C401.6,320.2,402.1,320.7,402,321.3L402,321.3z M398.7,320.9L398.7,320.9l-0.8,6.9l-2.4-0.2l0.7-6.9
			c0.1-0.6,0.7-1,1.4-1C398.2,319.9,398.7,320.3,398.7,320.9L398.7,320.9z M395.3,320.5L395.3,320.5l-0.8,6.9l-2.4-0.3l0.8-6.9
			c0.1-0.6,0.6-1,1.3-0.9C394.8,319.4,395.3,320,395.3,320.5L395.3,320.5z M391.8,320.2L391.8,320.2l-0.8,6.9l-2.4-0.3l0.7-7
			c0.1-0.5,0.7-0.9,1.3-0.8C391.4,319.1,391.9,319.6,391.8,320.2L391.8,320.2z M388.5,319.8L388.5,319.8l-0.8,6.9l-2.4-0.2l0.8-6.9
			c0-0.6,0.6-1,1.3-1C388.1,318.7,388.6,319.2,388.5,319.8L388.5,319.8z M385.1,319.4L385.1,319.4l-0.8,6.9l-2.4-0.3l0.7-6.9
			c0.1-0.6,0.7-1,1.3-0.8C384.6,318.3,385.1,318.9,385.1,319.4L385.1,319.4z M381.6,319.1L381.6,319.1l-0.7,6.9l-2.5-0.3l0.8-7
			c0.1-0.5,0.7-0.9,1.4-0.8C381.2,318,381.8,318.5,381.6,319.1L381.6,319.1z M378.3,318.7L378.3,318.7l-0.8,6.9l-2.4-0.2l0.8-6.9
			c0.1-0.6,0.7-1,1.3-1C377.8,317.6,378.4,318.1,378.3,318.7L378.3,318.7z M410.5,306.9L410.5,306.9l-0.8,6.9l-2.4-0.2l0.8-7
			c0.1-0.6,0.6-0.9,1.3-0.8C410,305.8,410.5,306.3,410.5,306.9L410.5,306.9z M407.1,306.5L407.1,306.5l-0.7,6.9l-2.5-0.3l0.8-6.9
			c0.1-0.6,0.7-1,1.3-0.9C406.6,305.4,407.1,306,407.1,306.5L407.1,306.5z M403.7,306.2L403.7,306.2l-0.8,6.9l-2.4-0.3l0.8-6.9
			c0.1-0.6,0.6-1,1.3-0.9C403.2,305.1,403.7,305.5,403.7,306.2L403.7,306.2z M400.3,305.7L400.3,305.7l-0.8,6.9l-2.4-0.2l0.8-6.9
			c0.1-0.6,0.6-1,1.3-0.9C399.9,304.7,400.4,305.2,400.3,305.7L400.3,305.7z M396.9,305.4L396.9,305.4l-0.8,6.9l-2.4-0.3l0.7-6.9
			c0.1-0.6,0.7-1,1.4-0.9C396.4,304.3,396.9,304.8,396.9,305.4L396.9,305.4z M393.5,305.1L393.5,305.1l-0.8,6.9l-2.4-0.3l0.8-6.9
			c0.1-0.6,0.6-1,1.3-0.9C393.1,303.9,393.6,304.5,393.5,305.1L393.5,305.1z M390.1,304.7L390.1,304.7l-0.8,6.8l-2.4-0.2l0.7-6.9
			c0.1-0.6,0.7-1,1.4-0.9C389.7,303.6,390.2,304.1,390.1,304.7L390.1,304.7z M386.7,304.3L386.7,304.3l-0.8,6.9l-2.4-0.3l0.8-6.9
			c0-0.6,0.6-1,1.3-0.8C386.3,303.2,386.8,303.7,386.7,304.3L386.7,304.3z M383.3,303.9L383.3,303.9l-0.8,6.9l-2.4-0.3l0.7-6.9
			c0.1-0.6,0.7-1,1.3-0.9C382.9,302.8,383.4,303.4,383.3,303.9L383.3,303.9z M380,303.6L380,303.6l-0.8,6.8l-2.5-0.2l0.8-6.9
			c0.1-0.6,0.7-1,1.4-0.9C379.5,302.5,380,303,380,303.6L380,303.6z M412.1,291.8L412.1,291.8l-0.7,6.8l-2.4-0.2l0.8-7
			c0-0.6,0.6-0.9,1.3-0.8C411.7,290.7,412.2,291.2,412.1,291.8L412.1,291.8z M408.7,291.4L408.7,291.4l-0.8,6.9l-2.4-0.3l0.8-6.8
			c0.1-0.6,0.6-1,1.3-1C408.2,290.3,408.8,290.8,408.7,291.4L408.7,291.4z M405.3,291L405.3,291l-0.7,7l-2.5-0.3l0.8-6.9
			c0-0.6,0.6-1,1.3-0.8C404.9,289.9,405.4,290.5,405.3,291L405.3,291z M402,290.7L402,290.7l-0.8,6.9l-2.4-0.3l0.8-7
			c0.1-0.5,0.6-0.9,1.3-0.8C401.5,289.6,402,290,402,290.7L402,290.7z M398.5,290.3L398.5,290.3l-0.8,6.9l-2.4-0.3l0.8-6.8
			c0.1-0.6,0.6-1,1.3-1C398.1,289.2,398.6,289.7,398.5,290.3L398.5,290.3z M395.2,289.9L395.2,289.9l-0.8,6.9l-2.4-0.3l0.7-6.9
			c0.1-0.6,0.7-1,1.4-0.8C394.7,288.8,395.2,289.3,395.2,289.9L395.2,289.9z M391.8,289.6L391.8,289.6l-0.8,6.9l-2.4-0.3l0.8-6.9
			c0.1-0.6,0.6-1,1.3-0.9C391.3,288.4,391.8,288.9,391.8,289.6L391.8,289.6z M388.3,289.1L388.3,289.1l-0.8,6.9l-2.4-0.3l0.7-6.8
			c0.1-0.6,0.7-1,1.4-1C387.9,288.1,388.4,288.6,388.3,289.1L388.3,289.1z M385,288.8L385,288.8l-0.8,6.9l-2.4-0.3l0.8-6.9
			c0.1-0.6,0.6-1,1.3-0.8C384.6,287.7,385.1,288.2,385,288.8L385,288.8z M381.6,288.4L381.6,288.4l-0.8,6.9l-2.4-0.3l0.7-6.9
			c0.1-0.6,0.7-1,1.3-0.9C381.2,287.3,381.6,287.8,381.6,288.4L381.6,288.4z M413.8,276.6L413.8,276.6l-0.8,6.9l-2.4-0.3l0.8-7
			c0.1-0.5,0.7-0.9,1.4-0.8C413.3,275.5,413.8,276,413.8,276.6L413.8,276.6z M410.3,276.2L410.3,276.2l-0.7,6.9l-2.4-0.2l0.8-6.9
			c0-0.6,0.6-1,1.3-1C409.9,275.2,410.5,275.7,410.3,276.2L410.3,276.2z M407,275.9L407,275.9l-0.8,6.9l-2.4-0.3l0.8-6.9
			c0.1-0.6,0.6-1,1.3-0.8C406.6,274.8,407.1,275.3,407,275.9L407,275.9z M403.6,275.5L403.6,275.5l-0.7,6.9l-2.5-0.3l0.8-6.9
			c0-0.6,0.6-1,1.3-0.9C403.1,274.4,403.7,274.9,403.6,275.5L403.6,275.5z M400.2,275.1L400.2,275.1l-0.8,6.9l-2.4-0.2l0.8-6.9
			c0.1-0.6,0.6-1,1.3-1C399.7,274.1,400.2,274.5,400.2,275.1L400.2,275.1z M396.8,274.8L396.8,274.8l-0.8,6.9l-2.4-0.3l0.8-6.9
			c0.1-0.6,0.6-1,1.3-0.8C396.4,273.6,396.9,274.2,396.8,274.8L396.8,274.8z M393.4,274.4L393.4,274.4l-0.8,6.9l-2.4-0.3l0.8-6.9
			c0.1-0.6,0.6-1,1.3-0.9C393,273.3,393.4,273.8,393.4,274.4L393.4,274.4z M390,274L390,274l-0.8,6.9l-2.4-0.2l0.8-6.9
			c0.1-0.6,0.6-1,1.3-0.9C389.6,272.9,390.1,273.4,390,274L390,274z M386.7,273.6L386.7,273.6l-0.8,6.9l-2.4-0.3l0.7-6.9
			c0.1-0.6,0.7-1,1.4-0.8C386.2,272.5,386.7,273.1,386.7,273.6L386.7,273.6z M414.9,289.8l-1.1,10.4l-37.1-4l1.1-10.4L414.9,289.8z
			 M413.3,304.8l-1.2,10.4l-37.1-4.1l1.2-10.4L413.3,304.8z M411.6,319.9l-1.1,10.4l-37.1-4l1.1-10.4L411.6,319.9z M410,334.8
			l-1.2,10.5l-37-4l1.1-10.5L410,334.8z M408.3,349.8l-2.4,22.1c-0.6-0.1-1.1-0.3-1.7-0.5l1.8-16.1c0.1-1.6-1.3-3-3.2-3.3
			c-2-0.2-3.6,0.9-3.8,2.6l-1.7,15.5c-0.6-0.1-1.2-0.1-1.8-0.2l1.7-15.5c0.1-1.6-1.3-3.1-3.1-3.3c-1.9-0.2-3.6,0.9-3.8,2.5
			l-1.7,15.8c-0.6-0.1-1.1-0.1-1.6-0.1h-0.2l1.7-15.9c0.1-1.6-1.3-3.1-3.1-3.3c-2-0.2-3.6,0.9-3.8,2.5l-1.8,17
			c-0.6,0.1-1.3,0.1-1.9,0.2l1.9-17.4c0.2-1.5-1.3-3.1-3.1-3.3c-1.9-0.2-3.6,0.9-3.8,2.6l-2.2,19.5c-0.7,0.1-1.5,0.3-2.2,0.6l2.8-26
			L408.3,349.8z"/>
		<path class="st13" d="M655.5,386.5l-26.7,0.3l3.6-4.3l0,0l1.3-1.5l0,0l0.8-1l0,0l1.3-1.5l0,0l0.8-1l0,0l1.3-1.5l17.7-21.2
			l17.8,20.9c-0.1,0.1-0.4,0.3-0.5,0.5l11.2-10.5v-0.3v0.3c2.2,2,4.5,3.9,6.7,5.8c1.5-2.4,4.2-5.5,7.5-5.2l0,0
			c5.8,0.2,6.6,9.1,6.6,9.1l-3.1,0.1l0.1,1.7c1.1,1.1,2,2.5,2.4,4c0.1,0.1,0.1,0.1,0.1,0.2l0.2,0.3l0.1,0.2c0.1,0.3,0.2,0.6,0.4,0.9
			l-12.4,0.1c4.1,0,8.2-0.1,12.4-0.1l-0.2-0.3L705,382l-0.1-0.2c0.1,0.3,0.2,0.6,0.4,0.9c0.1,0.4,0.6,1.6,0.7,2l6.5,0.3
			c1,0.3,1.6,0.2,2.3,3.6l-20.1,0.1c0.1,0.3-9.5-0.1-9.5-0.1l-20.4-0.2c0,0,0-1.3-0.1-1.8L655.5,386.5z M674.9,378.5L674.9,378.5
			c0.3,0.1,0.6,0.2,0.9,0.3C675.4,378.7,675.2,378.6,674.9,378.5L674.9,378.5z M679.6,379.9c0.3,0,0.5,0,0.8,0.1
			C680,379.9,679.8,379.9,679.6,379.9L679.6,379.9z M683.8,386.2c-0.2-0.2-0.5-0.3-0.8-0.5C683.3,385.9,683.6,386,683.8,386.2
			L683.8,386.2z M704.6,381.3c-0.1-0.1-0.1-0.1-0.1-0.2l0,0L704.6,381.3z"/>
		<path class="st13" d="M694.1,338.9v2.1h-10.7v11.2h4.6l-3.2,1V389h-7.1v-35.6l-3.3-1.1h4.7V341h-35.5v11.2h4.7l-3.2,1V389H638
			v-35.6l-3.1-1.1h4.6V341h-10.7v-2.1h-2.9v-1.5h13.5v-6.1h-3.2v-2.4c-4.4-0.6-8.9-1.4-13.5-2.3v-5.2c-1.7-0.3-3.4-0.6-5.2-1v-4.2
			c-2-0.3-4-0.8-5.9-1.2c0-1.3,0-2.5,0-3.8c33.6,5.7,66.7,5.3,99.5,0c0,1.3,0,2.5,0,3.8c-2,0.4-3.9,0.8-5.9,1.2v4.2
			c-1.7,0.4-3.4,0.8-5.2,1.1v5.1c-4.4,1-8.9,1.8-13.5,2.4v2.2h-3.1v6.1h13.5v1.5H694.1z M646.9,330.1v1.2h-3.2v6.1h14.6v-6.7
			C654.5,330.6,650.7,330.4,646.9,330.1L646.9,330.1z M679.2,331.3H676v-1.1c-3.7,0.3-7.5,0.5-11.3,0.6v6.6h14.5V331.3z"/>
	</g>
	<path class="st13" d="M662,154.7c-1.5,1.4-1.1,1.2-4.5,0.2c-3-1-1.6-1.3-4.3,0.3c-2.4,1.4-6.4,2.9-8.3,4c0.7,1.5,6.6,6.6,8.1,8.7
		c-0.5,0.3-1,0.5-1.5,0.7c-0.9,0.4-0.7,0.4-1.8-0.2c-2.3-1.3-9.8-5.6-11.3-6.2c-2,0.8-7.2,3.5-9,3.4c-0.9-0.1-2.2-0.3-2-1.3
		c0.7-2.6,5.4-4,8.4-5.4c1.2-0.5,0.9-0.5,1.2-1.8c0.3-1.4,2.3-11.8,2.8-12.4c0.2-0.2,1.9-0.8,2.2-1c0.2,1,0.3,2,0.3,3l0.5,5.9
		c0,1,0.2,2.1,0.3,3c1.4-0.7,2.8-1.3,4.2-2c7.1-3.4,5.8-1.1,7.5-4.9c1-2.1,1-3.4,3-3.1C657.5,149.9,658.7,152.5,662,154.7L662,154.7
		z M601.6,113.6c1.9,0.6,1.5,0.6,4.1-1.8c2.3-2.1,0.9-1.8,4-1.5c2.8,0.2,7-0.2,9.2,0.1c0.1,1.6-3.2,8.8-3.6,11.3c0.6,0,1.1,0,1.7,0
		c1,0,0.8,0.1,1.5-0.9c1.5-2.2,6.4-9.3,7.5-10.5c2.2-0.1,8,0.1,9.6-0.7c0.7-0.4,1.9-1.3,1.2-2.1c-1.8-2-6.6-1.3-9.9-1.2
		c-1.3,0-1-0.1-1.9-1.1c-0.9-1.2-7.2-9.7-7.8-10c-0.3-0.1-2.1,0-2.4,0c0.2,1,0.6,1.9,1,2.9l2.1,5.6c0.4,0.8,0.7,2,1,2.8
		c-1.5-0.1-3.1,0-4.7,0c-7.9,0-5.7,1.5-8.9-1.2c-1.7-1.5-2.3-2.7-4-1.5C603.6,107.2,603.7,110.1,601.6,113.6L601.6,113.6z
		 M600.8,108.2c0.8-0.1,1.1,1.1,0.2,1.3l-1.3,0.2c-0.8,0.2-1.1-1.1-0.2-1.3L600.8,108.2z M488.1,193.1c-0.4,0.8-1.6,0.2-1.2-0.5
		l0.3-0.7c0.4-0.8,1.6-0.2,1.2,0.6L488.1,193.1z M490.1,188.9c-0.4,0.8-1.6,0.2-1.2-0.6l0.6-1.2c0.4-0.8,1.5-0.2,1.2,0.6
		L490.1,188.9z M492.5,184.2c-0.4,0.7-1.6,0.2-1.2-0.6l0.6-1.2c0.4-0.7,1.5-0.2,1.2,0.6L492.5,184.2z M495,179.7
		c-0.5,0.8-1.6,0.1-1.2-0.6l0.7-1.2c0.5-0.8,1.5-0.1,1.1,0.6L495,179.7z M497.7,175.2c-0.5,0.7-1.6,0.1-1.1-0.7l0.7-1.1
		c0.4-0.7,1.6-0.1,1.1,0.7L497.7,175.2z M500.5,170.7c-0.4,0.7-1.6,0.1-1.1-0.7l0.7-1.1c0.4-0.7,1.6-0.1,1.1,0.7L500.5,170.7z
		 M503.4,166.4c-0.5,0.7-1.5-0.1-1.1-0.8l0.7-1.1c0.5-0.7,1.6,0.1,1.1,0.8L503.4,166.4z M506.5,162.2c-0.5,0.7-1.5-0.1-1-0.8
		l0.8-1.1c0.5-0.7,1.5,0.2,1,0.8L506.5,162.2z M509.6,158.2c-0.5,0.3-1.1-0.2-1-0.7c-0.1-0.3,0.2-0.7,0.6-0.8l0.4-0.5
		c0.5-0.6,1.6,0.2,1,0.8l-0.1,0.2l0.2,0.1c0.8,0.3,0.3,1.5-0.5,1.2L509.6,158.2z M513.1,154c-0.6,0.6-1.5-0.3-1-0.9l0.8-1
		c0.6-0.7,1.5,0.3,1,0.8L513.1,154z M516.7,150.2c-0.6,0.6-1.6-0.3-1-0.9l0.9-1c0.6-0.6,1.5,0.3,1,0.9L516.7,150.2z M520.3,146.5
		c-0.7,0.6-1.5-0.4-0.9-1l0.9-0.9c0.7-0.6,1.5,0.4,1,1L520.3,146.5z M524.2,142.8c-0.6,0.6-1.5-0.4-0.9-1l1-0.9
		c0.6-0.6,1.5,0.4,0.8,1L524.2,142.8z M528.1,139.4c-0.6,0.5-1.5-0.4-0.8-1l1-0.8c0.7-0.6,1.5,0.5,0.8,1L528.1,139.4z M532.2,136.2
		c-0.7,0.5-1.5-0.5-0.8-1l1-0.8c0.7-0.5,1.5,0.5,0.8,1L532.2,136.2z M536.4,133.1c-0.6,0.5-1.5-0.5-0.7-1.1c0.4-0.3,0.7-0.5,1.1-0.7
		c0.6-0.5,1.5,0.5,0.7,1.1C537.2,132.6,536.8,132.8,536.4,133.1L536.4,133.1z M540.8,130.2c-0.7,0.5-1.4-0.7-0.7-1.1l1.1-0.7
		c0.7-0.5,1.4,0.7,0.7,1.1L540.8,130.2z M545.2,127.5c-0.7,0.4-1.4-0.7-0.6-1.2l1.2-0.6c0.7-0.4,1.4,0.7,0.6,1.2L545.2,127.5z
		 M549.8,124.9c-0.8,0.4-1.4-0.8-0.6-1.2l1.2-0.6c0.8-0.4,1.4,0.8,0.6,1.2L549.8,124.9z M554.5,122.6c-0.7,0.4-1.4-0.8-0.6-1.2
		c0.4-0.2,0.8-0.4,1.2-0.5c0.7-0.4,1.3,0.8,0.5,1.2C555.3,122.2,554.9,122.4,554.5,122.6L554.5,122.6z M559.3,120.4
		c-0.8,0.3-1.3-0.9-0.5-1.2l1.2-0.5c0.8-0.3,1.3,1,0.5,1.2L559.3,120.4z M564.1,118.4c-0.8,0.3-1.3-0.9-0.5-1.2l1.3-0.5
		c0.7-0.3,1.3,0.9,0.4,1.2L564.1,118.4z M569.1,116.6c-0.8,0.3-1.3-1-0.4-1.2c0.4-0.2,0.8-0.3,1.3-0.4c0.7-0.3,1.2,0.9,0.4,1.2
		C569.9,116.4,569.5,116.5,569.1,116.6L569.1,116.6z M574,115c-0.9,0.2-1.2-1.1-0.4-1.3l1.3-0.4c0.9-0.2,1.2,1.1,0.3,1.3L574,115z
		 M579.1,113.6c-0.8,0.2-1.2-1.1-0.3-1.3l1.3-0.3c0.8-0.2,1.2,1.1,0.3,1.3L579.1,113.6z M584.2,112.4c-0.8,0.2-1.2-1.1-0.3-1.3
		l1.3-0.3c0.9-0.2,1.1,1.2,0.3,1.3L584.2,112.4z M589.3,111.3c-0.8,0.2-1.1-1.1-0.2-1.3l1.3-0.2c0.9-0.2,1.1,1.1,0.3,1.3
		L589.3,111.3z M594.5,110.4c-0.8,0.2-1.1-1.1-0.2-1.3l1.3-0.2c0.8-0.2,1.1,1.2,0.2,1.3L594.5,110.4z M417.7,161.7
		c-1.5,1.4-1.1,1.2-4.5,0.2c-3-0.9-1.6-1.3-4.3,0.3c-2.4,1.4-6.4,2.9-8.3,4c0.7,1.5,6.6,6.6,8.1,8.7c-0.5,0.3-1,0.4-1.5,0.7
		c-0.9,0.5-0.7,0.5-1.8-0.2c-2.3-1.3-9.8-5.6-11.3-6.2c-2,0.8-7.2,3.5-9,3.4c-0.8-0.1-2.2-0.3-2-1.4c0.7-2.6,5.4-4,8.4-5.4
		c1.2-0.5,0.9-0.4,1.2-1.8c0.3-1.5,2.3-11.8,2.8-12.4c0.2-0.2,1.9-0.9,2.2-1c0.2,1,0.3,2,0.3,3l0.5,5.9c0,0.9,0.2,2.1,0.3,2.9
		c1.4-0.6,2.8-1.3,4.2-1.9c7.1-3.4,5.8-1.1,7.5-4.9c1-2.1,0.9-3.4,3-3.1C413.2,156.9,414.4,159.5,417.7,161.7L417.7,161.7z
		 M416.2,156.5c-0.8,0.3-0.5,1.5,0.4,1.3l1.2-0.4c0.7-0.2,0.5-1.5-0.4-1.3L416.2,156.5z M554.5,185c0.7,0.6,1.4-0.5,0.8-1l-0.5-0.4
		c-0.7-0.6-1.5,0.5-0.8,1L554.5,185z M550.8,182.1c0.7,0.5,1.5-0.5,0.8-1l-1.1-0.8c-0.7-0.5-1.5,0.5-0.8,1.1L550.8,182.1z
		 M546.7,178.9c0.6,0.5,1.5-0.5,0.8-1.1l-1.1-0.8c-0.7-0.5-1.5,0.5-0.8,1.1L546.7,178.9z M542.4,175.9c0.7,0.5,1.4-0.6,0.7-1.1
		l-1.1-0.7c-0.7-0.5-1.4,0.6-0.7,1.1L542.4,175.9z M538.1,172.9c0.7,0.5,1.4-0.6,0.7-1.1l-1.1-0.7c-0.7-0.5-1.5,0.6-0.7,1.1
		L538.1,172.9z M533.7,170.1c0.7,0.4,1.4-0.6,0.6-1.1l-1.1-0.7c-0.7-0.4-1.4,0.6-0.7,1.1L533.7,170.1z M529.1,167.5
		c0.8,0.4,1.4-0.7,0.7-1.2l-1.2-0.6c-0.8-0.4-1.4,0.7-0.6,1.2L529.1,167.5z M524.5,165c0.8,0.4,1.3-0.8,0.6-1.2l-1.2-0.6
		c-0.8-0.4-1.4,0.8-0.6,1.2L524.5,165z M519.8,162.6c0.8,0.4,1.4-0.8,0.6-1.2l-1.2-0.5c-0.7-0.4-1.4,0.7-0.6,1.2L519.8,162.6z
		 M515.1,160.5c0.8,0.3,1.3-0.9,0.5-1.2l-1.2-0.5c-0.8-0.3-1.3,0.9-0.5,1.2L515.1,160.5z M505.3,156.6c0.9,0.3,1.2-1,0.4-1.2
		l-1.3-0.4c-0.9-0.3-1.2,1-0.4,1.2L505.3,156.6z M500.3,155.1c0.8,0.3,1.2-1,0.4-1.3l-1.3-0.4c-0.8-0.2-1.2,1.1-0.4,1.3L500.3,155.1
		z M495.3,153.7c0.7,0.2,1.2-1,0.3-1.3l-1.3-0.3c-1-0.2-1.1,1.1-0.3,1.3L495.3,153.7z M490.2,152.5c0.8,0.2,1.1-1.1,0.3-1.3
		l-1.3-0.3c-0.8-0.2-1.1,1.1-0.3,1.3L490.2,152.5z M485,151.5c0.8,0.2,1.1-1.1,0.2-1.3c-0.4-0.1-0.9-0.2-1.3-0.2
		c-0.8-0.2-1.1,1.1-0.2,1.3C484.1,151.3,484.6,151.4,485,151.5L485,151.5z M479.8,150.7c0.9,0.1,1-1.2,0.2-1.3l-1.3-0.2
		c-0.9-0.1-1,1.2-0.2,1.3L479.8,150.7z M474.6,150.2c0.8,0.1,1-1.2,0.1-1.3l-1.3-0.1c-0.8-0.1-1,1.2-0.1,1.3L474.6,150.2z
		 M469.4,149.8c0.9,0.1,0.8-1.3,0.1-1.3l-1.3-0.1c-0.9-0.1-0.9,1.3-0.1,1.3L469.4,149.8z M464.2,149.7c0.8,0,0.9-1.3,0-1.3
		c-0.4,0-0.9,0-1.3,0c-0.8,0-0.9,1.3,0,1.3C463.3,149.7,463.8,149.7,464.2,149.7L464.2,149.7z M458.9,149.8c1-0.1,0.8-1.4-0.1-1.3
		l-1.3,0.1c-0.9,0.1-0.8,1.4,0.1,1.3L458.9,149.8z M453.7,150.1c0.8-0.1,0.7-1.4-0.1-1.3l-1.3,0.1c-0.8,0.1-0.7,1.4,0.1,1.3
		L453.7,150.1z M448.5,150.5c0.8-0.1,0.7-1.4-0.2-1.3c-0.4,0.1-0.9,0.1-1.3,0.2c-0.8,0.1-0.7,1.4,0.2,1.3
		C447.6,150.6,448,150.6,448.5,150.5L448.5,150.5z M443.3,151.2c0.9-0.2,0.6-1.4-0.2-1.3l-1.3,0.2c-0.8,0.2-0.6,1.5,0.2,1.3
		L443.3,151.2z M438.1,152.1c0.8-0.2,0.6-1.5-0.2-1.3l-1.3,0.3c-0.8,0.2-0.6,1.4,0.3,1.3L438.1,152.1z M433,153.1
		c0.8-0.1,0.6-1.4-0.3-1.3l-1.3,0.3c-0.9,0.2-0.5,1.5,0.3,1.3L433,153.1z M427.9,154.4c0.8-0.3,0.5-1.5-0.4-1.3l-1.3,0.3
		c-0.8,0.2-0.5,1.5,0.4,1.3L427.9,154.4z M422.8,155.8c0.8-0.2,0.5-1.5-0.4-1.3l-1.2,0.4c-0.8,0.2-0.5,1.5,0.4,1.3L422.8,155.8z
		 M660.5,149.5c-0.8,0.3-0.5,1.5,0.4,1.3l1.2-0.4c0.7-0.2,0.5-1.5-0.4-1.2L660.5,149.5z M798.8,178.1c0.7,0.5,1.5-0.5,0.8-1
		l-0.5-0.5c-0.7-0.6-1.5,0.5-0.8,1L798.8,178.1z M795.1,175.2c0.7,0.5,1.5-0.5,0.9-1.1l-1.1-0.8c-0.7-0.5-1.5,0.5-0.8,1L795.1,175.2
		z M791,171.9c0.6,0.5,1.5-0.5,0.8-1l-1.1-0.8c-0.7-0.5-1.5,0.5-0.8,1.1L791,171.9z M786.7,168.9c0.7,0.5,1.4-0.6,0.7-1.1l-1.1-0.7
		c-0.8-0.5-1.5,0.6-0.7,1.1L786.7,168.9z M782.4,165.9c0.7,0.5,1.4-0.6,0.7-1.1l-1.1-0.7c-0.7-0.5-1.4,0.6-0.7,1.1L782.4,165.9z
		 M778,163.1c0.7,0.5,1.4-0.6,0.7-1.1l-1.2-0.7c-0.6-0.4-1.4,0.6-0.6,1.2L778,163.1z M773.5,160.5c0.8,0.4,1.3-0.7,0.6-1.1l-1.2-0.7
		c-0.8-0.4-1.4,0.8-0.6,1.2L773.5,160.5z M768.8,158c0.8,0.4,1.4-0.7,0.6-1.2l-1.2-0.6c-0.8-0.4-1.3,0.8-0.6,1.2L768.8,158z
		 M764.1,155.6c0.8,0.4,1.4-0.8,0.6-1.2l-1.2-0.6c-0.7-0.4-1.4,0.8-0.6,1.2L764.1,155.6z M759.4,153.5c0.9,0.3,1.3-0.9,0.5-1.2
		l-1.2-0.5c-0.9-0.3-1.3,1-0.5,1.2L759.4,153.5z M754.5,151.5c0.8,0.3,1.3-0.9,0.5-1.3l-1.2-0.4c-0.8-0.3-1.3,0.9-0.5,1.2
		L754.5,151.5z M749.6,149.7c0.9,0.3,1.2-1.1,0.4-1.3l-1.3-0.4c-0.9-0.3-1.2,1-0.4,1.3L749.6,149.7z M744.6,148
		c0.8,0.3,1.2-1,0.4-1.2l-1.3-0.4c-0.8-0.3-1.2,1-0.4,1.2L744.6,148z M739.6,146.7c0.7,0.2,1.2-1,0.3-1.3l-1.3-0.3
		c-1-0.2-1.1,1.1-0.3,1.3L739.6,146.7z M734.5,145.5c0.8,0.2,1.1-1.2,0.3-1.3l-1.3-0.3c-0.8-0.2-1.1,1.1-0.2,1.3L734.5,145.5z
		 M729.3,144.5c0.8,0.2,1.1-1.1,0.2-1.3c-0.4-0.1-0.8-0.2-1.3-0.3c-0.7-0.1-1.1,1.2-0.2,1.3C728.5,144.3,728.9,144.4,729.3,144.5
		L729.3,144.5z M724.1,143.7c0.9,0.1,1-1.2,0.2-1.3l-1.3-0.2c-0.9-0.1-1,1.2-0.2,1.3L724.1,143.7z M718.9,143.2
		c0.8,0.1,1-1.2,0.1-1.3l-1.3-0.1c-0.8-0.1-1,1.2-0.1,1.3L718.9,143.2z M713.7,142.8c0.9,0,0.9-1.3,0.1-1.3l-1.3-0.1
		c-0.9,0-0.9,1.3-0.1,1.3L713.7,142.8z M708.5,142.7c0.8,0,0.9-1.3,0-1.3c-0.4,0-0.9,0-1.3,0c-0.8,0-0.9,1.3,0,1.3
		C707.6,142.7,708.1,142.7,708.5,142.7L708.5,142.7z M703.2,142.8c1-0.1,0.8-1.4-0.1-1.3l-1.3,0.1c-0.9,0.1-0.8,1.4,0.1,1.3
		L703.2,142.8z M698,143.1c0.9-0.1,0.8-1.4-0.1-1.3l-1.3,0.1c-0.8,0.1-0.7,1.3,0.1,1.3L698,143.1z M692.8,143.6
		c0.8-0.1,0.7-1.4-0.2-1.3c-0.4,0.1-0.9,0.1-1.3,0.2c-0.8,0.1-0.7,1.4,0.2,1.3C691.9,143.6,692.4,143.6,692.8,143.6L692.8,143.6z
		 M687.6,144.2c0.9-0.2,0.6-1.4-0.2-1.3l-1.3,0.2c-0.8,0.2-0.6,1.4,0.2,1.3L687.6,144.2z M682.4,145.1c0.9-0.2,0.6-1.4-0.2-1.3
		l-1.3,0.2c-0.8,0.2-0.6,1.5,0.3,1.3L682.4,145.1z M677.3,146.2c0.8-0.2,0.6-1.5-0.3-1.3l-1.3,0.3c-0.9,0.3-0.5,1.5,0.3,1.3
		L677.3,146.2z M672.2,147.4c0.9-0.3,0.5-1.5-0.3-1.3l-1.3,0.3c-0.8,0.3-0.5,1.5,0.4,1.3L672.2,147.4z M667.2,148.8
		c0.8-0.2,0.5-1.5-0.4-1.3l-1.3,0.4c-0.8,0.2-0.5,1.5,0.4,1.3L667.2,148.8z"/>
</g>
</svg>
