<?xml version="1.0" encoding="utf-8"?>
<!-- Generator: Adobe Illustrator 21.0.2, SVG Export Plug-In . SVG Version: 6.00 Build 0)  -->
<svg version="1.1" id="Layer_1" xmlns="http://www.w3.org/2000/svg" xmlns:xlink="http://www.w3.org/1999/xlink" x="0px" y="0px"
	 viewBox="0 0 576 410" style="enable-background:new 0 0 576 410;" xml:space="preserve">
<style type="text/css">
	.st0{fill:#BFACB8;}
	.st1{fill:#B7E274;}
	.st2{fill:#EDA966;}
	.st3{fill:#2D3E5B;}
	.st4{fill:#241C22;}
	.st5{fill-rule:evenodd;clip-rule:evenodd;fill:#131313;}
	.st6{fill-rule:evenodd;clip-rule:evenodd;fill:#808080;}
	.st7{fill-rule:evenodd;clip-rule:evenodd;fill:#CCCCCC;stroke:#000000;stroke-width:0.5669;stroke-miterlimit:22.9256;}
	.st8{fill-rule:evenodd;clip-rule:evenodd;fill:#B3B3B3;}
	.st9{fill-rule:evenodd;clip-rule:evenodd;fill:#4C4C4C;}
	.st10{fill-rule:evenodd;clip-rule:evenodd;fill:#FFD100;}
	.st11{fill:#131313;}
	.st12{fill-rule:evenodd;clip-rule:evenodd;fill:#EEB700;}
	.st13{fill-rule:evenodd;clip-rule:evenodd;fill:#DDDDDD;}
	.st14{fill-rule:evenodd;clip-rule:evenodd;fill:#FFFFFF;}
	.st15{fill-rule:evenodd;clip-rule:evenodd;fill:#E6E6E6;}
	.st16{fill-rule:evenodd;clip-rule:evenodd;fill:#FFE56B;}
	.st17{opacity:0.5;fill-rule:evenodd;clip-rule:evenodd;fill:#FFFFFF;}
	.st18{fill:#FFEB7A;}
	.st19{fill:#F7B500;}
	.st20{fill:#EB9D00;}
	.st21{fill:#CCDDFF;}
	.st22{fill:#FFCA00;}
	.st23{fill:#B6B7B8;}
	.st24{fill:#F0F0F0;}
	.st25{fill:#D4D5D7;}
	.st26{fill:#C7C8C9;}
	.st27{fill:#E5E6E8;}
	.st28{fill:#DBDBDB;}
	.st29{fill:#BCF1FF;}
	.st30{fill:#68D6F9;}
	.st31{fill:#DBDCDE;}
	.st32{opacity:0.3;fill:#55D6D2;}
	.st33{enable-background:new    ;}
	.st34{fill:#414D54;}
	.st35{fill:#5F7078;}
	.st36{fill:#B0ACA8;}
	.st37{fill:#FFF9F5;}
	.st38{fill:#D4CFCB;}
	.st39{fill:#8B9B00;}
	.st40{fill:#566000;}
	.st41{fill:#93A300;}
	.st42{fill:#FDA713;}
	.st43{fill:#FD8813;}
	.st44{fill:#FDB813;}
	.st45{fill:#840C0C;}
	.st46{fill:#F71616;}
	.st47{fill:#8B0C0C;}
	.st48{fill:#96180C;}
	.st49{fill:#F12613;}
	.st50{fill:#D12110;}
	.st51{fill:#D14436;}
	.st52{fill:#B1C2E3;}
	.st53{fill:#A9BBDF;}
	.st54{fill:#D0D9EA;}
	.st55{fill:#B7C4DF;}
	.st56{fill:#D7D8DA;}
	.st57{fill:#E1E4EA;}
	.st58{fill:#868687;}
	.st59{fill:#BFCBE3;}
	.st60{clip-path:url(#SVGID_2_);enable-background:new    ;}
	.st61{clip-path:url(#SVGID_4_);enable-background:new    ;}
	.st62{fill:#71C6DB;}
	.st63{fill:#49B8B5;}
	.st64{fill:#374246;}
	.st65{fill:#56676E;}
	.st66{fill:#89D8E8;}
	.st67{fill:#60A8BA;}
	.st68{clip-path:url(#SVGID_6_);enable-background:new    ;}
	.st69{fill:#174969;}
	.st70{clip-path:url(#SVGID_8_);}
	.st71{fill:#72CFE3;}
	.st72{fill:#BBC3D3;}
	.st73{fill:#A4B0C8;}
	.st74{fill:#FFD900;}
	.st75{fill:#093F61;}
	.st76{fill:#0A4B73;}
	.st77{fill:#0B507A;}
	.st78{fill:#9C493F;}
	.st79{fill:#DE4B38;}
	.st80{fill:#FA8778;}
	.st81{fill:#07334E;}
	.st82{fill:#025074;}
	.st83{fill:#71CFF3;}
	.st84{fill:#FAFBFD;}
	.st85{fill:#7AA6AE;}
	.st86{fill:#88B9C3;}
	.st87{clip-path:url(#SVGID_10_);enable-background:new    ;}
	.st88{fill:#9ED7E2;}
	.st89{clip-path:url(#SVGID_12_);enable-background:new    ;}
	.st90{fill:#7EACB5;}
	.st91{fill:#6F979E;}
	.st92{fill:#557379;}
	.st93{fill:#64616C;}
	.st94{fill:#BDBDBD;}
	.st95{fill:#ECC6AF;}
	.st96{fill:#969696;}
	.st97{fill:#D7D7D7;}
	.st98{fill:#7A7A7A;}
	.st99{fill:#8E8A80;}
	.st100{fill:#E2E8F2;}
	.st101{fill:#DAE1EB;}
	.st102{fill:#ECECEC;}
	.st103{fill:#E6EDF7;}
	.st104{fill:#C1D8F7;}
	.st105{fill:#2574A8;}
	.st106{fill:#844810;}
	.st107{fill:#D9E6F7;}
	.st108{fill:#22A6EF;}
	.st109{fill:#6BB8EF;}
	.st110{fill:#F26E30;}
	.st111{fill:#FCE5F3;}
	.st112{fill:#FCCCE9;}
	.st113{fill:#CCA5BD;}
	.st114{fill:#FDB5E3;}
	.st115{fill:#EDF4F9;}
	.st116{fill:url(#SVGID_13_);}
	.st117{fill:url(#SVGID_14_);}
	.st118{fill:url(#SVGID_15_);}
	.st119{fill:url(#SVGID_16_);}
	.st120{fill:url(#SVGID_17_);}
	.st121{fill:url(#SVGID_18_);}
	.st122{fill:url(#SVGID_19_);}
	.st123{fill:url(#SVGID_20_);}
	.st124{fill:url(#SVGID_21_);}
	.st125{fill:url(#SVGID_22_);}
	.st126{fill:url(#SVGID_23_);}
	.st127{fill:#FEC111;}
	.st128{fill:#FA624E;}
	.st129{fill:#BD1630;}
	.st130{fill:#FF627B;}
	.st131{clip-path:url(#SVGID_25_);enable-background:new    ;}
	.st132{clip-path:url(#SVGID_27_);enable-background:new    ;}
	.st133{clip-path:url(#SVGID_29_);enable-background:new    ;}
	.st134{clip-path:url(#SVGID_31_);}
	.st135{fill:#A1B400;}
	.st136{fill:#B3D246;}
	.st137{fill:#798700;}
	.st138{fill:#230E01;}
	.st139{fill:#5B3520;}
	.st140{fill:#9F9B90;}
	.st141{fill:#2B1101;}
	.st142{fill:#5A3520;}
	.st143{fill:#692901;}
	.st144{fill:#3D1701;}
	.st145{fill:#4A2C1A;}
	.st146{fill:#4C1C01;}
	.st147{fill:#572201;}
	.st148{clip-path:url(#SVGID_33_);enable-background:new    ;}
	.st149{clip-path:url(#SVGID_35_);enable-background:new    ;}
	.st150{opacity:0.3;}
	.st151{fill:#55D6D2;}
	.st152{fill:#C2D288;}
	.st153{fill:#829100;}
	.st154{clip-path:url(#SVGID_37_);enable-background:new    ;}
	.st155{clip-path:url(#SVGID_39_);enable-background:new    ;}
	.st156{fill:#EDDACE;}
	.st157{fill:#FFFFFF;}
	.st158{fill:#EDCAB4;}
	.st159{fill:#1D2225;}
	.st160{fill:#171B1D;}
	.st161{fill:#2B3236;}
	.st162{fill:#1D2124;}
	.st163{fill:#8B9895;}
	.st164{fill:#191919;}
	.st165{fill:#141414;}
	.st166{fill:#252525;}
	.st167{fill:#707B78;}
	.st168{fill:#8C9A97;}
	.st169{fill:url(#SVGID_40_);}
	.st170{fill:url(#SVGID_41_);}
	.st171{fill:url(#SVGID_42_);}
	.st172{fill:url(#SVGID_43_);}
	.st173{fill:url(#SVGID_44_);}
	.st174{fill:url(#SVGID_45_);}
	.st175{fill:url(#SVGID_46_);}
	.st176{fill:url(#SVGID_47_);}
	.st177{fill:url(#SVGID_48_);}
	.st178{fill:url(#SVGID_49_);}
	.st179{fill:url(#SVGID_50_);}
	.st180{clip-path:url(#SVGID_52_);enable-background:new    ;}
	.st181{clip-path:url(#SVGID_54_);enable-background:new    ;}
	.st182{clip-path:url(#SVGID_56_);enable-background:new    ;}
	.st183{clip-path:url(#SVGID_58_);}
	.st184{fill:#CAED4F;}
	.st185{fill:#F25B14;}
	.st186{opacity:0.8;}
	.st187{fill:#0084FF;}
	.st188{fill:#13D5FD;}
	.st189{fill:#0FACCC;}
	.st190{fill:#68E3FD;}
	.st191{fill:#E49B1D;}
	.st192{fill:#FEFEFF;}
	.st193{fill:#F85B30;}
	.st194{fill:#CCCCCC;}
	.st195{fill:#FF4A39;}
	.st196{fill:#F29163;}
	.st197{fill:#C45927;}
	.st198{fill:#5AC3F2;}
	.st199{fill:#079FE3;}
	.st200{fill:#0FB4E7;}
	.st201{fill:#008BC9;}
	.st202{fill:#2C1A22;}
	.st203{fill:#351F29;}
	.st204{fill:#3E242F;}
	.st205{fill:#37202A;}
	.st206{fill:#E5DEFF;}
	.st207{fill:#AAAEE8;}
	.st208{fill:#878AB8;}
	.st209{fill:#D3C7FF;}
	.st210{fill:#8B5231;}
	.st211{fill:#EDC7AF;}
	.st212{fill:#F0E5DF;}
	.st213{fill:#FFAA00;}
	.st214{fill:#D4602A;}
	.st215{fill:#FFBB00;}
	.st216{fill:#F5EEDD;}
	.st217{fill:#082034;}
	.st218{fill:#B73D34;}
	.st219{fill:#B53100;}
	.st220{fill:#D3830D;}
	.st221{fill:#D1DCE6;}
	.st222{fill:#0C2F4B;}
	.st223{fill:#CC3700;}
	.st224{fill:#EB5A49;}
	.st225{fill:#FBAB20;}
	.st226{fill:url(#SVGID_59_);}
	.st227{fill:url(#SVGID_60_);}
	.st228{fill:url(#SVGID_61_);}
	.st229{fill:url(#SVGID_62_);}
	.st230{fill:url(#SVGID_63_);}
	.st231{fill:url(#SVGID_64_);}
	.st232{fill:url(#SVGID_65_);}
	.st233{fill:url(#SVGID_66_);}
	.st234{fill:url(#SVGID_67_);}
	.st235{fill:#374859;}
	.st236{fill:#1F2B35;}
	.st237{fill:#9C9C9C;}
	.st238{fill:#919191;}
	.st239{fill:#5BD2D9;}
	.st240{fill:#357B7F;}
	.st241{fill:#398388;}
	.st242{fill:#F9F9F9;}
	.st243{fill:#388224;}
	.st244{fill:#D9F9FF;}
	.st245{fill:#F9A908;}
	.st246{fill:#3A800D;}
	.st247{fill:#4CA611;}
	.st248{fill:#FFF4DE;}
	.st249{fill:#F8BE3B;}
	.st250{fill:#C7F6FF;}
	.st251{fill:#59AA0D;}
	.st252{fill:#60AE18;}
	.st253{fill:#5BBC08;}
	.st254{fill:#50B431;}
	.st255{fill:#F81616;}
	.st256{fill:#0C5D8F;}
	.st257{fill:#FFA323;}
	.st258{fill:#7295AA;}
	.st259{fill:#FF8D23;}
	.st260{fill:#FFB923;}
	.st261{fill:#072E47;}
	.st262{fill:#E4EBF0;}
	.st263{fill:#F5F5F2;}
	.st264{fill:#C7CCD1;}
	.st265{fill:#BEC2C7;}
	.st266{fill:#DBE1E6;}
	.st267{fill:#BD9649;}
	.st268{fill:#655027;}
	.st269{fill:#927438;}
	.st270{fill:#B48F45;}
	.st271{fill:#704227;}
	.st272{fill:#4E2E1B;}
	.st273{fill:#4E2D1B;}
	.st274{fill:#915533;}
	.st275{fill:#CFD4D5;}
	.st276{fill:url(#SVGID_68_);}
	.st277{fill:#B8B9BA;}
	.st278{fill:#C8D1E3;}
	.st279{clip-path:url(#SVGID_70_);}
	.st280{opacity:0.2;fill:#00EBFF;}
	.st281{opacity:0.4;fill:#00EBFF;}
	.st282{clip-path:url(#SVGID_72_);enable-background:new    ;}
	.st283{clip-path:url(#SVGID_74_);enable-background:new    ;}
	.st284{clip-path:url(#SVGID_76_);enable-background:new    ;}
	.st285{clip-path:url(#SVGID_78_);enable-background:new    ;}
	.st286{clip-path:url(#SVGID_80_);enable-background:new    ;}
	.st287{clip-path:url(#SVGID_82_);enable-background:new    ;}
	.st288{clip-path:url(#SVGID_84_);enable-background:new    ;}
	.st289{clip-path:url(#SVGID_86_);}
	.st290{fill:#90DAFD;}
	.st291{fill:#19B4FD;}
	.st292{fill:#138DC7;}
	.st293{fill:#56C7FD;}
	.st294{fill:#B2B2B2;}
	.st295{fill:#378A87;}
	.st296{fill:#4ABBB8;}
	.st297{fill:#40A19E;}
	.st298{fill:#358683;}
	.st299{fill:#1E2022;}
	.st300{fill:#9E9E9E;}
	.st301{fill:#7B7B7B;}
	.st302{fill:#999999;}
	.st303{fill:#DFB100;}
	.st304{fill:#BF9800;}
	.st305{fill:#9F7E00;}
	.st306{fill:#9F5713;}
	.st307{fill:#3E9C99;}
	.st308{fill:#303437;}
	.st309{fill:#B1D132;}
	.st310{fill:#D3D3D3;}
	.st311{fill:#A55B14;}
	.st312{fill:#838383;}
	.st313{fill:#2B2E31;}
	.st314{fill:#F1C40F;}
	.st315{clip-path:url(#SVGID_88_);enable-background:new    ;}
	.st316{clip-path:url(#SVGID_90_);enable-background:new    ;}
	.st317{fill:#2D6986;}
	.st318{fill:#3B89AF;}
	.st319{clip-path:url(#SVGID_92_);enable-background:new    ;}
	.st320{clip-path:url(#SVGID_94_);enable-background:new    ;}
	.st321{clip-path:url(#SVGID_96_);enable-background:new    ;}
	.st322{clip-path:url(#SVGID_98_);}
	.st323{fill:#50B8EA;}
	.st324{fill:#FDCF60;}
	.st325{fill:#EDD9CC;}
	.st326{fill:#EDAF87;}
	.st327{fill:#FEF7E5;}
	.st328{fill:#55A1C2;}
	.st329{fill:#62C3ED;}
	.st330{fill:#2EABE3;}
	.st331{fill:#2792C2;}
	.st332{fill:#61B8DE;}
	.st333{fill:#70D4FF;}
	.st334{fill:#8854EA;}
	.st335{fill:#8D8E87;}
	.st336{fill:#B9B9B0;}
	.st337{fill:#CDE7F3;}
	.st338{fill:#D3DDDF;}
	.st339{fill:#E9E9EA;}
	.st340{opacity:0.1;fill:#1F1D1B;}
	.st341{fill:#606365;}
	.st342{fill:#D8D9DA;}
	.st343{opacity:0.6;fill:#FFFFFF;}
	
		.st344{fill:none;stroke:#FFFFFF;stroke-width:0.1919;stroke-linecap:round;stroke-linejoin:round;stroke-miterlimit:10;stroke-dasharray:0.9593,0.9593,0.9593,0.9593,0.9593,0.9593;}
	.st345{opacity:5.000000e-02;fill:#1F1D1B;}
	.st346{fill:#E1BB95;}
	.st347{fill:#E1C7A0;}
	.st348{fill:#B89A7C;}
	.st349{fill:#E2E3E4;}
	.st350{fill:#EDEDEE;}
	.st351{opacity:5.000000e-02;}
	.st352{fill:#1F1D1B;}
	.st353{opacity:0.4;fill:#66BBDB;}
	.st354{fill:#F5F5F5;}
	.st355{fill:#917A62;}
	.st356{fill:#ECEDED;}
	.st357{fill:#D5D7D8;}
	.st358{fill:#D3EDF0;}
	.st359{fill:#E5E9EB;}
	.st360{fill:#C2C6C9;}
	.st361{opacity:0.6;fill:#66BBDB;}
	.st362{fill:#EEF3F6;}
	.st363{fill:none;stroke:#D9DDE0;stroke-width:0.1919;stroke-miterlimit:10;}
	.st364{fill:#BFC1C2;}
	.st365{fill:#DCDDDE;}
	.st366{fill:#EFEFF0;}
	.st367{fill:#D0D2D3;}
	.st368{fill:#EBEFF2;}
	.st369{fill:#D9DDE0;}
	.st370{opacity:0.5;fill:#E1BB95;}
	.st371{fill:#B6B8BA;}
	.st372{fill:#D2B580;}
	.st373{fill:#B8CB33;}
	.st374{fill:#E2C79A;}
	.st375{fill:#89BC40;}
	.st376{opacity:0.3;fill:#E1BB95;}
	.st377{fill:#E19290;}
	.st378{fill:#EDEAE3;}
	.st379{fill:#DF7082;}
	
		.st380{fill:none;stroke:#FFFFFF;stroke-width:0.1214;stroke-linecap:round;stroke-linejoin:round;stroke-miterlimit:10;stroke-dasharray:0.6072,0.6072,0.6072,0.6072,0.6072,0.6072;}
	.st381{opacity:0.1;fill:#231F20;}
	.st382{fill:#58595B;}
	.st383{fill:#DCE0E8;}
	.st384{fill:#A1A3A6;}
	.st385{fill:#8F9194;}
	.st386{fill:#9CB0BD;}
	.st387{fill:#D8DFDF;}
	.st388{fill:#8DA0AC;}
	.st389{fill:#DDE4E8;}
	.st390{clip-path:url(#SVGID_100_);}
	.st391{opacity:0.4;fill:none;stroke:#9CB0BD;stroke-width:0.286;stroke-linecap:round;stroke-miterlimit:10;}
	.st392{fill:#CADDE7;}
	.st393{fill:none;stroke:#FFFFFF;stroke-width:0.1919;stroke-miterlimit:10;}
	.st394{clip-path:url(#SVGID_102_);fill:#B8CB33;}
	.st395{clip-path:url(#SVGID_104_);fill:#B8CB33;}
	.st396{fill:#E9E5B5;}
	.st397{fill:#EEECD3;}
	.st398{fill:#CEDBDF;}
	.st399{clip-path:url(#SVGID_106_);fill:#B8CB33;}
	.st400{fill:#29ABE2;}
	.st401{fill:#F4F4F4;}
	.st402{fill:#006EC3;}
	.st403{fill:#DADADA;}
	.st404{fill:#EBEAEA;}
	.st405{opacity:0.6;fill:#A96A26;}
	.st406{opacity:0.4;fill:#A96A26;}
	.st407{opacity:0.4;fill:#FFFFFF;}
	.st408{opacity:0.4;}
	.st409{opacity:0.4;fill:#7B4E19;}
	.st410{fill:#AF522E;}
	.st411{fill:#D6C3A2;}
	.st412{fill:#A78D6A;}
	.st413{opacity:0.3;fill:#FFAA73;}
	.st414{opacity:0.8;fill:#D6C3A2;}
	.st415{fill:#809F20;}
	.st416{fill:#648C08;}
	.st417{opacity:0.5;fill:#648C08;}
	.st418{fill:#788E1A;}
	.st419{fill:#AAC844;}
	.st420{fill:#84AE0C;}
	.st421{fill:#9FB739;}
	.st422{fill:#97A833;}
	.st423{opacity:0.5;fill:#DADADA;}
	.st424{fill:#BF6A1D;}
	.st425{opacity:0.5;fill:#BF6A1D;}
	.st426{opacity:0.5;fill:#BF6310;}
	.st427{fill:#F9861E;}
	.st428{fill:#D06716;}
	.st429{fill:#ED7818;}
	.st430{fill:#A25A20;}
	.st431{fill:#7F4619;}
	.st432{fill:#6B3713;}
	.st433{opacity:0.3;fill:#A25A20;}
	.st434{fill:#93521C;}
	.st435{fill:#603111;}
	.st436{fill:#327C0A;}
	.st437{opacity:0.3;fill:#327C0A;}
	.st438{fill:#DBA216;}
	.st439{fill:#FFD44D;}
	.st440{fill:#FFC524;}
	.st441{opacity:0.5;fill:#723B16;}
	.st442{opacity:0.4;fill:#603111;}
	.st443{opacity:0.4;fill:#D38144;}
	.st444{opacity:0.5;fill:#F9AB21;}
	.st445{opacity:0.5;}
	.st446{fill:#AA6102;}
	.st447{fill:#8E4F03;}
	.st448{fill:#864000;}
	.st449{opacity:0.5;fill:#AA6102;}
	.st450{fill:#C6862C;}
	.st451{fill:#C17500;}
	.st452{fill:#E6B75F;}
	.st453{fill:#BA842D;}
	.st454{opacity:0.5;fill:#C17500;}
	.st455{fill:#461800;}
	.st456{fill:#58991F;}
	.st457{fill:#97C740;}
	.st458{opacity:0.5;fill:#97C740;}
	.st459{fill:#68B42E;}
	.st460{fill:#3E9F32;}
	.st461{fill:#E1CCBB;}
	.st462{fill:#EF7E8A;}
	.st463{fill:#F5ACA2;}
	.st464{fill:#F39B99;}
	.st465{fill:#FFFBDC;}
	.st466{fill:#E5D5BE;}
	.st467{fill:#C15914;}
	.st468{opacity:0.5;fill:#C15914;}
	.st469{fill:#E57428;}
	.st470{fill:#C15B16;}
	.st471{opacity:0.5;fill:#E57428;}
	.st472{fill:#DB6C21;}
	.st473{fill:#9E6A1E;}
	.st474{fill:#DBBA4F;}
	.st475{opacity:0.5;fill:#DBBA4F;}
	.st476{fill:#E8CA5C;}
	.st477{fill:#955913;}
	.st478{fill:#C4903C;}
	.st479{fill:#FAED8D;}
	.st480{fill:#89BD27;}
	.st481{fill:#A97623;}
	.st482{fill:#0A58B5;}
	.st483{fill:#D0D0D0;}
	.st484{fill:#DCA35E;}
	.st485{fill:#D29654;}
	.st486{fill:#EAC07E;}
	.st487{fill:#E9BA6E;}
	.st488{fill:#F2CB84;}
	.st489{fill:#FFDC92;}
	.st490{opacity:0.4;fill:#D29654;}
	.st491{fill:#F5CD86;}
	.st492{fill:#E7B165;}
	.st493{fill:#F2C483;}
	.st494{fill:#E4AC6C;}
	.st495{fill:#FAD58C;}
	.st496{fill:#DCAB63;}
	.st497{opacity:0.5;fill:#D29654;}
	.st498{opacity:0.5;fill:#E9BA6E;}
	.st499{fill:#FFE6A9;}
	.st500{fill:#FFD794;}
	.st501{fill:#EEBE71;}
	.st502{opacity:0.6;}
	.st503{opacity:0.9;}
	.st504{fill:#BC2C00;}
	.st505{fill:#9E1E00;}
	.st506{opacity:0.5;fill:#BC2C00;}
	.st507{opacity:0.7;fill:#BC2C00;}
	.st508{fill:#6AB432;}
	.st509{fill:#3F9F36;}
	.st510{fill:#8A8F23;}
	.st511{fill:#FFFBDF;}
	.st512{opacity:0.7;fill:#A0BC2B;}
	.st513{opacity:0.7;fill:none;stroke:#A0BC2B;stroke-width:0.5201;stroke-miterlimit:10;}
	.st514{fill:#212121;}
	.st515{fill:#424242;}
	.st516{fill:#6A6A6A;}
	.st517{fill:#616161;}
	.st518{fill:#C4C6C7;}
	.st519{fill:#4D4E4E;}
	.st520{fill:#343536;}
	.st521{fill:#FFEE58;}
	.st522{fill:#2B3B54;}
	.st523{fill:#FBC02D;}
	.st524{fill:#2D2E2E;}
	.st525{fill:#FDD835;}
	.st526{fill:#F08526;}
	.st527{fill:#FFF38A;}
	.st528{fill:#595A59;}
	.st529{fill:#F4A83F;}
</style>
<rect x="-14" y="-18" class="st0" width="604" height="446"/>
<path class="st3" d="M-14,390c0,0,451.2-96.7,604-115.1c0,0-266.1,96.7-356.3,150.1H-14V390z"/>
<path class="st4" d="M504.9,303.2l-39.5,10.9c-0.1,0-0.3,0.1-0.4,0.1h-40.5c-2,0-2.3-2.9-0.3-3.3l38.6-7.5c0.1,0,0.1,0,0.2,0
	l41.5-3.4C506.3,299.8,506.8,302.7,504.9,303.2z"/>
<polygon class="st5" points="513,294.7 507.6,298 484,300.1 470.9,300.8 468.8,278.5 477.9,276.1 509.2,279.1 512,283.6 513,286.7 
	"/>
<path class="st6" d="M468.7,284.3c-3.4,0.3-5.6,6.5-4.9,13.9c0.7,7.4,3.9,13.1,7.3,12.8l7.9-0.7c3.4-0.3,5.6-6.5,4.9-13.9
	c-0.7-7.4-3.9-13.1-7.3-12.8L468.7,284.3z"/>
<path class="st7" d="M478.2,307.7c2.4-0.2,4-5.2,3.4-11c-0.5-5.9-2.9-10.5-5.4-10.3c-2.4,0.2-4,5.2-3.4,11
	C473.4,303.3,475.8,307.9,478.2,307.7z"/>
<path class="st8" d="M478.3,308.6c2.8-0.3,4.6-5.7,4-12c-0.6-6.4-3.3-11.4-6.1-11.1c-2.8,0.3-4.6,5.7-4,12
	C472.8,303.8,475.5,308.8,478.3,308.6z"/>
<path class="st9" d="M475.1,287.8c-0.5,0-0.9,0.3-1.3,0.7l2.2,8.3l2.2-6.4C477.3,288.6,476.2,287.7,475.1,287.8L475.1,287.8z
	 M473.5,289l2.1,7.9l-3-2.4C472.7,292.4,473,290.5,473.5,289L473.5,289z M472.6,295.1l3,2.4l-2.7,1.3c-0.1-0.4-0.1-0.9-0.2-1.3
	C472.6,296.6,472.6,295.9,472.6,295.1L472.6,295.1z M472.9,299.2c0.2,1.4,0.5,2.7,0.9,3.9l1.7-5.1L472.9,299.2L472.9,299.2z
	 M474.1,303.8c0.3,0.8,0.7,1.5,1,2.2c0.5,0.4,1.1,0.7,1.6,0.6c0.4,0,0.8-0.2,1.2-0.6l-2-7.6L474.1,303.8L474.1,303.8z M478.4,305.5
	l-2-7.4l3.5,2.8C479.7,302.9,479.1,304.6,478.4,305.5L478.4,305.5z M480,300.4l-3.6-2.9l3.5-1.6c0,0.3,0.1,0.5,0.1,0.8
	C480.1,298.1,480.1,299.3,480,300.4L480,300.4z M479.8,295.5l-3.4,1.6l2.1-6.2C479.1,292.1,479.5,293.7,479.8,295.5z"/>
<path class="st5" d="M476.7,290.4l-1.4,4l-1.5-5.8c0.2-0.1,0.4-0.2,0.6-0.2C475.4,288.4,476.3,289.6,476.7,290.4L476.7,290.4z
	 M472.8,291.9c-0.1,0.8-0.2,1.6-0.2,2.4l1.1,0.9L472.8,291.9L472.8,291.9z M472.6,296.6c0,0.3,0,0.5,0.1,0.8c0,0.1,0,0.3,0,0.4
	l0.9-0.4L472.6,296.6L472.6,296.6z M473,299.6c0.1,0.4,0.1,0.8,0.2,1.2l0.5-1.5L473,299.6L473,299.6z M474.1,303.7
	c0.3,0.7,0.5,1.3,0.9,1.8c0.3,0.2,0.7,0.4,1,0.4c0.2,0,0.3-0.1,0.5-0.2l-1.3-5L474.1,303.7L474.1,303.7z M477.8,303.8l-1-3.8
	l1.6,1.3C478.3,302.1,478.2,303,477.8,303.8L477.8,303.8z M478.6,299.2l-1.7-1.4l1.7-0.8C478.6,297.7,478.6,298.4,478.6,299.2
	L478.6,299.2z M478.3,295.2c-0.1-0.8-0.3-1.5-0.5-2.3l-1,3L478.3,295.2z"/>
<path class="st6" d="M419.3,284.9c-3.4,0.3-5.6,6.5-4.9,13.9c0.7,7.4,3.9,13.1,7.3,12.8l7.9-0.7c3.4-0.3,5.6-6.5,4.9-13.9
	c-0.7-7.4-3.9-13.1-7.3-12.8L419.3,284.9z"/>
<path class="st6" d="M502.7,285.8c-2.3,0.2-3.8,4.4-3.3,9.4c0.5,5,2.7,8.9,5,8.7l5.3-0.5c2.3-0.2,3.8-4.4,3.3-9.4
	c-0.5-5-2.7-8.9-5-8.7L502.7,285.8z"/>
<path class="st7" d="M509.1,301.6c1.6-0.1,2.7-3.5,2.3-7.5c-0.4-4-2-7.1-3.6-7s-2.7,3.5-2.3,7.5
	C505.9,298.7,507.5,301.8,509.1,301.6z"/>
<path class="st8" d="M509.2,302.3c1.9-0.2,3.1-3.8,2.7-8.2s-2.2-7.7-4.1-7.5c-1.9,0.2-3.1,3.8-2.7,8.2
	C505.5,299,507.3,302.4,509.2,302.3z"/>
<path class="st9" d="M507,288.1c-0.3,0-0.6,0.2-0.9,0.5l1.5,5.6l1.5-4.4C508.5,288.7,507.8,288.1,507,288.1L507,288.1z M505.9,289
	l1.4,5.4l-2-1.6C505.4,291.3,505.6,290,505.9,289L505.9,289z M505.3,293.1l2,1.6l-1.8,0.9c0-0.3-0.1-0.6-0.1-0.9
	C505.4,294.1,505.3,293.6,505.3,293.1L505.3,293.1z M505.6,295.9c0.2,0.9,0.4,1.8,0.6,2.6l1.2-3.5L505.6,295.9L505.6,295.9z
	 M506.4,299c0.2,0.5,0.5,1,0.7,1.5c0.4,0.3,0.7,0.4,1.1,0.4c0.3,0,0.6-0.2,0.8-0.4l-1.4-5.2L506.4,299L506.4,299z M509.2,300.2
	l-1.3-5l2.4,1.9C510.1,298.4,509.8,299.5,509.2,300.2L509.2,300.2z M510.3,296.7l-2.4-1.9l2.3-1.1c0,0.2,0,0.4,0.1,0.6
	C510.4,295.1,510.4,296,510.3,296.7L510.3,296.7z M510.2,293.4l-2.3,1.1l1.4-4.2C509.7,291.1,510,292.2,510.2,293.4z"/>
<path class="st5" d="M508.1,289.9l-0.9,2.7l-1-3.9c0.1-0.1,0.3-0.2,0.4-0.2C507.2,288.5,507.8,289.4,508.1,289.9L508.1,289.9z
	 M505.5,291c-0.1,0.5-0.1,1.1-0.1,1.6l0.7,0.6L505.5,291L505.5,291z M505.4,294.1c0,0.2,0,0.4,0,0.5c0,0.1,0,0.2,0,0.3l0.6-0.3
	L505.4,294.1L505.4,294.1z M505.6,296.2c0,0.3,0.1,0.5,0.2,0.8l0.3-1L505.6,296.2L505.6,296.2z M506.4,299c0.2,0.5,0.4,0.9,0.6,1.2
	c0.2,0.2,0.5,0.3,0.7,0.3c0.1,0,0.2-0.1,0.3-0.1l-0.9-3.4L506.4,299L506.4,299z M508.9,299l-0.7-2.6l1.1,0.9
	C509.2,297.8,509.1,298.5,508.9,299L508.9,299z M509.4,295.9l-1.2-0.9l1.1-0.5C509.4,294.9,509.4,295.4,509.4,295.9L509.4,295.9z
	 M509.2,293.2c-0.1-0.5-0.2-1-0.4-1.5l-0.7,2L509.2,293.2z"/>
<path class="st10" d="M460.9,261l0.5-5.2c0.1-1,0.8-1.5,1.7-1.6c3.1-0.3,7.2-0.6,10.2-0.9c0.9-0.1,1.7,0.3,2,1.2l1.4,5
	C471.7,260,465.8,260.5,460.9,261z"/>
<g>
	<path class="st11" d="M463.4,256.2l0.6-0.1l0,0.3c-0.1,0.1-0.1,0.1-0.2,0.2c-0.1,0.1-0.1,0.2-0.1,0.4l0,0.1c0,0,0,0.1,0,0.1
		s-0.1,0-0.1,0c0,0-0.1,0-0.1,0s0-0.1,0-0.1L463.4,256.2z M465.3,256.1l0.3,2.8c0,0.1,0,0.1,0,0.1c0,0,0,0,0,0c0,0,0,0,0.1,0
		c0.1,0,0.1,0.1,0.1,0.1c0,0,0,0.1-0.1,0.1c0,0-0.1,0-0.2,0l-0.1,0l-1.1,0.1l-0.1,0c-0.1,0-0.1,0-0.2,0c0,0-0.1,0-0.1-0.1
		c0-0.1,0-0.1,0.1-0.1c0.1,0,0.1,0,0.1,0c0,0,0,0,0,0c0,0,0-0.1,0-0.1l-0.3-2.8L465.3,256.1z M466.1,256l0.1,1c0,0,0,0.1,0,0.1
		c0,0-0.1,0-0.1,0.1c0,0-0.1,0-0.1,0c0,0,0-0.1-0.1-0.1l0-0.1c0-0.1-0.1-0.3-0.2-0.4c0-0.1-0.1-0.1-0.2-0.2l0-0.3L466.1,256z"/>
	<path class="st11" d="M467.3,256.5l0.2,0.5l-0.3,1.6c0,0,0,0.1,0,0.1c0,0.1,0.1,0.2,0.2,0.2l0.1,0c0.1,0,0.1,0.1,0.1,0.1
		c0,0.1,0,0.1-0.2,0.1l-0.6,0.1c-0.1,0-0.1,0-0.1,0c0,0-0.1-0.1-0.1-0.1c0,0,0-0.1,0.1-0.1c0.1,0,0.1-0.1,0.1-0.1
		c0,0,0.1-0.1,0.1-0.1c0-0.1,0.1-0.2,0.1-0.3L467.3,256.5z M467.4,255.9l1-0.1l0.9,2.8c0,0,0,0.1,0.1,0.1c0,0,0.1,0.1,0.1,0.1
		c0,0,0.1,0,0.1,0c0,0,0,0,0,0.1c0,0.1-0.1,0.1-0.2,0.1l-1.2,0.1c0,0-0.1,0-0.1,0c0,0,0,0-0.1-0.1c0,0,0-0.1,0-0.1c0,0,0,0,0.1-0.1
		c0,0,0.1,0,0.1-0.1c0,0,0,0,0-0.1c0,0,0,0,0-0.1l-0.1-0.3l-0.7,0.1l0-0.3l0.5,0l-0.6-1.9L467.4,255.9z"/>
	<path class="st11" d="M470.8,256l1.4,2.3c0,0.1,0.1,0.1,0.1,0.1c0,0,0.1,0,0.1,0.1c0,0,0,0,0,0.1c0,0,0,0.1,0,0.1c0,0-0.1,0-0.2,0
		l-1.1,0.1c-0.1,0-0.1,0-0.2,0c-0.1,0-0.1-0.1-0.1-0.1c0,0,0,0,0-0.1c0,0,0,0,0.1-0.1c0.1,0,0.1-0.1,0.1-0.1c0,0,0-0.1-0.1-0.1
		l-1.4-2.3c0,0,0-0.1-0.1-0.1s-0.1,0-0.1-0.1c0,0-0.1,0-0.1,0s0,0,0-0.1c0,0,0-0.1,0-0.1c0,0,0.1,0,0.2,0l1.1-0.1c0.1,0,0.1,0,0.2,0
		c0,0,0.1,0,0.1,0.1c0,0,0,0.1-0.1,0.1c0,0,0,0,0,0C470.8,255.9,470.8,255.9,470.8,256C470.8,256,470.8,256,470.8,256z M470.4,257.7
		l0.2,0.3l-0.1,0.3c0,0.1-0.1,0.2-0.1,0.2c0,0.1,0.1,0.1,0.1,0.2c0,0,0.1,0,0.1,0c0,0,0,0,0,0.1c0,0,0,0.1,0,0.1c0,0,0,0,0,0
		c0,0-0.1,0-0.1,0l-0.6,0.1c-0.1,0-0.1,0-0.1,0c0,0,0,0-0.1-0.1c0,0,0-0.1,0-0.1c0,0,0,0,0.1-0.1c0.1-0.1,0.2-0.1,0.3-0.3
		L470.4,257.7z M471.4,256.6l-0.2-0.3l0.1-0.2c0-0.1,0-0.1,0-0.1c0,0,0-0.1,0-0.1c0,0-0.1-0.1-0.1-0.1l-0.1,0c0,0,0,0,0,0
		c0,0,0,0,0-0.1c0,0,0-0.1,0-0.1c0,0,0.1,0,0.1,0l0.7-0.1c0,0,0.1,0,0.1,0s0,0,0.1,0.1c0,0,0,0.1,0,0.1c0,0,0,0-0.1,0.1
		c-0.1,0.1-0.2,0.2-0.3,0.3L471.4,256.6z"/>
	<path class="st11" d="M474.1,258.6l-1.1,0.1l-0.1,0c-0.1,0-0.1,0-0.1,0c0,0-0.1,0-0.1-0.1c0-0.1,0-0.1,0.1-0.1c0.1,0,0.1,0,0.1,0
		c0,0,0,0,0,0c0,0,0-0.1,0-0.1l-0.2-2.4c0-0.1,0-0.1,0-0.1c0,0,0,0,0,0c0,0,0,0-0.1,0c-0.1,0-0.1-0.1-0.1-0.1c0,0,0-0.1,0-0.1
		s0.1,0,0.1,0l0.1,0l1.1-0.1l0.1,0c0.1,0,0.1,0,0.1,0s0.1,0,0.1,0.1c0,0.1,0,0.1-0.1,0.1c-0.1,0-0.1,0-0.1,0c0,0,0,0,0,0
		c0,0,0,0.1,0,0.1l0.2,2.4c0,0.1,0,0.1,0,0.1c0,0,0,0,0,0c0,0,0,0,0.1,0c0.1,0,0.1,0.1,0.1,0.1c0,0,0,0.1,0,0.1
		S474.2,258.6,474.1,258.6L474.1,258.6z"/>
</g>
<path class="st6" d="M460.8,261l16-1.4c0.4,0,0.7,0.2,0.7,0.6l0,0c0,0.4-0.2,0.7-0.6,0.7l-16,1.4c-0.4,0-0.7-0.2-0.7-0.6l0,0
	C460.2,261.3,460.4,261,460.8,261z"/>
<path class="st10" d="M505.6,298.1l-18.8,1.7c-3.3,0.3-2.7,0.8-2.6-2.1c0.2-6.7-1.1-17.9-6-17.7c-5.2,0.1-7.5,6.9-7.5,17.5
	c0,3-2.5,4-4.9,4.2l-48.7,4.4c-5.3,0.5-7.6-3.6-8.8-6.9c-1.4-3.8-0.4-7.8,0.3-11.6c1.4-8.6,22.7-12.8,22.7-12.8
	c5.5-4.7,12.5-9.6,25.1-12.2c6.3-1.3,11.9-1.7,18-2.2c18.9-1.7,24.5,4.4,29,12.4c10.6,3.1,11.3,15.1,9.6,21.8
	c0.1-5.2-0.1-12.3-3-12.2C507.1,282.6,505.2,292.3,505.6,298.1z"/>
<path class="st10" d="M500.6,278.1c1.4-0.1,2.8-0.1,4.2-0.2c0.4,0,0.8,0.4,0.8,0.9c0,0.2,0,0.4,0.1,0.7c0.1,1.4-5.5,1.7-5.7,0.3
	c0-0.2,0-0.4-0.1-0.7C499.9,278.5,500.2,278.1,500.6,278.1z"/>
<path class="st12" d="M431.2,275.3c0,0,8-6.8,15.9-9.8c7.9-2.9,23.1-4.7,31.5-4.7c3,0,1.7,1.9,1.7,1.9l-2.8,5.8c0,0-0.7,1.7-5.1,1.9
	C468,270.8,450.8,271.7,431.2,275.3z"/>
<path class="st12" d="M500.9,271.1c-1.2-1.9-3.5-4.3-6.6-6.1c-2.3-1.3-4.7-2.2-6.7-2.6c-2.3-0.4-4.2-0.5-4.9,2l-2,7.5
	c0,0-0.8,2.3,1.8,2.2c2.6-0.2,16.6-0.7,16.6-0.7C501,273.4,502.3,273.3,500.9,271.1z"/>
<ellipse transform="matrix(0.996 -8.970869e-02 8.970869e-02 0.996 -24.8293 41.9166)" class="st10" cx="453.9" cy="297.2" rx="3.9" ry="3"/>
<path class="st10" d="M409.7,285c1.6,2.2,2.4,4.5,2.1,6.3c-0.1,0.9-1.8,1.1-3.9,0.4l0.7-4.1C408.7,286.7,409.1,285.8,409.7,285z"/>
<path class="st10" d="M467,278.2c-3.5-5.7-33.3,7.2-28.6,11.6C440.6,291.9,471.8,286.1,467,278.2z"/>
<path class="st13" d="M432.6,274.8c0,0,7.5-6.3,14.5-8.9c7-2.5,22.4-4.6,30.8-4.8c2.9,0,1.7,1.8,1.7,1.8l-2.7,5.7
	c0,0-0.4,1.4-4.7,1.7C467.9,270.6,451.6,271.2,432.6,274.8z"/>
<path class="st13" d="M500.2,270.9c-1.2-1.7-3.3-4-6.1-5.6c-2.2-1.2-4.4-2-6.3-2.4c-2.2-0.4-4-0.5-4.6,1.8l-1.8,7c0,0-0.8,2.2,1.7,2
	c2.5-0.2,15.5-0.7,15.5-0.7C500.3,273,501.5,272.9,500.2,270.9z"/>
<path class="st12" d="M484.2,297.9c0.3-6.7-1.1-18-5.9-17.9c-4.3,0.1-6.6,4.6-7.3,12c0.4-8.5,2.9-13.8,7.5-13.9
	c5.2-0.1,6.4,12.7,5.9,19.1C484.3,297.4,484.2,297.6,484.2,297.9z"/>
<path class="st10" d="M513,294.7c0.2-5.3-0.1-13.8-3-13.7c-2.9,0.1-4.7,7.9-4.4,13.6c0.3-5.6,1.8-12,4.4-12.1
	C512.6,282.4,513.1,289.5,513,294.7L513,294.7z"/>
<path class="st12" d="M500.4,278.1c-6.5,0.3-14.4,0.9-19.3,1.3c0.4,0.5,0.7,1.2,1,1.9c3.4-1,10.9-1.9,17.9-2.8
	C500.1,278.4,500.2,278.2,500.4,278.1z"/>
<path class="st12" d="M470.1,299.8c-0.9,1.3-2.6,1.8-4.2,1.9l-48.7,4.4c-2,0.2-3.5-0.3-4.8-1.1L470.1,299.8z"/>
<path class="st12" d="M505.6,298.1l-18.8,1.7c-2.9,0.3-2.8,0.7-2.6-1.3l21.4-1.8C505.6,297.2,505.6,297.7,505.6,298.1z"/>
<path class="st12" d="M484,288.2c2.9-4.5,17.9-6.6,22,0.5c-0.3,1.9-0.4,4-0.3,5.9c0.1-1.3,0.2-2.7,0.4-4c-0.2,1.8-0.5,4.6-0.5,5.1
	l-21.3,1.5C484.5,294.7,484.4,291.4,484,288.2z"/>
<path class="st14" d="M431.7,289l-16,1.4c-0.6,0.1-1,0.6-1,1.2l0.3,3c0.1,0.6,0.6,1,1.2,1l16-1.4c0.6-0.1,1-0.6,1-1.2l-0.3-3
	C432.8,289.4,432.3,288.9,431.7,289z"/>
<path class="st12" d="M438.9,286.7c10-11.7,28-14.4,31.9-15.2c-3.8,0.5-20.5,2-30.8,11.8c-0.3,0.3-1.7,2.9-2,3.8
	C437.9,287.5,439,286.5,438.9,286.7z"/>
<path class="st9" d="M440.5,282.4c-4.9,0.4-9.8,0.9-14.7,1.3s-9.8,0.9-14.7,1.3c0.1,0.8,0.2,1.6,0.4,2.4c0.1,0.8,0.2,1.6,0.4,2.4
	c4.4-0.4,8.9-0.8,13.3-1.2c4.4-0.4,8.9-0.8,13.3-1.2c0.4-0.8,0.7-1.7,1.1-2.5C439.8,284.1,440.2,283.3,440.5,282.4z"/>
<path class="st6" d="M439.6,283.4c-4.7,0.4-9.3,0.8-14,1.2c-4.6,0.4-9.3,0.8-14,1.2c0.1,0.6,0.2,1.1,0.3,1.7
	c0.1,0.6,0.2,1.1,0.3,1.7c4.3-0.4,8.7-0.8,13-1.2c4.3-0.4,8.7-0.8,13-1.2c0.2-0.6,0.5-1.1,0.7-1.7
	C439.1,284.5,439.3,283.9,439.6,283.4z"/>
<path class="st9" d="M434.2,283c-0.2,0-0.4,0-0.6,0.1c-0.2,0.8-0.4,1.7-0.6,2.5c-0.2,0.8-0.4,1.7-0.6,2.5c0.2,0,0.4,0,0.6-0.1
	c0.2-0.8,0.4-1.7,0.6-2.5C433.8,284.6,434,283.8,434.2,283L434.2,283z M428.3,283.5c-0.2,0-0.4,0-0.6,0.1c-0.1,0.8-0.2,1.6-0.3,2.5
	c-0.1,0.8-0.2,1.6-0.3,2.5c0.2,0,0.4,0,0.6-0.1c0.1-0.8,0.2-1.6,0.3-2.5C428.1,285.2,428.2,284.3,428.3,283.5L428.3,283.5z
	 M422.7,284c-0.2,0-0.4,0-0.6,0c0,0.8,0,1.6,0,2.4c0,0.8,0,1.6,0,2.4c0.2,0,0.4,0,0.5,0c0-0.8,0-1.6,0-2.4
	C422.7,285.6,422.7,284.8,422.7,284L422.7,284z M417,284.5c-0.2,0-0.4,0-0.6,0c0.1,0.8,0.2,1.6,0.2,2.4c0.1,0.8,0.2,1.6,0.2,2.4
	c0.2,0,0.4,0,0.6,0c-0.1-0.8-0.2-1.6-0.2-2.4C417.1,286.1,417,285.3,417,284.5z"/>
<path class="st9" d="M411.4,287.2c0,0.2,0.1,0.5,0.1,0.7c4.6-0.4,9.3-0.8,13.9-1.3c4.6-0.4,9.3-0.8,13.9-1.3
	c0.1-0.2,0.2-0.5,0.3-0.7c-4.7,0.4-9.4,0.8-14.1,1.3C420.8,286.4,416.1,286.8,411.4,287.2z"/>
<path class="st6" d="M466.5,278.4c-3.2-5.2-31.8,7.1-27.5,11C440.7,291,470.9,285.6,466.5,278.4z"/>
<path class="st6" d="M409.4,285.5c1.3,1.8,2.1,3.6,1.8,5.1c-0.1,0.7-1.5,0.8-3.2,0.2C407.7,289.2,408,287.1,409.4,285.5z"/>
<ellipse transform="matrix(0.996 -8.970869e-02 8.970869e-02 0.996 -24.8293 41.9166)" class="st6" cx="453.9" cy="297.2" rx="3.4" ry="2.5"/>
<path class="st12" d="M409.4,297.1c0.9,3.2,4.8,5.5,9.2,5.1l16.5-1.5c4.4-0.4,7.8-3.3,8.2-6.6L409.4,297.1z"/>
<ellipse transform="matrix(0.996 -8.970869e-02 8.970869e-02 0.996 -24.8136 42.0323)" class="st9" cx="455.2" cy="297.1" rx="2.1" ry="2"/>
<ellipse transform="matrix(0.996 -8.970869e-02 8.970869e-02 0.996 -24.7641 42.0256)" class="st15" cx="455.1" cy="296.5" rx="1.5" ry="1.4"/>
<ellipse transform="matrix(0.996 -8.970869e-02 8.970869e-02 0.996 -23.5685 41.908)" class="st9" cx="454.4" cy="283.1" rx="3.3" ry="3.3"/>
<path class="st15" d="M454.1,279.9c1.6-0.1,3,0.8,3.5,2.3c-0.2,1.5-1.4,2.7-3,2.9c-1.6,0.1-3-0.8-3.5-2.3
	C451.3,281.2,452.6,280,454.1,279.9z"/>
<ellipse transform="matrix(0.996 -8.970869e-02 8.970869e-02 0.996 -23.341 42.4781)" class="st9" cx="460.9" cy="280.9" rx="2.1" ry="2.1"/>
<path class="st15" d="M460.7,278.8c1-0.1,1.9,0.5,2.2,1.5c-0.1,1-0.9,1.7-1.9,1.8c-1,0.1-1.9-0.5-2.2-1.5
	C458.9,279.7,459.7,278.9,460.7,278.8z"/>
<ellipse transform="matrix(0.996 -8.970869e-02 8.970869e-02 0.996 -23.8218 41.2765)" class="st9" cx="447.3" cy="285.6" rx="2.7" ry="2.7"/>
<path class="st15" d="M447,283c1.3-0.1,2.4,0.7,2.8,1.9c-0.2,1.2-1.2,2.2-2.4,2.3c-1.3,0.1-2.4-0.7-2.8-1.9
	C444.8,284.1,445.8,283.1,447,283z"/>
<path class="st9" d="M408.6,286.6c0.6,0.3,1,0.8,1.1,1.5c0.1,1-0.7,1.9-1.7,2c0,0-0.1,0-0.1,0C407.9,289,408,287.8,408.6,286.6z"/>
<path class="st15" d="M408.6,286.6c0.5,0.2,0.8,0.6,1,1.1c-0.1,0.8-0.8,1.5-1.6,1.6l0,0C408,288.4,408.2,287.5,408.6,286.6z"/>
<path class="st16" d="M489.9,262.1c-5.6-1.4-7.3,0.7-7.9,2.7l-1.5,5.3c-0.5,1.7-4,1.5-6.8,1.8c-2.8,0.3-19.7,2.3-29,9.6
	c7.9-7.3,26.3-10.3,29.1-10.6c2.8-0.3,4.9-0.7,5.4-2.4l2.1-5.7C481.9,260.8,485,260.8,489.9,262.1z"/>
<path class="st17" d="M440.9,289c-0.2-3.4,19.8-11.4,24.3-9.3C462.7,275.5,437.5,285.8,440.9,289L440.9,289z M410.3,290
	c-0.1-0.8-0.8-1.7-2-2.6c0.1-0.2,0.2-0.4,0.2-0.6C409.9,287.9,410.7,289,410.3,290z"/>
<path class="st14" d="M437.1,271.4c2.8-1.9,6.5-4.2,10.1-5.5c7-2.5,22.4-4.6,30.8-4.8c0.3,0,0.5,0,0.7,0
	C465.8,269,448.9,271.6,437.1,271.4z"/>
<path class="st14" d="M496.2,266.7c-0.7-0.5-1.4-1-2.2-1.4c-2.2-1.2-4.4-2-6.3-2.4c-2.2-0.4-4-0.5-4.6,1.8l-1.6,6.2
	C485.8,270.8,490.9,270.2,496.2,266.7z"/>
<path class="st9" d="M500.8,278.3c1.3,0,2.5-0.1,3.8-0.1c0.4,0,0.7,0.3,0.7,0.7c0,0.2,0,0.4,0,0.5c0.1,1.2-5,1.4-5.1,0.2
	c0-0.2,0-0.4,0-0.5C500.2,278.7,500.4,278.4,500.8,278.3z"/>
<path class="st6" d="M500.8,278.3c1.3-0.1,2.5-0.1,3.8-0.2c0.4,0,0.7,0.2,0.7,0.4c0,0.1,0,0.2,0,0.3c0.1,0.7-5.1,1-5.1,0.3
	c0-0.1,0-0.2,0-0.3C500.1,278.6,500.4,278.4,500.8,278.3z"/>
<path class="st14" d="M453.7,295.2c-1.5,0.1-2.6,1.1-2.5,2.2c0,0.3,0.1,0.5,0.3,0.8c0-0.1,0-0.2-0.1-0.3c-0.1-1.2,1.1-2.3,2.7-2.4
	c0.6-0.1,1.2,0,1.7,0.2C455.3,295.3,454.6,295.1,453.7,295.2z"/>
<path class="st16" d="M441,281.2c-15.1,0.4-19.6,1.4-27.2,2.7c5-5.2,13.1-7,16.9-8.1c3.3-0.7,25.9-4.1,35-4.3
	C460.8,272.4,449.3,274.5,441,281.2z"/>
<path class="st12" d="M480.4,270.2l5.8-1.7c3.2-0.9,3.7,5,0.5,5.3l-5.5,0.5C479.5,274.3,479.1,270.7,480.4,270.2z"/>
<path class="st16" d="M480.7,270.1l5.1-1.5c2.8-0.8,3.3,4.4,0.4,4.6l-4.8,0.4C479.9,273.7,479.6,270.6,480.7,270.1z"/>
</svg>
