<?xml version="1.0" encoding="utf-8"?>
<!-- Generator: Adobe Illustrator 21.0.2, SVG Export Plug-In . SVG Version: 6.00 Build 0)  -->
<svg version="1.1" id="Layer_1" xmlns="http://www.w3.org/2000/svg" xmlns:xlink="http://www.w3.org/1999/xlink" x="0px" y="0px"
	 viewBox="0 0 864 410" style="enable-background:new 0 0 864 410;" xml:space="preserve">
<style type="text/css">
	.st0{fill:#BFACB8;}
	.st1{fill:#B7E274;}
	.st2{fill:#EDA966;}
	.st3{fill:#2D3E5B;}
	.st4{fill:#241C22;}
	.st5{fill-rule:evenodd;clip-rule:evenodd;fill:#131313;}
	.st6{fill-rule:evenodd;clip-rule:evenodd;fill:#808080;}
	.st7{fill-rule:evenodd;clip-rule:evenodd;fill:#CCCCCC;stroke:#000000;stroke-width:0.5669;stroke-miterlimit:22.9256;}
	.st8{fill-rule:evenodd;clip-rule:evenodd;fill:#B3B3B3;}
	.st9{fill-rule:evenodd;clip-rule:evenodd;fill:#4C4C4C;}
	.st10{fill-rule:evenodd;clip-rule:evenodd;fill:#FFD100;}
	.st11{fill-rule:evenodd;clip-rule:evenodd;fill:#EEB700;}
	.st12{fill-rule:evenodd;clip-rule:evenodd;fill:#DDDDDD;}
	.st13{fill-rule:evenodd;clip-rule:evenodd;fill:#FFFFFF;}
	.st14{fill-rule:evenodd;clip-rule:evenodd;fill:#E6E6E6;}
	.st15{fill-rule:evenodd;clip-rule:evenodd;fill:#FFE56B;}
	.st16{opacity:0.5;fill-rule:evenodd;clip-rule:evenodd;fill:#FFFFFF;}
	.st17{fill:#FFEB7A;}
	.st18{fill:#F7B500;}
	.st19{fill:#EB9D00;}
	.st20{fill:#CCDDFF;}
	.st21{fill:#FFCA00;}
	.st22{fill:#B6B7B8;}
	.st23{fill:#F0F0F0;}
	.st24{fill:#D4D5D7;}
	.st25{fill:#C7C8C9;}
	.st26{fill:#E5E6E8;}
	.st27{fill:#DBDBDB;}
	.st28{fill:#BCF1FF;}
	.st29{fill:#68D6F9;}
	.st30{fill:#DBDCDE;}
	.st31{opacity:0.3;fill:#55D6D2;}
	.st32{enable-background:new    ;}
	.st33{fill:#414D54;}
	.st34{fill:#5F7078;}
	.st35{fill:#B0ACA8;}
	.st36{fill:#FFF9F5;}
	.st37{fill:#D4CFCB;}
	.st38{fill:#8B9B00;}
	.st39{fill:#566000;}
	.st40{fill:#93A300;}
	.st41{fill:#FDA713;}
	.st42{fill:#FD8813;}
	.st43{fill:#FDB813;}
	.st44{fill:#840C0C;}
	.st45{fill:#F71616;}
	.st46{fill:#8B0C0C;}
	.st47{fill:#96180C;}
	.st48{fill:#F12613;}
	.st49{fill:#D12110;}
	.st50{fill:#D14436;}
	.st51{fill:#B1C2E3;}
	.st52{fill:#A9BBDF;}
	.st53{fill:#D0D9EA;}
	.st54{fill:#B7C4DF;}
	.st55{fill:#D7D8DA;}
	.st56{fill:#E1E4EA;}
	.st57{fill:#868687;}
	.st58{fill:#BFCBE3;}
	.st59{clip-path:url(#SVGID_2_);enable-background:new    ;}
	.st60{clip-path:url(#SVGID_4_);enable-background:new    ;}
	.st61{fill:#71C6DB;}
	.st62{fill:#49B8B5;}
	.st63{fill:#374246;}
	.st64{fill:#56676E;}
	.st65{fill:#89D8E8;}
	.st66{fill:#60A8BA;}
	.st67{clip-path:url(#SVGID_6_);enable-background:new    ;}
	.st68{fill:#174969;}
	.st69{clip-path:url(#SVGID_8_);}
	.st70{fill:#72CFE3;}
	.st71{fill:#BBC3D3;}
	.st72{fill:#A4B0C8;}
	.st73{fill:#FFD900;}
	.st74{fill:#093F61;}
	.st75{fill:#0A4B73;}
	.st76{fill:#0B507A;}
	.st77{fill:#9C493F;}
	.st78{fill:#DE4B38;}
	.st79{fill:#FA8778;}
	.st80{fill:#07334E;}
	.st81{fill:#025074;}
	.st82{fill:#71CFF3;}
	.st83{fill:#FAFBFD;}
	.st84{fill:#7AA6AE;}
	.st85{fill:#88B9C3;}
	.st86{clip-path:url(#SVGID_10_);enable-background:new    ;}
	.st87{fill:#9ED7E2;}
	.st88{clip-path:url(#SVGID_12_);enable-background:new    ;}
	.st89{fill:#7EACB5;}
	.st90{fill:#6F979E;}
	.st91{fill:#557379;}
	.st92{fill:#64616C;}
	.st93{fill:#BDBDBD;}
	.st94{fill:#ECC6AF;}
	.st95{fill:#969696;}
	.st96{fill:#D7D7D7;}
	.st97{fill:#7A7A7A;}
	.st98{fill:#8E8A80;}
	.st99{fill:#E2E8F2;}
	.st100{fill:#DAE1EB;}
	.st101{fill:#ECECEC;}
	.st102{fill:#E6EDF7;}
	.st103{fill:#C1D8F7;}
	.st104{fill:#2574A8;}
	.st105{fill:#844810;}
	.st106{fill:#D9E6F7;}
	.st107{fill:#22A6EF;}
	.st108{fill:#6BB8EF;}
	.st109{fill:#F26E30;}
	.st110{fill:#FCE5F3;}
	.st111{fill:#FCCCE9;}
	.st112{fill:#CCA5BD;}
	.st113{fill:#FDB5E3;}
	.st114{fill:#EDF4F9;}
	.st115{fill:url(#SVGID_13_);}
	.st116{fill:url(#SVGID_14_);}
	.st117{fill:url(#SVGID_15_);}
	.st118{fill:url(#SVGID_16_);}
	.st119{fill:url(#SVGID_17_);}
	.st120{fill:url(#SVGID_18_);}
	.st121{fill:url(#SVGID_19_);}
	.st122{fill:url(#SVGID_20_);}
	.st123{fill:url(#SVGID_21_);}
	.st124{fill:url(#SVGID_22_);}
	.st125{fill:url(#SVGID_23_);}
	.st126{fill:#FEC111;}
	.st127{fill:#FA624E;}
	.st128{fill:#BD1630;}
	.st129{fill:#FF627B;}
	.st130{clip-path:url(#SVGID_25_);enable-background:new    ;}
	.st131{clip-path:url(#SVGID_27_);enable-background:new    ;}
	.st132{clip-path:url(#SVGID_29_);enable-background:new    ;}
	.st133{clip-path:url(#SVGID_31_);}
	.st134{fill:#A1B400;}
	.st135{fill:#B3D246;}
	.st136{fill:#798700;}
	.st137{fill:#230E01;}
	.st138{fill:#5B3520;}
	.st139{fill:#9F9B90;}
	.st140{fill:#2B1101;}
	.st141{fill:#5A3520;}
	.st142{fill:#692901;}
	.st143{fill:#3D1701;}
	.st144{fill:#4A2C1A;}
	.st145{fill:#4C1C01;}
	.st146{fill:#572201;}
	.st147{clip-path:url(#SVGID_33_);enable-background:new    ;}
	.st148{clip-path:url(#SVGID_35_);enable-background:new    ;}
	.st149{opacity:0.3;}
	.st150{fill:#55D6D2;}
	.st151{fill:#C2D288;}
	.st152{fill:#829100;}
	.st153{clip-path:url(#SVGID_37_);enable-background:new    ;}
	.st154{clip-path:url(#SVGID_39_);enable-background:new    ;}
	.st155{fill:#EDDACE;}
	.st156{fill:#FFFFFF;}
	.st157{fill:#EDCAB4;}
	.st158{fill:#1D2225;}
	.st159{fill:#171B1D;}
	.st160{fill:#2B3236;}
	.st161{fill:#1D2124;}
	.st162{fill:#8B9895;}
	.st163{fill:#191919;}
	.st164{fill:#141414;}
	.st165{fill:#252525;}
	.st166{fill:#707B78;}
	.st167{fill:#8C9A97;}
	.st168{fill:url(#SVGID_40_);}
	.st169{fill:url(#SVGID_41_);}
	.st170{fill:url(#SVGID_42_);}
	.st171{fill:url(#SVGID_43_);}
	.st172{fill:url(#SVGID_44_);}
	.st173{fill:url(#SVGID_45_);}
	.st174{fill:url(#SVGID_46_);}
	.st175{fill:url(#SVGID_47_);}
	.st176{fill:url(#SVGID_48_);}
	.st177{fill:url(#SVGID_49_);}
	.st178{fill:url(#SVGID_50_);}
	.st179{clip-path:url(#SVGID_52_);enable-background:new    ;}
	.st180{clip-path:url(#SVGID_54_);enable-background:new    ;}
	.st181{clip-path:url(#SVGID_56_);enable-background:new    ;}
	.st182{clip-path:url(#SVGID_58_);}
	.st183{fill:#CAED4F;}
	.st184{fill:#F25B14;}
	.st185{opacity:0.8;}
	.st186{fill:#0084FF;}
	.st187{fill:#13D5FD;}
	.st188{fill:#0FACCC;}
	.st189{fill:#68E3FD;}
	.st190{fill:#E49B1D;}
	.st191{fill:#FEFEFF;}
	.st192{fill:#F85B30;}
	.st193{fill:#CCCCCC;}
	.st194{fill:#FF4A39;}
	.st195{fill:#F29163;}
	.st196{fill:#C45927;}
	.st197{fill:#5AC3F2;}
	.st198{fill:#079FE3;}
	.st199{fill:#0FB4E7;}
	.st200{fill:#008BC9;}
	.st201{fill:#2C1A22;}
	.st202{fill:#351F29;}
	.st203{fill:#3E242F;}
	.st204{fill:#37202A;}
	.st205{fill:#E5DEFF;}
	.st206{fill:#AAAEE8;}
	.st207{fill:#878AB8;}
	.st208{fill:#D3C7FF;}
	.st209{fill:#8B5231;}
	.st210{fill:#EDC7AF;}
	.st211{fill:#F0E5DF;}
	.st212{fill:#FFAA00;}
	.st213{fill:#D4602A;}
	.st214{fill:#FFBB00;}
	.st215{fill:#F5EEDD;}
	.st216{fill:#082034;}
	.st217{fill:#B73D34;}
	.st218{fill:#B53100;}
	.st219{fill:#D3830D;}
	.st220{fill:#D1DCE6;}
	.st221{fill:#0C2F4B;}
	.st222{fill:#CC3700;}
	.st223{fill:#EB5A49;}
	.st224{fill:#FBAB20;}
	.st225{fill:url(#SVGID_59_);}
	.st226{fill:url(#SVGID_60_);}
	.st227{fill:url(#SVGID_61_);}
	.st228{fill:url(#SVGID_62_);}
	.st229{fill:url(#SVGID_63_);}
	.st230{fill:url(#SVGID_64_);}
	.st231{fill:url(#SVGID_65_);}
	.st232{fill:url(#SVGID_66_);}
	.st233{fill:url(#SVGID_67_);}
	.st234{fill:#374859;}
	.st235{fill:#1F2B35;}
	.st236{fill:#9C9C9C;}
	.st237{fill:#919191;}
	.st238{fill:#5BD2D9;}
	.st239{fill:#357B7F;}
	.st240{fill:#398388;}
	.st241{fill:#F9F9F9;}
	.st242{fill:#388224;}
	.st243{fill:#D9F9FF;}
	.st244{fill:#F9A908;}
	.st245{fill:#3A800D;}
	.st246{fill:#4CA611;}
	.st247{fill:#FFF4DE;}
	.st248{fill:#F8BE3B;}
	.st249{fill:#C7F6FF;}
	.st250{fill:#59AA0D;}
	.st251{fill:#60AE18;}
	.st252{fill:#5BBC08;}
	.st253{fill:#50B431;}
	.st254{fill:#F81616;}
	.st255{fill:#0C5D8F;}
	.st256{fill:#FFA323;}
	.st257{fill:#7295AA;}
	.st258{fill:#FF8D23;}
	.st259{fill:#FFB923;}
	.st260{fill:#072E47;}
	.st261{fill:#E4EBF0;}
	.st262{fill:#F5F5F2;}
	.st263{fill:#C7CCD1;}
	.st264{fill:#BEC2C7;}
	.st265{fill:#DBE1E6;}
	.st266{fill:#BD9649;}
	.st267{fill:#655027;}
	.st268{fill:#927438;}
	.st269{fill:#B48F45;}
	.st270{fill:#704227;}
	.st271{fill:#4E2E1B;}
	.st272{fill:#4E2D1B;}
	.st273{fill:#915533;}
	.st274{fill:#CFD4D5;}
	.st275{fill:url(#SVGID_68_);}
	.st276{fill:#B8B9BA;}
	.st277{fill:#C8D1E3;}
	.st278{clip-path:url(#SVGID_70_);}
	.st279{opacity:0.2;fill:#00EBFF;}
	.st280{opacity:0.4;fill:#00EBFF;}
	.st281{clip-path:url(#SVGID_72_);enable-background:new    ;}
	.st282{clip-path:url(#SVGID_74_);enable-background:new    ;}
	.st283{clip-path:url(#SVGID_76_);enable-background:new    ;}
	.st284{clip-path:url(#SVGID_78_);enable-background:new    ;}
	.st285{clip-path:url(#SVGID_80_);enable-background:new    ;}
	.st286{clip-path:url(#SVGID_82_);enable-background:new    ;}
	.st287{clip-path:url(#SVGID_84_);enable-background:new    ;}
	.st288{clip-path:url(#SVGID_86_);}
	.st289{fill:#90DAFD;}
	.st290{fill:#19B4FD;}
	.st291{fill:#138DC7;}
	.st292{fill:#56C7FD;}
	.st293{fill:#B2B2B2;}
	.st294{fill:#378A87;}
	.st295{fill:#4ABBB8;}
	.st296{fill:#40A19E;}
	.st297{fill:#358683;}
	.st298{fill:#1E2022;}
	.st299{fill:#9E9E9E;}
	.st300{fill:#7B7B7B;}
	.st301{fill:#999999;}
	.st302{fill:#DFB100;}
	.st303{fill:#BF9800;}
	.st304{fill:#9F7E00;}
	.st305{fill:#9F5713;}
	.st306{fill:#3E9C99;}
	.st307{fill:#303437;}
	.st308{fill:#B1D132;}
	.st309{fill:#D3D3D3;}
	.st310{fill:#A55B14;}
	.st311{fill:#838383;}
	.st312{fill:#2B2E31;}
	.st313{fill:#F1C40F;}
	.st314{clip-path:url(#SVGID_88_);enable-background:new    ;}
	.st315{clip-path:url(#SVGID_90_);enable-background:new    ;}
	.st316{fill:#2D6986;}
	.st317{fill:#3B89AF;}
	.st318{clip-path:url(#SVGID_92_);enable-background:new    ;}
	.st319{clip-path:url(#SVGID_94_);enable-background:new    ;}
	.st320{clip-path:url(#SVGID_96_);enable-background:new    ;}
	.st321{clip-path:url(#SVGID_98_);}
	.st322{fill:#50B8EA;}
	.st323{fill:#FDCF60;}
	.st324{fill:#EDD9CC;}
	.st325{fill:#EDAF87;}
	.st326{fill:#FEF7E5;}
	.st327{fill:#55A1C2;}
	.st328{fill:#62C3ED;}
	.st329{fill:#2EABE3;}
	.st330{fill:#2792C2;}
	.st331{fill:#61B8DE;}
	.st332{fill:#70D4FF;}
	.st333{fill:#8854EA;}
	.st334{fill:#8D8E87;}
	.st335{fill:#B9B9B0;}
	.st336{fill:#CDE7F3;}
	.st337{fill:#D3DDDF;}
	.st338{fill:#E9E9EA;}
	.st339{opacity:0.1;fill:#1F1D1B;}
	.st340{fill:#606365;}
	.st341{fill:#D8D9DA;}
	.st342{opacity:0.6;fill:#FFFFFF;}
	
		.st343{fill:none;stroke:#FFFFFF;stroke-width:0.1919;stroke-linecap:round;stroke-linejoin:round;stroke-miterlimit:10;stroke-dasharray:0.9593,0.9593,0.9593,0.9593,0.9593,0.9593;}
	.st344{opacity:5.000000e-02;fill:#1F1D1B;}
	.st345{fill:#E1BB95;}
	.st346{fill:#E1C7A0;}
	.st347{fill:#B89A7C;}
	.st348{fill:#E2E3E4;}
	.st349{fill:#EDEDEE;}
	.st350{opacity:5.000000e-02;}
	.st351{fill:#1F1D1B;}
	.st352{opacity:0.4;fill:#66BBDB;}
	.st353{fill:#F5F5F5;}
	.st354{fill:#917A62;}
	.st355{fill:#ECEDED;}
	.st356{fill:#D5D7D8;}
	.st357{fill:#D3EDF0;}
	.st358{fill:#E5E9EB;}
	.st359{fill:#C2C6C9;}
	.st360{opacity:0.6;fill:#66BBDB;}
	.st361{fill:#EEF3F6;}
	.st362{fill:none;stroke:#D9DDE0;stroke-width:0.1919;stroke-miterlimit:10;}
	.st363{fill:#BFC1C2;}
	.st364{fill:#DCDDDE;}
	.st365{fill:#EFEFF0;}
	.st366{fill:#D0D2D3;}
	.st367{fill:#EBEFF2;}
	.st368{fill:#D9DDE0;}
	.st369{opacity:0.5;fill:#E1BB95;}
	.st370{fill:#B6B8BA;}
	.st371{fill:#D2B580;}
	.st372{fill:#B8CB33;}
	.st373{fill:#E2C79A;}
	.st374{fill:#89BC40;}
	.st375{opacity:0.3;fill:#E1BB95;}
	.st376{fill:#E19290;}
	.st377{fill:#EDEAE3;}
	.st378{fill:#DF7082;}
	
		.st379{fill:none;stroke:#FFFFFF;stroke-width:0.1214;stroke-linecap:round;stroke-linejoin:round;stroke-miterlimit:10;stroke-dasharray:0.6072,0.6072,0.6072,0.6072,0.6072,0.6072;}
	.st380{opacity:0.1;fill:#231F20;}
	.st381{fill:#58595B;}
	.st382{fill:#DCE0E8;}
	.st383{fill:#A1A3A6;}
	.st384{fill:#8F9194;}
	.st385{fill:#9CB0BD;}
	.st386{fill:#D8DFDF;}
	.st387{fill:#8DA0AC;}
	.st388{fill:#DDE4E8;}
	.st389{clip-path:url(#SVGID_100_);}
	.st390{opacity:0.4;fill:none;stroke:#9CB0BD;stroke-width:0.286;stroke-linecap:round;stroke-miterlimit:10;}
	.st391{fill:#CADDE7;}
	.st392{fill:none;stroke:#FFFFFF;stroke-width:0.1919;stroke-miterlimit:10;}
	.st393{clip-path:url(#SVGID_102_);fill:#B8CB33;}
	.st394{clip-path:url(#SVGID_104_);fill:#B8CB33;}
	.st395{fill:#E9E5B5;}
	.st396{fill:#EEECD3;}
	.st397{fill:#CEDBDF;}
	.st398{clip-path:url(#SVGID_106_);fill:#B8CB33;}
	.st399{fill:#29ABE2;}
	.st400{fill:#F4F4F4;}
	.st401{fill:#006EC3;}
	.st402{fill:#DADADA;}
	.st403{fill:#EBEAEA;}
	.st404{opacity:0.6;fill:#A96A26;}
	.st405{opacity:0.4;fill:#A96A26;}
	.st406{opacity:0.4;fill:#FFFFFF;}
	.st407{opacity:0.4;}
	.st408{opacity:0.4;fill:#7B4E19;}
	.st409{fill:#AF522E;}
	.st410{fill:#D6C3A2;}
	.st411{fill:#A78D6A;}
	.st412{opacity:0.3;fill:#FFAA73;}
	.st413{opacity:0.8;fill:#D6C3A2;}
	.st414{fill:#809F20;}
	.st415{fill:#648C08;}
	.st416{opacity:0.5;fill:#648C08;}
	.st417{fill:#788E1A;}
	.st418{fill:#AAC844;}
	.st419{fill:#84AE0C;}
	.st420{fill:#9FB739;}
	.st421{fill:#97A833;}
	.st422{opacity:0.5;fill:#DADADA;}
	.st423{fill:#BF6A1D;}
	.st424{opacity:0.5;fill:#BF6A1D;}
	.st425{opacity:0.5;fill:#BF6310;}
	.st426{fill:#F9861E;}
	.st427{fill:#D06716;}
	.st428{fill:#ED7818;}
	.st429{fill:#A25A20;}
	.st430{fill:#7F4619;}
	.st431{fill:#6B3713;}
	.st432{opacity:0.3;fill:#A25A20;}
	.st433{fill:#93521C;}
	.st434{fill:#603111;}
	.st435{fill:#327C0A;}
	.st436{opacity:0.3;fill:#327C0A;}
	.st437{fill:#DBA216;}
	.st438{fill:#FFD44D;}
	.st439{fill:#FFC524;}
	.st440{opacity:0.5;fill:#723B16;}
	.st441{opacity:0.4;fill:#603111;}
	.st442{opacity:0.4;fill:#D38144;}
	.st443{opacity:0.5;fill:#F9AB21;}
	.st444{opacity:0.5;}
	.st445{fill:#AA6102;}
	.st446{fill:#8E4F03;}
	.st447{fill:#864000;}
	.st448{opacity:0.5;fill:#AA6102;}
	.st449{fill:#C6862C;}
	.st450{fill:#C17500;}
	.st451{fill:#E6B75F;}
	.st452{fill:#BA842D;}
	.st453{opacity:0.5;fill:#C17500;}
	.st454{fill:#461800;}
	.st455{fill:#58991F;}
	.st456{fill:#97C740;}
	.st457{opacity:0.5;fill:#97C740;}
	.st458{fill:#68B42E;}
	.st459{fill:#3E9F32;}
	.st460{fill:#E1CCBB;}
	.st461{fill:#EF7E8A;}
	.st462{fill:#F5ACA2;}
	.st463{fill:#F39B99;}
	.st464{fill:#FFFBDC;}
	.st465{fill:#E5D5BE;}
	.st466{fill:#C15914;}
	.st467{opacity:0.5;fill:#C15914;}
	.st468{fill:#E57428;}
	.st469{fill:#C15B16;}
	.st470{opacity:0.5;fill:#E57428;}
	.st471{fill:#DB6C21;}
	.st472{fill:#9E6A1E;}
	.st473{fill:#DBBA4F;}
	.st474{opacity:0.5;fill:#DBBA4F;}
	.st475{fill:#E8CA5C;}
	.st476{fill:#955913;}
	.st477{fill:#C4903C;}
	.st478{fill:#FAED8D;}
	.st479{fill:#89BD27;}
	.st480{fill:#A97623;}
	.st481{fill:#0A58B5;}
	.st482{fill:#D0D0D0;}
	.st483{fill:#DCA35E;}
	.st484{fill:#D29654;}
	.st485{fill:#EAC07E;}
	.st486{fill:#E9BA6E;}
	.st487{fill:#F2CB84;}
	.st488{fill:#FFDC92;}
	.st489{opacity:0.4;fill:#D29654;}
	.st490{fill:#F5CD86;}
	.st491{fill:#E7B165;}
	.st492{fill:#F2C483;}
	.st493{fill:#E4AC6C;}
	.st494{fill:#FAD58C;}
	.st495{fill:#DCAB63;}
	.st496{opacity:0.5;fill:#D29654;}
	.st497{opacity:0.5;fill:#E9BA6E;}
	.st498{fill:#FFE6A9;}
	.st499{fill:#FFD794;}
	.st500{fill:#EEBE71;}
	.st501{opacity:0.6;}
	.st502{opacity:0.9;}
	.st503{fill:#BC2C00;}
	.st504{fill:#9E1E00;}
	.st505{opacity:0.5;fill:#BC2C00;}
	.st506{opacity:0.7;fill:#BC2C00;}
	.st507{fill:#6AB432;}
	.st508{fill:#3F9F36;}
	.st509{fill:#8A8F23;}
	.st510{fill:#FFFBDF;}
	.st511{opacity:0.7;fill:#A0BC2B;}
	.st512{opacity:0.7;fill:none;stroke:#A0BC2B;stroke-width:0.5201;stroke-miterlimit:10;}
	.st513{fill:#212121;}
	.st514{fill:#424242;}
	.st515{fill:#6A6A6A;}
	.st516{fill:#616161;}
	.st517{fill:#C4C6C7;}
	.st518{fill:#4D4E4E;}
	.st519{fill:#343536;}
	.st520{fill:#FFEE58;}
	.st521{fill:#2B3B54;}
	.st522{fill:#FBC02D;}
	.st523{fill:#2D2E2E;}
	.st524{fill:#FDD835;}
	.st525{fill:#F08526;}
	.st526{fill:#FFF38A;}
	.st527{fill:#595A59;}
	.st528{fill:#F4A83F;}
</style>
<rect x="-33" y="-18" class="st333" width="930" height="446"/>
<g>
	<g>
		<g>
			<g>
				<polygon class="st334" points="419.8,285.6 350.1,313.4 350.1,361.2 419.8,388.8 				"/>
				<polygon class="st335" points="419.8,285.6 489.6,313.4 489.5,361.2 419.8,389 				"/>
			</g>
			<g>
				<polygon class="st336" points="419.8,286.8 487.9,313.9 487.9,359.6 419.8,332.6 				"/>
				<polyline class="st156" points="419.8,332.6 419.8,331.5 487.9,358.5 487.9,359.6 				"/>
			</g>
			<polygon class="st337" points="487.9,359.6 419.8,386.7 351.8,359.6 419.8,332.6 			"/>
			<g>
				<polygon class="st338" points="419.8,286.8 351.8,313.9 351.8,359.6 419.8,332.6 				"/>
				<polyline class="st156" points="419.8,332.6 419.8,331.5 351.8,358.6 351.8,359.6 				"/>
			</g>
			<ellipse class="st339" cx="471.1" cy="353.9" rx="0.4" ry="0.1"/>
			<ellipse class="st339" cx="468.6" cy="354.5" rx="0.4" ry="0.1"/>
			<g>
				<polygon class="st340" points="405.7,329 406,328.5 369.8,317.5 369.5,318 369.5,343.4 				"/>
				<polygon class="st341" points="406,328.5 406,303.1 369.8,317.5 369.8,342.9 				"/>
				<polygon class="st336" points="404.8,304.9 371,318.4 371,341.1 404.8,327.6 				"/>
				<polygon class="st341" points="388.3,335.1 389.6,334.2 389.6,309.6 388.3,310 				"/>
				<polygon class="st342" points="406.8,301.6 369.2,316.4 369.2,339.1 406.8,324.3 				"/>
				<path class="st156" d="M368.5,316.1c0.1,0.3,0.4,0.4,0.7,0.3l37.5-14.8c0.3-0.1,0.4-0.4,0.3-0.7l0,0c-0.1-0.3-0.4-0.4-0.7-0.3
					l-37.5,14.8C368.5,315.6,368.4,315.9,368.5,316.1L368.5,316.1z"/>
				
					<ellipse transform="matrix(0.8384 -0.545 0.545 0.8384 -112.6087 252.0904)" class="st335" cx="368.9" cy="316" rx="0.3" ry="0.4"/>
				
					<ellipse transform="matrix(0.8376 -0.5463 0.5463 0.8376 -112.7097 252.8571)" class="st335" cx="368.9" cy="316" rx="0.1" ry="0.2"/>
				<path class="st343" d="M368.5,342.3c0,0.2,0.2,0.3,0.3,0.3l0,0c0.2,0,0.3-0.1,0.3-0.3v-26.4c0-0.2-0.1-0.3-0.3-0.3l0,0
					c-0.2,0-0.3,0.1-0.3,0.3V342.3z"/>
			</g>
			<g>
				<g>
					<polygon class="st344" points="382.2,353.4 400.5,360.6 444.5,343.7 426.1,336.5 					"/>
					<polygon class="st345" points="382.1,352.8 400.4,360 444.3,343.1 382.1,349.5 					"/>
					<polygon class="st346" points="382.1,349.5 400.4,356.6 444.3,339.7 426,332.5 					"/>
					<polygon class="st347" points="400.4,360 400.4,356.6 444.3,339.7 444.3,343.1 					"/>
					<g>
						<g>
							<g>
								<polygon class="st348" points="384.2,348.7 400.4,355 441.3,339.2 384.2,345.5 								"/>
							</g>
							<g>
								<path class="st348" d="M400.2,355.5l-16.2-6.3c-0.2-0.1-0.3-0.3-0.3-0.4v-3.1c0-0.3,0.2-0.5,0.5-0.5l57.1-6.3
									c0.2,0,0.4,0.2,0.5,0.4c0,0.2-0.1,0.5-0.3,0.5l-40.9,15.8c-0.1,0-0.1,0-0.2,0C400.3,355.5,400.3,355.5,400.2,355.5z
									 M384.6,346v2.3l15.8,6.1l38.2-14.7L384.6,346z"/>
							</g>
						</g>
						<g>
							<g>
								<polygon class="st349" points="400.4,355 400.4,351.9 441.3,336.1 441.3,339.2 								"/>
							</g>
							<g>
								<path class="st349" d="M400.1,355.4c-0.1-0.1-0.2-0.2-0.2-0.4v-3.1c0-0.2,0.1-0.4,0.3-0.5l40.9-15.8c0.1-0.1,0.3,0,0.4,0.1
									c0.1,0.1,0.2,0.2,0.2,0.4v3.1c0,0.2-0.1,0.4-0.3,0.5l-40.9,15.8c-0.1,0-0.1,0-0.2,0C400.3,355.5,400.2,355.5,400.1,355.4z
									 M440.8,336.8l-39.9,15.4v2.1l39.9-15.4V336.8z"/>
							</g>
						</g>
						<path class="st156" d="M384,345.1l40.9-15.8c0.1,0,0.2,0,0.4,0l16.3,6.3c0.2,0.1,0.3,0.3,0.3,0.5c0,0.2-0.1,0.4-0.3,0.4
							l-40.9,15.8c-0.1,0-0.1,0-0.2,0c-0.1,0-0.1,0-0.2,0L384,346c-0.2-0.1-0.3-0.3-0.3-0.5C383.7,345.3,383.8,345.2,384,345.1z"/>
					</g>
				</g>
				<g class="st350">
					<g>
						<path class="st351" d="M440.4,334.6l-12.2-5c0,0-0.9-0.7-5.6,1.3c-4.7,2.1-3.2,2.2-3.2,2.2l11.4,5.3c0,0,6.6-2.6,6.7-2.6
							C437.7,335.8,440.4,334.6,440.4,334.6z"/>
						
							<ellipse transform="matrix(0.9249 -0.3803 0.3803 0.9249 -95.2572 190.931)" class="st351" cx="435.6" cy="336.6" rx="5.1" ry="1"/>
					</g>
				</g>
				<g>
					<path class="st156" d="M440.6,334.3l-12.2-5c0,0-0.9-0.7-5.6,1.3c-4.7,2.1-3.2,2.2-3.2,2.2l11.4,5.3c0,0,6.6-2.6,6.7-2.6
						C437.9,335.5,440.6,334.3,440.6,334.3z"/>
					
						<ellipse transform="matrix(0.9249 -0.3803 0.3803 0.9249 -95.1184 191.0195)" class="st349" cx="435.9" cy="336.2" rx="5.1" ry="1"/>
				</g>
				<polygon class="st352" points="431.2,343.7 431.2,340.6 414.9,333.2 410.7,334.8 426.5,342.4 426.5,345.5 				"/>
			</g>
			<g>
				<polygon class="st344" points="439.5,347.9 443.9,346.3 454.4,350.5 449.9,352.1 				"/>
				<ellipse class="st339" cx="444" cy="347.2" rx="0.3" ry="0.1"/>
				<ellipse class="st339" cx="441.8" cy="347.8" rx="0.3" ry="0.1"/>
				<ellipse class="st339" cx="452.2" cy="350.4" rx="0.3" ry="0.1"/>
				<ellipse class="st339" cx="450" cy="351" rx="0.3" ry="0.1"/>
				<polygon class="st353" points="444.6,334.8 453.5,338.3 453.5,344.4 444.6,340.8 				"/>
				<g>
					<path class="st354" d="M452,350.3c0,0.1,0.1,0.2,0.2,0.2l0,0c0.1,0,0.2-0.1,0.2-0.2v-5.5c0-0.1-0.1-0.2-0.2-0.2l0,0
						c-0.1,0-0.2,0.1-0.2,0.2V350.3z"/>
					<path class="st345" d="M449.8,350.9c0,0.1,0.1,0.2,0.2,0.2l0,0c0.1,0,0.2-0.1,0.2-0.2v-5.5c0-0.1-0.1-0.2-0.2-0.2l0,0
						c-0.1,0-0.2,0.1-0.2,0.2V350.9z"/>
				</g>
				<g>
					<path class="st354" d="M443.8,347.1c0,0.1,0.1,0.2,0.2,0.2l0,0c0.1,0,0.2-0.1,0.2-0.2v-5.5c0-0.1-0.1-0.2-0.2-0.2l0,0
						c-0.1,0-0.2,0.1-0.2,0.2V347.1z"/>
					<path class="st345" d="M441.6,347.7c0,0.1,0.1,0.2,0.2,0.2l0,0c0.1,0,0.2-0.1,0.2-0.2v-5.5c0-0.1-0.1-0.2-0.2-0.2l0,0
						c-0.1,0-0.2,0.1-0.2,0.2V347.7z"/>
				</g>
				<polygon class="st345" points="440.9,336.7 449.5,340.1 449.5,345.9 440.9,342.5 				"/>
				<polygon class="st347" points="449.5,345.9 453.2,345 453.3,339.3 449.5,340.1 				"/>
				<polygon class="st355" points="440.6,335.6 444.6,334.8 453.5,338.3 449.6,339.2 				"/>
				<polygon class="st353" points="440.6,335.6 449.6,339.2 449.6,345.2 440.6,341.7 				"/>
				<polygon class="st156" points="440.9,338.9 449.3,342.3 449.3,344.7 440.9,341.3 				"/>
				<polygon class="st156" points="440.9,336.2 449.3,339.5 449.3,341.9 440.9,338.6 				"/>
				<polygon class="st345" points="444.2,337.5 446,338.2 446,338.8 444.2,338 				"/>
				<polygon class="st345" points="444.2,340.2 446,341 446,341.5 444.2,340.8 				"/>
				<polygon class="st156" points="449.6,345.2 453.5,344.4 453.5,338.3 449.6,339.2 				"/>
			</g>
			<g>
				<g>
					<polygon class="st344" points="415.7,366.1 434.1,373.3 478,356.3 459.6,349.2 					"/>
					<polygon class="st345" points="415.6,365.5 434,372.7 477.9,355.7 415.6,362.1 					"/>
					<polygon class="st346" points="415.6,362.1 434,369.3 477.9,352.4 459.5,345.2 					"/>
					<polygon class="st347" points="434,372.7 434,369.3 477.9,352.4 477.9,355.7 					"/>
					<g>
						<g>
							<g>
								<polygon class="st348" points="417.7,361.4 433.9,367.7 474.8,351.9 417.7,358.2 								"/>
							</g>
							<g>
								<path class="st348" d="M433.8,368.2l-16.2-6.3c-0.2-0.1-0.3-0.3-0.3-0.4v-3.1c0-0.3,0.2-0.5,0.5-0.5l57.1-6.3
									c0.2,0,0.4,0.2,0.5,0.4c0,0.2-0.1,0.5-0.3,0.5l-40.9,15.8c-0.1,0-0.1,0-0.2,0C433.9,368.2,433.8,368.2,433.8,368.2z
									 M418.2,358.7v2.3l15.8,6.1l38.2-14.7L418.2,358.7z"/>
							</g>
						</g>
						<g>
							<g>
								<polygon class="st349" points="433.9,367.7 433.9,364.6 474.8,348.8 474.8,351.9 								"/>
							</g>
							<g>
								<path class="st349" d="M433.7,368.1c-0.1-0.1-0.2-0.2-0.2-0.4v-3.1c0-0.2,0.1-0.4,0.3-0.5l40.9-15.8c0.1-0.1,0.3,0,0.4,0.1
									s0.2,0.2,0.2,0.4v3.1c0,0.2-0.1,0.4-0.3,0.5l-40.9,15.8c-0.1,0-0.1,0-0.2,0C433.8,368.2,433.7,368.2,433.7,368.1z
									 M474.3,349.5l-39.9,15.4v2.1l39.9-15.4V349.5z"/>
							</g>
						</g>
						<path class="st156" d="M417.5,357.8l40.9-15.8c0.1,0,0.2,0,0.4,0l16.3,6.3c0.2,0.1,0.3,0.3,0.3,0.5c0,0.2-0.1,0.4-0.3,0.4
							L434.1,365c-0.1,0-0.1,0-0.2,0c-0.1,0-0.1,0-0.2,0l-16.2-6.3c-0.2-0.1-0.3-0.3-0.3-0.5C417.2,358,417.3,357.8,417.5,357.8z"/>
					</g>
				</g>
				<polygon class="st352" points="458.6,358.7 458.6,355.6 442.3,348.2 438.2,349.8 453.9,357.4 453.9,360.5 				"/>
			</g>
			<g>
				<polygon class="st356" points="430.5,320.6 430.1,308 430.5,307.7 442.1,312.4 442.1,325.3 441.7,325.6 				"/>
				<polygon class="st156" points="430.1,320.9 430.1,308 441.7,312.8 441.7,325.6 				"/>
				<polygon class="st357" points="431.3,309.9 440.5,313.6 440.5,323.8 431.3,320.1 				"/>
			</g>
			<g>
				<polygon class="st356" points="463.6,333.9 463.1,321.3 463.6,321 475.2,325.7 475.2,338.6 474.7,338.9 				"/>
				<polygon class="st156" points="463.1,334.2 463.1,321.3 474.7,326.1 474.7,338.9 				"/>
				<polygon class="st357" points="464.3,323.2 473.5,326.9 473.5,337.1 464.3,333.4 				"/>
			</g>
			<g class="st350">
				<g>
					<path class="st351" d="M475,347.1l-12.2-5c0,0-0.9-0.7-5.6,1.3c-4.7,2.1-3.2,2.2-3.2,2.2l11.4,5.3c0,0,6.6-2.6,6.7-2.6
						C472.3,348.2,475,347.1,475,347.1z"/>
					
						<ellipse transform="matrix(0.9249 -0.3803 0.3803 0.9249 -97.3947 205.0468)" class="st351" cx="470.3" cy="349" rx="5.1" ry="1"/>
				</g>
			</g>
			<g>
				<path class="st156" d="M475.3,346.7l-12.2-5c0,0-0.9-0.7-5.6,1.3c-4.7,2.1-3.2,2.2-3.2,2.2l11.4,5.3c0,0,6.6-2.6,6.7-2.6
					C472.6,347.9,475.3,346.7,475.3,346.7z"/>
				
					<ellipse transform="matrix(0.9249 -0.3803 0.3803 0.9249 -97.2568 205.1398)" class="st349" cx="470.5" cy="348.7" rx="5.1" ry="1"/>
			</g>
		</g>
		<g>
			<g>
				<polygon class="st334" points="730.3,285.6 660.5,313.4 660.6,361.2 730.3,388.8 				"/>
				<polygon class="st335" points="730.3,285.6 800,313.4 800,361.2 730.3,389 				"/>
			</g>
			<g>
				<polygon class="st358" points="730.2,286.8 798.3,313.9 798.3,359.6 730.2,332.6 				"/>
				<polyline class="st359" points="730.2,332.4 730.3,315.4 798.3,342.5 798.3,359.5 				"/>
				<polyline class="st360" points="730.3,332.6 730.3,327.9 798.4,355.1 798.4,359.6 				"/>
				<polyline class="st156" points="730.3,332.6 730.3,331.2 798.4,358.3 798.4,359.6 				"/>
			</g>
			<polygon class="st361" points="798,359.7 730,386.8 661.9,359.7 730,332.6 			"/>
			<g>
				<polygon class="st361" points="798.3,359.6 730.3,386.7 662.2,359.6 730.3,332.6 				"/>
				<g>
					<g>
						<line class="st362" x1="722.3" y1="383.8" x2="790.3" y2="356.7"/>
						<line class="st362" x1="715.6" y1="381.2" x2="783.6" y2="354.1"/>
						<line class="st362" x1="708.9" y1="378.5" x2="776.9" y2="351.5"/>
						<line class="st362" x1="702.3" y1="375.8" x2="770.1" y2="348.8"/>
						<line class="st362" x1="695.6" y1="373.2" x2="763.4" y2="346.2"/>
						<line class="st362" x1="689" y1="370.5" x2="756.7" y2="343.6"/>
						<line class="st362" x1="682.3" y1="367.9" x2="750" y2="340.9"/>
						<line class="st362" x1="675.7" y1="365.2" x2="743.3" y2="338.3"/>
						<line class="st362" x1="669" y1="362.5" x2="736.6" y2="335.6"/>
					</g>
				</g>
				<g>
					<g>
						<line class="st362" x1="737" y1="384" x2="668.6" y2="356.7"/>
						<line class="st362" x1="743.7" y1="381.3" x2="675.3" y2="354.1"/>
						<line class="st362" x1="750.4" y1="378.7" x2="682" y2="351.5"/>
						<line class="st362" x1="757.1" y1="376" x2="688.7" y2="348.8"/>
						<line class="st362" x1="763.7" y1="373.4" x2="695.4" y2="346.2"/>
						<line class="st362" x1="770.4" y1="370.7" x2="702.1" y2="343.6"/>
						<line class="st362" x1="777.1" y1="368.1" x2="708.8" y2="340.9"/>
						<line class="st362" x1="783.7" y1="365.4" x2="715.5" y2="338.3"/>
						<line class="st362" x1="790.4" y1="362.8" x2="722.3" y2="335.6"/>
					</g>
				</g>
			</g>
			<g>
				<g>
					<polygon class="st355" points="733,321.3 775.7,338.2 775.7,355.1 733,338.2 					"/>
					<polygon class="st363" points="775.7,355.1 781.2,353 781.2,336.1 775.7,338.2 					"/>
					<polygon class="st156" points="732.5,319.7 775.8,336.8 775.8,354.1 732.5,337 					"/>
					<polygon class="st364" points="775.8,354.1 781.6,351.9 781.6,334.7 775.8,336.8 					"/>
				</g>
				<g>
					<rect x="739.7" y="322" class="st365" width="0.4" height="18.2"/>
					<rect x="749.6" y="326" class="st365" width="0.4" height="18.2"/>
					<rect x="759.5" y="330" class="st365" width="0.4" height="18.2"/>
					<rect x="769.3" y="333.9" class="st365" width="0.4" height="18.2"/>
				</g>
				<polygon class="st366" points="732.5,319.7 738.3,317.6 781.6,334.7 775.8,336.8 				"/>
			</g>
			<g>
				<polygon class="st367" points="730.3,286.8 661.9,314 661.9,359.7 730.3,332.6 				"/>
				<polyline class="st368" points="730.3,332.5 730.3,315.4 661.9,342.6 661.9,359.7 				"/>
				<polyline class="st352" points="730.3,332.5 730.3,327.9 661.9,355.1 661.9,359.7 				"/>
				<polyline class="st156" points="730.3,332.6 730.3,331.2 661.9,358.4 661.9,359.7 				"/>
			</g>
			<g>
				<polygon class="st365" points="737.9,315.4 737.9,299.4 782.6,317.2 782.6,333.1 				"/>
				<polygon class="st336" points="739.2,301.3 781.3,318 781.3,331.3 739.2,314.5 				"/>
				<rect x="749.7" y="304.5" class="st365" width="1.3" height="15.2"/>
				<rect x="768.1" y="311.9" class="st365" width="1.3" height="15.2"/>
				<polygon class="st342" points="737.2,297.9 783.1,316.1 783.1,324.1 737.2,305.9 				"/>
				<path class="st156" d="M783.8,315.8c-0.1,0.3-0.4,0.4-0.7,0.3L737.3,298c-0.3-0.1-0.4-0.4-0.3-0.7l0,0c0.1-0.3,0.4-0.4,0.7-0.3
					l45.9,18.1C783.8,315.2,783.9,315.5,783.8,315.8L783.8,315.8z"/>
				
					<ellipse transform="matrix(0.545 -0.8385 0.8385 0.545 91.8607 800.5231)" class="st335" cx="783.4" cy="315.6" rx="0.4" ry="0.3"/>
				
					<ellipse transform="matrix(0.5454 -0.8382 0.8382 0.5454 91.6178 800.1766)" class="st335" cx="783.4" cy="315.6" rx="0.2" ry="0.1"/>
				<path class="st343" d="M783.8,341.9c0,0.2-0.1,0.3-0.3,0.3l0,0c-0.2,0-0.3-0.1-0.3-0.3v-26.4c0-0.2,0.1-0.3,0.3-0.3l0,0
					c0.2,0,0.3,0.1,0.3,0.3V341.9z"/>
			</g>
			<g>
				<polygon class="st365" points="701.6,344 701.6,307 668.2,320.7 668.2,357.2 				"/>
				<polygon class="st336" points="700.3,308.9 669.5,321.5 669.5,355.4 700.3,343.1 				"/>
				<rect x="685.2" y="313.5" class="st365" width="1.3" height="36.7"/>
				<polygon class="st342" points="702.3,305.5 667.7,319.6 667.7,350.1 702.3,336.1 				"/>
				<path class="st156" d="M667,319.3c0.1,0.3,0.4,0.4,0.7,0.3l34.6-14c0.3-0.1,0.4-0.4,0.3-0.7l0,0c-0.1-0.3-0.4-0.4-0.7-0.3
					l-34.6,14C667,318.7,666.9,319,667,319.3L667,319.3z"/>
				
					<ellipse transform="matrix(0.8384 -0.545 0.545 0.8384 -66.1007 415.2644)" class="st335" cx="667.4" cy="319.1" rx="0.3" ry="0.4"/>
				
					<ellipse transform="matrix(0.8382 -0.5454 0.5454 0.8382 -66.0577 415.591)" class="st335" cx="667.4" cy="319.1" rx="0.1" ry="0.2"/>
				<path class="st343" d="M667,345.4c0,0.2,0.1,0.3,0.3,0.3l0,0c0.2,0,0.3-0.1,0.3-0.3V319c0-0.2-0.1-0.3-0.3-0.3l0,0
					c-0.2,0-0.3,0.1-0.3,0.3V345.4z"/>
			</g>
			<g>
				<g>
					<g>
						<polygon class="st354" points="710.5,352.1 710,351.9 710,343.6 710.5,343.6 						"/>
						<polygon class="st345" points="710.4,352.1 710.9,351.9 710.9,343.6 710.4,343.6 						"/>
					</g>
					<g>
						<polygon class="st354" points="715.6,354.2 715.2,354 715.2,345.6 715.6,345.6 						"/>
						<polygon class="st345" points="715.6,354.2 716,354 716,345.6 715.6,345.6 						"/>
					</g>
					<g>
						<polygon class="st354" points="721.4,351.9 720.9,351.8 720.9,343.4 721.4,343.4 						"/>
						<polygon class="st345" points="721.3,351.9 721.8,351.8 721.8,343.4 721.3,343.4 						"/>
						<polygon class="st345" points="715.6,354.2 716,354 716,345.6 715.6,345.6 						"/>
						<polygon class="st345" points="721.3,351.9 721.8,351.8 721.8,343.4 721.3,343.4 						"/>
					</g>
					<polygon class="st345" points="721.8,344.5 715.7,346.8 710,344.6 710,343.4 721.8,343.3 					"/>
					<polygon class="st345" points="715.6,344.9 715.6,346.8 710,344.6 710,343.1 					"/>
				</g>
				<polygon class="st354" points="723.2,343.2 715.9,346 709,343.3 709,342.9 723.2,342.8 				"/>
				<polygon class="st354" points="716.4,330.2 709.1,333.1 709,342.9 716.4,344 716.7,330.4 				"/>
				<polygon class="st345" points="723.2,342.8 715.9,345.7 709.4,343 716.7,340.2 				"/>
				<polygon class="st345" points="716.7,330.4 709.4,333.2 709.4,343 716.7,340.2 				"/>
				<polygon class="st369" points="716.7,330.4 709.4,333.2 709.4,343 716.7,340.2 				"/>
			</g>
			<g>
				<g>
					<g>
						<polygon class="st354" points="699.2,356.8 698.8,356.7 698.8,348.3 699.2,348.3 						"/>
						<polygon class="st345" points="699.2,356.8 699.6,356.7 699.6,348.3 699.2,348.3 						"/>
					</g>
					<g>
						<polygon class="st354" points="704.4,358.9 704,358.7 704,350.3 704.4,350.3 						"/>
						<polygon class="st345" points="704.4,358.9 704.8,358.7 704.8,350.3 704.4,350.3 						"/>
					</g>
					<g>
						<polygon class="st354" points="710.2,356.7 709.7,356.5 709.7,348.1 710.2,348.1 						"/>
						<polygon class="st345" points="710.1,356.7 710.6,356.5 710.6,348.1 710.1,348.1 						"/>
						<polygon class="st345" points="704.4,358.9 704.8,358.7 704.8,350.3 704.4,350.3 						"/>
						<polygon class="st345" points="710.1,356.7 710.6,356.5 710.6,348.1 710.1,348.1 						"/>
					</g>
					<polygon class="st345" points="710.6,349.2 704.4,351.6 698.8,349.3 698.8,348.1 710.6,348 					"/>
					<polygon class="st345" points="704.4,349.7 704.4,351.6 698.8,349.3 698.8,347.8 					"/>
				</g>
				<polygon class="st354" points="712,347.9 704.7,350.8 697.8,348 697.8,347.6 712,347.5 				"/>
				<polygon class="st354" points="705.2,334.9 697.9,337.8 697.8,347.6 705.2,348.7 705.5,335.1 				"/>
				<polygon class="st345" points="712,347.5 704.7,350.4 698.1,347.7 705.5,344.9 				"/>
				<polygon class="st345" points="705.5,335.1 698.2,337.9 698.1,347.8 705.5,344.9 				"/>
				<polygon class="st369" points="705.5,335.1 698.2,337.9 698.1,347.8 705.5,344.9 				"/>
			</g>
			<g>
				<polygon class="st356" points="714.4,313.9 714.7,304.9 714.4,304.7 706.1,308.1 706.1,317.3 706.4,317.5 				"/>
				<polygon class="st156" points="714.7,314.1 714.7,304.9 706.4,308.3 706.4,317.5 				"/>
				<polygon class="st357" points="713.8,306.2 707.3,308.9 707.3,316.2 713.8,313.5 				"/>
				<polygon class="st356" points="724.8,309.7 725.1,300.7 724.8,300.5 716.4,303.9 716.4,313.1 716.7,313.3 				"/>
				<polygon class="st156" points="725.1,309.9 725.1,300.7 716.7,304.1 716.7,313.3 				"/>
				<polygon class="st357" points="724.2,302 717.6,304.7 717.6,312 724.2,309.3 				"/>
			</g>
			<g>
				<g>
					<g>
						<polygon class="st354" points="745.9,349.4 746.4,349.2 746.4,340.8 745.9,340.8 						"/>
						<polygon class="st345" points="746,349.4 745.5,349.2 745.5,340.8 746,340.8 						"/>
					</g>
					<g>
						<polygon class="st354" points="740.8,351.5 741.2,351.3 741.2,342.9 740.8,342.9 						"/>
						<polygon class="st345" points="740.8,351.5 740.4,351.3 740.4,342.9 740.8,342.9 						"/>
					</g>
					<g>
						<polygon class="st354" points="735,349.2 735.5,349 735.5,340.6 735,340.6 						"/>
						<polygon class="st345" points="735,349.2 734.6,349 734.6,340.6 735,340.6 						"/>
						<polygon class="st345" points="740.8,351.5 740.4,351.3 740.4,342.9 740.8,342.9 						"/>
						<polygon class="st345" points="735,349.2 734.6,349 734.6,340.6 735,340.6 						"/>
					</g>
					<polygon class="st345" points="734.6,341.7 740.7,344.1 746.4,341.8 746.4,340.7 734.6,340.6 					"/>
					<polygon class="st345" points="740.8,342.2 740.8,344.1 746.4,341.8 746.4,340.3 					"/>
				</g>
				<polygon class="st354" points="733.2,340.4 740.5,343.3 747.3,340.5 747.3,340.2 733.2,340.1 				"/>
				<polygon class="st354" points="740,327.5 747.3,330.3 747.3,340.2 740,341.3 739.7,327.6 				"/>
				<polygon class="st345" points="733.2,340.1 740.5,342.9 747,340.3 739.7,337.4 				"/>
				<polygon class="st345" points="739.7,327.6 747,330.5 747,340.3 739.7,337.4 				"/>
				<polygon class="st369" points="739.7,327.6 747,330.5 747,340.3 739.7,337.4 				"/>
			</g>
			<g>
				<g>
					<g>
						<polygon class="st354" points="757.2,354.1 757.6,353.9 757.6,345.5 757.2,345.5 						"/>
						<polygon class="st345" points="757.2,354.1 756.7,353.9 756.7,345.5 757.2,345.5 						"/>
					</g>
					<g>
						<polygon class="st354" points="752,356.2 752.4,356 752.4,347.6 752,347.6 						"/>
						<polygon class="st345" points="752,356.2 751.6,356 751.6,347.6 752,347.6 						"/>
					</g>
					<g>
						<polygon class="st354" points="746.2,353.9 746.7,353.7 746.7,345.3 746.2,345.3 						"/>
						<polygon class="st345" points="746.3,353.9 745.8,353.7 745.8,345.3 746.3,345.3 						"/>
						<polygon class="st345" points="752,356.2 751.6,356 751.6,347.6 752,347.6 						"/>
						<polygon class="st345" points="746.3,353.9 745.8,353.7 745.8,345.3 746.3,345.3 						"/>
					</g>
					<polygon class="st345" points="745.8,346.4 752,348.8 757.6,346.5 757.6,345.4 745.8,345.3 					"/>
					<polygon class="st345" points="752,346.9 752,348.8 757.6,346.5 757.6,345 					"/>
				</g>
				<polygon class="st354" points="744.4,345.2 751.7,348 758.6,345.3 758.6,344.9 744.4,344.8 				"/>
				<polygon class="st354" points="751.2,332.2 758.5,335.1 758.6,344.9 751.2,346 750.9,332.3 				"/>
				<polygon class="st345" points="744.4,344.8 751.7,347.6 758.2,345 750.9,342.1 				"/>
				<polygon class="st345" points="750.9,332.3 758.2,335.2 758.2,345 750.9,342.1 				"/>
				<polygon class="st369" points="750.9,332.3 758.2,335.2 758.2,345 750.9,342.1 				"/>
			</g>
			<g>
				<polygon class="st156" points="786.8,349.9 792.1,349.9 792.1,357.9 781.5,357.9 781.5,349.9 				"/>
				<ellipse class="st364" cx="786.8" cy="349.9" rx="5.3" ry="1.8"/>
				<path class="st370" d="M786.8,351.2c-3.2,0-4.9-0.9-4.9-1.3c0-0.4,1.7-1.3,4.9-1.3c3.2,0,4.9,0.9,4.9,1.3
					C791.7,350.3,790,351.2,786.8,351.2z"/>
				<ellipse class="st156" cx="786.8" cy="357.9" rx="5.3" ry="1.8"/>
				<rect x="786.4" y="339.6" class="st371" width="0.9" height="11.5"/>
				<circle class="st372" cx="786.8" cy="335.4" r="6.8"/>
			</g>
			<polygon class="st344" points="762.6,362.4 729.3,375.6 696,362.3 729.2,349.1 			"/>
			<g>
				<g>
					<g>
						<polygon class="st354" points="703.6,362.9 703,362.6 703,347.8 703.6,347.8 						"/>
						<polygon class="st345" points="703.6,362.9 704.2,362.6 704.2,347.8 703.6,347.8 						"/>
					</g>
					<g>
						<polygon class="st354" points="729.6,373.2 729,372.9 729,358.1 729.6,358.1 						"/>
						<polygon class="st345" points="729.5,373.2 730.2,372.9 730.2,358.1 729.5,358.1 						"/>
					</g>
					<g>
						<polygon class="st354" points="729.7,352.4 729.1,352.2 729.1,337.4 729.7,337.4 						"/>
						<polygon class="st345" points="729.7,352.4 730.3,352.2 730.3,337.4 729.7,337.4 						"/>
					</g>
					<g>
						<polygon class="st354" points="755.7,362.8 755,362.5 755,347.7 755.7,347.7 						"/>
						<polygon class="st345" points="755.6,362.8 756.3,362.5 756.3,347.7 755.6,347.7 						"/>
						<polygon class="st345" points="729.5,373.2 730.2,372.9 730.2,358.1 729.5,358.1 						"/>
						<polygon class="st345" points="755.6,362.8 756.3,362.5 756.3,347.7 755.6,347.7 						"/>
					</g>
					<g>
						<polygon class="st345" points="756.3,349.2 729.6,359.9 703,349.2 703,347.6 756.3,347.6 						"/>
						<polygon class="st345" points="729.6,357.1 729.6,359.9 703,349.2 703,347.1 						"/>
						<polygon class="st354" points="757.7,347 729.4,358.3 701,347 701,346.4 757.7,346.4 						"/>
						<polygon class="st373" points="757.7,346.4 729.4,357.7 701,346.4 729.4,335.1 						"/>
						<polygon class="st372" points="746.3,341.7 717.9,353 711.3,350.4 739.7,339.1 						"/>
					</g>
				</g>
				<polygon class="st374" points="717.9,360.4 717.9,353 711.3,350.4 711.3,357.8 				"/>
				<path class="st156" d="M729.8,343.7h-5.3v2.3c0,1,2.4,1.8,5.3,1.8c2.9,0,5.3-0.8,5.3-1.8v-2.3H729.8z"/>
				<ellipse class="st364" cx="729.8" cy="343.7" rx="5.3" ry="1.8"/>
				<path class="st336" d="M729.8,345c-3.2,0-4.9-0.9-4.9-1.3c0-0.4,1.7-1.3,4.9-1.3s4.9,0.9,4.9,1.3C734.7,344.2,733,345,729.8,345
					z"/>
			</g>
			<g>
				<g>
					<g>
						<polygon class="st354" points="748.5,367.5 748,367.3 748,358.9 748.5,358.9 						"/>
						<polygon class="st345" points="748.4,367.5 748.9,367.3 748.9,358.9 748.4,358.9 						"/>
					</g>
					<g>
						<polygon class="st354" points="753.6,369.6 753.2,369.4 753.2,361 753.6,361 						"/>
						<polygon class="st345" points="753.6,369.6 754,369.4 754,361 753.6,361 						"/>
					</g>
					<g>
						<polygon class="st354" points="759.4,367.3 758.9,367.1 758.9,358.8 759.4,358.8 						"/>
						<polygon class="st345" points="759.3,367.3 759.8,367.1 759.8,358.8 759.3,358.8 						"/>
						<polygon class="st345" points="753.6,369.6 754,369.4 754,361 753.6,361 						"/>
						<polygon class="st345" points="759.3,367.3 759.8,367.1 759.8,358.8 759.3,358.8 						"/>
					</g>
					<polygon class="st345" points="759.8,359.8 753.7,362.2 748,359.9 748,358.8 759.8,358.7 					"/>
					<polygon class="st345" points="753.6,360.3 753.6,362.2 748,359.9 748,358.5 					"/>
				</g>
				<polygon class="st354" points="761.2,358.6 753.9,361.4 747,358.7 747,358.3 761.2,358.2 				"/>
				<line class="st354" x1="747" y1="358.3" x2="754.4" y2="359.4"/>
				<polygon class="st345" points="761.2,358.2 753.9,361 747,358.3 754.4,355.4 				"/>
				<polygon class="st375" points="761.2,358.2 753.9,361 747,358.3 754.4,355.4 				"/>
				<polygon class="st345" points="760.9,348.5 753.6,351.4 753.5,360.9 753.9,361 760.9,358.4 761.2,348.8 				"/>
				<polygon class="st354" points="761.2,348.8 753.9,351.6 753.9,361.4 761.2,358.6 				"/>
			</g>
			<g>
				<g>
					<g>
						<polygon class="st354" points="736,372.3 735.5,372.1 735.5,363.7 736,363.7 						"/>
						<polygon class="st345" points="735.9,372.3 736.4,372.1 736.4,363.7 735.9,363.7 						"/>
					</g>
					<g>
						<polygon class="st354" points="741.1,374.3 740.7,374.2 740.7,365.8 741.1,365.8 						"/>
						<polygon class="st345" points="741.1,374.3 741.5,374.2 741.5,365.8 741.1,365.8 						"/>
					</g>
					<g>
						<polygon class="st354" points="746.9,372.1 746.4,371.9 746.4,363.5 746.9,363.5 						"/>
						<polygon class="st345" points="746.9,372.1 747.3,371.9 747.3,363.5 746.9,363.5 						"/>
						<polygon class="st345" points="741.1,374.3 741.5,374.2 741.5,365.8 741.1,365.8 						"/>
						<polygon class="st345" points="746.9,372.1 747.3,371.9 747.3,363.5 746.9,363.5 						"/>
					</g>
					<polygon class="st345" points="747.3,364.6 741.2,367 735.5,364.7 735.5,363.5 747.3,363.4 					"/>
					<polygon class="st345" points="741.1,365.1 741.1,367 735.5,364.7 735.5,363.2 					"/>
				</g>
				<polygon class="st354" points="748.7,363.3 741.4,366.2 734.6,363.4 734.6,363 748.7,362.9 				"/>
				<line class="st354" x1="734.6" y1="363" x2="741.9" y2="364.1"/>
				<polygon class="st345" points="748.7,362.9 741.4,365.8 734.5,363 741.9,360.2 				"/>
				<polygon class="st375" points="748.7,362.9 741.4,365.8 734.5,363 741.9,360.2 				"/>
				<polygon class="st345" points="748.4,353.3 741.1,356.2 741,365.6 741.4,365.8 748.4,363.1 748.7,353.5 				"/>
				<polygon class="st354" points="748.7,353.5 741.4,356.4 741.4,366.2 748.7,363.3 				"/>
			</g>
		</g>
		<g>
			<g>
				<polygon class="st334" points="575.5,285.6 505.8,313.4 505.8,361.2 575.5,388.8 				"/>
				<polygon class="st335" points="575.5,285.6 645.3,313.4 645.2,361.2 575.5,389 				"/>
			</g>
			<g>
				<polygon class="st376" points="575.5,286.9 643.5,313.9 643.5,359.6 575.5,332.6 				"/>
				<polyline class="st156" points="575.5,332.6 575.5,331.2 643.5,358.3 643.5,359.6 				"/>
			</g>
			<polygon class="st377" points="643.3,359.7 575.2,386.8 507.2,359.7 575.2,332.6 			"/>
			<polygon class="st377" points="643.5,359.6 575.5,386.7 507.5,359.6 575.5,332.6 			"/>
			<g>
				<polygon class="st378" points="575.5,286.8 507.3,314 507.2,359.7 575.5,332.6 				"/>
				<polyline class="st156" points="575.5,332.6 575.5,331.3 507.2,358.4 507.2,359.7 				"/>
			</g>
			<g>
				<polygon class="st365" points="583.1,321.9 583.1,298.5 604.3,307.1 604.2,330.3 				"/>
				<polygon class="st336" points="583.9,299.7 603.5,307.7 603.4,329.1 583.9,321.3 				"/>
				<rect x="592.7" y="302.6" class="st365" width="0.8" height="23.2"/>
				<polygon class="st342" points="582.7,297.5 604.6,306.4 604.6,313.3 582.7,304.4 				"/>
				<path class="st156" d="M605.1,306.2c-0.1,0.2-0.3,0.3-0.4,0.2l-21.9-8.9c-0.2-0.1-0.3-0.3-0.2-0.4l0,0c0.1-0.2,0.3-0.3,0.4-0.2
					l21.9,8.9C605,305.9,605.1,306.1,605.1,306.2L605.1,306.2z"/>
				
					<ellipse transform="matrix(0.5449 -0.8385 0.8385 0.5449 18.5651 646.4853)" class="st335" cx="604.8" cy="306.1" rx="0.2" ry="0.2"/>
				
					<ellipse transform="matrix(0.5443 -0.8389 0.8389 0.5443 18.7748 646.8456)" class="st335" cx="604.8" cy="306.1" rx="0.1" ry="0.1"/>
				<path class="st379" d="M605,322.8c0,0.1-0.1,0.2-0.2,0.2l0,0c-0.1,0-0.2-0.1-0.2-0.2v-16.7c0-0.1,0.1-0.2,0.2-0.2l0,0
					c0.1,0,0.2,0.1,0.2,0.2V322.8z"/>
			</g>
			<g>
				<polygon class="st365" points="614.2,333.5 614.2,310.2 635.3,318.8 635.3,341.9 				"/>
				<polygon class="st336" points="615,311.3 634.5,319.3 634.5,340.8 615,333 				"/>
				<rect x="623.8" y="314.2" class="st365" width="0.8" height="23.2"/>
				<polygon class="st342" points="613.7,309.2 635.6,318.1 635.6,330.6 613.7,321.7 				"/>
				<path class="st156" d="M636.1,317.9c-0.1,0.2-0.3,0.3-0.4,0.2l-21.9-8.9c-0.2-0.1-0.3-0.3-0.2-0.4l0,0c0.1-0.2,0.3-0.3,0.4-0.2
					l21.9,8.9C636.1,317.6,636.2,317.7,636.1,317.9L636.1,317.9z"/>
				
					<ellipse transform="matrix(0.5449 -0.8385 0.8385 0.5449 22.8954 677.8127)" class="st335" cx="635.8" cy="317.8" rx="0.2" ry="0.2"/>
				
					<ellipse transform="matrix(0.5445 -0.8388 0.8388 0.5445 23.0646 678.0999)" class="st335" cx="635.8" cy="317.8" rx="0.1" ry="0.1"/>
				<path class="st379" d="M636.1,334.5c0,0.1-0.1,0.2-0.2,0.2l0,0c-0.1,0-0.2-0.1-0.2-0.2v-16.7c0-0.1,0.1-0.2,0.2-0.2l0,0
					c0.1,0,0.2,0.1,0.2,0.2V334.5z"/>
			</g>
			<g>
				<polygon class="st156" points="516.7,353 520.7,353 520.7,359.2 512.6,359.2 512.6,353 				"/>
				<ellipse class="st364" cx="516.7" cy="353" rx="4.1" ry="1.3"/>
				<path class="st370" d="M516.7,354c-2.4,0-3.7-0.7-3.7-1c0-0.3,1.3-1,3.7-1c2.4,0,3.7,0.7,3.7,1C520.4,353.3,519.1,354,516.7,354
					z"/>
				<ellipse class="st156" cx="516.7" cy="359.2" rx="4.1" ry="1.3"/>
				<rect x="516.4" y="345.2" class="st371" width="0.7" height="8.8"/>
				<circle class="st372" cx="516.7" cy="342" r="5.2"/>
			</g>
			<g>
				<polygon class="st156" points="573.2,330.2 577.3,330.2 577.3,336.4 569.2,336.4 569.2,330.2 				"/>
				<ellipse class="st364" cx="573.2" cy="330.2" rx="4.1" ry="1.3"/>
				<path class="st370" d="M573.2,331.2c-2.4,0-3.7-0.7-3.7-1c0-0.3,1.3-1,3.7-1c2.4,0,3.7,0.7,3.7,1
					C577,330.5,575.6,331.2,573.2,331.2z"/>
				<ellipse class="st156" cx="573.2" cy="336.4" rx="4.1" ry="1.3"/>
				<rect x="572.9" y="322.4" class="st371" width="0.7" height="8.8"/>
				<circle class="st372" cx="573.3" cy="319.2" r="5.2"/>
			</g>
			<g>
				<polygon class="st380" points="586.2,351.4 555.7,363.8 542.6,358.6 573.1,346.2 				"/>
				<g>
					<g>
						<polygon class="st354" points="546.7,358.9 546.2,358.7 546.2,354.2 546.7,354.2 						"/>
						<polygon class="st345" points="546.7,358.9 547.1,358.7 547.1,354.2 546.7,354.2 						"/>
					</g>
					<g>
						<polygon class="st354" points="555.3,362.3 554.9,362.1 554.9,357.7 555.3,357.7 						"/>
						<polygon class="st345" points="555.3,362.3 555.8,362.1 555.8,357.7 555.3,357.7 						"/>
					</g>
					<g>
						<polygon class="st354" points="555.4,353.5 554.9,353.3 573.5,343 574,343 						"/>
						<polygon class="st345" points="555.4,353.5 555.9,353.3 574.4,343 573.9,343 						"/>
					</g>
					<g>
						<polygon class="st354" points="582.6,351.1 582.1,350.9 582.1,346.5 582.6,346.5 						"/>
						<polygon class="st345" points="582.6,351.1 583.1,350.9 583.1,346.5 582.6,346.5 						"/>
						<polygon class="st345" points="555.3,362.3 555.8,362.1 555.8,357.7 555.3,357.7 						"/>
						<polygon class="st345" points="582.6,351.1 583.1,350.9 583.1,346.5 582.6,346.5 						"/>
					</g>
					<g>
						<polygon class="st345" points="583.1,347.6 555.4,359 546.2,355.3 546.2,354.1 583.1,346.4 						"/>
						<polygon class="st345" points="555.3,356.9 555.3,359 546.2,355.3 546.2,353.7 						"/>
						<polygon class="st354" points="584.2,345.9 555.2,357.8 544.7,353.6 544.7,353.2 584.2,345.5 						"/>
						<polygon class="st373" points="584.2,345.5 555.2,357.4 544.7,353.2 573.7,341.3 						"/>
					</g>
				</g>
			</g>
			<g>
				<g>
					<polygon class="st355" points="570.7,334.7 528,351.6 528,356.8 570.7,340 					"/>
					<polygon class="st363" points="528,356.8 522.5,354.7 522.5,349.5 528,351.6 					"/>
					<polygon class="st156" points="571.1,333.1 527.8,350.2 527.9,355.9 571.1,338.8 					"/>
					<polygon class="st364" points="527.9,355.9 522.1,353.7 522.1,348.1 527.8,350.2 					"/>
				</g>
				<polygon class="st366" points="571.1,333.1 565.4,331 522.1,348.1 527.8,350.2 				"/>
			</g>
			<g>
				<polygon class="st381" points="528.3,321.6 560.7,308.8 560.7,327.3 528.3,340.2 				"/>
				<polygon class="st382" points="559.7,310.1 529.2,322.2 529.2,338.8 559.7,326.7 				"/>
			</g>
			<g>
				<g>
					<polygon class="st355" points="554.4,337.2 544,341.3 544,342.6 554.4,338.5 					"/>
					<polygon class="st363" points="544,342.6 542.6,342.1 542.6,340.8 544,341.3 					"/>
					<polygon class="st383" points="554.5,336.8 543.9,341 543.9,342.4 554.5,338.2 					"/>
					<polygon class="st384" points="543.9,342.4 542.5,341.9 542.5,340.5 543.9,341 					"/>
				</g>
				<polygon class="st381" points="554.5,336.8 553.1,336.3 542.5,340.5 543.9,341 				"/>
			</g>
			<g>
				<g>
					<polygon class="st345" points="605.8,359.6 570.6,374 558.9,369.3 558.9,367.8 605.8,358 					"/>
					<polygon class="st345" points="570.5,371.4 570.5,374 558.9,369.3 559,367.3 					"/>
					<polygon class="st354" points="607.1,357.4 570.3,372.5 557.1,367.2 557.1,366.6 607.1,356.9 					"/>
					<polygon class="st373" points="607.1,356.9 570.3,371.9 557.1,366.6 593.9,351.6 					"/>
					<polygon class="st385" points="603.2,357.8 570.1,371.4 558.2,366.6 558.2,365.5 591.3,353.1 					"/>
					<polygon class="st386" points="603.2,356.7 570.1,370.3 558.2,365.5 591.3,351.9 					"/>
					<polygon class="st387" points="558.4,365.3 566.4,368.6 569.3,366.7 558.4,364.9 					"/>
					<polygon class="st388" points="558.4,364.9 566.4,368.1 569.3,366.2 561.8,363.5 					"/>
					<polygon class="st387" points="589.8,353.5 597.8,356.7 600.8,354.8 589.8,353 					"/>
					<polygon class="st388" points="589.8,353 597.8,356.3 600.8,354.3 593.2,351.6 					"/>
					<polygon class="st385" points="606.4,356.6 570.1,371.4 573.3,361.1 609.6,346.4 					"/>
				</g>
				<g>
					<defs>
						<polygon id="SVGID_99_" points="603.2,356.7 570.1,370.3 558.2,365.5 591.3,351.9 						"/>
					</defs>
					<clipPath id="SVGID_2_">
						<use xlink:href="#SVGID_99_"  style="overflow:visible;"/>
					</clipPath>
					<g style="clip-path:url(#SVGID_2_);">
						<line class="st390" x1="566.7" y1="361.7" x2="578.7" y2="366.3"/>
						<line class="st390" x1="572.6" y1="359.4" x2="584.6" y2="363.9"/>
						<line class="st390" x1="578.5" y1="357" x2="590.5" y2="361.5"/>
						<line class="st390" x1="584.3" y1="354.6" x2="596.3" y2="359.2"/>
					</g>
				</g>
				<polygon class="st385" points="572.8,361 573.3,361.1 570.8,370.8 569.7,370.8 565.7,368.8 				"/>
				<polygon class="st388" points="609.6,346.4 573.4,361.3 572.8,361 609,346.2 				"/>
				<polyline class="st387" points="570,371.4 573.4,361.3 609.6,346.4 606.4,356.6 570,371.4 				"/>
			</g>
		</g>
	</g>
	<g>
		<g>
			<g>
				<polygon class="st334" points="500.7,200.1 431,227.8 431,275.7 500.7,303.2 				"/>
				<polygon class="st335" points="500.7,200.1 570.5,227.8 570.4,275.6 500.7,303.4 				"/>
			</g>
			<polygon class="st334" points="500.7,201.3 568.8,228.4 568.8,274.1 500.7,247 			"/>
			<polyline class="st156" points="500.7,247 500.7,245.9 568.8,273 568.8,274.1 			"/>
			<g>
				<polygon class="st377" points="568.8,274.1 500.7,301.2 432.7,274.1 500.7,247 				"/>
				<polygon class="st338" points="500.7,201.3 432.7,228.4 432.7,274.1 500.7,247 				"/>
				<polygon class="st354" points="445.4,236 490.1,218.2 490.5,218.4 490.1,233.1 445.7,251.2 445.4,250.9 				"/>
				<polyline class="st156" points="500.7,247 500.7,246 432.7,273.1 432.7,274.1 				"/>
				<g>
					<polygon class="st344" points="501.2,250.7 496.3,248.9 484.9,253.5 489.8,255.2 					"/>
					<ellipse class="st339" cx="496.3" cy="249.9" rx="0.4" ry="0.1"/>
					<ellipse class="st339" cx="498.7" cy="250.6" rx="0.4" ry="0.1"/>
					<ellipse class="st339" cx="487.3" cy="253.5" rx="0.4" ry="0.1"/>
					<ellipse class="st339" cx="489.7" cy="254.1" rx="0.4" ry="0.1"/>
					<polygon class="st353" points="495.6,236.4 485.8,240.2 485.8,246.8 495.6,242.9 					"/>
					<g>
						<path class="st354" d="M487.5,253.3c0,0.1-0.1,0.2-0.2,0.2l0,0c-0.1,0-0.2-0.1-0.2-0.2v-6c0-0.1,0.1-0.2,0.2-0.2l0,0
							c0.1,0,0.2,0.1,0.2,0.2V253.3z"/>
						<path class="st345" d="M489.9,254c0,0.1-0.1,0.2-0.2,0.2l0,0c-0.1,0-0.2-0.1-0.2-0.2v-6c0-0.1,0.1-0.2,0.2-0.2l0,0
							c0.1,0,0.2,0.1,0.2,0.2V254z"/>
					</g>
					<g>
						<path class="st354" d="M496.5,249.8c0,0.1-0.1,0.2-0.2,0.2l0,0c-0.1,0-0.2-0.1-0.2-0.2v-6c0-0.1,0.1-0.2,0.2-0.2l0,0
							c0.1,0,0.2,0.1,0.2,0.2V249.8z"/>
						<path class="st345" d="M498.9,250.5c0,0.1-0.1,0.2-0.2,0.2l0,0c-0.1,0-0.2-0.1-0.2-0.2v-6c0-0.1,0.1-0.2,0.2-0.2l0,0
							c0.1,0,0.2,0.1,0.2,0.2V250.5z"/>
					</g>
					<polygon class="st345" points="499.6,238.5 490.3,242.2 490.3,248.5 499.6,244.8 					"/>
					<polygon class="st347" points="490.3,248.5 486.2,247.6 486.1,241.3 490.3,242.2 					"/>
					<polygon class="st355" points="499.9,237.3 495.6,236.4 485.8,240.2 490.2,241.2 					"/>
					<polygon class="st353" points="499.9,237.3 490.2,241.2 490.2,247.8 499.9,243.9 					"/>
					<polygon class="st156" points="499.6,240.9 490.5,244.5 490.5,247.2 499.6,243.5 					"/>
					<polygon class="st156" points="499.6,237.9 490.5,241.5 490.5,244.2 499.6,240.6 					"/>
					<polygon class="st345" points="496.1,239.3 494,240.1 494,240.7 496.1,239.9 					"/>
					<polygon class="st345" points="496.1,242.3 494,243.1 494,243.7 496.1,242.9 					"/>
					<polygon class="st156" points="490.2,247.8 485.8,246.8 485.8,240.2 490.2,241.2 					"/>
				</g>
				<ellipse class="st339" cx="552" cy="268.3" rx="0.4" ry="0.1"/>
				<ellipse class="st339" cx="549.5" cy="269" rx="0.4" ry="0.1"/>
				<g>
					<path class="st354" d="M551.7,268.2c0,0.1,0.1,0.2,0.2,0.2l0,0c0.1,0,0.2-0.1,0.2-0.2v-6c0-0.1-0.1-0.2-0.2-0.2l0,0
						c-0.1,0-0.2,0.1-0.2,0.2V268.2z"/>
					<path class="st345" d="M549.3,268.9c0,0.1,0.1,0.2,0.2,0.2l0,0c0.1,0,0.2-0.1,0.2-0.2v-6c0-0.1-0.1-0.2-0.2-0.2l0,0
						c-0.1,0-0.2,0.1-0.2,0.2V268.9z"/>
				</g>
				<polygon class="st347" points="549,263.3 553.1,262.4 553.1,256.1 549,257 				"/>
				<polygon class="st156" points="549.1,262.7 553.4,261.7 553.4,255.1 549.1,256.1 				"/>
				<g>
					<polygon class="st344" points="510.6,254.8 515.5,253 554.3,268.3 549.5,270.1 					"/>
					<ellipse class="st339" cx="515.6" cy="254.1" rx="0.4" ry="0.1"/>
					<ellipse class="st339" cx="513.1" cy="254.7" rx="0.4" ry="0.1"/>
					<polygon class="st353" points="516.2,240.5 553.4,255.1 553.4,261.7 516.2,247 					"/>
					<g>
						<path class="st354" d="M515.4,253.9c0,0.1,0.1,0.2,0.2,0.2l0,0c0.1,0,0.2-0.1,0.2-0.2v-6c0-0.1-0.1-0.2-0.2-0.2l0,0
							c-0.1,0-0.2,0.1-0.2,0.2V253.9z"/>
						<path class="st345" d="M512.9,254.6c0,0.1,0.1,0.2,0.2,0.2l0,0c0.1,0,0.2-0.1,0.2-0.2v-6c0-0.1-0.1-0.2-0.2-0.2l0,0
							c-0.1,0-0.2,0.1-0.2,0.2V254.6z"/>
					</g>
					<ellipse class="st339" cx="531.5" cy="260.6" rx="0.4" ry="0.1"/>
					<ellipse class="st339" cx="529" cy="261.2" rx="0.4" ry="0.1"/>
					<g>
						<path class="st354" d="M531.2,260.5c0,0.1,0.1,0.2,0.2,0.2l0,0c0.1,0,0.2-0.1,0.2-0.2v-6c0-0.1-0.1-0.2-0.2-0.2l0,0
							c-0.1,0-0.2,0.1-0.2,0.2V260.5z"/>
						<path class="st345" d="M528.8,261.1c0,0.1,0.1,0.2,0.2,0.2l0,0c0.1,0,0.2-0.1,0.2-0.2v-6c0-0.1-0.1-0.2-0.2-0.2l0,0
							c-0.1,0-0.2,0.1-0.2,0.2V261.1z"/>
					</g>
					<polygon class="st345" points="512.2,242.6 549,257 549,263.3 512.2,248.9 					"/>
					<polygon class="st355" points="511.9,241.4 516.2,240.5 553.4,255.1 549.1,256.1 					"/>
					<polygon class="st353" points="511.9,241.4 549.1,256.1 549.1,262.7 511.9,248 					"/>
					<polygon class="st156" points="512.2,245 548.8,259.4 548.8,262 512.2,247.6 					"/>
					<polygon class="st156" points="512.2,242 548.8,256.4 548.8,259.1 512.2,244.7 					"/>
					<polygon class="st353" points="522,251.8 521.7,251.6 521.7,245.5 522,245.6 					"/>
					<polygon class="st353" points="538.2,258.2 537.8,258 537.8,251.8 538.2,251.9 					"/>
				</g>
				<g>
					<polygon class="st344" points="533.1,272.7 499.9,286 452,267.5 485.2,254.2 					"/>
					<polygon class="st345" points="533.3,272 500.1,285.3 452.1,266.8 533.3,268.3 					"/>
					<polygon class="st346" points="533.3,268.3 500.1,281.6 452.1,263.1 485.3,249.8 					"/>
					<polygon class="st347" points="500.1,285.3 500.1,281.6 452.1,263.1 452.1,266.8 					"/>
					<g>
						<g>
							<g>
								<polygon class="st348" points="531,267.5 500.1,279.9 455.5,262.7 531,264.1 								"/>
							</g>
							<g>
								<path class="st348" d="M500.1,280.4c-0.1,0-0.1,0-0.2,0l-44.6-17.2c-0.2-0.1-0.4-0.3-0.3-0.6c0-0.3,0.3-0.4,0.5-0.4
									l75.5,1.4c0.3,0,0.5,0.2,0.5,0.5v3.4c0,0.2-0.1,0.4-0.3,0.5l-30.9,12.4C500.2,280.4,500.1,280.4,500.1,280.4z M458.4,263.2
									l41.6,16.1l30.4-12.2v-2.6L458.4,263.2z"/>
							</g>
						</g>
						<g>
							<g>
								<polygon class="st349" points="500.1,279.9 500.1,276.4 455.5,259.2 455.5,262.7 								"/>
							</g>
							<g>
								<path class="st349" d="M500.1,280.4c-0.1,0-0.1,0-0.2,0l-44.6-17.2c-0.2-0.1-0.3-0.3-0.3-0.5v-3.4c0-0.2,0.1-0.3,0.2-0.4
									c0.1-0.1,0.3-0.1,0.5-0.1l44.6,17.2c0.2,0.1,0.3,0.3,0.3,0.5v3.4c0,0.2-0.1,0.3-0.2,0.4
									C500.3,280.4,500.2,280.4,500.1,280.4z M456,262.3l43.6,16.8v-2.3L456,260V262.3z"/>
							</g>
						</g>
						<path class="st156" d="M531.2,263.6l-44.6-17.2c-0.1,0-0.3,0-0.4,0l-30.9,12.4c-0.2,0.1-0.3,0.3-0.3,0.5
							c0,0.2,0.1,0.4,0.3,0.5l44.6,17.2c0.1,0,0.1,0,0.2,0c0.1,0,0.1,0,0.2,0l30.9-12.4c0.2-0.1,0.3-0.3,0.3-0.5
							C531.5,263.8,531.4,263.7,531.2,263.6z"/>
					</g>
					<g class="st350">
						<g>
							<path class="st351" d="M471.6,252.1L484,247c0,0,1-0.7,5.7,1.4c4.7,2.1,3.2,2.3,3.2,2.3l-11.6,5.4c0,0-6.7-2.6-6.8-2.7
								C474.3,253.3,471.6,252.1,471.6,252.1z"/>
							
								<ellipse transform="matrix(0.3802 -0.9249 0.9249 0.3802 60.2723 598.1224)" class="st351" cx="476.4" cy="254.1" rx="1" ry="5.2"/>
						</g>
					</g>
					<g>
						<path class="st156" d="M471.3,251.8l12.4-5.1c0,0,1-0.7,5.7,1.4c4.7,2.1,3.2,2.3,3.2,2.3l-11.6,5.4c0,0-6.7-2.6-6.8-2.7
							C474.1,253,471.3,251.8,471.3,251.8z"/>
						
							<ellipse transform="matrix(0.3803 -0.9249 0.9249 0.3803 60.3978 597.6558)" class="st349" cx="476.2" cy="253.8" rx="1" ry="5.2"/>
					</g>
					<g class="st350">
						<g>
							<path class="st351" d="M457.2,257.9l13.3-5.4c0,0,1-0.8,6.1,1.5c5.1,2.3,3.4,2.4,3.4,2.4l-12.5,5.8c0,0-7.2-2.8-7.3-2.9
								C460.1,259.2,457.2,257.9,457.2,257.9z"/>
							
								<ellipse transform="matrix(0.3803 -0.9249 0.9249 0.3803 46.0621 588.8099)" class="st351" cx="462.4" cy="260" rx="1.1" ry="5.6"/>
						</g>
					</g>
					<g>
						<path class="st156" d="M456.9,257.5l13.3-5.4c0,0,1-0.8,6.1,1.5c5.1,2.3,3.4,2.4,3.4,2.4l-12.5,5.8c0,0-7.2-2.8-7.3-2.9
							C459.9,258.8,456.9,257.5,456.9,257.5z"/>
						
							<ellipse transform="matrix(0.3803 -0.9249 0.9249 0.3803 46.21 588.3243)" class="st349" cx="462.1" cy="259.7" rx="1.1" ry="5.6"/>
					</g>
					<polygon class="st349" points="468.2,268.2 468.2,264.8 498.5,250.9 503,252.7 473.3,266.8 473.3,270.1 					"/>
				</g>
				<g>
					<polygon class="st344" points="455.6,268.7 450.7,267 439.3,271.5 444.2,273.3 					"/>
					<ellipse class="st339" cx="450.7" cy="268" rx="0.4" ry="0.1"/>
					<ellipse class="st339" cx="453.1" cy="268.6" rx="0.4" ry="0.1"/>
					<ellipse class="st339" cx="441.7" cy="271.5" rx="0.4" ry="0.1"/>
					<ellipse class="st339" cx="444.1" cy="272.2" rx="0.4" ry="0.1"/>
					<polygon class="st353" points="450,254.4 440.2,258.3 440.2,264.9 450,261 					"/>
					<g>
						<path class="st354" d="M441.9,271.4c0,0.1-0.1,0.2-0.2,0.2l0,0c-0.1,0-0.2-0.1-0.2-0.2v-6c0-0.1,0.1-0.2,0.2-0.2l0,0
							c0.1,0,0.2,0.1,0.2,0.2V271.4z"/>
						<path class="st345" d="M444.3,272.1c0,0.1-0.1,0.2-0.2,0.2l0,0c-0.1,0-0.2-0.1-0.2-0.2v-6c0-0.1,0.1-0.2,0.2-0.2l0,0
							c0.1,0,0.2,0.1,0.2,0.2V272.1z"/>
					</g>
					<g>
						<path class="st354" d="M450.9,267.9c0,0.1-0.1,0.2-0.2,0.2l0,0c-0.1,0-0.2-0.1-0.2-0.2v-6c0-0.1,0.1-0.2,0.2-0.2l0,0
							c0.1,0,0.2,0.1,0.2,0.2V267.9z"/>
						<path class="st345" d="M453.3,268.5c0,0.1-0.1,0.2-0.2,0.2l0,0c-0.1,0-0.2-0.1-0.2-0.2v-6c0-0.1,0.1-0.2,0.2-0.2l0,0
							c0.1,0,0.2,0.1,0.2,0.2V268.5z"/>
					</g>
					<polygon class="st345" points="454,256.5 444.7,260.3 444.7,266.5 454,262.8 					"/>
					<polygon class="st347" points="444.7,266.5 440.5,265.6 440.5,259.3 444.7,260.3 					"/>
					<polygon class="st355" points="454.3,255.4 450,254.4 440.2,258.3 444.5,259.3 					"/>
					<polygon class="st353" points="454.3,255.4 444.5,259.3 444.6,265.9 454.3,262 					"/>
					<polygon class="st156" points="454,258.9 444.9,262.6 444.9,265.2 454,261.6 					"/>
					<polygon class="st156" points="454,256 444.9,259.6 444.9,262.3 454,258.6 					"/>
					<polygon class="st345" points="450.5,257.4 448.4,258.2 448.4,258.8 450.5,258 					"/>
					<polygon class="st345" points="450.5,260.4 448.4,261.2 448.4,261.8 450.5,261 					"/>
					<polygon class="st156" points="444.6,265.9 440.2,264.9 440.2,258.3 444.5,259.3 					"/>
				</g>
				<g>
					<polygon class="st346" points="445.7,236.2 490.5,218.4 490.5,233.4 445.7,251.2 					"/>
					<polygon class="st391" points="489.2,220.3 447,237.1 447,249.3 489.2,232.5 					"/>
					<g>
						<line class="st392" x1="455.7" y1="235.9" x2="451.3" y2="244.8"/>
						<line class="st392" x1="465.7" y1="231.9" x2="461.3" y2="240.8"/>
						<line class="st392" x1="475.7" y1="227.9" x2="471.4" y2="236.8"/>
						<line class="st392" x1="485.8" y1="223.8" x2="481.4" y2="232.8"/>
					</g>
				</g>
				<g>
					<polygon class="st340" points="516.9,239.5 516.6,239 552.9,228 553.2,228.5 553.2,253.9 					"/>
					<polygon class="st341" points="516.6,239 516.6,213.5 552.9,228 552.9,253.4 					"/>
					<polygon class="st336" points="517.9,215.4 551.6,228.8 551.6,251.5 517.9,238.1 					"/>
					<polygon class="st341" points="534.4,245.6 533,244.7 533,220.1 534.4,220.5 					"/>
					<polygon class="st342" points="515.9,212.1 553.4,226.9 553.4,249.6 515.8,234.7 					"/>
					<path class="st156" d="M554.1,226.6c-0.1,0.3-0.4,0.4-0.7,0.3L516,212.1c-0.3-0.1-0.4-0.4-0.3-0.7l0,0c0.1-0.3,0.4-0.4,0.7-0.3
						l37.5,14.8C554.1,226,554.3,226.3,554.1,226.6L554.1,226.6z"/>
					
						<ellipse transform="matrix(0.545 -0.8384 0.8384 0.545 62.0961 567.3188)" class="st335" cx="553.8" cy="226.4" rx="0.4" ry="0.3"/>
					
						<ellipse transform="matrix(0.5454 -0.8382 0.8382 0.5454 61.9487 567.1057)" class="st335" cx="553.8" cy="226.4" rx="0.2" ry="0.1"/>
					<path class="st343" d="M554.1,252.8c0,0.2-0.2,0.3-0.3,0.3l0,0c-0.2,0-0.3-0.1-0.3-0.3v-26.4c0-0.2,0.1-0.3,0.3-0.3l0,0
						c0.2,0,0.3,0.1,0.3,0.3V252.8z"/>
				</g>
			</g>
			<g>
				<path class="st156" d="M549.6,254h-1.7v0.7c0,0.3,0.8,0.6,1.7,0.6c1,0,1.7-0.3,1.7-0.6V254H549.6z"/>
				<ellipse class="st364" cx="549.6" cy="254" rx="1.7" ry="0.6"/>
				<g>
					<defs>
						<path id="SVGID_101_" d="M549.6,254.4c-1,0-1.6-0.3-1.6-0.4c0-0.1-0.9-3,1.4-3.1c2.5,0,1.8,2.9,1.8,3.1
							C551.2,254.2,550.7,254.4,549.6,254.4z"/>
					</defs>
					<clipPath id="SVGID_4_">
						<use xlink:href="#SVGID_101_"  style="overflow:visible;"/>
					</clipPath>
					<circle style="clip-path:url(#SVGID_4_);fill:#B8CB33;" cx="549.7" cy="253.3" r="1.6"/>
				</g>
			</g>
			<g>
				<path class="st156" d="M517,241.2h-1.7v0.7c0,0.3,0.8,0.6,1.7,0.6c1,0,1.7-0.3,1.7-0.6v-0.7H517z"/>
				<ellipse class="st364" cx="517" cy="241.2" rx="1.7" ry="0.6"/>
				<g>
					<defs>
						<path id="SVGID_103_" d="M517,241.6c-1,0-1.6-0.3-1.6-0.4c0-0.1-0.9-3,1.4-3.1c2.5,0,1.8,2.9,1.8,3.1
							C518.6,241.3,518,241.6,517,241.6z"/>
					</defs>
					<clipPath id="SVGID_6_">
						<use xlink:href="#SVGID_103_"  style="overflow:visible;"/>
					</clipPath>
					<circle style="clip-path:url(#SVGID_6_);fill:#B8CB33;" cx="517" cy="240.5" r="1.6"/>
				</g>
			</g>
		</g>
		<g>
			<g>
				<polygon class="st334" points="653.6,200 583.8,227.8 583.8,275.6 653.6,303.2 				"/>
				<polygon class="st335" points="653.6,200 723.3,227.8 723.3,275.6 653.5,303.3 				"/>
			</g>
			<polygon class="st395" points="653.5,201.3 721.6,228.3 721.5,274 653.5,247 			"/>
			<polyline class="st156" points="653.5,247 653.5,245.6 721.6,272.7 721.5,274 			"/>
			<polygon class="st377" points="721.3,274.1 653.3,301.2 585.2,274.1 653.3,247 			"/>
			<polygon class="st377" points="721.6,274 653.5,301.1 585.5,274 653.5,246.9 			"/>
			<polygon class="st396" points="653.5,201.2 585.3,228.4 585.2,274.1 653.5,247 			"/>
			<polyline class="st156" points="653.5,247 653.5,245.6 585.2,272.8 585.2,274.1 			"/>
			<g>
				<polygon class="st365" points="661.2,236.2 661.2,212.9 682.3,221.5 682.3,244.7 				"/>
				<polygon class="st336" points="662,214 681.5,222 681.5,243.5 662,235.7 				"/>
				<rect x="670.8" y="216.9" class="st365" width="0.8" height="23.2"/>
				<polygon class="st342" points="660.7,211.9 682.6,220.8 682.6,227.7 660.7,218.8 				"/>
				<path class="st156" d="M683.1,220.6c-0.1,0.2-0.3,0.3-0.4,0.2l-21.9-8.9c-0.2-0.1-0.3-0.3-0.2-0.4l0,0c0.1-0.2,0.3-0.3,0.4-0.2
					l21.9,8.9C683.1,220.3,683.1,220.5,683.1,220.6L683.1,220.6z"/>
				
					<ellipse transform="matrix(0.5453 -0.8382 0.8382 0.5453 125.6282 672.6501)" class="st335" cx="682.8" cy="220.5" rx="0.2" ry="0.2"/>
				
					<ellipse transform="matrix(0.5451 -0.8384 0.8384 0.5451 125.742 672.7899)" class="st335" cx="682.8" cy="220.5" rx="0.1" ry="0.1"/>
				<path class="st379" d="M683.1,237.2c0,0.1-0.1,0.2-0.2,0.2l0,0c-0.1,0-0.2-0.1-0.2-0.2v-16.7c0-0.1,0.1-0.2,0.2-0.2l0,0
					c0.1,0,0.2,0.1,0.2,0.2V237.2z"/>
			</g>
			<g>
				<polygon class="st365" points="692.2,247.9 692.2,224.5 713.3,233.2 713.3,256.3 				"/>
				<polygon class="st336" points="693,225.7 712.5,233.7 712.5,255.1 693,247.4 				"/>
				<rect x="701.8" y="228.6" class="st365" width="0.8" height="23.2"/>
				<polygon class="st342" points="691.7,223.6 713.6,232.5 713.6,245 691.7,236.1 				"/>
				<path class="st156" d="M714.1,232.3c-0.1,0.2-0.3,0.3-0.4,0.2l-21.9-8.9c-0.2-0.1-0.3-0.3-0.2-0.4l0,0c0.1-0.2,0.3-0.3,0.4-0.2
					l21.9,8.9C714.1,231.9,714.2,232.1,714.1,232.3L714.1,232.3z"/>
				
					<ellipse transform="matrix(0.5452 -0.8383 0.8383 0.5452 129.9843 704.0104)" class="st335" cx="713.9" cy="232.2" rx="0.2" ry="0.2"/>
				
					<ellipse transform="matrix(0.5453 -0.8383 0.8383 0.5453 129.9682 703.9899)" class="st335" cx="713.9" cy="232.2" rx="0.1" ry="0.1"/>
				<path class="st379" d="M714.1,248.9c0,0.1-0.1,0.2-0.2,0.2l0,0c-0.1,0-0.2-0.1-0.2-0.2v-16.7c0-0.1,0.1-0.2,0.2-0.2l0,0
					c0.1,0,0.2,0.1,0.2,0.2V248.9z"/>
			</g>
			<g>
				<polygon class="st380" points="678.5,278.4 654,288.1 629.4,278.4 654,268.6 				"/>
				<g>
					<g>
						<polygon class="st354" points="634.2,277.7 633.7,277.5 633.7,273.1 634.2,273.1 						"/>
						<polygon class="st345" points="634.1,277.7 634.6,277.5 634.6,273.1 634.1,273.1 						"/>
					</g>
					<g>
						<polygon class="st354" points="653.5,285.4 653,285.2 653,280.7 653.5,280.7 						"/>
						<polygon class="st345" points="653.5,285.4 653.9,285.2 653.9,280.7 653.5,280.7 						"/>
					</g>
					<g>
						<polygon class="st354" points="653.6,276.5 653.1,276.4 653.1,265.3 653.6,265.3 						"/>
						<polygon class="st345" points="653.5,276.5 654,276.4 654,265.3 653.5,265.3 						"/>
					</g>
					<g>
						<polygon class="st354" points="672.9,277.6 672.4,277.4 672.4,273 672.9,273 						"/>
						<polygon class="st345" points="672.9,277.6 673.3,277.4 673.3,273 672.9,273 						"/>
						<polygon class="st345" points="653.5,285.4 653.9,285.2 653.9,280.7 653.5,280.7 						"/>
						<polygon class="st345" points="672.9,277.6 673.3,277.4 673.3,273 672.9,273 						"/>
					</g>
					<g>
						<polygon class="st345" points="673.4,274.2 653.5,282.1 633.7,274.2 633.7,272.9 673.4,272.9 						"/>
						<polygon class="st345" points="653.5,280 653.5,282.1 633.7,274.2 633.7,272.6 						"/>
						<polygon class="st354" points="674.4,272.5 653.3,280.9 632.2,272.5 632.2,272 674.4,272 						"/>
						<polygon class="st373" points="674.4,272 653.3,280.4 632.2,272 653.3,263.6 						"/>
					</g>
				</g>
			</g>
			<g>
				<g>
					<polygon class="st345" points="710.4,270.4 696.4,275.9 660.5,261.6 660.5,260.5 710.4,269.3 					"/>
					<polygon class="st345" points="696.4,274.1 696.4,275.9 660.5,261.6 660.5,260.2 					"/>
					<polygon class="st354" points="711.4,268.9 696.2,274.9 659.1,260.1 659.1,259.7 711.4,268.5 					"/>
					<polygon class="st373" points="711.4,268.5 696.2,274.5 659.1,259.7 674.3,253.7 					"/>
				</g>
				<g>
					<path class="st385" d="M710.4,266.5l-49.5-8.4c-0.1,0-0.1,0-0.2,0c-0.1,0-0.1,0.1-0.1,0.2v1.4c0,0.1,0.1,0.2,0.1,0.2l35.2,14
						c0,0,0.1,0,0.1,0s0.1,0,0.1,0l14.4-5.7c0.1,0,0.1-0.1,0.1-0.2v-1.4C710.6,266.6,710.5,266.5,710.4,266.5z"/>
					<path class="st337" d="M710.5,266.5l-35.1-14c-0.1,0-0.1,0-0.2,0l-14.4,5.7c-0.1,0-0.1,0.1-0.1,0.2c0,0.1,0.1,0.2,0.1,0.2
						l35.2,14c0,0,0.1,0,0.1,0s0.1,0,0.1,0l14.4-5.7c0.1,0,0.1-0.1,0.1-0.2C710.6,266.6,710.6,266.5,710.5,266.5z"/>
				</g>
				<g>
					<path class="st385" d="M709.7,258.2l-38.4-5.9c-0.1,0-0.1,0-0.2,0c-0.1,0-0.1,0.1-0.1,0.2v1.4c0,0.1,0.1,0.2,0.1,0.2l35.2,14
						c0,0,0.1,0,0.1,0c0,0,0.1,0,0.1,0l3.6-1.4c0.1,0,0.1-0.1,0.1-0.2l-0.3-8.1C709.9,258.3,709.8,258.2,709.7,258.2z"/>
					<path class="st386" d="M709.7,258.2l-35.1-14c-0.1,0-0.1,0-0.2,0l-3.3,8.1c-0.1,0-0.1,0.1-0.1,0.2c0,0.1,0.1,0.2,0.1,0.2
						l35.2,14c0,0,0.1,0,0.1,0c0,0,0.1,0,0.1,0l3.3-8.1c0.1,0,0.1-0.1,0.1-0.2C709.9,258.3,709.8,258.3,709.7,258.2z"/>
				</g>
				<g>
					<path class="st385" d="M706.1,266.5l-12.2,2.5c-0.1,0-0.1,0-0.2,0c0,0-0.1,0.1-0.1,0.2v1.4c0,0.1,0.1,0.2,0.1,0.2l2.7,1.1
						c0,0,0.1,0,0.1,0c0,0,0.1,0,0.1,0l9.5-3.6c0.1,0,0.1-0.1,0.1-0.2v-1.4C706.3,266.6,706.2,266.5,706.1,266.5z"/>
					<path class="st397" d="M706.1,266.5l-2.7-1.1c-0.1,0-0.1,0-0.2,0l-9.5,3.6c-0.1,0-0.1,0.1-0.1,0.2c0,0.1,0.1,0.2,0.1,0.2
						l2.7,1.1c0,0,0.1,0,0.1,0c0,0,0.1,0,0.1,0l9.5-3.6c0.1,0,0.1-0.1,0.1-0.2C706.3,266.6,706.2,266.5,706.1,266.5z"/>
				</g>
				<g>
					<path class="st385" d="M673.8,253.7l-12.2,2.5c-0.1,0-0.1,0-0.2,0c-0.1,0-0.1,0.1-0.1,0.2v1.4c0,0.1,0.1,0.2,0.1,0.2l2.7,1.1
						c0,0,0.1,0,0.1,0c0,0,0.1,0,0.1,0l9.5-3.6c0.1,0,0.1-0.1,0.1-0.2v-1.4C674,253.8,673.9,253.7,673.8,253.7z"/>
					<path class="st397" d="M673.8,253.7l-2.7-1.1c-0.1,0-0.1,0-0.2,0l-9.5,3.6c-0.1,0-0.1,0.1-0.1,0.2c0,0.1,0.1,0.2,0.1,0.2
						l2.7,1.1c0,0,0.1,0,0.1,0c0,0,0.1,0,0.1,0l9.5-3.6c0.1,0,0.1-0.1,0.1-0.2C674,253.8,673.9,253.7,673.8,253.7z"/>
				</g>
				<polyline class="st390" points="669,263.2 669,261.9 680.1,257.6 680.1,256.5 684.2,248.1 				"/>
				<polyline class="st390" points="676.8,266.3 676.8,265 687.9,260.7 687.9,259.5 692,251.1 				"/>
				<polyline class="st390" points="684.4,269.3 684.4,268 695.5,263.7 695.5,262.5 699.6,254.1 				"/>
			</g>
			<g>
				<polygon class="st356" points="608.6,241.6 608.9,232.7 608.6,232.4 600.3,235.8 600.3,245 600.6,245.3 				"/>
				<polygon class="st156" points="608.9,241.9 608.9,232.7 600.6,236.1 600.6,245.3 				"/>
				<polygon class="st357" points="608,234 601.4,236.7 601.4,244 608,241.3 				"/>
				<polygon class="st356" points="618.9,237.4 619.2,228.4 618.9,228.2 610.6,231.6 610.6,240.8 610.9,241.1 				"/>
				<polygon class="st156" points="619.2,237.7 619.2,228.4 610.9,231.8 610.9,241.1 				"/>
				<polygon class="st357" points="618.4,229.7 611.8,232.4 611.8,239.8 618.4,237.1 				"/>
			</g>
			<g>
				<polygon class="st356" points="630.8,238.1 631.1,229.1 630.7,228.9 622.4,232.3 622.4,241.5 622.7,241.7 				"/>
				<polygon class="st156" points="631.1,238.3 631.1,229.1 622.7,232.5 622.7,241.7 				"/>
				<polygon class="st357" points="630.2,230.4 623.6,233.1 623.6,240.4 630.2,237.7 				"/>
				<polygon class="st356" points="641.1,233.9 641.4,224.9 641.1,224.6 632.8,228 632.8,237.3 633.1,237.5 				"/>
				<polygon class="st156" points="641.4,234.1 641.4,224.9 633.1,228.3 633.1,237.5 				"/>
				<polygon class="st357" points="640.5,226.2 633.9,228.9 633.9,236.2 640.5,233.5 				"/>
			</g>
			<polygon class="st380" points="668.6,252.7 655,258.1 641.4,252.7 655,247.3 			"/>
			<g>
				<g>
					<polygon class="st354" points="644,252.4 643.8,252.3 643.8,249.8 644,249.8 					"/>
					<polygon class="st345" points="644,252.4 644.3,252.3 644.3,249.8 644,249.8 					"/>
				</g>
				<g>
					<polygon class="st354" points="654.7,256.6 654.5,256.5 654.5,254.1 654.7,254.1 					"/>
					<polygon class="st345" points="654.7,256.6 655,256.5 655,254.1 654.7,254.1 					"/>
				</g>
				<g>
					<polygon class="st354" points="654.8,251.7 654.5,251.6 654.5,245.5 654.8,245.5 					"/>
					<polygon class="st345" points="654.8,251.7 655,251.6 655,245.5 654.8,245.5 					"/>
				</g>
				<g>
					<polygon class="st354" points="665.5,252.3 665.2,252.2 665.2,249.8 665.5,249.8 					"/>
					<polygon class="st345" points="665.5,252.3 665.7,252.2 665.7,249.8 665.5,249.8 					"/>
					<polygon class="st345" points="654.7,256.6 655,256.5 655,254.1 654.7,254.1 					"/>
					<polygon class="st345" points="665.5,252.3 665.7,252.2 665.7,249.8 665.5,249.8 					"/>
				</g>
				<g>
					<polygon class="st345" points="665.7,250.4 654.8,254.8 643.8,250.4 643.8,249.7 665.7,249.7 					"/>
					<polygon class="st345" points="654.7,253.6 654.7,254.8 643.8,250.4 643.8,249.5 					"/>
					<polygon class="st354" points="666.3,249.5 654.6,254.1 642.9,249.5 642.9,249.2 666.3,249.2 					"/>
					<polygon class="st373" points="666.3,249.2 654.6,253.9 642.9,249.2 654.6,244.6 					"/>
				</g>
			</g>
			<g>
				<g>
					<polygon class="st345" points="599.2,270.4 613.2,275.9 649.1,261.6 649.1,260.4 599.2,269.3 					"/>
					<polygon class="st345" points="613.3,274 613.3,275.9 649.1,261.6 649.1,260.1 					"/>
					<polygon class="st354" points="598.3,268.8 613.4,274.8 650.5,260 650.5,259.6 598.3,268.5 					"/>
					<polygon class="st373" points="598.3,268.5 613.4,274.4 650.5,259.6 635.3,253.7 					"/>
				</g>
				<g>
					<path class="st385" d="M599.2,266.4l49.5-8.4c0.1,0,0.1,0,0.2,0c0.1,0,0.1,0.1,0.1,0.2v1.4c0,0.1-0.1,0.2-0.1,0.2l-35.2,14
						c0,0-0.1,0-0.1,0s-0.1,0-0.1,0l-14.4-5.7c-0.1,0-0.1-0.1-0.1-0.2v-1.4C599,266.5,599.1,266.5,599.2,266.4z"/>
					<path class="st337" d="M599.1,266.4l35.1-14c0.1,0,0.1,0,0.2,0l14.4,5.7c0.1,0,0.1,0.1,0.1,0.2c0,0.1-0.1,0.2-0.1,0.2l-35.2,14
						c0,0-0.1,0-0.1,0s-0.1,0-0.1,0l-14.4-5.7c-0.1,0-0.1-0.1-0.1-0.2C599,266.6,599.1,266.5,599.1,266.4z"/>
				</g>
				<g>
					<path class="st385" d="M599.9,258.1l38.4-5.9c0.1,0,0.1,0,0.2,0c0,0,0.1,0.1,0.1,0.2v1.4c0,0.1-0.1,0.2-0.1,0.2l-35.2,14
						c0,0-0.1,0-0.1,0s-0.1,0-0.1,0l-3.6-1.4c-0.1,0-0.1-0.1-0.1-0.2l0.3-8.1C599.7,258.3,599.8,258.2,599.9,258.1z"/>
					<path class="st386" d="M599.9,258.2l35.1-14c0.1,0,0.1,0,0.2,0l3.3,8.1c0.1,0,0.1,0.1,0.1,0.2c0,0.1-0.1,0.2-0.1,0.2l-35.2,14
						c0,0-0.1,0-0.1,0s-0.1,0-0.1,0l-3.3-8.1c-0.1,0-0.1-0.1-0.1-0.2C599.7,258.3,599.8,258.2,599.9,258.2z"/>
				</g>
				<g>
					<path class="st385" d="M603.5,266.4l12.2,2.5c0.1,0,0.1,0,0.2,0c0,0,0.1,0.1,0.1,0.2v1.4c0,0.1-0.1,0.2-0.1,0.2l-2.7,1.1
						c0,0-0.1,0-0.1,0s-0.1,0-0.1,0l-9.5-3.6c-0.1,0-0.1-0.1-0.1-0.2v-1.4C603.3,266.5,603.4,266.5,603.5,266.4z"/>
					<path class="st397" d="M603.5,266.4l2.7-1.1c0.1,0,0.1,0,0.2,0l9.5,3.6c0.1,0,0.1,0.1,0.1,0.2c0,0.1-0.1,0.2-0.1,0.2l-2.7,1.1
						c0,0-0.1,0-0.1,0s-0.1,0-0.1,0l-9.5-3.6c-0.1,0-0.1-0.1-0.1-0.2C603.3,266.6,603.4,266.5,603.5,266.4z"/>
				</g>
				<g>
					<path class="st385" d="M635.8,253.6l12.2,2.5c0.1,0,0.1,0,0.2,0c0.1,0,0.1,0.1,0.1,0.2v1.4c0,0.1-0.1,0.2-0.1,0.2l-2.7,1.1
						c0,0-0.1,0-0.1,0c0,0-0.1,0-0.1,0l-9.5-3.6c-0.1,0-0.1-0.1-0.1-0.2v-1.4C635.6,253.7,635.7,253.7,635.8,253.6z"/>
					<path class="st397" d="M635.8,253.6l2.7-1.1c0.1,0,0.1,0,0.2,0l9.5,3.6c0.1,0,0.1,0.1,0.1,0.2c0,0.1-0.1,0.2-0.1,0.2l-2.7,1.1
						c0,0-0.1,0-0.1,0c0,0-0.1,0-0.1,0l-9.5-3.6c-0.1,0-0.1-0.1-0.1-0.2S635.7,253.7,635.8,253.6z"/>
				</g>
				<polyline class="st390" points="640.6,263.2 640.6,261.9 629.5,257.6 629.5,256.4 625.4,248 				"/>
				<polyline class="st390" points="632.8,266.2 632.8,264.9 621.7,260.6 621.7,259.4 617.6,251.1 				"/>
				<polyline class="st390" points="625.2,269.2 625.2,267.9 614.1,263.6 614.1,262.4 610,254.1 				"/>
			</g>
			<g>
				<polygon class="st156" points="713.5,267.5 717.6,267.5 717.6,273.7 709.4,273.7 709.4,267.5 				"/>
				<ellipse class="st364" cx="713.5" cy="267.5" rx="4.1" ry="1.3"/>
				<path class="st370" d="M713.5,268.5c-2.4,0-3.7-0.7-3.7-1c0-0.3,1.3-1,3.7-1c2.4,0,3.7,0.7,3.7,1
					C717.2,267.9,715.9,268.5,713.5,268.5z"/>
				<ellipse class="st156" cx="713.5" cy="273.7" rx="4.1" ry="1.3"/>
				<rect x="713.2" y="259.7" class="st371" width="0.7" height="8.8"/>
				<circle class="st372" cx="713.5" cy="256.5" r="5.2"/>
			</g>
			<g>
				<polygon class="st156" points="594.7,267.4 598.8,267.4 598.8,273.5 590.6,273.5 590.6,267.4 				"/>
				<ellipse class="st364" cx="594.7" cy="267.4" rx="4.1" ry="1.3"/>
				<path class="st370" d="M594.7,268.4c-2.4,0-3.7-0.7-3.7-1c0-0.3,1.3-1,3.7-1c2.4,0,3.7,0.7,3.7,1
					C598.4,267.7,597.1,268.4,594.7,268.4z"/>
				<ellipse class="st156" cx="594.7" cy="273.5" rx="4.1" ry="1.3"/>
				<rect x="594.4" y="259.6" class="st371" width="0.7" height="8.8"/>
				<circle class="st372" cx="594.7" cy="256.3" r="5.2"/>
			</g>
			<g>
				<ellipse class="st395" cx="653" cy="271.9" rx="9.7" ry="4.4"/>
				<ellipse class="st395" cx="653" cy="271.9" rx="7.4" ry="3.3"/>
				<ellipse class="st395" cx="653" cy="271.9" rx="4.9" ry="2.2"/>
			</g>
			<g>
				<path class="st156" d="M654.9,247.9h-3.4v1.5c0,0.6,1.5,1.1,3.4,1.1c1.9,0,3.4-0.5,3.4-1.1v-1.5H654.9z"/>
				<ellipse class="st364" cx="654.9" cy="247.9" rx="3.4" ry="1.1"/>
				<g>
					<defs>
						<path id="SVGID_105_" d="M654.9,248.7c-2,0-3.1-0.6-3.1-0.8c0-0.3-1.7-5.9,2.8-6c5-0.1,3.4,5.7,3.4,6
							C658,248.1,656.9,248.7,654.9,248.7z"/>
					</defs>
					<clipPath id="SVGID_8_">
						<use xlink:href="#SVGID_105_"  style="overflow:visible;"/>
					</clipPath>
					<circle style="clip-path:url(#SVGID_8_);fill:#B8CB33;" cx="655" cy="246.6" r="3.1"/>
				</g>
			</g>
		</g>
	</g>
</g>
</svg>
